<svg version="1.1" id="Calque_1" xmlns="http://www.w3.org/2000/svg" xmlns:xlink="http://www.w3.org/1999/xlink" x="0px" y="0px" viewBox="0 0 1704 668" style="margin-top: 22.5797px;" xml:space="preserve" class="picto_cap picto_users"> <g class="branche branche_haut_gauche"> <polygon class="vert trait" points="707.9,437.8 403.5,437.8 300.3,334.7 196.1,334.7 196.1,312.7 309.4,312.7 412.6,415.8 707.9,415.8 "></polygon> <g class="cercle"> <circle class="blanc cercle_fill" cx="196.1" cy="323.7" r="34.3"></circle> <path class="vert cercle_contour" d="M196.1,369c-25,0-45.3-20.3-45.3-45.3c0-25,20.3-45.3,45.3-45.3s45.3,20.3,45.3,45.3
 C241.4,348.7,221.1,369,196.1,369z M196.1,300.3c-12.9,0-23.3,10.5-23.3,23.3c0,12.9,10.5,23.3,23.3,23.3s23.3-10.5,23.3-23.3
 C219.4,310.8,208.9,300.3,196.1,300.3z"></path> </g> </g> <g class="branche branche_haut_droite"> <polygon class="vert trait_droite trait_haut" points="1306.1,437.8 1001.7,437.8 1001.7,415.8 1297,415.8 1400.2,312.7 1513.5,312.7 1513.5,334.7 1409.3,334.7 "></polygon> <g class="cercle"> <circle class="blanc cercle_fill" cx="1510.6" cy="323.7" r="34.3"></circle> <path class="vert cercle_contour" d="M1510.6,369c-25,0-45.3-20.3-45.3-45.3c0-25,20.3-45.3,45.3-45.3c25,0,45.3,20.3,45.3,45.3
 C1556,348.7,1535.6,369,1510.6,369z M1510.6,300.3c-12.9,0-23.3,10.5-23.3,23.3c0,12.9,10.5,23.3,23.3,23.3
 c12.9,0,23.3-10.5,23.3-23.3C1534,310.8,1523.5,300.3,1510.6,300.3z"></path> </g> </g> <g class="user user_droite"> <path class="vert" d="M1079.6,278.2c48.7,0,88.1-39.4,88.1-88.1s-39.4-88.1-88.1-88.1s-88.1,39.4-88.1,88.1
 S1030.9,278.2,1079.6,278.2z M1141.3,300.2h-11.5c-15.3,7-32.3,11-50.2,11s-34.8-4-50.2-11h-11.5c-51.1,0-92.5,41.4-92.5,92.5
 v28.6h308.4v-28.6C1233.8,341.6,1192.4,300.2,1141.3,300.2z"></path> </g> <g class="user user_gauche"> <path class="vert" d="M623.7,278.2c48.7,0,88.1-39.4,88.1-88.1s-39.4-88.1-88.1-88.1c-48.7,0-88.1,39.4-88.1,88.1
 S575.1,278.2,623.7,278.2z M685.4,300.2h-11.5c-15.3,7-32.3,11-50.2,11s-34.8-4-50.2-11h-11.5c-51.1,0-92.5,41.4-92.5,92.5v28.6
 H778v-28.6C778,341.6,736.5,300.2,685.4,300.2z"></path> </g> <g class="user user_centre"> <path class="bleu" d="M851.7,278.2c70.7,0,128-57.3,128-128s-57.3-128-128-128s-128,57.3-128,128S781,278.2,851.7,278.2z
 M941.3,310.2h-16.7c-22.2,10.2-46.9,16-72.9,16s-50.6-5.8-72.9-16h-16.7c-74.2,0-134.4,60.2-134.4,134.4v41.6h448v-41.6
 C1075.7,370.4,1015.5,310.2,941.3,310.2z"></path> </g> <g class="branche branche_bas_droite"> <polygon class="bleu" points="1403.5,600.3 1250.2,600.3 1147,497.2 851.7,497.2 851.7,475.2 1156.1,475.2 1259.3,578.3 
 1403.5,578.3 	"></polygon> <g class="cercle"> <circle class="blanc cercle_fill" cx="1397.2" cy="586.3" r="48.5"></circle> <path class="bleu cercle_contour" d="M1397.2,645.8c-32.8,0-59.5-26.7-59.5-59.5c0-32.8,26.7-59.5,59.5-59.5c32.8,0,59.5,26.7,59.5,59.5
 C1456.8,619.1,1430.1,645.8,1397.2,645.8z M1397.2,548.7c-20.7,0-37.5,16.8-37.5,37.5c0,20.7,16.8,37.5,37.5,37.5
 c20.7,0,37.5-16.8,37.5-37.5C1434.8,565.6,1417.9,548.7,1397.2,548.7z"></path> </g> </g> <g class="branche branche_bas_gauche"> <polygon class="bleu" points="459.4,600.3 306.1,600.3 306.1,578.3 450.3,578.3 553.5,475.2 857.9,475.2 857.9,497.2 562.6,497.2"></polygon> <g class="cercle"> <circle class="blanc cercle_fill" cx="312.4" cy="586.3" r="48.5"></circle> <path class="bleu cercle_contour" d="M312.4,645.8c-32.8,0-59.5-26.7-59.5-59.5c0-32.8,26.7-59.5,59.5-59.5s59.5,26.7,59.5,59.5
 C371.9,619.1,345.2,645.8,312.4,645.8z M312.4,548.7c-20.7,0-37.5,16.8-37.5,37.5c0,20.7,16.8,37.5,37.5,37.5s37.5-16.8,37.5-37.5
 C349.9,565.6,333.1,548.7,312.4,548.7z"></path> </g> </g> <g class="branche branche_centre_droit"> <polygon class="vert" points="1654,502.8 1354.3,502.8 1289.5,438 1203.2,438 1203.2,416 1298.6,416 1363.4,480.8 1654,480.8 	"></polygon> <circle class="vert cercle_fill" cx="1654" cy="491.8" r="34.3"></circle> </g> <g class="branche branche_centre_gauche"> <polygon class="vert" points="350,502.8 50.2,502.8 50.2,480.8 340.9,480.8 405.7,416 501.1,416 501.1,438 414.8,438 	"></polygon> <circle class="vert cercle_fill" cx="50.2" cy="491.8" r="34.3"></circle> </g> </svg>