<svg version="1.1" id="Calque_1" xmlns="http://www.w3.org/2000/svg" xmlns:xlink="http://www.w3.org/1999/xlink" x="0px" y="0px" viewBox="0 0 1702 801" style="height: 177.627px;" xml:space="preserve" class="picto_cap picto_server"> <g class="branche branche_haut_gauche"> <polygon class="vert" points="597.8,537.1 403.5,537.1 300.3,433.9 196.1,433.9 196.1,411.9 309.4,411.9 412.6,515.1 597.8,515.1 "></polygon> <g class="cercle"> <circle class="blanc" cx="196.1" cy="422.9" r="34.3"></circle> <path class="vert" d="M196.1,468.3c-25,0-45.3-20.3-45.3-45.3c0-25,20.3-45.3,45.3-45.3s45.3,20.3,45.3,45.3
 C241.4,447.9,221.1,468.3,196.1,468.3z M196.1,399.6c-12.9,0-23.3,10.5-23.3,23.3c0,12.9,10.5,23.3,23.3,23.3s23.3-10.5,23.3-23.3
 C219.4,410.1,208.9,399.6,196.1,399.6z"></path> </g> </g> <g class="branche branche_haut_droite"> <polygon class="vert" points="1304.1,537.1 1095,537.1 1095,515.1 1295,515.1 1398.2,411.9 1511.5,411.9 1511.5,433.9 1407.3,433.9"></polygon> <g class="cercle"> <circle class="blanc" cx="1508.6" cy="422.9" r="34.3"></circle> <path class="vert" d="M1508.6,468.3c-25,0-45.3-20.3-45.3-45.3c0-25,20.3-45.3,45.3-45.3c25,0,45.3,20.3,45.3,45.3
 C1554,447.9,1533.6,468.3,1508.6,468.3z M1508.6,399.6c-12.9,0-23.3,10.5-23.3,23.3c0,12.9,10.5,23.3,23.3,23.3
 c12.9,0,23.3-10.5,23.3-23.3C1532,410.1,1521.5,399.6,1508.6,399.6z"></path> </g> </g> <g class="branche branche_bas_droite"> <polygon class="bleu" points="1455,699.6 1301.6,699.6 1198.4,596.4 1103.5,596.4 1103.5,574.4 1207.6,574.4 1310.7,677.6 1455,677.6"></polygon> <g class="cercle"> <circle class="blanc" cx="1448.7" cy="685.6" r="48.5"></circle> <path class="bleu" d="M1448.7,745.1c-32.8,0-59.5-26.7-59.5-59.5c0-32.8,26.7-59.5,59.5-59.5s59.5,26.7,59.5,59.5
 C1508.2,718.4,1481.5,745.1,1448.7,745.1z M1448.7,648c-20.7,0-37.5,16.8-37.5,37.5c0,20.7,16.8,37.5,37.5,37.5
 s37.5-16.8,37.5-37.5C1486.2,664.9,1469.4,648,1448.7,648z"></path> </g> </g> <g class="branche branche_bas_gauche"> <polygon class="bleu" points="403.8,699.6 250.5,699.6 250.5,677.6 394.7,677.6 497.9,574.4 597.8,574.4 597.8,596.4 507,596.4 	"></polygon> <g class="cercle"> <circle class="blanc" cx="256.8" cy="685.6" r="48.5"></circle> <path class="bleu" d="M256.8,745.1c-32.8,0-59.5-26.7-59.5-59.5c0-32.8,26.7-59.5,59.5-59.5s59.5,26.7,59.5,59.5
 C316.3,718.4,289.6,745.1,256.8,745.1z M256.8,648c-20.7,0-37.5,16.8-37.5,37.5c0,20.7,16.8,37.5,37.5,37.5s37.5-16.8,37.5-37.5
 C294.3,664.9,277.5,648,256.8,648z"></path> </g> </g> <g class="branche branche_centre_droit"> <polygon class="vert" points="1652,602.1 1352.3,602.1 1284.3,534 1299.8,518.5 1361.4,580.1 1652,580.1 	"></polygon> <circle class="vert" cx="1652" cy="591.1" r="34.3"></circle> </g> <g class="branche branche_centre_gauche"> <polygon class="vert" points="350,602.1 50.2,602.1 50.2,580.1 340.9,580.1 402.5,518.5 418,534 	"></polygon> <circle class="vert" cx="50.2" cy="591.1" r="34.3"></circle> </g> <g class="serveurs"> <path class="bleu" d="M1075.7,465.4h-448c-17.7,0-32-14.3-32-32v-64c0-17.7,14.3-32,32-32h448c17.7,0,32,14.3,32,32v64
 C1107.7,451,1093.4,465.4,1075.7,465.4z M1027.7,377.4c-13.3,0-24,10.7-24,24c0,13.3,10.7,24,24,24c13.3,0,24-10.7,24-24
 C1051.7,388.1,1040.9,377.4,1027.7,377.4z M963.7,377.4c-13.3,0-24,10.7-24,24c0,13.3,10.7,24,24,24s24-10.7,24-24
 C987.7,388.1,976.9,377.4,963.7,377.4z M1075.7,625.4h-448c-17.7,0-32-14.3-32-32v-64c0-17.7,14.3-32,32-32h448
 c17.7,0,32,14.3,32,32v64C1107.7,611,1093.4,625.4,1075.7,625.4z M1027.7,537.4c-13.3,0-24,10.7-24,24s10.7,24,24,24
 c13.3,0,24-10.7,24-24S1040.9,537.4,1027.7,537.4z M963.7,537.4c-13.3,0-24,10.7-24,24s10.7,24,24,24s24-10.7,24-24
 S976.9,537.4,963.7,537.4z M1075.7,785.4h-448c-17.7,0-32-14.3-32-32v-64c0-17.7,14.3-32,32-32h448c17.7,0,32,14.3,32,32v64
 C1107.7,771,1093.4,785.4,1075.7,785.4z M1027.7,697.4c-13.3,0-24,10.7-24,24s10.7,24,24,24c13.3,0,24-10.7,24-24
 S1040.9,697.4,1027.7,697.4z M963.7,697.4c-13.3,0-24,10.7-24,24s10.7,24,24,24s24-10.7,24-24S976.9,697.4,963.7,697.4z"></path> </g> <g class="etoiles"> <path class="vert" d="M843.3,21.6l-19,38.5l-42.5,6.2c-7.6,1.1-10.7,10.5-5.1,15.9l30.8,30l-7.3,42.3c-1.3,7.7,6.7,13.4,13.5,9.8
 l38-20l38,20c6.7,3.5,14.8-2.2,13.5-9.8l-7.3-42.3l30.8-30c5.5-5.4,2.5-14.8-5.1-15.9L879,60.1l-19-38.5
 C856.6,14.7,846.8,14.6,843.3,21.6L843.3,21.6z"></path> <path class="vert" d="M1032.4,133.7l-19,38.5l-42.5,6.2c-7.6,1.1-10.7,10.5-5.1,15.9l30.8,30l-7.3,42.3
 c-1.3,7.7,6.7,13.4,13.5,9.8l38-20l38,20c6.7,3.5,14.8-2.2,13.5-9.8l-7.3-42.3l30.8-30c5.5-5.4,2.5-14.8-5.1-15.9l-42.5-6.2
 l-19-38.5C1045.7,126.8,1035.9,126.7,1032.4,133.7L1032.4,133.7z"></path> <path class="vert" d="M654.2,132.9l-19,38.5l-42.5,6.2c-7.6,1.1-10.7,10.5-5.1,15.9l30.8,30l-7.3,42.3c-1.3,7.7,6.7,13.4,13.5,9.8
 l38-20l38,20c6.7,3.5,14.8-2.2,13.5-9.8l-7.3-42.3l30.8-30c5.5-5.4,2.5-14.8-5.1-15.9l-42.5-6.2l-19-38.5
 C667.5,126.1,657.7,126,654.2,132.9L654.2,132.9z"></path> </g> </svg>