<?xml version="1.0" encoding="utf-8"?>
<!-- Generator: Adobe Illustrator 25.0.1, SVG Export Plug-In . SVG Version: 6.00 Build 0)  -->
<svg version="1.1" id="Calque_1" xmlns="http://www.w3.org/2000/svg" xmlns:xlink="http://www.w3.org/1999/xlink" x="0px" y="0px"
	 viewBox="0 0 610.54 248.14" style="enable-background:new 0 0 610.54 248.14;" xml:space="preserve">
<style type="text/css">
	.st0{fill:#0046FD;}
	.st1{fill:#FEFEFE;}
</style>
<g>
	<path class="st0" d="M395.82,130.12c0,22.82,0.03,45.64-0.01,68.45c-0.04,27.57-21.86,49.41-49.42,49.49
		c-14.66,0.04-29.32-0.07-43.98,0.07c-2.97,0.03-4.07-0.63-3.97-3.83c0.24-7.99,0.2-15.99,0.02-23.98
		c-0.06-2.87,0.85-3.66,3.66-3.62c11.99,0.14,23.99,0.1,35.98,0.05c16.54-0.06,24.73-8.36,24.73-24.98c0-6,0.07-11.99-0.05-17.99
		c-0.03-1.3,1-3.31-1.09-3.84c-1.91-0.48-3.82-0.42-5.4,1.47c-6.74,8.12-15.74,11.93-25.99,13.27
		c-24.72,3.22-48.36-10.74-59.75-35.33c-13.72-29.61-6.2-66.65,17.19-86.28c18.77-15.76,50.77-17.65,68.36,2.19
		c1.6,1.8,3.47,2.79,5.72,1.95c2.38-0.88,1.23-3.18,1.26-4.81c0.17-8.41,0.11-8.42,8.32-8.42c6.5,0,13.01,0.32,19.48-0.11
		c4.42-0.3,5.07,1.34,5.04,5.3C395.72,82.82,395.82,106.47,395.82,130.12z"/>
	<path class="st0" d="M610.45,93.11c0,28.81-0.07,57.61,0.09,86.42c0.02,3.87-0.92,5.19-4.93,5.04c-7.98-0.31-15.99-0.22-23.98-0.03
		c-3.17,0.08-4.34-0.73-4.31-4.14c0.02-2.56,1.88-6.19-1.29-7.67c-3.7-1.73-5.3,2.14-7.57,4.16c-13.88,12.35-30.17,13.51-46.84,8.32
		c-23.5-7.32-36.73-24.8-41.47-48.15c-5.31-26.12-0.08-50.01,19.82-69.18c16.82-16.19,44.38-18.99,62.71-6.72
		c2.79,1.87,5.36,4.02,7.43,6.61c1.69,2.11,3.71,2.99,6.07,2.21c2.39-0.79,1.21-3.16,1.21-4.78c0.09-19.65,0.19-39.3-0.05-58.94
		c-0.05-4.1,1.27-5,5.06-4.87c7.82,0.27,15.66,0.29,23.48-0.01c3.85-0.15,4.66,1.16,4.64,4.82
		C610.38,35.16,610.45,64.14,610.45,93.11z"/>
	<path class="st0" d="M198.45,127.95c-14.33,0-28.66,0.12-42.98-0.08c-3.61-0.05-4.53,1.03-4.23,4.51
		c1.39,15.84,15.36,27.1,32.62,26.18c10.98-0.59,20.64-3.76,26.9-13.57c1.24-1.95,2.6-1.46,4.24-1.09
		c7.61,1.75,15.22,3.52,22.87,5.12c2.98,0.63,3.18,1.85,2.05,4.48c-7.41,17.17-20.41,27.77-38.44,31.73
		c-26.57,5.83-50.64,1.03-68.97-20.35c-29.58-34.48-17.2-99.49,36.36-110.22c38.83-7.78,75.34,16.51,76.96,62.07
		c0.4,11.21,0.28,11.21-10.88,11.21C222.78,127.95,210.61,127.95,198.45,127.95z"/>
	<path class="st0" d="M71.18,53.83c11.05-0.52,22.02,2.44,32.71,6.97c2.74,1.16,3.91,2.12,2.46,5.33c-2.93,6.5-5.5,13.16-7.99,19.85
		c-0.98,2.62-2.04,3.15-4.66,1.98c-9.2-4.12-18.95-5.34-28.8-3.58c-20.48,3.67-31.89,20.61-28.72,41.99
		c3.89,26.16,30.14,39.12,55.45,26.91c4.85-2.34,6.27-1.31,8,3c2.1,5.23,4.76,10.23,7.26,15.28c0.81,1.64,1.31,2.85-0.68,4.15
		c-30.07,19.52-78.9,15.44-97.47-23.57C-12.04,108.45,13.85,52.91,71.18,53.83z"/>
	<path class="st0" d="M456.81,121.5c0,19.13-0.11,38.27,0.1,57.4c0.04,3.83-1.09,4.78-4.76,4.66c-7.98-0.27-15.97-0.18-23.96-0.03
		c-2.83,0.05-4.15-0.5-4.14-3.78c0.1-38.93,0.1-77.86,0.01-116.79c-0.01-3.13,1.06-3.93,4.04-3.87c8.15,0.18,16.31,0.25,24.46-0.02
		c3.66-0.12,4.35,1.21,4.33,4.54C456.73,82.9,456.81,102.2,456.81,121.5z"/>
	<path class="st0" d="M441.52,0c11.08,0.07,19.29,8.24,19.29,19.2c0,11.09-8.44,19.54-19.59,19.62
		c-11.42,0.08-20.22-8.56-20.06-19.69C421.31,7.63,429.51-0.08,441.52,0z"/>
	<path class="st1" d="M297.68,117.47c0.08-25.72,22.8-42.21,45.39-32.76c13.48,5.64,18.94,16.88,20.32,30.69
		c1.69,16.89-9.47,33.62-25.04,37.49c-20.68,5.14-39.87-10.16-40.67-32.42C297.65,119.47,297.68,118.47,297.68,117.47z"/>
	<path class="st1" d="M577.8,120.3c0.05,10.75-3.18,19.98-10.65,27.38c-12.36,12.24-32.54,12.01-44.95-0.33
		c-14-13.91-13.93-40.37,0.47-53.68c9.96-9.21,21.82-11.16,34.35-6.37c12.99,4.97,18.93,15.5,20.59,28.82
		C577.78,117.6,577.75,119.1,577.8,120.3z"/>
	<path class="st1" d="M181.99,106.96c-8.82,0-17.64-0.3-26.44,0.12c-4.65,0.22-4.41-1.8-3.57-4.96
		c3.7-13.93,18.66-23.72,33.41-21.84c13.89,1.77,23.89,10.25,26.82,22.47c0.76,3.15,0.45,4.41-3.27,4.3
		C199.96,106.78,190.98,106.96,181.99,106.96z"/>
</g>
</svg>
