<?xml version="1.0" encoding="utf-8"?>
<!-- Generator: Adobe Illustrator 25.1.0, SVG Export Plug-In . SVG Version: 6.00 Build 0)  -->
<svg version="1.1" id="Calque_1" xmlns="http://www.w3.org/2000/svg" xmlns:xlink="http://www.w3.org/1999/xlink" x="0px" y="0px"
	 viewBox="0 0 1388.25 426.75" style="enable-background:new 0 0 1388.25 426.75;" xml:space="preserve">
<style type="text/css">
	.st0{fill:#010202;}
	.st1{fill:#A1A1A1;}
	.st2{fill:#F2912B;}
	.st3{fill:#020303;}
	.st4{fill:#030404;}
	.st5{fill:#FEFEFE;}
	.st6{fill:#FAFAFA;}
	.st7{fill:#FCFCFC;}
	.st8{fill:#F8F8F8;}
	.st9{fill:#F9F9F9;}
</style>
<g>
	<path class="st0" d="M0.07,12.83c7.49-0.79,7.49-0.79,7.49,6.48c0,97.2,0,194.4,0,291.6c0,5.23,0,5.22-5.28,5.31
		c-0.74,0.01-1.47,0.16-2.21,0.24C0.07,215.25,0.07,114.04,0.07,12.83z"/>
	<path class="st0" d="M701.61,426.68c-0.42-0.22-0.82-0.54-1.27-0.65c-11.68-2.96-18.88-13.35-17.23-24.9
		c1.62-11.35,11.76-19.56,23.61-19.12c11.94,0.44,21.32,8.59,22.48,19.54c1.25,11.82-5.69,21.46-17.68,24.56
		c-0.33,0.09-0.62,0.37-0.93,0.57C707.61,426.68,704.61,426.68,701.61,426.68z"/>
	<path class="st0" d="M889.74,426.68c-0.43-0.22-0.83-0.53-1.29-0.64c-11.85-2.98-19.04-13.44-17.28-25.2
		c1.65-11.06,11.81-19.2,23.5-18.84c12.06,0.37,21.38,8.56,22.59,19.84c1.23,11.5-5.8,21.18-17.62,24.26
		c-0.33,0.09-0.6,0.38-0.9,0.58C895.73,426.68,892.73,426.68,889.74,426.68z"/>
	<path class="st0" d="M1287.72,426.68c-0.42-0.22-0.82-0.54-1.27-0.65c-11.68-2.96-18.87-13.32-17.25-24.89
		c1.58-11.31,11.77-19.57,23.61-19.14c11.95,0.44,21.28,8.53,22.5,19.53c1.3,11.75-5.68,21.46-17.67,24.58
		c-0.33,0.09-0.62,0.38-0.92,0.57C1293.72,426.68,1290.72,426.68,1287.72,426.68z"/>
	<path class="st0" d="M1128.08,426.68c-1.86-0.65-3.77-1.18-5.57-1.97c-9.82-4.29-14.49-15.04-11.67-26.72
		c2.41-10,11.92-16.6,22.85-15.96c6.87,0.4,12.55,2.87,16.42,8.85c1.21,1.87,1.77,3.27-1.09,3.94c-0.83,0.19-1.63,0.62-2.4,1.03
		c-2.98,1.57-5.2,2.3-7.79-1.44c-3.12-4.5-10.08-4.02-13.81,0.12c-4.84,5.37-4.84,14.6,0.01,19.93c4.25,4.67,12.52,4.26,15.2-0.77
		c1.09-2.03,1.39-3.64-1.83-3.31c-0.12,0.01-0.25,0-0.37,0c-5.6-0.08-6.76-1.66-5.61-7.23c0.26-1.27,0.9-1.26,1.8-1.26
		c5.87,0,11.74,0.06,17.6-0.04c1.75-0.03,1.93,0.66,1.94,2.2c0.02,11.46-4.34,17.45-16.68,22.64
		C1134.07,426.68,1131.08,426.68,1128.08,426.68z"/>
	<path class="st0" d="M792.3,426.68c-2.82-1.76-6.26-1.96-9.1-3.77c-1.57-1.01-2.18-1.89-0.94-3.48c0.15-0.19,0.22-0.44,0.34-0.66
		c0.95-1.75,1.49-4.15,2.96-5.08c1.81-1.15,3.11,1.6,4.87,2.25c2.16,0.79,4.29,1.38,6.56,0.94c1.8-0.35,3.27-1.26,3.59-3.29
		c0.33-2.1-0.87-3.34-2.59-4.04c-2.07-0.84-4.23-1.44-6.35-2.16c-7.03-2.38-9.48-5.77-8.92-12.33c0.56-6.53,5.13-11.67,11.37-12.56
		c5.07-0.72,9.9,0.4,14.61,2.24c1.5,0.59,1.94,1.35,0.91,2.73c-0.37,0.49-0.61,1.09-0.84,1.66c-1.23,3.2-2.62,5.84-6.61,2.86
		c-0.71-0.53-1.9-0.51-2.88-0.54c-2.12-0.08-4.17,0.41-4.74,2.72c-0.62,2.49,1.24,3.53,3.26,4.2c1.53,0.51,3.08,0.97,4.61,1.48
		c7.77,2.63,10.21,6.2,9.49,13.84c-0.61,6.56-5.19,11.17-12.09,12.27c-0.77,0.12-1.81-0.46-2.26,0.72
		C795.8,426.68,794.05,426.68,792.3,426.68z"/>
	<path class="st0" d="M1198.53,426.68c-2.77-1.86-6.29-1.93-9.07-3.86c-1.34-0.94-1.94-1.63-0.91-3.26
		c1.32-2.08,2.35-4.34,3.57-6.66c2.98,1.95,5.64,4.12,9.24,4.1c2.5-0.01,4.9-0.34,5.52-3.3c0.61-2.92-1.61-3.91-3.76-4.73
		c-1.62-0.62-3.33-1.01-4.99-1.56c-7.11-2.37-9.45-5.58-8.97-12.27c0.46-6.44,4.72-11.52,10.86-12.58
		c5.19-0.9,10.15,0.26,14.98,2.19c1.62,0.65,1.67,1.49,0.8,2.8c-0.55,0.82-1.07,1.72-1.36,2.65c-0.96,3.1-2.47,4.23-5.44,1.99
		c-0.73-0.55-1.88-0.67-2.85-0.73c-2.34-0.16-4.78,0.08-5.4,2.81c-0.63,2.74,1.69,3.56,3.71,4.29c1.4,0.51,2.87,0.84,4.28,1.33
		c7.55,2.58,10.16,6.18,9.54,13.11c-0.64,7.19-5.1,11.89-12.24,12.97c-0.77,0.12-1.81-0.45-2.27,0.71
		C1202.03,426.68,1200.28,426.68,1198.53,426.68z"/>
	<path class="st0" d="M577.94,426.68c-0.89-1.29-2.42-1.01-3.64-1.39c-12.14-3.85-18.5-16.32-14.36-28.33
		c3.91-11.34,17.34-17.57,28.72-13.36c1.25,0.46,2.19,0.84,2.13,2.5c-0.12,3.43-0.04,6.87-0.04,10.53
		c-7.16-4.94-13.62-4.97-17.73-0.3c-3.65,4.14-3.8,11.48-0.31,15.55c4.15,4.85,10.4,4.98,18.05,0.18c0,3.63-0.11,7.08,0.05,10.52
		c0.08,1.74-0.96,2.01-2.15,2.46c-2.02,0.76-4.37,0.27-6.22,1.65C580.94,426.68,579.44,426.68,577.94,426.68z"/>
	<path class="st1" d="M936.95,426.68c-0.07-0.2-0.09-0.4-0.07-0.61c2.52-1.89,5.06-1.83,7.61-0.06c-0.11,0.21-0.13,0.43-0.05,0.66
		C941.95,426.68,939.45,426.68,936.95,426.68z"/>
	<path class="st0" d="M411.51,235.89c-3.21,7.66-6.43,15.31-9.63,22.97c-7,16.77-14.02,33.53-20.92,50.35
		c-0.97,2.35-1.97,3.73-4.8,3.37c-3.43-0.43-7.66,1.31-10.16-0.7c-2.29-1.85-2.85-5.89-4.09-9c-8.65-21.61-17.28-43.23-25.92-64.84
		c-0.27-0.68-0.58-1.35-1.31-3.03c-1.21,8.21-2.29,15.44-3.34,22.69c-2.53,17.53-5.07,35.07-7.53,52.61
		c-0.25,1.74-0.97,2.26-2.67,2.25c-9.99-0.06-19.98-0.1-29.97,0.02c-2.45,0.03-2.17-1.1-1.89-2.77c2.75-15.98,5.45-31.96,8.16-47.95
		c4.54-26.81,9.12-53.61,13.53-80.44c0.4-2.45,1.22-2.99,3.51-2.96c9.37,0.12,18.74,0.18,28.1-0.03c2.69-0.06,3.6,1,4.45,3.26
		c8.19,21.79,16.49,43.54,24.76,65.3c0.31,0.81,0.64,1.62,1.19,3c3-7.45,5.81-14.42,8.61-21.4c6.31-15.71,12.65-31.4,18.88-47.14
		c0.84-2.13,1.83-3.04,4.28-2.99c9.61,0.17,19.23,0.15,28.85,0.01c2.23-0.03,3.01,0.64,3.33,2.79
		c5.52,37.14,11.1,74.28,16.68,111.41c0.83,5.55,1.65,11.11,2.62,16.64c0.39,2.23,0.4,3.37-2.52,3.31
		c-9.74-0.19-19.48-0.13-29.22-0.03c-2.05,0.02-2.84-0.63-3.09-2.65c-2.75-22.29-5.56-44.58-8.36-66.87c-0.3-2.35-0.6-4.7-0.9-7.06
		C411.94,235.97,411.73,235.93,411.51,235.89z"/>
	<path class="st0" d="M1172.84,230.05c0,2.44,0,3.75,0,5.07c0,24.48-0.08,48.97,0.09,73.45c0.02,3.44-0.98,4.12-4.18,4.04
		c-9.24-0.22-18.48-0.14-27.72-0.03c-2.33,0.03-3.21-0.45-3.2-3.04c0.09-42.72,0.08-85.44,0.01-128.17c0-2.31,0.55-2.94,2.88-2.91
		c9.61,0.14,19.23,0.14,28.85,0c2.37-0.04,3.79,0.69,5.25,2.57c20.4,26.35,40.89,52.63,61.51,79.12c0.92-1.31,0.53-2.68,0.53-3.93
		c0.03-24.61,0.07-49.22-0.05-73.83c-0.01-2.96,0.47-4.06,3.76-3.97c9.36,0.26,18.73,0.15,28.1,0.05c2.22-0.02,3.25,0.23,3.25,2.94
		c-0.1,42.72-0.08,85.44-0.02,128.17c0,2.24-0.51,3.03-2.89,3c-9.86-0.13-19.73-0.17-29.59,0.03c-2.35,0.05-3.3-1.19-4.45-2.67
		c-19.82-25.53-39.66-51.05-59.5-76.58C1174.84,232.58,1174.22,231.8,1172.84,230.05z"/>
	<path class="st0" d="M898.73,230.03c0,2.09,0,3.27,0,4.46c0,24.86-0.05,49.72,0.07,74.58c0.01,2.74-0.55,3.6-3.45,3.54
		c-9.49-0.21-18.98-0.14-28.47-0.03c-2.21,0.02-3.03-0.51-3.03-2.89c0.07-42.85,0.06-85.7,0-128.55c0-2.17,0.62-2.69,2.71-2.67
		c9.62,0.11,19.23,0.16,28.85-0.03c2.58-0.05,4.06,0.9,5.54,2.82c19.49,25.16,39.04,50.28,58.6,75.38c0.88,1.13,1.51,2.55,2.99,3.27
		c0.78-1.2,0.37-2.46,0.37-3.63c0.03-24.74,0.08-49.47-0.05-74.21c-0.02-2.96,0.77-3.69,3.67-3.63c9.49,0.19,18.98,0.13,28.47,0.03
		c2.01-0.02,2.76,0.38,2.75,2.6c-0.07,42.85-0.08,85.7,0.01,128.55c0.01,2.71-1.06,2.96-3.26,2.94c-9.12-0.09-18.24-0.18-27.35,0.04
		c-3.07,0.07-4.98-0.86-6.85-3.3c-19.51-25.31-39.13-50.52-58.73-75.75C900.83,232.61,900.07,231.7,898.73,230.03z"/>
	<path class="st0" d="M813.61,237.69c10.24,0,20.48,0.14,30.72-0.08c3.08-0.07,3.62,0.91,3.5,3.73c-0.34,8.25-0.97,16.46-2.59,24.55
		c-5.66,28.23-29.54,48.82-58.23,50.68c-14.83,0.96-29.27-0.3-42.59-7.27c-24.13-12.62-35.68-33.27-36.65-60.05
		c-0.63-17.51,2.9-34.05,13.84-48.28c13.92-18.11,32.93-26.03,55.25-26.82c16.65-0.59,32.25,2.83,45.64,13.43
		c7.37,5.83,12.8,13.19,17.12,21.5c1.21,2.33,0.37,2.92-1.54,3.71c-8.87,3.64-17.75,7.24-26.5,11.14c-2.83,1.26-3.93,1.22-5.43-1.94
		c-8.74-18.51-32.11-23.95-47.16-11.1c-7.06,6.02-11.42,13.87-13.36,22.86c-3.78,17.54-1,33.6,12.31,46.59
		c9.98,9.74,28.57,10.7,39.92,2.55c5.27-3.78,8.01-9.05,9.32-15.25c0.46-2.2-0.27-2.78-2.45-2.75c-7.49,0.12-14.99-0.07-22.48,0.11
		c-2.65,0.06-3.37-0.74-3.3-3.34c0.18-6.87,0.24-13.75-0.02-20.61c-0.11-3,0.94-3.44,3.6-3.4
		C792.88,237.78,803.24,237.69,813.61,237.69z"/>
	<path class="st0" d="M563.6,312.53c6.03-15.69,11.87-30.89,17.72-46.1c10.85-28.23,21.74-56.44,32.48-84.71
		c0.96-2.52,2.11-3.31,4.76-3.27c10.49,0.16,20.98,0.12,31.47,0.03c2.1-0.02,3.27,0.38,4.11,2.62c16,42.78,32.09,85.53,48.25,128.25
		c1.06,2.81,0.46,3.27-2.3,3.24c-10.24-0.13-20.48-0.12-30.72,0c-2.23,0.03-3.25-0.62-3.99-2.78c-2.04-6.01-4.44-11.89-6.58-17.86
		c-0.66-1.86-1.48-2.73-3.68-2.71c-14.23,0.12-28.47,0.11-42.7,0.01c-2.14-0.02-3.05,0.72-3.76,2.63
		c-2.26,6.06-4.77,12.03-7.05,18.09c-0.71,1.89-1.62,2.67-3.77,2.64C586.61,312.46,575.37,312.53,563.6,312.53z"/>
	<path class="st0" d="M471.42,245.32c0-20.98,0.06-41.96-0.07-62.94c-0.02-2.93,0.41-4,3.72-3.96c16.48,0.2,32.96,0.07,49.43,0.1
		c9.7,0.02,19.11,1.42,27.9,5.84c10.62,5.34,17.09,13.84,19.55,25.42c2.01,9.43,1.8,18.87-0.38,28.22
		c-3.78,16.18-14.89,26.14-31.89,28.94c-9.54,1.57-19.17,1.29-28.76,1.12c-3.72-0.07-5.07,0.64-4.96,4.76
		c0.32,12.23,0.05,24.47,0.17,36.71c0.02,2.37-0.48,3.2-3.04,3.16c-9.48-0.16-18.98-0.17-28.46,0c-2.65,0.05-3.28-0.72-3.27-3.31
		C471.46,288.02,471.42,266.67,471.42,245.32z"/>
	<path class="st0" d="M1335.37,315.73c-16.34,0.22-31.12-4.73-44.73-13.58c-1.6-1.04-2.07-1.82-1-3.75
		c4.29-7.73,8.39-15.57,12.44-23.43c1.02-1.99,1.72-2.1,3.46-0.66c7.09,5.9,14.88,10.46,24.2,11.83c5.45,0.8,10.71,0.36,15.53-2.6
		c7.65-4.7,8.1-13.98,0.86-19.22c-6.63-4.8-14.72-5.9-22.21-8.54c-3.4-1.2-6.85-2.29-10.17-3.68
		c-12.96-5.42-19.34-15.08-19.91-29.26c-1.29-31.76,22.18-50.45,51.94-47.77c11.67,1.05,22.71,4.3,33.26,9.4
		c2.36,1.14,2.68,2.13,1.44,4.42c-3.84,7.12-7.53,14.33-11.11,21.59c-1.07,2.17-1.77,2.2-3.72,0.8c-7.52-5.42-15.77-8.51-25.25-6.57
		c-1.09,0.22-2.18,0.57-3.19,1.02c-8.75,3.95-9.66,12-2.03,17.82c3.77,2.88,8.37,3.78,12.73,5.18c6.16,1.98,12.42,3.62,18.26,6.51
		c16.89,8.36,22.81,20.17,21.06,38.96c-2.79,29.81-25.62,39.98-46.24,41.52C1339.12,315.85,1337.24,315.73,1335.37,315.73z"/>
	<path class="st0" d="M157.6,268.49c0,13.52-0.01,26.38,0.02,39.24c0,1.23-0.15,2.13-1.53,2.58c-18.72,6.09-37.56,8.59-56.32,0.61
		c-27.52-11.71-47.57-35.14-44.27-73.41c2.42-28.03,24.94-53.5,53.99-60.51c15.88-3.83,31.19-1.75,46.22,3.91
		c1.05,0.4,2,0.77,1.99,2.28c-0.05,13.06-0.03,26.12-0.03,39.59c-17.71-19.68-44.33-16.28-55.97-3.82
		c-13.41,14.37-13.73,38.88-0.5,52.9C112.77,284.12,138.63,288.23,157.6,268.49z"/>
	<path class="st2" d="M1068.36,315.54c-16.16-0.21-30.43-4.44-42.13-15.54c-10.36-9.82-14.26-22.23-13.11-36.01
		c2.11-25.32,20.14-42.57,45.76-45.1c13.22-1.31,25.93-0.12,37.84,5.99c18.19,9.34,26.81,24.5,25.87,44.8
		c-0.96,20.59-12.2,33.91-30.84,41.54C1084.13,314.34,1076.1,315.28,1068.36,315.54z"/>
	<path class="st2" d="M281.37,266.77c0.12,19.62-8.63,34-26.01,42.14c-22.1,10.34-44.14,9.47-64.71-4.39
		c-15.31-10.31-20.27-25.62-18.59-43.41c2.48-26.26,24.78-39.47,44.4-42.07c13.78-1.83,27.18-0.5,39.63,6.13
		C272.75,234.03,281.48,247.84,281.37,266.77z"/>
	<path class="st0" d="M1089.5,425.24c-1.89,0-3.51-0.2-5.07,0.04c-4.5,0.68-7.72-0.3-8.34-5.5c-0.17-1.38-1.16-1.98-2.69-1.88
		c-2.11,0.14-4.28,0.29-6.35-0.02c-4.69-0.69-7.94,0.49-8.82,5.65c-0.26,1.51-1.38,1.75-2.79,1.74c-10.35-0.07-20.71-0.1-31.06-0.05
		c-1.69,0.01-2.07-0.56-2.06-2.14c0.06-12.48,0.06-24.96,0-37.44c-0.01-1.71,0.39-2.32,2.26-2.4c8.54-0.37,8.54-0.44,8.54,8.11
		c0,7.24,0.08,14.48-0.05,21.72c-0.04,2.26,0.54,3.19,2.92,2.98c2.23-0.2,4.51,0.18,6.73-0.09c3.08-0.38,3.99,0.89,3.58,3.73
		c-0.14,0.94-0.02,1.93,0.6,3.05c1.56-3.97,3.13-7.93,4.67-11.9c3.23-8.35,6.51-16.68,9.61-25.08c0.68-1.86,1.6-2.39,3.5-2.41
		c9.19-0.11,9.18-0.17,12.4,8.39c3.72,9.89,7.46,19.78,11.18,29.67C1088.68,422.55,1089.01,423.74,1089.5,425.24z"/>
	<path class="st0" d="M232.8,146.41c-13.22-0.06-23.68-7.37-27.6-18.7c-0.71-2.05-0.65-3.05,1.65-3.76
		c4.87-1.52,4.83-1.64,7.02,3.01c6.15,13.06,22.34,16.35,32.01,6.52c8.52-8.66,6.57-20.89-4.23-26.29
		c-6.34-3.17-13.38-4.73-19.48-8.46c-9.44-5.77-12.77-12.7-10.55-22.07c1.97-8.29,9.85-14.87,19.37-15.66
		c9.37-0.78,16.66,3.17,22.1,10.74c1.22,1.69,0.99,2.47-0.95,3.56c-3.05,1.72-4.72,2.05-7.22-1.42c-5.88-8.15-18.98-7.1-24.24,1.45
		c-2.96,4.81-1.97,10.83,2.44,14.52c2.9,2.43,6.26,4.06,9.77,5.38c3.49,1.31,7.03,2.52,10.5,3.88c10.88,4.29,16.16,12.09,15.6,22.91
		c-0.6,11.39-7.63,20.44-18.23,23.4C237.98,146.19,235.13,146.54,232.8,146.41z"/>
	<path class="st0" d="M65.02,77.68c0-21.11,0.12-42.23-0.11-63.33c-0.04-4.04,2.02-3.52,4.57-3.63c2.72-0.12,4.15,0.05,4.14,3.6
		c-0.15,39.47-0.05,78.95-0.17,118.43c-0.01,3.21,0.62,4.18,4,4.08c8.98-0.28,17.99,0.1,26.97-0.18c4.13-0.13,2.99,2.43,3.21,4.59
		c0.24,2.48-0.12,3.7-3.25,3.64c-12.11-0.23-24.23-0.16-36.34-0.03c-2.45,0.03-3.08-0.63-3.07-3.07
		C65.06,120.4,65.02,99.04,65.02,77.68z"/>
	<path class="st0" d="M745.14,399.48c0,8.4-0.07,15.73,0.04,23.06c0.03,2.04-0.43,2.73-2.62,2.76c-8.18,0.08-8.18,0.17-8.18-8.04
		c0-10.24,0.06-20.49-0.05-30.73c-0.03-2.35,0.54-2.97,3.04-3.28c5.75-0.7,9.42,1.42,12.64,6.15c4.47,6.56,9.68,12.61,15.24,19.73
		c0-8.16,0.12-15.33-0.06-22.48c-0.06-2.6,0.63-3.37,3.28-3.33c7.52,0.12,7.53-0.01,7.53,7.68c0,10.24-0.08,20.49,0.05,30.73
		c0.03,2.57-0.34,3.41-3.32,3.67c-5.6,0.49-9.15-1.41-12.29-6.05C755.98,412.75,750.74,406.68,745.14,399.48z"/>
	<path class="st0" d="M1351.34,409.13c0-8.11,0.12-15.17-0.06-22.22c-0.07-2.65,0.4-3.7,3.4-3.61c7.4,0.2,7.4,0.03,7.4,7.44
		c0,10.49-0.08,20.99,0.06,31.48c0.03,2.45-0.72,2.84-3.06,3.14c-5.72,0.73-9.41-1.28-12.63-6.09c-4.42-6.6-9.66-12.65-15.21-19.78
		c0,7.99-0.2,15.02,0.09,22.04c0.13,3.23-0.87,3.89-3.9,3.79c-6.95-0.23-6.96-0.07-6.96-7.03c0-10.62,0.09-21.24-0.06-31.86
		c-0.04-2.55,0.83-2.9,3.16-3.15c5.49-0.58,9.21,1.12,12.39,5.9C1340.4,395.86,1345.74,401.96,1351.34,409.13z"/>
	<path class="st0" d="M976.51,410.47c0,4.08-0.09,8.16,0.04,12.24c0.06,1.93-0.49,2.52-2.48,2.59c-8.54,0.28-8.53,0.35-8.53-8.08
		c0-10.24,0.08-20.48-0.06-30.72c-0.03-2.43,0.59-3.27,3.1-3.16c5.23,0.24,10.5-0.1,15.71,0.33c6.97,0.58,11.1,4.27,11.88,9.87
		c1.02,7.35-1.57,11.79-8.81,14.73c4.21,5.53,8.37,11,12.92,16.97c-4.44,0-8.26-0.08-12.07,0.04c-1.63,0.05-2.07-1.07-2.73-2.1
		c-2.74-4.29-5.49-8.58-8.23-12.86C977,410.36,976.75,410.41,976.51,410.47z"/>
	<path class="st0" d="M944.5,426.02c-2.54,0.02-5.07,0.04-7.61,0.06c-9.25-1.32-13.76-5.41-14.45-14.67
		c-0.64-8.7-0.88-17.52-0.13-26.18c0.37-4.32,5.1-1.04,7.73-1.86c1.57-0.49,3.12-0.29,3.06,2.29c-0.16,6.37-0.07,12.74-0.04,19.11
		c0.01,1.87-0.03,3.77,0.25,5.61c0.64,4.29,3.32,6.56,7.33,6.44c3.92-0.12,6.35-2.25,6.81-6.54c0.82-7.59,0.45-15.23,0.27-22.83
		c-0.08-3.54,1.02-4.34,4.35-4.22c6.61,0.25,6.63,0.07,6.62,6.63c-0.01,6.74,0.15,13.49-0.11,20.23
		C958.2,419.67,954.01,424.25,944.5,426.02z"/>
	<path class="st0" d="M636.92,425.24c-1.71,0-3.49-0.25-5.18,0.05c-4.38,0.76-7.16-0.63-7.9-5.23c-0.27-1.67-1.23-2.25-2.88-2.15
		c-1.99,0.11-4.02,0.23-5.99-0.02c-4.68-0.59-8.28,0.31-9.14,5.71c-0.23,1.45-1.19,1.67-2.44,1.65c-3.1-0.05-6.21-0.01-9.68-0.01
		c4.6-12.01,9.08-23.72,13.57-35.43c2.47-6.43,2.48-6.18,9.32-6.52c3.82-0.19,5.64,0.92,6.93,4.65
		c3.96,11.39,8.41,22.62,12.62,33.93C636.52,422.88,637.28,423.84,636.92,425.24z"/>
	<path class="st0" d="M394.87,425.24c4.27-11.1,8.42-21.88,12.56-32.66c0.09-0.23,0.2-0.46,0.29-0.69c3.49-9.1,3.49-9.08,13.08-8.53
		c1.21,0.07,2.15,0.16,2.64,1.49c4.99,13.38,10.01,26.74,15.13,40.39c-2.14,0-3.92-0.23-5.62,0.05c-4.31,0.71-7.18-0.51-7.89-5.18
		c-0.28-1.87-1.47-2.33-3.22-2.2c-1.86,0.13-3.77,0.23-5.61-0.01c-4.67-0.61-8.31,0.19-9.18,5.67c-0.21,1.35-1.13,1.73-2.45,1.7
		C401.5,425.19,398.39,425.24,394.87,425.24z"/>
	<path class="st0" d="M836.49,404.19c0-6.12,0-12.23,0-18.35c0-1.24-0.25-2.55,1.77-2.47c6.23,0.24,12.49-0.46,18.69,0.44
		c7.51,1.09,11.23,5.56,11.28,13.34c0.05,8.41-3.49,12.87-11.35,13.99c-2.45,0.35-4.97,0.35-7.46,0.33
		c-1.61-0.01-2.21,0.54-2.16,2.17c0.09,3.12-0.07,6.24,0.06,9.36c0.08,1.8-0.52,2.26-2.31,2.33c-8.53,0.35-8.52,0.41-8.52-8.03
		C836.49,412.92,836.49,408.55,836.49,404.19z"/>
	<path class="st0" d="M452.11,383.38c3.73,0.06,7.47-0.19,11.18,0.51c6.93,1.3,10.54,5.96,10.49,13.66
		c-0.05,7.78-3.6,12.24-10.63,13.52c-2.73,0.5-5.46,0.46-8.19,0.39c-1.63-0.04-2.17,0.55-2.12,2.16c0.1,3.11-0.06,6.23,0.06,9.35
		c0.07,1.75-0.44,2.28-2.26,2.35c-8.52,0.34-8.52,0.41-8.52-8.04c0-10.22,0.09-20.44-0.06-30.66c-0.04-2.62,0.69-3.55,3.32-3.29
		C447.6,383.56,449.86,383.38,452.11,383.38z"/>
	<path class="st0" d="M478.76,404.41c0-6.11,0-12.22,0-18.34c0-1.38-0.24-2.8,1.97-2.71c6.1,0.24,12.23-0.43,18.3,0.41
		c7.44,1.04,11.37,5.66,11.45,13.25c0.08,8.29-3.6,12.9-11.29,14.11c-1.1,0.17-2.22,0.31-3.34,0.34c-6.35,0.18-6.35,0.17-6.35,6.41
		c0,7.42-0.01,7.24-7.23,7.47c-3.07,0.1-3.68-0.94-3.58-3.74C478.9,415.89,478.76,410.15,478.76,404.41z"/>
	<path class="st0" d="M1158.88,404.19c0-6.12,0.06-12.24-0.04-18.36c-0.03-1.9,0.43-2.63,2.48-2.59c6.36,0.13,12.74,0.14,19.1,0
		c2.14-0.05,2.36,0.85,2.4,2.64c0.13,6.73,0.19,6.73-6.52,6.73c-0.62,0-1.25,0-1.87,0c-4.86,0-5.22,0.47-4.61,5.27
		c0.16,1.24,0.53,1.77,1.8,1.73c1.87-0.06,3.74-0.01,5.62-0.01c4.82,0,4.62,0.01,4.89,4.94c0.18,3.26-0.58,4.85-4.14,4.24
		c-1.33-0.23-2.77,0.13-4.11-0.07c-3.19-0.48-4.4,0.53-4.14,3.96c0.18,2.46,0.56,3.7,3.31,3.36c1.72-0.21,3.53,0.19,5.23-0.09
		c3.82-0.62,4.61,0.89,4.67,4.59c0.06,3.99-1.13,4.96-4.92,4.73c-5.47-0.34-10.98-0.18-16.47-0.04c-2.1,0.05-2.77-0.53-2.72-2.68
		C1158.97,416.43,1158.87,410.31,1158.88,404.19z"/>
	<path class="st3" d="M643.22,409.06c0-4.5-0.17-9,0.06-13.49c0.13-2.6-0.83-3.11-3.16-3.03c-1.9,0.07-4.79,1.05-5.55-0.65
		c-0.93-2.1-0.34-4.89-0.31-7.39c0.02-1.56,1.31-1.2,2.23-1.2c8.12-0.02,16.24,0.03,24.35-0.04c1.78-0.02,2.55,0.54,2.35,2.34
		c-0.08,0.74-0.12,1.52,0.01,2.24c0.7,3.94-0.92,5.46-4.8,4.77c-3.32-0.59-4.42,0.62-4.3,4.14c0.29,8.49-0.01,16.99,0.16,25.48
		c0.05,2.56-0.79,3.08-3.17,3.06c-7.87-0.04-7.87,0.06-7.87-7.62C643.22,414.81,643.22,411.93,643.22,409.06z"/>
	<path class="st4" d="M1229.38,408.73c0-4.5-0.12-9,0.05-13.49c0.08-2.19-0.66-2.97-2.74-2.63c-0.12,0.02-0.25,0.02-0.37,0
		c-1.92-0.26-4.8,0.98-5.57-0.72c-0.94-2.09-0.36-4.89-0.32-7.38c0.03-1.54,1.31-1.21,2.24-1.21c8.12-0.02,16.24,0.03,24.36-0.05
		c1.77-0.02,2.57,0.51,2.35,2.33c-0.07,0.62-0.01,1.25-0.01,1.87c0,5.15,0,5.33-5.13,5.09c-3.01-0.14-4.05,0.51-3.95,3.79
		c0.27,8.61,0,17.24,0.15,25.86c0.04,2.46-0.64,3.13-3.11,3.11c-7.94-0.05-7.94,0.06-7.94-7.95
		C1229.38,414.48,1229.38,411.61,1229.38,408.73z"/>
	<path class="st0" d="M515.47,404.19c0-6.11,0.06-12.23-0.03-18.34c-0.03-1.86,0.41-2.56,2.46-2.62c8.36-0.27,8.36-0.35,8.36,7.87
		c0,7.24,0.13,14.47-0.07,21.7c-0.07,2.71,0.79,3.52,3.36,3.23c1.72-0.2,3.52,0.19,5.23-0.08c3.81-0.61,4.65,0.87,4.7,4.59
		c0.06,4-1.16,4.94-4.93,4.72c-5.59-0.33-11.22-0.16-16.83-0.04c-1.83,0.04-2.32-0.52-2.29-2.32
		C515.54,416.67,515.47,410.43,515.47,404.19z"/>
	<path class="st4" d="M553.85,404.43c0,5.99-0.13,11.98,0.06,17.96c0.08,2.42-0.75,2.84-2.96,2.85c-8.16,0.02-8.16,0.1-8.16-8.04
		c0-10.35,0.07-20.71-0.06-31.06c-0.03-2.34,0.66-2.9,2.94-2.91c8.17-0.02,8.17-0.11,8.17,8.11
		C553.85,395.7,553.85,400.06,553.85,404.43z"/>
	<path class="st3" d="M1253.25,404.19c0-6.12,0.06-12.24-0.04-18.36c-0.03-1.85,0.36-2.55,2.43-2.61c8.51-0.23,8.51-0.32,8.51,8.18
		c0,10.24-0.07,20.48,0.05,30.72c0.03,2.42-0.59,3.14-3.09,3.12c-7.87-0.07-7.87,0.04-7.87-7.95
		C1253.25,412.93,1253.25,408.56,1253.25,404.19z"/>
	<path class="st0" d="M677.93,404.57c0,6.11-0.06,12.22,0.04,18.33c0.03,1.78-0.45,2.27-2.28,2.34c-8.57,0.32-8.57,0.39-8.57-7.96
		c0-10.23,0.08-20.45-0.06-30.68c-0.03-2.49,0.44-3.42,3.19-3.37c7.67,0.14,7.68-0.01,7.68,7.51
		C677.93,395.34,677.93,399.95,677.93,404.57z"/>
	<path class="st4" d="M1381.61,419.75c0.02,3.62-2.67,6.41-6.23,6.47c-3.48,0.06-6.47-2.75-6.58-6.2c-0.12-3.59,2.94-6.73,6.52-6.71
		C1378.84,413.33,1381.59,416.15,1381.61,419.75z"/>
	<path class="st5" d="M718.01,403.85c0.09,6.5-5.19,12.1-11.55,12.27c-6.68,0.18-12.14-5.37-12.19-12.39
		c-0.04-5.89,5.39-11.02,11.76-11.09C712.56,392.57,717.92,397.58,718.01,403.85z"/>
	<path class="st5" d="M894.14,392.64c6.34-0.04,11.75,4.93,11.9,10.92c0.17,6.86-5.35,12.63-12.03,12.55
		c-6.52-0.07-11.74-5.64-11.7-12.49C882.34,397.69,887.73,392.68,894.14,392.64z"/>
	<path class="st5" d="M1292.34,392.64c6.37,0.03,11.7,5.04,11.77,11.05c0.08,6.74-5.26,12.37-11.77,12.43
		c-6.66,0.06-12.09-5.66-11.97-12.61C1280.46,397.6,1285.97,392.61,1292.34,392.64z"/>
	<path class="st5" d="M648.26,262.48c-9.85,0-19.07,0-28.91,0c4.8-14.26,9.51-28.28,14.5-43.12
		C638.79,234.13,643.47,248.13,648.26,262.48z"/>
	<path class="st5" d="M506.14,223.13c0-4.49,0.11-8.99-0.05-13.48c-0.07-2.21,0.48-3.09,2.87-3.02c5.85,0.18,11.71-0.08,17.51,1.09
		c4.11,0.83,7.05,2.98,8.74,6.8c2.45,5.52,2.44,11.16,0.49,16.76c-1.64,4.72-5.4,6.89-10.11,7.84c-5.81,1.18-11.68,0.72-17.53,0.89
		c-1.82,0.05-1.97-0.86-1.96-2.3C506.17,232.86,506.14,227.99,506.14,223.13z"/>
	<path class="st5" d="M1067.58,287.4c-12.58-0.06-20.58-8.09-20.52-20.59c0.05-12.26,8.36-20.29,20.96-20.24
		c12.46,0.05,20.53,8.19,20.49,20.67C1088.46,279.66,1080.36,287.47,1067.58,287.4z"/>
	<path class="st5" d="M226.57,287.4c-12.64,0.01-20.7-7.97-20.67-20.43c0.04-12.39,8.22-20.43,20.78-20.41
		c12.38,0.02,20.73,8.29,20.72,20.52C247.41,279.41,239.21,287.4,226.57,287.4z"/>
	<g>
		<path class="st0" d="M157.96,104.39c-10.74,0-21.48,0.12-32.22-0.08c-2.98-0.06-3.54,0.92-3.34,3.61
			c1.1,14.84,9.92,26.36,23.09,29.93c14.37,3.9,28.04-1.29,36.62-13.82c0.79-1.15,1.15-3.45,2.7-3.09c1.97,0.45,3.78,1.85,5.47,3.09
			c0.92,0.67-0.03,1.57-0.44,2.28c-6.91,12.01-17.2,18.71-31.05,19.97c-29.82,2.73-44.93-21.67-44.33-43.41
			c0.51-18.32,10.37-33.98,25.54-39.66c23.57-8.82,48.05,5.28,52.63,30.31c1.98,10.86,1.98,10.86-8.81,10.86
			C175.2,104.39,166.58,104.39,157.96,104.39z"/>
		<path class="st5" d="M122.55,96.6c3.96-35.48,55.71-37.65,62.52-2.74c0.3,1.5,1.02,3.1-1.89,3.09
			C163,96.59,142.66,97.35,122.55,96.6z"/>
	</g>
	<path class="st6" d="M1068.09,396.29c1.66,5.05,2.95,8.99,4.26,12.98c-9.14,1.29-9.14,1.29-6.43-6.81
		C1066.49,400.74,1067.11,399.05,1068.09,396.29z"/>
	<path class="st7" d="M976.23,396.94c1.37-1.65-1.75-4.89,2.06-5.32c3.91-0.43,6.73,2.04,6.69,5.29c-0.05,3.21-2.54,5.25-6.46,5.06
		C974.3,401.78,977.72,398.39,976.23,396.94z"/>
	<path class="st6" d="M615.76,396.29c1.39,4.24,2.39,7.71,3.69,11.06c0.78,2.01,0.13,2.24-1.69,2.32c-6.67,0.28-6.68,0.33-4.58-5.93
		C613.93,401.51,614.72,399.3,615.76,396.29z"/>
	<path class="st6" d="M416.98,396.3c1.6,4.88,2.91,8.88,4.21,12.86c-0.35,0.19-0.56,0.39-0.77,0.4c-8.2,0.4-8.2,0.4-5.62-7.19
		C415.39,400.64,416.04,398.92,416.98,396.3z"/>
	<path class="st8" d="M847.11,397.26c1.05-1.69-1.92-5.37,3-5.12c4.77,0.25,6.6,1.46,6.69,5.15c0.08,3.76-1.74,5.05-6.43,5.36
		C845.31,402.99,848.03,399.23,847.11,397.26z"/>
	<path class="st9" d="M452.69,397.2c0.92-1.82-1.77-5.38,3.07-5.06c4.76,0.32,6.8,1.74,6.7,5.5c-0.09,3.51-2.11,4.85-6.76,5
		C450.61,402.81,453.85,398.95,452.69,397.2z"/>
	<path class="st6" d="M489.35,397.19c0.96-1.81-1.79-5.39,3.07-5.05c4.73,0.33,6.82,1.79,6.7,5.52c-0.11,3.51-2.11,4.82-6.8,4.98
		C487.16,402.81,490.6,398.88,489.35,397.19z"/>
</g>
</svg>
