<?xml version="1.0" encoding="utf-8"?>
<!-- Generator: Adobe Illustrator 25.0.1, SVG Export Plug-In . SVG Version: 6.00 Build 0)  -->
<svg version="1.1" id="Calque_1" xmlns="http://www.w3.org/2000/svg" xmlns:xlink="http://www.w3.org/1999/xlink" x="0px" y="0px"
	 viewBox="0 0 346.93 197.83" style="enable-background:new 0 0 346.93 197.83;" xml:space="preserve">
<style type="text/css">
	.st0{fill:#F6B14B;}
	.st1{fill:#EC6D06;}
	.st2{fill:#1D1D1B;}
	.st3{fill:#1F1F1D;}
	.st4{fill:#F29000;}
	.st5{fill:#5D5D5B;}
	.st6{fill:#F18D00;}
	.st7{fill:#4D4D4B;}
	.st8{fill:#5F5F5D;}
	.st9{fill:#40403F;}
	.st10{fill:#545453;}
	.st11{fill:#5A5A59;}
	.st12{fill:#565654;}
	.st13{fill:#4F4F4D;}
	.st14{fill:#F18900;}
	.st15{fill:#3F3F3D;}
	.st16{fill:#F08400;}
	.st17{fill:#484846;}
	.st18{fill:#EF7B00;}
	.st19{fill:#4B4B49;}
	.st20{fill:#575755;}
	.st21{fill:#EF8000;}
	.st22{fill:#434341;}
	.st23{fill:#464644;}
	.st24{fill:#ED7305;}
	.st25{fill:#EE7804;}
	.st26{fill:#60605F;}
	.st27{fill:#4F4F4E;}
	.st28{fill:#FEFEFE;}
</style>
<g>
	<path class="st0" d="M234.37,0c0,26,0,52.01-0.01,78.01c0,1.49-0.09,2.98-0.13,4.47c-3.16,1.63-6.32,1.62-9.48-0.01
		c-0.04-27.49-0.08-54.98-0.11-82.48C227.88,0,231.12,0,234.37,0z"/>
	<path class="st1" d="M237.92,189.63c1.43,1.61,4.4-0.37,5.13,1.68c0.7,1.96,0.24,4.33,0.29,6.52c-3.24,0-6.48,0-9.73,0
		c-1.93-2.07-4.84-3.17-5.96-6.04c-0.05-2.1,1.55-2.26,2.99-2.4C233.07,189.15,235.51,189.18,237.92,189.63z"/>
	<path class="st2" d="M66.63,75.72c0.14,7.6,0.73,15.22-1.31,22.69c-3.19,11.67-11.02,17.79-23.09,17.84
		c-13.09,0.06-26.18,0.02-39.27,0.01c-1.39,0-2.98,0.54-2.96-2.01c0.15-14.35,0.17-28.7,0.23-43.05c2.51-1.38,5.06-0.02,7.59-0.13
		c0.67,0.15,1.27,0.42,1.7,0.98c0.91,1.61,0.73,3.38,0.74,5.11c0.03,8.35-0.02,16.7,0.03,25.06c0.03,4.16,0.39,4.53,4.45,4.55
		c8.09,0.05,16.18,0.03,24.27,0.01c10.73-0.02,14.6-3.19,16.73-13.6c0.17-0.85,0.29-1.72,0.49-2.57c0.94-3.13,0.35-6.34,0.52-9.51
		c0.1-1.81-0.31-3.7,0.73-5.39c2.03-1.61,4.39-1.05,6.68-1.03C65.09,74.75,65.96,75,66.63,75.72z"/>
	<path class="st2" d="M209.51,81.74c0.05,10.72,0.05,21.43,0.21,32.15c0.03,2.07-0.71,2.66-2.56,2.39c-0.37-0.05-0.75-0.05-1.12,0
		c-3.37,0.5-5.95,0.03-5.01-4.85c-7.85,7.54-17.06,5.48-25.82,5.1c-5.71-0.25-10.97-2.37-12.91-8.41
		c-2.28-7.08-2.46-14.25,1.95-20.75c1.75-2.58,4.62-3.76,7.63-4.26c7.41-1.24,14.85-1.34,22.24,0.13c2.16,0.43,4.36,1.07,5.8,3.02
		c1.5,0.16,1.23-1.01,1.13-1.74c-0.44-3.14,1.28-3.94,3.92-3.84C206.55,80.74,208.23,80.39,209.51,81.74z"/>
	<path class="st2" d="M145.37,79.44c-2.71,10.34-6.63,20.29-9.92,30.44c-0.7,2.16-0.57,5.59-2.77,6.11
		c-3.41,0.81-7.16,0.27-10.76,0.18c-1.08-0.03-1.11-1.16-1.38-1.98c-3.72-11.32-7.45-22.63-11.17-33.94
		c-0.66-1.7,0.52-2.2,1.74-2.46c2.06-0.44,4.11-0.46,5.97,0.77c3.31,9.96,6.61,19.92,10.22,30.78c3.39-10.46,6.55-20.21,9.71-29.95
		C139.81,77.88,142.6,77.66,145.37,79.44z"/>
	<path class="st3" d="M91.41,116.03c-8.19,0.88-8.2,0.88-8.19-7.19c0.02-10.54,0.06-21.09,0.1-31.63c1.66-1.52,3.69-1.24,5.66-1.09
		c1.84,0.14,2.88,0.95,2.87,3.07c-0.07,11.94,0,23.87-0.05,35.81C91.8,115.42,91.57,115.7,91.41,116.03z"/>
	<path class="st4" d="M224.75,82.48c3.16,0,6.32,0.01,9.48,0.01c0,10.47,0.01,20.95,0.01,31.42c-3.16,1.7-6.32,1.7-9.48,0
		C224.76,103.43,224.76,92.95,224.75,82.48z"/>
	<path class="st5" d="M197.67,68.29c-2.25-0.6-4.5-1.21-6.76-1.81c-3.71-0.26-7.43-0.37-11.14,0.05c-4.41,0.89-8.34,2.28-8.14,7.92
		c0.05,1.38-0.76,1.54-1.89,1.68c-6.86,0.84-8.39-1-6.36-7.69c1.64-5.41,6.6-8.47,13.89-8.56c5.11-0.48,10.22-0.5,15.33,0.02
		c0.95,0.05,1.9,0.11,2.85,0.16C197.04,62.58,199.53,64.85,197.67,68.29z"/>
	<path class="st6" d="M224.76,113.9c3.16,0,6.32,0,9.48,0c0,7.74,0,15.49,0,23.23c-3.16,1.7-6.32,1.7-9.48,0
		C224.76,129.39,224.76,121.65,224.76,113.9z"/>
	<path class="st7" d="M64.52,75.67c-2.19,0.08-4.39,0.16-6.58,0.25c-1.42-1.08-1.12-2.66-1.18-4.12c-0.16-3.85,0.23-7.72-0.25-11.55
		c-1.06-4.96-2.9-9.48-7.01-12.77c-0.58-0.47-1.02-1.08-1.13-1.87c-0.09-2.91-1.51-5.88,0.44-8.68c3.35,0.71,6.46,1.94,8.95,4.42
		c1.11,1.45,1.33,3.21,1.58,4.92c1.21,8.4,3.14,16.63,5.4,24.8C65.15,72.61,65.76,74.18,64.52,75.67z"/>
	<path class="st8" d="M197.67,68.29c0.68-3.13-2.33-5.26-2.22-8.23c8.79,0.93,13.66,5.9,14.17,14.64c0.14,2.34-0.06,4.69-0.11,7.04
		c-0.97,0-1.96,0.07-2.92-0.03c-3.26-0.35-5.75-0.17-5.15,4.36c0.29,2.18-0.8,1.73-1.53,0.18
		C202.33,81.55,201.19,72.45,197.67,68.29z"/>
	<path class="st9" d="M9.09,71.95c-0.48-0.01-0.96-0.02-1.44-0.03c-1.04-0.98-1.48-2.26-1.84-3.6C3.26,58.67,1.98,48.8,0.98,38.9
		c-0.1-1-0.09-2,0.68-2.8c2.74,0,5.49,0,8.23,0c1.58,2.66,1.78,5.52,1.23,8.5c-1.17,2.85-0.77,5.84-0.81,8.79
		c-0.05,4.69,0.03,9.38-0.04,14.07C10.26,69.03,10.44,70.71,9.09,71.95z"/>
	<path class="st10" d="M91.41,116.03c-0.02-11.43-0.24-22.87,0.04-34.3c0.1-3.94-1.16-5.13-4.79-4.6c-1.1,0.16-2.23,0.06-3.34,0.08
		c-0.03-4.85,0.01-9.7-0.14-14.54c-0.06-2.01,0.4-2.78,2.61-2.79c6.09-0.03,6.07-0.15,6.09,6.06c0.04,15.42,0.12,30.84,0.11,46.25
		C91.99,113.47,92.66,114.92,91.41,116.03z"/>
	<path class="st11" d="M145.37,79.44c-2.79-0.02-5.57-0.04-8.36-0.06c1.76-5.94,3.58-11.87,5.25-17.85
		c0.41-1.46,1.28-1.61,2.48-1.59c2.35,0.03,4.7,0.01,7.51,0.01C149.77,66.62,148.24,73.25,145.37,79.44z"/>
	<path class="st12" d="M117.08,78.56c-1.69,0.02-3.38,0.06-5.06,0.04c-1.26-0.01-2.47-0.04-2.65,1.65
		c-2.23-6.57-4.45-13.13-6.88-20.29c2.64,0,4.92,0.07,7.19-0.03c1.44-0.06,1.9,0.7,2.26,1.9C113.61,67.41,115.36,72.98,117.08,78.56
		z"/>
	<path class="st13" d="M64.52,75.67c-1.33-5.63-2.72-11.24-3.97-16.88c-1.28-5.76-2.44-11.54-2.8-17.46
		c6.67,5.25,8.19,12.8,8.84,20.57c0.38,4.58,0.05,9.21,0.04,13.82C65.92,75.7,65.22,75.68,64.52,75.67z"/>
	<path class="st14" d="M224.76,137.13c3.16,0,6.32,0,9.48,0c0,5,0,9.99,0,14.99c-3.16,1.7-6.32,1.7-9.48,0
		C224.76,147.12,224.76,142.13,224.76,137.13z"/>
	<path class="st15" d="M1.66,36.09C2.9,47.41,4.28,58.71,7.28,69.73c0.19,0.71,0.25,1.46,0.37,2.19c-2.53,0.32-4.96-0.34-7.42-0.72
		C0.17,60.05,0.11,48.9,0.04,37.75C0.03,36.62,0.19,35.73,1.66,36.09z"/>
	<path class="st16" d="M224.76,152.12c3.16,0,6.32,0,9.48,0c0,4,0,7.99,0,11.99c-3.16,1.7-6.32,1.7-9.48,0
		C224.76,160.11,224.76,156.12,224.76,152.12z"/>
	<path class="st17" d="M26.35,36.09c3.74,0,7.48,0,11.22,0c2.22,2.64,2.46,5.45,0.73,8.44c-3.68,1.29-7.36,1.21-11.06,0.07
		C25.7,41.9,24.95,39.11,26.35,36.09z"/>
	<path class="st18" d="M234.24,172.35c-0.02,2.76-0.03,5.51-0.05,8.27c-2.17,2.92-5.2,3.4-9.4,1.47c-0.01-3.25-0.02-6.49-0.03-9.74
		C227.92,170.66,231.08,170.66,234.24,172.35z"/>
	<path class="st19" d="M38.33,44.09c0.21-2.71-0.18-5.36-0.75-7.99c3.78-0.28,7.53-0.16,11.22,0.82c-0.67,2.94,1.14,5.89-0.07,8.82
		C45.08,46.36,41.63,45.69,38.33,44.09z"/>
	<path class="st20" d="M83.31,40.65c-0.66-3.12-0.27-4.9,4.05-4.88c4.23,0.02,4.55,1.58,4.66,5.1c0.12,3.95-1.14,4.77-4.93,4.9
		C82.73,45.92,82.95,43.66,83.31,40.65z"/>
	<path class="st21" d="M234.24,172.35c-3.16,0-6.32,0-9.48,0c0-2.75,0-5.5,0-8.24c3.16,0,6.32,0,9.48,0
		C234.24,166.86,234.24,169.61,234.24,172.35z"/>
	<path class="st22" d="M10.64,44.09c-0.05-2.68-1.17-5.27-0.75-7.99c2.99,0,5.99,0,8.98,0c1.72,2.75,1.51,5.53,0.13,8.34
		C16.16,45.62,13.35,46.11,10.64,44.09z"/>
	<path class="st23" d="M18.87,44.09c0-2.66,0-5.33,0-7.99c2.49,0,4.99,0,7.48,0c0.06,2.68,1.18,5.27,0.75,7.99
		C24.36,45.94,21.62,45.94,18.87,44.09z"/>
	<path class="st24" d="M237.92,189.63c-2.04,1.25-4.3,0.55-6.46,0.7c-1.44,0.1-3.01-0.24-3.81,1.47c-1.47-1.98-2.37-4.17-2.35-6.68
		c3.35-1.56,6.64-2.23,9.66,0.7C235.95,187.09,236.94,188.36,237.92,189.63z"/>
	<path class="st25" d="M234.97,185.82c-3.13-1.43-6.44-0.44-9.66-0.7c-0.72-0.91-0.59-1.97-0.52-3.02c3.15-0.39,6.59,1.11,9.4-1.47
		C234.45,182.36,234.71,184.09,234.97,185.82z"/>
	<path class="st8" d="M192.61,59.9c-5.11-0.01-10.22-0.01-15.33-0.02C182.39,59.02,187.5,58.98,192.61,59.9z"/>
	<path class="st8" d="M179.77,66.54c3.71-1,7.42-0.93,11.14-0.05C187.2,66.5,183.49,66.52,179.77,66.54z"/>
	<path class="st2" d="M346.54,83.96c0.74,7.1,0.45,14.15-1.14,21.1c-1.43,6.23-5.55,9.87-11.76,10.98
		c-7.02,1.26-14.11,1.36-21.16,0.33c-9.76-1.43-13.22-4.94-14.85-14.76c-0.38-2.32-0.36-4.7-0.52-7.06
		c-0.54-2.59,0.02-5.23-0.29-7.81c-0.37-3.13,1.3-3.88,3.92-3.97c3.93-0.12,5.37,0.74,5.67,3.73c0.36,3.59-0.26,7.23,0.41,10.8
		c0.36,1.57,0.44,3.19,0.86,4.75c1.1,4.11,3.05,5.74,7.25,6.31c4.31,0.58,8.57,0.81,12.93,0.13c5.54-0.86,7.22-2.16,8.4-7.71
		c0.33-1.58,0.35-3.21,0.72-4.79c0.59-2.32,0.29-4.68,0.32-7.02c0.09-5.7,2.43-7.42,7.98-5.81
		C345.78,83.31,346.17,83.62,346.54,83.96z"/>
	<path class="st26" d="M346.54,83.96c-7.79,0.07-7.73,0.07-8.13,7.73c-0.09,1.67,0.47,3.48-0.64,5.03c-1.47-1.2-1.19-2.92-1.22-4.49
		c-0.08-4.6,0.1-9.21-0.07-13.81c-0.29-7.64-3.25-10.49-10.88-10.61c-2.48-0.04-4.97-0.04-7.45,0c-7.8,0.13-10.71,3.07-10.82,10.98
		c-0.07,4.98,0.03,9.95-0.04,14.93c-0.02,1.58,0.25,3.29-1.22,4.49c-1.39-3.72-0.73-7.59-0.62-11.37c0.1-3.51-2-3-4.06-2.97
		c-2,0.03-4.39-0.69-4.11,2.89c0.2,2.57-0.09,5.19-0.16,7.78c-1.06-8.83-0.61-17.56,2.21-26.02c1.49-4.48,5.15-6.92,9.65-7.9
		c8.35-1.82,16.74-1.8,25.13-0.16c6.3,1.23,10.04,5.12,11.44,11.29C346.45,75.77,347.01,79.83,346.54,83.96z"/>
	<path class="st26" d="M285.03,66.63c-6.01,1.12-12.07,0.37-18.1,0.42c-2.73,0.02-3.61,0.65-3.57,3.52
		c0.18,11.21,0.09,22.42,0.09,33.62c-2.11-0.68-1.68-2.54-1.74-4.04c-0.16-4.11,0-8.23-0.09-12.35c-0.04-1.71-0.26-3.33-2.56-3.32
		c-2.28,0.01-2.54,1.61-2.57,3.33c-0.09,4.37,0.02,8.73-0.06,13.1c-0.03,1.7,0.3,3.55-1.23,4.89c-1.43-7.27-0.4-14.61-0.62-21.91
		c-0.14-4.48-0.08-8.98,0.15-13.45c0.13-2.59-0.65-3.47-3.3-3.36c-3.93,0.17-5.49-2.31-4.2-6.05c0.62-1.79,2.13-1.16,3.14-1
		c3.73,0.58,4.9-0.99,4.34-4.49c-0.18-1.09-0.03-2.24-0.03-3.36c0-5.94,1.11-6.75,7.17-5.74c1.68,0.28,1.57,1.24,1.57,2.36
		c0.01,2.49,0.18,5-0.04,7.48c-0.25,2.81,0.5,3.9,3.59,3.78c5.84-0.24,11.69,0,17.54,0.04C285.36,62.2,284.48,64.47,285.03,66.63z"
		/>
	<path class="st2" d="M255.21,105.8c0.03-6.47,0.23-12.94,0-19.4c-0.11-3.21,1.49-3.27,3.86-3.28c2.41-0.01,4.01,0.11,3.83,3.3
		c-0.27,4.72-0.09,9.46-0.05,14.19c0.01,1.21-0.35,2.51,0.61,3.57c0.84,4.72,2.48,5.94,7.81,5.85c5.01-0.09,7.24-1.84,7.76-6.2
		c0.16-1.36,0.26-2.77,0.07-4.11c-0.4-2.85,0.68-3.63,3.48-3.51c4.88,0.21,4.89,0.03,4.79,4.8c-0.23,11.11-5.08,15.89-16.16,15.87
		c-2.11,0-4.26,0.03-6.33-0.32C258.26,115.44,255.81,112.62,255.21,105.8z"/>
	<path class="st27" d="M285.03,66.63c-1.1-2.11-0.28-4.37-0.51-6.55C285.93,62.16,285.12,64.42,285.03,66.63z"/>
	<path class="st28" d="M18.87,44.09c2.74,0,5.49,0,8.23,0c3.74,0,7.48,0,11.22,0c3.57-0.1,7.01,0.67,10.41,1.65
		c4.71,3.31,7.29,7.97,8.48,13.49c0.28,10.49,0.35,20.98-0.04,31.46c-0.29,1.84-0.47,3.7-0.88,5.52
		c-1.62,7.17-6.18,11.4-13.54,11.64c-10.44,0.33-20.89,0.09-31.34,0.22c-2.37,0.03-2.15-1.34-2.16-2.88
		C9.22,94.11,9.15,83.03,9.09,71.95c0.06-8.21,0.09-16.41,0.21-24.62c0.02-1.17-0.84-2.89,1.34-3.24
		C13.38,44.09,16.13,44.09,18.87,44.09z"/>
	<path class="st13" d="M57.18,90.69c0.01-10.49,0.02-20.97,0.04-31.46c1.22,4.14,0.29,8.38,0.57,12.57c0.09,1.37,0.1,2.74,0.15,4.11
		C57.46,80.83,58.78,85.84,57.18,90.69z"/>
	<path class="st28" d="M184.01,109.92c-1.24,0-2.49,0.09-3.72-0.01c-8.96-0.79-12.82-6.99-9.81-15.62c0.86-2.47,2.48-3.98,5.03-4.42
		c6.17-1.07,12.37-1.12,18.52-0.04c4.39,0.77,6.32,3.2,6.72,7.68c0.53,5.99-1.08,9.49-5.35,11.1
		C191.74,110,187.85,109.91,184.01,109.92z"/>
	<path class="st28" d="M306.06,98.22c0.01-6.6-0.12-13.2,0.07-19.79c0.26-8.9,3.22-11.68,12.18-11.84c2.86-0.05,5.73-0.07,8.59,0.07
		c7.38,0.35,10.3,3.18,10.65,10.65c0.24,4.97,0.08,9.96,0.11,14.94c0.01,1.49,0.07,2.98,0.1,4.47c-0.11,1.36-0.12,2.75-0.34,4.09
		c-1,6.05-3.12,7.98-9.25,8.77c-3.59,0.46-7.17,0.61-10.78,0.21C308.61,108.81,306.83,107.02,306.06,98.22z"/>
</g>
</svg>
