<?xml version="1.0" encoding="utf-8"?>
<!-- Generator: Adobe Illustrator 25.0.1, SVG Export Plug-In . SVG Version: 6.00 Build 0)  -->
<svg version="1.1" id="Calque_1" xmlns="http://www.w3.org/2000/svg" xmlns:xlink="http://www.w3.org/1999/xlink" x="0px" y="0px"
	 viewBox="0 0 1200.63 612.92" style="enable-background:new 0 0 1200.63 612.92;" xml:space="preserve">
<style type="text/css">
	.st0{fill:#C59E7F;}
	.st1{fill:#8F5226;}
	.st2{fill:#8F5225;}
	.st3{fill:#8E5225;}
	.st4{fill:#0C0A09;}
	.st5{fill:#0B0A0A;}
	.st6{fill:#272320;}
	.st7{fill:#5B6D2B;}
	.st8{fill:#706A3A;}
	.st9{fill:#0B0B0B;}
	.st10{fill:#0C0C0C;}
	.st11{fill:#101010;}
	.st12{fill:#F6F6F6;}
	.st13{fill:#F8F8F8;}
	.st14{fill:#4E3923;}
	.st15{fill:#060606;}
	.st16{fill:#181818;}
	.st17{fill:#141414;}
	.st18{fill:#111111;}
	.st19{fill:#151515;}
	.st20{fill:#131313;}
	.st21{fill:#879749;}
	.st22{fill:#B97755;}
	.st23{fill:#010101;}
	.st24{fill:#100F0E;}
	.st25{fill:#181315;}
	.st26{fill:#1A1A1A;}
	.st27{fill:#171717;}
	.st28{fill:#161413;}
	.st29{fill:#191919;}
	.st30{fill:#121212;}
	.st31{fill:#0F0F0F;}
	.st32{fill:#2D341E;}
	.st33{fill:#0E0E0E;}
	.st34{fill:#161616;}
	.st35{fill:#18160D;}
	.st36{fill:#070707;}
	.st37{fill:#080808;}
	.st38{fill:#565C43;}
	.st39{fill:#120F0E;}
	.st40{fill:#121111;}
	.st41{fill:#3A3A3A;}
	.st42{fill:#DFCDBB;}
	.st43{fill:#2C2C2C;}
	.st44{fill:#1B1B1B;}
	.st45{fill:#2D2725;}
	.st46{fill:#303030;}
	.st47{fill:#61534A;}
	.st48{fill:#43461D;}
	.st49{fill:#2A2A2A;}
	.st50{fill:#3B3B3B;}
	.st51{fill:#61554C;}
	.st52{fill:#262322;}
	.st53{fill:#242424;}
	.st54{fill:#343434;}
	.st55{fill:#8F5326;}
	.st56{fill:#070403;}
	.st57{fill:#9B6C43;}
	.st58{fill:#110D0A;}
	.st59{fill:#F4EEE7;}
	.st60{fill:#20150F;}
	.st61{fill:#291A11;}
	.st62{fill:#251710;}
	.st63{fill:#E0D0C0;}
	.st64{fill:#3D2C1B;}
	.st65{fill:#9E6D40;}
	.st66{fill:#744C23;}
	.st67{fill:#B06623;}
	.st68{fill:#596B2C;}
	.st69{fill:#EFD461;}
	.st70{fill:#8A623A;}
	.st71{fill:#533621;}
	.st72{fill:#D29A4E;}
	.st73{fill:#120D0C;}
	.st74{fill:#BE8347;}
	.st75{fill:#697A35;}
	.st76{fill:#7E894A;}
	.st77{fill:#C47B3C;}
	.st78{fill:#AE9C5F;}
	.st79{fill:#92A250;}
	.st80{fill:#E1A24C;}
	.st81{fill:#333817;}
	.st82{fill:#45301D;}
	.st83{fill:#2B2710;}
	.st84{fill:#A47248;}
	.st85{fill:#566B27;}
	.st86{fill:#899846;}
	.st87{fill:#2A3418;}
	.st88{fill:#B81C05;}
	.st89{fill:#DD6B2E;}
	.st90{fill:#D54A10;}
	.st91{fill:#606F31;}
	.st92{fill:#2A3416;}
	.st93{fill:#B82504;}
	.st94{fill:#200E07;}
	.st95{fill:#607232;}
	.st96{fill:#42501F;}
	.st97{fill:#8C9346;}
	.st98{fill:#613E10;}
	.st99{fill:#98AE5B;}
	.st100{fill:#73572B;}
	.st101{fill:#9F6A3E;}
	.st102{fill:#7A97B7;}
	.st103{fill:#1C251F;}
	.st104{fill:#6A94C3;}
	.st105{fill:#667946;}
	.st106{fill:#879190;}
	.st107{fill:#100E0A;}
	.st108{fill:#E37D29;}
	.st109{fill:#E89646;}
	.st110{fill:#9D9B71;}
	.st111{fill:#B52F04;}
	.st112{fill:#7E1905;}
	.st113{fill:#636841;}
	.st114{fill:#849646;}
	.st115{fill:#5B6B2B;}
	.st116{fill:#AFBC69;}
	.st117{fill:#A1AF5A;}
	.st118{fill:#344518;}
	.st119{fill:#D75604;}
	.st120{fill:#3B341B;}
	.st121{fill:#13100A;}
	.st122{fill:#9E9D7A;}
	.st123{fill:#FAFAFA;}
	.st124{fill:#F0F0F0;}
	.st125{fill:#D9D9D9;}
	.st126{fill:#F5DAAB;}
	.st127{fill:#E5E5E5;}
	.st128{fill:#232419;}
	.st129{fill:#F9F9F9;}
	.st130{fill:#F2F2F2;}
	.st131{fill:#66734A;}
	.st132{fill:#BBBBBB;}
	.st133{fill:#E28221;}
	.st134{fill:#DADADA;}
	.st135{fill:#0F181E;}
	.st136{fill:#5F8093;}
	.st137{fill:#EAE0D6;}
	.st138{fill:#B59880;}
	.st139{fill:#D9C5B3;}
	.st140{fill:#DBC9B8;}
	.st141{fill:#A88A70;}
	.st142{fill:#BAA48F;}
	.st143{fill:#A87E59;}
	.st144{fill:#333315;}
	.st145{fill:#991802;}
	.st146{fill:#7C6552;}
	.st147{fill:#564113;}
	.st148{fill:#8B9E48;}
	.st149{fill:#60772D;}
	.st150{fill:#4C4528;}
	.st151{fill:#4A5425;}
	.st152{fill:#5C4B38;}
	.st153{fill:#849748;}
	.st154{fill:#D79D46;}
	.st155{fill:#EFD372;}
	.st156{fill:#A66B31;}
	.st157{fill:#92724B;}
	.st158{fill:#EBE9D7;}
	.st159{fill:#B18655;}
	.st160{fill:#8A653A;}
	.st161{fill:#552A15;}
	.st162{fill:#674A29;}
	.st163{fill:#BB935F;}
	.st164{fill:#D7822C;}
	.st165{fill:#E9B149;}
	.st166{fill:#E6C890;}
	.st167{fill:#2A1B11;}
	.st168{fill:#6A5941;}
	.st169{fill:#6C7A3B;}
	.st170{fill:#4F5F25;}
	.st171{fill:#56692E;}
	.st172{fill:#84934B;}
	.st173{fill:#252F16;}
	.st174{fill:#65782D;}
	.st175{fill:#768643;}
	.st176{fill:#AAB959;}
	.st177{fill:#505B29;}
	.st178{fill:#BD2002;}
	.st179{fill:#A92705;}
	.st180{fill:#DB6832;}
	.st181{fill:#6C6E3C;}
	.st182{fill:#49441B;}
	.st183{fill:#CE3313;}
	.st184{fill:#A5B55A;}
	.st185{fill:#222715;}
	.st186{fill:#9BAA5A;}
	.st187{fill:#AC5734;}
	.st188{fill:#E6A93C;}
	.st189{fill:#706746;}
	.st190{fill:#E29A35;}
	.st191{fill:#CFBF94;}
	.st192{fill:#A29A55;}
	.st193{fill:#26241B;}
	.st194{fill:#EBB846;}
	.st195{fill:#7F4819;}
	.st196{fill:#565530;}
	.st197{fill:#3C2212;}
	.st198{fill:#D75309;}
	.st199{fill:#FDF8F0;}
	.st200{fill:#465820;}
	.st201{fill:#738933;}
	.st202{fill:#A4B457;}
	.st203{fill:#445123;}
	.st204{fill:#748836;}
	.st205{fill:#D54B17;}
	.st206{fill:#DD6733;}
	.st207{fill:#1B0E0A;}
	.st208{fill:#2A180D;}
	.st209{fill:#EDA335;}
	.st210{fill:#C52402;}
	.st211{fill:#D2C3B3;}
	.st212{fill:#D3C3B3;}
	.st213{fill:#987457;}
	.st214{fill:#806954;}
	.st215{fill:#4A3D11;}
	.st216{fill:#593415;}
	.st217{fill:#B1B05D;}
	.st218{fill:#C2AFAF;}
	.st219{fill:#69210A;}
	.st220{fill:#6D8731;}
	.st221{fill:#B0C068;}
	.st222{fill:#57432A;}
	.st223{fill:#462810;}
	.st224{fill:#7A6B5D;}
	.st225{fill:#8A633B;}
	.st226{fill:#151311;}
	.st227{fill:#3B311E;}
	.st228{fill:#E0BD71;}
	.st229{fill:#D8C49D;}
	.st230{fill:#E7DDB0;}
	.st231{fill:#856E43;}
	.st232{fill:#3E3C2D;}
	.st233{fill:#B1611F;}
	.st234{fill:#837263;}
	.st235{fill:#DD8246;}
	.st236{fill:#2A3413;}
	.st237{fill:#97A65C;}
	.st238{fill:#728A33;}
	.st239{fill:#D39953;}
	.st240{fill:#925F29;}
	.st241{fill:#1B120C;}
	.st242{fill:#A76734;}
	.st243{fill:#161A17;}
	.st244{fill:#F8D2BB;}
	.st245{fill:#F9DB9C;}
	.st246{fill:#B5A393;}
	.st247{fill:#6F3E18;}
	.st248{fill:#E9DCA8;}
	.st249{fill:#EEEDDE;}
	.st250{fill:#AE8354;}
	.st251{fill:#4A3F27;}
	.st252{fill:#B86B32;}
	.st253{fill:#FDFBF6;}
</style>
<g>
	<g>
		<path class="st0" d="M473.37,160.13c-13.76,11.87-27.53,23.74-41.29,35.61c-1.93,1.29-3.55,0.14-5.21-0.66
			c-6.13-3.94-12.16-8.09-19.5-9.59c-10.81-1.68-20.07,3.7-29.88,6.54c-14.53,5.28-22.51,27.36-13.67,47.57
			c1.19,2.72,2.8,5.17,4.45,7.61c5.97,6.98,12.54,12.84,22.6,12.4c3.19-0.27,6.25,0.87,9.42,0.86c8.23,0.13,14.89-3.71,20.63-8.92
			c4.29-3.9-0.11-3.37-2.47-3.57c-10.35-0.73-21.06,2.89-30.94-2.8c-3.31-14.46-3.39-28.92,0.02-43.38c4.07-3.69,9.16-3.07,14-3.07
			c11.43-0.01,22.89-0.7,34.26,1.2c12.89,4.15,26.13,1.4,39.2,1.75c19.29,0.52,19.46,0.14,18.38,19.66
			c-1.27,22.98-8.66,43.7-23.8,61.39c-7.7,13.64-20.55,20.29-34.67,24.98c-1.93,0.64-3.05,0.98-3.1,3.04
			c-4.27,3.87-9.58,4.12-14.92,4.33c-15.23,0.25-30.52,1.21-45.32-3.68c-3.18-0.38-6.31-1.03-9.32-2.15
			c-9.78-2.7-18.59-7.38-26.82-13.22c-56.48-39.84-48.6-119.78,8.12-152.43c2.29-1.32,4.55-2.67,7.23-3
			c6.79-1.49,13.44-3.46,19.82-6.27c23.18-4.31,45.63-1.09,67.79,6.21c12.32,4.05,22.29,12.33,33.79,17.8
			C473.25,158.49,473.62,159.1,473.37,160.13z"/>
		<path class="st0" d="M1063.86,134.37c51.86-9.97,92.22,17.74,92.99,64.69c0.56,33.9-0.07,67.81,0.28,101.71
			c0.07,7.13-1.48,9.9-9.22,9.62c-16.8-0.61-33.63-0.25-50.45-0.29c-2.17-14.19-0.07-28.48-1.08-42.7
			c-0.06,10.41,0.08,20.81-0.07,31.22c-0.05,3.87,0.42,7.94-2.56,11.18c-4.1-5.93-1.48-12.59-1.89-18.88
			c-0.49-7.52-0.76-15.16,0.05-22.62c0.93-8.54-2.11-12.17-10.59-11.43c-4.03-5.15-2.61-11.23-2.53-16.92
			c0.14-9.37-1.25-18.81,0.91-28.11c9.84,1.7,13.8-2.28,12.11-12.16c-0.43-2.51,0.1-5.18,0.19-7.78c6.43,2.37,2.31,8.43,5.02,12.96
			c-0.98-8.07,1.88-16.98-9.39-19.35c-9.92-3.16-14.23,0.01-14.29,11.39c-0.18,31.83-0.01,63.67-0.12,95.5
			c-0.08,20.78,2.28,17.6-17.75,17.77c-13.81,0.12-27.62-0.12-41.43-0.19c-3.46-3.88-2.62-8.67-2.63-13.18
			c-0.08-31.25-0.1-62.51-0.02-93.76c0.06-20.3,6.19-38.12,21.92-51.84C1041.4,141.83,1052.98,138.73,1063.86,134.37z"/>
		<path class="st0" d="M661.59,211.95c4.13-0.13,8.25-0.27,12.38-0.4c4.99-6.82,3.52-14.22,1.59-21.47c-0.7-2.63-2.34-5.6-6.3-4.21
			c-8.3-4.27-14.87-0.29-15.21,9.84c-0.41,12.13-0.16,24.27-0.16,36.41c0,23.29-0.2,46.59,0.18,69.88c0.11,6.58-2.07,8.45-8.44,8.31
			c-17.08-0.39-34.18-0.2-51.27-0.24c-1.4-2.79-0.91-5.78-0.9-8.7c0.03-34.41,0.12-68.82-0.04-103.24
			c-0.1-21.63,9.22-38.35,25.75-51.59c4.26-2.76,8.38-5.79,13.32-7.31c3.58-2.18,8.42-1.49,11.45-4.95
			c53.39-9.76,93.79,17.73,94.51,67.51c0.47,32.82-0.12,65.65,0.25,98.47c0.09,7.71-2.11,10.39-10.05,10.09
			c-16.42-0.62-32.88-0.31-49.33-0.39c-3.2-3.49-2.51-7.87-2.58-12c-0.15-10.03,0.07-20.06-0.12-30.08
			c-0.06-3.12,0.78-6.63-2.69-8.75c-3.54-3.43-8.1-0.9-12.04-2.05C658.24,242.07,658.77,227.02,661.59,211.95z"/>
		<path class="st1" d="M138.61,441.67c-26.13-29.44-39.04-64.78-42.82-103.03c-5.42-54.82,9.51-104.16,45.42-146.65
			c3.83,0.45,3.02,3.19,2.82,5.64c-4.41,6.23-6.56,13.51-9.44,20.46c-2.5,3.19-3.41,6.18,0.9,8.73c1.87,1.1,4.19,1.96,3.79,4.87
			c-0.76,1.53-2.08,2.47-3.51,3.32c-4.65,2.75-3.59,5.28,0.81,6.44c4.46,1.18,8.77,5.42,13.85,1.55c0.63-0.19,1.21,0.02,1.76,0.02
			c1.86,0.03,1.05,6.44,4.73,1.95c0.66,0.67,1.14,1.45,1.47,2.32c2.02,7.94-3.3,15.37-1.57,23.29c-2.77,3.25-6.99,2.6-10.5,3.87
			c-1.95,0.71-4.99,0.52-4.38,3.79c0.57,3.07,2.74,4.07,5.75,2.92c2.32-0.56,4.56-0.56,6.65,0.76c1.45,2.48,2.71,4.88,6.44,4.57
			c3.14-0.26,6.59-0.29,8.5,3.19c0.8,3.31-3.43,5.11-2.51,8.45c0.41,2.65,1.51,5,2.86,7.28c2.24,3.79,1.18,6.31-3.19,7.01
			c-4.89,0.79-10.33,0.69-10.43,7.73c-0.1,6.72,5.75,7.06,10.01,9.07c1.85,7.1-6.36,7.9-8.05,12.8c-2.13,2.18-4.87,3.55-7.24,5.41
			c-1.28,1.05-2.33,2.33-3.31,3.66c-3.16,3.47-5.62,7.37-7.41,11.69c-2.67,5.53-6.21,10.7-6.83,17.05
			c-0.42,3.06-1.75,5.96-1.52,9.13c0.1,2.22,0.66,4.4,0.68,6.62c-0.22,3.07-1.18,6.08-0.72,9.2c2.11,5.86,7.58,10.68,3.45,18.3
			c-1.47,2.71,2.6,6.88,4.25,10.35C140.5,436.29,141.4,439.14,138.61,441.67z"/>
		<path class="st2" d="M412.06,462.24c-37.3,34-81.52,49.63-131.69,48.5c-43.89-0.99-83.11-15-116.53-43.95
			c0.95-1.34,2.32-1.62,3.85-1.51c2.82,0.62,5.13,2.58,8.05,2.96c4.68,1.37,9.09,3.53,13.88,4.58c6.52,1.65,13.15,0.49,19.72,0.82
			c4.97,0.36,9.69-1.46,14.58-1.74c2.26-0.19,4.49-0.54,6.62-1.36c1.61-0.65,3.21-1.31,4.82-1.94c3.72-1.1,6.24-4.26,9.74-5.75
			c4.12-1.37,6.75-4.79,10.05-7.28c2.18-1.42,4.29-2.91,5.93-4.97c2.98-3.75,5.68-7.67,8.32-11.65c1.57-2.36,2.8-6.38,7.13-3.44
			c1.06,1.73,1.36,3.68,1.52,5.64c0.39,4.83,2.99,6.94,7.78,6.81c5.16-0.14,6.67-3.28,6.86-7.75c0.13-2.93,0.01-5.93,1.57-8.62
			c6.97-2,5.85,5.88,9.62,7.8c2.65,4.1,5.07,8.37,8.4,11.99c3.38,3.93,7.8,6.58,11.97,9.51c3.93,1.65,7.92,3.2,11.21,6.04
			c3.17,2.14,6.64,3.55,10.36,4.33c1.64,1.19,3.54,0.39,5.31,0.6c1.95,0.49,3.77-0.37,5.65-0.6c0.83,0.02,1.62,0.21,2.39,0.53
			c2.13,1.35,4.4,2.22,6.98,2.1c4.02-0.04,8.05,0.14,11.95-1.1c7.5-1.72,15.15-3.03,21.17-8.44c2.18-1.27,4.31-2.64,6.5-3.87
			C408.15,459.15,411.15,457.47,412.06,462.24z"/>
		<path class="st0" d="M845.67,193.98c17.13-0.15,34.27-0.21,51.4-0.52c4.74-0.09,6.3,1.81,6.28,6.39
			c-0.11,34.86-0.11,69.73,0,104.6c0.01,4.59-1.57,6.48-6.3,6.39c-17.13-0.31-34.27-0.37-51.4-0.53c-3.3-3.84-2.9-8.55-2.91-13.08
			c-0.08-30.06-0.08-60.12,0-90.19C842.76,202.52,842.34,197.81,845.67,193.98z"/>
		<path class="st1" d="M164.31,170.21c40.12-33.81,86.75-46.95,138.57-42.91c16.43,1.28,32.6,4.44,47.86,11.11
			c0.51,0.53,0.7,1.07,0.58,1.64c-0.12,0.58-0.26,0.86-0.41,0.86c-21.65,10.23-37.94,25.78-47.83,47.76
			c-1.18,2.63-2.12,5.72-5.94,5.71c-2.5-0.9-4.05-3.21-6.38-4.36c-6.68-3.28-11.22-1.52-12.77,5.78c-1.52,7.19-4.42,8.03-9.69,3.4
			c-2.23-3.26-3.29-7.22-6.15-10.1c-2.68-4.6-7.93-1.26-11.33-3.64c-1.56-6.55-4.61-11.4-12.2-12.14c-4.5-0.44-6.11-5.99-10.64-6.75
			c-6.32-1.86-12.6-3.9-19.3-3.73c-5.99,0.54-12,0.61-17.99,1.1c-6.65,1.64-13.11,3.72-18.76,7.77
			C168.95,173.37,166.43,172.8,164.31,170.21z"/>
		<path class="st2" d="M418.16,312.74c4.93-0.47,9.8-1.12,14.12-3.82c14.93-5.11,26.66-15.49,39.58-23.89
			c6.7,24.63,4.99,49.37-0.42,73.79c-7.17,32.4-19.54,62.52-43.17,86.93c-3.5-3.3-1.51-6.45,0.46-9.38
			c2.89-4.3,4.61-9.11,6.55-13.83c2.44-6.25,3.23-12.74,2.9-19.4c-0.64-4.58,1.56-9.15,0.02-13.74c-0.86-4.95-1.66-9.91-3.52-14.62
			c-0.81-2.49-1.44-5.04-2.45-7.47c-0.68-1.55-1.4-3.08-2.15-4.59c-1.38-3.07-3.27-5.81-5.53-8.31c-2.76-3.86-5.48-7.75-9.25-10.75
			c-2.91-1.52-4.54-5.42-8.72-4.55c-6.57-6.54-6.54-8.82,0.86-11.04c4.51-1.35,6.8-3.51,6.87-8.14
			C414.34,316.9,414.6,313.92,418.16,312.74z"/>
		<path class="st3" d="M400.67,262.73c-3.53-0.46-7.07-0.92-10.6-1.37c-10.41-0.64-16.81-7.54-23.04-14.71
			c-12.77-21.35-8.31-45.2,10.6-56.74c9.96-3.28,19.31-9.51,30.62-6.4c6.37,3.86,12.59,8.01,19.77,10.34
			c1.36,0.63,2.71,1.26,4.07,1.89c1.24,1.4,2.47,2.8,3.71,4.2c-8.74,4.21-17.99,1.04-26.98,1.76c-6.87,0.55-13.82,0.14-20.73,0.16
			c-2.51,2.12-2.98,4.99-2.71,7.98c1.05,11.77-3.08,23.94,2.71,35.34c11.41,0.18,22.81,0.35,34.22,0.53
			C420.65,258.42,409.48,259.08,400.67,262.73z"/>
		<path class="st0" d="M887.49,135.79c9.08-3.33,18.2-2.48,26.47,1.7c14.49,7.33,15.3,26.78,1.66,35.58
			c-7.97,5.15-16.81,6.66-26.07,3.39c-9.39-6.1-14.18-14.12-11.97-25.8C878.83,144.07,884.63,141.02,887.49,135.79z"/>
		<path class="st0" d="M838.11,134.63c4.88,0.14,9.87-0.36,14.6,0.55c9.75,1.88,16.55,9.85,17.15,18.98
			c0.63,9.59-4.47,18.02-13.95,21.37c-7,2.48-14.36,4.41-21.75,0.83c-2.6-3.69-7.13-5.3-9.43-9.5
			C817.72,154.03,822.38,142.48,838.11,134.63z"/>
		<path class="st4" d="M622.03,146.26c-18.38,15.31-26.86,34.69-26.33,58.77c0.69,31.5,0.19,63.03,0.15,94.55
			c-0.01,3.54,0.87,7.27-1.49,10.5c-4.57,0.61-4.5-2.47-4.5-5.58c0.06-37.2-0.81-74.44,0.53-111.59
			c0.75-20.68,11.43-37.38,29.57-48.55C622.11,143.41,622.37,144.51,622.03,146.26z"/>
		<path class="st5" d="M1036.02,150.31c-15.51,15.54-21.97,34.15-21.6,56.15c0.58,34.49-0.19,69.01-0.39,103.51
			c-4.49,0.91-5.57-1.19-5.55-5.38c0.14-36.77-0.64-73.57,0.44-110.32c0.55-18.67,9.28-34.58,24.65-46.18
			C1035.68,147.41,1036.24,148.43,1036.02,150.31z"/>
		<path class="st6" d="M845.67,193.98c0,38.78,0,77.56-0.01,116.34c-4.25,1.59-6.94,1.2-6.93-4.38c0.09-35.84,0.1-71.68-0.02-107.51
			C838.7,192.74,841.52,192.6,845.67,193.98z"/>
		<path class="st7" d="M138.61,441.67c0.58-3.12-0.13-5.98-1.74-8.67c1.53-3.89,4.7-6.34,7.85-8.8c3.75-1.05,7.55-1.66,10.95,0.77
			c3.68,2.62,4.95-0.43,6.7-2.54c1.22-0.77,2.54-1,3.95-0.8c6.17,3.42,2.75,9.36,4.64,14.04c4.12-0.24-1.75-8.24,4.57-7.67
			c1.88,1.7,3.66-0.21,5.52-0.2c1.64,0.04,3.27,0.43,4.9,0.27c3.67-0.37,6.67,0.63,7.56,4.52c0.94,4.1-1.37,6.9-4.7,8.82
			c-2.79,1.62-6.4,1.59-8.72,4.22c-7.3-0.48-10.76,7.1-17.3,8.23c-7.56,0.99-3.07-7.05-6.76-8.96c-0.52-0.98-0.25-2.71-1.86-2.69
			c-0.88,0.01-1.45,1.05-1.56,2.1c-0.2,1.88,0.18,3.78-0.22,5.65c-0.68,1.81-1.31,3.69-3.91,2.96
			C144.71,449.59,141.05,446.16,138.61,441.67z"/>
		<path class="st8" d="M412.06,462.24c-2.61-2.53-4.63-1.74-6.15,1.18c-1.52,2.91-3.62,1.98-5.78,1c-4.45,0.94-8.56-1.7-12.97-1.22
			c-4.38-0.52-9.33,1.25-12.76-3.11c2.11-5.2,7.25-6.18,11.57-8.3c3.24-0.35,6.1,0.27,8.14,2.79c0.12-3.97,0.44-8.37,1.37-12.72
			c1.77-3.35,4.54-4.7,8.27-4.1c4.6,3.48,8.58,7.72,13.22,11.16c1.16,1.76,2.36,3.5,3,5.54C418.17,457.9,415.4,460.35,412.06,462.24
			z"/>
		<path class="st9" d="M241.7,592.17c-9.76,0-16.59-5.9-16.6-14.32c-0.01-9.3,6.2-15.71,15.24-15.74
			c9.52-0.03,16.79,6.16,16.84,14.35C257.24,585.35,250.51,592.18,241.7,592.17z"/>
		<path class="st10" d="M99.51,515.1c-4.93-0.08-19.73-11.07-18-13.28c5.51-7.07,12.05-13.48,18.9-19.3
			c2.14-1.82,14.42,13.82,14.26,18.32C114.44,507.64,106.39,515.22,99.51,515.1z"/>
		<path class="st11" d="M535.19,428.83c-2.11,10.51-10.15,6-14.75,8.63c0.21,0.56,0.37,1.15,0.63,1.68
			c1.45,2.97,9.86,0.62,6.15,7.13c-3.03,5.33-5.9-0.6-8.73-1.44c-3.43-1.01-6.77-2.69-9.78-4.64c-2.5-1.62-8.02-1.17-7.01-5.23
			c1.29-5.19,3.27-10.92,9.05-13.43c2.31-1,5.66-0.32,6.18,1.65C519.78,433.88,527.68,430.14,535.19,428.83z"/>
		<path class="st12" d="M47.83,181.46c0.61-1.77,1.23-3.54,1.84-5.31c7.65-4.45,13.87-0.83,19.69,3.76c4.95,3.9,4.52,8.94,2.06,14.1
			l0.21-0.25c-4.93,7.12-11.15,7.11-17.8,2.87C48.29,193.09,43.9,188.84,47.83,181.46z"/>
		<path class="st13" d="M493.45,140.52c1.26,1.15,2.52,2.3,3.78,3.46c3.73,12.34-2.51,19.71-16.96,20.08
			c-2.38-0.32-4.21-1.45-5.3-3.63c-3.69-5.82-2.96-11.12,2.04-15.77C481.69,140.3,486.58,136.41,493.45,140.52z"/>
		<path class="st11" d="M186.79,68.72c2.18,7.61,3.88,13.49,5.53,19.37c0.05,0.18-0.35,0.49-1.59,2.13
			c-4.8-6.32-4.3-14.12-7.32-20.35c-1.19-2.46-5.03-5.61-1.65-8.64c3.27-2.93,6.02,0.87,8.79,2.15c4.95,2.3,9.74,4.95,15.83,8.08
			c-2.13-6.54-3.86-11.86-5.59-17.17c1.03-0.31,2.05-0.61,3.08-0.92c2.34,9.63,8.34,18.06,8.17,30.08
			C204.03,76.9,195.89,73.74,186.79,68.72z"/>
		<path class="st14" d="M156.22,245.2c-2.1-0.03-0.13,4.97-3.25,2.89c-1.01-0.67-0.38-3.7-2.26-4.92
			c-3.79-2.64-7.34-5.47-8.36-10.35c0.58-1.43,1.5-2.62,2.63-3.67c3.76-2.52,1.25-5.96,1.38-9.02c0.5-11.99-3.02-24.25,2.42-35.91
			c1.18-1.03,2.36-2.06,3.54-3.09c3.28,2.31,2.95,5.78,2.28,8.89c-1.19,5.52,0.36,10.31,2.83,15.03c0.86,4.34-0.79,8.73,0.25,13.07
			c2.24,4.83,3.73,9.59,0.58,14.75c-1.6,2.62-0.59,5.68-0.25,8.56C157.99,242.97,157.65,244.35,156.22,245.2z"/>
		<path class="st15" d="M289.47,586.47c0-8.35,0-13.65,0-18.95c0.75-0.01,1.5-0.01,2.25-0.02c0,8.37,0.57,16.79-0.22,25.09
			c-0.44,4.64-3.55,2.12-5.29,0.19c-4.71-5.24-9.28-10.6-15.31-17.52c-0.43,7.87-0.73,13.48-1.04,19.09
			c-0.8-0.02-1.61-0.05-2.41-0.07c0-8.19-0.47-16.42,0.17-24.56c0.41-5.19,3.89-3.19,6.01-0.96
			C278.35,573.7,282.77,578.92,289.47,586.47z"/>
		<path d="M1093.75,309.8c-0.06-15.74-0.15-31.47-0.14-47.21c0-1.75-0.78-4.27,1.97-4.79c2.56-0.48,3.57,1.38,3.45,3.54
			c-0.9,16.24,2.14,32.61-1.57,48.75C1096.22,310,1094.99,309.9,1093.75,309.8z"/>
		<path d="M673.93,259.15c3.82-2.56,6.13-1.99,6.06,3.04c-0.2,15.93-0.45,31.86-0.68,47.79c-5.75,0.99-5.36-2.79-5.35-6.6
			C674.03,288.64,673.96,273.89,673.93,259.15z"/>
		<path class="st16" d="M438.44,511.43c3.79,5.51,8,10.78,11.27,16.58c3.7,6.55-0.05,11.32-5.34,14.94
			c-5.21,3.56-10.42,4.08-14.79-1.51c-3.24-4.14-6.3-8.42-9.62-12.49c-1.58-1.94-1.49-3.19,0.45-4.78c2.43-1.99,3.85-1.24,5.39,1.11
			c2.69,4.12,5.49,8.18,8.46,12.1c2.68,3.56,6.01,5.22,10.09,1.97c3.64-2.89,4.09-6.22,1.87-10.41c-2.94-5.57-8.5-9.55-10.33-15.76
			C436.75,512.61,437.6,512.02,438.44,511.43z"/>
		<path class="st17" d="M526.22,185.3c-5.18,4.85-11.3,8.43-17.93,10.88c-6.5,2.4-10.54-1.48-13.48-6.81
			c-2.82-5.12-3.31-10.09,1.99-13.91c4.51-3.25,9.33-6.08,13.99-9.13c2.08-1.36,3.45-0.89,4.79,1.18c1.46,2.25,0.75,3.43-1.33,4.6
			c-4.57,2.58-9.11,5.2-13.56,7.96c-3.6,2.24-4.74,5.59-2.61,9.27c2.21,3.81,5.58,5.58,9.95,3.2c5.59-3.04,11.13-6.19,16.69-9.29
			C525.22,183.94,525.72,184.62,526.22,185.3z"/>
		<path class="st18" d="M36.96,410.76c-2.64-1.21-7.78,7.44-9.16-0.63c-0.99-5.76,6.97-3.74,10.36-6.22
			c1.53-1.12,4.13-0.99,5.39-2.27c10-10.19,10.79,0.1,13.27,5.95c1.84,4.35,1.46,8.53-3.48,10.82c-4.67,2.16-8.27,0.45-10.99-3.6
			C41.16,413.03,40.89,410.24,36.96,410.76z"/>
		<path class="st18" d="M259.93,49.56c-0.26-2.49-2.2-5.66,0.37-7.28c3.18-2,5.33,1.16,7.25,3.28c3.92,4.34,7.7,8.81,11.14,12.76
			c4.28-2.11,0.75-6.29,4.78-6.89c1.93,0.13,1.4,1.89,1.39,2.88c-0.04,4.75,2.75,11.83-0.86,13.68c-4.73,2.42-7.18-5-10.91-7.79
			c-3.35-2.5-6.27-5.56-9.39-8.37C261.98,51.85,260.87,50.86,259.93,49.56z"/>
		<path class="st19" d="M538.86,213.07c-6.03-1.02-3.55-9.71-10.69-6.65c-7.12,3.05,1.37,7.36-1.31,10.55
			c-5.03,1.3-2.09-8.82-9.71-5.78c-8.47,3.37,0.68,8.62-3.13,12.26c-3.74-4.24-8.23-12.12-5.99-13.87
			c6.76-5.27,15.34-9.18,23.76-10.82C534.59,198.21,536.91,207.02,538.86,213.07z"/>
		<path class="st20" d="M382.38,561.36c-0.35,4.61-9.63,1.32-6.58,9.47c3.03,8.08,7.87,0.2,11.19,2.58
			c-9.99,9.21-13.73,8.46-18.01-3.38c-0.45-1.23-0.8-2.5-1.26-3.72c-5.46-14.61-5.47-14.61,10.84-19.23
			c-1.97,5.08-12.04,6.32-6.09,13.76C375.82,565.02,378.79,558.5,382.38,561.36z"/>
		<path class="st21" d="M148.48,452.92c1.77-0.87,2.14-2.48,2.23-4.23c1.57-1.93,1.25-6.35,5.78-4.36c0.43,2.18,9.07-0.34,3.16,5.72
			c-1.34,1.38,0.99,2.32,2.61,2.42c7.48,1.8,16.17,1.55,19.05,11.17c-3.58,0.93-4.23,4.84-6.87,6.73c-2.8-0.13-4.99-1.22-6.14-3.93
			c-1.78-4.75-6.11-3.32-9.6-3.95C154.31,460.36,151.24,456.81,148.48,452.92z"/>
		<path class="st22" d="M148.77,184.22c0.94,13.73-1.5,27.57,1.54,41.23c0.91,4.07-1.83,5.11-5.07,5.56
			c-6.08-3.96-4.37-10.61-5.66-16.24c-2.3-6.34,3.08-11.23,3.22-17.11c0.2-2.09,0.79-4.29-1.58-5.68
			C143.24,188.92,145.59,186.17,148.77,184.22z"/>
		<path class="st18" d="M496.64,446.2c2.64,4.33-6.68,6.92,0.05,11.25c6.85,4.41,5.34-5.52,10.43-4.33
			c2.11,3.17-7.72,7.95,0.98,11.91c7.05,3.21,5.17-5.63,9.36-5.08c-1.19,12.2-5.56,14.69-14.92,8.52c-1.65-1.09-3.29-2.17-4.96-3.23
			C485.37,457.49,485.37,457.49,496.64,446.2z"/>
		<path class="st19" d="M38.97,222.55c-3.62-0.77-6.75-2.31-7.52-6.53c-0.76-4.16,0.23-7.84,3.43-10.71
			c1.09-0.98,2.44-0.88,3.39,0.38c0.67,0.89,0.38,1.58-0.6,2.22c-2.54,1.68-5.47,3.99-2.7,6.95c3.19,3.42,6-0.07,8.34-2.12
			c4.59-4.02,9.24-5.33,13.87-0.51c4.18,4.34,2.74,9.1-0.04,13.54c-1.15,1.84-2.72,4.51-5.31,1.99c-2.93-2.84,1.19-2.68,2.11-3.62
			c2.11-2.13,3.22-4.47,1.42-6.96c-2.14-2.96-4.65-1.24-6.83,0.35C45.63,219.67,42.95,222.2,38.97,222.55z"/>
		<path class="st23" d="M1079.7,211.83c3.26,14.91,0.3,30.05,1.62,45.03c-2.24,0.39-4.91,1.21-4.91-2.42
			c-0.01-13.6,0.1-27.19,0.36-40.78C1076.78,213.03,1078.68,212.43,1079.7,211.83z"/>
		<path class="st16" d="M410.17,565.16c-7.27,3.97-13.28,1.23-16.81-4.97c-3.76-6.6-5.76-14.24,1.12-20.66
			c4.64-4.33,9.79-7.35,16.35-4.4c-5.97,2.49-14.17,1.18-14.62,10.84c-0.34,7.21,6.44,15.45,13.87,17.04
			c0.61,0.45,0.83,0.92,0.65,1.41C410.55,564.91,410.37,565.16,410.17,565.16z"/>
		<path class="st19" d="M421.18,96.72c4.82-3.43,9.38-10.82,14.82-8.37c3.27,1.47-0.97,9.87-1.79,15.16
			c-0.74,4.75-1.87,9.43-2.82,14.09c-10.71-0.74-0.05-13.66-9.2-15.05C421.48,100.67,421.79,98.61,421.18,96.72z"/>
		<path class="st24" d="M838.11,134.63c-1.97,1.63-3.91,3.29-5.9,4.88c-11.25,8.97-11.12,23.41,0.07,32.86
			c0.69,0.59,6.8,0.29,1.89,3.99c-12.48-5.55-17.6-13.07-16.11-23.7C819.36,143.38,827.64,135.93,838.11,134.63z"/>
		<path class="st25" d="M156.94,205.95c-5.26-3.46-6.81-8.09-5.3-14.25c0.83-3.37,0.49-7.03,0.67-10.56
			c0.96-1.66,2.16-3.02,4.14-3.47c1.21,0.65,1.85,1.77,2.43,2.94c0.89,2.01,2.32,3.69,3.5,5.53c1.73,3.88,2.25,8.11,3.48,12.14
			c1.33,4.34,0.82,8.49-4.35,10.4C159.35,208.83,157.73,208.08,156.94,205.95z"/>
		<path class="st19" d="M181.25,543.74c7.96,1.52,14.97,3.58,21.47,9.31c-9.11-4.42-10.32,1.25-11.86,7.22
			c-1.13,4.38-3.2,8.52-4.78,12.8c-0.89,2.41-2.51,2.69-4.63,1.81c-2.16-0.89-2.88-2.1-1.72-4.49c1.85-3.8,3.55-7.7,4.91-11.7
			C186.45,553.37,189.88,547.53,181.25,543.74z"/>
		<path class="st26" d="M65.57,481.97c-5.67-4.58-9.23-10.13-6.48-17.57c2.19-5.92,6.98-9.42,13.27-9.95
			c8.84-0.75,13.51,4.73,16.58,12.13c-1.15,1.51-0.14,5.24-4.04,3.91c-2.63-4.1-3.89-10.27-11.21-7.24c-7.67,3.18-9.83,8.65-7,16.29
			C66.62,480.49,66.25,481.3,65.57,481.97z"/>
		<path class="st27" d="M322.2,45.25c7.98-3.62,14.86-1.29,19.97,4.98c4.41,5.41,3.4,11.93-0.37,17.34
			c-4.76,6.84-11.61,7.53-19.05,4.6c-0.45-0.5-0.66-1.04-0.63-1.61c0.04-0.6,0.11-0.89,0.23-0.89c3.19-2.54,8.34-0.55,10.82-5.18
			c3.8-7.11,0.6-13.65-8.34-16.09C323.51,47.71,322.53,46.75,322.2,45.25z"/>
		<path class="st28" d="M887.49,135.79c0.76,0.65,3.01,0.57,1.39,2.45c-14.03,16.26-13.63,22.58,2.05,36.09
			c2.09,1.8-1.01,1.33-1.38,2.13c-8.42-3.05-14.89-7.66-15.87-17.62C872.59,147.59,877.14,140.05,887.49,135.79z"/>
		<path class="st19" d="M520.03,392.59c3.12,4.41-5.63,10.42,2.87,12.72c7.97,2.16,3.6-6.67,7.51-8.42
			c2.33,0.46,3.13,2.19,1.85,4.22c-3.77,5.96-0.5,8.19,4.76,9.27c2.86,0.59,5.18,1.21,4.16,4.88c-1.23,4.39-4.01,1.92-6.19,1.25
			c-3.43-1.06-6.77-2.43-10.16-3.62C512.15,408.48,511.46,405.76,520.03,392.59z"/>
		<path class="st16" d="M380.46,77.26c3.5-5.21,5.96-15.12,11.12-14.08c5.25,1.06,1.36,10.78,2.58,16.54
			c0.42,1.97-1.9,5.85,3.1,5.15c1.08-0.56,2.09-0.46,3.03,0.31c-3.43,2.95-6.86,5.9-10.8,9.3c-2.79-3.81-1.28-7.5-1.82-10.8
			c-0.5-3.12,1.01-6.48-1.33-9.96c-1.54,1.99-2.88,3.71-4.22,5.43C380.53,79.43,379.4,79.3,380.46,77.26z"/>
		<path class="st20" d="M456.03,513.82c-2.3-3.75-8.79-7.32-6.43-10.94c2.89-4.42,8.18,0.94,12.37,1.92
			c4.57,1.06,9.28,4.1,7.25-4.58c0.68-0.72,1.41-0.72,2.17-0.12c1.76,4.79,3.52,9.58,5.5,14.97c-7.04,1.1-12.02-4.51-18.16-3.3
			C458.72,513.63,457.81,514.29,456.03,513.82z"/>
		<path class="st29" d="M308.24,55.9c-7.69-0.86-10.93,2.54-9.62,10.04c0.4,2.31-0.95,3.56-3.49,3.5c-3.23-0.08-3.68-1.79-3.35-4.55
			c0.51-4.24,0.81-8.52,1.03-12.79c0.68-12.8,2.31-13.71,16.12-8.69c-1.67,4.46-9.59-2.71-9.73,5.64
			C299.07,56.74,306.83,50.6,308.24,55.9z"/>
		<path class="st18" d="M102.26,112.42c5.58-4.62,11.15-9.25,16.73-13.87c-5.08,7.05-1.34,11.53,3.22,16.05
			c2.55,2.53,4.68,5.46,7.13,8.09c1.84,1.98,1.14,3.23-0.7,4.72c-1.94,1.57-3.21,1.58-4.73-0.54c-2.28-3.18-4.82-6.18-7.26-9.25
			c-3.5-4.41-6.63-10.04-13.87-1.82C102.61,114.67,102.44,113.55,102.26,112.42z"/>
		<path class="st19" d="M400.29,85.18c-1.01-0.1-2.02-0.21-3.03-0.31c2.67-4.98,7.05-8.3,11.36-11.68c1.33-1.05,2.83-2.11,4.38-0.98
			c1.49,1.09,1.13,2.76,0.59,4.45c-2.18,6.82-4.13,13.71-6.37,20.51c-0.59,1.8-0.33,5.08-4.13,3.67c-3.41-1.27-3.26-3.36-2.02-6.19
			c1.3-2.98,3.17-6.17,3.06-9.2C403.97,81.3,401.6,85.87,400.29,85.18z"/>
		<path class="st17" d="M155.24,562.22c-10.86-6.91-13.11-15.66-7.57-23.81c5.41-7.96,13.5-8.6,25.11-0.02
			c-9.44-3.69-15.25-3.27-19.74,3.9C148.79,549.07,151.62,554.91,155.24,562.22z"/>
		<path class="st30" d="M156.47,72.79c7.99-5.43,14.39-2.71,19.06,4.5c5.81,8.95,3.38,16.2-7,23.31c-0.66-0.7-0.98-1.53-1.01-2.49
			c3.59-12.73,0.68-18.56-11.38-22.84C155.68,74.37,155.81,73.55,156.47,72.79z"/>
		<path class="st19" d="M361.57,581.71c-12.2,9.18-15.52,8.24-18.41-3.83c-0.98-4.11-1.84-8.28-3.19-12.27
			c-0.84-2.48-1.37-4.22,1.74-5.31c3.99-1.41,4.3,1.38,4.89,3.96c0.58,2.53,1.25,5.05,1.71,7.6
			C349.55,578.75,349.88,586.59,361.57,581.71z"/>
		<path class="st31" d="M466.43,113.27c-9.67-7.28-11.2,2.66-15.94,6c-3.32,2.34-3.48,12.06-9.76,6.63c-4.62-4,3.46-6.6,5.02-10.27
			c1.66-3.91,6.57-5.62,6.84-10.76c0.18-3.53,3.33-2.21,4.74-1.07C460.53,106.39,464.6,108.11,466.43,113.27z"/>
		<path class="st32" d="M437.61,422.78c-0.77,8.6-8.94,14.2-9.33,22.96c-0.63,0.53-1.27,1.06-1.9,1.58
			c-6.69-6.54-7.85-14.11-4.26-22.58c0.77-1.24,1.8-2.15,3.2-2.61c2.27-0.22,4.03-1.45,5.88-2.7
			C435.2,416.73,436.85,419.03,437.61,422.78z"/>
		<path class="st27" d="M360.55,69.61c-2.64,0.1-2.74,2.34-3.36,4.06c-0.9,2.51-0.27,6.66-5.17,4.61c-4.67-1.95-1.12-4.92-0.66-7.29
			c0.55-2.85,1.92-5.54,2.78-8.34c3.87-12.65,3.85-12.66,16.85-7.31c-0.34,1.41-1.25,2.34-2.52,2.96c-4.82,0.85-4.99,3.7-3.2,7.41
			C364.97,68.56,363.07,69.47,360.55,69.61z"/>
		<path class="st33" d="M168.54,99.02c-0.02,0.53-0.02,1.05-0.01,1.58c-9.58,4.78-15.85,3.1-20.18-5.42
			c-4.37-8.59-1.25-17.18,8.12-22.39c0.04,0.63,0.1,1.26,0.17,1.88c0.04,1.64-0.31,3.22-0.57,4.83
			C154.34,90.46,155.39,92.06,168.54,99.02z"/>
		<path class="st20" d="M208.95,584.34c-4.29-0.77-5.18-2.37-3.8-6.25c2.42-6.75,4.03-13.8,5.94-20.73
			c0.44-1.59,0.77-3.41,2.97-2.82c1.75,0.47,4.66,0.7,3.98,3.31c-2.2,8.51-4.8,16.91-7.37,25.31
			C210.48,583.8,209.29,584.12,208.95,584.34z"/>
		<path class="st11" d="M94.23,161.52c-3.12,4.17-6.24,8.34-9.41,12.57c-6.82-5.05-13.13-9.8-19.53-14.43
			c-2.19-1.58-3.17-2.94-1-5.41c1.8-2.05,3.12-1.67,4.88-0.12c2.22,1.96,4.59,3.75,6.92,5.59C81.49,163.98,86.79,170.2,94.23,161.52
			z"/>
		<path class="st19" d="M471.38,500.09c-0.72,0.04-1.44,0.08-2.17,0.12c-1.62-4.63-7-10.52-3.06-13.71
			c3.87-3.14,7.47,4.24,11.48,6.52c3.09,1.75,5.69,4.35,8.51,6.56c1.49,1.17,3.53,2.17,1.53,4.47c-1.63,1.88-3.29,3.05-5.7,0.81
			c-2.62-2.44-5.36-4.79-8.29-6.84C470.84,496.02,472.01,499.21,471.38,500.09z"/>
		<path class="st34" d="M479.48,162.34c12.68-0.61,17.87-5.98,17.75-18.37c6.25,3.63,5.85,9.31,3.3,14.45
			c-3.09,6.22-8.74,10.67-15.92,8.82c-5.84-1.5-5.95,0.6-5.41,4.82C474.72,168.7,474.89,165.46,479.48,162.34z"/>
		<path class="st35" d="M424.04,425.06c-4.32,7.96,0.95,14.91,2.35,22.26c-2.14,2.38-4.27,4.76-6.41,7.14
			c-2.63,0.12-4.21-0.81-3.78-3.76c1.33-8.28-0.67-16.06-3.56-23.72c-0.05-2.06,0.54-3.79,2.42-4.9c2.49-0.99,4.79-0.51,6.98,0.87
			C422.76,423.61,423.42,424.31,424.04,425.06z"/>
		<path class="st34" d="M47.83,181.46c1.56,13.61,11.71,18.85,23.79,12.29c-0.91,6.74-5.91,9.22-11.58,9.33
			c-6.19,0.12-11.51-3.09-14.17-8.86C43.87,189.89,41.99,184.9,47.83,181.46z"/>
		<path class="st20" d="M131.65,89.91c2.16-0.24,2.72,1.39,3.61,2.7c3.68,5.37,7.38,10.73,11.12,16.06c1.3,1.85,3.11,3.42,0.06,5.48
			c-2.41,1.63-3.88,1.48-5.51-1c-3.94-5.97-8.05-11.83-12.14-17.7C126.1,91.58,130.18,91.44,131.65,89.91z"/>
		<path class="st30" d="M51.64,440.81c-3.29-4.31-5.17,0.7-7.65,1.3c-1.87,0.45-3.09,0.51-3.95-1.26c-0.85-1.74-1.8-3.45,0.81-4.77
			c6.66-3.38,13.14-7.13,19.9-10.28c5.07-2.36,4.4,3.06,6.14,5.19c-0.5,0.68-1.09,1.27-1.75,1.8c-3.26,1.86-6.37,3.92-8.78,6.88
			C54.96,440.77,53.54,441.81,51.64,440.81z"/>
		<path class="st31" d="M501.47,486.78c-0.6,0.78-1.32,1.76-2.09,2.71c-1.32,1.65-2.72,1.24-4.14,0.13
			c-5.87-4.61-11.76-9.19-17.61-13.83c-1.44-1.14-1.85-2.52-0.34-4.02c1.27-1.27,2.12-3.42,4.54-1.51
			c6.12,4.82,12.31,9.55,18.44,14.37C500.72,484.96,500.88,485.69,501.47,486.78z"/>
		<path class="st16" d="M120.79,538.72c-9.94-7.63-10.61-10.49-2.31-20.53c2.9-3.51,4.57-13.21,10.64-8.5
			c5.51,4.28-3.83,7.62-5.9,11.73c-2.41,4.8-7.79,8.68-2.28,14.57C121.77,536.96,121.72,537.87,120.79,538.72z"/>
		<path class="st11" d="M250.55,66.57c1.45,3.98,0.07,4.95-2.22,5.29c-2,0.29-3.92,0.6-4.31-2.3c-0.95-7.13-1.88-14.27-3.06-21.37
			c-0.41-2.48,0.27-3.69,2.64-4.17c2.96-0.59,3.96,0.73,4.29,3.59C248.67,54.43,249.78,61.21,250.55,66.57z"/>
		<path class="st27" d="M368.55,57.6c0.81-0.75,1.63-1.49,2.44-2.24c5.15,2.75,5.43,8.27,1.41,9.96c-8.01,3.36-4.77,7.92-3.72,12.99
			c0.44,2.1,2.84,5.6-0.31,6.52c-3.68,1.07-5.64-1.7-5.91-5.71c-0.21-3.19-1.24-6.34-1.91-9.5c1.36-1.25,2.72-2.49,4.08-3.74
			C364.76,62.56,366.11,59.82,368.55,57.6z"/>
		<path class="st10" d="M51.64,440.81c1.3-0.64,2.59-1.29,3.89-1.93c4.42-0.96,7.64-3.4,9.38-7.64c0.66-0.08,1.31-0.16,1.97-0.25
			c2.69,3.61,4.61,7.63,1.82,11.75c-2.63,3.88-6.48,3.87-10.41,1.43c-2.92-1.81-3.13,1.38-3.98,2.61c-1.85,2.67-3.25,5.66-4.88,8.6
			C44.99,450.03,44.99,450.03,51.64,440.81z"/>
		<path class="st33" d="M493.45,140.52c-14.65,1.38-20.6,8.13-17.14,19.44c-0.74,0.79-1.54,0.81-2.38,0.17c0,0-0.55,0-0.55,0
			c0.23-1.02,0.06-1.77-1.2-1.78c-4.41-8.33-2.28-15.17,5.5-19.81C483.01,135.35,489.03,133.3,493.45,140.52z"/>
		<path class="st36" d="M661.59,211.95c0.1,15.05,0.2,30.09,0.31,45.14c-2.03,0.36-4.11,0.52-4.12-2.34
			c-0.03-13.64-0.02-27.28,0.13-40.92C657.93,211.57,660.01,211.92,661.59,211.95z"/>
		<path class="st30" d="M71.41,194c0.02-12.84-4.47-16.53-21.74-17.86c7.66-6.85,14.69-7.28,21.12-0.51
			C76.15,181.28,78.36,187.65,71.41,194z"/>
		<path class="st30" d="M65.57,481.97c0.08-0.82,0.16-1.65,0.25-2.47c7.39-1.31,13.2-6.09,19.85-9.03c1.09-1.3,2.18-2.6,3.27-3.9
			c2.96,7.27-0.02,12.6-5.92,16.54C77.09,487.08,71.04,487.63,65.57,481.97z"/>
		<path class="st37" d="M458.83,142.47c-0.83-0.76-1.85-1.52-2.66-2.46c-1.43-1.65-0.44-2.79,0.83-4.07
			c5.07-5.12,10.07-10.3,15.02-15.53c1.86-1.97,3.28-1.39,4.82,0.34c1.14,1.28,2.16,2.45,0.56,4.08
			c-5.5,5.61-10.97,11.25-16.49,16.84C460.5,142.08,459.74,142.14,458.83,142.47z"/>
		<path class="st38" d="M156.84,181.59c-0.13-1.31-0.26-2.62-0.39-3.93c1.59-3.57,4.59-5.66,7.86-7.45c2.07-0.63,4.34,2.01,6.3-0.39
			c2.01-0.46,3.37,0.47,4.43,2.06c0.55,1.72,0.14,3.42-0.16,5.11c-0.48,2.83-1.65,5.58-1.01,8.55c-0.05,2.8,0.88,6.41-3.16,6.94
			c-3.4,0.45-4.46-2.87-4.35-5.24C166.75,178.95,158.71,185.55,156.84,181.59z"/>
		<path class="st39" d="M1087.63,185.51c5.82-5.22,7.69,1.01,9.48,3.96c3.56,5.87,1.96,12.75,1.96,19.25c0,1.94-1.2,2.95-3.13,2.89
			c-2.27-0.07-2.24-1.84-2.44-3.44c-0.7-5.41,1.46-11.08-1.49-16.27C1091.49,189.12,1090.09,186.96,1087.63,185.51z"/>
		<path class="st33" d="M105.05,150.08c-4.75,5.01-9.59,4.65-14.49,0.22c-3.62-3.27-7.24-6.54-10.86-9.82
			c-1.49-1.35-2.89-2.54-0.76-4.7c2.09-2.11,3.58-2.13,5.58,0.11c2.6,2.91,5.47,5.57,8.28,8.28c2.86,2.76,5.86,5.29,10.31,4.19
			C104.98,147.57,105.23,148.58,105.05,150.08z"/>
		<path class="st40" d="M669.26,185.88c4.8-5.61,6.86,0.31,8.4,2.68c4.2,6.46,2.59,14.01,2.09,21.12c-0.22,3.11-3.67,1.65-5.78,1.88
			C672.57,202.96,677.34,193.25,669.26,185.88z"/>
		<path class="st30" d="M322.2,45.25c0.93,0.7,1.87,1.39,2.8,2.09c-1.62,7.35-4.32,14.61-1.98,22.31c-0.09,0.84-0.18,1.68-0.27,2.52
			c-6.66-1.6-10.1-5.86-9.91-12.65C313.03,52.97,314.8,47.22,322.2,45.25z"/>
		<path class="st41" d="M105.05,150.08c-0.64-0.57-1.29-1.14-1.93-1.71c8.66-8.08,1.86-12.94-3.6-18.41
			c-2.59-2.59-9.08-5.81-6.71-8.04c4.4-4.14,6.58,3.02,9.26,5.41C113.97,137.91,114.15,140.95,105.05,150.08z"/>
		<path class="st42" d="M471.87,285.03c-11.06,11.49-23.87,20.08-39.59,23.89c-0.2-0.57-0.4-1.14-0.59-1.71
			c14.72-4.93,26.74-14.01,37.88-24.47C470.34,283.5,471.1,284.26,471.87,285.03z"/>
		<path class="st43" d="M120.79,538.72c0.05-0.91,0.11-1.82,0.16-2.73c4.78,2.78,8.7,1.66,11.95-2.6c2.37-3.11,4.65-6.29,7.19-9.26
			c1.24-1.44,1.81-5.3,4.75-2.96c2.83,2.26-0.65,3.83-1.78,5.41c-2.46,3.44-4.99,6.87-7.84,9.99
			C131.11,541.11,126.38,543.29,120.79,538.72z"/>
		<path class="st44" d="M410.17,565.16c-0.03-0.72-0.06-1.44-0.1-2.15c4.99-2.52,7.96-5.68,3.71-11.26
			c-1.47-1.92-2.53-3.72,0.55-5.42c3.17-1.75,3.83,0.59,5.02,2.49C424.23,556.57,422.59,559.52,410.17,565.16z"/>
		<path class="st45" d="M1036.02,150.31c-0.82-0.74-1.63-1.47-2.45-2.21c8.61-7.83,18.67-12.51,30.29-13.74
			C1054.81,140.08,1044.23,143.14,1036.02,150.31z"/>
		<path class="st46" d="M259.93,49.56c1.59,0.21,3.06,0.61,3.77,2.28c0,5.94,0,11.88,0,17.81C258.36,63.3,260.02,56.33,259.93,49.56
			z"/>
		<path class="st47" d="M350.76,139.72c-0.04-0.44-0.04-0.88-0.02-1.31c6.61-1.35,13.23-2.71,19.84-4.06
			c0.29,0.14,0.64,0.22,0.86,0.43c0.38,0.35,0.69,0.78,1.03,1.18c-6.68,2.05-13.36,4.1-20.05,6.15
			C351.57,141.53,350.36,141.19,350.76,139.72z"/>
		<path class="st48" d="M158.71,462.5c4.08-3.95,8.57-2.28,11.88,0.38c3.37,2.7-0.43,2.99-2.28,3.57c-1.49,0.11-2.98,0.23-4.47,0.34
			C162.13,465.35,160.42,463.92,158.71,462.5z"/>
		<path class="st49" d="M421.18,96.72c1.56,0.24,3.55-0.01,4.18,1.78c0.95,2.69-2.33,2.5-3.17,4.05c-4.66-2.98-6.82,4.71-12.25,2.31
			C412.91,100.62,417.06,98.69,421.18,96.72z"/>
		<path class="st33" d="M473.92,160.13c0.79-0.06,1.59-0.11,2.38-0.17c1.06,0.79,2.12,1.59,3.18,2.38c-1.59,3.2-3.6,6.39-0.29,9.73
			c0.21,1.16,1.25,2.6-0.23,3.38c-1.88,0.99-3.37-0.64-3.59-1.97C474.63,169.07,474.37,164.59,473.92,160.13z"/>
		<path class="st50" d="M456.03,513.82c0.9-0.68,1.8-1.37,2.69-2.05c2.88,4.24,5.75,8.48,8.63,12.71
			C460.97,523.05,458.91,518.06,456.03,513.82z"/>
		<path class="st51" d="M643.94,134.29c0.48,0.75,3.41,0.81,1.59,1.81c-3.6,1.96-7.84,2.76-11.81,4.04
			c-0.77-0.59-1.98-0.69-2.12-1.96C635.28,135.52,639.55,134.72,643.94,134.29z"/>
		<path class="st52" d="M631.6,138.18c0.71,0.65,1.41,1.3,2.12,1.96c-3.9,2.04-7.79,4.09-11.69,6.13c-0.69-0.63-1.38-1.27-2.07-1.9
			C623.19,141.08,627.24,139.34,631.6,138.18z"/>
		<path class="st53" d="M488.83,447.72c-2.01,3.66-5,5.28-9.62,5.06C480.85,446.75,485.57,448.79,488.83,447.72z"/>
		<path class="st54" d="M380.46,77.26c0.56,0.63,1.11,1.27,1.67,1.9c-0.14,4.01-2.24,6.85-6.05,10.8
			C375.73,83.81,377.79,80.43,380.46,77.26z"/>
		<path class="st55" d="M362.55,306.79c2.63,0.6,5.26,1.21,7.88,1.81c0.34,2.3-1.32,3.03-2.96,3.77
			c-7.56,1.65-15.22,0.67-22.84,0.88c-5.94-0.38-11.88,0.31-17.83,0.09c-7.92-0.17-15.83,0.43-23.75-0.15
			c-8.47,0.07-10.91-4.99-10.6-12.39c-0.4-8.49-0.14-16.99,0.02-25.48c0.03-9.18-0.88-18.39,0.8-27.52
			c4.29-6.49,5.53-0.73,6.51,1.99c5.68,15.69,15.35,28.48,27.69,39.49c2.44,2.18,4.96,4.2,7.74,5.89
			C343.99,299.83,351.52,307.42,362.55,306.79z"/>
		<path class="st56" d="M334.85,296.64c-20-11.94-32.43-29.62-39.29-51.53c-5.87-2.26-4.37-7.61-5.1-12.03
			c0.1-6.83-0.44-13.7,0.76-20.49c2.44-6.03,0.14-13.68,6.26-18.47c10.7-25.01,27.61-43.96,53.28-54.39
			c0.56,0.79,1.12,1.59,1.68,2.39c-61.79,28.38-71.67,108.23-18.56,150.02c1.03,0.81,1.98,1.72,2.97,2.58
			C337.32,296.52,336.91,297.43,334.85,296.64z"/>
		<path class="st57" d="M368.49,310.87c0.65-0.76,1.3-1.51,1.95-2.27c15.61,4.82,31.73,3.75,47.72,4.13
			c-0.61,1.46-1.69,2.9-1.77,4.39c-0.64,12.35-0.58,12.35-12.99,13.8c2.17,2.16,0.09,6.39,4.55,7.01c0.41,5.54-3.47,6.15-7.54,6.56
			c-2.62-2.09-2.23-5.23-2.72-8.04c-0.86-4.92-3.6-3.4-6.37-1.93c-3,0.98-5.77,3.17-9.22,1.77c-0.19-6.67-2.82-11.44-9.97-12.67
			c-2.63-2.38-7.06-2.68-8.08-6.93c0.49-1.56,1.54-3.14,3.05-3.07C370.25,313.76,368.72,312.1,368.49,310.87z"/>
		<path class="st58" d="M388.07,245.18c-4.95,0.93-6.15-1.6-6.08-6.01c0.17-10.37,0.21-20.76-0.01-31.13
			c-0.09-4.5,1.32-6.8,6.09-6.19C388.08,216.3,388.08,230.74,388.07,245.18z"/>
		<path class="st59" d="M377.62,189.91c-17.79,17.59-20.51,34.97-8.92,57.11c0.63,2.02-0.28,2.55-2.12,2.17
			c-13.03-18.55-11.91-41.39,2.67-55.16C371.63,191.79,373.83,189.25,377.62,189.91z"/>
		<path class="st60" d="M400.67,262.73c8.26-4.34,17.08-7.98,21.62-17.02c3.34-0.3,8.14-1.11,3.54,4.29
			C419.35,257.61,411.43,263.17,400.67,262.73z"/>
		<path class="st61" d="M428.01,193.85c-3.02,3.68-5.15,0.18-7.47-1c-4.33-2.21-8.53-4.66-12.87-6.86
			c-3.59-1.82-0.01-1.75,0.58-2.47C415.77,185.16,422.53,188.28,428.01,193.85z"/>
		<path class="st62" d="M334.85,296.64c0.66-0.64,1.32-1.28,1.99-1.92c8.5,4.18,16.37,9.68,25.71,12.08
			C350.97,309.8,343.6,301.35,334.85,296.64z"/>
		<path class="st63" d="M366.59,249.18c0.71-0.72,1.41-1.45,2.12-2.17c6.15,6.22,12.86,11.61,21.36,14.34
			C379.25,263.04,372.98,255.98,366.59,249.18z"/>
		<path class="st64" d="M128.82,405.31c-0.37-3.42-0.17-6.73,2.01-9.62c2.69-2.27,3.39,2.57,5.7,1.6
			c-6.14-5.83,0.78-7.65,3.32-10.83c4.61-3.35,10.63-5.63,8.2-13.49c-1.11-3.61,2.39-4.83,4.81-6.39c3.62-2.33,5.17-5.01,1.28-8.5
			c-0.49-0.77-0.8-1.59-0.95-2.48c-0.04-1.86,0.47-3.46,2.25-4.39c3.27,1.8,4.2-1.21,5.8-2.85c1.47-1.49,2.88-3.05,4.94-3.77
			c4.77-1.36,6.92,1.72,8.85,5.19c0.61,2.51,0.76,5.07,0.77,7.65c-0.97,4.87-0.36,10.13-3.51,14.47c-4.19,4.17-9.8,7.3-10.43,14.08
			c-0.01,2.01,1.79,3.67,1.21,5.8c-1.44,4.46,3.92,7.92,1.87,12.48c-2.46,4.28-6.71,5.11-11.05,5.76
			C144.08,416.18,136.12,412.48,128.82,405.31z"/>
		<path class="st65" d="M166.6,330.26c-11.77-0.42-16.74-7.34-12.03-16.41c3.37-6.49,9.67-1.55,14.5-4.37
			c-1.85-4.05-5.98-7.65-4.51-12.92c-0.24-3.9,2.27-2.09,3.56-1.45c3.34,1.68,4.84,5.28,7.45,7.75c6.98,6.58,13.62,5.05,15.64-4.11
			c1.14-5.21,3.38-6.68,8.17-5.27c6.74,4.53,4.6,10.96,3.7,17.11c-0.26,2.33,1.22,4.23,1.66,6.39c-0.81,3.11-3.79,3.74-6.01,5.24
			c-4.17,2.32-8.84,3.04-13.36,4.27c-3.76,0.62-7.04,2.47-10.44,4.04C172.12,331.63,169.3,332.64,166.6,330.26z"/>
		<path class="st66" d="M168.52,290.67c-3.23-3.37-7.45-2.21-11.07-1.73c-8.72,1.17-3.36-3.32-2.7-5.98
			c0.66-0.67,1.45-1.05,2.38-1.14c12.17-4.02,19.76-11.98,21.53-24.94c0.58-1.83,1.59-3.36,3.12-4.54
			c7.59-3.02,14.66-6.92,20.72-12.47c1.29-1.28,2.44-2.71,4.07-3.6c11.24,0,13.27,8.87,16.27,16.82c-7.8,7.26-19.24,9.28-26.01,18
			c-5.46,2.04-4.57-9.23-10.36-5.21c-3.41,2.37-4.33,7.26-7.32,10.38c-0.9,0.95,0.11-0.35-0.67,0.71c-1.33,1.48-2.91,2.8-3.24,4.93
			c2.34,5.2,7.22,5.35,11.85,6c1.41,0.5,2.28,1.51,2.78,2.89c0.48,1.87,0.38,3.67-0.66,5.35c-6.97,2.09-11.9-4.56-18.45-4.29
			C169.87,291.73,169.12,291.32,168.52,290.67z"/>
		<path class="st67" d="M180.45,257.11c0.9,13.89-10.35,19.62-18.66,27.2c-1.25,1.14-3.81,0.3-5.26-1.4
			c1.36-3.69,1.4-7.38-0.02-11.06c-0.01-0.43-0.02-0.87-0.02-1.3c-3.42-3.3-3.65-7.06-1.66-11.18c1.87-3.86,1.87-8.02,1.9-12.17
			c0.82-1.13,1.29-2.55,2.72-3.14c5.64,1.47,8.28-0.03,9.97-6.36c1.74-6.51,1.96-14.41,8.94-18.68c6.43,2.22,3.45,6.89,2.12,10.31
			c-3.28,8.46-5.91,17.07-7.98,25.87c-0.3,1.28-0.25-0.28-0.09,0.94c0.16,1.25,0.23-0.35,0.53-0.25c0.52-0.73,1.12-1.27,1.88-1.67
			C177.57,253.54,179.34,254.7,180.45,257.11z"/>
		<path class="st68" d="M154.86,357.82c2.89-1.8,4.29-0.1,4.88,2.37c0.87,3.64-0.82,6.37-4.08,7.87c-3.71,1.71-6.66,1.79-4.06,8.26
			c2.47,6.15-5.1,9.2-10.62,11.33c-1.9-1.18-3.96-1.77-6.19-1.77c-2.24-1.45-1.59-4.65-3.75-6.16c0.24-7.22,3.73-13.02,8.04-18.47
			C143.75,357.4,149,356.22,154.86,357.82z"/>
		<path class="st69" d="M158.83,245.64c-0.7,0.52-1.4,1.04-2.1,1.55c-0.17-0.67-0.34-1.33-0.51-2c0.27-1.3,0.55-2.61,0.82-3.91
			c-0.64-9.58,4.54-17.6,7.09-26.33c3.61-9.13,7.99-17.91,12.44-26.65c1.36-2.4,2.65-4.85,3.96-7.29c0.97-1.69,2.11-3.22,3.69-4.41
			c1.8-0.9,3.63-2.09,5.2,0.35c1.45,3.8-0.31,7.05-1.89,10.26c-7.52,15.28-13.66,31.13-19.22,47.18
			C166.47,239.68,164,243.58,158.83,245.64z"/>
		<path class="st70" d="M188.22,296.67c0.06-2.01,0.13-4.01,0.19-6.02c1.41-1.86,3.22-3.08,5.56-3.43c0.87-0.08,1.74,0,2.59,0.22
			c1.19,0.53,2.05,1.34,2.18,2.7c-2.03,1.28,0.3,3-0.42,4.43c-2.55,0.15-4.95-0.57-4.57,4.04c0.31,3.76,0.13,9.66-4.93,10.36
			c-5.52,0.77-11.56,0.82-15.95-4.83c-2.21-2.84-2.52-8.45-8.32-7.57c-3.89-5.44,4.24-2.87,3.96-5.9c0.69-0.02,1.38-0.04,2.07-0.06
			c4.64-0.45,7.52,2.89,10.87,5.12C183.67,297.21,185.6,298.9,188.22,296.67z"/>
		<path class="st71" d="M128.82,405.31c2.1,0.67,4.83,0.73,6.19,2.12c6.15,6.27,11.85,3.44,17.68-0.22
			c1.07,0.99,1.37,2.24,1.23,3.63c-0.41,2.18-1.13,4.27-2.03,6.3c-1.93,2.87-3.36,6.19-6.84,7.7c-1.81,3.64-3.95,6.95-8.2,8.16
			c-1.72-5.32-9.81-9.16-2.22-16.72C137.23,413.71,128.63,410.33,128.82,405.31z"/>
		<path class="st72" d="M142.81,233.36c3.69,2.42,7.12,5.06,7.9,9.81c-0.67,1.7,1.31,5.42-2.93,4.44
			c-5.69-1.33-11.74-2.25-16.77-4.95c-3.78-2.03-3.8-6.53,0.67-9.11c1.9-1.09,4.3-1.31,6.47-1.92
			C140.03,231.35,141.68,231.64,142.81,233.36z"/>
		<path class="st73" d="M142.81,233.36c-1.64-0.34-3.62,0.24-4.65-1.73c-2.53-4.4-16.61-4.38-5.4-14.03
			c2.82-0.13,5.06-2.55,8.04-2.01c0.93,0.06,1.87,0.12,2.8,0.19c-2.61,5.42,1.56,10.11,1.64,15.24
			C144.42,231.79,143.62,232.58,142.81,233.36z"/>
		<path class="st74" d="M146.74,282.87c-6.81,5.16-5.98-2.95-8.13-5.08c-2.43-2.41-1.04-4.52,2.62-4.95
			c5.11-0.59,10.18-1.52,15.27-2.3c0,0,0.14,0.56,0.14,0.56C160.17,280.74,150.81,279.59,146.74,282.87z"/>
		<path class="st75" d="M166.6,330.26c2.82,0.16,5.36-0.68,7.73-2.12c5.54,4.52,2.31,8.35-1.22,11.77
			c-2.52,2.44-5.89,3.71-9.22,4.85c-2.67-0.36-4.88-1.92-7.35-2.84C157.23,335.74,163.07,333.99,166.6,330.26z"/>
		<path class="st76" d="M134.8,385.43c3.53-3.33,5.96-3.6,6.18,2.22c-0.23,3.49-4.18,3.44-5.7,5.08c0.86,4.25,5.9-0.43,5.79,3.59
			c-0.04,1.43-2.02,3.31-3.56,4.12c-5,2.62-3.42-4.53-6.67-4.75c-0.57-2.26-1.14-4.52-1.71-6.78
			C130.75,387.32,131.33,384.03,134.8,385.43z"/>
		<path class="st77" d="M146.17,262.77c-2.62,4.04-6.81,4.99-10.39,5.18c-4.05,0.22-4.74-3.93-4.65-7.17
			c0.13-4.6,3.67-3.99,6.43-3.07C140.69,258.75,144.81,258.66,146.17,262.77z"/>
		<path class="st78" d="M140.8,215.58c-2.47,1.5-4.1,6.35-8.04,2.01c3.41-6.61,2.29-15.49,10.03-19.93
			C148.01,204.29,138.36,209.27,140.8,215.58z"/>
		<path class="st79" d="M154.86,357.82c-5.26,1.15-10.52,2.3-15.77,3.44c0.53-5,3.24-8.53,7.43-11.08c2.95,1.53,4.91,4.43,8.01,5.75
			C154.7,356.55,154.81,357.18,154.86,357.82z"/>
		<path class="st79" d="M156.55,341.92c2.75-1.41,4.86-0.97,6.05,2.09c-0.34,1.93,1.26,3.95-0.29,5.81
			c-1.55,1.48-2.28,5.41-5.52,1.84c-1.7,0.85,0.93-3.51-2.27-1.69c-3.42,1.95-6.02,0.82-5.57-3.82
			C151.51,344.79,153.2,341.88,156.55,341.92z"/>
		<path class="st80" d="M146.74,282.87c2.03-4.99,10.63-4.48,9.9-11.77c4.52,3.98,7.85,7.94-0.11,11.8c0,0-0.9-0.09-0.9-0.09
			s-0.89,0.15-0.89,0.15C152.08,282.93,149.41,282.9,146.74,282.87z"/>
		<path class="st75" d="M148.96,346.16c1.18,1.86,1.8,4.31,5.1,2.71c2.39-1.16,2.8-0.57,2.73,2.8c-1.99,0.77-2.04,2.56-2.27,4.27
			c-3.06-1.37-7.07-1.43-8.01-5.75C146.77,348.5,147.01,346.81,148.96,346.16z"/>
		<path class="st81" d="M134.8,385.43c-1.89,1.16-3.79,2.32-5.68,3.48c-0.74-3.35,1.35-6.11,1.92-9.18
			C135.16,379.75,134.88,382.66,134.8,385.43z"/>
		<path class="st82" d="M275.12,434.58c-5.09,5.76-6.97,13.94-13.85,18.35c-11.04-0.87-19.86-10.47-18.95-20.62
			c4.55-1.03,8.18-3.03,5.45-8.37c-1.57-3.07,5.02-6.81-1.44-9.38c-2.95-1.17-3.32-5.33-4.4-8.37c-0.97-5.43-5.5-9.03-7.26-14.05
			c-3.44-6.39-7.32-12.29-15.09-14.05c-2.68-2.87-2.6-4.99,1.64-5.96c2.56-0.21,4.97,0.83,7.3,1.18
			c-2.66-7.48-3.51-15.26-6.43-22.44c0.62-1.98,0.86-3.96-0.33-5.85c-2.4-3.42-6.27-5.45-8.54-8.99c-0.63-0.61-1.22-1.24-1.83-1.87
			c-1.81-2.64-7.96-4.51-4.18-8.12c3.13-2.99,7.18,0.72,9.75,3.75c-0.74-1.83-1.06-3.85-0.28-5.93c7.53-7.86,7.84,1.11,10.59,4.48
			c7.15,3.35,7.25,10.76,9.78,16.77c1.53,1.63,3.15,3.2,3.76,5.46c0.26,5.11,1.2,9.36,7.52,10.61c4.78,0.94,5.79,5.38,6.79,9.67
			c1.49,6.42,3.51,12.71,11.92,12.95c6.09,2.42-0.39,6.6,1.39,9.64c1.37,2.55,3.65,4.76,3.95,7.63c0.56,5.42,4.35,5.45,8.27,5.56
			c2.4,1.29,2.84,3.57,3.03,5.97C282.39,420.53,278.32,427.39,275.12,434.58z"/>
		<path class="st83" d="M346.04,472.36c-4.83,2.04-7.94-1.15-11.27-3.67c-2.51-2.8-0.73-5.21,0.97-7.61
			c-4.49-0.27-8.6,0.69-12.75,1.32c-4.46-2.62-9.04-5.11-11.88-9.7c-0.53-5.96,5.18-5.39,8.1-7.75c2.15-1.45,4.63-2.45,6.24-4.63
			c2.19-5.95,0.37-11.78-0.44-17.65c-0.53-7.18,5.18-9.48,9.86-12.59c6.87-2.23,9.36,1.18,10.6,7.45
			c3.27,16.52,9.13,21.67,25.32,23.06c2.2,0.52,4.05,1.5,4.92,3.76c0.05,8.97-6.18,9.98-13.01,10.22c-2.7,0.48-7.51-5.15-7.65,2.68
			c-0.31,1.32-0.84,2.52-1.66,3.59C348.74,463.28,350.92,470.07,346.04,472.36z"/>
		<path class="st84" d="M275.12,434.58c-1.04-8.06,3.8-14.37,6.41-21.33c1.92-3.38-0.22-10.34,7.57-8.54
			c1.84,1.11,2.93,2.81,3.71,4.74c1.23,5.79,1.96,11.69,3.83,17.35c0.17,1.56-0.14,2.99-1.21,4.2c-0.04,2.3-0.16,4.61-0.12,6.91
			c0.14,6.79,0.88,13.02-9.62,13.07c-9.88,0.05-10.79-5.06-10.28-12.46C275.5,437.22,275.22,435.89,275.12,434.58z"/>
		<path class="st85" d="M235.77,470.41c-1.32,0.61-2.65,1.22-3.97,1.83c-1.62-0.61-3.12-1.69-3.02-3.4
			c0.41-6.57-3.04-1.86-4.89-1.76c-4.68-4.07-8.16,1.97-12.44,1.48c-3.26-3.67-6-7.76-8.35-12c-2.91-5.24-3.73-10.57,2.43-14.51
			c1.41-0.58,2.82-0.6,4.21,0.06c2.53,0.74-1.25,4.67,2.03,4.42c1.03-0.08,2.94,2.14,4.24-1.25c3.38-8.79,11.12-8.43,18.82-7.27
			c10.33,6.37,10.54,9.31,1.33,18.47c-3.06,3.16-5.75-1.23-8.8-0.57c3.33,3.9,6.95,1.46,10.48,0.8
			C241.93,462.02,239.91,466.37,235.77,470.41z"/>
		<path class="st86" d="M235.87,456.68c2.83-6.23,8.79-12.82-2.06-17.44c1.53-3.98-5.24-2.88-4.07-6.63
			c2.41-2.24,5.58-2.83,8.56-3.67c3.12-0.89,5.73-0.48,5.26,3.83c1.11,6.43,6.35,10.45,9.93,15.2c1.16,1.54,4.42,4.53,7.79,4.97
			c-0.87,2.46-2.72,3.53-5.23,3.63c-0.32,0.01-0.64,0.06-0.96,0.03c-5.89-0.57-9.91,1.15-9.79,7.95c-3.29,1.77-4.86,6.3-9.52,5.87
			c0.04-4.59,4.84-9.16,0.05-13.77L235.87,456.68z"/>
		<path class="st87" d="M174.45,470.37c0.96-3.11,0.98-7.14,6.09-6.16c2.53-3.55,7.51-3.73,10.06-7.28c6.88-3.53,9.85,1.27,12.87,6
			c0.25,10.54-7.97,10.45-14.99,11.87C183.25,475.09,179.38,471.06,174.45,470.37z"/>
		<path class="st88" d="M295.43,431c-0.15-1.34-0.31-2.68-0.46-4.02c2.73-1.27,4.51,0.49,5.57,2.37c3.9,6.94,8.06,6.01,12.63,0.81
			c3.2-1.11,5.31,0.64,7.28,2.76c1.66,2.84,5.18,3.49,7.14,5.99c0.39,1.36,0.55,2.68-0.65,3.77c-2,1.35-3.99,2.71-5.99,4.06
			c-7.37,2.67-12.08-3.04-17.78-5.62C298.58,439.27,298.04,434.34,295.43,431z"/>
		<path class="st89" d="M388.47,461.24c4.44-0.96,7.99,1.35,11.67,3.18c-4.03,10.14-13.81,8.07-21.64,10.14
			c-4.06,0.38-3.26-2.44-2.45-4.36c1.92-4.52,5.68-6.91,10.48-7.65C387.21,462.17,387.86,461.74,388.47,461.24z"/>
		<path class="st90" d="M388.65,462.53c-2.47,3.36-7.65,2.53-9.86,6.54c-1.09,1.98-2.95,3.48-0.29,5.49
			c-4.25,3.26-9.17,1.23-13.77,1.74c-1.24-11.48,1.8-15.16,12.5-14.68C381.03,461.79,384.98,460.61,388.65,462.53z"/>
		<path class="st91" d="M188.48,474.8c3.9-4.63,13.32-2.86,13.6-11.68c-1.19-1.96,0.09-2.89,1.65-3.27
			c2.13-0.52,3.42,0.97,4.57,2.49c0.95,2.58,0.91,5.5,2.89,7.78c2,2.29,1.91,4.5-0.95,6.17C203,475.8,195.55,478.1,188.48,474.8z"/>
		<path class="st92" d="M210.25,476.28c4.16-4.81-6.56-6.7-2.27-11.53c1.97,0.48,2.95,2.07,4.01,3.57c0.69-0.63,1.68-1.13,2.01-1.91
			c3.51-8.31,6.7-6.78,9.8,0.23c1.35,2.36,2.87,4.68,2.01,7.62C220.64,474.93,215.44,475.61,210.25,476.28z"/>
		<path class="st93" d="M388.65,462.53c-1.64,0.06-3.34,0.42-4.92,0.13c-11.13-2.03-17.65,2.18-19,13.64
			c-2.94,0.14-5.85,0.22-5.97-3.92c-1.14-9.74,7.46-10.95,13.03-14.82c0.49,0.05,0.99,0.12,1.48,0.18c0.41,0.28,0.83,0.55,1.24,0.83
			c4.12,3.66,9.47,0.89,13.96,2.67C388.53,461.67,388.59,462.1,388.65,462.53z"/>
		<path class="st94" d="M372.97,458.63c-5.79,3.5-11.46,7.12-14.22,13.74c0,0-0.89-0.02-0.89-0.02l-0.88,0.09
			c-3.79-3.99-3.21-8.16-0.53-12.43c1.14-1.27,2.52-2.22,4.06-2.96C364.79,456.52,369.66,451.49,372.97,458.63z"/>
		<path class="st95" d="M322.98,462.39c6.51-5.23,8.38-5.31,18.33,0.04c-5.24,0.07-6.8,2.51-6.55,6.25
			C330.84,466.59,326.91,464.49,322.98,462.39z"/>
		<path class="st96" d="M245.29,464.53c1.07-4.54-5.68-7.46-2.08-13.34c2.55,6.53,9.29,1.15,12.82,5.36
			C253.23,460.26,250.71,464.34,245.29,464.53z"/>
		<path class="st97" d="M358.38,460.4c-2.59,3.77-1.44,7.97-1.39,12.05c-2.23,0.75-4.96,7.17-6.44-0.57
			c-3.35-4.59-0.47-8.01,2.16-11.47c0.09-1.13,0.19-2.25,0.28-3.38C356.94,454.73,358.72,455.87,358.38,460.4z"/>
		<path class="st98" d="M303.17,441.11c7.51-3.12,10.84,6.92,17.78,5.62c-2.36,3.49-8.45,0.86-9.84,5.96
			C306.89,449.9,304.7,445.73,303.17,441.11z"/>
		<path class="st86" d="M225.83,474.26c-2.51-2.06-4.81-4.17-2.01-7.62c0.26-4.94,4.11-5.03,7-3.95c3.92,1.47-1.84,2.99-0.64,5.04
			c0.79,1.36,1.1,2.99,1.63,4.5C229.81,472.91,227.82,473.58,225.83,474.26z"/>
		<path class="st99" d="M352.71,460.41c-0.72,3.83-1.44,7.65-2.16,11.48c-1.46,0.58-2.77,2.52-4.51,0.47c0.8-3.7,1.6-7.4,2.39-11.1
			C349.2,457.66,351.24,460.5,352.71,460.41z"/>
		<path class="st100" d="M252.41,185.96c4.55-4.96,8.03-2.57,11.24,1.62c0.5,4.87-1.23,9.56-1.12,14.39
			c-1.35,3.47-6.77,5.89-2.74,10.73c2.43,4.08,3.25,9.18,8.04,11.72c3.92,2.07,0.89,5.93,2.02,8.76c0.63,3.58,2.36,6.89,2.66,10.57
			c-0.26,2.5-0.98,4.73-3.49,5.91c-5.23-1.43-6.35-6.02-7.94-10.26c-5.38-14.31-10.31-28.82-18.6-41.83
			c-1.91-2.71-3.95-5.36-5.2-8.48c-1.44-5.21-8.12-8.47-5.7-15.12c6.7-0.77,8.49,4.97,11.59,8.85c2.24,2.8,4.07,5.91,5.88,9.49
			c-0.11,0.78,1.25-1.28,0.03-0.78C248.03,188.37,249.11,186.5,252.41,185.96z"/>
		<path class="st101" d="M297.48,194.12c-1.32,5.95-2.64,11.9-3.96,17.85c-4.48-1.63-8.62,0.89-12.96,1.05
			c-0.46-0.01-0.91-0.04-1.36-0.06c-0.9-0.18-1.71-0.55-2.46-1.07c-2.5-4.95-10.06-6.11-9.89-13.07c0.3-0.32,0.61-0.64,0.91-0.96
			c2.37,0.76,4.73,1.52,7.04,2.26c2.3-4.71-2.49-12.39,5.86-13.9C287.82,184.91,294.48,185.97,297.48,194.12z"/>
		<path class="st102" d="M252.41,185.96c-1.22,2.22-2.43,4.44-3.93,7.18c-6.51-5.34-8.77-14.24-16.06-18.64
			c-0.89,0.48-1.82,0.58-2.79,0.31c-1.35-0.73-2.32-1.79-2.91-3.21c-0.8-3.29-0.18-5.89,3.45-7.02c5.47,2.75,9.48,7.58,16.39,8.55
			C253.07,174.05,251.28,181.22,252.41,185.96z"/>
		<path class="st103" d="M230.17,164.58c-2.03,2.09-1.91,4.63-1.52,7.22c-1.12,1.89-3.02,2.25-4.96,2.54
			c-5.38-0.5-10.44-0.53-13.56,5.24c-1.06,1.96-3.2,3.32-5.85,2.83c-1.1-0.95-1.41-2.18-1.33-3.57c0.78-3.25,2.61-6.28,2.13-9.82
			c0.34-3.06,0.67-6.12,2.89-8.53C215.74,159.88,222.89,162.57,230.17,164.58z"/>
		<path class="st104" d="M188.44,175.91c-1.24,0.74-2.47,1.48-3.71,2.22c-3.89-0.96-7.04-3.22-10.04-5.74
			c-1.36-0.86-2.72-1.72-4.08-2.58c5.67-4.95,12.9-6.05,19.81-7.93c6.32-0.52,8.17,2.18,5.82,7.96
			C194.17,172.54,192.02,175.15,188.44,175.91z"/>
		<path class="st105" d="M194.03,170.47c1.98-4.19,2.55-7.8-3.61-8.58c5.85-0.47,11.71-0.93,17.56-1.39
			c0.41,3.36,0.13,6.62-1.53,9.65c-0.72,3.2-2.2,5.55-6,5.27c-2.13,1.01-2.13-4.54-5.43-1.59
			C194.07,174.67,193.32,172.03,194.03,170.47z"/>
		<path class="st106" d="M261.66,201.77c-3.32-5.29-0.3-9.69,1.99-14.19c2.57,2.94,5.86,5.61,4.1,10.27c0,0-0.21-0.14-0.21-0.14
			c-1.54,1.27-1.98,3.45-3.74,4.55C262.98,202.56,262.27,202.39,261.66,201.77z"/>
		<path class="st107" d="M437.61,422.78c-1.9-0.5-3.39-6.47-5.8-0.35c-1.33,3.37-3.44,3.12-5.69,0.76c-2.54-1.93-1.3-4.83-1.93-7.2
			c-2.76-0.63-6.48,1.2-7.76-3.04c-1.14-7.26-1.53-14.71-7.12-20.52c-1.86-1.94-2.5-4.54-0.18-6.89c0.78-0.53,1.64-0.77,2.58-0.66
			c1.57,1.91,1.57,1.91,3.33-2.25c6.4-5.51,10.36-13.72,18.82-16.96c1.43,2.41,2.12,5.02,1.99,7.83c2.67,7.89-5.11,12.47-6.07,19.21
			c-0.96,3.38-1.93,6.75-2.7,11.12c4.48-0.67,8.55-4.29,12.69-0.99C442.82,409.89,439.82,416.29,437.61,422.78z"/>
		<path class="st108" d="M399.98,343.41c3.22-1.01,5.85-2.87,7.97-5.48c4.02-1.22,5.6,2.22,7.97,4.16
			c-0.95,3.34-4.07,3.96-6.64,5.22c-5.43,2.66-8.14,7.15-6.22,12.75c1.89,5.5,6.84,5.11,11.57,3.49c1.26-0.43,2.54-0.52,3.8,0.04
			c2.52,7.59,0.36,13.39-6.66,17.33c-5.06,1.7-8.94-0.53-12.44-3.83c-3.81-3.61-7.62-7.16-12.19-9.9
			c-4.63-2.78-6.56-7.37-6.09-12.59c0.47-5.33,4.87-6.57,9.2-7.27c2.52-0.41,4.12-1.76,5.52-3.64
			C397.12,342.85,398.52,342.66,399.98,343.41z"/>
		<path class="st109" d="M418.33,363.87c-7.62,4.49-16.05,3.61-18.49-1.92c-2.61-5.93,2.11-14.47,9.72-17.52
			c2.09-0.84,4.23-1.56,6.35-2.34c4.68,2.72,7.86,6.74,10.11,11.57C424.76,358.04,424.7,363.32,418.33,363.87z"/>
		<path class="st110" d="M439.79,402.84c-5.84-0.72-9.9,3.92-15.92,5.64c0.63-6.36,1.12-11.97,4.11-17.06
			c3.65-2.67,7.4-4.73,11.95-1.96C444.27,393.96,439.1,398.37,439.79,402.84z"/>
		<path class="st111" d="M418.33,363.87c4.7-1.8,2.97-8.43,7.7-10.2c3.28,1.7,4.3,5.03,5.79,8.02c-6.29,6.47-9.36,15.41-16.39,21.31
			c-0.89,1.05-1.89,1.93-3.29,2.24c-0.66,0.19-1.31,0.39-1.97,0.58c-0.85,0.51-1.63,0.45-2.35-0.26c-0.9-3.67,2.48-4.32,4.31-6.06
			C417.24,375.49,416.4,369.14,418.33,363.87z"/>
		<path class="st112" d="M413.99,383.42c4.38-4.03,6.19-9.71,9.32-14.54c2.15-3.31,4.01-6.74,8.51-7.19
			c0.68,1.33,1.37,2.65,2.05,3.98c-5.37,6.54-10.68,13.13-17.8,17.94C415.31,384.4,414.62,384.29,413.99,383.42z"/>
		<path class="st113" d="M439.93,389.46c-3.96,0.77-7.74,2.69-11.95,1.96c0.51-6.9,7.39-11.01,7.88-17.92
			C439.74,378.18,440.06,383.76,439.93,389.46z"/>
		<path class="st114" d="M212,468.32c-2.14-0.29-3.17-1.83-4.01-3.57c-1.44-2.44-2.47-6.31-5.9-1.63
			c-3.79-1.33-5.06-9.09-11.22-4.37c-5.93-2.85-10.37-6.81-10.45-14.01c-0.57-1.84-1.66-4.21,1.77-3.92c5.44,0.46,9.59-1.5,9.68-7
			c0.13-7.46-5.4-1.9-8.2-2.82c-1.2-0.4-2.2-1.36-3.29-2.07c-5.62-5.73,0.74-6.7,3.6-9.08c2.63-0.98,5.29-1.85,8.17-1.24
			c3,1.32,4.86,3.98,7.21,6.07c5.62,4.73,7.59,10.86,6.95,17.99c-5.25,5.31-3.44,10.49,0.44,15.5
			C209.14,461.25,212.06,464,212,468.32z"/>
		<path class="st115" d="M192.41,419.04c-2.48,1.31-5,2.46-7.93,1.93c-4.51,1.8-8.52-1.45-12.86-1.23
			c-1.76,1.17-3.64,2.11-5.36,3.31c-1.14-0.01-2.28-0.02-3.43-0.03c-2.65-0.32-4.15-1.92-4.91-4.37c0.45-4.21,3.23-6.5,6.77-8.17
			c0.89-0.24,1.8-0.33,2.72-0.3c2.38,0.3,4.76-0.01,5.63-2.46c2.07-5.77,6.19-9.6,11.16-12.77c0.83-0.33,1.68-0.38,2.55-0.15
			c2.6,1.9,4.99,4.19,8.31,0.82c1.68-1.7,4.02-2,6.04,0.02c2.05,3.78,0.69,7.42-0.45,11.06c-0.78,2.2-1.75,4.31-2.91,6.34
			c-1.2,1.93-2.5,3.77-4.17,5.33C193.2,418.61,192.8,418.83,192.41,419.04z"/>
		<path class="st116" d="M180.42,444.74c3.66,4.54,8.44,8.25,10.45,14.01c-1.86,4.8-6.42,4.51-10.33,5.46
			c-3.46-7.99-13.18-6.28-18.27-11.74c2.09-2.42,6.26-2.03,7.49-5.7C172.06,439.94,176.96,445.96,180.42,444.74z"/>
		<path class="st114" d="M166.26,423.06c-0.05-3.05,2.96-3.92,4.31-5.97c5.88,2.15,7.66,6.23,5.71,12.07
			c-1.81,4.77-3.09,10.06-9.86,9.99C166.73,433.71,168.93,428.36,166.26,423.06z"/>
		<path class="st117" d="M158.76,419c1.36,1.34,2.72,2.68,4.08,4.03c-0.17,5.35-0.79,11.45-7.34,4.45
			c-3.55-3.79-7.61,0.38-10.43-2.64c0.53-3.51,2.37-6.04,5.62-7.52C153.85,415.58,155.72,420.1,158.76,419z"/>
		<path class="st117" d="M176.28,429.16c-0.4-4.73-3.57-8.16-5.71-12.07c5.71-2.52,8.64,4.84,13.91,3.89
			c-1.2,2.74-7.39,2.91-4.1,7.95C179.03,429.22,177.79,431.58,176.28,429.16z"/>
		<path class="st118" d="M156.5,444.33c-2.95,0.11-3.53,3.33-5.78,4.36c0.89-2.69-3.87-5.96,0.83-8.26c1.9-0.93,3.49-4.01,5.61-2.63
			C160.12,439.73,157.73,442.21,156.5,444.33z"/>
		<path class="st119" d="M375.4,444.75c-1.55-0.66-3.11-1.31-4.66-1.97c-18.14-5.9-25.83-17.74-23.79-36.6
			c1.24-3.73,1.63-7.75,3.71-11.2c0.81-1.24,1.85-2.23,3.14-2.97c2.12-1.08,4.39-1.81,6.63-2.62c1.82-0.66,3.65-1.32,5.54-1.78
			c3.03-0.52,6.01-0.7,8.61,1.39c0.36,0.95,0.54,2.25-0.27,2.68c-10.9,5.84-9.6,15.94-8.96,25.67c0.55,8.27,6.54,14.36,14.86,15.53
			c6.79,0.96,13.57,1.93,20.26-0.88c2.44-1.02,5.09-1.23,7.53,0.38c1.55,4.32-1.01,5.65-4.57,6.25c-2.23,1.27-4.47,2.53-6.7,3.8
			c-4.39,6.12-10.82,4.88-16.96,4.67C378.04,446.82,376.49,446.21,375.4,444.75z"/>
		<path class="st120" d="M403.42,438.65c1.51-1.97,3.02-3.93,4.54-5.9c0.58-3.41,1.71-6.28,6.02-5.93
			c4.65,7.6,7.95,15.33,2.22,23.89C411.55,447.1,405.77,444.68,403.42,438.65z"/>
		<path class="st121" d="M378.36,444.78c6.08-1.06,12.46,0.17,18.36-2.33c0.61,14.05,0.27,14.39-10.41,10.4
			c-2.76,1.03-5.52,1.98-8.32,0.09C376.06,450.13,376.45,447.42,378.36,444.78z"/>
		<path class="st122" d="M378.52,452.43c2.6,0.14,5.19,0.28,7.79,0.42c-3.48,2.82-6.59,6.43-11.79,5.72c0,0,0.05,0.02,0.05,0.02
			C373.53,455.03,375.64,453.49,378.52,452.43z"/>
		<path class="st123" d="M249.99,576.55c-0.63,5.23-1.15,12.01-9.57,12.51c-6.31,0.37-8.7-4.03-8.44-9.69
			c0.32-6.72,0.92-13.92,10.04-14.11C248.42,565.13,250.07,569.88,249.99,576.55z"/>
		<path class="st124" d="M95.53,510.07c-3.35-0.48-6.5-1.97-7.9-5.67c-0.49-1.3,14.19-15.93,15.62-15.46c4.16,1.35,5.97,4.74,6,8.87
			C109.29,503.17,101.4,510.25,95.53,510.07z"/>
		<path class="st125" d="M516.86,432.41c0.03,1.87-0.58,4.03-2.4,3.52c-2.95-0.82-6.78-1.34-7.71-4.92
			c-0.53-2.05,1.54-3.67,3.71-3.59C513.66,427.53,515.93,429.28,516.86,432.41z"/>
		<path class="st38" d="M166.19,215.39c-3.05,8.63-6.1,17.26-9.15,25.89c-3.71-2.69-3.28-6.92-1.15-9.27
			c4.61-5.06,1.12-8.62-0.95-12.68c1.88-3.73,1.24-8.65,5.34-11.34c3.41-1.97,5.74-5.13,3.76-8.62c-2.46-4.33-1.94-9.12-3.61-13.46
			c-0.08-3.66,2.52-3.37,4.73-2.83c2.4,0.59,1.77,3.01,2.38,4.79C170.77,197.28,168.42,206.31,166.19,215.39z"/>
		<path class="st126" d="M160.29,208c0.13,4.68-2.3,8.15-5.34,11.34c-0.27-4.6-1.12-9.29,1.99-13.39
			C158.05,206.63,159.17,207.32,160.29,208z"/>
		<path class="st127" d="M53.69,408.93c-0.82,3.22-3.51,4.16-6.63,4.03c-2.01-0.08-4.32-1.16-3.46-3.48
			c1.16-3.11,4.83-2.93,7.49-3.81C53.19,404.98,53.73,406.8,53.69,408.93z"/>
		<path class="st128" d="M166.19,215.39c-0.39-8.8,1.13-17.54,0.05-26.44c-0.66-5.43-1.38-6.67-5.81-3.04
			c-1.86-0.89-3.25-2.17-3.59-4.32c4.42,1.68,5.99-1.99,7.44-5.29c4.31,4.88,3.52,10.46,5.57,15.18c3.72-1.93,0.58-5.34,2.58-7.22
			c5.16-2.83,5.42,0.78,5.73,4.33C174.17,197.53,170.18,206.46,166.19,215.39z"/>
		<path class="st124" d="M85.67,470.47c-4.89,6.79-10.37,12.29-19.85,9.03c-3.28-4.19-4.87-8.56-0.74-13.06
			c3.82-4.17,8.22-7.89,14.32-6.58C84.84,461.02,86,465.5,85.67,470.47z"/>
		<path class="st129" d="M323.01,69.65c-6.36-8.06-3.95-15.34,1.98-22.31c4.75-1.31,9.39-1.15,11.58,3.89
			c2.3,5.3,1.5,10.83-1.7,15.72C331.87,71.52,327.67,71.82,323.01,69.65z"/>
		<path class="st130" d="M168.54,99.02c-7.4,2.07-11.83-1.66-14.57-7.86c-2.61-5.91-3.53-11.85,2.66-16.48
			c5.57-2.02,9.89,0.25,12.06,5.03C171.51,85.92,175.72,92.67,168.54,99.02z"/>
		<path class="st131" d="M427.8,413.47c-0.56,3.24-1.12,6.48-1.68,9.72c-0.7,0.63-1.39,1.25-2.09,1.87
			c-0.58-0.05-1.16-0.13-1.73-0.21C419.73,416.78,420.8,414.56,427.8,413.47z"/>
		<path class="st132" d="M368.55,57.6c0.33,3.53-1.03,6.26-3.92,8.27c-6.98,0.18-4.04-4.04-3.12-7.19
			C363.03,53.5,365.72,54.86,368.55,57.6z"/>
		<path class="st133" d="M413.97,426.82c-2.01,1.98-4.01,3.96-6.02,5.94c-8.88,1.34-17.04,5.1-26.9,2.88
			c-9.78-2.2-18.16-8.13-18.43-18.01c-0.13-4.92-0.04-9.85-0.02-14.78c0.04-7.75,5.79-10.29,11.68-12.7
			c2.01-3.48,5.14-2.95,8.3-2.34c3.89,1.85,3.43,5.16,2.62,8.42c-0.39,1.58-1.92,2.66-2.48,4.2c-4,10.88-3.98,10.88-14.07,6.56
			c-1.04,9.83,0.18,11.17,9.7,10.01c3.75-0.46,5.18,2.15,6.89,4.49c2.87,3.93,5.32,9.37,11.35,7.14c5.6-2.07,7.76-7.3,9.1-13.1
			c2.02-8.74-1.08-16.45-3.62-24.39c0.87-0.59,1.81-0.85,2.85-0.83c10.49,4.51,11.32,14.02,12.21,23.49
			c0.86,3.17,1.91,6.38-1.55,8.79C414.01,423.62,414.1,425.26,413.97,426.82z"/>
		<path class="st120" d="M415.6,422.62c0.61-3.13,1.21-6.26,1.82-9.39l0.73-0.02c1.78,2.23,2.94,0.94,4.41-0.54
			c1.9-1.91,3.86-1.86,5.24,0.8c-6.36,1.62-5.94,6.5-5.5,11.39C420.07,424.11,417.84,423.37,415.6,422.62z"/>
		<path class="st134" d="M64.91,431.23c1.93,8.72-1.61,10.77-9.38,7.64C55.64,432.64,61.51,433.44,64.91,431.23z"/>
		<path class="st135" d="M174.69,172.4c5.53-1.9,6.97,3.35,10.04,5.74c-0.87,1.38-1.73,2.76-2.6,4.14c-6.3,2.16-7.44-2.91-9.48-6.72
			C173.33,174.5,174.01,173.45,174.69,172.4z"/>
		<path class="st136" d="M172.65,175.55c3.18,2.21,5.34,5.86,9.48,6.72c-1.33,2.11-2.65,4.21-3.97,6.32
			c-2.12-1.16-1.35-6.13-5.73-4.33C170.13,181.3,173.22,178.48,172.65,175.55z"/>
		<path class="st137" d="M295.18,300.57c-0.02,5.48,0.14,10.8,8.04,9.85c4.52,6.4,2.45,12.67-0.34,18.94
			c-2.93,2.75-5.36,5.9-7.29,9.45c-12.3,7.69-19.35-1.05-26.81-8.53c-3.96-6.42-5.06-12.95-0.64-19.64
			c2.72-2.29,5.29-4.75,7.51-7.57C281.77,299.24,287.93,295.61,295.18,300.57z"/>
		<path class="st138" d="M293.41,233.35c0.85,3.89-1.6,8.39,2.15,11.76c-0.11,9.93-0.23,19.87-0.35,29.8
			c-6.07,7.06-8.96,17.13-19.22,20.23c-0.89-0.46-1.53-1.14-1.95-2.04c-1.88-6.92,3.85-11.23,5.81-16.84
			c1.27-3.64,2.6-7.27,3.96-10.89c2.41-7.82,3.9-15.8,4.89-23.91C289.08,238.32,287.97,233.77,293.41,233.35z"/>
		<path class="st139" d="M275.9,294.65c8.35-4.72,10.43-15.54,19.31-19.74c-0.01,8.56-0.02,17.11-0.03,25.67
			c-7.05-1.26-13.2,1.83-19.55,3.97C272.64,301.16,272.51,297.86,275.9,294.65z"/>
		<path class="st140" d="M301.2,330.12c1.1-6.52,2.79-12.99,2.02-19.7c7.92,0.01,15.84,0.03,23.75,0.04
			c1.19,3.97-1.68,6.22-4.11,8.08c-5.18,3.96-9.6,8.71-14.51,12.95C305.72,332.34,303.24,332.37,301.2,330.12z"/>
		<path class="st141" d="M368.49,310.87c1.32,0.77,2.64,1.54,4.35,2.53c-2.86,1.03-5.54,1.99-8.22,2.96
			c-2.26,2.39-5.26,2.44-8.2,2.48c-12.82,0.15-24.49,3.76-34.87,11.35c-0.86,0.55-1.8,0.93-2.79,1.17
			c-1.57,0.17-2.99-0.12-4.07-1.38c3.2-11.49,13.92-13.29,22.78-17.37c2.27-1.05,5.12-0.64,7.34-2.17
			C352.71,310.57,360.6,310.72,368.49,310.87z"/>
		<path class="st142" d="M344.81,310.42c-9.65,6.93-22.53,8.88-29.89,19.32c-1.9,2.13-3.87,2.05-5.89,0.19
			c2.61-9.58,14.11-11.01,17.94-19.47C332.92,310.45,338.87,310.44,344.81,310.42z"/>
		<path class="st143" d="M293.41,233.35c-1.98,9.76-3.92,19.54-6,29.28c-0.32,1.5-1.28,2.87-1.94,4.3c-4.69-5.2-2.3-11.54-2.78-17.4
			c-0.31-3.8,0.18-7.65-0.72-11.4c-9.96-7.9-4.12-17.39-2.63-26.44c4.76-1.48,9.55-4.95,14.18,0.28
			C293.48,219.1,293.45,226.22,293.41,233.35z"/>
		<path class="st144" d="M372.51,322.08c0.32,0.07,0.64,0.18,0.96,0.21c8.67,0.8,13.88,3.91,9.18,13.65
			c-3.9,1.46-4.68-2.85-7.25-3.85c-4.49-2.35-7.27,2.22-11.03,2.72c-2.97-0.34-4.73-2.32-6.25-4.61c-0.43-1.59-0.95-3.35-3.13-2.38
			c-3.04,1.36-3.54,3.83-3.61,7.13c-0.16,8.11-1.15,16.19-3.79,23.97c-5.86,0.34-11.64-0.23-17.36-1.5
			c-1.9-0.74-2.53-3.04-4.12-3.85c-4.54-2.31-5.98-0.59-4.45,4.07c0.38,3-1.53,4.94-3.23,6.99c-2.5,2.51-4.23,5.59-6.32,8.41
			c-2.84,3.74-5.99,4.09-9.46,0.86c-1.23-2.31-0.38-4.44,0.54-6.58c1.98-5.23,0.33-6.9-4.97-5.05c-4.58-3.18-2.66-6.67-0.54-10.2
			c4.43-7.38,10.27-13.59,16.2-19.74c1.49-1.32,3.72-0.77,5.23-2.05l0,0.01c15.71-4.32,30.45-13.19,47.76-9.96
			C368.86,320.68,370.75,321.13,372.51,322.08z"/>
		<path class="st145" d="M358.84,329.7c3.15-0.01,3.6,3.28,5.67,4.6c4.37-0.35,7.75-3.33,11.86-4.4c2.1,2.01,4.19,4.03,6.29,6.04
			c2.64-1.21,5.28-2.43,7.92-3.64c2.74,3.26,4.37,6.79,2.69,11.11c-0.59,0.8-1.41,1.21-2.39,1.29c-7.11-4.1-10.79-0.17-13.37,5.87
			c-1.5,3.52-1.99,7.72-6.98,8.24c-2.94-0.89-4.01-8.67-9.24-1.99c-1.77,2.27-6.09,1.42-8.92-0.93
			C348.04,344.4,350.76,333.43,358.84,329.7z"/>
		<path class="st146" d="M372.51,322.08c-14.13-0.51-27.79,1.06-40.86,7.19c-3.55,1.66-8.31,0.74-12.52,1
			c12.43-13.52,28.8-14.24,45.49-13.92C366.59,319.18,371.39,318.11,372.51,322.08z"/>
		<path class="st147" d="M392.61,343.69c0.3-3.97-3.18-7.26-2.04-11.38c9.26-4.36,9.74-3.79,9.41,11.11
			c-1.25,0.26-2.5,0.52-3.75,0.78C394.86,345.16,393.66,344.99,392.61,343.69z"/>
		<path class="st148" d="M184.02,395.74c-4.85,4.82-7.64,10.96-11.12,16.68c-1.03,1.69-4.25,1.17-6.01-0.95
			c1.36-4.05,2.63-8.13,2.43-12.48c2.21-8.85-6.22-8.62-10.34-12.06c0.76-7.44,4.24-12.83,11.55-15.37
			c9.56-9.54,20.5-6.85,31.52-3.55c0.67,0.68,1.21,1.45,1.62,2.31c0.99,3.15,1.96,6.32,1.61,9.7c-2.52,3.85-4.93,7.9-10.45,3.85
			c-3.45-2.54-6.38,3.11-9.89,0.8c-4.23-1.55-5.52-8.45-11.73-6.38c-2.19,1.61-6.41,2.9-0.49,5.34
			C178.31,385.91,182.74,389.41,184.02,395.74z"/>
		<path class="st149" d="M202.04,369.53c-10.72-2.58-21.32-3.48-31.52,2.02c3.6-4.64-0.2-11.14,3.95-15.64
			c10.54-5.2,21.43-6.27,32.73-2.86c0.93,0.15,1.74,0.53,2.46,1.14c0.9,7.42-1.46,9.13-11.67,8.43
			C202.6,362.96,205.27,364.47,202.04,369.53z"/>
		<path class="st75" d="M174.61,349.92c-3.53,0.34-3.59-5.76-7.79-4.17c0.29-7.85,8.56-3.6,11.44-7.54
			c11.66-4.02,23.55-6.18,35.91-4.14l-0.01-0.03c0.52,4.21,0.72,8.35-2.53,11.72c-5.44,3.12,2.76,4.51,0.96,7.19
			c-1.13,2.01-2.59,2.45-4.46,0.95l0.01,0.01c-5.1,0.25-8.83-3.94-13.78-4.19c-4.81-2.11-9.61-4.45-14.53-0.22
			C178.14,350.19,176.44,350.93,174.61,349.92z"/>
		<path class="st150" d="M178.29,340.27c-1.92,5.78-10.18-1.62-11.47,5.49c-1.5,1.36-3,2.71-4.51,4.07c-0.4-1.96-3.2-4.04,0.29-5.81
			c4.73-4.69,15.54-4.9,11.73-15.87c3.39-1.3,6.29-3.87,10.18-3.89C191.66,333.15,181.15,335.23,178.29,340.27z"/>
		<path class="st148" d="M174.61,349.92c1.28-0.65,2.56-1.3,3.83-1.94c5.3-1.28,10.62-1.02,15.93-0.09
			c5.5-0.07,9.42,3.46,13.76,6.02c-1.07,0.72-2.74,2.29-3.12,2.02c-10.23-7.13-20.41,1.44-30.55-0.02
			C173.52,353.89,173.07,351.88,174.61,349.92z"/>
		<path class="st115" d="M170,399.18c3.3,5.19,2.61,9.38-3.12,12.29c0,0-0.64-0.47-0.64-0.47c-4.5-1.75-8.93,3.54-13.44,0.11
			c-0.03-1.3-0.06-2.59-0.1-3.89c4.55,0.47,8.48-0.91,11.86-3.94c0.8-1.51,1.33-3.21,2.98-4.11
			C168.36,398.77,169.18,398.79,170,399.18z"/>
		<path class="st151" d="M170,399.18c-0.55,0.08-1.1,0.17-1.65,0.25c-4.91-0.84-4.38-5.4-5.88-8.57c-0.99-1.47-3.49-1.6-3.5-3.94
			c4.94,0.89,9.97,0.7,13.21,6.27C174.49,397.15,170.98,397.33,170,399.18z"/>
		<path class="st148" d="M162.47,390.86c6.03,0.07,2.38,6.76,5.88,8.57c-0.51,2.02-1.8,3.28-3.79,3.84
			C164.6,399.01,156.31,396.15,162.47,390.86z"/>
		<path class="st152" d="M225.85,330.24c-2.63-0.19-2.34-1.57-2.28-3.8c0.14-5.09-2.34-5.16-5.63-2.06
			c-6.29-2.46-14.51,4.04-19.57-4.18c1.94-1.21,3.88-2.41,5.82-3.62c-0.1-2.76,1.15-4.59,3.75-5.51c7.43,0.13,14.21-3.4,21.65-3.74
			c3.62-0.17,6.96-0.33,10.3,1.06c0.82,0.4,1.54,0.94,2.17,1.6c-3.93,7.96-0.93,14.31,4.72,20.04c-0.03,0.93-0.36,1.75-0.92,2.47
			c-6.58,0.06-13.21,0.41-18.11-5.41C227.52,326.81,227.46,329.73,225.85,330.24z"/>
		<path class="st153" d="M198.38,320.2c3.23,1.59,6.35,2.36,10.15,1.37c3.31-0.86,6.88-0.12,9.42,2.81
			c0.62,15.87-7.72-2.44-9.49,4.99c0.36,1.05,5.36,0.87,5.72,4.71c-3.51,1.99-9.52-1.68-11.09,4.86c-0.06,0.27-1.46,0.61-1.68,0.39
			c-8.1-8.56-15.39,1.76-23.13,0.94c0.15-6.08,10.43-8.25,6.22-16.02C189.13,322.9,193.76,321.55,198.38,320.2z"/>
		<path class="st154" d="M198.33,294.57c1.54-1.34-6.68-2.5-0.07-3.94c2.26-1.35,4.44-0.26,6.64,0.22c2.63,0.89,5.37,1.51,7.74,3.06
			c3.33,3.27,1.84,5.85-1.17,8.22c-5.01,2.08-3.89,10.62-11.03,10.46C200.1,306.53,205.14,299.86,198.33,294.57z"/>
		<path class="st155" d="M200.43,312.58c5.76-1.85,2.92-10.93,9.92-11.74c1.83,1.07,3.76,1.98,5.21,3.6
			c5.39,9.68-5.1,5.13-7.25,8.06c-1.37,1.36-2.73,2.72-4.1,4.08C201.68,316.43,199.85,315.63,200.43,312.58z"/>
		<path class="st156" d="M204.28,241.34c-6.58,5.21-12.59,11.49-21.83,11.82c-2.68-3.33-0.32-6.93-0.59-10.4
			c1.57-7.66,4.66-14.21,12.71-17.1C205.4,226.2,203.73,234.45,204.28,241.34z"/>
		<path class="st157" d="M221.94,252.86c-5.09-5.26-5.85-14.87-15.59-15.46c0.66-5.81,1.47-11.56,6.85-15.29
			c9.44-0.36,8.43,8.79,12.34,13.47c0.45,6.1,6.41,11.5,2.4,18.19C225.72,254.85,223.68,254.83,221.94,252.86z"/>
		<path class="st158" d="M221.94,252.86c1.97-0.05,3.94-0.11,5.91-0.16c0.6,0.72,0.8,1.53,0.62,2.44c-2.15,2.85-5.27,4.63-7.8,7.06
			c-3.89,3.53-7.63,7.24-12.14,10.02c-5.18,1.46-5.87,9.84-12.95,8.37c-0.59-0.82-1-1.7-1.25-2.67c-0.36-2.62-0.23-5.11,1.83-7.1
			C200.97,259.45,212.59,257.79,221.94,252.86z"/>
		<path class="st159" d="M212.09,224.2c-1.56,4.56-2.23,9.5-5.75,13.21c-0.69,1.31-1.38,2.62-2.06,3.93
			c-4.8-3.58,0.01-13.98-9.93-13.9c-1.76-3.21,1.28-6.79-0.78-9.99c-0.06-0.93,0.21-1.75,0.78-2.48c5.33-1.28,10.49,1.13,15.77,0.7
			c1.19,0.6,2.12,1.46,2.65,2.7C213.02,220.36,213.68,222.41,212.09,224.2z"/>
		<path class="st160" d="M196.15,270.83c0.07,2.75,0.14,5.5,0.21,8.25c-1.27,0.92-2.63,1.62-4.2,1.84c-2.08,0.24-4.12,0-6.14-0.47
			c-3.21-1.32-7.27-0.58-9.69-3.88c1.47-2.09,3.07-4.11,4.37-6.3c2.23-3.76,3.73-9.87,7.98-9.7
			C192.91,260.74,193.41,267.42,196.15,270.83z"/>
		<path class="st161" d="M188.22,296.67c-0.96,5.07-2.45,8.23-6.83,2.04c-2.71-3.84-6.64-6.15-10.8-8.1
			C177.86,288.59,182.68,293.68,188.22,296.67z"/>
		<path class="st162" d="M186.1,278.67c2.12,0.1,4.23,0.19,6.35,0.29c0.62,3.23,2.94,6.13,1.88,9.69c-1.97,0.67-3.94,1.34-5.91,2.01
			c-0.64-0.66-1.29-1.32-1.93-1.98c-2.39-1.15-3.91-3.26-5.65-5.13C179.38,278.46,182.92,278.76,186.1,278.67z"/>
		<path class="st70" d="M181.99,282.99c3.14,0.59,4.16,2.86,4.49,5.67c-7.29,1.91-13.59-1.69-13.91-7.94
			C176.38,278.72,178.59,283.3,181.99,282.99z"/>
		<path class="st163" d="M181.99,282.99c-3.98,2.69-6.37-1.16-9.43-2.27c0.42-2.14,2.17-3.07,3.77-4.15
			c3.24,0.77,7.03-1.01,9.76,2.1C184.94,280.31,180.96,279.28,181.99,282.99z"/>
		<path class="st164" d="M184,242.67c1.11,3.73-1.46,6.93-1.55,10.48c-0.67,1.32-1.33,2.63-2,3.95c-1.86-0.62-3.73-1.24-5.59-1.86
			C173.36,247.77,177.49,244.36,184,242.67z"/>
		<path class="st165" d="M194.03,170.47c0.62,3.65,5.33,0.31,6.16,3.59c2.48,2.14-4.17,2.7-0.87,4.99c0.25,1.44-0.05,2.75-0.88,3.94
			c-7.56,7.33-10.53,17.15-14.39,26.47c-1.49,3.59-2.14,7.62-5.65,10.06c-2.61,7.34-5.33,14.65-7.81,22.03
			c-1.58,4.7-1.93,11.42-8.9,3.95c-0.42-0.45-1.88,0.06-2.86,0.12c4.69-3.19,5.54-8.43,7.31-13.26
			c6.07-16.61,12.33-33.14,20.38-48.94c1.15-2.25,1.3-5,1.92-7.52C189.85,173.63,191.44,171.54,194.03,170.47z"/>
		<path class="st164" d="M178.4,219.53c2.07-10.39,6.86-19.8,11.22-29.28c1.56-3.39,2.93-8.5,8.61-8.32c4.67,2.28,3.23,5.73,1.56,9
			c-4.72,9.25-7.72,19.18-11.52,28.78c-2.8,5.57-3.5,11.83-5.65,17.61c-0.35,4.13-2.99,7-5.3,10.16c-1.96,2.68-4.97,5.36-2.93,9.41
			c-1.44,2.11-2.88,4.22-5.88,8.61c2.26-13.17,4.1-23.6,8.41-33.6C178.51,228.21,182.58,224.17,178.4,219.53z"/>
		<path class="st166" d="M174.38,256.9c-4.06-3.59-0.17-6.38,1.14-9.22c1.58-3.43,5.06-5.95,4.96-10.23
			c3.63-5.5,6.77-11.28,9.67-17.19c0.92-1.56,1.67-3.37,4.05-2.81c7.4,3.22,0.18,6.65,0.15,9.98c-5.52,3.68-8.88,8.83-10.35,15.24
			c-3.57,3.81-7.98,7.01-9.14,12.57C174.62,255.77,174.46,256.32,174.38,256.9z"/>
		<path class="st162" d="M196.45,280.36c4.23-2.8,5.93-8.52,11.44-9.83c3.58,2.13,4.24,5.55,4.14,9.31
			c-1.31,4.87-3.62,9.14-7.68,12.31c-2.34,0.72-4.19-0.52-6.09-1.52c-0.72-0.69-1.43-1.38-2.15-2.08
			C194.6,285.75,193.66,282.97,196.45,280.36z"/>
		<path class="st167" d="M196.45,280.36c-0.11,2.73-0.23,5.46-0.34,8.19c-0.59,0.09-1.18,0.12-1.78,0.09
			c-1.92-2.98-5.65-5.61-1.88-9.69c1.31,0.04,2.61,0.08,3.92,0.13C196.6,279.49,196.63,279.92,196.45,280.36z"/>
		<path class="st64" d="M152.8,411.1c4.49,0.85,8.92-6.24,13.45-0.11c-2.92,2.27-5.87,4.52-7.48,8.01
			c-4.42,7.71-5.38-1.13-8.08-1.69C150.78,415.04,150.32,412.57,152.8,411.1z"/>
		<path class="st168" d="M299.16,361.68c0.46-2.62,1.97-6.48,4.28-4.67c2.69,2.11,5.62,6.42,1.95,10.75
			c-3.67,0.6-6.44,2.46-8.45,5.62c-2.45,3.84,1.61,2.77,2.83,3.86c2.7,3.51,3.31,6.71-1.35,9.11c-4.61,0.65-6.63,3.41-6.39,7.92
			c0.19,3.52,0.47,7.03-1.63,10.17c-0.34,0.29-0.69,0.57-1.03,0.85c-5.81-0.49-5.17,5.36-7.85,7.95c-0.3-2.16,0.25-4.6-1.98-6.14
			c-8.15-4.68-8.15-4.68,0.45-13.73c0.34-3.76-0.59-7.28-1.95-10.73c-1.69-2.86-1.02-6.51-3.14-9.23
			c-4.14-5.04-2.84-10.15-0.2-15.28c4.37-2.22,5.91,1.46,7.28,4.02c3.31,6.18,7.01,5.45,11.31,1.35
			C295.25,362.88,297.46,363.08,299.16,361.68z"/>
		<path class="st148" d="M208.13,353.91c1.37-0.6,2.74-1.21,4.11-1.81c3.53-3.32,7.44-4.68,12.06-2.27
			c-0.23,0.96-0.81,2.68-0.63,2.77c10.13,4.77,0.49,17.53,11.18,22.83c-5.76,0.74-9.44,0.49-12.79-1.84
			c-3.08-2.21-6.56-2.12-10.02-1.54c-3.61,0.61-6.94,0.45-9.74-2.23c0,0-0.28-0.27-0.28-0.27c0.93-8.64-6.72-4.34-10.29-6.7
			c2.12-4.33,5.05-1.74,8.02-1.55C204.39,361.59,210.6,362.21,208.13,353.91z"/>
		<path class="st169" d="M277.48,373.61c3.25,1.98-0.32,5.67,2,7.89c-3.25,2.98-8.4,0.83-11.49,4.23
			c-10.08,0.13-14.65-3.85-15.29-15.31c-0.29-5.13-2.67-7.22-6.65-7.82c-8.64-1.29-8.8-6.18-6.18-12.66
			c3.05-2.35,5.55-1.65,6.73,1.82c1.82,5.38,6,8.07,10.69,10.36C266.25,362.05,271.43,368.6,277.48,373.61z"/>
		<path class="st170" d="M243.55,432.76c-4.59-6.07-9.03,3.81-13.6,0.13c-0.73,0.62-1.49,0.69-2.29,0.12
			c-0.7-1.81,0.08-3.46,0.55-5.15c1.06-7.08,7.69-6.4,11.39-8.98c-6.74-0.8-8.64-5.38-6.96-12.19c4.38-8.33,4.87-8.4,10.98-1.62
			c5.13,6.95,6.63,15.21,8.64,23.33C253.45,433.28,252.15,434.01,243.55,432.76z"/>
		<path class="st171" d="M255.43,363.93c-4.82-3.35-11.72-4.91-11.18-12.99c0.02-0.24-2.86-0.67-4.39-1.01c-2-0.64-3.25-2.04-4-3.94
			c3.18-6.58,10.14-7.86,17.88-3.28c5.05,2.48,6.59,9.2,12.68,10.43c4.58,4.86,3.76,8.72-2.39,10.5
			C261.26,364.45,258.29,363.26,255.43,363.93z"/>
		<path class="st172" d="M253.69,344c-6.14-1.08-12.4-3.29-17.82,1.99c-6.93-1.55,0.35-9.48-5.4-12.26
			c-0.97-0.47-3.48-1.81-4.62-3.5c0.7-1.56,0.73-5.52,1.72-4.48c5.16,5.44,12.95,2.16,18.22,6.31c5.73-0.5,8.68,2.46,9.72,7.79
			C255.46,341.47,254.98,342.91,253.69,344z"/>
		<path class="st173" d="M267.98,385.72c1.03-8.99,7.84-2.34,11.49-4.23c2.44,3.71,4.09,7.55,1.88,11.99
			c-5.09,3.1-10.23,1.97-15.38,0.17C260.13,389.37,270.9,389.27,267.98,385.72z"/>
		<path class="st174" d="M202.32,369.81c6.35,2.49,14.6-4.98,19.75,3.77c-2.92,0.1-3.57,1.26-1.67,3.59
			c-0.15,0.48-0.3,0.97-0.44,1.45c-2.49,3.27-6.11,3.22-9.7,3.28c-2.06-0.12-4.06-0.43-5.58-2.03
			C202.66,376.8,201.65,373.5,202.32,369.81z"/>
		<path class="st175" d="M265.98,393.65c5.12-0.91,10.24-0.9,15.38-0.17c0.54,1.44,1.49,2.64-0.32,4.2c-5,4.31-5,5-1.49,9.42
			c-4.26,2.55-8.44,5.01-8.51-3.31C271,399.64,267.89,396.93,265.98,393.65z"/>
		<path class="st174" d="M220.41,377.16c9.21,0.4,13.82,5.78,15.56,14.28c-2.26,2.15-4.88,2.19-7.66,1.34
			c-5.65-3.36-11.96-6.37-8.48-14.91L220.41,377.16z"/>
		<path class="st176" d="M228,391.34c2.66,0.03,5.31,0.07,7.97,0.1c2.74,4.44,7.1,7.97,7.64,13.63c-4-3.58-7.47-4.45-9.51,1.87
			c-0.41-0.13-0.82-0.25-1.24-0.37c-1.58-0.76-2.95-1.79-4.18-3.03c-1.21-1.52-2.6-4.52-1.34-4.94c6.51-2.18-0.29-4.13,0.16-6.06
			C227.67,392.14,227.83,391.74,228,391.34z"/>
		<path class="st177" d="M224.31,349.82c-4.02,0.76-8.04,1.51-12.06,2.27c-1.9-1.2-3.97-2.21-5.61-3.69
			c-0.73-0.66-0.59-2.27-0.85-3.45c1.5,0.3,3,0.59,4.5,0.89c4.23-2.86,8.74-3.65,13.6-1.83
			C224.49,345.92,227.33,347.66,224.31,349.82z"/>
		<path class="st153" d="M223.89,344.02c-4.34,2.01-9.03,1.51-13.6,1.83c1.29-3.93,2.58-7.87,3.88-11.8
			C217.41,337.37,220.65,340.69,223.89,344.02z"/>
		<path class="st178" d="M311.11,371.69c1.78-2.94,2.5-6.6,5.8-8.52c3.89,3.63,2.76,8.46,2.75,12.84
			c-0.01,7.2,2.41,13.19,7.01,18.66c4.09,4.86,8.38,7.81,15.18,5.86c3.44-0.99,8.47-2.55,7.11,4.63
			c-2.94,18.41,7.37,29.19,21.77,37.62c-16.78,0.33-26.66-8.24-27.76-25.21c-0.4-6.11-2.98-7.09-7.94-6.24
			c-11.86,2.09-16.83-6.36-22.11-14.37C308.27,388.83,306.91,380.45,311.11,371.69z"/>
		<path class="st179" d="M319.1,434.92c-1.14-2.6-3.11-3.97-5.97-4.01c-7.42-7.07-16.85-12.13-21.83-21.65
			c-1.75-0.78-1.72-2.43-1.92-3.96c0,0,0.03,0.08,0.03,0.08c1.74-1.94,3.92-3.11,6.42-3.77c2.98-0.75,5.96-0.78,8.93,0.1
			c9.23,5.36,15.22,14.07,22.33,21.62c2.57,6.47,3.14,12.92-0.15,19.34c-0.03-1.27-0.06-2.55-0.09-3.82
			C325.11,435.88,321.9,435.8,319.1,434.92z"/>
		<path class="st180" d="M327.08,423.33c-10.31-3.4-14.59-13.4-21.97-20c2.2-3.82,4.17-8.04,9.93-6.05
			c4.91,7.17,11.45,12.02,19.99,14.05c-0.02,2.21-0.82,3.86-3.25,4.12C326.68,416.01,326.5,419.43,327.08,423.33z"/>
		<path class="st181" d="M378.52,452.43c-1.32,2.05-2.63,4.1-3.95,6.16c0,0-0.8,0.09-0.8,0.09s-0.8-0.04-0.8-0.04
			c-3.77-4.85-8.41,1.77-12.35-0.93c-1.71-0.23-2.86-1.25-2.81-2.91c0.04-1.58,0.82-2.89,2.86-2.15c6.32-0.01,12.37-0.5,14.72-7.89
			c0.99,0.01,1.98,0.02,2.97,0.03C378.41,447.33,378.47,449.88,378.52,452.43z"/>
		<path class="st182" d="M360.67,452.65c-2.81,1.66-0.88,3.38-0.05,5.07c-0.75,0.89-1.5,1.79-2.25,2.68
			c-0.98-2.42-2.55-3.91-5.39-3.37c1.41-2.6-0.71-4.52-1.64-7.41C355.1,449.54,358.09,450.31,360.67,452.65z"/>
		<path class="st183" d="M291.3,409.25c7.23,7.26,18.15,10.83,21.83,21.65c-0.32,3.92-2.27,6.97-6.22,7.18
			c-3.43,0.18-5.59-2.59-6.96-5.67c-1.05-2.36-2.21-4.62-4.97-5.44C291.03,421.63,291.4,415.39,291.3,409.25z"/>
		<path class="st184" d="M227.89,432.52c0.69,0.12,1.38,0.24,2.06,0.37c1.03,2.27,6.96,1.57,3.86,6.35
			c-2.23-0.01-4.52-0.35-6.69,0.01c-7.65,1.3-9.64,4.37-7.36,14.91c-4.7-10.03-8.67-2.28-12.69-2.91c-2.55-3.97,2.07-5.69,2.6-8.65
			c-0.05-5.28,4.2-6.75,7.79-8.82c1.26-0.53,2.57-0.85,3.91-1.09C223.53,432.41,225.69,431.62,227.89,432.52z"/>
		<path class="st185" d="M217.97,434.79c-2.77,2.61-5.53,5.21-8.3,7.82c-1.12,0.02-2.23,0.05-3.35,0.07
			c-2.67-5.91-5.34-11.81-8.02-17.72c2.14-6.43,6.42-1.7,9.77-1.88C212.77,425.79,217.08,428.86,217.97,434.79z"/>
		<path class="st186" d="M235.82,456.64c-3.67,8.29-8.66,1.99-12.73,0.71c-1.84-0.58-0.63-3.42,1.14-4.65
			c1.78-1.24,3.8-3.34,5.53-0.07c1.35,2.56,3.28,3.9,6.11,4.06C235.87,456.68,235.82,456.64,235.82,456.64z"/>
		<path class="st187" d="M319.1,434.92c4.31-2.07,8.45-3.82,7.75,3.93C323.54,438.96,320.44,438.65,319.1,434.92z"/>
		<path class="st188" d="M239.66,188.04c1.39,2.57,2.78,5.14,4.17,7.71c-0.13,3.52,0.62,6.67,2.3,9.94
			c7.33,14.21,12.12,29.45,17.33,44.5c1.27,3.67,4.18,9.38-4.11,9.58c-1.32-0.71-2.27-1.74-2.76-3.17
			c0.01-5.93-3.94-10.78-3.87-14.56c-1.02-3.25-2.04-1.2-0.98-1.99c1.66,5.08,4.08,9.97,4,15.51c-12.75,0.56-15.57-9.43-19.49-18.25
			c-0.5-13.73-10-25.57-8.47-39.73c-0.11-4.36,2.44-6.54,6.3-7.65C235.94,189.33,237.22,186.93,239.66,188.04z"/>
		<path class="st189" d="M279.34,211.69c-0.49,5.4,3.36,10.62-1.31,16.4c-3.93,4.87,6.8,2.29,5.36,7.26
			c-2.79,3.29,2.1,10.8-6.13,11.1c-1.39-0.4-2.4-1.27-3.1-2.53c-0.78-1.74-1.76-3.8-1.23-5.44c1.84-5.72-3.21-3.81-5.31-5.12
			c0.89-8.64-8.63-11.98-9.97-19.48c0.46-4.87,3.26-8.64,5.87-12.51c0.25-2.42,1.71-3.5,4.03-3.65c-0.11,7.04,10.51,6.59,9.83,14.03
			c-1.26,1.16-1.76,2.69-2.12,4.29c0.46-1.55,0.92-3.11,2.11-4.3C278.02,211.71,278.68,211.7,279.34,211.69z"/>
		<path class="st190" d="M259.65,259.03c5.75-1.72,2.74-5.54,1.65-8.32c-6.47-16.43-10.68-33.81-20.3-48.91
			c-2.52-3.96,0.27-4.79,2.83-6.05c9.7,12.6,13.67,27.87,19.47,42.24c1.6,3.97,3.1,7.68,6.04,10.76c2.21,0.87,3.12,2.53,2.95,4.85
			c-1.23,4.56-4.21,7.82-7.98,10.41c-1.54,1.06-3.45,2.19-5.08,0.2C257.86,262.51,258.21,260.66,259.65,259.03z"/>
		<path class="st191" d="M271.38,253.07c-0.68-1.44-1.36-2.88-2.04-4.32c-0.64-2.29,1.07-3.76,1.92-5.53
			c1.37-1.03,2.73-1.18,4.04,0.11c0.72,0.64,1.44,1.27,2.16,1.91c7.52,4.57,7.69,8.06,0.99,20.25c-7.34,4.18-8.6-0.28-8.84-6.2
			C270.34,257.26,270.29,255,271.38,253.07z"/>
		<path class="st190" d="M239.66,188.04c-1.31,1.27-2.62,2.55-3.93,3.82c-8.99-7.59-9.92-10.62-5.69-18.47
			c0.79,0.37,1.57,0.73,2.37,1.1C233.05,179.96,238.13,183.06,239.66,188.04z"/>
		<path class="st192" d="M275.31,243.33c-1.35-0.04-2.69-0.07-4.04-0.11c-1.22-3.29-2.44-6.58-3.65-9.87
			c2.29-0.87,4.59-1.75,7.06-2.69C274.88,234.84,275.09,239.08,275.31,243.33z"/>
		<path class="st193" d="M263.51,201.36c-0.88,4.67-2.41,9.04-5.87,12.51c-4.43-5.94-2.54-9.79,4.02-12.1
			C262.26,201.57,262.88,201.43,263.51,201.36z"/>
		<path class="st194" d="M230.05,173.39c-3.57,7.83,3.69,12.35,5.69,18.47c-1.64,1.85-6.23-0.44-5.89,4.18
			c-4-0.55-7.35-3.12-11.38-3.6c-3.71-3.91-4.4-8.65-3.88-13.75c0.84-4.12,4.28-5.23,7.59-6.48c2.16-0.14,4.31-0.28,6.47-0.42
			C229.12,172.33,229.58,172.86,230.05,173.39z"/>
		<path class="st195" d="M194.2,217.46c-0.84,1.31-1.68,2.61-2.52,3.92c-2.67,1.67-5.04,2.49-5.58-1.94
			c3.52-10.67,6.25-21.68,12.54-31.22c1.65-2.51,0.16-4.23-0.41-6.29c-0.14-1.34-0.28-2.67-0.42-4c2.19-0.81,4.36-0.9,6.51,0.13
			c0.02,1.2,0.04,2.4,0.07,3.61c1.76,1.78,2.58,3.98,2.86,6.42c0.07,5.87-3.54,10.69-4.63,16.24c-1.06,5.01-3.62,8.92-8.29,11.29
			C194.23,216.23,194.19,216.84,194.2,217.46z"/>
		<path class="st196" d="M206.65,188.25c-2.66-1.54-2.51-4.05-2.27-6.59c1.51-1.2,3.77-2.09,4.41-3.64c2.65-6.5,7.39-7.41,13.38-5.8
			c-1.89,2.07-3.78,4.14-5.67,6.21C212.05,180.54,213.11,188.16,206.65,188.25z"/>
		<path class="st196" d="M204.31,178.06c-2.19,1.29-4.36,1.02-6.51-0.13c-1.09-2.45,2.38-2.09,2.39-3.87
			c3.18,0.44,3.97-2.92,6.25-3.91C209.51,173.8,206,175.68,204.31,178.06z"/>
		<path class="st197" d="M418.15,413.21c0,0-0.73,0.02-0.73,0.02c-4.05-7.37-4.06-17.08-12.7-21.79c-3.06-2.33-1.13-4.19,0.58-6.07
			c0.94-0.56,1.86-0.54,2.78,0.05c0.7,0.14,1.41,0.27,2.11,0.41c-1.11,1.88-1.2,3.55,0.64,5.15
			C417.63,396.94,418.63,404.84,418.15,413.21z"/>
		<path class="st197" d="M413.99,383.42c0.7,0.06,1.39,0.12,2.09,0.19c-0.21,0.61-0.36,1.25-0.65,1.83
			c-1.48,3.02,7.77,2.07,2.48,5.38c-3.25,2.03-5.5-1.86-5.76-5.56C412.77,384.64,413.38,384.03,413.99,383.42z"/>
		<path class="st198" d="M408.08,385.42c-0.44,0.23-0.9,0.32-1.39,0.29c-6.53,3.4-11.89,2.55-16.16-3.89
			c-2.56-3.86-6.9-6.06-9.98-9.49c-7.69-8.59-7.64-18.08-0.36-26.55c3.15-3.66,6.22-4.46,10.25-2c0.72-0.03,1.44-0.06,2.17-0.09
			c1.21,0.17,2.42,0.33,3.62,0.5c2.74,6.35-2.19,5.4-5.55,5.64c-3,0.21-6.3,0.03-7.52,3.37c-1.35,3.7,0.38,8.84,2.51,9.84
			c8,3.76,12.71,11.17,19.76,15.73c1.69,1.09,4.44,0.54,6.71,0.74C410.79,381.48,409.43,383.45,408.08,385.42z"/>
		<path class="st199" d="M413.96,359.21c-2.42-0.5-4.18-1.84-3.33-3.97c1.37-3.44,4.21-5.67,8.12-5.69c1.73-0.01,3.2,1.18,2.57,3.15
			C420.16,356.35,417.43,358.39,413.96,359.21z"/>
		<path class="st200" d="M208.15,425c-3.29,1.36-6.55-3.38-9.85-0.04c-3.95,0-4.53-3.35-5.9-5.91c0,0-0.05-0.04-0.05-0.04
			c2.28-2.13,5.05-3.08,8.09-3.39C207.24,415.29,212.36,416.34,208.15,425z"/>
		<path class="st201" d="M208.15,425c1.53-6.78-2.82-7.74-7.92-7.96c1.67-4.28-3.33-1.79-3.89-3.82c0.71-2.05,1.41-4.1,2.12-6.15
			c2.78-1.62,3.98,3.75,6.9,1.54c9.47-2.09,19.15-0.07,28.65-1.5c0,0,0.09-0.17,0.09-0.17c-3.61,11.69,9.86,8.45,14.38,16.29
			c-10-5.14-14.5,0.05-18.71,5.87c-4.23,0-8.92,2.85-12.4-2.23c1.22,2.99,5.74,3.69,4.79,7.79c-1.4,0.04-2.8,0.09-4.2,0.13
			C214.7,431.52,211.42,428.26,208.15,425z"/>
		<path class="st202" d="M204.36,409.15c-3.18,2.73-3.88-1.55-5.91-2.08c0.19-3.93,2.72-7.53,1.62-11.63
			c1.75-6.64,8.5,0.66,10.56-3.98c-3.31,0.03-8.89,4.79-9.43-3.69c1.64-4.43,5.6-6.2,9.41-8.12c3.07-0.59,6.14-1.18,9.21-1.77
			c-0.72,6.57,5.01,9.25,8.17,13.47c0,0-0.03,0.07-0.03,0.07c-3.54,4.3-10.14,4.85-12.72,10.33
			C212.11,404.92,208.57,407.52,204.36,409.15z"/>
		<path class="st203" d="M210.62,379.64c-2.78,2.64-5.55,5.29-8.33,7.93c-5.94,1.35-10.39,5.73-16,7.76
			c-0.76,0.14-1.51,0.27-2.27,0.41c-4.69-4.19-8.9-8.48-14.94-11.55c-7.45-3.78,1.5-5.43,3.07-8.11c3.8,2.92,7.14,6.59,12.22,7.44
			c2.94,0.6,4.75-0.82,6.61-2.99c0.99-1.16,4.24-2.85,4.81-0.85c3.04,10.47,6.04-1.13,8.9,0.19
			C206.67,379.79,208.64,379.72,210.62,379.64z"/>
		<path class="st204" d="M186.29,395.33c2.89-2.52,7.57-4.35,2.79-10.19c4.76,2.71,8.9,3.18,13.21,2.44
			c1.03,5.45,3.78,4.11,6.84,1.76c1.39-1.07,2.44-3.74,4.61-2c0.94,0.76,1.28,3,1,4.39c-0.47,2.35-1.84,3.12-4.81,3.25
			c-3.23,0.14-6.85-3.22-9.85,0.47c-1.22,0.38-3.18,0.4-3.54,1.18C191.65,407.04,188.99,401.29,186.29,395.33z"/>
		<path class="st202" d="M196.34,413.22c2.01,0.52,4.44-1.15,6,0.99c0.21,0.28-1.36,1.85-2.11,2.82c-2.54,0.98-4.96,2.47-7.88,1.96
			C192.65,416.37,193.93,414.4,196.34,413.22z"/>
		<path class="st205" d="M348.96,405.17c-0.47-2.7-1.82-4.11-4.78-3.36c-13.14,3.31-20.79-1.39-25.69-15.19
			c-2.75-7.75-0.56-15.67-1.58-23.44c1.41-1.88,2.83-3.77,4.24-5.65c1.43-4.7,4.46-3.66,7.63-2.11c6.49,1.37,13.32-0.02,19.68,2.44
			c1.12,5.3-2.17,11.85,4.45,15.58c0.68,0.6,1.32,1.25,1.94,1.91c4.31,4.43,7.57,9.26,6.07,15.89c-2.1,0.71-4.19,1.41-6.29,2.12
			c-4.93-6.11-6.18-14.53-12.65-19.71c-2.73-2.18-4.42-6.51-8.64-5.5c-4.63,1.1-4.68,5.83-5.76,9.52c-1.29,4.4,0.27,7.59,4.13,9.99
			c4.85,3.03,10.13,4.63,15.75,5.36c1.98,0.26,3.9,0.7,5.26,2.36C351.47,398.65,350.22,401.91,348.96,405.17z"/>
		<path class="st206" d="M352.72,395.39c-9.22,0.65-17.41-1.83-24.9-7.34c-2.95-2.17-4.88-3.66-3.43-7.83
			c2-5.73,1.22-14.45,8.1-15.52c9.03-1.41,12.08,8.77,17.1,14.16c3.09,3.31,5.45,8.95,5.05,14.51
			C354,394.04,353.36,394.71,352.72,395.39z"/>
		<path class="st207" d="M384.5,389.44c-3.4,0.24-6.8,0.47-10.2,0.71c-3.2-0.15-6.41-0.3-9.61-0.45
			c-3.93-4.71-5.09-11.78-11.97-13.98l-0.1-0.07c0.47-8.12,8.05-12.88,18.12-11.38c4.93,8.5,13.16,14.39,18.25,22.79
			C388.12,389.01,386.83,390.21,384.5,389.44z"/>
		<path class="st208" d="M352.72,375.72c8.31,0.98,11.74,6.12,11.97,13.98c-1.26,0.51-2.51,1.03-3.77,1.54
			C358.49,385.91,357.66,379.73,352.72,375.72z"/>
		<path class="st209" d="M384.5,389.44c1.32-0.62,2.65-1.25,3.97-1.87c5.66-2.32,10.7-2.56,13.72,4.05
			c8.94,10.9,9.09,26.85,0.35,36.06c-6.41,6.75-12.07,6.24-17.52-1.59c-1.82-2.61-2.11-6.28-4.89-7.66
			c-4.39-0.81-3.65,9.38-9.07,3.82c-4.79-4.92-9.29-11.11-5.17-18.34c2.65-4.65,5.51-0.65,7.59,1.67c1.5,1.67,2.52,4.39,5.33,2.87
			c2.15-1.16,1.3-3.34,0.64-5.24C377.41,397.26,386.38,395.33,384.5,389.44z"/>
		<path class="st210" d="M402.19,391.61c-3.8-3.95-8.8-3.88-13.72-4.05c-7.13-6.4-14.77-12.37-18.13-21.87
			c-0.73-1.26-1.25-2.59-1.46-4.03c0.02-1.52,0.56-2.8,1.72-3.8c5.72-2.86,3.45-10.04,7.81-13.95c4.39-3.93,7.9-7.13,12.03-0.13
			c-10.99,1.58-15.82,8.9-12.51,18.95c3.19,9.69,19.37,22.62,28.76,22.98c-1.17,1.73-2.47,3.42-1.97,5.73
			C403.87,391.5,403.03,391.55,402.19,391.61z"/>
		<path class="st211" d="M269.65,310.71c-3.36,6.38-1.6,12.66,0.32,18.95c-0.43,0.97-1.13,1.65-2.12,2.05
			c-3.57,1.1-7.09,0.94-10.56-0.46c-11.79-9.49-12.08-13.49-1.66-22.13c1.01-0.47,2.06-0.79,3.15-0.98
			C262.65,307.94,266.68,307.13,269.65,310.71z"/>
		<path class="st212" d="M269.98,329.66c1.53,0.47,3.98,0.5,4.43,1.47c4.52,9.61,12.25,8.98,20.57,6.84
			c2.62,2.01,2.48,4.64,1.69,7.42c-8.43,8.79-12.04,8.47-21.79-1.89c-2.15-4.18-4.89-8.13-5.62-12.94
			C269.5,330.27,269.74,329.96,269.98,329.66z"/>
		<path class="st146" d="M294.9,345.9c0.03-2.64,0.06-5.29,0.08-7.93c0.11-4.17,0.52-8.1,6.22-7.85c2.61-0.06,5.22-0.12,7.83-0.19
			c1.96-0.06,3.93-0.12,5.89-0.19c1.4,0.17,2.81,0.35,4.21,0.52c-1.32,0.62-2.64,1.24-3.96,1.86c-1.2,0.56,0.5,0.37-0.76,0.55
			c-9.89,1.37-16.07,5.94-15.59,16.91c0.06,1.47-1.59,2.68-3.49,2.6C293.41,350.21,294.05,348.06,294.9,345.9z"/>
		<path class="st213" d="M269.65,310.71c-3.98-0.08-7.95-0.16-11.93-0.25c-0.67-1.7,0.35-2.59,1.6-3.37
			c5.32-1.57,12.92-0.22,12.17-9.54c0.24-0.92,0.64-1.76,1.17-2.55c0.75-0.74,1.58-0.85,2.5-0.36c0,0,0.74,0.01,0.74,0.01
			c-0.09,3.3-0.18,6.6-0.27,9.9C275.7,308.59,273.89,310.82,269.65,310.71z"/>
		<path class="st214" d="M275.16,294.64l-0.69,0l-0.69,0c-5.38-8.2,0.12-16.37,0.03-24.56c0.93-2.03,2.92-3.42,3.48-5.69
			c0.98-6.38,8.24-12.69,0.18-19.15c2.52-0.19,2.96-1.41,2.35-3.77c-0.77-2.98-0.47-5.74,3.57-6.12c4.52,10.28,0.79,21.1,2.08,31.59
			C284.6,277.12,275.6,284.29,275.16,294.64z"/>
		<path class="st208" d="M370.3,361.87c0.01,1.27,0.03,2.55,0.04,3.82c-7.88-0.17-14.01,2.74-17.72,9.95
			c-9-4.16-8.75-10.47-4.16-17.79c-2.2-5.33-2.62-10.62,0.3-15.85c1.32-2.37,1.39-4.32,0.13-7.13c-2.43-5.41,4.14-12.18,10.06-10.53
			c5.6,1.57-0.29,3.53-0.12,5.35c-8.27,7.64-7.76,16.64-4.08,26.14C359.03,360.19,367.22,354.49,370.3,361.87z"/>
		<path class="st215" d="M315.04,397.28c-3.31,2.02-6.62,4.03-9.93,6.05c-3.12-0.09-6.24-0.18-9.36-0.27
			c-4.39-6.49-2.61-12.17,2.3-17.43c3.8-2.19,1.13-5.32,1.18-8.05c-0.8-3.14,0.84-4.11,3.63-4.05c3.08,0.86,6.05,1.23,8.26-1.84
			C310.35,380.54,311.54,389.08,315.04,397.28z"/>
		<path class="st216" d="M295.46,352.02c0.53-1.15,1.39-2.27,1.55-3.47c2.11-16.21,2.09-16.22,18.16-16.42
			c-2.74,8.75-11.67,12.96-15.48,21.11c-1.49,3.19-3.62,5.36-0.52,8.43c-0.84,1.67-1.15,4.39-4.02,2.01
			c-2.62-2.68-2.36-5.86-1.62-9.13C293.9,353.51,294.55,352.67,295.46,352.02z"/>
		<path class="st217" d="M302.86,373.53c-1.21,1.35-2.42,2.7-3.63,4.05c-3.96,0.82-7.42,1.63-4.75-4.72
			c2.26-5.39,5.28-7.64,10.91-5.09C304.55,369.68,303.7,371.61,302.86,373.53z"/>
		<path class="st218" d="M328.78,355.41c-2.54,0.7-5.09,1.41-7.63,2.11c-3.28,0.68-4.31-1.04-3.65-3.84
			c0.95-4.08,4.95-4.61,7.86-4.72C329.33,348.81,329.35,352.32,328.78,355.41z"/>
		<path class="st208" d="M376.36,329.9c-2.97,4.09-5.96,8.15-11.85,4.4C367.55,330.39,370.6,326.52,376.36,329.9z"/>
		<path class="st219" d="M370.3,361.87c-4.32-4.21-12.33,1.03-15.54-6.03c7.53,2.6,9.52-8.13,16.6-7.05
			c1.03,3.27-5.7,5.73-0.76,9.07C370.5,359.2,370.4,360.54,370.3,361.87z"/>
		<path class="st220" d="M184.36,383.52c-7.72,3.48-10.23-1.55-12.21-7.44C180.62,371.37,181.35,379.3,184.36,383.52z"/>
		<path class="st221" d="M194.38,347.89c-5.3,2.19-10.61,2.19-15.93,0.09C183.73,342.86,189.04,343.59,194.38,347.89z"/>
		<path class="st222" d="M269.26,330.57c6.7,1.38,4.5,7.42,6.06,11.5c1.83,2.28,2.6,4.92,2.77,7.79c-0.11,2.84-0.08,5.73-2.43,7.87
			c0.48,5.31-4.01,11.18,1.82,15.88c-7.62-2.62-13.46-9.25-22.04-9.68c1.75-1.74,3.09-4.03,6.33-2.07c3.5,2.12,4.35-2.55,6.57-3.66
			c2.32-1.16-2.78-2.4-2.97-4.65c-5.56-2.89-7.35-9.13-11.7-13.1c-0.44-4.85-5.21-5.64-7.89-8.39c0.01-0.68,0.01-1.36,0.02-2.04
			c4.01-3.61,8-1.94,12,0.03C261.62,330.23,265.44,330.4,269.26,330.57z"/>
		<path class="st223" d="M275.57,268.87c-0.6,8.59-1.2,17.18-1.79,25.77c-0.21,0.6-0.38,1.22-0.5,1.85
			c-3.68,4.96-8.67,8.43-13.63,11.93c-0.64,0.68-1.28,1.36-1.93,2.04c-0.58,0.19-1.17,0.29-1.78,0.3
			c-4.67,1.85-9.34,3.84-13.97-0.08c-0.76-0.12-1.51-0.23-2.27-0.35c-0.54-0.78-0.66-1.61-0.29-2.5
			c4.27-5.19,11.02-7.39,15.29-12.59c5.6-5.62,11.86-10.73,14.46-18.65C269.71,272.71,265.65,264.98,275.57,268.87z"/>
		<path class="st224" d="M241.97,310.68c4.66,0.03,9.31,0.05,13.97,0.08c-10.4,7.49-3.53,13.32,1.85,19.3c-4-0.01-8-0.02-11.99-0.03
			C233.76,320.67,233.72,320.47,241.97,310.68z"/>
		<path class="st225" d="M239.81,308.4c-0.04,0.64-0.07,1.29-0.11,1.93c-8.21-0.84-16.36-2.45-23.45,4.25
			c-2.39,2.25-4.84-2.83-7.95-2.08c-0.26-4.07,10.39-0.31,5.54-7.68c0.13-3.73,1.88-6.25,5.52-7.34c4.34,0.36,8.41,2.73,12.95,1.82
			C236.84,300.67,239.59,303.5,239.81,308.4z"/>
		<path class="st226" d="M220.11,298.4c-2.09,2.14-4.18,4.28-6.27,6.42c-2.3-0.34-3.47-1.67-3.49-3.99
			c2.39-1.55,4.23-3.26,1.74-6.18c-3.38-4.29-0.47-9.39-1.8-13.94c-0.8-3.4-1.6-6.79-2.4-10.19c4.06-3.38,8.13-6.77,12.19-10.15
			c3.71,0.1,6.64,2.66,10.22,3.17c1.9,0.6,3.78,1.24,5.51,2.2c8.7,4.78,9.02,7.38,1.65,14.44c-1.45,1.39-2.66,2.9-3.69,4.59
			C230.15,290.24,226.83,296.02,220.11,298.4z"/>
		<path class="st227" d="M210.29,280.71c4.01,4.21,1.83,9.21,1.8,13.94c-2.58-0.83-5.16-1.67-7.74-2.5
			C204.52,287.4,208.04,284.39,210.29,280.71z"/>
		<path class="st228" d="M227.76,255.02c0.03-0.77,0.06-1.54,0.08-2.32c-0.26-6.04-5.72-10.84-4.12-17.31
			c0.89-1.15,2.11-1.55,3.5-1.59c3.64-1.51,3.8,6.48,8.2,2.98c0.85,0.38,1.47,0.98,1.86,1.83c1.31,2.63,1.82,5.65,3.79,7.93
			c4.68,5.43,3.11,9.34-2.89,12.27C234.17,259.03,229.4,261.29,227.76,255.02z"/>
		<path class="st229" d="M228.04,235.37c-1.44,0.01-2.87,0.02-4.31,0.03c-5.57-2-2.49-12.92-11.64-11.2
			c-0.25-1.64-2.72-3.17-0.24-4.94c2.69-4.36,1.93-8.86,0.52-13.39c-0.57-2.23-1.8-4.46,0.02-6.67c5.87-1.33,7.9,2.28,9.07,7
			C222.5,216.17,225.9,225.63,228.04,235.37z"/>
		<path class="st230" d="M227.76,255.02c3.56,3.58,8.11,1.18,12.12,2c4.8,3.67,3.34,6.51-1.54,7.92c-2.55,0.74-5.56,1.74-8.33,0.05
			c-4.09,0.13-8.08,0.03-9.94-4.62C221.97,257.63,224.13,255.27,227.76,255.02z"/>
		<path class="st231" d="M194.32,215.62c2.2-3.94,5.86-7.16,6.03-12.11c3.19-1.95,5.66-0.45,8.01,1.65c2.39,2.15-4.51,7.31,2.7,8.2
			c0.83,0.1,0.35,2.91-0.95,4.15C204.64,218.59,199.5,216.97,194.32,215.62z"/>
		<path class="st232" d="M210.11,217.51c0.44-4.1-7.98-6.57-2.16-11.66c0.88-0.57,1.89-0.71,2.69-0.11
			c1.94,1.45,3.08,1.38,3.75-0.46c0.03,4.82,6.07,10.72-2.53,13.98C211.27,218.67,210.69,218.09,210.11,217.51z"/>
		<path class="st233" d="M186.1,219.44c1.3,2.24,3.5,1.92,5.58,1.94c-2.46,6.24-6.03,11.72-11.2,16.07
			C182.22,231.41,182.38,224.87,186.1,219.44z"/>
		<path class="st234" d="M275.66,357.73c-0.02-2.63-0.03-5.25-0.05-7.88c1.31-0.56,2.87-0.45,3.61,0.51c4.4,5.74,10,5.37,16,3.47
			c-0.02,3.29-0.05,6.57-0.07,9.86c-7.82,10.11-8.89,10.09-15.14-0.81C278.84,360.86,277.79,358.88,275.66,357.73z"/>
		<path class="st235" d="M298.05,385.63c-0.54,5.84-3.23,11.4-2.3,17.43c-1.53,2.37-4.04,2.04-6.34,2.31
			c0.02-4.4-0.51-8.88,0.2-13.17C290.31,388,290.33,381.48,298.05,385.63z"/>
		<path class="st236" d="M222.17,434.66c-1.06-4.25-9.04-5.06-5.02-12.85c0.64,10.28,9.4,2.59,12.63,7.29
			c-0.63,1.14-1.26,2.28-1.89,3.42C226.2,433.81,224.46,434.99,222.17,434.66z"/>
		<path class="st237" d="M253.67,340.45c7.03,1.59,8.52,8.1,11.7,13.11c-8.86,2.86-6.82-7.55-11.68-9.55
			C253.69,342.82,253.68,341.63,253.67,340.45z"/>
		<path class="st170" d="M204.36,409.15c1.68-4.55,5.66-6.25,9.74-7.82c5.71-3.51,10.26,4.07,15.86,1.66
			c2.41,0.34,4.46,1.03,4.05,4.12c-4.05,3.01-7.51,8.08-13.26,1.76c-1.84-2.02-5.82-0.37-7.89,1.48
			C209.21,413.61,206.79,412.37,204.36,409.15z"/>
		<path class="st238" d="M229.96,402.99c-1.68,3.22-3.46,5.36-7.24,2.07c-2.38-2.07-5.31-3.47-8.61-3.73
			c1.09-8.21,8.18-8.09,13.86-9.92C234.56,394.25,227.24,399.48,229.96,402.99z"/>
		<path class="st239" d="M230.02,264.99c2.74-3.33,13.32,2.99,9.87-7.97c1.02-3.29,3.76-6.15-0.56-9.82
			c-2.29-1.95-2.39-6.47-3.48-9.84c0.84-0.98,1.7-0.99,2.58-0.04c3.42,8.16,7.72,15.46,17.18,17.81c1.17,0.13,1.45,1.25,2.13,1.92
			c0.64,0.66,1.27,1.33,1.91,1.99c0.98,1.29-2.02,7.28,3.38,3.21c3.25-2.45,5.6-6.08,8.36-9.17c-0.09,2.15-0.18,4.29-0.27,6.44
			c-0.79,1.4-1.24,2.99-2.04,4.34c-3.12,5.22-0.8,9.22,2.62,13.05c-3.06,8.34-8.58,14.71-15.82,19.71
			c-3.02-6.37,0.64-12.85-0.27-19.31c-0.21-1.47,0.17-2.24-1.63-1.96c-7.15-1.57-7.14,4.28-8.8,8.4c-3.08,1.71-6.55,1.79-9.9,2.4
			c-1.58-0.04-3.01-0.4-3.87-1.9c0.36-0.9,0.51-2,1.12-2.68C241.26,271.81,241.28,271.83,230.02,264.99z"/>
		<path class="st240" d="M238.43,237.32c-0.86,0.01-1.72,0.03-2.58,0.04c0,0,0.01-0.19,0.01-0.19c-5.63-2.64-10.12-6.08-9.47-13.2
			c1.5-10.39-2.58-18.58-10.09-25.41c-2.01-3.65,0.59-4.95,3.19-6.25c5.43-4.22,7.71,0.27,10.36,3.74
			C228.78,210.62,238.56,222.94,238.43,237.32z"/>
		<path class="st190" d="M257.74,257.05c-0.71-0.64-1.42-1.28-2.13-1.92c-2.37-4.95-5.28-9.79-3.1-16.59
			C255.48,244.9,257.87,250.58,257.74,257.05z"/>
		<path class="st190" d="M246.92,225.61c-3.44-2.77-4.74-6.33-4.69-11.42C247.01,217.47,245.94,221.95,246.92,225.61z"/>
		<path class="st241" d="M277.36,211.73c0.16,3.45,1.22,7.24-5,9.53c2.63-3.68-1.46-8.66,5.01-9.52
			C277.37,211.74,277.36,211.73,277.36,211.73z"/>
		<path class="st242" d="M271.69,276.91c-2.53-4-4.93,1.15-8.09-0.15c2.98-5.57-0.38-13.61,7.52-17.25c0.96,3,0.05,8.37,6.17,4.88
			c0.09,1.74,0,3.42-1.72,4.47C265.76,267.45,274.77,275.09,271.69,276.91z"/>
		<path class="st243" d="M219.49,192.31c-1.16,1.77-2.32,3.54-3.47,5.31c-0.7,1.63-3.09,0.77-3.71,2.51
			c0.7,1.72,1.39,3.43,2.09,5.15c-1.18,11.01-4.53-2.3-6.43,0.57c-2.53-0.78-5.06-1.56-7.59-2.33c2.1-5.09,4.19-10.17,6.29-15.26
			c4.63-1.93,2.83-10.28,9.86-9.82C216.22,183.33,217.72,187.85,219.49,192.31z"/>
		<path class="st244" d="M346.31,385.64c-0.36,1.73-1.88,2.11-3.53,2.08c-1.77-0.03-3.31-0.87-3.08-2.77
			c0.25-2.06,1.67-3.62,3.96-3.05C345.2,382.28,346.39,383.5,346.31,385.64z"/>
		<path class="st245" d="M386.25,413.3c-3.39-3.8-2.76-7.83,1.58-9.34c3.73-1.3,8.52-4.63,12.42,0.41c2.21,2.86,3.32,6.77,0.3,8.69
			c-4.23,2.69-9.46,6.64-14.28,0.25c1.78-2.99,6.11-1.51,8.36-4.51C390.11,407.84,388.66,411.41,386.25,413.3z"/>
		<path class="st246" d="M295.21,353.83c-9.25,11.99-13.57-0.21-19.6-3.98c-0.09-2.6-0.19-5.19-0.29-7.79
			c5.95,4.17,11.19,12.01,19.57,3.83c0.19,2.04,0.37,4.08,0.56,6.12C295.37,352.62,295.29,353.23,295.21,353.83z"/>
		<path class="st247" d="M259.65,308.42c2.85-5.9,7.53-9.73,13.63-11.93C273.47,308.55,273.47,308.55,259.65,308.42z"/>
		<path class="st248" d="M254.11,275.27c2.05-1.11,1.63-4.48,5.33-5c-3.38,8.71,0.36,17.92-3.57,26.34
			c-4.25,5.42-10.36,8.32-16.06,11.78c-2.65-2.68-5.29-5.37-7.94-8.05c-0.83-5.78,6.33-9.69,3.76-15.89
			c3.01-2.7,6.64-1.67,10.1-1.66C248.05,279.77,250.45,276.82,254.11,275.27z"/>
		<path class="st249" d="M235.63,284.47c7.55,7.37-1.55,10.82-3.76,15.89c-4.85,4.96-8.16,0.62-11.76-1.95
			c3.77-4.72,7.53-9.43,11.3-14.14C232.82,284.33,234.22,284.4,235.63,284.47z"/>
		<path class="st250" d="M228.04,223.55c-1.23,6.74,5.55,8.9,7.82,13.63c-4,5.37-5.12-1.63-7.82-1.81
			c-6.68-8.09-7.89-17.71-7.75-27.71C229.68,209.65,226.94,217.53,228.04,223.55z"/>
		<path class="st251" d="M228.04,223.55c-4.04-4.58,0.14-13.16-7.75-15.88c-1.62-3.61-2.75-7.75-7.99-7.54
			c0.4-2.07,2.09-2.25,3.72-2.51C225.49,202.04,231,213.92,228.04,223.55z"/>
		<path class="st252" d="M254.11,275.27c-1.37,4.09-3.65,7.17-8.38,7.53c-0.91-2.15-5.96-3.97-0.93-6.59
			C247.57,274.76,250.51,270.15,254.11,275.27z"/>
		<path class="st253" d="M386.25,413.3c0.3-2.19-0.29-4.69,1.7-6.35c2.77-2.32,6.02-2.13,9.18-1.1c1.64,0.54,2.65,2.16,2.16,3.86
			c-1.05,3.63-4.3,3.35-7.18,3.51c-1.94,0.11-3.89,0.07-5.84,0.1C386.26,413.31,386.25,413.3,386.25,413.3z"/>
	</g>
</g>
</svg>
