<?xml version="1.0" encoding="utf-8"?>
<!-- Generator: Adobe Illustrator 25.0.1, SVG Export Plug-In . SVG Version: 6.00 Build 0)  -->
<svg version="1.1" id="Calque_1" xmlns="http://www.w3.org/2000/svg" xmlns:xlink="http://www.w3.org/1999/xlink" x="0px" y="0px"
	 viewBox="0 0 1059 610" style="enable-background:new 0 0 1059 610;" xml:space="preserve">
<style type="text/css">
	.st0{fill:#BADEEA;}
	.st1{fill:#ECC895;}
	.st2{fill:#4A3F30;}
	.st3{fill:#B1AE78;}
	.st4{fill:#252526;}
	.st5{fill:#1D1C1B;}
	.st6{fill:#130F0C;}
	.st7{fill:#131111;}
	.st8{fill:#121010;}
	.st9{fill:#141313;}
	.st10{fill:#C99E70;}
	.st11{fill:#343738;}
	.st12{fill:#191718;}
	.st13{fill:#171516;}
	.st14{fill:#1B1A1A;}
	.st15{fill:#181617;}
	.st16{fill:#444443;}
	.st17{fill:#1B1919;}
	.st18{fill:#191818;}
	.st19{fill:#1D1B1C;}
	.st20{fill:#F9F8F7;}
	.st21{fill:#292C2C;}
	.st22{fill:#2F3232;}
	.st23{fill:#171616;}
	.st24{fill:#1F1D1E;}
	.st25{fill:#3B3E3F;}
	.st26{fill:#242223;}
	.st27{fill:#2C2E2E;}
	.st28{fill:#222020;}
	.st29{fill:#161415;}
	.st30{fill:#1E1C1D;}
	.st31{fill:#1E1D1D;}
	.st32{fill:#1C1A1B;}
	.st33{fill:#363C3D;}
	.st34{fill:#1A1818;}
	.st35{fill:#1B191A;}
	.st36{fill:#222021;}
	.st37{fill:#1A1819;}
	.st38{fill:#1C1B1B;}
	.st39{fill:#161515;}
	.st40{fill:#201E1F;}
	.st41{fill:#1D1C1C;}
	.st42{fill:#1E1C1C;}
	.st43{fill:#353738;}
	.st44{fill:#3F4142;}
	.st45{fill:#252323;}
	.st46{fill:#232121;}
	.st47{fill:#3E4142;}
	.st48{fill:#3F4244;}
	.st49{fill:#72786C;}
	.st50{fill:#171515;}
	.st51{fill:#313030;}
	.st52{fill:#1C1C1C;}
	.st53{fill:#333636;}
	.st54{fill:#4A4E4F;}
	.st55{fill:#505253;}
	.st56{fill:#313638;}
	.st57{fill:#2C2B2A;}
	.st58{fill:#282626;}
	.st59{fill:#1B1D1E;}
	.st60{fill:#333131;}
	.st61{fill:#3F3D3D;}
	.st62{fill:#575A5B;}
	.st63{fill:#4F4D4D;}
	.st64{fill:#504E4F;}
	.st65{fill:#464543;}
	.st66{fill:#424140;}
	.st67{fill:#1E1B16;}
	.st68{fill:#FCED11;}
	.st69{fill:#2F2A22;}
	.st70{fill:#C7BE88;}
	.st71{fill:#E0E589;}
	.st72{fill:#F9F5EE;}
	.st73{fill:#13100C;}
	.st74{fill:#E1E686;}
	.st75{fill:#E4D629;}
	.st76{fill:#EAE56A;}
	.st77{fill:#2D3435;}
	.st78{fill:#D6E3A3;}
	.st79{fill:#E2DB5B;}
	.st80{fill:#CAE1C0;}
	.st81{fill:#E6DC47;}
	.st82{fill:#181715;}
	.st83{fill:#454F53;}
	.st84{fill:#262C2D;}
	.st85{fill:#AAA29B;}
	.st86{fill:#1F201F;}
	.st87{fill:#363E3F;}
	.st88{fill:#212626;}
	.st89{fill:#948379;}
	.st90{fill:#E8DA28;}
	.st91{fill:#4A5659;}
	.st92{fill:#855938;}
	.st93{fill:#B9B5A9;}
	.st94{fill:#CDCABF;}
	.st95{fill:#784E31;}
	.st96{fill:#6A402A;}
	.st97{fill:#E4E57D;}
	.st98{fill:#CDAC86;}
	.st99{fill:#D8E49E;}
	.st100{fill:#C9E1C2;}
	.st101{fill:#4E4F45;}
	.st102{fill:#906743;}
	.st103{fill:#676A5D;}
	.st104{fill:#D2D6D9;}
	.st105{fill:#A9AC71;}
	.st106{fill:#A5AA70;}
	.st107{fill:#829053;}
	.st108{fill:#ADB270;}
	.st109{fill:#E2E583;}
	.st110{fill:#D7E3A1;}
	.st111{fill:#CAE1BE;}
	.st112{fill:#909B67;}
	.st113{fill:#FDFBF8;}
	.st114{fill:#B9876C;}
	.st115{fill:#CCB58F;}
	.st116{fill:#9E7350;}
	.st117{fill:#D9B287;}
	.st118{fill:#D5B095;}
	.st119{fill:#ABA79E;}
	.st120{fill:#929083;}
	.st121{fill:#79807A;}
	.st122{fill:#8E9F9B;}
	.st123{fill:#797F73;}
	.st124{fill:#463D37;}
	.st125{fill:#383028;}
	.st126{fill:#989D98;}
	.st127{fill:#D8D0BB;}
	.st128{fill:#BBDEEA;}
	.st129{fill:#BBDFEB;}
	.st130{fill:#F5F4F2;}
	.st131{fill:#F3F3F2;}
	.st132{fill:#F6F5F4;}
	.st133{fill:#DDDCDC;}
	.st134{fill:#FAF9F8;}
	.st135{fill:#E8E8E8;}
	.st136{fill:#E2E1E1;}
	.st137{fill:#EBEAEA;}
	.st138{fill:#E9E8E8;}
	.st139{fill:#2E2A22;}
	.st140{fill:#978378;}
	.st141{fill:#DFD024;}
	.st142{fill:#DCCE24;}
	.st143{fill:#A7C0B6;}
	.st144{fill:#ACC8C6;}
	.st145{fill:#A1BCBB;}
	.st146{fill:#D96F70;}
	.st147{fill:#B79978;}
	.st148{fill:#615853;}
	.st149{fill:#50423A;}
	.st150{fill:#B6AB35;}
	.st151{fill:#866C5F;}
	.st152{fill:#DBD3C8;}
	.st153{fill:#B6AE32;}
	.st154{fill:#8AA3A7;}
	.st155{fill:#B19376;}
	.st156{fill:#AE8163;}
	.st157{fill:#EAD8C2;}
	.st158{fill:#F4F2EF;}
	.st159{fill:#2C2921;}
	.st160{fill:#DED9CD;}
	.st161{fill:#CBCAC4;}
	.st162{fill:#96867F;}
	.st163{fill:#DBDAD5;}
	.st164{fill:#696B61;}
	.st165{fill:#B8A28E;}
	.st166{fill:#9C7753;}
	.st167{fill:#C3BB52;}
	.st168{fill:#AD8460;}
	.st169{fill:#F1E0C3;}
	.st170{fill:#F3E7D6;}
	.st171{fill:#958F2E;}
	.st172{fill:#F0E6D2;}
	.st173{fill:#8B852B;}
	.st174{fill:#66767A;}
	.st175{fill:#DEC7A5;}
	.st176{fill:#CBAD86;}
	.st177{fill:#C99C85;}
	.st178{fill:#A89B85;}
	.st179{fill:#594737;}
	.st180{fill:#86885F;}
	.st181{fill:#ACB7BC;}
	.st182{fill:#84915C;}
	.st183{fill:#C5C7C1;}
	.st184{fill:#F3ECDB;}
	.st185{fill:#80402F;}
	.st186{fill:#A56A44;}
	.st187{fill:#8C5544;}
	.st188{fill:#7E4B35;}
	.st189{fill:#8F746D;}
	.st190{fill:#161311;}
	.st191{fill:#384041;}
	.st192{fill:#1A1A1A;}
	.st193{fill:#363839;}
	.st194{fill:#474C4E;}
	.st195{fill:#6A7C7F;}
	.st196{fill:#AFA9A3;}
	.st197{fill:#8E892C;}
	.st198{fill:#B1A7A1;}
	.st199{fill:#B5AC2A;}
	.st200{fill:#B0A629;}
	.st201{fill:#839B9E;}
	.st202{fill:#7B9093;}
	.st203{fill:#986F51;}
	.st204{fill:#806959;}
	.st205{fill:#C19366;}
	.st206{fill:#605555;}
	.st207{fill:#6C7C7D;}
	.st208{fill:#694939;}
	.st209{fill:#1B1914;}
	.st210{fill:#BA9C94;}
	.st211{fill:#8D684D;}
	.st212{fill:#735A49;}
	.st213{fill:#EDE5D6;}
	.st214{fill:#B8DAE4;}
	.st215{fill:#F2F1F1;}
	.st216{fill:#EEEDEC;}
	.st217{fill:#D9B58B;}
	.st218{fill:#5B4941;}
	.st219{fill:#A69E8C;}
</style>
<g>
	<g>
		<path class="st0" d="M507.88,279.22c-4.59,3.99-0.37,8.36-0.23,12.41c1.62,45.99-7.55,89.25-32.45,128.4
			c-4.97,7.81-8.95,16.84-17.61,21.84c-2.23-4.11,0.87-7.18,2.05-10.63c2.04-3.78,3.36-7.8,4.14-12.02
			c4.83-17.99,4.35-35.76-2.18-53.27c-0.62-3.25-1.59-6.37-3.53-9.11c-8.09-11.31-15.96-22.76-27.46-31.12
			c-2.47-1.79-6.46-4.37-1.13-7.78c7.47-1.93,15.09-0.83,22.64-1.05c5.92-0.17,8.54-2.77,8.58-8.7c0.05-6.09-2.86-8.47-8.67-8.52
			c-12.32-0.09-24.63,0.12-36.96-0.08c-11.21,0.51-22.41,0.15-33.61-0.03c-12.1-0.04-24.2,0.44-36.3,0.17
			c-8.55-0.2-17.1,0.45-25.64,0.05c-4.38-0.2-9.03,0.14-11.96-4.25c-2.79-10.9-0.72-22-1.39-32.99c0.23-13.33-0.18-26.66-0.23-39.99
			c0.81-10.79-0.57-21.59,0-32.38c0.5-8.8-0.51-17.62,0.17-26.42c-0.13-5.52-0.21-11.05,0.03-16.56c0.11-2.49,0.02-5,0.05-7.51
			c0.07-5.43-0.54-10.17-7.82-10.1c-7.22,0.07-10.26,3.57-9.76,10.6c0.16,2.19-0.01,4.39,0.05,6.6c0.2,5.35,0.2,10.69,0.02,16.03
			c-0.12,5.91,0.76,11.89-1.12,17.69c-5.4,4.63-6.35-0.46-8.14-3.71c-2.43-7.15-7.21-12.47-13.25-16.81
			c-11.48-10.23-23.82-18.81-39.44-21.45c-20.23-3.41-39.76-2.24-57.94,8.37c-3.54,1.96-7.1,3.85-10.25,6.48
			c-2.31,1.92-4.66,4.48-8.23,2.36c18.37-21.55,41.96-35.9,67.82-45.86c71.81-27.65,139.76-19.12,203.17,24.53
			c13.94,9.6,25.37,22.03,37,34.18c1.46,1.52,2.14,4.15,5.02,2.22c3.35,4.07,0.55,7.96-0.69,11.63
			c-8.63,25.62-17.6,51.13-26.55,76.64c-1.83,5.21-5.47,10.29-2.98,16.35c13.44,6.38,20.13,4.57,27.25-8.08
			c3.51-6.23,8.68-9.89,15.12-12.26c16.7-2.28,20.02-0.56,27.3,14.28c1.25,2.55,2.63,4.98,4.65,7
			C508.03,277.25,508.19,278.2,507.88,279.22z"/>
		<path class="st0" d="M432.91,466.43c-14.1,15.8-31.23,27.51-50.48,35.88c-29.46,12.82-60.43,19.24-92.58,17.79
			c-34.37-1.55-67.32-9.8-96.75-27.87c-10.49-6.44-21.3-13.63-29.56-23.43c7.97-3,13.4,4.38,20.48,5
			c5.57,1.73,10.95,4.27,17.02,3.73c8.05-0.46,16.14,0.62,24.14-0.79c4.5-1.34,9.18-2.11,13.54-3.94c3.25-1.65,6.7-2.83,10-4.36
			c12.18-6.02,21.08-15.64,29.23-26.17c2.09-2.7,3.15-7.28,8.3-5.81c3.23,4.16,2.18,9.06,2.41,13.74
			c0.23,6.49,0.23,12.98,0.01,19.45c0.07,3.44,0.03,6.9,0,10.35c-0.05,5.58,1.99,8.85,8.21,8.95c6.3,0.1,9.41-2.44,9.28-8.85
			c-0.07-3.45-0.06-6.91-0.01-10.38c-0.34-7.65-0.12-15.29-0.01-22.92c0.12-4.81-0.76-9.8,2.37-14.1c1.48-1.1,2.87-0.68,4.22,0.27
			c1.49,1.28,2.49,2.96,3.59,4.55c10.7,18.39,26.4,30.38,46.77,36.37c12.62,2.8,25.24,5.53,38.24,2.62
			c8.63-2.75,17.35-5.25,25.4-9.57C428.66,465.88,430.73,465.03,432.91,466.43z"/>
		<path class="st0" d="M137.23,442.15c-15.01-13.85-24.31-31.54-32.33-49.8c-13.59-30.94-19.37-63.61-17.41-97.29
			c2.32-40.05,14.79-76.93,38.13-109.76c3.57-5.02,4.85-11.96,11.34-14.77c2.68,4.01,0.45,7.93-0.19,11.89
			c-7.27,12.67-11.12,26.22-10.59,40.91c0.12,1.43,0.16,2.86,0.23,4.29c0.88,6.93,2.45,13.7,4.8,20.28
			c2.94,9.02,7.46,17.21,13.08,24.83c5.19,6.37,11.54,11.43,17.97,16.46c2.44,1.91,6.61,3.12,5.18,7.8
			c-3.52,3.09-7.84,2.33-11.96,2.53c-5.84,0.22-11.67,0.2-17.49,0.01c-2.83,0.04-5.67,0.01-8.5-0.01c-5.71-0.05-8.98,2.33-8.79,8.45
			c0.17,5.56,2.44,9.02,8.48,9.07c3.47,0.03,6.94,0.12,10.42-0.07c5.83,0,11.66-0.14,17.48,0.19c2.14,0.01,4.17,0.44,6,1.6
			c2.78,3.64-0.4,5.82-2.23,8.09c-2.78,3.45-6.15,6.37-9.23,9.55c-19.29,19.92-25.97,44.13-24.27,71.19
			c2.84,9.6,4.84,19.48,9.68,28.41C138.05,437.92,138.78,440.03,137.23,442.15z"/>
		<path class="st1" d="M137.23,442.15c-5.76-10.89-10.21-22.24-11.76-34.56c-1.84-3.62-0.13-5.38,3.27-6.24
			c8.52,11.44,12.23,11.81,23.2,2.27c2.38-2.07,4.51-4.49,7.89-4.95c11,0.33,15.44,7.3,16.71,17.1c3.87,1.12,4.42-5.33,8.23-3
			c3.33,3.43,1.48,9.12,5.34,12.32c1.46,2.42,2.05,5.21,3.27,7.75c0.12,0.84,0.04,1.66-0.21,2.48c-1.9,3.08-7.74,1.85-7.69,7.06
			c-0.67,1.21-1.57,2.2-2.64,3.06c-4.44,3.36-8.8,6.91-14.87,6.55c-2.45,0.12-5.39-0.62-7.19,1.01c-4.85,4.38-9.44,2.81-14.22,0.26
			C142.08,450.7,140.81,445.46,137.23,442.15z"/>
		<path class="st2" d="M432.91,466.43c-9.78,5.03-19.75,9.59-30.5,12.19c-1.7,0.65-3.31,0.77-4.64-0.76
			c-3.26-7.53-1.74-15.36-1.43-23.11c0.76-3.65,2.14-6.95,5.23-9.27c5.52-1.91,10.14,2.99,16.24,1.94
			c-5.78-1.84-11.65-1.02-16.4-4.21c-1.22-2.95-1.03-5.59,1.61-7.72c7.07-2.37,14.94,2.98,21.77-2.22
			c-5.28-3.94-13.34,0.38-17.73-6.05c-0.37-1.33-0.28-2.62,0.36-3.85c4.44-1.93,9.68,3.05,13.81-1.59c2.94-1.12,4.15-4.73,7.53-5.22
			c8.96,2.08,18.15,0.17,27.15,1.68c3.36,0.56,6.97-0.01,9.7,2.74c-0.21,4.19-1.82,7.85-4.22,11.21
			c-7.37,1.55-14.89,2.23-22.79,3.44c3.72,2.49,7.57,1.55,11.12,2.23c2.66,0.52,6.92-0.85,6.44,4.41
			C450.65,452.46,441.63,459.3,432.91,466.43z"/>
		<path class="st3" d="M135.17,182.22c-1.28-4.18,1.71-7.71,1.78-11.69c3.89-5.43,7.6-11.03,13.35-14.79
			c6.57-1.91,9.86-9.29,17.03-10.19c15.12-0.48,30.24-0.72,45.32-2.13c5.16-0.48,10.26-0.5,14.6,4.45c5.37,6.12,3.11,7.77-3.28,8.63
			c-8.26-5.11-17.48-1.85-26.21-2.93c-8.56-1.73-9.62,5.47-12.48,10.51c-6.95,5.44-12.36,13.83-23.06,12.17
			c-9.74-3.74-17.2,1.07-24.47,6.57C136.8,183,135.94,182.81,135.17,182.22z"/>
		<path class="st4" d="M556.9,277.86c-6.16-1.71-7.06-6.58-7.06-11.9c-0.02-35.18,0.01-70.37-0.03-105.55
			c-0.01-4.85,0.55-9.06,6.82-9.12c2.5-0.71,3.11,0.96,3.57,2.82c0.04,33.99,0.03,67.98-0.02,101.97
			c-0.01,6.38,0.31,12.69,1.57,18.95C561.5,278.33,559.89,279.28,556.9,277.86z"/>
		<path class="st5" d="M900.44,277.97c-3.99-2.28-2.47-6.17-2.48-9.4c-0.12-25,0.44-50.03-0.36-75c-0.26-7.97,6.07-11.28,7.96-17.14
			c2.04-6.33-8.59-8.48-6.73-16.03c1.22-4.98,2.85-8.9,7.9-10.69c2.83-1.56,4.29-0.7,4.42,2.5c-2.65,6.21-2.85,11.99,1.59,17.8
			c2.97,3.88,2.46,8.6-0.62,12.38c-3.91,4.81-4.44,10.27-4.43,16.08c0.04,22.18,0.07,44.36-0.02,66.53
			c-0.02,4.37,0.61,8.94-2.33,12.82C903.73,278.83,902.09,278.71,900.44,277.97z"/>
		<path class="st6" d="M430.95,277.83c-4.39-3.2-1.46-6.82-0.37-10.12c10.64-32.39,23.22-64.13,32.74-96.9
			c1.09-2.94,2.54-5.8,3.19-8.83c1.68-7.82,6.72-10.81,14.23-10.68c0.63,0.87,0.75,1.81,0.36,2.81c-5.14,6.3-7.9,13.77-10.19,21.4
			c-10.26,34.14-22.87,67.47-34.63,101.1C434.83,278.44,433.13,279.19,430.95,277.83z"/>
		<path class="st7" d="M950.47,277.84c-4.31-2.05-2.24-5.28-1.3-8.06c12.42-36.48,25.04-72.89,37.28-109.44
			c2.07-6.17,5.86-8.57,11.78-8.9c2.17-0.64,2.57,0.6,2.51,2.34c-5.39,5.74-7.63,12.99-9.88,20.29
			c-10.66,34.53-23.48,68.32-35.01,102.57C954.38,278.47,952.65,279.16,950.47,277.84z"/>
		<path class="st8" d="M767.42,277.67c-4.94-3.5-1.16-6.79,0.54-9.72c7.91-13.67,15.73-27.42,24.27-40.7
			c4.33-6.72,4.51-12.14,0.44-19.13c-8.87-15.25-16.83-31.02-25.17-46.57c-2.47-4.6-4.7-9.1,3.45-10.05
			c1.84-0.9,2.54,0.32,3.16,1.69c6.21,17.76,15.52,34.01,25.09,50.05c5.93,9.93,5.92,18.64-0.25,28.35
			c-9.36,14.72-17.91,29.94-26.43,45.17C771.03,278.26,769.47,279.39,767.42,277.67z"/>
		<path class="st9" d="M644.54,278.06c-5.95-3.16-1.75-7.4-0.65-10.68c8.85-26.14,18.09-52.15,27.09-78.25
			c3.1-8.99,5.7-18.16,8.85-27.14c1.09-3.1,1.16-7.1,5.2-8.52c2.28-1.37,3.94-0.82,4.97,1.63c-3.42,15.1-8.2,29.81-13.33,44.39
			c-8.92,25.36-18.13,50.61-26.04,76.32c-0.28,0.92-0.92,1.64-1.58,2.34C647.54,278.72,646.03,278.64,644.54,278.06z"/>
		<path class="st10" d="M146.56,453.26c7.34,1.25,13.46-4.77,20.81-3.48c2.61,1.82,0.92,7.65,5.96,6.94
			c3.79-0.53,5.21-4.01,6.46-7.21c0.78-2.01,1.35-4.1,2.88-5.73c0.65-0.64,1.3-1.29,1.95-1.93c3.33-1.85,5.87-1.69,6.79,2.63
			c-1.88,4.88-2.77,10.13-5.36,14.79c-0.46,0.82-2.29,1.56-0.94,2.79c6.43,5.86,0.81,9.68-2.25,13.95
			c-6.44-2.41-12.87-4.82-19.31-7.23C158.86,462.55,150.12,460.73,146.56,453.26z"/>
		<path class="st11" d="M480.72,153.24c0-0.65,0.01-1.3,0.01-1.94c17.52-5.32,18.13-5.09,23.63,11.68
			c11.43,34.86,22.79,69.74,34.12,104.63c3.32,10.23,1.25,12.93-9.8,13.29c-7,0.23-13.95-0.08-20.8-1.68
			c-0.12-0.49-0.34-0.92-0.68-1.29c0.46-1.56,1.46-2.57,3.02-3.03c5.08-0.36,10.15,0.2,15.22,0.33c7.21,0.18,8.99-2.84,6.92-9.42
			c-4.48-14.24-10.01-28.11-14.26-42.44c-5.69-19.18-12.84-37.91-18.14-57.22c-2.18-7.96-5.42-13.62-15.12-11.09
			C483.3,155.46,481.71,154.7,480.72,153.24z"/>
		<path class="st12" d="M339.12,17.46c2.02-4.62,0.92-12.98,6.73-12.85c4.57,0.11,3.36,8.49,5.09,13.05
			c1.18,3.1,1.83,6.39,2.87,10.17c4.06-5.44,7.72-10.39,11.44-15.29c1.28-1.69,2.18-4.36,4.9-3.72c3.12,0.74,1.93,3.57,1.81,5.57
			c-0.48,7.9-1.18,15.79-1.7,23.69c-0.16,2.44-0.23,4.45-3.7,3.57c-2.52-0.64-3.79-1.45-3.36-4.46c0.77-5.31,1.04-10.69,1.67-17.68
			c-6.32,6.27-8.56,13.87-15.04,18.9c-3.72-6.02-3.49-12.8-5.44-18.88c-1.28-3.99-2.47-2.79-3.51,0.16
			C339.06,19.92,338.34,19.28,339.12,17.46z"/>
		<path class="st13" d="M462.42,89.83c1.24,3.62,2.31,6.75,3.57,10.43c-1.69-0.11-3.14,0.13-3.36-0.28
			c-4.79-8.93-10.65-17.54-13.73-27.05c-2.37-7.32,6.44-16.33,14.35-17.16c8.47-0.89,19.21,6.87,20.65,14.92
			c1.28,7.15-4.65,16.3-12.17,18.28C469.06,89.67,466.16,89.51,462.42,89.83z"/>
		<path class="st14" d="M464.07,524.66c10.01-0.27,18.85,12.08,15.4,20.96c-0.9,2.3-2.39,4.51-4.06,6.36
			c-9.96,11.03-12.57,10.89-21.04-0.84c-0.75-1.03-1.67-1.99-2.16-3.14c-1.87-4.34-9.16-7.04-6.4-12.23
			C449.47,528.88,457.03,526.18,464.07,524.66z"/>
		<path class="st15" d="M278.88,34.83c-10.91,0.19-17.22-6.5-17.2-18.25c0.02-9.84,7.36-16.55,18.23-16.66
			c10.26-0.11,16.73,6.37,16.66,16.69C296.49,27.66,289.71,34.65,278.88,34.83z"/>
		<path class="st16" d="M559.04,153.11c-0.8-0.61-1.61-1.22-2.41-1.82c7.93-3.35,16.25-1.76,24.28-1.18
			c6.31,0.46,6.97,6.01,6.94,11.55c-0.14,28.18-0.09,56.37-0.03,84.55c0.01,3.36-1.06,7.05,2.03,9.81c0.73,1.22,0.49,2.21-0.69,2.98
			c-8.52-1.86-8.02-8.83-8.09-15.03c-0.27-23.75-0.09-47.51-0.12-71.27c0-2.85-0.06-5.7-0.1-8.55c-0.07-5.08-2.55-7.29-7.61-7.58
			C568.35,156.29,562.92,157.69,559.04,153.11z"/>
		<path class="st17" d="M328.55,34.31c-12.59,1.59-9.08-11.08-15.7-15.08c-0.18,3.9-0.47,7.24-0.45,10.59
			c0.02,3.11-1.65,3.6-4.26,3.51c-2.66-0.1-3.04-1.57-2.9-3.74c0.55-8.55,0.96-17.11,1.59-25.65c0.51-6.97,5.8-2.9,8.73-3.21
			c4.35-0.46,9.37-0.13,11.55,4.7c2.18,4.83,0.25,8.57-4.61,10.79c-2.92,1.33-0.9,3.05-0.19,4.6
			C324.25,25.08,326.23,29.32,328.55,34.31z"/>
		<path class="st18" d="M129.02,85.13c0.1,8.67-9.51,18.36-18.42,18.57c-8.07,0.19-16.08-8.02-16.23-16.66
			c-0.16-8.81,9.35-18.52,18.2-18.6C120.54,68.38,128.93,76.89,129.02,85.13z"/>
		<path class="st19" d="M208.17,26.84c2,6.54,3.66,11.79,5.16,17.08c0.2,0.71-0.46,1.66-1.26,4.2c-5.74-10.63-6.47-21.36-9.42-31.24
			c-1.03-3.44,3.61-3.22,6.26-1.62c6.91,4.15,13.93,8.15,20.36,15.32c0.75-7.5-1.91-12.71-3.74-18.05c-0.52-1.53-1.5-3.22,0.48-3.98
			c2.88-1.11,2.53,1.26,3,3.1c2.02,7.78,4.29,15.5,6.48,23.24c0.5,1.78,1.73,3.79-0.43,5.09c-1.92,1.15-3.59-0.42-5.21-1.33
			C222.93,34.73,216.88,29.05,208.17,26.84z"/>
		<path class="st20" d="M10.86,214.46c-0.2-2.55,0.31-4.9,1.91-6.96c6.82-7.98,20.17-7.62,25.54,0.9c2.46,3.9,2.83,8.22,0.77,12.62
			c-2.02,4.33-5.64,5.51-10,5.74C19.27,227.26,13.56,223.46,10.86,214.46z"/>
		<path class="st21" d="M900.44,277.97c1.74-0.2,3.48-0.39,5.22-0.59c4.11-3.38,9.07-2.35,13.71-2.37c6.12-0.03,9.52-2.14,9.5-8.82
			c-0.07-23.78,0.1-47.56-0.1-71.33c-0.04-4.68-2.12-8.51-4.78-12.17c-3.01-4.13-3.8-8.24-1.27-13.25
			c5.92-11.72,4.1-14.94-8.65-16.81c-1.27-0.19-2.48-0.47-3.51-1.27c-1.28-0.55-2.56-1.09-3.85-1.64c2.96-1.01,5.86-2.46,8.9-2.93
			c6.51-1.01,12.07,1.21,15.45,6.96c3.37,5.75,3.4,12.14-1.74,16.57c-4.55,3.92-3.22,6.99-0.05,9.76c4.11,3.58,4.7,7.84,4.68,12.79
			c-0.1,25.71-0.25,51.42,0.08,77.13c0.1,7.73-2.53,11.36-10.39,10.8C915.86,280.26,907.75,282.38,900.44,277.97z"/>
		<path class="st22" d="M850.71,151.23c5.03-2.8,10.38-2.84,15.62-1.13c8.82,2.88,11.46,9.65,7.05,17.78
			c-6.91,12.75-13.68,25.6-21.12,38.05c-4.16,6.96-4.75,12.8-0.37,20.07c8.15,13.51,15.41,27.56,22.87,41.48
			c1.65,3.09,4.96,6.27,1.41,10.21c-0.81,0.81-1.63,0.84-2.48,0.08c-7.67-16.05-16.14-31.7-25.34-46.91
			c-5.72-9.44-6.14-18.29-0.53-27.77c5.82-9.83,11.66-19.64,16.64-29.98c7.32-15.24,5.83-18.24-10.94-18.75
			C852.08,153.75,851.08,152.77,850.71,151.23z"/>
		<path class="st23" d="M10.86,214.46c4.53,5.94,9.93,10.31,17.88,10.48c5.03,0.11,8.56-1.95,10.12-6.73
			c1.51-4.61-0.74-8.05-4.36-10.49c-7.12-4.8-14.44-6.04-21.74-0.21c0.3-5.23,2.78-8.48,7.63-10.03c7.85-2.51,17.98,1.97,20.84,9.2
			c3.37,8.5-1.66,21.37-9.56,24.47c-7.09,2.78-18.88-1.95-22.07-9.1C8.48,219.5,7.9,216.57,10.86,214.46z"/>
		<path class="st24" d="M155.33,61.09c-4.49-7.24-7.68-12.39-10.88-17.54c0.85-0.56,1.71-1.12,2.56-1.68
			c5.29,8.14,11.4,15.88,15.53,24.57c2.06,4.34-3.23,3.17-5.58,2.58c-7.62-1.9-15.16-4.13-23.76-6.52
			c2.52,7.54,8.49,12.01,7.93,19.79c-5.24-7.93-11.19-15.5-15.45-23.93c-2.55-5.04,2.78-4.5,5.6-3.83
			C138.62,56.27,145.86,58.47,155.33,61.09z"/>
		<path class="st25" d="M1026.92,172.72c10.47,32.05,20.99,64.09,31.39,96.17c2.66,8.19,0.64,11.58-7.68,11.91
			c-8.12,0.31-16.48,1.36-24.19-2.66c0.45-1.61,1.52-2.61,3.04-3.18c5.06-0.56,10.13,0.12,15.18,0.26c7.42,0.21,8.76-3.07,6.67-9.47
			c-6.02-18.38-12.35-36.66-18.39-55.03c-2.57-7.83-5.24-15.63-7.78-23.47c-1.27-3.91-2.76-7.82-1.59-12.07
			C1024.21,173.69,1025.04,172.49,1026.92,172.72z"/>
		<path class="st26" d="M373.39,44.02c7.41-8.51,14.76-15.82,20-24.77c0.9-1.53,2.29-3.55,4.48-2.61c1.98,0.85,1.75,3.1,1.81,4.99
			c0.29,8.84,0.63,17.67,0.87,26.51c0.05,1.67,0.95,4.19-2.06,4.14c-2.25-0.03-4.18-1.08-5.1-3.51
			c-4.87-12.73-5.13-12.77-16.23-4.22C376.84,44.81,376.01,44.41,373.39,44.02z"/>
		<path class="st27" d="M1029.12,275.63c-0.89,0.83-1.78,1.67-2.67,2.5c-4.88-1.02-5.89-5.16-7.4-9
			c-2.46-6.26-4.79-12.46-13.41-12.53c-9.72-0.08-18.33,1.53-23.61,10.87c-8.35,14.77-14.97,16.92-31.55,10.36
			c1.34-0.63,2.68-1.26,4.01-1.89c2.33-1.49,4.92-1.07,7.43-0.88c6.73,0.51,11.56-1.84,14.64-8.19
			c4.69-9.69,13.05-14.35,23.44-15.88C1016.16,248.6,1028.27,258.82,1029.12,275.63z"/>
		<path class="st28" d="M495.81,115.45c-6.45-0.69-10.41-4.54-13.53-9.61c-3.07-4.98-1.2-9.11,2.26-12.89
			c3.64-3.98,7.59-7.7,11.02-11.85c2.32-2.81,3.88-2.18,6.06-0.04c2.5,2.45,0.66,3.69-1,5.27c-3.67,3.51-7.32,7.05-10.84,10.7
			c-3.71,3.84-5.45,8.02-0.75,12.35c4.43,4.08,8.73,2.8,12.64-0.88c2.77-2.61,5.13-5.69,8.07-8.07c2.11-1.7,3.43-7.52,6.75-4.07
			c2.83,2.94-2.51,4.97-4.45,6.9C507.22,108.06,503.54,114.65,495.81,115.45z"/>
		<path class="st29" d="M310.76,587.48c0.84-2.62-3.89-8.18,3.94-8.37c6.04-0.15,13.32-3.48,16.3,4.87
			c2.24,6.27-1.26,10.92-7.47,11.73c-7.49,0.98-4.69,5.8-4.69,9.71c0,2.02,1.47,4.41-2.29,4.81c-3.45,0.36-4.27-1.12-4.39-4.25
			C311.93,599.99,311.28,594.01,310.76,587.48z"/>
		<path class="st30" d="M526.2,130.05c-4.85,1.22-4.27-9.83-11.97-3.96c-7.9,6.01,2.46,8.69,0.79,13.87
			c-5.55-2.33-7.34-7.73-10.86-11.28c-1.92-1.93,0.34-3.21,1.82-4.38c3.99-3.14,7.99-6.27,11.9-9.51
			c9.89-8.19,14.54-6.42,18.32,7.12c-4.79,1.46-4.32-10.3-11.53-4.14C517.9,123.53,528.47,125.17,526.2,130.05z"/>
		<path class="st31" d="M185.26,571.52c-3.71,3.44-7.61-6-12.11,1.29c-5.44,8.8,5.94,7.39,6.22,13.15
			c-5.65-0.48-9.55-3.94-14.03-5.74c-3.35-1.34-1.28-3.49-0.35-5.4c2.22-4.57,4.45-9.14,6.56-13.76
			c5.07-11.08,10.02-11.38,19.16-1.05c-3.67,3.09-7.83-6.61-11.92,0.99C174.34,569.28,186.06,566.37,185.26,571.52z"/>
		<path class="st32" d="M105.76,501.42c-5.53,1.91-5.95-9.87-12.72-2.83c-6.09,6.33,4.67,7.02,2.55,11.95
			c-4.41,1.41-6.29-10.04-13.2-2.38c-6.21,6.89,4.9,7.64,2.32,12.79c-5.37-1.92-7.73-7.03-11.37-10.56c-2.07-2,0.53-3.2,1.8-4.38
			c4.65-4.32,9.66-8.31,13.92-12.98c3.92-4.3,6.98-5.97,10.59,0.06C101.34,495.93,105.17,497.24,105.76,501.42z"/>
		<path class="st14" d="M234.72,603.26c-5.48,0.7-9.64-1.96-14.13-2.62c-3.04-0.44-3.38-1.85-2.51-4.58
			c1.62-5.11,2.97-10.32,4.24-15.54c2.9-11.85,2.85-11.86,15.88-6.27c-4.52,1.31-9.45,1.01-9.35,6.92c0.12,6.5,7.52,1.88,9.01,7.01
			c-4.09,2.08-12.64-3.21-12.55,6.89C225.37,602.06,233.09,597.42,234.72,603.26z"/>
		<path class="st33" d="M556.9,277.86c1.36-0.55,2.72-1.11,4.07-1.66c10.24-2.9,20.69-0.65,31.03-1.19
			c6.95-0.37,13.94-0.22,20.9-0.04c6.63,0.17,11.74-2.04,14.92-8.06c1-1.38,2.25-2.41,3.98-2.72c4.3,8.89-1.34,14.78-8.19,15.33
			C601.4,281.29,578.98,283.75,556.9,277.86z"/>
		<path class="st32" d="M7.05,238.18c0.35,2.73-2.04,3.36-2.85,4.99c-1.08,2.18-1.36,4.16,0.72,5.94c2.24,1.91,4.15,0.87,5.81-0.77
			c1.57-1.55,2.93-3.32,4.34-5.02c4.23-5.1,9.12-5.43,14.12-1.49c4.2,3.31,4.41,12.78,0.91,16.62c-1.36,1.49-2.58,1.41-4.12,0.66
			c-2.41-1.17-1.2-1.88,0.17-3.04c3.18-2.67,5.66-6.19,1.31-9.37c-4.59-3.36-6.63,1.72-8.96,4.24c-4.29,4.63-8.94,7.95-14.6,2.96
			c-5.11-4.51-4.11-10.14-0.68-15.43C4.03,237.23,5.33,237.35,7.05,238.18z"/>
		<path class="st34" d="M850.71,151.23c0.84,0.66,1.69,1.32,2.53,1.98c-5.5,13.2-12.99,25.35-20.46,37.44
			c-3.09,4.99-8.24,7.66-12.72,0.43c-0.09-1.55,0.13-2.89,2.12-2.94c6.91,1.06,6.56-5.53,8.08-8.83c3.71-8.05,8.8-15.21,13.04-22.89
			C844.88,153.57,847.2,151.47,850.71,151.23z"/>
		<path class="st19" d="M414.3,22.4c6.41,7.98,15.68,8.49,22.24,15.25c-11.09-5.38-12.01,3.36-14.88,9.14
			c-1.55,3.12-2.81,6.39-4.22,9.58c-0.91,2.06-1.58,4.07-4.77,2.5c-3.09-1.53-3.4-3.08-1.72-5.89c1.79-2.98,3.37-6.13,4.68-9.35
			c2.21-5.42,8.52-11.44-1.75-15.62C413.53,27.87,414.03,25.67,414.3,22.4z"/>
		<path class="st24" d="M406.31,560.41c-0.85,12.22,7.74,6.11,13.52,5.9c-1.55,5.22-12.39,3.88-6.68,12.97
			c4.72,7.51,8.13-2.51,12.33,1.15c-3.15,5.11-9.28,5.25-13.81,7.73c-2.23,1.22-2.71-1.72-3.41-3.35c-2.9-6.7-5.49-13.55-8.8-20.04
			c-2.77-5.44,0.89-5.78,4.36-6.67C406.2,557.19,406.6,558.42,406.31,560.41z"/>
		<path class="st17" d="M53.7,125.14c5.04-6.15,10.09-12.3,15.13-18.45c1.02,0.09,2.05,0.19,3.07,0.28
			c-9.28,9.09-0.73,11.45,3.39,16.18c3.44,3.95,14.63,5.29,9.72,11.39c-5.4,6.7-8.7-5.03-13.97-6.56c-0.56-0.16-0.98-0.79-1.5-1.16
			c-4.64-3.25-9.25-10.6-14.04,3.92C54.9,128.86,54.3,127,53.7,125.14z"/>
		<path class="st35" d="M164.02,548.19c-8.05-6.55-11.22-1.6-14.27,4.22c-2.05,3.91-4.64,7.54-6.76,11.41
			c-1.44,2.64-2.78,2.57-5.24,1.12c-2.78-1.64-2.43-3-0.86-5.17c2.4-3.33,4.57-6.83,6.84-10.25c3.5-5.29,8.87-10.63-2.15-15.53
			c0.89-0.55,1.79-1.11,2.68-1.66c6.77,4.24,13.55,8.49,20.32,12.73C164.4,546.11,164.21,547.15,164.02,548.19z"/>
		<path class="st36" d="M565.38,359.1c-4.79,12.62,4.36,11.4,10.35,13.14c3.65,1.06,7.38,1.96,11.14,2.46
			c3.22,0.43,3.28,2.08,2.81,4.59c-0.53,2.86-1.79,3.57-4.63,2.68c-4.52-1.43-9.15-2.53-13.77-3.64c-7.62-1.84-7.63-1.8-14.47,3.58
			c2.15-8.27,3.91-15.04,5.68-21.8C563.47,359.77,564.43,359.44,565.38,359.1z"/>
		<path class="st37" d="M252.6,576.16c7.87,0.98,15.75,1.95,23.62,2.93c0.33,0.85,0.66,1.7,0.99,2.55
			c-14.59-2.07-9.48,8.95-12.03,15.06c-1.61,3.86,3.48,12.28-4.84,11.13c-7.33-1.01-0.62-7.56-1.43-11.54
			c-0.42-2.08-0.06-4.48,0.52-6.58c1.82-6.59,0.81-11.11-8.28-10.52C251.64,578.18,252.12,577.17,252.6,576.16z"/>
		<path class="st38" d="M63.91,496.37c-5.97-3.34-8.28-8.26-10.97-12.97c-1.29-2.25-0.59-3.35,1.13-4.61
			c6.41-4.66,12.88-9.26,19.14-14.12c2.28-1.77,3.44-1.8,5.26,0.62c1.85,2.46,1.43,3.8-0.92,5.3c-2.67,1.71-5.26,3.55-7.82,5.43
			C62.95,481,52.62,484.88,63.91,496.37z"/>
		<path class="st19" d="M106.63,543.09c-5.65-4.85-7.83-10.72-4.64-17.76c2.78-6.13,7.25-10.45,14.43-10.65
			c7.77-0.22,12.97,4.19,17.24,10.1c1,1.38,1.64,2.71,0.03,4.08c-2.04,1.74-2.29,0.25-2.96-1.39c-2.78-6.81-7.36-10.49-14.82-6.85
			c-7.95,3.88-10.82,12.16-7.59,20.59C109.01,542.96,108.4,543.55,106.63,543.09z"/>
		<path class="st37" d="M34.14,374.97c-4.42-8.53-10.5-10.58-19.45-6.55c-7.82,3.53-8.74,7.85-3.82,21.62
			c-7.24-6.26-7.84-13.17-5.69-20.24c2.24-7.37,8.55-10.02,15.67-10.05c8.49-0.04,13.36,4.87,15.28,12.92
			C36.82,374.62,35.97,375.23,34.14,374.97z"/>
		<path class="st31" d="M42.69,467.53c-2.67-4.35-5.39-8.66-8-13.05c-1.62-2.72,1.05-3.11,2.47-3.95
			c6.51-3.87,13.18-7.49,19.59-11.51c2.93-1.84,4.36-1.21,5.95,1.58c1.77,3.13-0.61,3.78-2.42,4.82c-3.28,1.89-6.58,3.76-9.94,5.5
			c-6.58,3.41-13.41,6.64-4.16,16.08C45.01,467.18,43.85,467.35,42.69,467.53z"/>
		<path class="st12" d="M54.53,178.35c2.24,6.86-1.82,11.84-4.86,16.1c-2.23,3.12-5.85-1.77-8.87-2.92
			c-5.03-1.91-9.79-4.52-14.7-6.76c-1.95-0.89-4.66-1.1-3.58-4.36c0.59-1.78,0.93-4.2,2.23-5.05c2.12-1.39,4.6,0.68,5.47,2.18
			c2.36,4.09,6.81,4.33,10.15,6.53C47.5,188.79,52.6,188.28,54.53,178.35z"/>
		<path class="st39" d="M841.39,277.96c-7.38-8.03-10.9-18.46-17.03-27.24c-1.47-2.11-0.91-6.9-5.82-5.63
			c-2.02,0.07-2.34-1.25-2.31-2.84c3.18-5.99,7.98-5.7,11.15-1.08c7.6,11.05,15.65,22,19.09,35.35
			C845.3,278.83,843.49,278.91,841.39,277.96z"/>
		<path class="st36" d="M102.79,115.38c-0.9,1.05-1.85,2.25-2.89,3.35c-1.99,2.11-3.2,0.34-4.55-0.94
			c-5.7-5.42-11.34-10.93-17.19-16.18c-2.22-1.99-2.17-3.44-0.07-5.22c1.32-1.12,2.28-3.24,4.5-1.12
			c6.37,6.09,12.82,12.1,19.2,18.17C102.18,113.82,102.33,114.46,102.79,115.38z"/>
		<path class="st15" d="M256.03,18.5c-9.78,0.6-8.35,6.05-7.41,11.56c0.49,2.86,3.72,7.07-2.53,7.86c-5.74,0.73-3.52-3.96-4.03-6.43
			c-1.38-6.79-2.1-13.73-3.61-20.49c-0.97-4.38,0.75-5.79,4.63-5.97c4.49-0.21,3.34,1.92,2.79,5.06
			C244.74,16.56,248.38,19.35,256.03,18.5z"/>
		<path class="st40" d="M551.12,441.02c-1.8-1.77-3.91-3.34-5.33-5.37c-2.2-3.15-8.45-5.18-6.06-9.36
			c2.02-3.54,7.57-0.79,11.53-0.66c5.07,0.16,10.16,0.58,15.18,1.27c2.15,0.3,5.76-1.77,6.22,2.11c0.43,3.6-3.39,4.09-5.73,5.2
			c-1.6,0.76-3.79,0.5-5.08-1.42c-1.32,0.17-2.51,0.71-3.71,1.22c-2.72,0.73-6.69,0.08-5.54,5.06
			C552.36,439.91,551.87,440.56,551.12,441.02z"/>
		<path class="st41" d="M554.77,463.3c-2.53,4.11-5.08,8.2-7.58,12.33c-1.22,2.02-2.42,2.21-4.48,0.79
			c-6.51-4.5-13.12-8.86-19.83-13.06c-2.29-1.43-3.24-2.52-1.62-5.18c1.9-3.12,3.65-2.49,6.01-0.67c2.75,2.13,5.77,3.91,8.58,5.97
			c6.12,4.49,12.26,10.2,17.12-3.4C553.57,461.15,554.17,462.23,554.77,463.3z"/>
		<path class="st19" d="M196.64,52.48c-2.85,0.64-2.9-1.84-3.53-3.38c-2.85-6.99-5.62-14.01-8.29-21.06
			c-1.18-3.13-1.71-6.17,2.79-7.29c4.82-1.2,3.75,2.84,4.62,5.09c2.59,6.74,4.76,13.68,7.8,20.21
			C202.05,50.41,200.19,51.62,196.64,52.48z"/>
		<path class="st32" d="M18.92,422.84c-4.89-11.38-2.91-18.63,6.27-22.98c9.84-4.66,17.37-1.49,22.49,9.46
			c-0.67,0.64-1.48,0.95-2.4,0.92c-14.05-6.12-19.39-3.4-24.03,12.23C20.56,423.22,19.79,423.33,18.92,422.84z"/>
		<path class="st30" d="M18.92,422.84c0.74-0.08,1.48-0.16,2.22-0.24c16.69,2.94,19.98-2.19,24.55-13.13
			c0.66-0.05,1.32-0.1,1.99-0.15c4.19,10.42,2.3,16.92-6.18,21.28C32.36,435.31,25,432.78,18.92,422.84z"/>
		<path class="st42" d="M451.11,45.23c-4.89,8.57-9.33,16.64-14.09,24.51c-1.47,2.43-3.31-0.04-4.77-0.71
			c-2.26-1.03-1.93-2.7-0.77-4.63c4.08-6.8,8.02-13.69,12.01-20.54c0.94-1.61,1.68-3.67,4.15-1.84
			C449.07,43.07,451.39,43.35,451.11,45.23z"/>
		<path class="st43" d="M688.97,155.36c-1.31-0.63-2.63-1.25-3.94-1.88c6.14-3.71,13.31-3.53,20.01-4.99
			c6.08-1.32,9.05,2.84,10.71,8.24c4.95,16.17,10.01,32.3,15.03,48.44c-0.62,1.4-1.34,2.65-3.23,2.12
			c-6.34-7.65-6.55-17.61-9.77-26.44c-2.16-5.94-3.85-12.09-5.7-18.15c-2.04-6.71-6.02-9.15-12.95-7.32
			C695.87,156.24,692.34,157.36,688.97,155.36z"/>
		<path class="st44" d="M822.19,188.13c-0.48,0.63-0.97,1.25-1.45,1.88c-4.06,0.06-4.99-3.34-6.43-6c-1.64-3.05-3.43-6.11-4.59-9.33
			c-4.94-13.71-13.21-21.73-28.98-18.7c-2.66,0.51-5.73,0-7.73-2.58c-0.69-0.63-1.37-1.26-2.06-1.89c9.2-3.51,18.68-1.77,28-1.08
			c4.28,0.32,6.75,4.3,8.63,8.11C812.43,168.41,817.31,178.27,822.19,188.13z"/>
		<path class="st45" d="M581.36,407.64c-1.3,3.34-1.3,6.56-5.87,4.63c-7.23-3.06-14.68-5.64-22.17-8.03
			c-2.95-0.94-3.27-2.15-2.21-4.66c0.73-1.73,1.02-3.98,3.67-3.04c8.29,2.96,16.53,6.04,24.78,9.09
			C580.87,406.12,581.78,406.88,581.36,407.64z"/>
		<path class="st32" d="M66.34,163.22c-4.44,7.67-10.38,8.18-17.47,3.77c-4.27-2.66-8.59-5.24-12.98-7.69
			c-2.54-1.41-2.68-2.77-1.17-5.23c1.62-2.64,2.96-2.43,5.18-0.88c4.12,2.88,8.41,5.52,12.65,8.23c4,2.55,8.03,3.79,11.97-0.13
			C66.2,160.91,67.21,161.19,66.34,163.22z"/>
		<path class="st46" d="M380.8,566.42c3.07-0.75,3.07,1.75,3.6,3.34c2.37,7.21,4.52,14.49,6.94,21.68c0.8,2.38,1.32,4.04-1.78,5.1
			c-3.07,1.05-4.53,0.34-5.45-2.82c-2.12-7.29-4.17-14.65-6.97-21.69C375.32,567.43,378.63,567.53,380.8,566.42z"/>
		<path class="st45" d="M348.65,580.53c-0.04-2.43-1.07-5.59,1.91-6.59c3.28-1.1,3.9,2.5,5.2,4.4c4.1,5.99,8.11,12.05,11.92,18.22
			c0.98,1.58,4.12,3.49,1.51,5.38c-2.05,1.49-5.23,2.35-7.3-1.23c-1.23-2.12-3.15-3.85-4.76-5.75c-1.42,0.81-2.32,0.13-3.05-1.04
			c-0.71-3.74-2.79-6.8-5-9.79C348.45,582.99,348.2,581.8,348.65,580.53z"/>
		<path class="st47" d="M817,243.33c0.51,0.59,1.02,1.18,1.54,1.76c-4.14,7.09-9.27,13.8-12.21,21.37
			c-5.76,14.82-17.24,15.92-30.21,14.29c-2.96-0.37-6.4-0.38-8.69-3.08c1.6-0.25,3.32-0.31,4-2.22c0.59-0.24,1.23-0.6,1.8-0.47
			c16.71,3.75,26.41-4.07,32.9-18.78C808.32,251.23,810.09,244.79,817,243.33z"/>
		<path class="st48" d="M644.54,278.06c1.77-0.21,3.54-0.42,5.31-0.63c1.41-1.48,3.29-2.11,5.17-2.02
			c8.05,0.41,12.54-3.77,16.36-10.53c6.76-11.96,22.22-16.99,33.13-11.66c0.58,3.4-2.76,1.92-3.93,3.16
			c-13.28-0.25-22.88,4.26-27.91,17.89C669.72,282.28,657.89,283.16,644.54,278.06z"/>
		<path class="st49" d="M456.16,442.25c-3.58-3.98-8.3-1.91-12.51-2.22c-5.22-0.38-9.24-1.8-10.19-8.93
			c9.5,5.11,18.68-3.69,27.93,1.06c-1.27,3.24-2.53,6.47-3.8,9.71C457.14,442.1,456.66,442.22,456.16,442.25z"/>
		<path class="st50" d="M507.46,525.71c-5.79,4.96-10.96,3.35-15.85-1.47c-3.15-3.11-6.37-6.14-9.42-9.34
			c-1.71-1.79-5.47-3.02-1.94-6.62c3.38-3.45,4.62-0.18,6.66,1.6c5.79,5.04,9.23,13.19,18.28,13.95
			C507.26,522.89,507.65,523.96,507.46,525.71z"/>
		<path class="st51" d="M507.46,525.71c-0.75-0.62-1.51-1.25-2.26-1.87c8.19-7.49,8.38-10.06,0.99-17.74
			c-3.3-3.42-6.8-6.64-10.24-9.93c-1.07-1.02-1.33-1.95-0.22-3.16c1.11-1.21,2.26-1.19,3.2-0.08c4.87,5.81,11.81,9.94,15.07,16.96
			C517.31,517.06,513.05,521.84,507.46,525.71z"/>
		<path class="st52" d="M700.58,256.38c1.36-0.61,2.71-1.22,4.07-1.84c4.25-2.8,7.18,0,9.94,2.56c5.56,5.14,8.22,11.81,9.53,19.12
			c-0.87,2.59-2.53,2.84-4.7,1.59c-5-1.71-5.49-6.54-7.15-10.49C710,261.87,707.37,256.94,700.58,256.38z"/>
		<path class="st53" d="M729.01,207.34c0.59-0.72,1.18-1.45,1.77-2.17c5.24,15.8,10.49,31.6,15.73,47.41
			c0.97,2.21,1.2,4.09-1.94,4.55c-3.3-1.94-4.19-5.4-5.23-8.66c-3.44-10.78-6.29-21.75-10.64-32.23
			C727.51,213.39,726.51,210.22,729.01,207.34z"/>
		<path class="st54" d="M1026.92,172.72c-0.66,0.79-1.32,1.57-1.98,2.36c-4.91-1.34-5.14-5.97-6.19-9.6
			c-2.15-7.46-5.46-12.55-14.4-10.43c-1.52,0.36-3.05-0.34-4.05-1.75c-0.69-0.62-1.37-1.24-2.06-1.86c3.27-2.42,7.36-1.5,10.96-2.65
			c6.36-2.02,10.41,0.6,12.38,6.76C1023.39,161.27,1025.14,167,1026.92,172.72z"/>
		<path class="st55" d="M719.43,277.81c1.43-0.45,3.28-0.06,3.96-1.98c4.87-2.01,9.89-0.31,14.84-0.56
			c4.35-0.22,8.06-1.05,10.14-5.32c0.88-1.18,1.86-2.18,3.54-1.76c2.88,9.11,0.87,12.56-8.35,12.82
			C735.41,281.23,727.01,282.3,719.43,277.81z"/>
		<path class="st56" d="M841.39,277.96c1.39-0.63,2.78-1.26,4.18-1.9c9.41-1.94,18.77-2.49,27.93,1.26
			c0.89,0.12,1.79,0.24,2.68,0.37C864.62,283.55,853.01,281.79,841.39,277.96z"/>
		<path class="st57" d="M66.61,153.44c-3.85-7.19-11.51-9.36-17.71-13.48c-1.41-0.94-4.12-1.56-2.88-3.93
			c1.7-3.25,3.79-0.75,5.3,0.45c5.59,4.42,13.2,6.19,17.08,12.86C68.95,151.22,70.16,153.37,66.61,153.44z"/>
		<path class="st58" d="M354.73,593.18c0.8,0.6,1.61,1.19,2.41,1.79c-7.96,0.16-9.47,6.9-11.77,12.83c-0.8-0.32-1.6-0.63-2.4-0.95
			c1.9-8.78,3.79-17.55,5.69-26.33c0.99,1.07,1.98,2.14,2.97,3.21C351.57,587.24,351.93,590.61,354.73,593.18z"/>
		<path class="st59" d="M631.79,264.18c-0.55,0.67-1.1,1.34-1.65,2c-9.81-4.79-20.28-5.3-30.93-4.92c-3.36,0.12-6.96,0.2-9.5-2.82
			c0.04-0.81,0.09-1.62,0.13-2.42c9.43,0.13,18.86,0.29,28.29,0.39C624.15,256.47,629.31,257.95,631.79,264.18z"/>
		<path class="st60" d="M551.12,441.02c0.13-0.99,0.27-1.99,0.4-2.98c2.29-1.36,3.63-3.65,5.42-5.5c1.64,0.08,3.28,0.16,4.91,0.24
			c-5.81,6.28-5.79,12.36,3.04,18.16c-1.33,0.59-2.66,1.19-3.98,1.78C557.65,448.82,554.38,444.92,551.12,441.02z"/>
		<path class="st61" d="M339.12,17.46c0.59,0.75,1.17,1.5,1.76,2.25c-1.72,5.29-0.85,11.57-7.01,17.32
			C334.48,28.89,336,22.98,339.12,17.46z"/>
		<path class="st62" d="M751.91,268.19c-0.73,0.86-1.45,1.71-2.18,2.57c-5.26-3.48-6.85-8.21-4.82-14.17
			c0.53-1.34,1.06-2.67,1.59-4.01C748.31,257.78,750.11,262.98,751.91,268.19z"/>
		<path class="st63" d="M34.14,374.97c0.66-0.76,1.32-1.52,1.98-2.29c0.21,0.23,0.51,0.43,0.61,0.7c1.26,3.58,2.16,7.41-0.56,10.46
			c-0.93,1.04-5.67,3.06-3.38-2.57C33.58,379.31,33.71,377.08,34.14,374.97z"/>
		<path class="st64" d="M66.61,153.44c0.6-1.36,1.2-2.73,1.79-4.09c3.53,5.25,1.65,9.7-2.07,13.87c-0.61-0.65-1.22-1.29-1.83-1.94
			C65.21,158.67,65.91,156.06,66.61,153.44z"/>
		<path class="st65" d="M106.63,543.09c0.57-0.63,1.13-1.25,1.7-1.88c3.26,1.85,6.52,3.71,10.88,6.19
			C112.73,549.53,109.7,546.26,106.63,543.09z"/>
		<path class="st66" d="M406.31,560.41c-0.83-0.77-1.66-1.54-2.5-2.31c0.2-0.24,0.38-0.64,0.62-0.69c3.28-0.62,7.33-5.95,9.27-1.91
			C415.37,558.96,408.84,558.53,406.31,560.41z"/>
		<path class="st67" d="M426.59,320.17c14.34,8.95,24.63,21.66,33.31,35.87c-0.04,4.84-4.54,4.24-7.18,5.91
			c-6.02,1.4-11.51,4.91-17.96,4.61c-3.56-4.24-7.58-6.94-13.67-6.35c-6.23,0.61-11.65-2.51-16.85-5.62c-2.49-1.49-5-3.39-4.28-6.71
			c0.71-3.29,3.97-3.09,6.94-3.66c-1.68-0.18-2.93,0.08-4.09,0.39c-10.71,2.88-18.55-4.23-16.91-15.49c0.41-2.82,2.12-5.53,1.89-8.3
			c-0.81-9.8,4.62-12.01,12.86-11.25c5.42,0.02,10.46,1.68,15.45,3.57C420.05,314.81,424.62,315.56,426.59,320.17z"/>
		<path class="st68" d="M308.88,294.83c11.93,3.77,24.26,0.26,36.31,2.02c1.06,3.52-1.37,5.58-3.7,6.89
			c-10.07,5.66-17.81,15.15-29.53,18.03c-0.77,1.08-1.34,2.26-1.76,3.52c-1.44,6-0.84,13.96-9.17,14.81
			c-8.37,0.85-11.7-6.23-14.96-12.5c-0.58-1.12-0.84-2.39-1.43-3.51c-0.74-1.13-1.63-2.13-2.75-2.91c-1.37-0.84-2.97-1.14-4.37-1.87
			c-11.47-5.93-12.49-12.7-3.53-23.16c2.98-2.08,7.01-1.12,9.89-3.44c3.42-9.7,10.27-17.31,15.59-25.85
			c1.65-2.65,3.74-5.26,7.57-4.78c0.66,0.83,0.94,1.76,0.85,2.82C308.45,274.88,306.73,284.92,308.88,294.83z"/>
		<path class="st69" d="M465.61,420.95c-10.12,1.1-20.23-2.55-30.37-0.06c-3.61,0.89-5.69-1.69-7.99-3.72
			c-2.65,1.19-6.45,1.24-5.71,5.78c-4.35,6.92-8.58,4.21-12.78-0.15c-4.06-5.91,0.7-11.29,1.64-16.64
			c1.07-6.09,2.13-11.99,1.61-18.14c7.3-3.97,13.49,0.17,19.9,2.71c2.19,1.65,1.8,3.41-1.19,5.62c13.46-3.96,13.46-3.96,11.43-13.72
			c8.3-4.82,13.41-13.27,21.19-18.68C471.32,382.66,472.65,401.64,465.61,420.95z"/>
		<path class="st70" d="M223.05,155.39c5.69-2.57,5.85-3.21,5.47-3.31c-3.6-0.94-2.79-6.94-8.15-6.28
			c-9.01,1.11-18.14,1.95-27.19,1.76c-8.61-0.18-17.57,2.76-25.85-2.01c17.49-12.5,37.29-12.72,57.3-10.05
			c17.49,2.34,31.82,11.35,44.17,23.68c-0.94,1.78-2.52,2.56-4.43,2.84c-3.66-0.41-6.77-2.6-10.38-3.22
			c-9.15-1.99-18.06-0.41-26.94,1.74C224.37,159.88,222.07,158.91,223.05,155.39z"/>
		<path class="st71" d="M426.59,320.17c-3.57-1.58-7.14-3.16-10.7-4.74c-3.87-6.21-4.12-12.43-0.05-18.66
			c13.56,0.05,27.13,0.33,40.68,0.05c6.23-0.13,7.95,2.89,6.99,8.09c-0.98,5.35,4,13.9-6.66,14.53
			C446.78,320.03,436.68,319.95,426.59,320.17z"/>
		<path class="st72" d="M255.1,157.11c3.87-0.14,6.99,1.64,9.9,3.92c7.51,1.89,10.96,8.26,15.2,13.77c1.71,2.5,3.41,5.01,5.12,7.51
			c2.66,0.94,3.23,3.5,4.41,5.6c3.54,6.6,4.05,14,5.59,21.14c1.23,5.06,0.29,10.1-0.3,15.12c-0.42,3.57-1.93,5.45-5.6,2.85
			c-4.65-14.23-11.52-27.22-21.64-38.37c-1.83-6.84-7.66-10.54-12.09-15.35c-0.66-6.66-8.41-8.45-9.96-14.5
			C248.6,156.77,251.64,155.75,255.1,157.11z"/>
		<path class="st73" d="M356.56,282.02c-18.52-3.78-32.25-16.4-33.6-34.12c-1.71-22.45-2.36-45.12,0.65-67.55
			c2.46-18.31,12.49-27.67,31.09-30.73c0.6,0.95,0.64,1.92,0.13,2.91c-0.99,0.79,0.54,0.21-0.59,0.72
			c-20.89,9.47-23.77,27.83-23.65,47.7c0.06,10.79,0.09,21.58-0.01,32.38c-0.16,18.45,5.35,33.75,23.06,42.49
			c1.43,0.71,2.55,1.87,3.37,3.28C357.37,280.16,357.22,281.13,356.56,282.02z"/>
		<path class="st74" d="M287.79,188.03c-2.01-1.4-1.77-3.76-2.47-5.73c0.21-6.39,0.43-12.79,0.65-19.18
			c7.61-3.72,15.22-5,22.82,0.02c0.01,8.9,0.01,17.8,0.02,26.7C302.03,186.76,295.03,186.05,287.79,188.03z"/>
		<path class="st75" d="M309.16,320.01c14-4.62,25.33-13.39,36.02-23.16c12.1-0.03,24.2-0.05,36.3-0.08
			c1.23,2.17,6.23,2.65,3.06,6.81c-0.56,0.31-1.14,0.79-1.72,0.76c-21.35-1.07-40.47,5.49-58.17,16.96
			c-1.01,0.35-2.04,0.58-3.09,0.73C317.29,322.21,312.9,323.1,309.16,320.01z"/>
		<path class="st76" d="M287.79,188.03c9.25-6.17,14.31-5.73,21.03,1.82c0.01,10.83,0.02,21.65,0.03,32.48
			c-4.36,0.12-3.52-3.57-4.24-5.98c-1.43-4.79-3.51-8.7-9.34-8.58c-0.53,0.52-1.15,0.91-1.82,1.21
			C291.56,202,289.68,195.02,287.79,188.03z"/>
		<path class="st77" d="M356.56,282.02c0.01-0.72,0.01-1.45,0.02-2.17c15.48,0.05,28.6-6.23,42.3-12.99
			c13.32-6.57,14.3-4.68,14.25-19.7c-0.09-24.25,2.11-21.97-21.95-22.15c-5.4-0.04-10.78,0.43-16.18,0.41
			c-2.25-0.3-4.12-1.22-5.28-3.27c14.62-4.24,29.53-1.77,44.3-1.53c4.32,0.07,5.7,4.36,5.67,8.6c-0.06,10.15,0.05,20.3-0.04,30.45
			c-0.06,6.77-3.32,11.37-10.39,10.55c-7.45-0.85-12.75,2.27-18.01,6.63C380.76,285.55,369.07,286.74,356.56,282.02z"/>
		<path class="st78" d="M308.8,163.15c-7.61-0.01-15.21-0.01-22.82-0.02c0-5.72,0.01-11.45,0.01-17.17
			c8.3-6.27,14.56-6.27,22.81,0.02C308.8,151.7,308.8,157.42,308.8,163.15z"/>
		<path class="st79" d="M385.2,302.47c-1.16-1.95-4.07-2.76-3.71-5.7c11.45,0,22.9,0,34.35,0c0.02,6.22,0.03,12.44,0.05,18.66
			c-5-1.16-9.99-2.33-14.99-3.49c-1.41-1.03-3.27-0.63-4.74-1.47C392.84,307.34,387.97,306.35,385.2,302.47z"/>
		<path class="st80" d="M308.8,145.97c-7.6-2.7-15.21-2.65-22.81-0.02c-0.02-1.91-0.06-3.82-0.06-5.73
			c0.04-11.14,7.81-16.59,18.55-13.17c3.36,1.07,4.34,3.38,4.35,6.5C308.83,137.7,308.81,141.84,308.8,145.97z"/>
		<path class="st81" d="M294.01,207.35c0.69-1.43-2.89-6.98,2.83-3.49c5.52,3.37,11.73,6.86,10.34,15.28
			c-0.16,0.95,1.07,2.12,1.66,3.19c-0.02,13.37-0.03,26.75-0.05,40.12c-0.61,0.85-1.2,0.84-1.78-0.02l-0.06-0.06
			c-4.26-5.28-2.14-11.53-2.51-17.37c-0.2-3.17,0.57-6.52-3.83-7.42C295.81,228.07,296.48,217.37,294.01,207.35z"/>
		<path class="st82" d="M369.71,222.16c1.34,0.47,2.69,0.94,4.03,1.41c0.05,4.51,2.65,6.76,6.74,7.96
			c7.37,2.18,13.51,5.85,14.49,14.39c0.74,6.42-2.44,11.26-7.88,13.99c-7.56,3.79-15.46,5.67-22.94-0.61
			c-0.47-1.83-0.02-2.92,2.12-2.66c2.49,0.5,4.96,1.33,7.47,1.43c6.76,0.26,12.21-2.26,13.26-9.47c1-6.88-3.92-10.26-9.63-12.37
			c-2.06-0.76-4.37-0.78-6.52-1.34c-3.23-0.84-6.19-2.35-6.5-6.06C364.05,225.19,366.01,222.84,369.71,222.16z"/>
		<path class="st83" d="M366.27,256.63c-0.63,0.56-1.26,1.13-1.88,1.69c-5.12,0.96-6.34-3.12-7.93-6.39
			c-2.11-4.32-2.65-9.05-2.69-13.82c-0.12-15.14-0.11-30.28,0-45.42c0.02-3.46,0.02-6.98,2.32-9.94c1.99-1.6,3.17-0.56,4.11,1.27
			c0.07,18.72,0.2,37.44,0.18,56.15C360.36,246.44,361.5,252.15,366.27,256.63z"/>
		<path class="st84" d="M360.19,184.02c-0.67-0.76-1.34-1.53-2.01-2.29c-2.72-9.03,4.19-11.01,10.1-12.6
			c6.76-1.82,13.78-1.03,20.55,1.17c4.75,1.54,9.46,3.87,13.28-2.28c4.29-6.9-0.77-9.56-4.92-12.9c-0.48-0.38-0.71-1.02-0.95-1.62
			c0.16-1.64,0.69-2.79,2.67-2.03c4.81,1.98,11.86,2.36,11.37,9.38c-0.5,7.27-4.62,13.72-9.55,19.04c-1.64,1.77-5.53,1.28-7.86-0.92
			c-3.65-3.45-8.46-4.24-12.94-5.41C369.9,170.91,364.24,174.16,360.19,184.02z"/>
		<path class="st85" d="M463.34,363.95c-5.36,7.95-10.2,16.45-20.38,19.32c-1.2,1.67-2.73,2.61-4.86,2.24
			c-2.05-0.81-2.63-2.45-2.51-4.48c2.63-5.45,8.75-6.83,12.79-10.79c3.28-3.21,5.15-5.94,3.78-10.38c2.59-1.27,5.17-2.55,7.76-3.82
			C462.23,358.16,463.54,360.72,463.34,363.95z"/>
		<path class="st86" d="M509.54,275.61c-0.78,0.77-1.56,1.55-2.34,2.32c-3.82-0.19-5.13-3.16-6.5-5.97
			c-7.67-15.8-7.66-15.81-25.21-14.97c-2.37,0.81-2.74-0.49-2.55-2.4C491.73,245.1,508.59,254.79,509.54,275.61z"/>
		<path class="st87" d="M473.24,255.29c0.75,0.57,1.5,1.13,2.26,1.7c-4.87,2.71-9.76,5.14-12.71,10.48
			c-8.32,15.07-15.49,17.25-31.84,10.36c1.52-0.35,3.26-0.27,4.03-2.08c2.36-1.33,4.91-0.82,7.37-0.59
			c7.06,0.66,11.58-2.05,15.05-8.54C460.58,260.67,464.01,253.5,473.24,255.29z"/>
		<path class="st88" d="M354.68,151.35c-0.03-0.57-0.02-1.15,0.02-1.72c11.26-4.17,22.71-3.88,34.25-1.49
			c0.24,2.21-1.38,2.87-2.97,3.55C375.54,152.05,365.07,154.97,354.68,151.35z"/>
		<path class="st89" d="M280.2,174.8c-5.07-4.59-10.13-9.18-15.2-13.77c0.82-1.53,2.33-1.66,3.81-1.85
			C273.74,163.56,279.17,167.58,280.2,174.8z"/>
		<path class="st90" d="M307.02,262.43c0.59,0,1.19,0.01,1.78,0.02c0.03,10.79,0.05,21.59,0.08,32.38
			C304.78,284.23,307.94,273.22,307.02,262.43z"/>
		<path class="st91" d="M386.7,150.2c0.75-0.69,1.5-1.38,2.25-2.07c3.66,0.08,6.99,1.18,9.97,3.32c-0.7,0.65-1.41,1.31-2.11,1.96
			C392.31,155.85,388.97,154.7,386.7,150.2z"/>
		<path class="st92" d="M240.24,474.5c-4.19,2.44-8.91,3.2-13.56,4.16c-0.95,0.36-1.79,0.18-2.52-0.53
			c-0.18-10.01-0.92-19.94-3.07-29.78c-1.31-6,2.94-10.19,6.19-14.4c4.95-6.4,8.44-12.14,5.46-21.39
			c-2.44-7.56,1.52-16.21,1.7-24.47c1.95-5.49,4.53-12.43,10.26-12.42c5.36,0.01,2.69,8.07,5.16,11.94c0.67,1.04,0.94,2.35,1.69,3.4
			c6.33,8.22,7.98,18.32,11.24,27.79c0.79,4.12,3.54,8.46-1.21,12.03c-3.02,0.64-4.18-1.62-5.56-3.54
			c-1.69-2.28-1.59-5.45-4.08-8.06c-7.78,8.17-11.64,18.57-17.11,27.95c4.07-2.56,6.03-11.68,12.03-6.97
			c4.39,3.45-2.24,8.05-4.26,12.01c-1.48,2.91-3.63,4.12,1.24,7.68C249.68,464.17,242.79,469.78,240.24,474.5z"/>
		<path class="st93" d="M399.08,477.91c1.11,0.23,2.22,0.47,3.33,0.7c-14.25,4.17-28.03,0.25-41.87-2.46
			c-4.64-11.17-9.77-22.29-5.33-34.81c1.22-3.44,1.03-6.86,0.79-10.35c2.3-4.05,5.22-8,2.39-13.01c-2-6.46-3.5-13.02-4.08-19.77
			c0.08-4.68,2.27-7.67,6.93-8.7c0.99-0.19,1.97-0.11,2.93,0.19c2.85,2.04,4.57,4.82,5.32,8.23c-4.47,10.64-2.08,20.42,4.03,29.57
			c1.49,2.23,2.31,4.38,2.08,6.98c-2.51,6.64-0.33,12.57,2.79,18.37c0.84,7.51,8.2,12.7,7.3,20.97c-0.28,2.62,2.64,2.02,4.38,2.03
			C393.25,475.86,396.36,475.97,399.08,477.91z"/>
		<path class="st94" d="M356.53,430.93c3.96,1.94,3,5.81,1.83,8.13c-6.51,12.92,2.09,24.72,2.18,37.09
			c-19.32-7.86-36.58-18.21-45.92-38.1c0.85-2.37,2.84-3.95,5.03-3.62c10.86,1.65,20.43-2.65,30.26-5.93
			c0.89-0.29,1.88-0.09,2.83-0.01C354.33,428.81,355.71,429.44,356.53,430.93z"/>
		<path class="st95" d="M257.4,426.61c1.21,1.3,2.42,2.61,3.63,3.91c1.25,0.04,2.47,0.26,3.69,0.54c4.16,0.97,8.47,1.47,10.22-3.54
			c1.62-4.65-2.3-6.54-5.46-8.55c-1.32-0.84-2.62-1.69-3.79-2.73c-2.45-2.37-4.41-5-4.54-8.59c0.01-1.44,0.36-2.79,1.12-4.01
			c3.98-2.16,4.58-5.28,3.19-9.44c-0.67-2.02-0.53-4.78,2.15-5.55c2.03-0.58,3.25,1.49,4.51,2.82c0.87,0.92,1.98,1.93,2.12,3.1
			c1.37,11.79,10,19.34,16.32,28.24c0.11,5.4-1.25,10.16-5.91,13.46c-8.9,14.17-19.2,26.89-35.02,33.92
			C248.64,455.02,249.84,440.25,257.4,426.61z"/>
		<path class="st96" d="M257.4,426.61c-2.6,14.52-5.19,29.05-7.79,43.57c-2.36,3.1-6.63,2.06-9.38,4.32
			c-1.76-5.19,7.02-8.62,2.4-14.28c-3.21-1.17-2.16,5.58-5.3,3.17c-2.28-1.75-0.91-4.78,0.38-7.01c2.94-5.08,6.04-10.06,9.85-16.37
			c-6.88,1.21-8.22,6.2-10.93,9.53c-0.9,1.11-0.67,3.3-3.08,2.28c-1.89-0.8-1.91-2.07-1.22-3.82c4.56-11.59,11.14-22.04,18.24-32.16
			c2.2-3.13,4.11-2.33,4.75,1.53C255.85,420.49,256.7,423.54,257.4,426.61z"/>
		<path class="st97" d="M284.63,436.26c1.67-4.48,3.35-8.96,5.02-13.43c-0.25-4.02,0.81-7.56,3.79-10.41
			c2.98-1.72,6.04-3.03,9.58-1.73c3.19,3.03,3.89,7.32,5.67,11.08c0.54,3.43,3.71,6.48,1.49,10.31c-2.29,4.39-0.7,9.15-1.33,13.7
			c-6.07,7.62-12.44,8.68-22.84,3.8C285.33,445.16,286.98,440.5,284.63,436.26z"/>
		<path class="st98" d="M224.89,478.06c0.65,0.05,1.25,0.25,1.8,0.59c-8.87,2.56-17.88,2.07-26.91,1.26
			c-0.84-1.37-0.72-4.43-1.33-4.28c-9.19,2.24-7.95-4.56-8.24-9.54c-0.34-5.74,1.69-10.02,8.45-10.04c0.86-0.05,1.72,0.06,2.56,0.26
			c0.78,0.33,1.46,0.82,2.05,1.41c2.12,2.04,3.2,0.92,3.78-1.33c0.61-2.4,0.35-5.07,2.28-7.05c5.58-0.41,7.86,3.75,10.42,7.52
			c0.2,0.9,0.17,1.8-0.09,2.69c-1.4,2.42-2.85,4.82-3.49,7.59c2.03-1.64,2.7-5.32,6.5-4.34
			C226.24,467.48,222.3,473.25,224.89,478.06z"/>
		<path class="st99" d="M286,449.57c7.72-0.64,16.04,2.34,22.84-3.8c-0.02,8.25-0.04,16.51-0.07,24.76
			c-7.58,4.46-15.16,4.44-22.75,0.01C286.02,463.55,286.01,456.56,286,449.57z"/>
		<path class="st100" d="M286.03,470.54c7.58,0,15.17-0.01,22.75-0.01c0.03,4.12-0.15,8.26,0.13,12.37
			c0.46,6.72-2.72,8.78-9.11,8.82c-13.37,0.09-13.82-0.09-13.86-13.56C285.93,475.62,286,473.08,286.03,470.54z"/>
		<path class="st101" d="M352.78,430.23c-12.14,5.44-25.01,7.31-38.16,7.82c-0.75-1.07-1.51-2.14-2.26-3.21
			c-2.2-4.64,3.44-7.34,2.85-11.59c2.31-7.27,9.26-2.41,13.32-5.13c6.02-1.85,8.77,5.26,14.17,5.13c2.94,1.65,6.06,2.22,9.45,2.56
			C355.83,426.18,356.04,428.25,352.78,430.23z"/>
		<path class="st102" d="M200.1,457.27c-8.68,2.57-9.77,5.76-5.91,17.59c3.41,0.41,1.72-7.44,6.02-4.28
			c3.42,2.51,1.39,6.27-0.44,9.34c-6.22,1.24-11.43-1.92-16.91-3.9c4.35-8.12-0.69-17.53,3.6-25.81c1.03-1.99,1.01-4.18,3.87-4.23
			c1.44-0.1,2.72,0.38,3.96,1.02C197.8,449.52,203.72,450.7,200.1,457.27z"/>
		<path class="st103" d="M316.48,424.74c4.28,5.67-5.75,5.52-4.12,10.11c-0.73-0.92-1.45-1.84-2.18-2.77
			c-1.02-3.04-2.03-6.08-3.05-9.11C310.67,421.32,313.68,422.44,316.48,424.74z"/>
		<path class="st104" d="M129.29,401.87c-2.62,1-3.6,3.1-3.82,5.71c-4.37-12.39,0.88-24.11,2.93-35.91
			c2.82-16.25,13.29-28.37,24.24-39.97c3.69-3.91,7.34-7.86,11-11.8c14.02-10.87,30.33-12.94,47.34-12.36
			c14.98-0.92,28.93,2.51,41.89,10.02c15.82,9.2,25.72,23.69,34.79,38.95c4.15,9.63,7.92,19.38,8.51,30.02
			c-0.17,3.83,0.31,7.71-0.87,11.46c-3.18,4.64-5.15,1.89-6.12-1.4c-0.95-3.21-0.59-6.81-2.96-9.61
			c-2.22-8.74-11.79-5.74-16.58-10.36c-7.42-5.38-16.83-8.28-21.17-17.48c-1.5-3.19-4.51-0.25-6.71-0.99
			c-1.19-5.23-4.58-10-3.42-15.71c0.62-3.08-2.1-2.61-3.46-3.12c-4.12-1.54-8.18-3.08-11.5-6.1c-11.66-3.8-22.26-3.41-31.34,6.37
			c-5.33,5.74-12.44,9.8-15.41,17.72c-1.14,3.03-4.41,4.41-7.06,6.16c-6.21,4.08-11.31,9.17-14.18,16.2
			c-1.69,4.92-5.92,7.42-9.75,10.3C140.34,394.15,134.14,397.08,129.29,401.87z"/>
		<path class="st105" d="M167.29,295.11c-9.25-5.84-18.21-12.01-24.48-21.28c8.87-8.43,32.4-10.45,42.49-3.66
			c1.91,3.44,5.28,5.24,8.41,7.32c3.64,4.05,4.59,9.04,5,14.22c0.07,4.25,0.64,8.57-1.66,12.51
			C186.86,307.77,174.85,304.09,167.29,295.11z"/>
		<path class="st106" d="M135.17,182.22c0.65,0,1.3,0.01,1.96,0.01c5.9,5.55,11.63,11.27,17.63,16.69c2.22,2.59,4.74,0.67,7.1,0.41
			c3.53-0.39,7-0.41,10.28,1.16c3.18,1.52,5.06,3.94,4.51,7.58c-0.62,4.08-3.85,5.03-7.15,4.64c-4.46-0.53-8.85,0.36-13.24,0
			c-4.01-0.32-8.02-1.41-12.36,0.6c11.53,3.03,22.92-3.6,33.91,1.29c0.89,1.3,1.35,2.73,1.53,4.28c0.03,4.49-0.73,8.79-6.54,7.97
			c-16.21-2.28-32.61-0.68-48.82-2.69C123.25,208.99,125,194.49,135.17,182.22z"/>
		<path class="st107" d="M184.51,271.8c-10.02-7.09-20.57-1.39-30.85-1.08c-3.65,0.11-7.24,2.02-10.85,3.11
			c-6.41-7.15-11.07-15.25-13.37-24.63c2.31-2.59,5.22-1.65,7.98-1.28c5.09,0.68,10.07,0.81,14.79-1.7c1.69-0.9,3.8-1.8,5.46-1.16
			c8.34,3.22,16.97,2.2,25.55,2.26c5.14,3.48,0.91,9.18,3.2,13.35c0.52,2.43,0.75,4.88,0.37,7.36
			C186.46,269.56,185.85,270.9,184.51,271.8z"/>
		<path class="st108" d="M182.95,249.05c-2.15-1.1-4.29-1.09-6.31,0.25c-4.71,3.12-9.02,3.86-13.38-0.94
			c-1.77-1.95-5.42-1.99-7.24-0.84c-8.69,5.48-17.63,2.89-26.59,1.69c-3.51-6.55-4.52-13.72-5.11-20.98
			c18.4,2.2,36.7-6.31,55.15-0.53C182.98,234.43,186.81,241.11,182.95,249.05z"/>
		<path class="st109" d="M167.29,295.11c8.98,5.26,18.54,8.7,29.01,9.34c4.18-1.45,7.63,1.69,11.57,1.81
			c1.71,0.6,3.61,1.02,3.47,3.46c-16.95-1.53-32.14,5.19-47.69,10.19c-1.89-0.12-3.78-0.23-5.66-0.35
			c-5.87-6.37-6.46-13.17-1.95-22.77C159.76,296.06,163.9,298.05,167.29,295.11z"/>
		<path class="st110" d="M156.04,296.79c0.78,7.58-1.82,15.45,1.95,22.77c-6.36,0.02-12.73,0.05-19.09,0.07
			c-5.9-6.44-6.47-13.24-1.93-22.8C143.32,296.82,149.68,296.8,156.04,296.79z"/>
		<path class="st111" d="M136.97,296.83c0.72,7.59-1.82,15.46,1.93,22.8c-3.15,0.03-6.35-0.29-9.44,0.16
			c-8.46,1.24-11.16-3.31-11.6-10.7c-0.57-9.59,1.79-12.19,11.55-12.3C131.92,296.77,134.44,296.82,136.97,296.83z"/>
		<path class="st112" d="M178.91,228.05c-11.39-1.62-22.37-0.35-33.45,3c-6.98,2.11-14.22-0.79-21.14-2.84
			c-0.11-1.35-0.22-2.7-0.34-4.05c12.35-3.99,24.9-0.97,37.35-1.01c3.11-0.01,6.34,0.28,9.32,1.14c6.05,1.73,6.94-1.57,6.8-6.26
			C182.47,220.72,181.68,224.24,178.91,228.05z"/>
		<path class="st113" d="M154.32,379.28c0.93-9.03,7.71-13.46,14.28-18.01c2.3-1.6,5.59-2.17,6.46-5.25
			c3.41-12.06,14.59-17.05,22.95-24.2c7.8-6.67,17.77-3.21,26.83-0.64c-1.22,8.53,1.31,17.94-6.88,24.75
			c-3.62,3-2.81,8.95-6.49,12.27c-4.86,7.49-10.83,14.4-8.29,24.61c1.06,4.27-3.08,7.18-5.26,10.51c-8.01,7.92-8.01,7.92-1.39,13.91
			c1.62,5.52-2.29,7.54-6.09,9.62c-9.22-1.4-4.46-8.72-5.72-13.49c-3.51-4.18-2.69-9.17-2.69-14.01c0.29-6.92-0.7-13.69-2.66-20.32
			c-0.73-1.68-1.45-3.37-1.93-5.13c-0.09-5.7-1.51-8.57-6.92-3.32c-1.54,1.49-3.03,3.02-4.66,4.42c-0.64,0.56-1.33,1.04-2.06,1.49
			C160.74,377.75,158.01,380.14,154.32,379.28z"/>
		<path class="st114" d="M129.29,401.87c1.73-8.42,10.3-8.81,15.47-13.2c3.41-1.14,4.58,1.76,6.39,3.52c0.86,1.81,1,3.63,0.04,5.46
			c1.26-1.17,1.26-3.18,2.71-4.18c5.18-3.6,5.65,0.8,6.8,4.04c0.06,0.94-0.27,1.73-0.97,2.35c-5.65,3.31-8.58,9.92-15.46,11.95
			C134.61,414.67,130.29,412.07,129.29,401.87z"/>
		<path class="st115" d="M159.73,399.86c-0.04-0.72-0.09-1.43-0.13-2.15c0.22-2.83,2.26-2.66,4.24-2.6
			c6.81,2.07,14.51-2.09,20.9,2.95c-0.01,5.1-0.02,10.2-0.03,15.3c-1.85,0.09-2.77,0.73-2.55,2.89c0.34,3.34-1.86,4.61-4.75,4.33
			c-2.51-0.24-4.24-2.22-3.96-4.59C174.69,405.54,167.76,402.29,159.73,399.86z"/>
		<path class="st116" d="M192.75,433.9c-0.12-0.5-0.3-0.97-0.54-1.42c-1.77-5.95,4.53-8.68,5.4-13.57
			c4.66,0.56,9.46-0.16,14.03,1.44c1.01,0.93,1.65,2.1,2.22,3.33c5.21,8.42,5,9.06-3.8,11.65c-4.2-2.58-8.46-3.11-12.81-0.33
			c-0.83,0.31-1.68,0.45-2.56,0.43C193.78,435.25,193.13,434.75,192.75,433.9z"/>
		<path class="st117" d="M192.75,433.9c0.47,0.18,0.93,0.34,1.41,0.5c3.28,5.57,11.08,5.48,14.19,11.29
			c-1.86,3.99-0.53,9.7-6.25,11.62l-0.34-0.17c-0.11-6.24-3.82-8.82-9.53-9.36c-0.64-0.6-1.27-1.2-1.91-1.79
			c0.13-4.18-2.94-3.94-5.7-4.12C180.64,432.36,190.6,437.13,192.75,433.9z"/>
		<path class="st117" d="M182.67,443.78c0.6,4.26-0.21,8.3-3.05,11.49c-2.31,2.59-3.97,6.48-9.12,4.51c-5.8-2.23-3.85-6.14-3.14-10
			C173.93,451.53,177.15,444.72,182.67,443.78z"/>
		<path class="st118" d="M198.68,419.12c-0.3,5.35-4.7,8.72-6.47,13.36c-2.87-1.16-3.29-3.08-1.78-5.62
			c-0.76-4.51,6.15-4.66,5.27-9.24c0.28-0.31,0.56-0.61,0.84-0.92C197.98,416.86,198.75,417.63,198.68,419.12z"/>
		<path class="st117" d="M176.92,436.37c1.25,0.05,3.06,0.06,3.06,2.18c0,1.72-1.38,2.71-3.03,3.01c-1.78,0.32-3.17-0.38-3.28-2.3
			C173.55,437.39,174.83,436.54,176.92,436.37z"/>
		<path class="st119" d="M412.06,388.1c4.76,4.17,4.29,8.65,2.09,14.24c-2.56,6.52-3.66,13.61-5.39,20.45
			c-0.16,1.29-0.33,2.59-0.49,3.88c-0.9,3.33-0.25,7.31-3.95,9.47c-2.76,2.07-1.41,5.13-1.86,7.76c0.72,0.41,0.96,0.82,0.72,1.24
			c-0.24,0.41-0.48,0.62-0.72,0.62c-1.32,2.54-2.63,5.07-3.95,7.61c-3.4,4.21-7.73,4.91-12.66,3.34c-3.33-1.81-5.12-4.55-4.98-8.41
			c1.39-2.32,3.6-1.69,5.72-1.62c6.9,0.21,10.15-3.14,9.57-10.08c1.65-5.74,3.43-11.37,5.98-16.84c3.73-7.99,2.38-16.52,0.79-24.9
			c1.56-4.52,3.01-9.09,6.01-12.95c6.1-4.28,11.03-11.11,19.98-9.27c2.06,5.18-2.68,7.33-4.75,10.67
			C420.6,386.07,416.54,387.6,412.06,388.1z"/>
		<path class="st120" d="M385.14,455.23c4.66,0.87,8.99-0.64,13.36-1.86c0.19,8.18,0.38,16.36,0.57,24.54
			c-2.82,0.13-5.65,0.18-8.46,0.42c-5.36,0.46-8.92-0.06-7.53-7.31c1.02-5.31-4.07-8.88-6.28-13.3c-0.82-1.64-3.87-3.68,0.82-4.24
			C380.67,451.74,382.77,454.09,385.14,455.23z"/>
		<path class="st121" d="M404.31,436.14c0.83-3.36,1.34-6.85,3.95-9.47c5.94,3.98,14.33-1.41,19.4,6.9
			C421.6,441.85,412.74,437.81,404.31,436.14z"/>
		<path class="st122" d="M402.45,445.76c-0.05-0.62-0.05-1.24,0-1.85c4.05,0.1,8.11,0.22,12.16,0.3c2.21,0.04,4.56-0.13,5.41,2.54
			c0.24,0.75,0.04,2.27-0.41,2.48c-2.23,1.05-4.74,2.45-7.1,1.11C409.28,448.51,406.4,446,402.45,445.76z"/>
		<path class="st123" d="M421.54,422.95c-1.64-2.02-3.27-4.04-5-6.18c4-2.84,7.28,0.25,10.72,0.4
			C428.01,421.73,425.54,423.09,421.54,422.95z"/>
		<path class="st124" d="M178.91,228.05c-0.31-3.36,0.7-6.91-1.46-10.01c-0.13-1.13-0.25-2.25-0.38-3.38
			c-0.48-6.89-3.51-13.38-3.25-20.38c2.66-10.01,2.66-10.02-7.33-12.66c-3.8-1-6.11-2.91-4.67-7.26
			c10.72,2.12,15.15-8.07,22.93-11.71c1.2,1.13,1.68,2.57,1.86,4.15c2.94,17.88,6.99,35.52,12.05,52.92
			c3.77,12.98-3.37,33.36-14.28,40.53c-4.49-3.23,1.88-7.84-1.43-11.22C181.61,242.05,180.26,235.05,178.91,228.05z"/>
		<path class="st125" d="M161.82,174.37c1.35,2.62,1.76,5.16,6.28,5.3c12.87,0.39,13.57,2.4,6.67,14.31
			c-3.88,6.87-8.67,8.17-20.8,5.67c-6.57-4.87-14.75-8.2-16.84-17.41C146.35,171.65,150.38,170.37,161.82,174.37z"/>
		<path class="st126" d="M185.24,166.96c-0.16-1.43-0.33-2.86-0.49-4.3c0.69-7.01,2.64-12.66,11.59-10.83
			c3.97,1.62,8.19,1.16,12.11,0.54c4.59-0.72,8.03,0.3,10.97,3.67c1.45,11.3-7.7,24.4-18.27,25.99c-6.12,0.92-10.37-1.82-12.99-7.27
			C186.96,172.25,187.79,168.97,185.24,166.96z"/>
		<path class="st127" d="M218.82,157.78c-3.5-3.61-7.77-4.55-12.71-4.31c-3.26,0.16-6.89,1.04-9.77-1.64
			c5.97-0.49,11.95-1.46,17.89-1.28c3.26,0.1,6.97,1.27,8.82,4.84c0.72,1.99,2.14,3.26,4.07,4.01c2.67,1.74,3.66,3.69,0.75,6.12
			c-0.88,0.14-1.72,0.03-2.54-0.31C221.74,163.98,220.7,160.52,218.82,157.78z"/>
		<path class="st128" d="M589.72,258.44c9.1,0.15,18.2,0.39,27.3,0.42c5.8,0.02,10.43,1.86,13.13,7.32
			c0.23,6.52-3.35,11.03-9.32,11.08c-19.95,0.18-39.96,2.09-59.86-1.07c-4.06-2.52-4.6-6.54-4.6-10.79
			c0-34.87-0.02-69.74,0.01-104.62c0-2.82-0.18-5.8,2.66-7.68c25.31,0,25.31,0,25.32,25.43c0,23.13-0.01,46.26,0.01,69.39
			C584.37,252.31,583.65,257.12,589.72,258.44z"/>
		<path class="st129" d="M910.58,151.36c6.74-2.51,13.44-3.24,17.72,3.83c3.64,6.02,1.72,11.42-3.73,15.87
			c-4.71,3.85-1.8,7.85,1.37,10.22c4.79,3.58,5.42,7.99,5.39,13.33c-0.15,24.47-0.31,48.94,0.09,73.4
			c0.12,7.34-1.72,10.75-9.57,9.85c-5.34-0.61-10.78-0.35-16.18-0.48c-2.52-8.38-0.99-16.96-1.11-25.43
			c-0.27-18.65,0.43-37.33-0.33-55.95c-0.32-7.87,3.9-12.31,7.6-18.09c4.76-7.45-9.05-9.89-6.61-17.92
			C906.27,156.48,907.8,153.63,910.58,151.36z"/>
		<path class="st0" d="M473.24,255.29c-6.69,1.53-10.8,6.1-13.86,11.86c-6.08,11.46-11.15,13.26-24.4,8.61
			c5.42-21.46,14.12-41.83,20.97-62.82c5.58-17.1,11.4-34.12,17.06-51.19c1.33-4.02,2.69-7.88,7.71-8.51
			c16.9-1.6,16.91-1.6,22.29,14.94c10.81,33.16,21.49,66.36,32.51,99.46c2.49,7.48,1.16,10.87-7.27,10.13
			c-6.26-0.55-12.75,1.03-18.71-2.14c-0.64-1.08-1.64-2.08-1.88-3.24C503.85,254.29,490.55,250.61,473.24,255.29z"/>
		<path class="st0" d="M1000.29,153.3c16.39-1.3,16.38-1.3,21.87,14.84c0.8,2.35,1.84,4.62,2.77,6.93
			c6.22,25.57,16.13,49.97,23.9,75.06c2.06,6.65,4.49,13.18,6.64,19.8c1.68,5.17,0.05,8.06-5.74,7.72c-6.9-0.4-14,1.33-20.61-2.02
			c-0.78-1.36-1.85-2.64-2.29-4.1c-3.27-11.02-9.32-18.49-21.99-18.22c-12.66,0.27-22.58,4.34-27.62,17.22
			c-3.16,8.1-10.37,9.46-22.74,5.42c0.91-8.93,5-16.9,7.8-25.25c9.87-29.41,19.98-58.75,29.92-88.14
			C993.66,158.27,994.69,153.85,1000.29,153.3z"/>
		<path class="st0" d="M873.49,277.32c-9.32-0.06-18.75,2.1-27.93-1.26c-6.16-10.73-12.33-21.46-18.47-32.2
			c-3.12-5.48-6.37-7.23-10.09-0.53c-4.71,7.44-9.51,14.82-14.09,22.33c-7.82,12.83-17.06,15.76-31.48,9.79
			c6.37-15.92,16.16-29.98,25.18-44.35c6.01-9.56,6.59-17.06,0.46-26.86c-8.85-14.15-16.01-29.36-23.83-44.15
			c-1.12-2.12-3.15-4.36-0.23-6.69c1.26-0.05,2.52-0.12,3.78-0.14c26.41-0.45,27.59,0.34,37.53,25.46c1.61,4.08,3.2,8.14,6.41,11.3
			c5.17,6.93,8.74,2.5,11.47-2.06c5.02-8.41,9.44-17.17,14.23-25.72c1.85-3.3,3.49-6.81,6.81-9.03c3.03-0.94,6.07-1.69,9.3-1.06
			c9.34,1.82,11.99,7.32,7.42,15.66c-6.96,12.7-13.72,25.53-21.05,38.01c-4.11,7-4.46,13.16-0.25,20.34
			c7.99,13.62,15.33,27.62,22.86,41.5C873.14,270.64,875.6,273.54,873.49,277.32z"/>
		<path class="st0" d="M744.91,256.59c1.61,4.72,3.22,9.44,4.82,14.17c0.76,4.09-0.34,6.9-5.08,6.73
			c-7.11-0.26-14.36,1.28-21.26-1.66c-3.29-2.87-3.83-7.14-5.51-10.82c-2.64-5.78-6.28-10.18-13.23-10.46
			c-13.39-3.22-26.35,0.09-30.57,10.64c-4.95,12.37-13.37,13.73-24.24,12.25c-2.11-2.18-1.53-4.63-0.68-7.09
			c13.26-38.33,26.53-76.66,39.8-114.98c20.57-6.65,20.62-6.67,27.26,13.27c4.3,12.89,7.25,26.23,12.78,38.72
			C734.31,223.76,739.61,240.17,744.91,256.59z"/>
		<path class="st130" d="M478.3,68.37c0.1,7.6-8.42,17.14-14.8,16.91c-5.68-0.2-8.77-3.55-9.09-9.03
			c-0.41-7.02,8.33-16.75,14.67-16.42C474.64,60.13,477.51,63.58,478.3,68.37z"/>
		<path class="st131" d="M460.62,529.74c8.27,0.38,15.73,11.89,13.07,18.6c-1.1,2.76-2.92,5.21-5.65,6.15
			c-3.82,1.33-4.47-2.7-6.13-4.66c-2.46-2.9-4.6-6.08-6.64-9.29c-1.26-1.98-4.5-3.78-2.7-6.38
			C454.57,531.28,458.02,529.95,460.62,529.74z"/>
		<path class="st132" d="M289.28,18.33c-1.36,5.41-0.34,13.41-10.21,13.29c-6.68-0.08-10.39-6.21-9.96-16.6
			c0.27-6.52,2.2-12.13,10.16-12.19C285.38,2.78,289.41,8.96,289.28,18.33z"/>
		<path class="st133" d="M315.56,3.07c3.33,0.76,5.14,2.18,5.26,5.24c0.14,3.6-1.16,6.22-4.83,7.16c-2.77,0.71-3.31-1.14-3.13-3.22
			C313.14,8.98,312.47,5.29,315.56,3.07z"/>
		<path class="st134" d="M107.65,73.49c7.18-0.14,16.22,9.25,15.92,16c-0.24,5.58-3.51,8.76-9.03,9.06
			c-6.28,0.34-15.56-9.34-15.19-15.93C99.67,77.13,103.04,74.15,107.65,73.49z"/>
		<path class="st135" d="M392.64,28.01c0.54,3.41,2.38,6.53-0.87,8.77c-0.69,0.48-3.69-0.69-3.97-1.61
			C386.62,31.32,389.86,30.04,392.64,28.01z"/>
		<path class="st136" d="M316.89,586.75c0.16-2.44-0.93-5.73,3.12-5.43c3.48,0.26,4.34,3.08,4.43,6.11
			c0.09,3.19-1.28,6.19-4.48,5.97C316.12,593.14,317.8,589.01,316.89,586.75z"/>
		<path class="st137" d="M556.94,432.53c-0.91,2.71,0.41,7.63-5.42,5.5c-1.06-1.72-3.22-4.78-3.02-4.94
			C551.05,431.02,554.07,432.48,556.94,432.53z"/>
		<path class="st20" d="M45.7,409.48c2.04,6.05-0.25,10.39-5.53,13.35c-6.34,3.56-12.76,5.52-19.03-0.23
			c-2.58-6.55-1.09-11.73,5.31-15.03C33.22,404.07,39.98,401.78,45.7,409.48z"/>
		<path class="st138" d="M354.73,593.18c-11.52,0.3-2.85-6.04-3.11-9.44C352.4,586.97,357.83,588.67,354.73,593.18z"/>
		<path class="st139" d="M396.74,310.12c1.38,0.61,2.77,1.21,4.15,1.82c-7.23-0.84-11.78,0.56-10.43,9.67
			c0.5,3.39-2.8,7.2-2.82,10.83c-0.04,8.83,8.69,13.12,18.15,9.25c2.17-0.89,3.91-3.86,6.54-1.04c0.55,0.59,0.96,1.8,0.76,2.53
			c-0.86,3.06-3.54,3.09-6.1,3.38c-2.01,0.23-5.09-0.96-5.44,2.17c-0.28,2.58,2.66,3.14,4.48,4.3c6.38,4.06,13.33,5.97,20.83,4.86
			c6.28-0.94,8.25,2,7.89,7.63c0.79,0.84,0.83,1.71,0.12,2.61c-12.57,5.39-24.36,5.83-36.77-1.97c-7.08-4.45-16.12-4.15-24,0.82
			c-8.05,5.07-16.3,6.97-24.83,1.01c-3.72-2.54-7.28-5.29-10.61-8.33c-4.19-2.94-7.86-6.56-12.07-9.5
			c-2.43-1.88-5.48-3.08-6.86-6.13c5.08-12.4,15.5-19.52,26.13-26.45c13.62-7.04,28.09-10.35,43.41-10
			C392,307.73,394.57,308.37,396.74,310.12z"/>
		<path class="st140" d="M434.68,367.03c-0.09-0.52-0.06-1.03,0.07-1.53c5.8-1.88,11.59-3.76,17.39-5.64
			c4.49,2.41,7.19,5.04,1.39,9.09c-5.6,3.91-10.05,9.48-16.8,11.76c-4.2,3.4-8.47,6.29-13.74,1.9c0.26-4.3,5.21-5.69,5.98-9.67
			C428.26,368.45,434.25,370.42,434.68,367.03z"/>
		<path class="st90" d="M301.31,237.6c2.96-1.87,6.03-4.71,5.71,2.31c-0.33,7.48-0.07,14.98-0.06,22.47
			c-9.27,9.35-16.36,20.1-20.99,32.45c-3.82-4.26-2.59-9.19-1.9-14.05c6.51-11.83,11.43-24.27,14.19-37.54
			C298.7,241.11,299.38,238.98,301.31,237.6z"/>
		<path class="st141" d="M286.15,321.72c2.46,3.48,2.41,8.08,5.96,11.3c3.03,2.75,5.23,6.75,9.97,5.03c4-1.45,5.14-5.12,4.91-9.23
			c-0.1-1.88-0.04-3.78,1.55-5.19c3.98,3.37,2.62,7.97,2.84,12.21c-0.04,1.62-0.33,3.2-0.77,4.76c-1.81,5.07-3.54,10.66-10.01,11.05
			c-5.77,0.34-8.63-4.39-11.51-8.53c-1.97-2.83-3.94-5.67-4.93-9.05C283.44,329.73,282.39,325.34,286.15,321.72z"/>
		<path class="st142" d="M274.54,296.95c-6.63,13.82-5.21,17.2,9.42,22.45c-2.83,3.45-6.55,2.69-10.22,2.19
			c-2.13-0.55-4.33-1.09-6.16-2.26c-15.85-10.09-14.31-17.13-1.41-23.53c1.42-0.63,2.9-0.9,4.45-0.86
			C272.19,295.1,273.56,295.63,274.54,296.95z"/>
		<path class="st143" d="M274.54,296.95c-1.23-0.28-2.45-0.56-3.68-0.84c1.69-8.05,8.43-11.93,13.91-16.85
			c0.42,0.15,0.84,0.31,1.26,0.46c-0.02,5.04-0.05,10.07-0.07,15.1C282.64,298.16,278.27,295.85,274.54,296.95z"/>
		<path class="st144" d="M309.37,336.76c-0.28-4.38-0.55-8.76-0.83-13.13c0.21-1.2,0.41-2.41,0.62-3.62c4.32,0,8.65,0.01,12.97,0.01
			C320.83,327.84,317.16,333.87,309.37,336.76z"/>
		<path class="st145" d="M272.45,319.36c3.84,0.01,7.67,0.02,11.51,0.04c0.73,0.78,1.46,1.55,2.19,2.33
			c-0.04,4.42-0.07,8.85-0.11,13.27c-0.43,0.13-0.85,0.26-1.28,0.39c-5.28-4.04-10.34-8.29-12.8-14.77
			C272.12,320.19,272.29,319.77,272.45,319.36z"/>
		<path class="st146" d="M438.78,384.66c1.39-0.47,2.79-0.93,4.17-1.4c7.03,7.75,6.66,9.37-2.8,12.55c-1.8,0.61-3.55,1.6-5.39,1.79
			c-2.63,0.26-6.01,3.85-7.68,0.65c-2.56-4.88,4.57-2.74,5.35-5.71C432.37,388.16,434.43,385.49,438.78,384.66z"/>
		<path class="st147" d="M438.78,384.66c-2.11,2.63-4.23,5.26-6.35,7.89c-7.01-0.48-13.15-4.97-20.38-4.44
			c3.95-1.24,6.33-5.6,10.95-5.49c4.93,1.97,8.99-2.49,13.74-1.9C436.86,382.32,437.13,383.84,438.78,384.66z"/>
		<path class="st148" d="M226.75,164.99c2.47-1.71,0.19-3.73,0.37-5.59c8.88-6.19,18.38-4.87,27.98-2.29c-3,0.9-6,1.8-8.99,2.7
			c-2.46,4.61-9.7,6.5-7.76,13.63C231.03,176.08,228.94,174.56,226.75,164.99z"/>
		<path class="st149" d="M226.75,164.99c3.72,2.65,3.35,11.31,11.32,7.71c6.37-1,12.78-4.55,19.08,0.23
			c6.21,3.18,10.86,7.58,11.7,14.95c0.02,3.55-2.13,5.77-4.7,7.73c-4.21,2.87-7.66,7.37-13.63,1.61c-3.61-3.48-7.35,4.23-11.99,2.47
			c-6.01,2.4-3.58,8.95-6.35,12.92c-2.23,5.86-5.05,11.36-5.18,18.03c-0.14,7.8-2.08,8.45-9.46,4.88c-3.15-1.52-6.37-2.91-7.68-6.58
			c-0.86-10.2,2.36-19.97,3.76-29.86c1.3-9.21,4.81-18.22,6.93-27.44c0.76-3.3,1.9-6.84,6.2-7.45L226.75,164.99z"/>
		<path class="st150" d="M301.31,237.6c-2.19,15.09-5.21,29.88-15.27,42.12c0,0-0.77,0.25-0.77,0.25c-1.6-1.8-1.76-4.03-1.91-6.26
			c-0.41-4.39,0.03-8.78-0.04-13.18c0.81-6.52,2.12-12.99,1.79-19.61c1.39-4.96-2.92-11.76,4.73-14.7c4.25,1.77,2.67-1.23,2.75-3.19
			c0.18-4.68,0.56-9.36,0.87-14.04c0.27-0.52,0.46-1.07,0.57-1.64C298.87,216.85,300.26,227.18,301.31,237.6z"/>
		<path class="st151" d="M289.83,226.22c-3.95,4.67-0.91,10.3-2.11,15.34c-4.02-0.1-3.69-3.64-4.71-6.05
			c-1.83-4.33-0.64-10.27-7.02-12.17c-1.23-0.37-1.67-2.81-1.25-4.3c1.78-6.24-1.42-11.68-2.56-17.45
			c-0.23-1.25-1.62,0.38-0.48-0.19c0.11-0.06,0.38,0.18,0.36,0.69c-0.12,4.24,5.84,10.23-0.65,12.19c-4.57,1.38-5.3-5.82-6.94-9.72
			c-0.73-1.73-1.21-3.58-1.65-5.42c-0.45-1.81-0.52-3.61,0.25-5.36c1.92-1.96,3.85-3.93,5.77-5.89
			C280.41,198.17,288.14,210.54,289.83,226.22z"/>
		<path class="st152" d="M257.15,172.94c-6.34-1.47-12.77,4.18-19.08-0.23c-3.31-2.78-6.84-5.43,0.05-8.31
			c2.81-1.17,5.33-3.04,7.99-4.59C253.31,161.22,256.4,166.1,257.15,172.94z"/>
		<path class="st0" d="M386.7,150.2c3.37,1.07,6.73,2.14,10.1,3.22c13.12,5.89,12.93,5.79,6.86,17.26c-2.64,5-5.76,5.89-10.67,3.69
			c-6.99-3.13-14.31-5.02-22.07-4.01c-6.8,0.88-12.16,3.48-12.74,11.38c-2.6,8.59-1.4,17.42-1.54,26.16
			c-0.17,10.75-0.32,21.53,0.09,32.27c0.26,6.82,0.31,14.15,7.66,18.17c4.27,2.82,9.12,2.88,13.82,2.24
			c7.6-1.04,14.88-3.6,15.15-12.8c0.26-9.02-6.49-12.39-14.13-13.97c-6.17-1.28-12.59-2.01-5.49-10.23
			c11.76-0.23,23.52-0.43,35.27-0.7c5.12-0.12,7.6,2.09,7.53,7.39c-0.14,9.55-0.04,19.1-0.04,28.64c0,6.4-3,9.37-9.55,8.61
			c-4.89-0.56-9.54,0.06-13.29,3.75c-10.61,10.43-23.23,12.18-37.09,8.59c-19.63-7.58-28.57-22.16-28.24-42.92
			c0.27-16.85,0.11-33.71,0.64-50.55c0.54-17.37,8.85-29.44,25.71-35.04C365.3,149.71,375.97,149,386.7,150.2z"/>
		<path class="st153" d="M396.74,310.12c-2.55-0.03-5.09-0.06-7.64-0.09c-16.26-1.65-32.04-0.28-46.74,7.6
			c-2.52,1.35-5.05,2.59-7.74,3.55c-1.01,0.36-2.05,0.57-3.12,0.7c-2.75,0.12-5.46,0.1-7.29-2.47
			c10.51-6.07,20.35-13.17,32.81-15.63c9.47-1.86,18.81-0.58,28.18-1.31C389.7,304.04,395.09,304.26,396.74,310.12z"/>
		<path class="st154" d="M324.21,319.4c2.47,0.18,4.94,0.37,7.41,0.55c0.97,5.37-3.83,7.34-6.34,10.61
			c-3.41,4.44-6.63,9.03-10.17,13.35c-1.68,2.05-2.58,6.31-6.94,3.95c-0.43-2.37-0.56-4.72,0.47-6.99c0.24-1.37,0.49-2.74,0.73-4.11
			c4.26-5.58,8.51-11.16,12.76-16.74C322.83,319.81,323.52,319.61,324.21,319.4z"/>
		<path class="st155" d="M211.43,424.81c0.02-1.26,0.05-2.53,0.07-3.79c-0.57-4.16,4.17-10.48-4.6-11.31
			c-1.22-1.51-2.65-3.92-1.57-5.05c5.84-6.1,1.69-12.8,1.69-19.24c0.07-4.26-0.5-8.62,1.98-12.49c7.36-9.08,16.42-11.39,27.21-6.8
			c6.15,3.63,9.14-0.48,12.01-4.91c10.33,6.54,10.87,9.39,4.44,23.03c-0.73,2.78-0.45,5.94-2.99,8.04
			c-4.09-4.36-3.48-10.13-4.2-16.02c-4.39,3.72-7.39,7.53-9.13,12.28c-2.86,10.97-2.46,22.92-10.08,32.46
			c-1.73,2.17-2.76,4.9-5.19,6.54C217.33,428.47,213.92,428.23,211.43,424.81z"/>
		<path class="st116" d="M220.99,426.66c6.92-11.98,11.31-24.97,15.34-38.11c-0.19,5.98,0.41,12-1.64,17.85
			c-0.6,1.71-1.01,4.32-0.15,5.57c8.65,12.51-2.98,19.06-8.19,27.1c-2.87,4.43-3.49,7.74-2.23,12.94
			c2.05,8.44,4.15,17.28,0.76,26.05c-5.3-3.82,1.5-11.1-4.22-14.8c-2.43-0.36-2.85-1.74-1.93-3.8c0.05-0.67,0.1-1.33,0.15-2
			C214.73,446.86,212.38,436.39,220.99,426.66z"/>
		<path class="st156" d="M267.08,415.13c1.37,0.77,2.66,1.72,4.11,2.28c6.34,2.48,9.33,6.6,5.82,13.13
			c-2.81,5.22-9.77,5.04-15.97-0.02c3.35-3.76-0.57-7.5-0.04-11.25C264.8,420.49,264.04,415.02,267.08,415.13z"/>
		<path class="st157" d="M267.08,415.13c-1.56,2.06-1.98,5.81-6.08,4.14c-4.73-8.59-4.71-19.18-11.33-26.97
			c0-3.15,0.01-6.31,0.01-9.46c4.02-2.4,5.23,0.79,5.83,3.45c1.7,7.4,5.3,14.11,7.45,21.33
			C262.51,411.11,265.35,412.81,267.08,415.13z"/>
		<path class="st158" d="M410.22,382.87c-2.62,3.48-2.11,8.5-5.68,11.51c-5.04,10.68-10.24,21.17-9.33,33.68
			c0.41,5.7-2.1,10.65-9.59,9.43c-4.65-2.05-6.49-6.05-6.48-10.71c0.02-9.43-0.77-18.34-9.37-24.47c-1.13-0.8-0.5-3.06-1.67-4.29
			c-0.93-2.73-3.87-4.47-3.79-7.69c-3.09-2.49-5.19-5.6-5.54-9.61c-0.31-3.48,1.05-7.77,4.6-6.7c8.75,2.64,13.2-3.84,18.75-7.55
			c6.14-4.12,11.21-4.84,16.9,0.55c1.95,1.85,4.64,3.32,7.46,4.04C414.05,373.01,414.49,377.19,410.22,382.87z"/>
		<path class="st159" d="M343.32,424.83c-6.77,2.8-9.42-5.56-15.15-5.59c-0.3-0.33-0.6-0.66-0.9-0.99c-0.71-4.12,1.92-6.5,5.19-6.54
			c10.83-0.13,10.08-10.59,8.45-14.02c-4.7-9.86,0.9-11.42,7.6-13.54c7.19,0.29,10.99,2.82,7.21,10.64c-0.49,1.01,0,2.41,0.69,3.48
			c1.42,6.87,2.84,13.74,4.26,20.61c1.55,5.02,0.39,8.08-5.55,7.24C351.2,425.57,347.05,427.12,343.32,424.83z"/>
		<path class="st160" d="M410.22,382.87c1.03-4.68,2.79-9.64-5.08-9.92c-1.41-0.05-2.81-1.27-4.14-2.07
			c-10.7-6.39-11.19-6.71-12.83-4.1c-2.75,4.38-12.05,0.5-11.24,9.82c0.29,3.35-4.1,0.05-6.29,0.46c-3.24,0.61-6.84-4.15-9.5-0.08
			c-2.19,3.34,1.04,6.53,2.2,9.71c0.43,1.17,0.65,2.42,0.97,3.63c-0.54-0.03-1.07-0.07-1.61-0.11c-4.23-1.65-7.87-3.93-9.35-8.58
			c1.39-6.68-6.75-9.55-6.35-15.82c0.01-0.23,0.36-0.47,0.6-0.65c0.48-0.36,1.03-0.28,1.62,0.17c8.05,5.53,16.03,5.67,23.63-0.69
			c7.49-6.26,16.56-1.82,24.74-3.74c2.74-0.64,2.52,5.45,6.42,7.02c8.52,3.42,16.8,1.84,25.22,0.6c1.85-0.27,3.63-0.99,5.45-1.5
			c0.53,4.31-4.59,3.18-5.7,5.91C421.62,374.16,416.51,379.64,410.22,382.87z"/>
		<path class="st161" d="M385.3,436.2c7.6,0.53,8.13-4.55,7.62-9.99c-1.18-12.51,2.13-23.27,11.62-31.84
			c7.33,16.36-1.49,29.88-7.7,43.86c0.51,1.67-0.5,2.47-1.78,3.13c-5.26,0.78-10.46,0.12-15.6-0.5c-1.04,2.81,2.63,4.33,1.89,7
			c1.27,2.45,2.53,4.91,3.79,7.36c-2.76,0.48-5.2-0.38-7.52-1.75c-6.11-5.44-7.7-11.76-3.77-19.17
			C378.25,431.47,381.81,433.62,385.3,436.2z"/>
		<path class="st162" d="M354.63,380.84c0.15,5.31,6.8,5.04,8.07,9.39c-2.41,2.43-7.33,2.91-6.28,8.04
			c-2.04-4.78,0.08-11.82-7.42-13.64c-0.66-0.55-1.2-1.21-1.67-1.92c-1.58-2.11-3.74-3.99-6.09-4.39
			c-12.34-2.11-16.18-12.23-20.92-21.53c-1.32-2.58-2.42-5.39-0.37-8.07c2.52-3.3,5.2,0.66,7.83,0.05
			c3.93,3.02,7.86,6.04,11.79,9.07C341.92,367.24,351.88,371.68,354.63,380.84z"/>
		<path class="st163" d="M385.3,436.2c-3.82-0.63-7.63-1.27-11.45-1.9c-5.15-6.73-6.39-14.87-8.83-22.68
			c-1.8-5.78-1.48-9.84,3.08-13.59c12.44,6.35,14.93,17.17,13.37,29.8C381.03,431.4,383.94,433.45,385.3,436.2z"/>
		<path class="st164" d="M343.32,424.83c3.65-2.4,7.35,0.14,11.05,0c4.27-0.16,6.55-1.47,6.32-5.95c2.55,5.37,2.56,9.87-4.16,12.05
			c-1.25-0.23-2.5-0.46-3.75-0.7c0.77-1.86,1.6-4.03-1.83-2.58C347.32,429.18,344.99,428.11,343.32,424.83z"/>
		<path class="st165" d="M262.95,407.61c-5.26-5.55-8.33-12.16-9.37-19.69c-0.35-2.53-0.37-5.1-3.91-5.09
			c7.27-9.18,6.67-14.69-2.28-20.88c-1.9,1.68-4.06,1.8-6.36,1.02c-0.83-0.42-1.43-1.07-1.8-1.93c-0.12-2,0.19-3.64,2.79-3.42
			c2.52-4.03,4.91-8.02,8.21-0.45c2.86,6.56,7.51,11.2,14.66,13.35c2.14,0.64,3.75,3.04,5.61,4.64c1.32,3.64-1.54,6.22-2.35,9.32
			c-4.85,5.69,0.77,13.97-4.82,19.47C263.21,405.18,263.08,406.39,262.95,407.61z"/>
		<path class="st166" d="M263.33,403.96c1.53-7.03,0.46-14.5,3.57-21.26c4.91-0.83,7.65,3.62,11.75,4.78
			c3.21,1.84,6.92,3.01,7.1,7.85c0.23,5.89,6.47,7.32,9.2,11.43c0.9,2.5,0.37,4.76-1.17,6.84c-1.32,3.1-1.52,6.7-4.13,9.23
			c-12.59-7.28-14.86-21.43-21.18-33.62C263.98,394.02,277.1,403.53,263.33,403.96z"/>
		<path class="st159" d="M316.48,424.74c-3.24,0.06-6.5,0.19-9.35-1.77c-0.99-3.95-5.03-6.89-3.86-11.56
			c-3.53-3.9-2.93-8.68-2.88-13.34c0.61-7.12-2.3-14.75,3.06-21.17c5.22,1.28,4.62,5.99,3.99,9.07
			c-3.23,15.61,6.11,23.66,17.49,30.71c1.09,0.67,2.01,1.54,3.01,2.32c0,0,0.23,0.23,0.23,0.24c-0.56,3.31-2.76,2.1-4.81,1.92
			C320.43,420.91,317.04,420.24,316.48,424.74z"/>
		<path class="st167" d="M302.89,398c0.12,4.47,0.25,8.94,0.37,13.41c-3.16,0.73-6.32,1.46-9.48,2.19c-0.1-2.66-0.19-5.32-0.29-7.98
			c-1.4-1.98-1.89-3.99-0.17-6.06c0.18-4.27,0.36-8.53,0.53-12.8c3.18-0.15,4,2.65,3.53,4.38C295.97,396.4,300.01,396.59,302.89,398
			z"/>
		<path class="st168" d="M220.99,426.66c-4.9,9.98-2.03,20.49-2.1,30.8c-3.13-2.61-6.26-5.22-9.38-7.83
			c-3.13,0.13-3.09-1.48-2.01-3.66c-4.24-4.09-13.41-2.51-13.33-11.57c0.55-0.01,1.09,0,1.64,0.03c4.62-0.69,9.24-1.13,13.86-0.06
			c10.4-1.38,2.99-6.04,1.77-9.57C214.39,426.57,217.63,426.9,220.99,426.66z"/>
		<path class="st169" d="M207.49,445.97c0.21,1.47,0.43,2.94,2.01,3.66c-0.01,2.82,0.16,5.65-0.09,8.45
			c-0.23,2.65-1.75,5.54-4.23,5.57c-4.17,0.05-3.17-3.64-3.09-6.35C204.88,454,203.21,448.57,207.49,445.97z"/>
		<path class="st170" d="M218.73,459.46c0.64,1.27,1.29,2.53,1.93,3.8c-1.54,3.39-3.08,6.79-4.62,10.18
			C212.83,467.82,213.09,463.05,218.73,459.46z"/>
		<path class="st10" d="M192.23,447.77c8.7-2.49,10.89,1.63,9.53,9.36c-0.55,0.08-1.1,0.12-1.65,0.13
			C201.09,451.1,194.81,450.97,192.23,447.77z"/>
		<path class="st171" d="M302.89,398c-5.23,1.36-8.53,0.49-7.43-6.07c0.31-1.82,0.06-3.8-1.6-5.17
			c-0.64-10.62-4.85-20.25-8.38-30.06c-0.76-3.41-2.45-6.71-1.15-10.33c1.32-2.91,3.14-2.49,5.1-0.7c2.1,1.92,3.52,4.37,4.94,6.79
			c3.08,5.23,6.36,8.09,11,1.37c1.03-1.5,2.51-3.02,4.51-0.93c1.6,2.72,1.5,5.69,1.34,8.68c-1.28,5.42-1.8,11.16-6.27,15.27
			C301.48,383.62,304.46,391.03,302.89,398z"/>
		<path class="st172" d="M242.03,357.63c-0.73,1.27-1.46,2.54-2.19,3.81c-2.33,2.48-4.83,2.02-6.16-0.61
			c-3.62-7.17-7.22-3.56-11.04-0.41c-4.17,3.43-6.3,9.78-13.23,9.33c-0.48-0.54-0.63-1.06-0.45-1.58c0.18-0.51,0.35-0.76,0.52-0.76
			c5.17-4.64,1.66-15.49,11.85-16.53c-6.23-7.88,4.51-12.74,3.51-19.69c2.65,3.42,6.57,4.46,10.42,5.74
			c4.86,1.62,2.57,2.72,4.5,7.03C241.93,348.78,241.78,353.01,242.03,357.63z"/>
		<path class="st173" d="M211.34,309.72c-1.11-0.56-2.21-1.12-3.32-1.67c0.27-4.99,4.68-4.3,7.61-5.22
			c4.48-1.41,9.38-0.96,13.89-2.47c7.28-1.41,13.66-6.2,21.43-5.79c1.44,0.13,2.8,0.54,4,1.36c-0.15,3.27,5.19,18.08,7.82,22.11
			c0.93,1.42-0.45,2.17-1.37,2.95c-3.01,1.32-5.73-0.11-8.52-0.86C239.8,313.62,226.26,308.92,211.34,309.72z"/>
		<path class="st174" d="M252.89,320.12c3.35-0.23,6.7-0.45,10.06-0.68c0.43,0.09,0.87,0.18,1.31,0.26
			c9.86,5.02,15.42,14.27,22.1,22.42c0.34,0.89,0.24,1.71-0.34,2.47c-0.17,4.03-0.35,8.06-0.52,12.09
			C276.27,343.03,267.2,329.24,252.89,320.12z"/>
		<path class="st175" d="M278.1,388.65c-5.13,0.64-7.24-4.39-11.2-5.95c-0.45-3.3,2.71-4.87,3.6-7.53c2.43,1.98,6.15-0.82,8.64,3.71
			c2.37,4.31,4.08-2.99,7.59-2.88c0.64,3.54-1.88,7.51,1.16,10.59C285.18,389.9,281.91,390.59,278.1,388.65z"/>
		<path class="st176" d="M278.1,388.65c3.27-0.69,6.53-1.37,9.8-2.06c2.4,1.29,3.64,2.75,3.03,5.99c-0.42,2.24-1.75,5.87,2.41,6.98
			c0.05,2.02,0.11,4.04,0.16,6.05c-6.29,1.13-9.52-4.31-9.8-7.88C283.31,392.98,279.45,391.88,278.1,388.65z"/>
		<path class="st177" d="M150.32,392.31c-2.85,0.32-3.68-2.47-5.56-3.63c3.19-3.13,6.38-6.27,9.56-9.4
			c3.14-1.36,5.65-4.12,9.37-4.17c0.52,0.74,0.69,1.56,0.52,2.45C160.56,383.4,156.39,388.75,150.32,392.31z"/>
		<path class="st178" d="M230.5,302.5c-7.08,3.53-15.74,0.66-22.48,5.54c-4.61,1.09-7.94-1.98-11.72-3.6
			c0.08-4.68,0.17-9.36,0.25-14.03c2.42-1.26,4.83-2.4,7.33-0.17c3.46,2.76,7.95,3.98,11.06,7.55c1.82-11.34-8.89-20.28-4.41-31.85
			c-5.48,0.27-10.19,0.76-14.8-0.96c-1.48-0.56-2.5,0.05-0.66,1.46c0.5,0.38,1.06,0.68,1.61,1.06c4.32,6.47-1.33,7.88-5.16,10.22
			c-4.18,0.22-6.62-1.63-7.01-5.91c0.09-1.25,0.18-2.5,0.27-3.74c3.41-13.88,12.5-17.84,30.59-13.35
			c9.92,3.46,6.79,13.29,9.82,20.11c-0.4,5.09,0.47,9.74,3.33,14.24C231.06,293.04,232.34,297.66,230.5,302.5z"/>
		<path class="st179" d="M202.22,290.79c-1.73-2.57-4.01,3.15-5.67-0.38c-0.9-4.54-1.89-9.04-5.02-12.7
			c-0.47-4.1,7.17-4.32,4.53-9.46c1.51-5.7,5.37-2.55,7.86-1.59c3.98,1.53,6.19,7.08,4.32,9.03c-3.91,4.09-3.06,8.08-2.97,12.52
			C205.3,289.7,204.29,291.17,202.22,290.79z"/>
		<path class="st180" d="M153.97,199.65c7.28-0.61,15.36,1.68,20.8-5.67c2.22,6.74,2.32,13.71,2.3,20.69
			c-12.93-0.42-25.92,4.66-39.71,0.19c9.27-9.79,19.79-3.22,29.23-4.43c3.17-0.41,7.74,2.26,8.22-3.06
			c0.47-5.16-4.24-5.87-8.04-5.81c-4.06,0.06-8.09,1.44-12.15,1.57C149.04,203.3,153.61,200.94,153.97,199.65z"/>
		<path class="st181" d="M215.15,256.49c-4.88,0.57-9.33-1.89-14.69-0.63c-7.6,1.79-13.11,4.68-15.67,12.2
			c-0.14-2.6-0.27-5.2-0.41-7.79c4.25-6.64,9-13.13,10.88-20.89c1.76-7.25,2.77-14.15-0.17-22.07c-5.52-14.9-6.37-31.22-11.79-46.32
			c-0.35-0.98,1.24-2.66,1.93-4.02c4.18-2.03,4.67,0.36,5.01,3.8c0.9,9.08,6.91,11.93,14.81,7.41c7.97-4.57,12.19-11.56,13.76-20.39
			c2.64,2.14,5.28,4.28,7.92,6.42c-6.5,11.73-8.08,25.07-10.56,37.77c-1.78,9.11-4.58,18.36-4.49,27.89
			c0.54,0.88,0.46,1.67-0.33,2.36c-3.38-0.31-2.93-2.38-2.62-3.32C213.04,236.86,210.93,247.32,215.15,256.49z"/>
		<path class="st182" d="M176.56,234.75c-14.79,5.66-28.17,5.66-41.71,2.78C148.17,234.15,161.32,228.43,176.56,234.75z"/>
		<path class="st118" d="M209.41,386.47c0.35,2.41-0.06,5.37,1.2,7.13c2.83,3.94,2.84,6.47-1.79,8.62
			c-3.79,1.75-1.11,4.79-1.19,7.28c0.56,8.85-7.62,4.44-11.04,7.27c-0.3,0.27-0.59,0.55-0.88,0.84c-2.72-1.14-7.32,0.77-7.25-4.83
			c0.05-3.61,0.23-6.65,4.72-7.55c1.19-0.24,2.06-2.08,3.07-3.18c5.53-2.62,10.81-5.32,9.95-12.98
			C206.04,387.6,207.39,386.18,209.41,386.47z"/>
		<path class="st183" d="M184.75,398.07c-5.82,0.1-11.67-0.08-17.46,0.41c-2.47,0.21-3.38-0.39-3.71-2.56
			c1.16-5.36,5.64-8.36,8.72-12.36c3.11-1.94,5.89-4.36,8.86-6.5C184.38,383.71,184.87,390.84,184.75,398.07z"/>
		<path class="st184" d="M209.41,386.47c-0.53,1.12-1.72,2.4-1.48,3.32c2.75,10.53-3.74,12.05-11.68,12.25
			c2.8-4.54,5.67-7.79,3.66-14.93c-1.74-6.21,4.47-13.91,9.56-19.7c0.06,0.72,0.12,1.45,0.18,2.17c1.6,0.7,2.75,1.63,1.82,3.61
			C208.2,377.22,209.81,382,209.41,386.47z"/>
		<path class="st185" d="M181.16,377.06c1.5,6.52-5.25,5-7.59,7.77c-3.13,0.38-5.06,6.13-8.84,2.55c-2.94-2.78-3.5-6.64-1.08-10.39
			c0.23-0.62,0.24-1.25,0.04-1.88c0,0,0,0,0,0c5.07-0.28,9.37-7.23,15.11-1.75C179.58,374.59,180.37,375.82,181.16,377.06z"/>
		<path class="st177" d="M178.79,373.36c-5.33-1.99-9.59,5.32-15.11,1.75c1.78-2.16,3.33-4.56,5.39-6.42
			c2.73-2.47,6.26-6.13,9.55-4.58C182.23,365.82,177.56,370.16,178.79,373.36z"/>
		<path class="st186" d="M163.65,376.99c0.03,6.75,1.21,12.05,9.92,7.84c-2.51,4.43-6.17,7.84-9.99,11.09
			c-1.32,0.6-2.65,1.2-3.98,1.8c-6.33-10.31-5.4,4.68-10.07,1.71c0.19-1.73,0.49-4.42,0.79-7.11
			C153.82,386.38,158.51,381.48,163.65,376.99z"/>
		<path class="st187" d="M196.59,416.77c-0.25-2.79,1.28-6,3.64-4.34c4.9,3.43,5.39-0.96,7.4-2.93c2.59,0.85,6.23-2.72,7.74,0.73
			c1.81,4.17-2.15,7.3-3.86,10.78c-4.21-1.04-9.46,4.91-12.82-1.9C197.98,418.33,197.29,417.55,196.59,416.77z"/>
		<path class="st188" d="M209.66,434.37c-4.61,2.67-9.22,3.1-13.86,0.06C200.4,429.57,205.01,427.19,209.66,434.37z"/>
		<path class="st189" d="M381.35,447.87c-1.98-2.92-7.98-4.27-3.78-9.62c5.38,4.37,10.98,6.57,17.32,1.83
			c0.65-0.61,1.3-1.22,1.96-1.83c2.62,5-1.93,11.36-8.22,11.16C386.19,449.32,383.78,448.41,381.35,447.87z"/>
		<path class="st190" d="M478.66,212.49c0.65-2.96,0.17-7.26,4.22-7.38c3.5-0.1,3.24,4.08,4.08,6.62
			c2.39,7.23,4.61,14.51,6.91,21.76c1.64,5.17-0.03,8.02-5.64,8.09c-3.81,0.04-7.63,0.16-11.42-0.04c-4.87-0.26-6.87-2.77-5.27-7.63
			c1.42-0.54,2.54,0.13,3.64,0.89c2.75,1.62,5.86,3.63,8.57,0.89c2.35-2.37,0.01-5.36-0.8-7.94c-1.22-3.9-2.15-7.9-3.83-11.65
			C478.6,214.95,477.81,213.82,478.66,212.49z"/>
		<path class="st191" d="M478.66,212.49c0.85,0.85,1.69,1.71,2.54,2.56c-1.44,7.39-0.17,15.81-7.95,20.78
			c-0.57-0.64-1.14-1.28-1.72-1.92C473.19,226.53,475.15,219.25,478.66,212.49z"/>
		<path class="st192" d="M997.87,212.68c0.85-2.89,0.29-7.36,4.18-7.59c4.24-0.25,3.55,4.5,4.5,7.21
			c2.41,6.86,4.39,13.86,6.65,20.76c1.84,5.6,0.13,8.9-5.97,8.47c-5.19-0.36-10.76,1.98-15.55-1.84c0.51-0.76,1.19-1.34,2.01-1.75
			c11.2-1.82,11.21-1.82,7.78-13.28c-0.63-2.1-1.19-4.21-1.56-6.36C999.71,216.26,998.89,214.43,997.87,212.68z"/>
		<path class="st193" d="M997.87,212.68c2.64,0.16,4.7,0.92,4.27,4.2c-3.77,7.02-4.95,14.86-7.08,22.4
			c-1.13,0.14-2.25,0.28-3.38,0.42C988.6,229.51,995.37,221.58,997.87,212.68z"/>
		<path class="st39" d="M690.42,216.56c1.39-4.04,0.93-11.02,5.17-11.17c5.54-0.2,4.43,7.15,6.13,11.17
			c2.2,5.19,3.19,10.88,5.12,16.2c2.31,6.35,0.04,8.99-6.35,8.82c-4.4-0.12-8.8-0.33-13.2-0.5c-0.35-1.68,0.7-2.44,1.98-3.07
			c9.73-1.84,9.79-1.86,6.61-11.59c-0.94-2.87-0.94-6.2-3.67-8.28C691.5,217.75,690.91,217.21,690.42,216.56z"/>
		<path class="st194" d="M689.29,239.31c-0.66,0.59-1.33,1.19-1.99,1.78c-3.68-1.31-4.45-3.64-3.04-7.26
			c2.22-5.69,4.13-11.5,6.17-17.27c0.74-0.01,1.48-0.03,2.22-0.04C695.83,224.75,689.31,231.55,689.29,239.31z"/>
		<path class="st195" d="M309.25,361.69c-0.18-3.14-0.36-6.29-0.54-9.43c-1-1.49-0.83-2.8,0.6-3.91
			c6.64-10.09,14.21-19.45,22.31-28.39c0.74-0.16,1.48-0.32,2.22-0.48c3.83-0.31,7.75-2.96,11.43,0.46
			c-9.72,6.6-17.82,14.87-24.84,24.25c0.97,3.83-2.87,6.26-2.86,9.81C314.73,356.48,313.91,361.17,309.25,361.69z"/>
		<path class="st196" d="M316.23,354.38c-0.08-4.01,2.09-7.08,4.2-10.19c2.45,1.52,4.9,3.05,7.34,4.57
			c-9.08-0.12-7.66,3.63-4.24,9.64c4.66,8.2,8.39,16.59,19.44,18.14c1.79,0.25,7.03,1.44,5.73,6.38
			C332.1,384.63,315.68,370.19,316.23,354.38z"/>
		<path class="st197" d="M345.27,319.94c-3.81-0.15-7.62-0.31-11.43-0.46c16.93-11.88,35.54-13.91,55.26-9.45
			C373.69,309.77,359.28,313.98,345.27,319.94z"/>
		<path class="st198" d="M354.63,380.84c-5.04-7.66-16.82-10.9-15.07-23.01c3.22,2.51,6.45,5.02,9.67,7.53
			c-2.65,3.81,2.02,4.16,3.02,6.23C353.69,374.55,358.06,376.64,354.63,380.84z"/>
		<path class="st199" d="M309.32,348.35c-0.2,1.3-0.4,2.61-0.6,3.91c-2.73,3.18-2.82,9.32-8.45,9.13c-5.29-0.18-6.35-5.49-8.65-9.19
			c-1.66-2.66-3.72-5.08-5.6-7.6c-0.19-0.66-0.38-1.31-0.57-1.97c-1.41-2.62-2.09-5.25-0.16-7.93c0,0,0.76,0.29,0.76,0.29
			c1.69,2.21,3.48,4.36,5.06,6.65c8.01,11.62,11.17,11.49,17.54-0.77C308.87,343.36,309.09,345.86,309.32,348.35z"/>
		<path class="st200" d="M262.94,319.44c-0.78-0.51-1.52-1.12-2.35-1.51c-14.85-7.01-15.27-8.71-5.13-21.08
			c1.95-2.25,4.55-2.35,7.24-2.18c1.61,0.25,3.03,0.85,4.08,2.16c-11.15,11.09-10.23,14.76,5.67,22.53c0,0,0.14,0.71,0.14,0.71
			c-3.23,2.73-6.38,1.4-9.53-0.17L262.94,319.44z"/>
		<path class="st201" d="M266.78,296.83c-1.25-0.24-2.5-0.48-3.76-0.72c-1.7-2.53,0.16-4.07,1.71-5.51
			c5.22-4.87,10.26-9.92,15.13-15.13c1.45-1.55,3.03-3.36,5.52-1.55c-0.04,2.02-0.07,4.03-0.11,6.05
			c-4.8,5.38-9.61,10.76-14.41,16.14C269.5,296.35,268.14,296.59,266.78,296.83z"/>
		<path class="st202" d="M263.06,319.91c3.18,0.05,6.36,0.11,9.53,0.16c4.23,4.88,8.47,9.75,12.7,14.63
			c0.05,2.64,0.11,5.29,0.16,7.93C277.98,335.06,270.52,327.48,263.06,319.91z"/>
		<path class="st203" d="M211.04,231.87c0.22-0.67,0.43-1.35,0.65-2.02c3.17,3.64,8.91,2.39,12.16,6.85
			c-0.04-9.58,1.84-18.1,6.67-25.82c8.47-2.2,7.7,4.21,7.48,8.81c-0.24,5.02-0.23,9.39,4.67,12.21c0.65,1.35,0.69,2.73,0.29,4.15
			c-2.58,3.8-3.8,9.53-10.53,7.5c-1.88-1.8-1.84-4.08-1.59-6.41c0.34-1.51,0.97-3.11-1.81-4.21c-0.07,2.17,1.15,3.95,1.24,5.83
			c-0.17,5.84-3.04,10.86-4.94,16.18c-0.84,0.63-1.78,0.94-2.83,0.95C211.9,250.67,209.86,246.41,211.04,231.87z"/>
		<path class="st204" d="M241.98,235.57c-0.03-1.28-0.05-2.56-0.08-3.85c-3.34-3.57-1.81-7.66-1.09-11.58
			c1.2-6.46,3.29-12.92-2.81-18.33c-1.17-1.04-0.89-2.9,0.21-4.29c3.94,2.33,5.09-2.35,7.81-3.15c3.16-0.92,5.38-4.38,8.15,2.09
			c2.43,5.68,5.49-2.58,8.89-2.69c0.59,1.29,1.19,2.58,1.78,3.87c-9.28,10.82-11.99,23.59-11.33,37.44c0.13,2.82,0.1,6.38-3.42,6.84
			C245.8,242.5,243.33,239.45,241.98,235.57z"/>
		<path class="st205" d="M238.21,197.53c11.02,8.56,5.68,19.26,3.9,29.52c-0.26,1.53-0.15,3.12-0.22,4.68
			c-7.92,1.01-7.43-4.17-6.59-9.24c0.83-4.99,2.97-10.26-4.79-11.61c-0.22-4.38,3.56-7.67,2.98-12.43
			C233.23,196.21,236.04,195.16,238.21,197.53z"/>
		<path class="st206" d="M241.98,235.57c2.59,1.62,5.19,3.25,9.36,5.86c-0.7-9.07,0.7-17.13,1.33-24.85
			c0.79-9.74,5.11-14.57,12.19-18.94c1.66,5.31,2.66,10.88,6.52,16.95c2.19-7.62-2.15-13.08-1.68-19.09
			c4.43,8.24,10.73,15.92,6.32,26.18c2.44,0.92,4.7-5.89,6.31,0.88c1.52,6.38,2.12,13.09,5.38,18.99
			c1.42,6.62-0.73,12.89-1.89,19.25c-1.03,1.56-2.16,2.99-4.25,3.08c-6.58-4.31-12.98-4.09-20.7-1.88
			c-11.09,3.17-18.94-1.53-25.3-12.04c-0.98-1.61-2.45-2.87-3.39-4.52c-0.35-0.86-0.39-1.74-0.13-2.63
			C238.25,244.36,237.82,236.82,241.98,235.57z"/>
		<path class="st207" d="M282.36,262.49c1.15-0.56,2.31-1.12,3.46-1.68c-0.15,4.37-0.29,8.74-0.44,13.1
			c-7.46,7.4-14.91,14.8-22.36,22.2c-2.52,0.24-5.04,0.49-7.56,0.74c-1.26-0.08-2.51-0.15-3.77-0.23c-2.51-5.04,2.36-6.03,4.61-8.46
			c5.93-2.33,6.9-6.05,3.14-11.13C269.31,275.68,276.09,269.49,282.36,262.49z"/>
		<path class="st165" d="M211.48,373.19c-0.61-1.21-1.21-2.41-1.82-3.61c5.53-2.32,8.1-7.71,11.99-11.71
			c5.79-5.96,9.66-5.58,13.28,1.87c1.07,2.2,3.07,1.74,4.92,1.7c0.23,0.27,0.45,0.55,0.68,0.82c0,2.92-1.53,4.57-4.3,5.18
			c-1.5,0.39-3.68,1.62-4.4,1.04C222.9,361.34,217.57,368.82,211.48,373.19z"/>
		<path class="st208" d="M236.21,367.44c1.43-1.73,2.87-3.46,4.3-5.18c2.3-0.1,4.59-0.21,6.88-0.31
			C247.63,372.96,247.32,373.11,236.21,367.44z"/>
		<path class="st209" d="M316.23,354.38c4.37,16.85,16.69,24.67,32.46,28.55c0.07,0.57,0.17,1.14,0.3,1.7
			c-0.24,5.88-6.49,2.25-9.08,6.07c13.46,6.08-4.39,15.42,4.16,22.28c-6.63,1.87-14.23-3.44-16.14,6.01
			c-4.78,0.54-8.73-0.7-11.17-5.2c-0.45-0.83-0.87-2.14-1.53-2.3c-15.05-3.75-9.22-15.87-10.13-25.22c-0.3-3.12-0.11-6.29-0.15-9.44
			c1.43-5.05,2.86-10.09,4.29-15.14C312.27,359.91,311.39,354.42,316.23,354.38z"/>
		<path class="st210" d="M394.88,440.07c-7.18,8.21-9.12,8.01-17.32-1.83C383.34,438.86,389.11,439.47,394.88,440.07z"/>
		<path class="st211" d="M257.38,289.27c-0.93,3.2-5.86,3.31-5.69,7.35c-7.76-0.54-13.78,5.2-21.19,5.88
			c-2.04-6.43-3.2-13.21-7.5-18.75c-2.52-3.26-1.15-5.68,1.89-7.63c-0.65-3.22-0.61-6.4,0.49-9.53c0.5-1.28,1.22-2.44,2.05-3.53
			c2.72-3.1,7.3-6.08,8.53-0.65c2.38,10.49,9.58,7.58,15.96,7.69c1.48,0.03,2.99-1,4.29,0.5
			C255.82,276.87,262.23,282.72,257.38,289.27z"/>
		<path class="st212" d="M202.22,290.79c4.39-6.02,0.13-8.71-4.65-11c1.25-4.66,12.39,1.67,8.31-7.87c-1.9-4.44-4.7-7.39-9.82-3.68
			c-2.29-0.65-5.43,1.22-6.76-1.79c-0.45-1.03,0.42-3.12,1.32-4.18c2.42-2.84,4.77-0.21,6.66,0.88c5.73,3.32,11.67-2,17,0.47
			c-0.84,6.8-4.46,12.95,1.15,19.68c4,4.79,1.33,11.4,1.79,19.74C212.55,296.14,205.36,296.45,202.22,290.79z"/>
		<path class="st213" d="M226.76,266.23c-0.6,3.3,1.64,7.14-1.87,9.89c-4.77-1.05-4.12-4.9-3.82-8.13c0.5-5.26-1.4-8.98-5.92-11.5
			c-3.9-2.6-5.92-5.81-5.8-10.94c0.14-6.38-0.97-12.8-1.67-20.72c1.59,3.33,2.48,5.19,3.37,7.04c0.15,9.59,2.74,17.93,11.74,23
			C228.11,257.26,226.84,261.95,226.76,266.23z"/>
		<path class="st214" d="M473.25,235.83c2.65-6.93,5.3-13.85,7.95-20.78c1.66,4.74,3.69,9.38,4.84,14.24
			c0.71,3.01,4.67,7.45,0.58,9.08C482.68,239.94,476.66,241.88,473.25,235.83z"/>
		<path class="st215" d="M995.06,239.27c-2.38-6.81,1.97-20.59,7.08-22.4c0.77,3.01,1.43,6.06,2.33,9.03
			C1008.51,239.2,1008.53,239.19,995.06,239.27z"/>
		<path class="st216" d="M689.29,239.31c-4.63-4.16-0.1-8.08,0.47-12.03c0.53-3.65,1.89-7.17,2.88-10.75
			c1.64-2.37,2.52-0.7,3.04,0.74c1.06,2.95,1.89,6,2.81,9C702.48,239.25,702.48,239.25,689.29,239.31z"/>
		<path class="st217" d="M225.17,254.72c-2.29-6.5,3.1-11.26,3.84-17.08c0.56-1.83,1.52-2.93,3.6-2c-0.18,2.39-0.37,4.79-0.56,7.18
			c0,0,0.25,0.39,0.25,0.39c-1.13,3.47-1.72,7.15-3.94,10.21C227.52,254.4,226.58,255.15,225.17,254.72z"/>
		<path class="st205" d="M232.61,235.64c-1.2,0.67-2.41,1.33-3.61,2c-3.61-3.02-2.25-6.67-1.18-11.93
			C230.05,229.7,232.85,231.77,232.61,235.64z"/>
		<path class="st178" d="M225.17,254.72c0.53-0.6,1.05-1.19,1.58-1.79c6.74,2.66,0.71,7.58,1.98,11.21c-0.66,0.7-1.31,1.4-1.97,2.1
			c-1.33-3.79-2.65-7.57-3.98-11.36C223.58,254.82,224.37,254.77,225.17,254.72z"/>
		<path class="st218" d="M228.73,264.14c-4.24-3.1,1.06-7.89-1.98-11.21c1.68-3.34,1.86-7.54,5.56-9.72
			c3.04,2.72,6.12,5.22,7.59,9.43c2.07,5.92,10.01,3.91,13.06,8.86c4.66-3.31,11.22,0.61,15.71-4.52c2.33-2.67,5.81-2.4,7.69,1.55
			c1.21,2.53,3.19,3.88,6.01,3.96c-3.65,11.17-11.5,16.11-23.06,15.55c-4.9-0.81-1.03-5.91-3.8-7.76
			c-6.88,6.81-13.74,1.16-20.55-0.16c-1.69-0.33-2.32-2.07-1.27-3.71c1.26-1.96,2.62-4.04-0.57-5.15
			C230.94,260.5,230.5,263.6,228.73,264.14z"/>
		<path class="st219" d="M255.5,270.27c3.37,1.55,1.66,5.6,3.79,7.76c2.07,2.8,5.82,0.59,8.78,2.84c-3.36,3.51-5.68,7.54-10.69,8.4
			C258.81,282.73,252.85,276.93,255.5,270.27z"/>
	</g>
</g>
</svg>
