<?xml version="1.0" encoding="utf-8"?>
<!-- Generator: Adobe Illustrator 25.0.1, SVG Export Plug-In . SVG Version: 6.00 Build 0)  -->
<svg version="1.1" id="Calque_1" xmlns="http://www.w3.org/2000/svg" xmlns:xlink="http://www.w3.org/1999/xlink" x="0px" y="0px"
	 viewBox="0 0 1665.29 306.45" style="enable-background:new 0 0 1665.29 306.45;" xml:space="preserve">
<style type="text/css">
	.st0{fill:#005190;}
	.st1{fill:#005191;}
	.st2{fill:#015291;}
	.st3{fill:#025291;}
	.st4{fill:#3776A8;}
	.st5{fill:#3C79AA;}
	.st6{fill:#1C639C;}
	.st7{fill:#1F669E;}
	.st8{fill:#3071A5;}
	.st9{fill:#2469A0;}
	.st10{fill:#22689F;}
	.st11{fill:#2F70A4;}
	.st12{fill:#256AA0;}
	.st13{fill:#3172A5;}
	.st14{fill:#1F659D;}
	.st15{fill:#20679E;}
	.st16{fill:#3876A8;}
	.st17{fill:#3373A6;}
	.st18{fill:#2F71A5;}
	.st19{fill:#2A6DA2;}
	.st20{fill:#266AA1;}
	.st21{fill:#1A629C;}
	.st22{fill:#296CA2;}
	.st23{fill:#1B639C;}
	.st24{fill:#2B6EA3;}
	.st25{fill:#2C6EA3;}
	.st26{fill:#6293BA;}
	.st27{fill:#2369A0;}
	.st28{fill:#0C5996;}
	.st29{fill:#125D98;}
	.st30{fill:#145E99;}
	.st31{fill:#20669E;}
	.st32{fill:#1F659E;}
	.st33{fill:#1C649C;}
	.st34{fill:#23689F;}
	.st35{fill:#1A639C;}
	.st36{fill:#165F9A;}
	.st37{fill:#135D98;}
	.st38{fill:#6192BA;}
	.st39{fill:#6897BD;}
	.st40{fill:#6193BA;}
	.st41{fill:#709DC1;}
	.st42{fill:#4680AE;}
	.st43{fill:#FEFEFE;}
	.st44{fill:#B6CDDF;}
	.st45{fill:#EFF4F8;}
	.st46{fill:#DAE5EE;}
	.st47{fill:#9CBBD4;}
	.st48{fill:#F2F6F9;}
	.st49{fill:#F7F9FB;}
	.st50{fill:#F6F9FB;}
	.st51{fill:#EBF1F6;}
	.st52{fill:#FCFDFD;}
	.st53{fill:#FCFCFD;}
	.st54{fill:#F3F6F9;}
	.st55{fill:#ECF1F6;}
	.st56{fill:#E4ECF3;}
	.st57{fill:#CCDBE8;}
	.st58{fill:#4A5231;}
	.st59{fill:#413F1B;}
	.st60{fill:#C8B757;}
	.st61{fill:#716C61;}
	.st62{fill:#948143;}
	.st63{fill:#6F798C;}
	.st64{fill:#B4A13F;}
	.st65{fill:#837F45;}
	.st66{fill:#BFA47E;}
	.st67{fill:#D3CB82;}
	.st68{fill:#7A6E2D;}
	.st69{fill:#767774;}
	.st70{fill:#543727;}
	.st71{fill:#6D4607;}
	.st72{fill:#7D642F;}
	.st73{fill:#877127;}
	.st74{fill:#997B32;}
	.st75{fill:#626525;}
	.st76{fill:#3E3C1C;}
	.st77{fill:#A4831F;}
	.st78{fill:#6E6633;}
	.st79{fill:#7F5E12;}
	.st80{fill:#E2CC6F;}
	.st81{fill:#E6A554;}
	.st82{fill:#B37347;}
	.st83{fill:#BC7937;}
	.st84{fill:#873F28;}
	.st85{fill:#BD8D2D;}
	.st86{fill:#DFBC3E;}
	.st87{fill:#7B8843;}
	.st88{fill:#7A5B1C;}
	.st89{fill:#A57416;}
	.st90{fill:#E4B85A;}
</style>
<g>
	<path class="st0" d="M1458.05,293.32c-10.12-0.25-22.13-2.15-33.53-7.16c-23.54-10.33-35.1-30.76-32.22-56.37
		c2.56-22.76,14.55-38.46,35.46-47.09c23.03-9.5,46.65-10.6,70.23-2.11c34.06,12.27,42.08,43.79,33.65,70.32
		c-7.36,23.17-24.63,35.22-47.55,40.24C1476.27,292.86,1468.29,293.46,1458.05,293.32z"/>
	<path class="st0" d="M625.77,177.28c6.25,0,12.5,0.12,18.74-0.05c2.73-0.08,3.23,0.81,3.08,3.44c-1.16,20.07-3.52,40.06-3.94,60.18
		c-0.07,3.51,0.18,7,1.19,10.38c1.97,6.63,6.3,9.74,13.36,9.7c8.61-0.05,12.74-2.73,14.53-10.04c2.45-9.98,3.11-20.23,3.77-30.44
		c0.85-13.21,1.4-26.44,1.88-39.67c0.1-2.77,0.85-3.6,3.65-3.56c12.62,0.15,25.24,0.17,37.85-0.01c3.23-0.05,3.9,0.84,3.65,4
		c-1.84,23.28-3.67,46.56-4.31,69.91c-0.5,18.26-9.14,30.95-26.52,36.76c-23.31,7.78-46.98,7.68-70.37,0.3
		c-11.21-3.53-20.14-10.27-22.75-22.66c-1.35-6.4-0.47-12.96-0.07-19.43c1.34-21.56,3.33-43.08,3.67-64.7
		c0.05-3.19,0.87-4.35,4.24-4.19C613.52,177.49,619.65,177.28,625.77,177.28z"/>
	<path class="st0" d="M474.14,62.88c-5.98-1.8-12.31-3.62-18.85-4.52c-10.7-1.46-21.39-2.2-31.92,1.17
		c-20.64,6.6-24.94,25.58-21.79,39.48c2.16,9.52,9.93,15.2,20.79,15.59c3.1,0.11,6.22-0.39,9.33-0.58c2.23-0.14,3.14-1.15,3.27-3.53
		c0.36-6.73,0.48-6.91-6.38-6.67c-3.44,0.12-4.5-0.79-4.19-4.32c0.65-7.34,0.9-14.71,1.2-22.07c0.08-2.05,0.8-2.8,2.91-2.8
		c15.87,0.07,31.73,0.09,47.6-0.01c2.94-0.02,2.44,1.68,2.34,3.41c-1.13,18.2-2.24,36.4-3.41,54.59c-0.51,7.96-0.55,8.05-8.51,9.04
		c-19.99,2.49-40.05,4.18-60.15,1.77c-14.3-1.71-27.47-6.37-37.76-17.15c-7.2-7.54-10.98-16.69-12.05-26.85
		c-2.29-21.72,3.12-40.93,19.85-55.91c9.77-8.75,21.63-13.21,34.4-15.46c17.96-3.17,35.85-1.74,53.69,1.06
		c9.39,1.48,9.45,1.57,9.61,11.17C474.23,47.77,474.14,55.25,474.14,62.88z"/>
	<path class="st0" d="M1156.7,251.97c-0.74,14.37-1.29,24.34-1.75,34.32c-0.08,1.78-0.24,3.07-2.48,3.37
		c-22.58,3.05-45.2,5.41-67.95,2.32c-13.24-1.8-25.44-6.34-35.12-16.11c-10.5-10.59-13.77-23.85-13.35-38.14
		c0.53-18.01,6.81-33.69,20.7-45.71c10.33-8.94,22.7-13.37,36.01-15.49c18.26-2.91,36.38-1.13,54.43,1.83
		c8.16,1.34,6.62-0.05,6.95,7.87c0.31,7.36,0.37,14.74,0.77,22.09c0.16,2.93-0.32,3.64-3.41,2.67c-13.11-4.1-26.51-6.15-40.28-4.45
		c-21.02,2.6-33.68,19.38-29.92,39.64c1.92,10.36,9.45,16.73,20.56,17.21c2.73,0.12,5.49-0.16,8.21-0.46
		c1.53-0.17,3.87,0.42,4.35-1.34c0.7-2.6,0.72-5.43,0.63-8.15c-0.04-1.26-1.6-0.81-2.52-0.85c-8.17-0.38-8.18-0.37-7.8-8.6
		c0.26-5.74,0.67-11.47,0.82-17.22c0.06-2.33,0.66-3.27,3.22-3.25c15.62,0.11,31.24,0.11,46.85,0.01c2.61-0.02,3.09,0.91,2.89,3.31
		C1157.71,236.66,1157.09,246.51,1156.7,251.97z"/>
	<path class="st0" d="M1594.9,177.28c11.3,0.43,25.06-0.84,38.76,0.79c8.31,0.99,16.23,3.21,22.66,8.92
		c9.02,8,11.57,23.89,6.13,36.51c-3.43,7.97-9.36,13.49-16.93,17.3c-2.42,1.22-2.93,2.36-2.02,4.89
		c4.99,13.87,9.77,27.81,14.77,41.67c1.03,2.85,0.93,3.91-2.56,3.86c-13.12-0.17-26.24-0.15-39.35-0.01
		c-2.65,0.03-3.63-0.8-4.21-3.38c-4.34-19.38-8.87-38.72-14.18-57.86c-0.7-2.51-0.48-3.39,2.39-2.93c4.36,0.69,8.72,0.25,12.98-0.94
		c2.57-0.71,4.91-1.86,6.73-3.88c5.08-5.62,2.81-13.44-4.53-15.09c-6.65-1.5-13.44-0.66-20.17-0.78c-2.13-0.04-1.79,1.69-1.85,2.99
		c-0.65,12.85-1.4,25.69-1.87,38.55c-0.48,13.23-0.75,26.47-0.92,39.71c-0.04,2.77-0.78,3.63-3.6,3.6
		c-12.24-0.15-24.49-0.11-36.73-0.02c-2.35,0.02-3.35-0.39-3.01-3.11c4.4-35.27,5.39-70.72,5.41-106.21c0-3.91,1.1-4.75,4.81-4.67
		C1569.23,177.43,1580.85,177.28,1594.9,177.28z"/>
	<path class="st0" d="M556.91,291.14c-6.62,0-13.25-0.09-19.86,0.05c-2.4,0.05-3.44-0.62-4.01-3.13
		c-4.41-19.6-8.98-39.17-14.35-58.53c-0.67-2.41-0.09-2.87,2.18-2.51c3.74,0.59,7.48,0.34,11.18-0.38c3.24-0.63,6.28-1.73,8.63-4.17
		c5.36-5.57,3.14-13.66-4.34-15.34c-6.65-1.49-13.44-0.65-20.18-0.77c-2.18-0.04-1.72,1.76-1.78,3.01
		c-0.7,13.47-1.48,26.94-1.98,40.41c-0.47,12.61-0.7,25.22-0.83,37.83c-0.03,2.74-0.69,3.63-3.56,3.59
		c-12.24-0.16-24.49-0.13-36.73-0.02c-2.65,0.02-3.4-0.63-3.05-3.39c3.2-25.3,4.56-50.73,5.08-76.22c0.21-10.36,0.37-20.73,0.4-31.1
		c0.01-2.36,0.55-3.27,3.11-3.26c22.99,0.11,45.98,0.05,68.96,0.14c5.25,0.02,10.45,0.74,15.58,1.94
		c22.29,5.2,27.49,22.09,23.3,39.81c-2.44,10.31-9.34,17.18-18.55,21.8c-2.29,1.15-2.7,2.26-1.87,4.57
		c4.97,13.86,9.83,27.76,14.72,41.66c1.4,3.98,1.39,3.99-2.94,4C569.66,291.15,563.28,291.14,556.91,291.14z"/>
	<path class="st0" d="M723.69,142.34c-15.74,0-31.48-0.06-47.22,0.05c-2.76,0.02-3.5-0.46-3.18-3.51
		c3.77-35.29,5.8-70.69,6.05-106.18c0.02-3.6,1.11-4.27,4.41-4.26c30.86,0.11,61.72,0.11,92.58,0c3.05-0.01,4.14,0.63,3.87,3.9
		c-0.65,7.84-1.01,15.7-1.29,23.57c-0.09,2.5-1.01,3.03-3.38,2.99c-16.24-0.27-32.48-0.33-48.72-0.6c-2.8-0.05-3.88,0.61-4.05,3.64
		c-0.47,8.57-0.62,8.63,8.09,8.54c11.24-0.12,22.49-0.27,33.72-0.63c2.88-0.09,3.64,0.66,3.41,3.51
		c-0.66,7.96-1.16,15.95-1.47,23.93c-0.1,2.55-1.08,3.11-3.39,3.09c-13.12-0.08-26.24,0.03-39.35-0.09
		c-2.76-0.03-3.89,0.57-4.09,3.62c-0.56,8.59-0.72,8.58,7.72,8.54c14.99-0.08,29.98-0.52,44.95-1.35c2.92-0.16,3.92,0.38,3.61,3.58
		c-0.79,8.2-1.3,16.43-1.67,24.67c-0.11,2.55-1.06,3.06-3.36,3.04C755.17,142.3,739.43,142.34,723.69,142.34z"/>
	<path class="st0" d="M972.67,177.28c15.62,0,31.23,0.07,46.85-0.06c2.84-0.02,3.66,0.71,3.43,3.58c-0.63,7.84-1.09,15.7-1.34,23.56
		c-0.09,2.82-0.96,3.57-3.74,3.41c-16.1-0.91-32.22-0.46-48.33-0.67c-3.07-0.04-4.09,0.86-4.22,3.93c-0.36,8.26-0.49,8.33,7.75,8.23
		c11.37-0.13,22.73-0.32,34.09-0.66c2.74-0.08,3.72,0.41,3.44,3.45c-0.73,7.96-1.15,15.94-1.49,23.93c-0.11,2.62-1.09,3.26-3.6,3.24
		c-12.99-0.12-25.98,0.02-38.98-0.12c-2.91-0.03-4.18,0.55-4.28,3.81c-0.24,8.36-0.4,8.34,8,8.33c14.87-0.03,29.73-0.43,44.56-1.4
		c3.3-0.21,4.04,0.76,3.76,3.87c-0.69,7.84-1.23,15.69-1.52,23.55c-0.11,3.03-0.98,3.98-4.1,3.97c-29.36-0.12-58.71-0.05-88.07-0.11
		c-2.95-0.01-6.76,1.36-8.63-0.67c-1.72-1.87,0.11-5.46,0.38-8.28c3.2-33.84,5.26-67.73,5.29-101.72c0-2.85,1.13-3.21,3.52-3.2
		C941.18,177.32,956.92,177.28,972.67,177.28z"/>
	<path class="st0" d="M1227.33,177.28c14.74,0,29.48,0.07,44.22-0.06c2.84-0.03,3.65,0.72,3.44,3.57
		c-0.59,7.84-1.02,15.71-1.23,23.57c-0.08,2.79-0.87,3.6-3.69,3.44c-14.35-0.8-28.72-0.55-43.09-0.7c-3.23-0.03-4.57,0.58-4.56,4.21
		c0.03,7.96-0.19,7.96,7.87,7.96c9.37,0,18.74-0.02,28.11,0.01c5.31,0.01,4.73-0.57,4.58,4.9c-0.2,7.24-0.62,14.48-0.66,21.72
		c-0.02,2.78-0.8,3.58-3.63,3.52c-11.36-0.24-22.74-0.05-34.1-0.36c-3.58-0.1-4.31,1.12-4.33,4.42
		c-0.07,11.49-0.53,22.97-0.69,34.46c-0.03,2.37-0.63,3.26-3.15,3.24c-13.24-0.11-26.48-0.1-39.73-0.01
		c-2.41,0.02-3.26-0.52-2.95-3.17c4.18-35.66,5.28-71.47,5.32-107.33c0-2.96,1.02-3.47,3.68-3.45
		C1197.6,177.34,1212.47,177.28,1227.33,177.28z"/>
	<path class="st0" d="M410,177.28c14.74,0,29.49,0.05,44.23-0.05c2.53-0.02,3.55,0.51,3.35,3.28c-0.58,8.1-1.02,16.21-1.26,24.32
		c-0.08,2.6-1.07,3.09-3.39,2.97c-14.61-0.76-29.23-0.54-43.85-0.69c-3.08-0.03-4.06,0.82-4.07,3.94c-0.04,8.24-0.19,8.24,7.98,8.24
		c9.62,0,19.25,0.14,28.86-0.08c3.25-0.08,3.96,0.97,3.79,4.02c-0.45,7.73-0.7,15.48-0.76,23.22c-0.02,2.64-1.04,3.01-3.32,2.98
		c-11.62-0.16-23.24-0.09-34.86-0.31c-2.91-0.05-3.84,0.75-3.87,3.74c-0.1,11.74-0.55,23.48-0.7,35.22
		c-0.03,2.45-0.74,3.16-3.18,3.14c-13.24-0.11-26.49-0.11-39.73,0c-2.53,0.02-3.21-0.73-2.92-3.23
		c4.24-35.66,5.29-71.48,5.34-107.35c0-2.62,0.75-3.41,3.37-3.39C380.01,177.34,395,177.28,410,177.28z"/>
	<path class="st0" d="M614.79,28.51c14.74,0,29.48,0.07,44.21-0.06c2.81-0.03,3.66,0.69,3.46,3.56c-0.55,7.84-0.92,15.71-1.08,23.57
		c-0.06,2.95-1.21,3.39-3.84,3.34c-14.36-0.3-28.72-0.32-43.08-0.63c-3.1-0.07-4.39,0.58-4.51,3.99c-0.29,8.23-0.47,8.22,7.63,8.22
		c9.99,0,19.98,0.07,29.97-0.05c2.52-0.03,3.18,0.77,3.05,3.23c-0.42,7.98-0.72,15.97-0.83,23.96c-0.03,2.58-0.97,3.07-3.31,3.03
		c-11.61-0.2-23.23-0.16-34.84-0.38c-2.71-0.05-3.69,0.65-3.73,3.51c-0.16,11.74-0.64,23.47-0.83,35.2
		c-0.04,2.55-0.71,3.41-3.37,3.39c-13.11-0.13-26.23-0.08-39.34-0.04c-2.1,0.01-3.52,0.03-3.15-2.95
		c3.36-26.91,4.56-53.97,5.12-81.07c0.18-8.74,0.45-17.48,0.36-26.22c-0.03-3.13,1.11-3.68,3.9-3.66
		C585.31,28.58,600.05,28.51,614.79,28.51z"/>
	<path class="st0" d="M843.81,142.33c-14.87,0-29.73-0.06-44.6,0.06c-2.78,0.02-3.7-0.6-3.34-3.57
		c4.29-35.24,6.42-70.62,6.66-106.11c0.02-3.58,1.14-4.31,4.45-4.26c12.36,0.18,24.74,0.22,37.1-0.02c3.65-0.07,4.24,1.06,3.96,4.43
		c-2.07,25.14-3.62,50.31-4.48,75.53c-0.11,3.32,0.75,4.26,4.09,4.17c14.36-0.37,28.73-0.4,43.09-0.71
		c2.59-0.06,3.54,0.47,3.29,3.25c-0.73,8.08-1.32,16.18-1.74,24.29c-0.14,2.58-1.26,3-3.5,2.99
		C873.79,142.3,858.8,142.33,843.81,142.33z"/>
	<path class="st0" d="M1333.76,291.15c-15,0-29.99-0.05-44.98,0.05c-2.62,0.02-3.48-0.62-3.15-3.37
		c4.31-35.63,6.43-71.4,6.72-107.29c0.02-2.68,0.9-3.34,3.44-3.32c12.74,0.11,25.49,0.19,38.24-0.04c3.56-0.07,4.04,1.07,3.78,4.27
		c-2.05,25.03-3.55,50.09-4.51,75.19c-0.15,3.87,0.9,4.78,4.68,4.71c14.12-0.26,28.24,0.06,42.35-0.75
		c2.79-0.16,3.74,0.47,3.46,3.45c-0.76,7.96-1.31,15.94-1.73,23.92c-0.14,2.68-1.22,3.25-3.68,3.23
		C1363.5,291.1,1348.63,291.15,1333.76,291.15z"/>
	<path class="st0" d="M855.02,291.15c-14.75,0-29.5-0.08-44.24,0.06c-3.04,0.03-4.16-0.55-3.76-3.88
		c4.29-35.51,6.35-71.17,6.7-106.92c0.03-2.86,1.21-3.18,3.58-3.17c12.87,0.09,25.75,0.13,38.62-0.02c2.93-0.03,3.46,0.79,3.24,3.63
		c-2,25.41-3.64,50.84-4.51,76.32c-0.11,3.32,0.72,4.22,4.06,4.17c14.24-0.22,28.5,0.11,42.73-0.75c3.3-0.2,3.99,0.81,3.67,3.93
		c-0.76,7.45-1.31,14.94-1.66,22.42c-0.15,3.24-1.1,4.35-4.57,4.3C884.27,291.02,869.64,291.15,855.02,291.15z"/>
	<path class="st1" d="M142.33,247.51c-22.72-0.2-42.08-0.76-60.98-5.74c-19.21-5.07-24.91-11.85-27.42-31.6
		C51.81,193.41,53,176.74,55,160.1c1.81-15.13,4.25-30.15,8.74-44.77c1.91-6.21,4.32-12.21,7.17-18.07
		c4.32-8.86,11.38-14.3,20.47-17.55c12.43-4.43,25.4-5.44,38.39-5.66c21.73-0.37,43.49-0.87,65.21,0.5
		c10.37,0.65,20.57,2.28,30.22,6.58c9.32,4.16,14.71,11.02,16.44,21.13c2.17,12.67,2.14,25.4,1.2,38.11
		c-1.42,19.17-3.06,38.35-7.26,57.17c-0.95,4.26-2.3,8.43-3.3,12.67c-3.53,14.99-13.82,23.43-27.5,28.66
		c-13.46,5.15-27.57,6.94-41.81,8C155.01,247.48,147.01,247.63,142.33,247.51z"/>
	<path class="st0" d="M516.35,142.33c-6.37,0-12.76-0.19-19.12,0.08c-3.32,0.14-3.94-1.07-3.69-4.07c1.78-21.79,3.18-43.61,4-65.46
		c0.52-13.61,0.73-27.23,0.88-40.84c0.03-2.79,0.8-3.61,3.61-3.58c13.12,0.14,26.24,0.12,39.37,0.01c2.48-0.02,3.21,0.67,2.98,3.19
		c-3.19,35.73-4.84,71.54-4.71,107.42c0.01,2.72-0.92,3.36-3.45,3.3C529.6,142.24,522.97,142.33,516.35,142.33z"/>
	<path class="st0" d="M762.35,291.15c-6.62,0-13.24-0.11-19.86,0.05c-2.68,0.07-3.36-0.78-3.18-3.42
		c1.22-17.94,2.32-35.88,3.39-53.83c1.05-17.58,1.51-35.18,1.35-52.79c-0.03-3.13,0.85-3.98,3.96-3.94
		c12.86,0.17,25.73,0.13,38.6,0.02c2.61-0.02,3.7,0.29,3.43,3.44c-3,35.6-4.85,71.26-4.66,107c0.01,2.81-0.74,3.63-3.54,3.54
		C775.35,291,768.85,291.15,762.35,291.15z"/>
	<path class="st2" d="M22.47,161.58c-6.48,0-12.97-0.08-19.45,0.04c-2.18,0.04-3.1-0.43-3.01-2.86c0.27-7.65-0.87-6.09,6.03-6.15
		c12.09-0.1,24.19,0.06,36.28-0.09c2.74-0.03,3.99,0.59,3.52,3.48c-0.16,0.97-0.13,2,0,2.98c0.3,2.25-0.78,2.66-2.79,2.63
		C36.18,161.52,29.32,161.58,22.47,161.58z"/>
	<path class="st3" d="M275.6,161.59c-6.6,0-13.21-0.08-19.81,0.04c-2.18,0.04-3.1-0.44-3.02-2.86c0.26-7.6-0.84-6.09,6.05-6.15
		c12.09-0.1,24.18,0.06,36.26-0.09c2.75-0.03,4.01,0.62,3.5,3.49c-0.06,0.36-0.06,0.76,0,1.12c0.6,3.45-0.49,4.78-4.29,4.55
		C288.07,161.32,281.83,161.59,275.6,161.59z"/>
	<path class="st4" d="M260.96,232.6c0.56-3.08,2.35-3.97,5.37-3.41c2.53,0.47,5.15,0.46,7.81,0.67c-0.52-4.67-6.85-6.45-5.27-11.44
		c1.3-4.13,3.32-8.06,5.27-11.95c0.7-1.4,1.91-0.46,2.93,0.3c-2.87,1.18-4.32,3.53-3.98,6.27c0.15,1.17,2.95,2.36,4.1,1.79
		c2.21-1.08,2.16-3.58,1.52-6.13c1.38,0.57,2.51,1.03,4.1,1.69c-2.37,1.38-4.37,3.18-3.22,5.48c0.64,1.28,3.47,2.87,4.82,1.73
		c2.22-1.87,2.92-4.83,1.13-8.06c3.77,1.9,3.43,3.96-1.49,12.44c-3.25-3.21-7.74-4.02-11.7-5.86c-0.6-0.28-1.26-0.07-1.57,0.59
		c-0.48,1.02,0.12,1.69,0.91,2.16c2.79,1.65,5.57,3.34,8.43,4.87c2.74,1.47,2.78,1.39,0.89,4.24c-2.57-2.53-5.83-3.92-9.44-5.25
		c2.22,3.12,4.43,6.24,6.93,9.76c-4.27,0.67-7.9-0.57-12.65-0.39c3.64,2.17,6.21,4.3,9.85,4.82c0.21,1.05-0.68,1.81-1.19,2.53
		c-0.4,0.39-0.5,0.27-0.73,0.04C270.23,235.88,266.43,232.69,260.96,232.6L260.96,232.6z"/>
	<path class="st5" d="M206.5,283.95c1.46,1.29,1.85,2.55,2.09,4.08c-2.28-0.47-4.85-0.49-5.76,1.61c-0.65,1.49,0.57,4.46,2.03,4.7
		c2.98,0.49,5.36-1.34,6.55-4.37c1.33,2.67,1.42,2.99-0.3,3.72c-2.95,1.25-5.77,2.89-8.92,3.48c-1.48-5-3.19-9.73-6.11-14.15
		c6.89-2.54,13.53-5.66,19.88-9.36c2.24-1.31,3.14-0.42,3.77,1.99c-1.22,0.17-2.15-1.26-3.34-0.6c-0.86,0.48-2.27,0.76-1.67,1.98
		c1.89,3.82,3.63,7.77,6.48,11.45c-0.48,0.78-1.85,1.25-3.32,1.65c-0.73-3.92-3.14-6.99-4.83-10.4c-0.41-0.81-0.62-2.14-1.94-1.89
		c-0.98,0.18-2.01,0.9-2.17,1.87c-0.36,2.18-0.96,2.62-3.13,1.55c-1.91-0.94-3.84,0.46-5.5,1.49c-0.98,0.61-0.19,1.68,0.18,2.34
		c0.54,0.95,0.31,2.91,2.12,2.51C204.43,287.21,206.55,286.84,206.5,283.95z"/>
	<path class="st6" d="M122.11,292.57c-0.8-3.85,0.87-4.06,4.14-3.31c4.11,0.95,8.36,1.25,12.56,1.77c2.08,0.26,4.05,0.74,4.64,3.06
		c0.57,2.27-0.38,3.89-2.64,4.65c-1.29,0.43-1,1.12-0.41,1.96c1.29,1.82,2.55,3.67,3.84,5.54c-2.62,0.45-2.58,0.42-4.5-2.19
		c-1.16-1.57-1.92-3.49-3.82-4.73c-1.19,1.61-0.99,3.42-0.69,5c0.33,1.76-0.37,1.88-1.69,1.74c-1.19-0.12-1.68-0.36-1.25-1.87
		c0.54-1.88,0.5-3.93,0.62-5.92c0.11-1.93,1.33-5.1,0.05-5.53c-2.66-0.89-5.05-3.67-8.35-2.18
		C123.23,290.55,124,293.22,122.11,292.57z"/>
	<path class="st7" d="M261.02,91.59c-2.81-5.28-2.2-10.55-0.2-15.46c1.54-3.77,7.07-5.28,10.27-3.62c3.78,1.96,5.53,6.85,3.72,10.43
		c-1.98,3.93-6.81,5.88-10.72,3.86c-2.86-1.48-2.76,0.13-2.91,2.02C261.12,89.64,261.89,90.45,261.02,91.59z"/>
	<path class="st8" d="M92.26,287.85c-1.47,2.02-2.15,4.04-2.41,6.2c-2.75-0.29-4.03-0.91-1.93-3.68c1.24-1.63,1.78-3.81,2.55-5.77
		c0.75-1.91,1.89-3.71,1.58-6.21c2.41,1.1,4.6,1.96,6.66,3.07c1.59,0.85,2.8,2.2,2.5,4.2c-0.29,1.92-1.42,3.22-3.46,3.29
		c-2.08,0.07-1.73,1.19-1.31,2.5c0.63,1.98,1.22,3.97,1.97,6.42C93.19,296.32,94.81,291.12,92.26,287.85z"/>
	<path class="st9" d="M193.98,14.46c2.65,0.83,5.07,1.47,7.16,2.87c1.31,0.87,2.17,2.13,1.87,3.8c-0.28,1.57-1.09,3.04-2.79,3.08
		c-3,0.08-2.03,1.64-1.46,3.19c0.64,1.74,1.24,3.49,1.9,5.36c-2.89,0.38-3.18-1.81-3.9-3.57c-0.74-1.82-1.01-3.83-2.47-5.77
		c-1.28,2.06-2.14,3.98-1.91,6.39c-1.38,0.34-2.5-0.37-3.63-1.08C191.3,24.3,192.78,19.55,193.98,14.46z"/>
	<path class="st10" d="M20.81,194.42c1.32,3.23,2.52,6.09,2.6,9.26c0.1,4.05-2.33,6.88-6.31,7.44c-3.97,0.56-8.02-1.9-8.75-5.57
		c-0.38-1.9-2.35-3.95-1.18-5.5c0.88-1.16,3.39-1.03,5.13-1.61c2.47-0.82,4.92-1.73,7.35-2.68
		C20.05,195.62,20.29,195.05,20.81,194.42z"/>
	<path class="st4" d="M254.22,248.45c-4.05-0.65-6.89,0.05-7.82,3.9c-0.63,2.6,1.75,6.21,4.92,7.64c3.01,1.36,7.01,0.22,7.54-2.58
		c0.63-3.34-2.38-3.99-4.7-5.12c0.39-1.24,1.56-1.99,2.61-2.9c0.53,0.71,0.99,1.41,1.54,2.03c3.41,3.83,3.5,4.67,0.72,8.07
		c-2.74,3.35-7.05,4.35-10.37,2.4c-5.46-3.21-5.75-9.93-0.6-14.04C251.33,245.23,251.33,245.23,254.22,248.45z"/>
	<path class="st11" d="M27.66,105.52c0.04,4.26-3.22,7.74-7.36,7.87c-4.63,0.14-8.81-3.55-8.84-7.81c-0.03-4.32,3.52-7.9,7.79-7.86
		C23.86,97.77,27.63,101.27,27.66,105.52z"/>
	<path class="st12" d="M66.5,37.35c0.08-4.13,3.62-7.47,7.84-7.39c4.15,0.07,7.9,4.07,7.92,8.44c0.02,3.99-3.65,7.62-7.72,7.61
		C70.2,46.01,66.41,41.92,66.5,37.35z"/>
	<path class="st13" d="M83.04,23.46c5.84-1.24,9.3,3.85,14.68,4.74c-1.22-2.56-2.2-4.91-3.43-7.12c-1.02-1.82-1.15-1.75,1.3-2.63
		c0.35,5.1,3.83,9.14,5.36,14.75c-4.95-2.45-9.14-4.52-14.21-7.03c1.24,3.69,2.39,6.53,4.19,9.12c0.36,0.52,1.54,0.77,0.59,1.64
		c-0.42,0.38-1.13,0.65-1.69,0.63c-0.98-0.05-0.39-0.94-0.57-1.44C87.76,31.8,86.16,27.53,83.04,23.46z"/>
	<path class="st14" d="M185.38,18.12c-0.03,4.9-3.28,8.35-7.76,8.23c-4.46-0.12-7.48-3.2-7.49-7.64c-0.01-4.63,3.21-8.46,7.13-8.47
		C181.82,10.24,185.4,13.71,185.38,18.12z"/>
	<path class="st15" d="M133.21,8.43c6.24,0.39,7.4,7.03,12.25,9.39c-0.15-3.45,0.41-6.77-1.67-9.78c1.21-0.27,2.3-0.47,3.31-0.05
		c-2.06,4.92,0.49,9.85-0.35,15.59c-3.65-3.89-6.97-7.41-10.86-11.54c-0.21,3.95,0.08,7.07,0.77,10.17
		c0.12,0.54,0.89,1.13,0.06,1.56c-0.49,0.26-1.29,0.36-1.77,0.13c-0.79-0.37-0.02-1.04-0.02-1.59
		C134.93,17.76,135.21,13.16,133.21,8.43z"/>
	<path class="st4" d="M232.88,262.55c6.85-7.03,7.54-7.4,10.08-4.98c-3.16-0.12-5.65,1.19-6.41,3.82c-0.38,1.31,1.66,3.72,3.13,3.52
		c2-0.27,3.62-2.08,3.46-4.71c1.43,0.63,2.17,1.7,2.89,3.02c-2.33,0.49-5.08,0.98-4.9,3.72c0.1,1.43,1.92,4.09,3.67,3.57
		c2.78-0.84,4.85-3.1,4.13-7.11c2.5,2.11,2.59,3.62,0.36,5.35c-2.25,1.75-4.34,3.7-6.48,5.54
		C240.19,269.67,236.75,266.07,232.88,262.55z"/>
	<path class="st4" d="M25.35,219.55c-1.27,1.18-2.35,1.69-3.78,1.76c0.41-2.31,0.41-4.95-1.88-5.7c-1.36-0.44-4.38,0.75-4.55,2.45
		c-0.3,3,1.57,5.32,4.82,6.14c-3.14,2.63-3.45,1.76-7.78-8.99c4.89-1.3,9.38-3.48,13.63-6.2c4.09,6.07,4.86,9.14,2.28,10.95
		c0.75-3.05,0.33-5.82-2.18-7.23c-1.02-0.57-3.64,0.57-3.97,2C21.45,216.9,22.77,218.74,25.35,219.55z"/>
	<path class="st16" d="M112.9,298.76c-0.66,2.7-1.9,3.43-4.22,2.51c-2.53-1.01-5.17-1.76-7.76-2.63c0.81-2.4,1.72-4.78,2.4-7.21
		c0.69-2.45,2.01-4.78,1.43-7.72c3.15,0.96,5.98,1.89,8.84,2.68c2.54,0.7,2.01,1.99,0.79,3.61c-0.96-3.17-3.64-3.89-6.15-3.58
		c-1.45,0.18-2.12,2.95-1.59,4.12c1.05,2.29,3.54,1.96,5.73,1.45c0.39,1.49-0.39,2.52-0.91,3.88c-1.22-2.24-3.2-3.73-5.32-2.81
		c-1.58,0.69-1.98,3.17-1.69,4.99C104.72,299.69,109.58,300.11,112.9,298.76z"/>
	<path class="st8" d="M80.28,272.36c3.1,1.58,6.2,3.19,9.31,4.75c1.97,0.99,1.27,2.04,0.02,3.26c-0.95-2.9-3.11-4.64-5.89-4.47
		c-1.21,0.07-2.62,2.7-2.19,3.91c0.74,2.06,3.05,2.62,5.31,2.32c0.24,1.59-0.82,2.38-1.57,3.92c-0.79-2.91-2.61-4.69-4.92-3.99
		c-1.41,0.43-3.11,3.26-2.23,4.64c1.59,2.49,4.48,3.37,7.67,2.12c-1.59,2.99-1.61,3.04-3.91,1.84c-2.43-1.27-5.83-2.14-6.84-4.16
		c-0.68-1.37,2.18-4.37,3.18-6.76c1-2.37,3.79-4.3,2.11-7.45L80.28,272.36z"/>
	<path class="st17" d="M190.25,289.37c-0.29-0.07-0.41-0.06-0.49-0.12c-1.46-1.17-2.87-2.54-4.99-1.6
		c-0.87,0.39-1.48,1.13-1.24,2.08c0.57,2.3,2.78,2.23,4.47,2.8c2.15,0.73,4.52,1.21,5.08,3.83c0.64,3.03-1.03,4.83-3.81,5.39
		c-2.48,0.5-5.74,1.98-5.96-2.88c1.3,0.67,2.41,1.45,3.65,1.84c1.55,0.49,3.11,0.19,3.74-1.53c0.63-1.73-0.38-2.88-1.94-3.48
		c-1.51-0.58-3.11-0.94-4.61-1.55c-1.72-0.7-2.95-1.89-2.8-3.96c0.16-2.18,1.46-3.43,3.48-3.83
		C187.24,285.9,190.18,284.65,190.25,289.37z"/>
	<path class="st18" d="M281.64,196.8c-1.41,0.89-2.93,0.98-3.79,2.18c-0.67,0.94-1.3,1.92-0.43,3.04c0.84,1.08,2.04,1.08,3.03,0.46
		c1.47-0.92,2.76-2.12,4.15-3.18c1.74-1.32,3.61-1.83,5.49-0.37c1.97,1.52,2.08,3.56,1.26,5.74c-1.76,4.71-1.84,4.75-5.41,2.95
		c0.37-0.17,0.65-0.35,0.95-0.44c1.91-0.58,3.45-1.52,3.55-3.78c0.04-0.93-0.26-1.75-1.16-2.17c-2-0.93-3.28,0.43-4.66,1.49
		c-0.99,0.76-1.92,1.62-2.98,2.24c-1.4,0.83-2.86,0.74-4.21-0.26c-1.35-1-1.77-2.36-1.57-3.96
		C276.3,197.35,278.39,195.74,281.64,196.8z"/>
	<path class="st4" d="M27.99,72.52c0.81-1.11,1.54-2.11,2.31-3.17c2.3,3.05,5.46,4.83,8.35,6.91c1.88,1.35,3.77,1.14,5.26-0.78
		c1.56-2.01,1.44-3.97-0.54-5.58c-2.12-1.73-4.15-3.92-6.62-4.8c-3.45-1.22-1.63-2.23-0.43-3.64c1.31,3.45,4.69,4.62,7.14,6.78
		c3.14,2.77,3.39,6.05,0.63,9.1c-2.37,2.61-4.92,2.49-7.67,0.63C33.69,76.13,31.41,73.61,27.99,72.52z"/>
	<path class="st4" d="M260.97,232.6c0.8,3.64,4.38,4.52,6.69,6.65c2.75,2.54,3.38,5.06,1.63,7.91c-2.15,3.49-5.09,4.18-8.54,1.91
		c-1.46-0.96-2.78-2.12-4.22-3.11c-1.29-0.89-2.3-2.37-4.33-1.75c0.47-1.73,1.46-2.66,2.41-3.74c2.26,2.94,5.4,4.73,8.26,6.85
		c1.9,1.41,3.77,1.13,5.27-0.74c1.59-1.99,1.47-3.97-0.51-5.59c-2.12-1.74-4.15-3.89-6.61-4.83
		C257.1,234.66,259.49,233.79,260.97,232.6C260.96,232.6,260.97,232.6,260.97,232.6z"/>
	<path class="st19" d="M60.78,258.06c-1.04-0.06-1.84,0.59-2.85,1.24c0.38-3.42-1.56-5.42-4-6.14c-1.31-0.39-3.46,1.83-3.36,3.32
		c0.15,2.16,2.3,3.19,4.6,3.37c-0.59,1.31-1.42,2.15-2.78,2.77c0.09-2.51-1.67-4.88-3.25-4.64c-2.04,0.3-3.85,2.52-4.46,5.06
		c-1.42-0.38-2.12-1.56-3-2.58c4.09-3.1,7.73-6.56,10.75-10.98c2.61,2.84,5.95,5.24,8.27,8.65L60.78,258.06z"/>
	<path class="st20" d="M16.56,128.97c0.41-0.28,0.6-0.46,0.82-0.55c1.95-0.77,3.61-1.8,3.58-4.23c-0.01-1.13-0.66-1.93-1.7-2.21
		c-2.26-0.6-3.33,1.23-4.69,2.45c-0.65,0.58-1.24,1.25-1.93,1.77c-1.7,1.27-3.48,1.39-5.14-0.02c-2.74-2.32-0.92-4.7-0.05-7.12
		c0.92-2.58,2.5-0.75,3.89-0.77c-1.68,1.24-4.02,1.8-3.97,4.44c0.01,0.8,0.34,1.57,1.13,1.77c2.64,0.69,3.7-1.62,5.18-2.96
		c3.04-2.75,5.59-3.13,7.42-0.93c1.45,1.74,0.95,7.31-0.91,8.73C19.2,130.1,18.06,129.54,16.56,128.97z"/>
	<path class="st21" d="M283.37,114.22c-2.18,0.19-5.17-0.01-5.67,2.32c-0.58,2.68,1.04,5.23,4.05,6.52
		c-3.78,0.9-4.53-0.37-6.23-10.05c4.95-0.66,9.64-2.16,14.26-4.05c2.84,5.92,3.28,9.32,0.8,11.09c1.13-2.92,0.91-5.64-0.74-7.46
		c-1.14-1.26-3.19,0.44-4.83,0.8C284.53,113.83,284.27,114.67,283.37,114.22z"/>
	<path class="st12" d="M163.94,13.8c0.29,1.55,0.31,2.64-0.37,3.92c-1.59-1.44-3.95-2.8-5.36-1.34c-1.53,1.59-1.25,4.33-0.19,6.58
		c-3.76,1.05-3.78,1-3.31-2.85c0.44-3.58,0.98-7.21,0.39-10.77c-0.31-1.87,0.58-1.5,1.5-1.45c2.48,0.14,4.95,0.46,7.43,0.52
		c2.2,0.05,1.97,1.33,1.61,3.19c-1.94-2.73-4.66-3.21-7.05-1.95c-1.35,0.71-1.59,3.6-0.49,4.7
		C159.71,15.98,161.99,15.36,163.94,13.8z"/>
	<path class="st22" d="M244.67,62.82c-1.29-0.57-2.18-1.54-2.82-2.79c3.98-2.04,6.38-5.74,9.52-8.62c0.95-0.87,0.21-1.54-0.45-2.16
		c-1.1-1.04-2.42-1.05-4.07-0.33c1.3-2.59,2.44-3.27,4.32-1.13c1.89,2.14,4.01,4.09,6.07,6.08c0.98,0.94,1.25,1.84,0.11,2.81
		c-0.35,0.3-0.9,0.81-1.14,0.71c-0.64-0.26-0.13-0.84-0.05-1.28c0.24-1.44-0.51-2.51-1.62-3.09c-1.39-0.74-1.94,0.8-2.6,1.51
		C249.48,57.24,246.23,59.26,244.67,62.82z"/>
	<path class="st23" d="M215.28,35.27c3.12-0.87,5.19-3.32,7.65-5.16c1.88-1.4,3.41-1.93,5.11,0.04c-3.19,3.95-5.48,8.36-7.23,13.19
		c-1.09-0.21-2.24-0.91-3.27-1.85c2.96-2.42,3.81-6.1,5.4-9.57c-2.53,1.75-5.07,3.5-7.6,5.25
		C214.76,36.56,214.77,35.92,215.28,35.27z"/>
	<path class="st24" d="M231.36,282.29c-1.83-4.76-5.25-8.48-8.54-12.54c0.91-0.7,1.86-1.43,2.86-2.2c1.46,4.33,4.52,7.44,7.02,10.88
		c1.36,1.87,2.62-0.12,3.74-0.85c1.64-1.07,2.47-2.67,2.23-4.86C241.95,275.94,241.22,275.83,231.36,282.29z"/>
	<path class="st25" d="M35.74,227.86c-4.35,1.04-7.57,4.03-11.16,6.29c-1.75,1.11-0.17,2.44,0.5,3.49c1.03,1.62,2.34,2.95,5.23,2.6
		c-2.26,2.04-3.6,2.2-4.89,0.07c-1.54-2.55-3.16-5.06-4.76-7.6c4.91-1.88,9.04-4.72,13.01-8.04
		C34.64,225.38,35.22,226.6,35.74,227.86z"/>
	<path class="st26" d="M151.55,305.24c5.76,0.72,6.71-0.04,6.59-5.7c-0.06-2.76,0.77-5.73-1.89-8.34c5.68-0.57,10.95-1.1,16.21-1.64
		c0.48,0.45,0.41,0.92,0.07,1.41c-2.2-0.22-3.7,0.71-4.26,2.71c-1.8,0.35-0.17-3.17-2.55-1.86c-1.01,0.23-2.02,0.23-3.03,0.04
		c-2.38-0.38-3.13,0.88-3.07,3.01c0.06,1.99,0.16,3.98,0.09,5.97c-0.22,5.88-4.37,8.09-9.78,5.26
		C150.27,305.44,150.9,305.32,151.55,305.24z"/>
	<path class="st27" d="M52.36,49.68c-2.24-0.32-4.01-0.26-4.75,1.47c-0.71,1.66,1.12,2.31,2.01,3.14c2.5,2.31,4.37,5.37,7.85,6.62
		c-0.62,1.41-1.67,2.38-2.86,3.03c-2.01-4.2-5.83-6.66-8.87-9.81c-0.88-0.91-1.46,0.32-2.07,0.85c-1.23,1.06-0.45,2.49-0.46,3.87
		c-2.25-1.32-2.77-2.57-0.74-4.37c2.04-1.81,3.97-3.78,5.77-5.83C49.95,46.71,50.91,47.67,52.36,49.68z"/>
	<path class="st19" d="M68.51,264.21c-3.39,2.63-5.3,6.44-7.92,9.65c-1.03,1.26-0.16,1.99,0.79,2.72c1.91,1.46,3.91,2.56,6.93,1.35
		c-3.14,3.41-4.97,2.67-11.73-3.96c3.79-3.37,6.44-7.6,9.16-11.89C66.8,262.45,67.81,263.1,68.51,264.21z"/>
	<path class="st22" d="M33.92,84.07c2.98,1.53,3.49,2.89,2.15,4.96c-1.47,2.29-2.72,4.73-4.06,7.11c-2.16-1.29-4.26-2.72-6.51-3.84
		c-2.27-1.13-4.18-3.25-7.42-2.73c0.86-1.55,1.56-2.81,2.28-4.13c2.97,3.65,7.3,4.93,11.08,7.01c1.79,0.98,2.05-1.27,2.67-2.3
		C35.09,88.52,35.49,86.72,33.92,84.07z"/>
	<path class="st28" d="M215.28,35.27c0.02,0.63,0.03,1.27,0.05,1.9c-0.57,0.63-1.11,1.55-2.09,1.08c-0.83-0.39-0.39-1.34-0.36-2.03
		c0.12-3.05,0.3-6.1,0.5-9.96c-2.3,3.11-3.77,5.77-4.79,8.67c-0.18,0.53,0.06,1.38-0.89,1.24c-0.46-0.07-0.96-0.36-1.28-0.71
		c-0.77-0.85,0.37-0.87,0.64-1.26c2.69-3.72,4.84-7.72,6.44-12.02c2.21,0.32,2.69,1.74,2.49,3.76
		C215.68,29.06,215.51,32.17,215.28,35.27z"/>
	<path class="st29" d="M172.53,290.98c-0.02-0.47-0.05-0.94-0.07-1.41c1.58-0.32,3.21-0.49,4.74-0.98c2.59-0.84,3.41,0.24,3.35,3.07
		c-1.47-1.48-2.99-2.88-4.77-1.62c-1.53,1.09-0.31,2.84-0.06,4.16c0.55,2.91,0.98,5.85,1.79,8.73c0.65,2.29-1.71,1.17-2.76,1.7
		C174.53,299.87,173.49,295.43,172.53,290.98z"/>
	<path class="st30" d="M122.11,292.57c1.57,0.26-0.24-3.72,2.51-2c-0.03,0.37-0.12,0.75-0.07,1.11c0.19,1.39-1.54,3.01,0.06,4.1
		c1.68,1.15,3.67,0.95,5.74-0.48c-0.27,1.56-0.47,2.74-0.73,4.24c-1.4-1.79-3.05-2.96-5.02-2.38c-2.18,0.64-1.16,2.96-1.75,4.47
		c-0.33,0.84,0.88,2.1-0.58,2.52c-0.64,0.18-1.6,0.04-2.14-0.34c-1.2-0.83,0.12-1.69,0.26-2.52
		C120.89,298.36,121.52,295.47,122.11,292.57z"/>
	<path class="st19" d="M60.7,258.13c1.65-0.07,2.16,1.46,3.38,2.13c-4.31,3.2-7.46,7.07-10.16,11.54c-1.01-0.25-1.76-1.27-2.69-2.2
		c3.49-3.63,7.23-7.01,9.56-11.54C60.78,258.06,60.7,258.13,60.7,258.13z"/>
	<path class="st31" d="M262.96,60.51c0.82,1.01,1.52,1.86,2.3,2.82c-4.31,2.87-8.44,5.77-11.67,9.81c-2.26-1.47-2.63-2.57,0.35-4.52
		C257.18,66.49,260.5,64.18,262.96,60.51z"/>
	<path class="st32" d="M128.23,24.81c-2.63,1.51-3.69,1.33-3.9-2.29c-0.22-3.87-0.78-7.88-2.52-11.71c2.03-0.66,3.57-1.98,3.67,2.03
		C125.58,16.77,126.06,20.97,128.23,24.81z"/>
	<path class="st33" d="M55.44,42.42c0.85-0.71,1.7-1.42,2.52-2.09c2.68,4.37,5.71,8.29,9.67,11.7c-0.38,1.04-1.65,1.65-2.69,2.43
		C62.56,49.84,58.95,46.25,55.44,42.42z"/>
	<path class="st23" d="M80.35,272.3c-1.27-0.37-2.25,0.11-2.88,1.16c-2.13,3.58-4.91,6.78-6.34,10.8c-1.13-0.33-2.03-0.95-2.76-1.8
		c3.02-3.94,5.85-7.98,7.96-12.69c1.49,0.21,2.71,1.41,3.95,2.59C80.28,272.36,80.35,272.3,80.35,272.3z"/>
	<path class="st34" d="M270.16,101.25c-1.44-4.34-0.73-6.06,3.29-8.08c2.74-1.38,5.78-2.19,8.28-4.44c0.58,1.24,1.1,2.34,1.63,3.47
		c-4.07,0.65-7.47,2.57-10.88,4.43c-1.16,0.63-1.78,1.7-1.6,3.11C270.91,100.37,271.59,101.31,270.16,101.25z"/>
	<path class="st35" d="M237.59,40.51c0.87-0.72,1.8-1.27,3.39-1.17c-1.29,5.36-2.55,10.62-3.85,16.01c-4.69-1.4-1.26-4.15-1.02-6.33
		c-0.45-0.83-0.4-1.68-0.14-2.54c0.33-1.1,0.75-2.18,1.06-3.29C237.35,42.33,237.13,41.35,237.59,40.51z"/>
	<path class="st23" d="M162.69,291.87c0.99-1.08,2-1.16,3.03-0.04c0.02,4.21,0.29,8.42,1.47,12.45c0.52,1.77-0.47,1.59-1.32,1.66
		c-0.78,0.07-1.89,0.71-1.81-1.21C164.23,300.41,163.59,296.11,162.69,291.87z"/>
	<path class="st36" d="M41.28,240.95c1.02,0.25,1.9-1.37,2.67-0.59c1.02,1.03-0.29,2.03-0.75,2.93c-2.03,3.97-4.16,7.88-6.31,11.91
		c-1.46-1.26-3.05-2.49-0.36-4.56c0.79-0.61,1.34-1.83,0.69-3.05c0.27-0.58,0.74-1.02,1.09-1.54c0.8-1.25,1.4-2.6,1.99-3.96
		C40.54,241.64,40.88,241.28,41.28,240.95z"/>
	<path class="st37" d="M151.55,305.24c-0.26,0.81-0.98,0.76-1.62,0.86c-1.78-1.13-2.16-2.91-2.24-4.84c-0.1-2.6-0.2-5.21-0.36-7.81
		c-0.04-0.68-0.76-1.5,0.31-1.86c0.67-0.23,1.53-0.32,2.19-0.11c1.17,0.36,0.14,1.21,0.2,1.84
		C150.43,297.31,148.9,301.54,151.55,305.24z"/>
	<path class="st38" d="M237.59,40.51c0.37,0.78,1.31,1.49,0.32,2.45c-3.38,1.42-3.38,1.42-0.95,3.67c-0.28,0.79-0.56,1.59-0.84,2.38
		c-0.96-0.79-1.98-1.51-2.85-2.38c-1.51-1.52-3.3-1.28-4.09,0.24c-1.72,3.32-2.49,0.73-4.13-0.44
		C229.91,45.21,233.33,42.04,237.59,40.51z"/>
	<path class="st39" d="M270.16,101.25c0.24-0.51,0.48-1.02,0.72-1.52c2.23,4.3,3.1,4.61,7.61,2.72c5.47-2.29,5.47-2.29,6.95-4.54
		c1.39,0.7,1.62,2.08,2.14,3.7c-3.69-0.85-6.27,1.53-9.26,2.66C274.09,105.89,272.36,105.27,270.16,101.25z"/>
	<path class="st40" d="M38.89,246.74c-0.27,0.82-0.93,0.91-1.66,0.86c-2.12-1.71-3.67-5.79-7.18-1.36c-0.51,0.64-1.63-1.34-2.3-2.67
		c4.82,0.01,8.89-2.65,13.53-2.62c-0.04,0.49-0.07,0.98-0.11,1.46C39.64,243.46,36.36,243.57,38.89,246.74z"/>
	<path class="st41" d="M283.37,114.22c0.54-0.27,1.08-0.54,1.62-0.82c-0.08,2.42,0.47,4.56,3.68,6c-2.17,0.64-3.41,1.01-5.46,1.61
		C284.72,118.33,283.95,116.28,283.37,114.22z"/>
	<path class="st26" d="M235.33,258.95c-0.34-0.67-0.43-0.77-0.44-0.88c-0.11-1.69-0.41-3.43,0.94-4.81c0.13-0.13,0.84-0.01,0.9,0.14
		C237.43,255.33,236.36,256.82,235.33,258.95z"/>
	<path class="st42" d="M87.72,274.42c-0.47-0.19-0.64-0.21-0.69-0.29c-0.71-1.27-1.96-2.34-1.57-4.01c0.04-0.17,0.77-0.4,0.87-0.29
		C87.54,271.03,87.91,272.52,87.72,274.42z"/>
	<path class="st43" d="M1436.76,233.93c0.37-8.34,3.91-16.98,12.28-23.08c15.27-11.13,36.79-2.63,40.23,15.93
		c2.09,11.25-1.01,21.19-9.38,28.93c-8.36,7.74-18.22,8.66-28.55,4.2C1442.29,255.99,1436.7,246.57,1436.76,233.93z"/>
	<path class="st44" d="M213.12,232.69c-1.33,0.89-2.85,0.86-4.34,0.85c-40.61-0.01-81.22-0.03-121.83-0.06
		c-0.25,0-0.5-0.06-0.74-0.1c0.59-2.44,2.8-2.05,4.44-2.33c2.2-0.37,4.46-0.35,6.66-0.86c3.47-0.8,3.79-1.35,2.36-4.52
		c-4.66-10.33-9.53-20.58-14.34-30.84c-4.23-9.02-8.23-18.16-12.73-27.06c-0.44-0.87-0.69-1.88-1.84-2.66
		c-1.26,2.86-2.15,5.76-3.05,8.67c-0.42,1.35-0.35,3.07-2.37,3.28c1.06-9.4,2.05-18.8,3.19-28.19c1.86-15.33,3.8-30.65,5.72-45.97
		c0.25-1.98,0.43-3.97,0.83-5.92c1.23-6.1,6.79-10.69,13.16-10.7c46.18-0.04,92.37-0.04,138.55-0.03c1.46,0,3.02-0.26,4.3,0.81
		c-1.11,1.28-2.66,1.27-4.14,1.27c-16.17,0.01-32.34,0.17-48.51-0.06c-21.7-0.06-43.4-0.01-65.11-0.02c-4.31,0-4.22-0.02-2.39,3.94
		c2.2,4.75,4.51,9.46,6.63,14.24c1.23,2.76,2.62,5.37,4.56,7.68c0.66,1.12,0.05,1.88-0.73,2.59c-4.25,3.06-8.36,6.29-11.45,10.61
		c-1.79,2.25-3.53,4.53-4.8,7.13c-7.55,13.98-8.84,28.44-3.43,43.43c4.55,12.41,13.43,21.03,24.39,27.84
		c2.34,1.29,4.85,2.15,7.4,2.92c0.39,0.08,0.75,0.19,1.12,0.33c6.26,1.57,12.56,2.68,19.04,2.42c0.86-0.03,1.72,0.24,2.37,0.9
		c0,1.62-1.34,1.64-2.36,1.82c-2.21,0.38-2.24,1.64-1.44,3.24c1.74,3.46,3.23,7.04,4.85,10.55c1.45,3.12,4.25,3.58,7.24,3.59
		c10.37,0.04,20.74,0.02,31.1,0.01c1.75,0,3.5,0.04,5.25,0.01c2.92-0.19,5.84-0.12,8.76-0.05
		C210.78,231.49,212.15,231.51,213.12,232.69z"/>
	<path class="st45" d="M177.73,87.15c17.78-0.03,35.57-0.06,53.35-0.09c5.67,2.25,6.29,7.26,5.75,12.13
		c-2.08,18.92-4.52,37.79-6.85,56.68c-0.04,0.35-0.27,0.69-0.42,1.03c-0.97,6.24-1.67,12.52-2.28,18.8l0.03-0.06
		c-0.66,3.06-0.86,6.19-1.26,9.29c-0.37,1.44-1.19,2.6-2.7,2.74c-1.66,0.15-2.36-1.29-2.9-2.52c-5.96-13.57-13.19-26.57-18.21-40.55
		c-1.82-5.07-4.27-9.84-6.88-14.5c-6.65-11.87-11.72-24.49-17.65-36.7C176.75,91.42,175.7,89.22,177.73,87.15z"/>
	<path class="st46" d="M177.73,87.15c-0.77,2.73,0.33,5.14,1.5,7.44c6.11,11.96,11.04,24.47,17.61,36.23
		c6.97,12.49,10.96,26.39,17.57,39.09c2.47,4.73,4.66,9.63,6.68,14.57c1.27,3.1,2.63,2.98,4.62,0.86c0.62,1.08,0.46,2.18,0.09,3.29
		c-0.75,5.52-1.39,11.05-2.28,16.54c-1.08,6.63-0.75,13.47-2.97,19.93c-3,4.22-5.18,4.16-7.43-0.56
		c-5.18-10.88-10.26-21.81-15.28-32.77c-1.69-3.68-0.34-7.34-0.11-11.01c1.03-4.7,2.45-9.3,3.91-13.88c1-3.92,0.67-7.86,0.17-11.8
		c-1.92-7.28-3.15-14.79-7.13-21.38c-0.32-0.63-0.62-1.27-1-1.87c-0.31-0.42-0.6-0.85-0.9-1.28c-5.06-7.08-11.18-12.94-19.19-16.63
		c-10.78-5.51-22.17-6.71-34-4.79c-1.96,0.32-3.86,0.9-5.66,1.77c-2.99,1.02-6.06,1.82-8.74,3.62c-0.87,0.58-1.87,1.29-2.98,0.33
		c-2.72-1.05-3.7-3.56-4.79-5.91c-2.31-4.95-4.46-9.97-6.78-14.92c-1.03-2.2-1.89-4.51-4.84-6.87
		C130.56,87.15,154.14,87.15,177.73,87.15z"/>
	<path class="st47" d="M65.33,177.07c1.73-3.29,2.42-6.94,3.62-10.41c0.43-1.26,0.41-3.06,1.97-3.21c1.16-0.11,1.39,1.58,1.85,2.55
		c9.53,20.24,18.99,40.52,28.57,60.75c1.43,3.03-0.2,3.84-2.53,4.24c-3.65,0.63-7.34,1.05-11,1.63c-0.56,0.09-1.07,0.51-1.6,0.78
		c-5.24,0.05-10.49,0.32-15.72,0.09c-7.26-0.32-11.56-7.1-10.37-15.66c0.8-5.79,1.38-11.62,2.13-17.42
		C63.24,192.62,64.3,184.85,65.33,177.07z"/>
	<path class="st46" d="M198.62,180.69c-2.3,7.97,1.75,14.43,4.93,21.13c3.42,7.2,6.69,14.46,10.12,21.65
		c2.36,4.94,2.43,4.9,6.86,1.62c-0.74,4.23-3.63,6.35-7.42,7.6c-4.3-0.03-8.6-0.06-12.9-0.09c-3.52-3.9-4.61-9.07-7.03-13.56
		c-2.12-3.94-3.81-8.14-5.78-12.18c-1.28-2.62-2.14-5.35-1.31-8.32c0.94-2.39,3.63-3.52,4.39-6.05c2.07-3.72,4.87-7,6.65-10.9
		C197.4,181.03,197.94,180.68,198.62,180.69z"/>
	<path class="st46" d="M227.29,175.7c-0.07-6.37,0.63-12.64,2.28-18.8C229.33,163.23,228.63,169.5,227.29,175.7z"/>
	<path class="st46" d="M225.79,188.62c-0.03-1.09-0.06-2.19-0.09-3.28c0.04-3.31,0.36-6.58,1.62-9.69
		C227.32,180.03,226.84,184.36,225.79,188.62z"/>
	<path class="st48" d="M137.54,291.7c2.06,0.4,3.51,1.24,3.43,3.37c-0.08,2.15-1.58,2.84-3.5,2.97c-1.88,0.13-1.99-1.06-1.74-2.37
		C136.01,294.2,135.01,292.01,137.54,291.7z"/>
	<path class="st49" d="M274.24,78.49c-0.11,3.87-6.8,8.23-10.41,6.75c-2.29-0.94-3.2-2.71-2.67-5.11c0.68-3.09,6.3-6.79,9.38-6.14
		C272.89,74.49,274.14,76.05,274.24,78.49z"/>
	<path class="st45" d="M98.71,284.4c-0.27,1.84-1.14,3.11-3.12,2.99c-1.1-0.07-3.03,0.12-2.64-1.61c0.36-1.62,0.43-4.13,2.64-4.41
		C97.27,281.15,98.46,282.58,98.71,284.4z"/>
	<path class="st50" d="M197.15,22.89c-0.9-0.33-2.88,0.34-2.33-1.71c0.43-1.62,0.24-4.16,2.63-4.33c1.71-0.12,2.94,1.29,2.93,3.18
		C200.37,22,199.2,22.91,197.15,22.89z"/>
	<path class="st51" d="M22.16,202.29c-0.03,3.23-2.23,5.66-5.74,6.34c-3.27,0.64-5.53-0.7-7.05-3.57c-0.88-1.66-0.68-2.78,1.29-3.39
		c2.49-0.78,4.94-1.7,7.42-2.53C21.4,198.02,22.19,198.64,22.16,202.29z"/>
	<path class="st52" d="M26.34,106.37c0.12,2.21-1.02,3.54-2.99,4.22c-2.7,0.94-8.03-0.95-9.73-3.46c-1.16-1.71-1.31-3.49,0.11-5.16
		c2.08-2.44,4.67-2.03,7.22-1.07C23.55,101.88,26.1,103.02,26.34,106.37z"/>
	<path class="st53" d="M68.48,35.6c0.42-2.41,1.64-4.22,4.58-4.15c3.23,0.07,7.41,5.22,7.09,8.87c-0.23,2.51-1.58,4.15-4.32,4.16
		C72.57,44.49,68.36,39.49,68.48,35.6z"/>
	<path class="st54" d="M172.64,19.61c0.07-4.69,2.62-8.34,5.79-8.29c2.68,0.04,4.52,2.44,4.44,5.81c-0.11,4.72-2.62,8.34-5.77,8.31
		C174.55,25.41,172.59,22.86,172.64,19.61z"/>
	<path class="st55" d="M236.96,46.64c-1.78,0.41-3.54-0.98-3.22-1.95c0.43-1.3,1.97-3.14,4.17-1.73
		C237.59,44.19,237.27,45.41,236.96,46.64z"/>
	<path class="st56" d="M38.89,246.74c-1.82-0.09-3.04-1.83-2.57-2.79c0.82-1.67,3.01-1.64,4.85-1.53
		C40.41,243.86,39.65,245.3,38.89,246.74z"/>
	<path class="st57" d="M186.78,198.16c-0.46,3.49,0.64,6.58,2.14,9.68c3.94,8.18,8.09,16.26,11.3,24.77
		c-12.06,0-24.13-0.04-36.19,0.02c-4.07,0.02-7.11-1.06-8.58-5.39c-1.14-3.39-2.93-6.56-4.46-9.82c-1.71-3.64-1.49-4.02,2.64-4.29
		c0.87-0.06,1.77,0.04,2.32-0.84c1.66-2.41,4.51-1.68,6.75-2.57c1.29-0.51,2.7-0.48,3.99-0.96c6.02-1.84,11.13-5.29,16.04-9.09
		c1.08-0.83,2.07-1.8,3.57-1.77C186.46,197.98,186.62,198.07,186.78,198.16z"/>
	<path class="st58" d="M125.93,206.4c-11.42-6.43-20.09-15.31-24.72-27.77c-0.41-2.72-1.76-5.4-0.33-8.19
		c1.38-1.2,2.8-1.14,4.24-0.11c0.73,2.14,2.61,2.86,4.5,3.55c0.73,1.89,2.17,3.08,3.93,3.95c0.72,1.07,0.79,2.32,0.7,3.51
		c-0.2,2.58,1.01,3.84,3.48,4.1c5.21,1.79,4.24,6.82,5.49,11.39c1.67-3.28,3.39-5.47,6.78-3.31c2.4,4.51,5.35,8.05,11.26,7.31
		c1.88-0.24,3.95-0.42,5.69,0.87c0.03,0.12,0.1,0.34,0.09,0.35c-3.65,1.29-4.18,4.78-5.47,7.73c-2.75,0.72-5.42-0.17-8.13-0.36
		l-0.02,0C131.87,206.04,128.31,207.68,125.93,206.4z"/>
	<path class="st59" d="M104.94,133.66c0.7-2.87,2.73-4.82,4.67-6.84c1.65-0.96,3.15-1.04,4.29,0.79c0.43,2.03,1.7,2.67,3.74,2.78
		c4.25,0.23,4.82,0.93,4.97,5.17c0.08,2.35,0.1,4.71-0.02,7.06c-0.19,3.93-0.76,4.45-4.94,4.85c-5.36-0.37-10.79,0.84-16.11-0.59
		c-1.08-0.77-1.46-2.28-0.71-2.89C104.23,141.27,103.47,137.04,104.94,133.66z"/>
	<path class="st60" d="M122.21,114.85c3.71-1.39,6.76-4.46,11.07-4.32c0.67,0.37,0.94,0.99,1.11,1.68c0.17,3.6,0.76,7.21-0.49,10.75
		c-0.87,1.08-2.14,1.16-3.37,1.21c-1.94,0.08-3.6,0.53-4.78,2.3c-0.94,1.41-2.49,1.45-4.02,1.25c-2.56-0.66-3.61-1.97-2.07-4.54
		c1.27-2.12,0.45-4.63,1.1-6.87C121.25,115.82,121.73,115.34,122.21,114.85z"/>
	<path class="st61" d="M104.94,133.66c0,1.83,0.01,3.66,0,5.49c-0.01,1.7,0.18,3.32-2.32,3.74c-1.72,0.28-1.17,2.14-1.26,3.43
		c0.81,1.03,1.03,2.24,1.05,3.5c0.07,5.71,0.08,11.41-0.01,17.12c-0.02,1.26-0.25,2.47-1.1,3.48c-0.03,2.74-0.07,5.48-0.1,8.22
		c-4.83-11.84-5.31-23.74-0.69-35.79C101.74,139.64,102.21,136.12,104.94,133.66z"/>
	<path class="st62" d="M120.77,116.31c0.95,2.81,1.58,5.51-0.74,8.11c-1.53,1.72,0.76,1.77,1.43,2.52c0.98,1.15,1.08,2.37,0.28,3.66
		c-6.02,1.03-6.64,0.8-8.44-3c-1.01-1.26-2.46-0.48-3.67-0.8C112.3,122.22,116.38,119.1,120.77,116.31z"/>
	<path class="st63" d="M133.44,209.42c2.76,0,5.52,0,8.28,0.01c0.76-0.7,1.66-1.14,2.67-1.15c7.29-0.04,14.58-0.58,21.86,0.3
		c0.48,0.18,0.86,0.48,1.16,0.89c-3.82,0.94-7.63,1.87-11.45,2.81C148.27,212.72,140.72,212.12,133.44,209.42z"/>
	<path class="st63" d="M125.93,206.4c1.36-0.08,2.72-0.07,4.07-0.25c2.55-0.34,3.8,0.58,3.43,3.26
		C130.65,209.09,128.2,207.96,125.93,206.4z"/>
	<path class="st64" d="M193.45,130.52c0.23,0.26,0.46,0.51,0.7,0.77c-1.31,1.61-3.31,0.7-5.21,1.48c3.44,2.71,1.86,8.38,6.6,10.26
		c0.74,2.27,0.79,4.52-0.04,6.77c-3.3,1.9-3.84,1.76-6.8-1.73c-3.08,3.29-5.51,7.46-10.8,7.7c-1.34,0.06-1.9,0.97-2.07,2.23
		c-0.18,1.34,0.03,2.76-0.7,4.01c-0.25,0.35-0.57,0.6-0.97,0.77c-3.97,0.31-4.76-0.29-5.01-3.97c-0.14-1.99-0.13-3.98,0.05-5.97
		c0.1-1.13,0.22-2.54,1.31-2.94c2.93-1.06,3.02-3.65,3.65-5.98c0.53-0.91,1.17-0.74,1.79-0.12c1.46,1.48,3.07,2.8,4.3,4.81
		c1.25-1.7,1.34-3.47,0.22-4.36c-3.13-2.47-3.05-5.77-3.04-9.15c0-0.61-0.03-1.24-0.79-1.9c-1.24,1.15-0.73,2.67-0.87,4
		c-0.2,1.93,0.48,4.02-1.06,5.71c-4.16,1.1-5.17,0.52-5.49-3.73c-0.29-3.92-3.97-6.12-4.67-9.84c-0.14-0.75-1.74-0.72-2.7-0.95
		c-3.03-0.41-5-1.76-4.68-5.18c0.02-1.91-0.76-3.29-2.48-4.27c-1.63-0.92-2.91-2.36-4.3-3.59c-1.7-1.5-1.47-3.74,0.24-4.75
		c1.89-1.12,6.83-0.77,8.05,0.97c1.38,1.97,3.13,2.11,5.19,2.23c3.58,0.2,7.25-0.78,10.72,0.78c-1.28,2.77-4.22,4.01-6,6.62
		c0.81,1.14,2.13,0.82,3.26,0.83c3.62,0.06,7.24-0.03,10.87,0.05c1.84,0.04,3.98-0.21,4.69,2.14c0.68,2.25-0.24,3.88-2.99,4.72
		C187.65,130.26,190.87,128.63,193.45,130.52z"/>
	<path class="st65" d="M174.5,114.88c-4.47,0-8.94,0.02-13.41-0.02c-1.05-0.01-2.17,0.26-2.77-1.2c-0.87-2.12-5.64-3.55-7.52-2.29
		c-1.28,0.86-1.09,3.05-0.31,3.08c3.2,0.11,3.34,4.04,6.45,4.41c2.32,0.28,0.93,2.86,1.16,4.42c-1.37,1.15-3.03,0.87-4.62,0.92
		c-2.81,0.07-4.52-1.09-4.56-4.09c-0.03-2.51-1.19-3.96-3.78-4.08c-1.96-0.09-3.61-0.7-4.64-2.54c-0.63-1.12-1.82-1.15-2.95-1.21
		c-1.35-0.08-2.73,0.3-4.03-0.34c-0.08-0.47-0.15-0.93-0.23-1.4c1.78-2.1,4.38-2.21,6.78-2.55c12.1-1.72,23.79-0.6,34.68,5.46
		C175.11,114,175.19,114.5,174.5,114.88z"/>
	<path class="st66" d="M195,150.06c-0.04-2.49-0.09-4.99-0.13-7.48c-1.55-3.3-1.79-6.56,0.23-9.77c4.65,6.55,5.55,14.39,7.48,21.87
		c0.35,4.23,0.51,8.46-0.11,12.68c-1.29,4.44-2.57,8.89-3.86,13.33c-2.47,4.05-4.94,8.1-7.41,12.15c-0.42,0.26-0.78,0.2-1.09-0.18
		c-0.6-0.92-0.65-1.96-0.65-3.01c-0.02-1.88,0.56-3.47,2.4-4.26c1.84-0.79,2.07-2.3,2.02-4.01c-0.09-3.39-0.25-6.77,3.14-8.98
		c0.57-0.38,0.59-1.34,0.6-2.1c-0.04-1.24-0.02-2.48,0.01-3.72c-0.07-1.47-0.06-2.94,0-4.4c-0.07-2.12-0.15-4.26,0.02-6.36
		C197.86,153.31,196.99,151.47,195,150.06z"/>
	<path class="st67" d="M174.5,114.88c0.08-0.48,0.16-0.95,0.24-1.43c7.67,4.12,14.33,9.35,18.72,17.07c-3.1,0.03-6.2,0.07-9.3,0.1
		c-0.95,0.01-1.74-0.24-1.79-1.4c-0.05-1.12,0.6-1.61,1.6-1.56c2.02,0.09,3.07-0.65,2.77-2.82c-0.33-2.37-2.19-1.59-3.5-1.62
		c-4.59-0.11-9.19-0.05-13.78-0.11c-1.15-0.02-2.63,0.44-2.9-1.44c-0.22-1.58,0.49-2.29,2.06-2.34c0.44-0.01,1.27-0.41,1.25-0.55
		C169.5,115.14,172.92,116.11,174.5,114.88z"/>
	<path class="st68" d="M195.1,132.81c-0.08,3.26-0.15,6.52-0.23,9.77c-3.54,0.16-4.36-2.12-4.4-5c-0.03-1.65,0.17-3.33-2.31-3.26
		c-0.89,0.03-1.28-0.6-1.27-1.47c0.01-1.15,0.75-1.43,1.71-1.45c1.85-0.04,3.7-0.08,5.55-0.12
		C194.47,131.8,194.79,132.3,195.1,132.81z"/>
	<path class="st46" d="M202.48,167.36c0.03-4.23,0.07-8.46,0.11-12.68C203.56,158.92,203.75,163.14,202.48,167.36z"/>
	<path class="st57" d="M190.58,192.88c0.21,0.01,0.42,0,0.63-0.04c-0.48,2.6-2.73,3.73-4.43,5.32c0,0-0.17-0.14-0.17-0.14
		c-0.78-2.43,1.42-3.22,2.54-4.6C189.57,193.08,190.03,192.85,190.58,192.88z"/>
	<path class="st69" d="M189.86,193.74c-0.97,1.51-2.85,2.33-3.25,4.28c-5.67,3.87-10.8,8.62-17.48,10.87
		c-0.58,0.19-1.15,0.39-1.73,0.58c-0.37-0.08-0.74-0.15-1.11-0.23c-1.13-2.14-0.1-3.67,1.88-3.76c3.94-0.19,6.25-2.94,8.46-5.34
		c1.77-1.93,4.13-3.41,5.27-6.07c0.84-1.96,3.19-1.46,5.03-1.49C188.05,192.62,189.13,192.74,189.86,193.74z"/>
	<path class="st70" d="M186.68,193.47c-2.24,0.2-5-0.31-4.53,3.5c0.11,0.89-0.77,1.2-1.57,1.19c-1.58-0.03-2.16,0.74-2.23,2.26
		c-0.09,2.11-2.9,0.87-3.03,1.86c-0.61,4.56-4.41,3.42-7,3.99c-2.04,0.45-1.67,1.78-2.03,2.97c-8.19,0.06-16.39,0.12-24.58,0.18
		c0.01-5.91,0.01-5.91,5.25-7.43c0.6-0.92,1.57-1,2.53-1.11c2.22,0.21,3.5-0.61,3.32-3.04c0.05-0.56,0.17-1.1,0.35-1.63
		c1.69-2.69,5.31-3.81,7.98-2.43c1.85,0.95,1.89,2.46,1.08,4.11c-0.43,0.89-1.66,1.08-2.01,2.11c4.33,1.48,8.55-0.97,8.88-5.33
		c0.19-2.53,0.67-4.66,3.17-5.84c0.57-0.27,1.14-0.83,1.09-1.43c-0.31-3.65,2.31-5.76,4.18-8.3c1.99-2.71,4.06-2.76,5.55,0.18
		c0.59,1.16,1.21,2.14,2.38,2.74c1.18,0.6,2.03,1.45,1.96,2.9c-0.04,0.37-0.15,0.72-0.31,1.05c-0.59,1.03-2.09,0.69-2.71,1.73
		c0.4,1.07,1.63,1.02,2.29,1.73c0.27,0.26,0.47,0.56,0.61,0.91C187.62,191.48,187.63,192.57,186.68,193.47z"/>
	<path class="st71" d="M109.45,174.13c-2.04-0.18-4.95,0.94-4.46-3c0.93-0.98,2.18-1.14,3.37-1.02c2.55,0.26,3.79-1.1,4.5-3.28
		c3.64-2.34,7.58-1.25,11.44-1c2.14,1.32,3.15,4.06,5.86,4.71c0.9,2.19,0.74,4.42,0.25,6.66c-0.14,0.38-0.37,0.7-0.68,0.97
		c-1.7,0.69-3.39,1.21-4,3.43c-0.48,1.75-2.18,1.76-3.75,1.36c-0.34-0.15-0.63-0.38-0.87-0.66c-0.35-2.28-1.9-3.56-3.81-4.54
		c-0.74-1.79-1.99-2.71-4.01-2.62C111.94,175.2,110.54,175.18,109.45,174.13z"/>
	<path class="st72" d="M113.2,167.42c0.53,3-0.77,4.09-3.72,3.74c-1.48-0.18-2.99-0.03-4.49-0.03c-1.04-1.21-2.44-0.59-3.69-0.72
		c0.02-8.03,0.03-16.06,0.05-24.09c5.45,0.03,10.91,0.06,16.36,0.09c0.94,1.14,1.04,2.37,0.36,3.66c-1.38,1.26-2.91,1.11-4.49,0.43
		c-1.09-0.47-1.76-2.4-3.41-0.85c-1.68,1.58-4.62,2.01-4.18,5.41c0.3,2.31,0.13,4.7,0.04,7.05c-0.11,2.68,0.77,4.3,3.75,4.22
		C111,166.3,112.28,166.36,113.2,167.42z"/>
	<path class="st73" d="M153.79,196.65c-0.02,0.49-0.05,0.98-0.07,1.47c-1.42,1.06-2.83,2.14-3.72,3.73
		c-1.01,0.05-2.02,0.1-3.03,0.15c-3.09-0.04-6.18-0.07-9.27-0.13c-2.01-0.04-4.48,0.63-4.4-2.78c0.01-0.26-0.44-0.76-0.67-0.76
		c-3.59,0.05-2.76-2.63-2.96-4.69c1.05-1.14,2.44-1.08,3.81-1.1c1.54-0.04,3.1-0.12,4.5,0.72c2.01,3.6,4.69,4.67,8.88,3.67
		c1.28-0.31,1.82-1.14,2.33-2.19c1.06-2.15,2.65-2.43,4.61-1.19C154.31,194.59,154.18,195.62,153.79,196.65z"/>
	<path class="st74" d="M133.47,193.61c-1.27,0.01-2.54,0.02-3.81,0.03c-2.1,0.04-4.79-0.91-4.51,2.91c0.1,1.34-0.93,1.55-2.04,1.51
		c-1.35-0.05-1.55-0.91-1.62-2.01c-0.17-2.39,0.41-4.77-1.18-7.14c-0.79-1.18-1.66-1.93-2.65-2.74c0.15-0.16,0.29-0.32,0.44-0.48
		c2.81-1.07,5.81-0.93,8.72-1.12C129.88,184.39,134.24,190.59,133.47,193.61z"/>
	<path class="st74" d="M117.81,177.81c3.77-0.6,3.99,1.74,3.72,4.49c-1.4,1.07-2.91,2.02-3.69,3.71c0,0-0.17,0.17-0.17,0.18
		c-3.59,0.52-4.96-1.05-4.47-4.58c0.17-1.22,0.01-2.49,0-3.73C114.71,176.52,116.25,176.76,117.81,177.81z"/>
	<path class="st72" d="M117.81,177.81c-1.54,0.02-3.08,0.04-4.62,0.06c-3.04,0.54-4.16-0.83-3.73-3.74
		c1.57,0.01,3.17,0.18,4.72-0.01C117.12,173.74,118.14,175.06,117.81,177.81z"/>
	<path class="st75" d="M117.73,150.01c-0.01-1.2-0.01-2.4-0.02-3.6c2.8,0.34,4.19-0.66,3.78-3.7c-0.2-1.46-0.02-2.97-0.02-4.46
		c0.01-6.11,0.02-6.22-6.12-6.83c-2.9-0.29-1.98-2.22-2.07-3.8c1.93,3.15,4.94,3.37,8.16,2.99c1.12-0.92,2.41-1.61,3.34-2.81
		c1.45-1.87,3.32-2.36,5.5-1.27c0.9,3.57,3.5,4.03,6.6,3.62c1.7-0.22,3.43-0.86,5.04,0.32c1.42,4.27,1.31,8.63,0.05,12.83
		c-0.6,2.01-0.31,3.45,0.97,4.75c1.42,1.44,2.45-0.1,3.55-0.75c1.24-0.73,2.48-1.27,3.78-0.14c1.12,2.67-0.49,3.91-2.66,4.15
		c-3.38,0.38-5.21,1.8-5.17,5.35c0.01,0.86-0.64,1.6-1.39,2.12c-1.01,0.56-2.11,0.63-3.22,0.65c-4.11,0.11-8.23-0.11-12.34-0.03
		c-3.03,0.06-4.78-1.44-4.97-4.38C120.39,152.81,119.17,151.4,117.73,150.01z"/>
	<path class="st76" d="M141.74,130.67c-3.14-0.43-6.11,1.31-9.42,0.33c-2.72-0.81-3.18-1.79-1.87-4.04c1.26-1.1,2.17-2.46,2.96-3.91
		c0.03-3.7,0.06-7.41,0.1-11.11c2.07-1.26,4.36-0.67,6.56-0.77c0.63-0.03,1.43,0.2,1.42,0.9c-0.08,3.66,2.59,2.74,4.66,2.97
		c1.94,0.22,4.32,0.26,3.79,3.26c-0.76,4.35,1.35,5.47,5.18,4.97c0.98-0.13,1.99,0,2.98,0.02c-0.41,2.98,1.71,3.68,3.9,4.33
		c1.17,1.35,1.05,3.02,1.07,4.63c0.04,3.12-0.02,6.25,0.03,9.37c0.03,1.52,0.27,2.78,1.82,3.78c3.69,2.36,3.72,8.23,0.25,11.08
		c-1.94,1.59-3.01,9.98-1.51,11.86c1.38,1.72,4.79,1.02,5.76-1.41c1.02-2.53,2.07-4.77,5.25-4.82l0.02-0.05
		c0.18-2.64,1.42-4.18,4.22-4.43c3.07-0.27,3.9,0.46,3.95,3.91c-0.14,0.39-0.38,0.73-0.7,1c-1.13,0.71-2.66,1.21-2.54,2.88
		c0.37,5.22-3.38,7.55-6.92,9.97c-1.51,1.03-2.01,3.23-4.23,3.4c-3.14,0.24-6.3,0.66-8.28-3.09c-1.55,1.93-2.98,3.76-5.6,2.95
		c-0.39-0.11-0.73-0.3-1.04-0.56c-0.76-0.99-0.79-2.16-0.83-3.33c0.36-2.18-0.6-3.46-2.7-3.99c-0.29-0.23-0.52-0.51-0.7-0.82
		c-0.48-1.02-1.06-1.83-2.29-2.2c-4.83-1.45-6.26-3.75-6.01-9.4c1.15-3.82,3.61-6.62,7.6-8.13c1.73-0.66,1.27-1.85,1.31-3.03
		c-1.15-1.58-1.09-3.22,0.53-4.23c2.02-1.26,2.83-3.77,5.35-4.55c1.5-0.47,1.73-2.21,0.09-2.72c-2.88-0.89-3.93-3.64-6.08-5.27
		c-2.98-2.26-3.8-2.76-6.86-0.57C142.55,130.09,142.21,130.47,141.74,130.67z"/>
	<path class="st77" d="M133.41,123.04c0.19,2.2,0.25,4.29-2.96,3.91c-2.37,0.04-5-0.74-5.62,3.02c-0.19,1.17-2.2,0.51-3.38,0.64
		c0-1.22,0-2.44,0-3.66c1.72-0.15,3.56,0.38,4.11-2.37c0.3-1.51,2.37-1.35,3.83-1.4C130.73,123.13,132.07,123.08,133.41,123.04z"/>
	<path class="st78" d="M174.68,162.08c-2.86,0.99-3.85,3.53-4.39,6.04c-0.89,4.17-3.96,1.76-5.99,2.18c-2.46,0.5-2.34-1.5-2.33-3.15
		c0.02-2.49,0.12-4.98,0.01-7.47c-0.1-2.22,0.32-3.6,2.83-4.41c3.42-1.1,1.05-4.27,1.58-6.45c0.41-1.67-0.55-2.54-2.32-2.44
		c-2.01,0.12-2.09-1.26-2.08-2.73c0.02-5.35,0.01-10.7,0.01-16.05c2.84-0.32,4.91,0.21,4.59,3.79c-0.06,0.67,0.27,1.88,0.69,2.02
		c3.68,1.22,2.95,4.25,3.01,6.94c0.07,3.54,2.85,1.74,4.43,2.29c0.16,0.12,0.23,0.26,0.21,0.42c-0.01,0.16-0.04,0.25-0.08,0.25
		c-0.05,1.61-0.11,3.21-0.14,4.82c-0.02,1.11-0.33,2.07-1.64,1.95c-2.76-0.25-2.98,1.42-2.86,3.49c0.08,1.36,0.16,2.74-0.02,4.08
		C169.75,161.17,171.08,162.73,174.68,162.08z"/>
	<path class="st79" d="M182.26,162.14c-0.53-1.27,0.88-3.6-1.75-3.7c-2.63-0.1-4.89,0.76-5.81,3.59c-0.01-0.75,0.05-1.5-0.03-2.23
		c-0.39-3.7,0.54-6.04,4.96-5.23c0.89,0.16,2.37,0.32,2.43-1c0.12-2.38,1.42-2.71,3.38-2.83c1.56-0.1,1.24-1.62,1.27-2.67
		c0.03-1.56,1.07-1.66,2.24-1.87c1.59-0.29,1.57,0.72,1.61,1.75c0.13,3.56,2.83,1.68,4.44,2.11c2.71-0.2,3.98,0.79,3.71,3.77
		c-0.25,2.78,0.01,5.61,0.04,8.42c-1.4,0.92-2.73,0.92-4.01-0.24c-3.65-3.3-7.2-3.41-11.19-0.36
		C183.16,161.95,182.79,162.22,182.26,162.14z"/>
	<path class="st80" d="M174.85,143.31c-0.05-0.22-0.09-0.45-0.13-0.67c0-2.98-0.01-5.95-0.01-8.93c0-1.19,0.12-2.23,1.71-2.32
		c1.77-0.09,2.03,0.97,2.03,2.36c0,1.86,0.06,3.72,0.11,5.58c0.03,1.15,0.18,2.62,1.28,2.89c4.09,1.03,2.17,4.17,2.26,6.39
		c0.08,2.04-2.83,1.65-2.85,1.19C179.06,146.64,175.14,146.2,174.85,143.31z"/>
	<path class="st81" d="M182.26,162.14c1.41-3.11,9.77-5.71,12.02-3.31c1.38,1.47,1.53,4.08,4.48,3.41c-0.02,1.45-0.03,2.9-0.05,4.35
		c-1.28,1.19-2.91,1.33-4.49,1.19c-3.99-0.36-8.07,0.62-11.98-0.85C180.96,165.34,181.01,163.74,182.26,162.14L182.26,162.14z"/>
	<path class="st82" d="M198.66,170.37c0.07,1.83,0.46,3.75-2.37,4.02c-1.11,0.11-1.25,1.36-1.26,2.4c-0.03,2.1-0.12,4.19-0.08,6.29
		c0.04,1.77-0.06,3.11-2.43,3.15c-2.37,0.04-1.83,2.18-2.15,3.64c-1.2,1-2.39,0.97-3.59,0l-0.05-0.07
		c-1.01-1.22-0.99-2.44,0.03-3.64l0-0.01c1.14-1.06,2.89-1.82,2.59-3.75c-0.78-5.04,1.05-8.78,5.31-11.45
		C195.88,169.95,197.14,169.26,198.66,170.37z"/>
	<path class="st83" d="M198.66,170.37c-1.23,0.26-2.45,0.52-3.68,0.78c-2.05,0.52-3.91,0.28-5.36-1.4c-1.1-1.27-2.59-1.15-4.05-1.36
		c-1.27-0.18-3.09,0.38-3.27-1.84c5.47,0.01,10.94,0.03,16.42,0.04C198.7,167.85,198.68,169.11,198.66,170.37z"/>
	<path class="st84" d="M186.78,189.86c1.2,0,2.39,0,3.59,0c0.07,1,0.14,2.01,0.21,3.01c-0.24,0.29-0.48,0.57-0.72,0.86
		c-1.06-0.09-2.12-0.18-3.18-0.27C186.72,192.27,186.75,191.07,186.78,189.86z"/>
	<path class="st84" d="M182.3,166.55c1.12,1.52,2.74,0.68,4.14,0.84c1.73,0.2,3.62-0.57,4.34,2.2c0.44,1.71,3.13,0,4.21,1.55
		c-0.21,1.01,0.43,2.77-1.04,2.8c-4.2,0.08-3.41,3-3.49,5.5c-0.03,0.99-0.13,2,0,2.97c0.41,2.92-0.77,4.16-3.69,3.74
		c0-1.54-0.07-2.98-2.09-3.35c-1.61-0.29-2.7-1.11-2.48-3.04c0.14-1.18-0.5-1.84-1.76-1.85c-1.17-0.01-1.95,0.38-1.95,1.68
		c0,1.58-0.63,2.55-2.31,2.83c-2.05,0.34-1.39,2.07-1.42,3.31c-0.05,2.13,0.25,4.13-2.86,4.57c-2.16,0.3-1.62,2.45-1.64,4.01
		c-0.06,5.04-6.11,9.22-10.81,7.5c-0.86-0.31-1.14-0.85-1.18-1.65c-0.06-1.14,0.27-2.01,1.59-2.02c1.6-0.01,2.26-0.76,2.05-2.34
		c-0.22-1.64-1.49-1.43-2.57-1.42c-2.13,0.02-4.61-0.73-5.53,2.27c-0.02-1.01-0.05-2.02-0.08-3.03c-0.03-0.18-0.05-0.36-0.08-0.55
		c-0.11-0.76-0.09-1.72,0.47-2.09c2.38-1.55,3.09-3.58,3.24-6.43c0.16-2.91-1.48-4.59-2.78-6.62c1.55-0.25,3.75,0.61,3.71-2.29
		c-0.02-1.08,0.71-1.47,1.72-1.49c1.17-0.02,1.96,0.39,1.95,1.67c-0.01,2,1.36,2.34,2.76,1.99c1.88-0.48,4.68,1.72,5.6-1.81
		c0.14-0.55,0.72-1.48,0.94-1.44c3.8,0.75,3.27-4.58,6.7-4.71c0.92-0.03,0.59-2.48,0.44-3.79c-0.33-3.02,0.64-4.52,3.87-3.91
		C182.27,163.61,182.28,165.08,182.3,166.55z"/>
	<path class="st84" d="M150,201.85c-0.41-2.89,1.24-3.72,3.72-3.73C154.17,201.05,153.02,202.38,150,201.85z"/>
	<path class="st84" d="M186.76,186.15c-0.01,1.21-0.02,2.43-0.03,3.64c-0.24-0.02-0.54,0.05-0.72-0.07
		c-1.14-0.72-3.6-0.24-3.29-2.11C183.01,185.81,185.19,186.13,186.76,186.15z"/>
	<path class="st85" d="M117.73,150.01c2.73-0.18,4.11,0.77,3.77,3.82c-0.39,3.45,1.19,4.88,4.85,4.56
		c3.82-0.32,7.69-0.01,11.54,0.02c1.02,1,1.03,2.16,0.57,3.4c-0.18,0.36-0.45,0.63-0.8,0.82c-1.62,0.58-3.31,0.68-4.48-0.71
		c-1.51-1.8-3.36-2.14-5.36-1.58c-2.34,0.66-1.3,2.89-1.7,4.45c-0.09,0.36-0.15,0.73-0.27,1.09c-0.15,0.36-0.4,0.64-0.73,0.84
		c-3.98,0.21-8.04-0.91-11.93,0.7c-9.09-0.3-8.12,1.58-8.23-8.44c-0.02-1.61,0.02-3.22,0.01-4.83c-0.02-2.13-0.35-4.44,3.02-4.09
		c0.66,0.07,1.09-0.36,1.38-1.01c1.32-3.01,2.57-2.94,4.02,0C114.34,150.95,116.25,149.82,117.73,150.01z"/>
	<path class="st85" d="M117.83,186.01c-0.57-3.03,1.09-3.83,3.69-3.7c0,0-0.02,0.02-0.02,0.02c4.78,0.88,5.86,0.29,8.19-4.46
		l0.02-0.03c3.84-2.71,3.84-4.68,0.03-7.44c-2.81,0.37-4.71-0.4-4.61-3.67c0,0,0.26-0.27,0.26-0.27c1.97-1.43,4.27-0.99,6.4-0.86
		c2.89,0.17,4.99-0.62,6.11-3.41l0.21-0.2c2.08-1.16,3.96-0.91,4.03,1.69c0.12,4.28,1.98,6.14,6.2,5.84
		c0.61-0.04,1.15,0.45,1.64,0.84l0.01,0.01c0.93,1.2,1.04,2.46,0.28,3.78c-1.34,1.1-2.7,0.96-4.1,0.1
		c-3.88-2.39-6.74-0.93-7.03,3.73c-0.24,3.71-0.01,7.43-0.09,11.15c-0.03,1.57,0.25,3.27-1.11,4.53c-1.49-0.01-2.97-0.01-4.46-0.02
		c1.27-3.56-3.83-2.51-3.89-5.62c-0.09-4.28-3.27-2.15-5.49-1.99C122.01,186.16,119.92,186.02,117.83,186.01z"/>
	<path class="st74" d="M129.74,170.39c3.22-0.57,3.78,1.03,3.82,3.92c0.05,3.05-1.09,3.96-3.85,3.52
		C129.72,175.35,129.73,172.87,129.74,170.39z"/>
	<path class="st74" d="M129.69,177.86c0.06,5.63-2.22,6.87-8.19,4.46c1.98,0.07,3.75,0.33,3.85-2.77
		C125.45,176.63,128.16,178.31,129.69,177.86z"/>
	<path class="st86" d="M137.93,193.63c0.01-5.49,0.09-10.98,0.02-16.46c-0.04-3.57,2.59-4.78,5.14-5.92c0.84-0.38,2.59-0.59,2.9,0.8
		c0.58,2.64,2.42,1.95,4.07,1.94c1.26-0.9,2.45-0.89,3.54,0.3c0.06,1.17,0.12,2.33,0.17,3.5c2.25,5.28,1.13,10.55-0.08,15.81
		c0,0,0.02,0.02,0.02,0.02c-1.98,0.03-3.06,0.19-4.04,2.8c-1.46,3.9-5.75,1.06-8.74,1.61c-1.52,0.28-3.05,0.07-2.89-2.18
		C138.1,195.11,137.97,194.37,137.93,193.63z"/>
	<path class="st87" d="M141.74,130.67c0.17-3.77,3.43-2.91,5.55-3.59c2.23-0.71,2.77,0.86,2.87,2.69c3.49-0.27,3,4.98,6.63,4.7
		c1.62-0.12,1.39,1.43,1.42,2.52c0.04,1.29,0,2.36-1.78,2.68c-2.54,0.46-6.29,5.03-6.5,7.49c-1.44-0.07-2.64,0.32-3.6,1.5
		c-1.82,2.24-3.43,2.62-4.73-0.56c-0.78-1.91-0.6-1.82-0.02-6.27C142.06,138.15,141.72,134.39,141.74,130.67z"/>
	<path class="st88" d="M149.98,170.35c-0.87,0.01-1.74,0.05-2.61,0.04c-5.41-0.05-5.65-0.05-5.65-5.54c0-3.04-1.83-2.66-3.61-2.86
		c-0.07-1.19-0.14-2.38-0.21-3.57c1.04-0.03,2.08-0.06,3.12-0.1c1.21,0.98,0.96,2.52,1.28,3.77c0.76,2.98,1.61,5.24,5.52,4.64
		C150.69,166.28,149.84,168.77,149.98,170.35z"/>
	<path class="st89" d="M153.69,193.6c0.03-5.27,0.05-10.54,0.08-15.81c0.26,0.05,0.53,0.09,0.79,0.14c3.38,0.5,4.25,2.68,3.68,5.68
		c-0.52,2.71,1.91,6.71-3.3,7.48C154.15,191.21,154.73,193.03,153.69,193.6z"/>
	<path class="st88" d="M153.6,174.29c-1.18-0.1-2.36-0.2-3.54-0.3c-0.02-1.21-0.05-2.42-0.07-3.63
		C153.18,169.85,154.35,171.18,153.6,174.29z"/>
	<path class="st90" d="M137.9,162.19c0.72,3.59-0.69,4.96-4.34,4.54c-2.7-0.31-5.45-0.2-8.17-0.27c-0.03-0.75-0.22-1.53-0.08-2.23
		c0.35-1.68-1.17-4.51,1.18-4.82c2.31-0.31,5.66-2.24,7.3,1.87C134.45,162.9,136.53,161.76,137.9,162.19z"/>
</g>
</svg>
