<?xml version="1.0" encoding="utf-8"?>
<!-- Generator: Adobe Illustrator 25.0.1, SVG Export Plug-In . SVG Version: 6.00 Build 0)  -->
<svg version="1.1" id="Calque_1" xmlns="http://www.w3.org/2000/svg" xmlns:xlink="http://www.w3.org/1999/xlink" x="0px" y="0px"
	 viewBox="0 0 95.95 39.83" style="enable-background:new 0 0 95.95 39.83;" xml:space="preserve">
<style type="text/css">
	.st0{fill:#BD1721;}
	.st1{fill:#DD8B90;}
	.st2{fill:#DD8A8F;}
	.st3{fill:#F3D5D7;}
	.st4{fill:#E39DA1;}
	.st5{fill:#BE1822;}
	.st6{fill:#FEFEFE;}
	.st7{fill:#FCF8F9;}
	.st8{fill:#FEFDFD;}
	.st9{fill:#BD1822;}
</style>
<g>
	<path class="st0" d="M0.75,15.14c1.87-6.46,5.81-11.1,12.11-13.6c2.48-0.99,5.08-1.38,7.74-1.39c5.96-0.03,11.91,0.01,17.87-0.03
		c0.96-0.01,1.19,0.27,1.18,1.2c-0.04,5.75-0.12,11.51,0,17.26c0.24,11.62-7.68,19.37-16.59,20.8c-1.61,0.26-3.23,0.34-4.86,0.33
		C12.65,39.68,7.1,39.7,1.56,39.7c-1.58,0-1.43,0.17-1.43-1.38c0-5.94,0-11.88-0.01-17.82c0-0.43,0.12-0.88-0.12-1.29
		c0-0.32,0-0.64,0-0.96C0.5,17.27,0.34,16.14,0.75,15.14z"/>
	<path class="st0" d="M95.95,16.81c-0.44,0.82-0.96,0.7-1.72,0.33c-0.88-0.44-1.86-0.74-2.89-0.36c-1.27,0.48-1.49,1.65-0.41,2.47
		c0.73,0.55,1.55,0.98,2.31,1.49c1.81,1.22,2.47,2.86,1.91,4.72c-0.51,1.71-2.06,2.79-4.12,2.88c-1.33,0.06-2.63-0.1-3.86-0.65
		c-0.82-0.37-1.2-1.92-0.64-2.59c0.29-0.35,0.5-0.02,0.71,0.08c0.9,0.46,1.83,0.81,2.83,0.89c0.87,0.07,1.74-0.08,2.13-0.98
		c0.41-0.97-0.22-1.58-0.95-2.08c-0.66-0.45-1.34-0.86-2-1.31c-1.68-1.15-2.3-2.51-1.92-4.15c0.36-1.56,1.93-2.89,3.71-3.13
		c1.54-0.2,3.02,0.02,4.42,0.71c0.56,0.24,0.2,0.85,0.48,1.2C95.95,16.49,95.95,16.65,95.95,16.81z"/>
	<path class="st1" d="M0,19.21c0.47,0.33,0.23,0.81,0.23,1.21c0.02,5.95,0.03,11.9-0.01,17.84c-0.01,1,0.17,1.37,1.29,1.35
		c5.95-0.06,11.9-0.05,17.85-0.01c1.24,0.01,2.45-0.41,3.69-0.23c-1.14,0.4-2.33,0.45-3.53,0.45c-6.51,0-13.01,0-19.52,0
		C0,32.95,0,26.08,0,19.21z"/>
	<path class="st2" d="M0,0.03c3.55,0,7.1,0,10.65,0c0.28,0,0.63-0.09,0.82,0.05c0.47,0.35,0.03,0.36-0.21,0.41
		C8.13,0.76,5,0.62,1.87,0.63c-0.92,0-1.27,0.35-1.26,1.27C0.64,4,0.58,6.11,0.63,8.22c0.03,1.03-0.21,2.03-0.17,3.06
		C0.49,11.61,0.36,11.8,0,11.77C0,7.86,0,3.94,0,0.03z"/>
	<path class="st3" d="M0.75,15.14c-0.28,1.03,0.03,2.2-0.75,3.11c0-0.32,0-0.64,0-0.96C0.47,16.65,0.14,15.73,0.75,15.14z"/>
	<path class="st4" d="M95.95,16.33c-0.56-0.24-0.05-0.91-0.48-1.2c0.16,0,0.32,0,0.48,0C95.95,15.53,95.95,15.93,95.95,16.33z"/>
	<path class="st0" d="M57.18,19.46c-1.36,2.47-2.72,4.95-4.08,7.42c-0.15,0.28-0.33,0.55-0.46,0.84c-0.23,0.52-0.68,0.46-1.12,0.48
		c-0.55,0.01-0.61-0.38-0.71-0.78c-0.71-2.78-1.44-5.56-2.24-8.64c-0.61,1.86-1.14,3.45-1.67,5.05c-0.39,1.17-0.76,2.35-1.15,3.52
		c-0.24,0.71-2.44,1.27-2.95,0.74c-0.24-0.24-0.06-0.53,0.02-0.79c1.31-4.02,2.64-8.03,3.93-12.05c0.17-0.53,0.41-0.75,1-0.77
		c2.39-0.08,2.39-0.1,2.99,2.2c0.52,2.03,1.04,4.06,1.63,6.38c1.4-2.6,2.66-4.95,3.92-7.29c0.6-1.12,2.21-1.7,3.4-1.25
		c0.4,0.15,0.39,0.47,0.4,0.78c0.19,4.03,0.36,8.06,0.56,12.09c0.03,0.66-0.25,0.85-0.84,0.81c-0.32-0.02-0.64-0.04-0.96,0
		c-0.78,0.09-1.04-0.22-1.07-1c-0.08-2.54-0.22-5.09-0.34-7.63C57.36,19.54,57.27,19.5,57.18,19.46z"/>
	<path class="st0" d="M71.92,28.2c-1.08,0.3-1.47-0.35-1.44-1.48c0.03-1.15-0.48-1.69-1.66-1.45c-0.11,0.02-0.24,0.02-0.36,0
		c-1.79-0.34-2.95,0.25-3.41,2.12c-0.17,0.68-2.81,1.19-3.25,0.7c-0.21-0.23-0.01-0.45,0.08-0.65c1.99-4.13,3.99-8.26,5.97-12.39
		c0.36-0.75,0.99-0.54,1.55-0.54c1.86-0.03,1.87-0.02,2.19,1.81c0.61,3.45,1.22,6.9,1.81,10.36C73.67,28.2,73.65,28.21,71.92,28.2z"
		/>
	<path class="st0" d="M79.6,14.47c0.88,0.05,1.76,0.05,2.63,0.16c2.11,0.26,3.45,1.66,3.6,3.68c0.16,2.18-0.98,3.87-2.99,4.49
		c-1.05,0.32-2.14,0.29-3.21,0.25c-0.77-0.03-1.16,0.15-1.2,1.01c-0.06,1.11-0.34,2.21-0.43,3.32c-0.06,0.69-0.36,0.9-0.99,0.84
		c-0.36-0.03-0.72-0.04-1.08,0c-0.78,0.08-0.95-0.26-0.85-0.99c0.58-4.02,1.14-8.05,1.68-12.08c0.07-0.54,0.35-0.64,0.8-0.64
		c0.68,0.01,1.36,0,2.04,0C79.6,14.49,79.6,14.48,79.6,14.47z"/>
	<path class="st5" d="M39.62,28.5c0,3.53,0,7.06,0.01,10.59c0,0.47-0.19,0.62-0.64,0.62c-3.5-0.01-7-0.01-10.58-0.12
		C33.38,37.15,37.08,33.5,39.62,28.5z"/>
	<path class="st5" d="M0.47,11.28c-0.32-0.23-0.22-0.57-0.22-0.88c-0.01-3.07,0-6.13,0-9.2c0-0.49-0.07-0.95,0.69-0.95
		c3.31,0.03,6.61,0.01,9.92,0.03c0.13,0,0.27,0.13,0.4,0.2C6.31,2.74,2.71,6.33,0.47,11.28z"/>
	<path class="st6" d="M20.07,20.02c0,2.4-0.03,4.79,0.02,7.19c0.01,0.77-0.21,1.03-1.01,1.04c-2.84,0.03-2.84,0.06-2.84-2.78
		c0-1.08-0.02-2.16,0.01-3.24c0.01-0.51-0.18-0.71-0.7-0.7c-1.72,0.02-3.44,0.03-5.16-0.01c-0.7-0.02-0.77,0.33-0.76,0.89
		c0.02,1.64-0.01,3.28,0.02,4.91c0.01,0.66-0.2,0.89-0.89,0.92c-3,0.12-3,0.15-3-2.85c0-4.23,0.02-8.47-0.02-12.7
		C5.73,11.83,6,11.61,6.83,11.61c2.81,0,2.81-0.03,2.81,2.83c0,1,0.03,2-0.01,3c-0.02,0.59,0.13,0.86,0.79,0.85
		c1.68-0.04,3.36-0.04,5.04,0c0.65,0.02,0.81-0.23,0.8-0.84c-0.03-1.64,0.01-3.28-0.02-4.91c-0.01-0.65,0.16-0.9,0.87-0.92
		c2.97-0.09,2.97-0.12,2.97,2.89C20.07,16.34,20.07,18.18,20.07,20.02z"/>
	<path class="st6" d="M21.49,19.91c0-2.39,0.04-4.79-0.02-7.18c-0.02-0.92,0.28-1.16,1.16-1.12c2.23,0.11,4.47-0.16,6.7,0.16
		c2.97,0.44,4.83,3.22,4.01,5.93c-0.28,0.92-0.81,1.71-1.63,2.14c-0.94,0.5-0.66,0.75-0.1,1.38c1.63,1.86,2.25,4.28,3.35,6.44
		c0.22,0.43-0.07,0.56-0.46,0.56c-1,0-2-0.01-2.99,0c-0.56,0-0.71-0.42-0.9-0.82c-0.68-1.44-1.33-2.9-2.05-4.32
		c-0.45-0.89-1.13-1.51-2.23-1.58c-0.71-0.05-0.99,0.12-0.97,0.9c0.06,1.63-0.01,3.27,0.03,4.91c0.01,0.65-0.17,0.9-0.87,0.93
		c-3.03,0.14-3.03,0.16-3.03-2.82C21.49,23.58,21.49,21.75,21.49,19.91z"/>
	<path class="st7" d="M66.87,23.27c0.8-1.99,1.52-3.77,2.24-5.55c0.08,0.01,0.16,0.03,0.24,0.04c0.2,1.64,0.38,3.28,0.6,4.92
		c0.07,0.54-0.19,0.6-0.61,0.59C68.58,23.26,67.83,23.27,66.87,23.27z"/>
	<path class="st8" d="M80.01,20.87c-1.02,0.23-1.23-0.23-0.99-1.15c0.12-0.46,0.03-0.99,0.22-1.41c0.24-0.55-0.34-1.58,0.89-1.6
		c1.33-0.03,2.38,0.52,2.59,1.47c0.22,0.99-0.03,1.83-0.96,2.35C81.23,20.83,80.64,20.93,80.01,20.87z"/>
	<path class="st9" d="M25.37,16.39c0.17-0.71-0.6-1.97,1.25-1.86c2.24,0.14,2.99,0.54,2.96,2.03c-0.02,1.39-0.83,1.92-2.95,1.92
		C25.37,18.48,25.37,18.48,25.37,16.39z"/>
</g>
</svg>
