<?xml version="1.0" encoding="utf-8"?>
<!-- Generator: Adobe Illustrator 25.0.1, SVG Export Plug-In . SVG Version: 6.00 Build 0)  -->
<svg version="1.1" id="Calque_1" xmlns="http://www.w3.org/2000/svg" xmlns:xlink="http://www.w3.org/1999/xlink" x="0px" y="0px"
	 viewBox="0 0 1045.78 1090.48" style="enable-background:new 0 0 1045.78 1090.48;" xml:space="preserve">
<style type="text/css">
	.st0{fill:#00E0FE;}
	.st1{fill:#010101;}
	.st2{fill:#FE004E;}
	.st3{fill:#60EE02;}
	.st4{fill:#00DDFE;}
	.st5{fill:#FE0066;}
	.st6{fill:#FE0103;}
	.st7{fill:#00D9FD;}
	.st8{fill:#00DDD2;}
	.st9{fill:#00DBD1;}
	.st10{fill:#61E908;}
	.st11{fill:#52E210;}
	.st12{fill:#0063FE;}
	.st13{fill:#60EC05;}
	.st14{fill:#54E50D;}
	.st15{fill:#00D4FE;}
	.st16{fill:#57E70A;}
	.st17{fill:#60EF01;}
	.st18{fill:#58E808;}
	.st19{fill:#FE000C;}
	.st20{fill:#FE0009;}
	.st21{fill:#FE0068;}
	.st22{fill:#FE0011;}
	.st23{fill:#FE0030;}
	.st24{fill:#015FFE;}
	.st25{fill:#FE0016;}
	.st26{fill:#0061FD;}
	.st27{fill:#00CDFE;}
	.st28{fill:#00D2C7;}
	.st29{fill:#FE0038;}
	.st30{fill:#931E40;}
	.st31{fill:#4ADB18;}
	.st32{fill:#FE011D;}
	.st33{fill:#FE0049;}
	.st34{fill:#4EDF13;}
	.st35{fill:#00D7CC;}
	.st36{fill:#4CDD16;}
	.st37{fill:#FE0019;}
	.st38{fill:#FE0042;}
	.st39{fill:#FE003D;}
	.st40{fill:#64DD1A;}
	.st41{fill:#FE002B;}
	.st42{fill:#62E212;}
	.st43{fill:#9900FE;}
	.st44{fill:#FE0006;}
	.st45{fill:#3DCF27;}
	.st46{fill:#FE0024;}
	.st47{fill:#FE0045;}
	.st48{fill:#FE0164;}
	.st49{fill:#63E50F;}
	.st50{fill:#55E50C;}
	.st51{fill:#00C8FE;}
	.st52{fill:#FE0028;}
	.st53{fill:#34C731;}
	.st54{fill:#FE0020;}
	.st55{fill:#00BFB4;}
	.st56{fill:#2CBE3B;}
	.st57{fill:#45D61E;}
	.st58{fill:#FD0034;}
	.st59{fill:#00CDC1;}
	.st60{fill:#00C1FE;}
	.st61{fill:#27BB40;}
	.st62{fill:#40D223;}
	.st63{fill:#00AAA1;}
	.st64{fill:#00B0A5;}
	.st65{fill:#61E70B;}
	.st66{fill:#00C4BA;}
	.st67{fill:#47D91C;}
	.st68{fill:#00C8BE;}
	.st69{fill:#3ACC2A;}
	.st70{fill:#00B9AF;}
	.st71{fill:#0088A0;}
	.st72{fill:#36CA2D;}
	.st73{fill:#00BBFE;}
	.st74{fill:#01D9CE;}
	.st75{fill:#31C434;}
	.st76{fill:#43D421;}
	.st77{fill:#64E015;}
	.st78{fill:#00B5AA;}
	.st79{fill:#00A197;}
	.st80{fill:#68CB31;}
	.st81{fill:#2FC237;}
	.st82{fill:#5BEA07;}
	.st83{fill:#00D5CB;}
	.st84{fill:#00B5FE;}
	.st85{fill:#66D721;}
	.st86{fill:#00A9FE;}
	.st87{fill:#20B448;}
	.st88{fill:#00AFFE;}
	.st89{fill:#24B843;}
	.st90{fill:#00976C;}
	.st91{fill:#1DB14C;}
	.st92{fill:#12A757;}
	.st93{fill:#68CF2D;}
	.st94{fill:#65DA1E;}
	.st95{fill:#18AD51;}
	.st96{fill:#00A69C;}
	.st97{fill:#15AA54;}
	.st98{fill:#1AAF4D;}
	.st99{fill:#00A3FE;}
	.st100{fill:#67D229;}
	.st101{fill:#0071FE;}
	.st102{fill:#22B645;}
	.st103{fill:#009EFE;}
	.st104{fill:#C300BF;}
	.st105{fill:#007AFE;}
	.st106{fill:#0098FE;}
	.st107{fill:#0FA45B;}
	.st108{fill:#BA00CE;}
	.st109{fill:#079D63;}
	.st110{fill:#B000DD;}
	.st111{fill:#E10093;}
	.st112{fill:#008DFE;}
	.st113{fill:#AA00E5;}
	.st114{fill:#67D424;}
	.st115{fill:#0081FE;}
	.st116{fill:#A600EC;}
	.st117{fill:#019D94;}
	.st118{fill:#C900B7;}
	.st119{fill:#009A90;}
	.st120{fill:#B400D5;}
	.st121{fill:#0092FE;}
	.st122{fill:#0086FE;}
	.st123{fill:#0BA060;}
	.st124{fill:#F50261;}
	.st125{fill:#039969;}
	.st126{fill:#FA0162;}
	.st127{fill:#A100F2;}
	.st128{fill:#BE00C7;}
	.st129{fill:#DB009B;}
	.st130{fill:#006AFE;}
	.st131{fill:#D100AA;}
	.st132{fill:#CD00B1;}
	.st133{fill:#9D00F8;}
	.st134{fill:#E5008D;}
	.st135{fill:#E90087;}
	.st136{fill:#F9006D;}
	.st137{fill:#D500A5;}
	.st138{fill:#0DA25D;}
	.st139{fill:#F60073;}
	.st140{fill:#EC0081;}
	.st141{fill:#CD0B54;}
	.st142{fill:#EC045F;}
	.st143{fill:#E1075B;}
	.st144{fill:#F30078;}
	.st145{fill:#C40D51;}
	.st146{fill:#B6114D;}
	.st147{fill:#F0007C;}
	.st148{fill:#E7065D;}
	.st149{fill:#A51447;}
	.st150{fill:#D8009F;}
	.st151{fill:#0090A5;}
	.st152{fill:#AE124B;}
	.st153{fill:#BC0F4F;}
	.st154{fill:#D40A56;}
	.st155{fill:#DB0859;}
	.st156{fill:#0197A8;}
	.st157{fill:#991743;}
	.st158{fill:#029DAC;}
	.st159{fill:#01B2B8;}
	.st160{fill:#01A4B0;}
	.st161{fill:#911941;}
	.st162{fill:#02AAB4;}
	.st163{fill:#03C4C2;}
	.st164{fill:#01BBBD;}
	.st165{fill:#04D0C8;}
	.st166{fill:#27B0C1;}
	.st167{fill:#0E98AC;}
	.st168{fill:#00BAD3;}
	.st169{fill:#FEFEFE;}
	.st170{fill:#D60A57;}
</style>
<g>
	<path class="st0" d="M550.67,96.55c-12.13,9.01-23.97,18.38-34.4,29.38c-4.56,4.81-8.9,9.83-13.34,14.76
		c-2.54,0.51-2.99-1.58-3.75-3.13c-4.15-8.45-7.72-17.16-12.54-25.3c-1.74-2.93-2.19-6.54-2.41-10.02c0.72-0.91,1.42-1.84,1.43-3.2
		c0.15-0.53-0.73-0.12-0.08,0c0.12,0.02,0.05,0.61-0.06,0.94c-0.22,0.63-0.45,1.25-0.97,1.71c-2.62,0.49-3.43-1.33-4.16-3.26
		c-3.43-9.11-8.35-17.55-11.94-26.59c-0.82-2.07-2.57-3.4-3.68-5.22c15.74-19.55,33.48-36.91,54.9-50.25
		c36.61-22.8,72.85-21.43,108.53,2.01c25.22,16.57,43.87,39.39,59.91,64.54c2.66,4.18,5.07,8.52,7.59,12.78
		c-0.41,0.21-0.83,0.27-1.28,0.16c-1.77-0.98-3.05-2.58-4.69-3.73c-3.42-3.79-6.81-7.59-11.24-10.28
		c-22.28-16.27-46.7-19.39-72.97-12.29c-14.61,3.95-27.8,10.9-40.89,18.15c-1.37,0.91-2.86,1.62-4.28,2.45
		c-1.63,1.5-3.75,2.26-5.45,3.64C553.23,94.29,552.18,95.77,550.67,96.55z"/>
	<path class="st1" d="M1016.41,925.94c0.49-5.44,1.01-9.56,1.16-13.69c0.08-2.14,0.69-2.92,2.88-2.88
		c6.16,0.11,12.33,0.09,18.49,0.01c1.92-0.03,2.79,0.6,2.57,2.57c-0.09,0.82-0.01,1.66-0.01,2.5c0,37.82,0.15,75.63-0.09,113.45
		c-0.07,11.85-2.37,23.37-8.65,33.77c-9.59,15.87-24.14,24.44-41.95,27.43c-20.88,3.5-40.67,0.36-58.27-12.22
		c-4.59-3.28-8.73-7.17-13.17-10.67c-1.52-1.2-1.07-1.92,0.02-3.06c4.02-4.21,8.03-8.43,11.88-12.79c1.7-1.93,2.78-1.9,4.75-0.17
		c8.97,7.88,18.71,14.41,31.01,15.75c11.94,1.3,23.6,0.4,34.17-5.9c10.1-6.03,14.65-15.48,15.36-26.94
		c0.38-6.11-0.53-12.29,0.75-18.95c-13.4,15.63-30.38,22.04-50.31,19.91c-19.96-2.13-35.73-11.71-46.49-28.8
		c-15.81-25.11-11.6-61.29,9.41-81.14c12.16-11.49,26.49-17.82,43.55-17.79C990.39,906.33,1004.34,912.71,1016.41,925.94z"/>
	<path class="st1" d="M26.29,939.07c9.07-19.12,22.2-32.5,44.65-32.8c23.05-0.31,33.22,6.99,43.35,31.54
		c3.66-5.79,7.08-11.39,11.38-16.4c14.08-16.41,43.28-20.56,60.43-8.25c10.05,7.21,15.68,17.09,15.73,29.62
		c0.12,28.31-0.02,56.63,0.14,84.94c0.02,3.26-1.02,3.86-3.94,3.73c-5.15-0.23-10.34-0.3-15.48,0.01c-3.75,0.23-5-0.68-4.96-4.76
		c0.23-22.15-0.4-44.32,0.24-66.45c0.79-27.75-19.86-33.25-38.43-27.74c-15.59,4.63-25.32,19.88-25.43,39.36
		c-0.1,18.32-0.13,36.64,0.07,54.96c0.04,3.62-0.65,4.96-4.55,4.67c-5.3-0.4-10.66-0.31-15.98-0.02c-3.31,0.18-4.1-0.88-4.08-4.12
		c0.14-23.65,0.08-47.3,0.07-70.95c0-16.33-10.41-26.33-26.81-25.77c-21.28,0.73-36.41,16.7-36.52,38.75
		c-0.1,19.15-0.13,38.31,0.08,57.46c0.04,3.69-0.78,4.9-4.6,4.64c-5.47-0.37-10.99-0.16-16.48-0.06c-2.26,0.04-3.55-0.1-3.54-3.09
		c0.11-38.64,0.1-77.28,0.03-115.92c0-2.36,0.6-3.19,3.04-3.09c4.66,0.18,9.34,0.32,13.98-0.03c3.7-0.28,4.88,0.93,4.99,4.61
		c0.22,8.09,0.89,16.17,1.38,24.25C25.46,938.47,25.88,938.77,26.29,939.07z"/>
	<path class="st1" d="M418.91,926.1c4.97-3.14,7.94-7.43,12.14-10.33c30.55-21.07,83.64-7.04,91.76,39.01
		c3.48,19.74,1.36,38.27-10.76,54.73c-10.23,13.89-24.21,21.54-41.34,24.02c-15.29,2.22-29.22-0.61-42.24-8.82
		c-3.37-2.13-5.6-5.55-9.72-8.08c0,2.21,0,3.79,0,5.36c0,21.32-0.07,42.65,0.08,63.97c0.02,3.41-0.74,4.71-4.37,4.5
		c-5.48-0.31-11-0.3-16.48,0c-3.37,0.18-4.14-0.98-4.1-4.17c0.16-14.32,0.07-28.65,0.07-42.98c0.02-42.81,0.13-85.62-0.07-128.44
		c-0.02-4.79,1.45-5.85,5.8-5.54c4.97,0.36,9.99,0.18,14.99,0.04c2.27-0.07,3.15,0.42,3.18,2.96
		C417.89,916.62,418.48,920.9,418.91,926.1z"/>
	<path class="st1" d="M552.04,999.67c0-28.49,0.08-56.97-0.1-85.46c-0.03-3.96,1.01-5.14,4.93-4.88c5.31,0.35,10.66,0.16,15.99,0.05
		c1.99-0.04,2.97,0.27,2.97,2.64c0.01,3.29,0.51,6.59,0.92,9.87c0.15,1.19-0.87,2.92,0.84,3.47c1.22,0.39,1.98-1.01,2.72-1.85
		c25.2-28.49,77.03-19.81,93.89,12.46c18.46,35.33,6.68,86.88-41.24,96.82c-19.59,4.06-37.61,0.74-52.63-13.56
		c-0.82-0.78-1.58-2.2-2.76-1.81c-1.69,0.56-0.8,2.3-0.8,3.48c-0.04,21.66-0.11,43.31,0.1,64.97c0.04,3.73-0.84,4.86-4.61,4.6
		c-5.31-0.36-10.67-0.3-15.98-0.02c-3.44,0.19-4.46-0.75-4.44-4.33c0.16-28.82,0.09-57.64,0.09-86.46
		C551.96,999.67,552,999.67,552.04,999.67z"/>
	<path class="st1" d="M333.71,924.66c0.35-4.01,0.87-8.06,0.99-12.11c0.07-2.37,0.82-3.23,3.2-3.18c5.66,0.12,11.33,0.19,16.99-0.02
		c2.85-0.11,3.65,0.79,3.63,3.63c-0.12,12.99-0.01,25.98,0,38.97c0.01,24.82-0.12,49.64,0.12,74.45c0.04,4.3-1.18,5.38-5.25,5.07
		c-4.97-0.37-10.02-0.42-14.98,0.01c-4.2,0.37-5.09-1.34-4.68-4.98c0.24-2.14,0.1-4.33,0.02-6.49c-0.03-0.88,0.55-2.16-0.79-2.52
		c-1.14-0.31-1.74,0.77-2.4,1.46c-12.06,12.63-27.36,16.54-43.99,15.07c-27.51-2.43-49.51-20.81-56.39-46.07
		c-11.5-42.22,23.74-85.11,67.32-81.38c12.76,1.09,24.54,5.65,32.97,16.28C331.15,923.74,331.92,924.68,333.71,924.66z"/>
	<path class="st2" d="M303.9,122.74c-6.73,3.87-13.45,7.74-20.18,11.61c-5.22,1.31-10.07,1.39-15.44-0.71
		c-5.3-2.07-11.34-2.39-17.05-3.37c-3.42-0.59-5.7-3.22-9.17-3.44c-4.47-0.28-8.85-0.8-13.4-0.31c-4.63,0.49-9.25-1.1-13.49-2.89
		c-2.76-1.16-5.28-1.74-8.17-1.16c-3.78,0.77-7.58,0.29-11.38,0.07c4.19-6.5,10.1-11.42,15.63-16.62
		c19.29-18.18,40.86-32.93,66.66-40.14c39.89-11.15,77.12-5.02,111.05,19.07c10.17,7.22,19.49,15.45,27.68,24.91
		c-2.03,0.96-3.55-0.37-5.05-1.29c-17.57-10.63-36.4-11.55-55.94-7.48c-16.68,3.48-31.6,11.26-46.53,18.99
		C307.37,120.9,305.5,121.56,303.9,122.74z"/>
	<path class="st1" d="M794.08,939.94c5.1-10.27,10.7-18.19,18.69-24.27c18.01-13.69,47.46-12.68,61.92,2.25
		c6.5,6.71,9.96,14.81,9.99,24.15c0.09,28.47,0,56.95,0.09,85.42c0.01,2.84-0.34,4.17-3.69,3.98c-5.64-0.32-11.34-0.41-16.97,0.02
		c-4.11,0.31-4.45-1.42-4.43-4.82c0.13-23.81,0.06-47.62,0.07-71.43c0.01-17.15-12.32-25.76-27.65-24.47
		c-23.08,1.95-37.4,18.38-37.4,41.63c-0.01,18.32-0.08,36.63,0.07,54.95c0.03,3.24-0.79,4.29-4.1,4.13
		c-5.65-0.28-11.32-0.22-16.98-0.04c-2.62,0.09-3.34-0.69-3.33-3.32c0.11-31.3,0.1-62.61,0.11-93.91c0-7.16,0.09-14.32-0.09-21.48
		c-0.06-2.55,0.52-3.59,3.25-3.38c2.98,0.23,5.99,0.05,8.99,0.05c9.2,0,9.25,0,9.95,9.31c0.25,3.32,0.07,6.66,0.29,9.98
		C793.08,931.95,793.55,935.18,794.08,939.94z"/>
	<path class="st3" d="M973.76,735.45c-0.67-4.38,0.16-8.42,1.83-12.59c10.04-25.12,15.31-51.44,19.01-78.12
		c0.38-2.75,0.84-5.49,1.26-8.23c6.71-0.95,13.48-1.49,20.22-2.11c7.43-0.68,14.92-0.75,22.33-1.77c1.19-0.16,2.32,0.04,3.28,0.84
		c0.1,18.45-1.77,36.8-3.46,55.13c-1.13,12.21-3.01,24.35-4.59,36.52c-0.19,1.46-0.67,2.89-1.01,4.33
		c-10.85,1.26-21.66,2.95-32.57,3.39c-6.68,0.27-13.25,0.73-19.64,2.85C978.23,736.41,975.91,737.21,973.76,735.45z"/>
	<path class="st4" d="M484.74,101.59c1.53,6.58,4.95,12.33,7.59,18.44c2.6,5.98,6.62,11.29,8.28,17.66
		c0.36,1.38,0.96,2.45,2.32,2.99c-13.12,16.58-25.75,33.52-36.32,51.89c-2.5,1.22-3.16-0.76-3.95-2.34
		c-5.68-11.37-11.55-22.62-16.36-34.43c-1.9-4.66-5.32-8.93-7.04-13.6c-2.92-7.94-6.55-15.42-10.73-22.7
		c10.46-18.74,22.72-36.25,36.24-52.89c2.17,0.24,3.47,1.24,4.3,3.46c3.74,9.9,9.54,18.9,12.72,29.05
		C482.29,100.63,483.62,100.94,484.74,101.59z"/>
	<path class="st5" d="M519.6,468.49c0.58,18.29-0.22,36.54-1.53,54.79c-0.92,12.92-1.71,25.84-3.27,38.7
		c-0.79,6.49-1.52,12.98-2.28,19.47c-3.4-3.22-5.71-7.56-10.38-9.51c-0.93-0.39-0.62-2.46-0.75-3.78c-0.11-1.18-0.22-2.65-1.48-2.93
		c-4.05-0.9-3.96-3.97-4.67-7.16c-0.85-3.85-1.5-8.48-7.09-8.93c-2.12-0.17-2.47-1.95-2.63-3.67c-0.2-2.15-0.14-4.32-0.11-6.48
		c0.05-2.79-1.11-4.37-3.99-4.65c-2.32-0.23-3.39-1.76-3.82-3.96c-0.88-4.49-2.03-8.85-5.19-12.44c-0.99-1.12-0.99-2.79-1.09-4.3
		c-0.05-7.03,1.48-13.89,2.27-20.82c1.98-17.35,3.71-34.71,3.66-52.2c-0.01-2.33-0.05-4.68,1.25-6.77
		c2.51-4.95,8.07-4.94,12.21-7.17c2.38-1.29,4.83,0.3,5.22,3.53c0.16,1.32,0.84,2.61,0.89,3.84c0.34,7.52,7.46,10.44,10.8,15.94
		c1.74,2.87,4.61,5.07,5.03,8.74C513.19,463.26,515.83,466.27,519.6,468.49z"/>
	<path class="st6" d="M49.83,705.5c-1.78,12.97-3.6,25.93-5.33,38.9c-1.3,9.7-2.37,19.43-3.81,29.11c-0.39,2.63,0.28,6.42-2.9,7.42
		c-2.89,0.92-5.07-1.87-7.02-3.81c-8.92-8.89-15.51-19.38-20.92-30.68c-4.89-10.22-9.38-20.73-9.79-32.08
		c-0.51-14.1,2.38-28.01,4.75-41.89c1.9-3.78,5.2-3.72,8.56-2.87c4.16,1.06,8.3,2.23,12.2,4.12c7.4,3.57,15.24,3.89,23.25,3.06
		c2.95-0.3,6.03-0.38,5.13,4.2c-1.1,6.83-2.2,13.67-3.3,20.5C49.51,702.64,50.82,704.3,49.83,705.5z"/>
	<path class="st7" d="M428.54,119.5c4.31,4.56,8.06,9.36,9.29,15.83c1.15,6.05,5.33,10.83,7.71,16.41
		c3.2,7.51,6.71,14.88,10.15,22.28c2.82,6.07,6.86,11.51,9.14,17.87c0.14,0.39,1.17,0.46,1.78,0.69c0.05,0.58,0.1,1.15,0.15,1.73
		c-0.12,3.44-2.93,5.52-4.21,8.37c-0.8,1.33-1.42,2.75-2.19,4.09c-1.44,1.92-2.54,4.05-3.61,6.19c-0.65,1.15-1.47,2.2-2.09,3.36
		c-0.54,1.01-1.06,2.04-1.78,2.94c-4.29,5.76-6.44,12.71-10.34,18.69c-0.8,1.22-1.1,2.84-2.86,3.19c-2.49-0.1-3.89-1.45-4.56-3.81
		c-1.46-5.13-3.19-10.13-7.26-13.92c-0.74-0.69-0.93-1.72-1.27-2.66c-5.73-15.48-12.61-30.47-19.2-45.59
		c-1.32-3.02-2.86-5.35-6.43-5.56c2.73-7.08,6.85-13.46,10.4-20.12c0.8-1.5,1.53-2.86,1.43-4.58c-0.21-1.96,0.78-3.51,1.72-5.09
		c3.14-5.28,6.54-10.42,9.27-15.93c0.68-1.37,1.52-2.58,3.03-3.14C427.38,120.31,427.96,119.9,428.54,119.5z"/>
	<path class="st8" d="M742.79,199.57c5.41,12.89,8.99,26.38,12.64,39.81c8.72,32.03,15.99,64.38,20.38,97.33
		c0.48,3.6,1.07,7.19,1.61,10.78c-4.21-0.74-7.51-3.59-10.66-5.87c-7.76-5.62-15.27-11.61-23.23-16.97
		c-1.44-0.97-2.75-2.35-2.59-4.02c0.28-2.81-1.66-4.09-3.15-5.76c-2.18-6.36-2.12-13.06-2.91-19.62
		c-2.73-22.75-7.23-45.18-11.7-67.62c-0.53-3.57,2.17-5.66,3.81-8.22c1.15-1.8,2.41-3.52,3.36-5.45c2.1-4.7,5.95-8.18,8.72-12.41
		C739.9,200.29,741.12,199.42,742.79,199.57z"/>
	<path class="st9" d="M738.84,315.54c1.29,0.09,3.52,0,3.13,1.5c-1.71,6.61,4.19,7.52,7.42,10.15c5.19,4.22,10.99,7.69,16.18,11.91
		c3.79,3.08,8.78,4.38,11.86,8.38c3.12,24.12,5.95,48.27,6.38,72.62c0.73,1.72,0.02,3.61,0.63,5.35c0.03,1.34,0.06,2.69,0.09,4.03
		c-2.13,1.1-4.43,1.35-6.77,1.22c-2.13-0.12-4.04-0.74-4.46-3.15c-0.44-2.55-2.27-4-4.37-4.18c-5.3-0.46-8.9-4.23-13.4-6.19
		c-3.72-1.62-6.28-4.3-6.77-8.5c-0.61-5.35-1.8-10.66-1.45-16.23c-3.91,0.86-4.5-1.86-4.86-5.06c-0.34-3.03,1.58-6.25-0.78-9.11
		c-1.09-12.42-1.52-24.87-2.42-37.3c-0.47-6.47-1.15-12.91-1.61-19.38C737.47,319.46,736.91,317.26,738.84,315.54z"/>
	<path class="st1" d="M734.69,970.72c0,18.65-0.14,37.31,0.11,55.95c0.06,4.12-1.26,4.99-5.02,4.79c-5.65-0.3-11.32-0.18-16.98-0.03
		c-2.4,0.07-3.08-0.7-3.07-3.09c0.09-38.64,0.1-77.27,0.05-115.91c0-2.43,0.75-3.13,3.11-3.07c5.99,0.14,12,0.23,17.98-0.03
		c3.14-0.13,3.9,0.88,3.88,3.93C734.62,932.42,734.69,951.57,734.69,970.72z"/>
	<path class="st10" d="M1045.5,500.5c0.11,22,0.85,44.01-0.89,65.99c-0.8,0.8-1.64,1.55-2.55,2.22c-0.36,0.3-0.74,0.58-1.11,0.87
		c-4.19,4.14-9.78,5-15.07,5.02c-6.59,0.02-13.13,2.08-19.75,0.52c-2.26-0.53-3.17,2.27-5.24,2.32c0.59-11.24,1.18-22.49,1.77-33.73
		c0.71-13.73,1.42-27.45,2.13-41.18c9.91-1.84,19.95-2.57,29.98-3.37c2-0.16,4.04-0.11,5.79-1.19
		C1043.69,496.02,1044.95,497.51,1045.5,500.5z"/>
	<path class="st11" d="M844.65,114.56c-6.66,2.94-13.32,5.88-19.98,8.82c-11.18,1.28-22.16-1.58-33.27-1.7
		c-14.82-0.16-29.34-3.59-44.18-3.76c-7.8-0.09-15.52-1.96-23.36-2.18c-1.82-0.05-3.64-0.49-5.47-0.11
		c-2.61,0.55-4.19-0.43-4.72-3.06c5.72-7.62,11.9-14.84,18.85-21.37c2.15-0.21,4.28-0.49,6.33-1.22c0.78-0.28,1.91-0.91,2.36-0.48
		c4.52,4.29,10.01,0.75,14.75,1.97c8.78,2.27,17.78,2.12,26.64,2.95c11.21,1.04,22.43,2.3,33.7,2.81
		c8.28,0.37,16.52,1.25,24.59,3.36c4.24,1.11,8.59,0.65,12.89,0.35c5.82-0.4,11.6-0.05,17.37,0.55c1.36,0.14,2.63,0.4,3.49,1.59
		c0.3,3.38-2.64,2.9-4.41,3.42C861.65,108.99,852.95,111.15,844.65,114.56z"/>
	<path class="st12" d="M295.86,529.5c-0.23-13.25,2.02-26.29,3.36-39.4c0.63-6.21,1.84-12.36,2.79-18.54
		c4.19,0.25,5.34,3.83,6.49,6.7c7.13,17.89,16.34,34.84,23.93,52.53c2.58,6.01,6.15,11.72,9.27,17.59c0.62,4.03-0.21,8-0.82,11.89
		c-2.36,14.98-3.17,30.08-3.96,45.19c-0.11,2.16-0.04,4.34-1.2,6.29c-2.85,2.45-3.97-0.17-4.7-1.98
		c-7.42-18.47-16.86-35.99-25.31-53.97c-2.96-6.3-4.28-13.19-7.9-19.15c-0.91-1.5-1.17-3.18-0.41-4.77
		C298.26,530.04,296.61,530.12,295.86,529.5z"/>
	<path class="st13" d="M1000.88,577.44c1.62-2.74,3.02-3.74,7.11-3.5c7.73,0.45,15.73,0.29,23.53-1.58
		c3.62-0.87,6.88-2.23,10.11-3.87c1.13,1.58-0.55,4.77,2.88,5.02c-0.66,20-1.09,40.01-2.83,59.97c-12.56,2.62-25.51,1.45-38.1,3.93
		c-2.55,0.5-5.21-0.11-7.73-0.89c1.37-16.05,2.75-32.1,4.12-48.15C1000.29,584.72,1000.58,581.08,1000.88,577.44z"/>
	<path class="st14" d="M874.69,103.6c-5.77-1.48-11.72-1.77-17.52-1.2c-9,0.88-17.68-0.57-26.36-2.33
		c-3.26-0.66-6.71-1.23-9.79-1.17c-10.51,0.2-20.74-2.35-31.2-2.33c-9.44,0.01-18.78-1.72-28.16-2.45
		c-4.65-0.36-9.25-1.75-13.9-0.47c-3.48,0.96-5.72-3.5-7.22-2.78c-2.95,1.42-5.25,1.79-8.01,0.34c4.93-5.62,10.11-10.97,16.22-15.34
		c5.95,2.73,12.15,4.44,18.75,4.24c10.12-0.3,20.22,1.27,30.38,0.1c6.06-0.69,11.84,1.32,17.37,3.68c1.92,0.82,3.78,1.22,5.81,0.97
		c8.91-1.08,17.58,0.4,26.18,2.49c1.3,0.32,2.62,0.83,3.93,0.57c7.54-1.48,14.91,0.2,22.33,1.02c3.31,0.36,6.72,0.58,9.97-0.02
		c7.75-1.43,14.81,0.5,21.67,3.77c1.72,0.82,3.45,1.06,5.32,0.88c13.53-1.27,26.84,0.68,40.13,2.86c0.84,0.14,1.52,0.65,2.19,1.14
		c4,3.63,6.37,8.39,9.03,12.95c-6.73,2.93-13.66,1.27-20.54,0.91c-4.92-1.54-9.47-3.99-14.47-5.36
		c-15.04-4.12-30.21-3.77-45.47-1.81C879.08,104.57,876.73,105.49,874.69,103.6z"/>
	<path class="st15" d="M400.96,169.58c4.26-1.58,6.16,1.4,7.32,4.4c4.31,11.2,9.58,22.02,14.1,33.13c2.43,5.98,3.85,13.02,8.96,18.2
		c2.62,2.66,4.14,6.96,4.85,10.77c0.5,2.65,1.59,3.63,3.6,4.48c1.26,1.7,0.2,3.2-0.5,4.64c-4.94,10.18-10.23,20.18-15.1,30.39
		c-0.5,1.04-0.99,2.15-2.4,2.26c-2.19-0.68-3.96-2.25-4.8-4.11c-2.56-5.66-7.37-10.28-7.86-16.89c-0.06-0.82-0.21-1.75-0.7-2.37
		c-5.61-7.03-7.08-16.02-11.32-23.8c-4.76-8.71-10.55-17.21-12.66-27.26C389.27,191.82,394.8,180.55,400.96,169.58z"/>
	<path class="st16" d="M931.6,70.83c5.52,5.92,10.94,11.91,15.54,18.61c-4.37,2.25-8.33-0.62-12.42-1.21
		c-3-0.43-5.73-0.93-8.76-0.04c-5.47,1.61-10.85,0.14-16.14-1.33c-1.26-0.35-2.36-1.26-3.77-1.16c-15.82,1.2-31.3-1.38-46.74-4.31
		c-1.98-0.37-3.98-0.3-5.97-0.32c-6.14-0.06-12.33,0.55-18.26-1.72c-0.3-0.12-0.67-0.19-0.98-0.14c-13.33,2.4-26.19-2.98-39.47-2.26
		c-10.14,0.55-20.26-0.4-29.86-4.31c-1.91-0.78-3.95-0.22-5.94-0.24c-1.7-0.02-3.99,0.3-3.14-2.76c4.98-4.44,10.48-8.15,16.06-11.76
		c1.71-0.1,3.25,0.56,4.83,1.06c0.95,0.3,2.06,0.99,2.88,0.61c7.04-3.24,14.26-0.48,21.27-0.95c13.33-0.89,25.68,6.05,38.98,3.66
		c1.93-0.35,4.03,0.13,5.94-0.49c3.59-1.16,6.8-1.23,9.47,2.01c1,1.21,2.7,1.7,4.12,1.32c7.61-2.02,14.96,1.56,22.69,0.75
		c5.3-0.55,10.99,1.78,16.61,0.1c0.77-0.23,1.66,0.19,2.36,0.64c6.61,4.27,13.81,3.86,21.17,2.92c2.55-0.32,3.86-1.47,4.54-3.73
		c1.59,0.98,2.87,2.28,3.84,3.88C930.61,70.28,930.96,70.7,931.6,70.83z"/>
	<path class="st17" d="M973.76,735.45c5.39,0.33,9.95-2.97,15.35-3.22c10.32-0.48,20.59-1.78,30.88-2.79
		c4.21-0.41,8.42-1.93,12.63,0.01c-3.41,20.4-7.6,40.61-15.11,59.98c-0.66,1.7-1.27,3.41-1.95,5.1c-2.31,5.77-4.65,6.48-9.58,2.4
		c-6.87-5.69-11.71-13.07-16.24-20.64c-6.92-11.57-12.79-23.61-15.59-36.92C973.88,738.1,973.88,736.76,973.76,735.45z"/>
	<path class="st18" d="M926.61,65.8c1.62,3.02,1.99,4.55-2.69,5.01c-5.99,0.59-11.83,1-17.74-0.2c-0.64-0.13-1.69,0.2-1.94-0.14
		c-4.03-5.52-9.65-0.7-13.86-2.15c-7.55-2.61-15.55,1.55-22.75-2.5c-1.27-0.71-2.9,0.16-4.37,0.34c-3.8,0.47-7.99,2.01-10.5-2.82
		c-0.79-1.52-2.19-1.44-3.89-0.99c-10.85,2.85-21.75,0.74-32.64,0.17c-1.3-0.07-1.95-1.07-2.7-1.99c-1.3-1.59-2.87-1.86-4.88-1.08
		c-4,1.55-8.04,1.89-12.03-0.31c-1.53-0.84-3.19-0.57-4.85-0.1c-2.75,0.77-5.53,1.12-8.24-0.21c-0.57-0.28-0.97-0.77-1.72-0.18
		c-3.85,3-4.62,2.92-10.06-0.76c11.48-8.06,23.66-14.77,37-19.26c2.34-1.03,3.9,0.4,5.01,1.99c1.9,2.72,4.19,2.88,6.96,1.78
		c4.98-1.96,10.16-1.06,15.28-1.01c0.5,0.01,1.13,0.02,1.43,0.34c4.06,4.35,9.23,2.61,14.02,2.44c8.54-0.32,17.12,0.48,25.18,2.58
		c4.82,1.25,8.86,2.7,13.6,0.65c1.14-0.49,2.77-0.23,3.88,0.46c4.25,2.66,8.81,2.42,13.46,1.77
		C914.66,54.16,921.14,59.39,926.61,65.8z"/>
	<path class="st19" d="M80.84,552.54c-2.84,12.52-5.66,25.04-8.53,37.55c-0.73,3.18-1.63,6.32-2.45,9.48
		c-6.64,0.98-13.29,2.11-17.66-5.02c-0.96-1.56-2.78-1.64-4.4-1.97c-6.4-1.32-12.88-0.49-19.32-0.75c-4.12-0.16-7.99-0.78-9.67-5.34
		c2.02-13.8,4.64-27.49,8.11-41c0.53-2.37,1.9-3.66,4.42-3.93c4.32-0.47,8.69-0.92,12.93-0.08c10.56,2.1,21.28,3.59,31.35,7.76
		C77.61,550.04,79.25,551.19,80.84,552.54z"/>
	<path class="st20" d="M18.81,586.48c3.38,3.43,7.49,4.28,12.21,4.08c6.42-0.27,12.88-0.43,19.26,0.88c1.35,0.28,2.5,0.45,3.31,1.75
		c3.09,4.92,8.56,7.06,14.12,5.3c1.5-0.48,1.65,0.29,2.15,1.07c-0.09,0.65-0.17,1.3-0.26,1.95c-0.71,2.1-3.15,1.68-4.25,3.07
		c1.06,0,2.25-0.95,3.45-0.1c-2,10.44-4,20.87-6.03,31.31c-0.18,0.93-0.62,1.81-0.94,2.71c-5.87-3.74-12.97-2.29-19.14-4.77
		c3.16,0.89,6.06,2.68,9.48,2.62c2.04-0.03,3.33,1.24,4.22,3.01c1.12,2.23,2.42,4.36,4.25,6.11c0.31,1.17,0.07,2.2-0.79,3.07
		c-5.55-1-11.32-1.01-16.71-2.12c-5.79-1.19-11.44-2.83-17.43-2.93c-1.51-0.03-3.14-0.92-2.88-2.77c0.24-1.7,1.81-2.2,3.44-2.22
		c1.66-0.02,3.33-0.01,4.99-0.02c-3.43,0-6.63,0.28-10.01,1.74c-3.65,1.58-7.86,0.51-11.42-1.75c0.99-11.68,3.53-23.11,5.5-34.63
		C16.34,598.03,16.92,592.12,18.81,586.48z"/>
	<path class="st21" d="M472.69,514.37c0.78,1.37-1.34,5.14,3,3.61c0.18-0.06,0.96,0.77,0.89,0.89c-2.14,4.21,3.27,6.8,2.26,10.9
		c-0.56,2.27,0.64,3.56,3.47,3.33c3.5-0.28,5.01,1.67,4.48,5.27c-0.26,1.79-0.09,3.65-0.03,5.48c0.07,2.13-0.94,4.67,3.34,3.99
		c2.82-0.45,6.95,6.8,6.71,10.86c-0.16,2.69-0.32,5.04,3.56,4.86c2.84-0.13,2.49,2.25,2.33,3.96c-0.36,3.7,0.41,6.11,4.85,5.81
		c2.55-0.18,3.47,1.34,3.21,3.8c-0.18,1.71,0.01,3.35,1.77,4.31c-1.74,15.83-4.39,31.51-8,47.02c-3.24,1.08-4.15-1.84-5.07-3.54
		c-5.25-9.64-11.51-18.66-16.88-28.21c-4.48-7.96-9.36-15.66-14.26-23.35c-2.22-3.49-3.56-7.48-6.32-10.65
		c-0.44-3.75,1.01-7.22,1.75-10.76c2.35-11.22,4.68-22.45,6.61-33.75C470.6,516.68,470.4,514.73,472.69,514.37z"/>
	<path class="st22" d="M80.84,552.54c-6.04-2.03-11.95-4.72-18.15-5.94c-10.51-2.07-20.89-5.63-31.98-3.56
		c-2.02,0.38-2.61,1.53-3.79,2.45c2.54-15.18,6.17-30.11,10.11-44.97c3.53-1.45,7.14,0.04,10.72-0.32c2.34-0.24,4.31-0.46,6.07-2.54
		c3.73-4.4,9.26-3.14,10.78,2.35c0.86,3.11,3.54,1.68,5.26,2.55c0.49,0.15,0.95,0.37,1.37,0.66c4.92,2.08,9.51,5.18,15.18,4.92
		c2.2-0.1,4.44-0.39,5.37,2.37C88.12,524.51,84.48,538.52,80.84,552.54z"/>
	<path class="st23" d="M100.02,292.53c4.02-11.58,8.6-22.93,13.96-33.97c2.7,1.03,4.65-2.4,7.61-1.08c2.8,1.25,5.81,0.43,8.77-0.25
		c2.56-0.58,5.95-2.68,6.68,2.59c0.25,1.8,2.54,1.31,3.85,0.83c4.33-1.57,8.38-1.95,12,1.61c0.58,0.57,1.49,0.82,2.32,0.79
		c5.21-0.18,10.16,0.84,14.99,2.79c1.67,0.68,3.66,0.59,5.35-0.27c4.8-2.46,4.06,0.47,3.38,3.39
		c-5.28,11.23-10.57,22.46-15.85,33.68c-6.8,1.89-13.26-0.25-19.41-2.43c-4.54-1.62-8.98-2.73-13.61-2.16
		c-6.24,0.78-11.74-1.52-17.36-3.35C108.54,293.35,104.19,293.56,100.02,292.53z"/>
	<path class="st24" d="M362.81,744.68c-7.7-4.83-13.6-11.6-19.22-18.52c-21.11-25.98-33.23-56.21-40.8-88.45
		c-3.72-15.85-6.29-31.89-6.87-48.21c1.14-0.55,2.58-0.75,3.12,0.41c2.63,5.63,8.28,9.97,7.09,17.3c-0.52,3.22,1.2,6.33,3.01,8.79
		c5.32,7.24,8.52,15.58,12.87,23.31c3.51,6.23,7.55,12.4,8.85,19.3c1.16,6.21,6.21,10.05,7.51,15.88c0.23,1.02,1.38,0.65,2.16,0.81
		c1.53,1.11,1.6,2.87,1.94,4.46c4.39,20.43,10.65,40.24,19.46,59.21C362.77,740.75,363.8,742.59,362.81,744.68z"/>
	<path class="st25" d="M91.77,510.5c-1.06-0.37-1.83-1.89-3.02-1.38c-6.07,2.62-10.55-3.18-16.17-2.97
		c-1.21,0.05-1.67-1.42-1.75-2.65c1.31-1.51,3.4-0.91,5.86-1.94c-3.09-0.69-4.43,0.77-5.86,1.94c-1.98-0.01-3.96,0.06-5.94-0.04
		c-1.68-0.08-2.94-0.59-2.15-2.77c0.49-1.36,2.25-3.55-0.44-3.9c-2.39-0.31-6-2.1-7.29,1.6c-0.93,2.68-2.42,3.22-4.76,3.12
		c-4.41-0.2-8.91,0.64-13.22-1c2.95-14.83,6.6-29.49,10.92-43.98c1.88-0.78,3.26-0.42,3.83,1.7c0.47,1.73,1.84,2.61,3.99,4.16
		c-0.27-0.22-0.6-1.43-0.77-0.78c-0.05,0.18-0.18,0.14-0.43-0.08c-1-0.87-2.26-1.62-2.44-3.04c-0.23-1.81,0.02-3.78,2.55-2.8
		c6.75,2.61,14.12,2.09,20.94,4.42c2.22,0.76,3.77,1.47,4.49,3.96c1.33,4.55,2.51,4.73,5.75,1.38c2.35-2.44,14.28-3.3,17.05-1.23
		c1.21,0.9,1.6,2.07,1.12,3.52l0.05-0.03c-1.37,0.97-2.99,0.96-5.09,1.12c1.22,1.47,3.18,1.26,3.84,2.69
		c-2.5,10.48-5.45,20.83-8.9,31.04c-0.56,0.49-1.69,0.42-1.8,1.17c-0.08,0.52,1.01,0.42,1.47,0.81
		C93.02,506.53,93.08,508.72,91.77,510.5z"/>
	<path class="st26" d="M339.78,675.42c-0.18,0.79-0.09,1.94-0.58,2.29c-1.07,0.76-1.27-0.4-1.51-1.14
		c-2.39-7.28-6.91-13.52-9.32-20.94c-3.25-10.02-9.49-18.94-14-28.49c-3.67-7.76-11.41-14.02-9.84-24.2
		c0.35-2.27-0.4-6.09-4.36-6.99c-1.48-0.34-1.61-2.12-1.35-3.43c0.51-2.56-1.53-2.41-2.89-3.02c-1.94-16.66-1.17-33.37-0.9-50.08
		c0.64-2.08-0.16-4.3,0.62-6.37c0.07-1.19,0.14-2.38,0.21-3.57c1.18-0.41,2.35-0.82,5.33-1.86c-5.26,5.44-1.31,8.88-0.03,12.94
		c6.09,19.35,17.41,36.3,24.81,55.05c1.86,4.71,4.99,8.91,6.05,14.03c0.27,1.33,1.48,2.16,2.67,2.82c1.7,1.52,1.55,3.6,1.52,5.55
		c-0.3,18.45,1.59,36.71,4.49,54.9C340.69,673.87,340.47,674.73,339.78,675.42z"/>
	<path class="st27" d="M384.45,203.43c3.14,5.68,7.02,11.1,9.22,17.12c2.42,6.61,6.53,12.18,9.34,18.38
		c2.4,5.27,5.03,10.68,6.69,16.14c2.59,8.47,6.72,15.72,12.06,22.52c0.7,3.77-2.1,6.44-3.13,9.66c-2,6.29-5.09,12.15-7.57,18.26
		c-0.61,1.51-1.34,3.06-3.19,3.51c-2.99-0.33-4.13-2.79-5.09-4.97c-10.03-22.84-21.31-45.1-31.68-67.78
		c-0.28-0.6-0.48-1.24-0.71-1.87C374.85,223.98,378.96,213.39,384.45,203.43z"/>
	<path class="st28" d="M782.78,530.77c-0.52,16.69-2.18,33.27-5.1,49.72c-2.86,0.22-2.7-1.9-2.68-3.67c0.03-2.26-0.84-3-3.04-2.49
		c-2.73,0.63-4.47-1.86-6.44-2.4c-6.01-1.64-7.33-8.97-13.46-10c-0.96-0.16-1.46-1.3-1.94-2.18c-0.47-0.87-0.88-2.37-1.72-2.3
		c-6.1,0.49-9.52-5.99-15.46-5.8c-0.46,0.02-0.77-0.57-0.97-1.05c-0.41-4.68,0.92-9.16,1.73-13.66c1.5-8.26,2.29-16.63,3.9-24.87
		c0.6-1.79,0.8-3.64,0.78-5.53c0.08-1.07,0.29-2.1,0.99-2.96c1.6-0.73,2.06,0.61,2.58,1.55c2.1,3.78,6.07,5.02,9.41,4.23
		c7.2-1.69,10.78,2.83,12.82,7.63c2.79,6.57,6.52,9.32,13.59,8.59C780.55,525.3,784.23,526.05,782.78,530.77z"/>
	<path class="st29" d="M123.92,236.58c3.86-9.71,8.66-18.96,13.84-28.03c1.9-2.15,3.84-3.03,6.3-0.66c1.59,1.53,3.69,1.26,5.68,0.92
		c3.77-0.63,7.57-1,11.36-1.41c2.61-0.28,5.51-0.35,6.17,3.32c-0.5,1.13-1.46,1.54-2.87,1.69c1.36,0.01,2.13-0.64,2.89-1.31
		c3.68-1.51,7.5-0.92,11.24-0.57c2.32,0.22,2.29,0.5,2.03,3.98c4.37-2.89,9.13-2.41,13.84-2.06c1.5,0.11,3.17,0.6,3.32,2.39
		c0.15,1.81-1.93,1.39-2.9,2.26c2.15,0.31,3.86,0.07,5.91-1.16c2.47-1.49,5.44-1.25,6.11,2.73c-5.5,9.71-10.79,19.53-17.08,28.77
		c-8.94,0.02-17.87-0.57-26.81-0.57c-2.54,0-4.61-1.22-5.23-3.81c-0.85-3.56-3.31-4.07-6.39-4.04c-5.98,0.06-11.96,0.04-17.94,0
		C130.04,239.01,126.78,238.55,123.92,236.58z"/>
	<path class="st30" d="M426.79,120.72c-4.36,8.23-8.95,16.34-14.02,24.17c-7.65-7.06-14.85-14.56-23.91-20.06
		c-20.59-12.49-42.39-14.53-65.38-8.82c-6.75,1.68-13,4.67-19.58,6.74c15.54-11.14,32.74-18.7,51.29-23
		c21.76-5.04,42.46-2.55,61.43,10.02C419.64,113.78,422.75,117.68,426.79,120.72z"/>
	<path class="st31" d="M673.5,170.5c3.7-7.43,8.29-14.3,13.16-21c14.62-0.74,29.19,1.18,43.82,0.86c3.45-0.08,3.78,1.06,1.99,4.07
		c4.12-0.33,8.04-0.48,11.94-1.7c3.67-1.15,7.74-1.25,11.36-0.21c6.22,1.79,12.48,1.73,18.78,1.58c2.9-0.07,4.16,0.72,3.24,3.7
		c-7.14,7.59-14.28,15.17-21.43,22.76c-12.31-4-25.2-3.26-37.83-4.39c-13.66-1.22-27.38-2.23-41.13-2.5
		C675.3,173.63,674.05,172.47,673.5,170.5z"/>
	<path class="st32" d="M123.81,405.54c-2.83,10.16-6.15,20.17-9.92,30.02c-5.54,5.1-12.31,4.2-18.36,2.42
		c-7.23-2.13-13.98-5.89-21.51-7.35c-1.14-0.22-2.37-0.56-2.49-2.03c-0.14-1.73,1.71-1.64,2.75-2.72
		c-4.72,0.23-9.33-1.13-12.81,3.68c-1.3,1.79-4.34,0.89-6.1-1.18c3.05-10.98,5.62-22.11,9.55-32.83c1.52-0.39,0.18-1.68,0.74-2.37
		c0.11-0.54,0.22-1.08,0.33-1.62c5.37,0.78,10.82-0.76,16.2,0.67c2.33,0.62,4.23,1.24,5.57,3.57c2.06,3.57,10.84,6.13,14.5,4.22
		c4.06-2.13,7.03-1.87,9.73,2.21c2.16,3.27,5.14,1.87,7.95,0.51C122.78,401.36,125.08,401.07,123.81,405.54z"/>
	<path class="st33" d="M195.62,122.54c6.83-0.26,13.27-3.66,20.66,0.13c3.74,1.92,8.93,3.28,14.25,2.43
		c5.69-0.9,11.72-1.14,17.22,2.85c2.48,1.8,6.67,2.08,9.8,2.27c6.95,0.43,13.2,3.53,20.08,4.03c2.05,0.15,4.17-1.83,6.1,0.1
		c-8.97,5.76-16.87,12.82-24.65,20.06c-1.3,1.21-2.43,2.72-4.3,3.2c-1.85-2.34-4.21-3.05-7.1-2.34c-1.94,0.47-3.97,0.93-5.92,0.31
		c-3.09-0.97-3.5-2.64-0.76-5.08c-4.18,3.04-8.07,3.27-11.73-0.49c-0.97-1-2.43-0.95-3.74-1.17c-4.09-0.68-8.26-0.89-12.2-2.43
		c-3.23-1.26-6.16,0.66-9.23,1.18c-1.65,0.28-3.48,0.33-4.52-1.31c-1.03-1.63-0.15-2.81,1.41-3.6c-4.34,0.17-8.57,0.64-12.79,1.86
		c-3.36,0.97-6.8,0.67-7.55-3.99C185.01,134.03,189.83,127.88,195.62,122.54z"/>
	<path class="st34" d="M713.68,112.58c1.57,1.12,2.66,1.89,5.25,1.44c4.39-0.77,9.23,0.09,13.71,0.78c11.62,1.78,23.48,1,34.94,3.02
		c16.12,2.84,32.53,1.7,48.59,4.6c2.32,0.42,4.86,0.76,7.26-0.53c1.86-1,0.89,0.93,1.24,1.5c-9.3,5.29-18.1,11.35-26.92,17.38
		c-22.15-2.04-44.27-4.34-66.47-5.94c-10.75-0.77-21.5-1.47-32.25-1.99c-2.17-3.72,1.42-5.52,2.7-8.09c1.12-1.44,2.4-2.77,3.36-4.34
		c1.53-1.53,2.35-3.76,4.56-4.62C711.66,115.56,712.2,113.49,713.68,112.58z"/>
	<path class="st35" d="M784.8,487.89c-0.09,3.54-0.17,7.08-0.26,10.62c-3.11,2.19-5.14-1.08-7.66-1.56
		c-0.41,0.14-0.6,0.39-0.68,0.75c-0.39,1.92,1.32,4.89-1.84,5.44c-3.08,0.54-7.02,0.57-8.44-2.68c-2.4-5.47-7.79-7.08-11.92-9.98
		c-5.04-3.54-9.06-7.91-13.37-12.12c-1.34-8.56,0.9-16.98,0.95-25.48c1.16-3.68,0.64-7.47,0.66-11.22c-0.01-2-0.1-4.01,0.89-5.85
		c0.9-1.07,2.44-1.32,3.06-0.46c2.54,3.48,6.23,2.81,9.71,3.46c3.07,0.57,5.91,2.31,7.1,5.62c0.98,2.73,2.82,4.46,5.66,5.02
		c2.29,0.45,3.89,1.82,5.05,3.71c1.97,3.19,4.38,4.81,8.27,3.15c1.9-0.81,3.23-0.1,3.17,2.26
		C784.95,468.35,785.61,478.13,784.8,487.89z"/>
	<path class="st36" d="M698.66,131.46c2.82,1.46,5.69,0.02,8.53,0.13c14.82,0.61,29.6,1.82,44.31,3.77
		c0.16,0.02,0.33,0.11,0.49,0.09c13.6-1.37,26.72,3.28,40.23,3.14c2.11-0.02,4.45-0.47,5.55,2.16
		c-6.66,5.68-13.31,11.36-19.97,17.04c-1.21-0.2,0.75-2.55-2.62-2.39c-6.03,0.29-12.29,1.07-18.58-1.32
		c-4.08-1.55-9.26-1.2-14.07,0.74c-4.77,1.92-10.05,0.57-15.87,0.69c1.94-3.07,4.97-0.94,6.7-3.01c-1.65-1.44-3.54-0.97-5.19-0.89
		c-12.81,0.56-25.57-0.88-38.36-1.04c-1.17-0.01-2.36,0.04-3.15-1.08c0.43-0.62,0.87-1.24,1.3-1.86c1.36-0.17,1.28-1.38,1.64-2.28
		c0.28-2.66,3.11-4.12,3.19-6.87c0.53-3.02,2.53-5.08,4.59-7.11C697.82,131.2,698.25,131.22,698.66,131.46z"/>
	<path class="st37" d="M55.38,428.38c2.74,0.24,6.22,2.77,7.07-2.57c0.19-1.18,1.79-1.28,2.98-1.28c3.31,0,6.63-0.04,9.94,0.02
		c1.31,0.02,3.02,0.11,2.84,1.9c-0.15,1.59-1.83,0.88-2.87,1.05c-0.94,0.15-1.9,0.23-2.96,0.8c2.86,1.62,6.36,2.62,9.13,2.8
		c4.4,0.28,8.33,2.57,11.28,4.21c5.28,2.95,10.24,1.21,15.17,2.28c2.65,0.57,3.12-3.96,5.94-2.04c-2.79,10.88-6.28,21.54-9.87,32.18
		c-0.39-2.39-1.85-3.31-4.21-3.24c-3.15,0.09-6.31,0.04-9.47,0.01c-1.76-0.02-3.26,0.06-3.61,2.37c-0.46,3.03-2.93,2.7-5.08,2.56
		c-2.4-0.16-2.99-1.87-2.81-3.88c0.26-2.94-1.16-3.34-3.83-4.26c-7.1-2.47-15.05-0.95-21.71-4.98c0.01,3.86,0.01,3.86,5.95,6.19
		c-3.78,0.73-7.07-0.28-8.16-3.58c-0.68-2.06-2.12-1.62-3.15-2.39C49.82,446.99,52.65,437.7,55.38,428.38z"/>
	<path class="st38" d="M238.76,174.46c-5.97,7.76-11.93,15.53-17.9,23.29c-2.7-3.3-6.94-2.32-10.38-3.54
		c-4.17-1.48-8.83-1.43-13.09-2.98c-0.62-0.22-1.4-0.48-1.96-0.24c-8.5,3.55-15.51-1.99-23.13-3.73c-4.54-1.04-9.17-0.4-13.81-1.2
		c-5.7-0.98-5.85-0.1-5.13-5.6c4.18-7.16,8.33-14.33,13.47-20.87c1.31-1.03,2.86-1.11,4.25-0.52c5.03,2.11,10.54,1.27,15.54,2.49
		c5.69,1.38,10.99,3.96,16.99,1.87c11.25,4.26,23.63,4.52,34.6,9.75C238.71,173.42,238.75,173.96,238.76,174.46z"/>
	<path class="st39" d="M153.36,180.46c0.93,0.03,2.1-0.96,2.74,0.16c1.04,1.81-0.78,1.03-1.41,1.37c-1.14,0.61-0.97,1.68-0.61,2.6
		c0.42,1.07,1.71,1.38,2.52,1.24c7.94-1.43,16.52-1.34,23.05,2.26c5.91,3.26,10.82,0.84,15.98,1.75c6.38,1.13,13.04,1.63,19.09,4.34
		c0.91,0.41,1.53,1.02,2.65,0.36c4.57-2.7,4.04,0.28,3.48,3.22c-4.67,6.98-9.34,13.95-14.02,20.93c-3.14-2.85-3.52-2.88-5.62-0.47
		c-0.67,0.77-9.35,0.56-9.87-0.31c-0.64-1.07-0.28-1.97,0.97-2.18c1.53-0.26,3.1-0.32,6.01-0.59c-8.22-3.94-15.08,0.85-21.95,0.23
		c0.06-1.84,1.04-1.66,1.78-1.79c0.77-0.13,1.68,0.05,2.17-1.4c-4.51-1.28-9.08-0.3-13.54-0.62c-0.44-3.77-3.36-3.14-5.68-2.91
		c-3.73,0.36-7.41,1.39-11.14,1.62c-2.6,0.16-5.75,1.98-7.61-2.15c-1.2-2.67-2.94,1.15-4.61,0.43
		C142.27,198.8,147.73,189.58,153.36,180.46z"/>
	<path class="st40" d="M1024.6,286.55c3.24,11.93,5.11,24.13,7.05,36.32c0.72,4.55,1.25,9.13,1.86,13.69
		c-1.74,6.53-6.15,8.93-12.63,8.27c-3.15-0.32-6.21,0.75-9.34,0.89c-5.54,0.25-7.41-1.9-6.6-7.54c-0.97,2.02-1.09,4.48-3.41,5.58
		c-1.32-11.79-2.66-23.58-3.95-35.38c-0.72-6.56-1.34-13.13-2-19.69c-1.06-2.15,0.51-2.72,2.01-2.95
		c7.54-1.15,15.09-2.22,22.75-1.48C1022.09,284.44,1023.49,285.22,1024.6,286.55z"/>
	<path class="st41" d="M100.02,292.53c7.09-1.77,13.5,0.01,19.68,3.52c1.17,0.66,2.91,0.59,4.35,0.46
		c9.35-0.87,18.13,1.17,26.87,4.38c3.76,1.38,8.09,1.22,12.17,1.75c-4.08,9.66-8.17,19.31-12.25,28.97
		c-6-2.24-11.76-4.68-18.49-5.01c-6.69-0.33-13.43-2.01-20.03-3.56c-3.46-0.82-6.88-1.46-10.32-0.97c-3.81,0.55-6.9,0.27-8.62-3.76
		c-0.39-0.91-1.53-1.24-2.33-1.81C93.46,308.31,96.49,300.33,100.02,292.53z"/>
	<path class="st42" d="M1038.47,374.53c1.62,15.65,3.31,31.29,4.02,47.01c-4.83,5.07-11.27,5.12-17.44,4.95
		c-4.12-0.11-8.17-0.47-12.29,0.15c-2.52,0.38-5.38,0.86-7.03-2.12c-1.4-5.19-0.72-10.52-1.01-15.78
		c-0.54-9.72-0.65-19.46-0.93-29.19c9.11-2.34,17.98-5.77,27.55-6.09C1033.8,373.39,1036.31,372.65,1038.47,374.53z"/>
	<path class="st43" d="M339.78,675.42c0.04-0.57,0.09-1.14,0.13-1.71c4.83,0.36,8.09,3.68,11.75,6.25
		c13.95,15.81,22.28,35.25,33.91,52.57c4.77,7.11,9.07,14.67,13.09,22.3c1.05,2,2.5,3.97,2.07,6.48
		c-14.62-1.02-27.03-7.1-37.92-16.63c-10.01-21.99-17.86-44.68-22.49-68.44C340.27,675.94,339.97,675.69,339.78,675.42z"/>
	<path class="st44" d="M9.84,638.47c9.13,3.02,18.14-3.18,28.14-0.24c-4.02,2.1-7.61,0.87-10.99,1.23
		c-1.28,0.14-3.26-0.27-3.32,1.34c-0.07,2.15,2.1,1.64,3.46,1.63c10.57-0.08,20.54,4.04,31.05,4.41c0.57,0.02,1.11,1.1,1.67,1.68
		c-1.4,10.92-3.47,21.71-5.89,32.44c-0.18-2.41-1.13-3.47-3.85-3.05c-3.24,0.49-6.6,0.19-9.87,0.58
		c-6.57,0.79-11.87-2.93-17.77-4.55c-5.72-1.56-11.35-6.27-17.66-1.49C5.78,661.03,7.46,649.7,9.84,638.47z"/>
	<path class="st45" d="M629.64,259.4c2.08-6.88,5.27-13.31,8.21-19.84c1.7-1.27,3.69-1.7,5.67-1.33c7.22,1.34,14.59,0.45,21.83,1.65
		c5.05,0.83,10.15,1.6,15.34,0.47c3.55-0.78,6.87,1,10.21,1.81c6.62,1.61,13.25-0.43,19.82,0.6c2.79,2.19,0.07,2.87-1.08,3.97
		c-2.96,0.22-0.25,1.69-0.53,2.51c-3.42,6.08-5.82,12.81-11.23,17.62c-2.61,1.29-5.34,1.38-8.23,1.36
		c-15.99-0.14-31.9-1.17-47.76-3.17c-2.81-0.35-5.63-0.63-8.38-1.32C631.3,263.19,629.41,262.19,629.64,259.4z"/>
	<path class="st46" d="M71.36,374.43c3.63-11.71,7.04-23.5,11.6-34.91c1.82-2.44,3.15-0.53,4.37,0.61
		c4.07,3.82,9.23,5.56,14.43,5.83c9.19,0.47,17.88,3.26,26.86,4.64c2.47,0.38,4.18,0.37,6.24-1.49c2.65-2.41,5.99-3.26,8.89,0.14
		c-4.35,11.84-7.81,24.01-12.77,35.63c-1.36-0.47-2.11-1.59-2.77-2.73c-1.76-3.05-4.45-4.34-7.86-4.26
		c-4.35,0.1-8.55-0.22-12.53-2.33c-2.24-1.18-4.88-0.63-7.35-0.72c-5.56-0.2-13.89-3.8-17.5-7.71
		C79.41,370.01,77.38,375.57,71.36,374.43z"/>
	<path class="st47" d="M238.76,174.46c-9.64-2.19-18.64-7.02-28.84-6.96c-0.89,0.01-2.01-0.46-2.65-1.09
		c-2.75-2.66-5.66-2.2-8.69-0.74c-2.04,0.99-4.47,1.78-6-0.07c-2.78-3.37-6.36-3.5-9.94-2.95c-5.72,0.88-10.4-2.8-15.8-3.07
		c4.01-6.77,8.52-13.19,13.8-19.05c0.77-0.11,2.17-0.85,2.2-0.11c0.32,6.72,4.97,3.03,6.89,2.29c5.55-2.12,10.92-0.59,16.7-1.14
		c-0.67,2.4-2.02,1.8-3.02,2c-1.28,0.26-3.6-0.64-3.19,1.79c0.33,1.95,2.83,1.61,3.77,1.06c8.63-5.05,16.55,2.42,24.91,1.23
		c0.87-0.12,1.44,0.57,1.85,1.38c1.97,3.9,5.11,3.02,7.95,1.51c2.58-1.38,4.91-1.12,7.46-0.5c-0.16,1.84-1.41,1.3-2.26,1.51
		c-1.38,0.34-4.04-0.87-3.63,1.8c0.32,2.09,2.79,1.17,4.3,1.11c2.13-0.08,4.23-0.6,6.35-0.91c3.14-0.45,4.24,1.09,3.87,4.02
		C249.76,163.53,244.56,169.29,238.76,174.46z"/>
	<path class="st48" d="M519.6,468.49c-1.31-0.82-2.75-1.07-4.28-1c-1.94,0.08-2.42-1-2.62-2.77c-0.63-5.67-2.29-10.67-7.1-14.6
		c-2.71-2.22-2.6-7.69-8.03-7.06c-0.2,0.02-0.79-0.87-0.69-1.17c1.33-3.99-1.94-7-2.18-10.66c-0.24-3.78-2.69-4.67-5.93-2.82
		c-1.69,0.97-2.19,6.28-5.98,2.02c-0.48-0.54-0.66,3.3-3.02,3.11c-1.38-1.23-1.52-2.91-1.54-4.57c-0.26-18.06,0.36-36.13-1.03-54.16
		c-0.09-1.15,0.07-2.32,0.35-3.44c2.19-4.44,3.67-0.97,4.66,0.69c3.05,5.13,6.18,10.22,9.1,15.41c7.15,12.71,15.32,24.8,22.6,37.43
		c1.65,2.86,2.69,6.07,4.83,8.65c1.66,2.41,0.86,5.14,0.89,7.72C519.72,450.32,519.62,459.41,519.6,468.49z"/>
	<path class="st49" d="M1005.73,424.53c1.26,0.33,2.64,1.16,3.77,0.9c8.29-1.84,16.68,0.53,24.99-0.85c2.97-0.49,4.79-3.51,8-3.04
		c0.92,12.98,2.12,25.94,2,38.97c-1.33,1.03-0.96,2.79-1.74,4.03c-0.93,1.49-2.3,2.54-4.09,2.39c-1.89-0.16-2.46-1.44-1.91-3.22
		c0.26-0.83-0.06-1.29-0.94-1.24c-1.03,0.05-2.2,0.28-2.47,1.34c-1.52,6.11-6.34,6.02-11.07,5.95c-3.52-0.05-6.94,0.6-10.41,0.91
		c-2.11,0.19-4.35,0.53-6.16-1.15C1005.72,454.52,1005.72,439.53,1005.73,424.53z"/>
	<path class="st50" d="M755.69,69.65c0.31,0.55,0.78,1.61,0.91,1.57c8.84-2.63,16.3,3.52,24.85,3.85
		c8.46,0.33,16.93,0.06,25.38,0.52c1.16,0.06,2.61-0.37,3.45,0.17c5.83,3.78,12.11,1.79,18.31,2.03c10.34,0.4,20.8,1.01,30.98,2.28
		c10.42,1.3,20.8,2.85,31.3,3.81c5.19,0.48,10.1,2.84,15.23-0.13c0.54-0.31,1.68,0.03,2.36,0.4c6.15,3.36,12.39,4.68,19.17,1.72
		c1.74-0.76,3.95-0.61,5.86,0.27c4.34,2,9.19,1.84,13.65,3.29c2.38,2.37,4.88,4.67,5.64,8.16c-9.07,0.12-17.85-2.57-26.88-2.75
		c-4.81-0.09-9.7-0.54-14.41,0.16c-3.04,0.45-5.2-0.14-7.91-1.28c-5.6-2.33-11.17-4.75-17.81-3.5c-7.69,1.45-15.51,0-23.22-1.17
		c-1.47-0.22-3.1-0.79-4.41-0.39c-9.25,2.8-17.72-2.66-26.73-2.45c-1.88,0.04-3.82-0.39-5.84-0.3c-4.37,0.2-8.41,1.21-13.1-1.64
		c-3.05-1.86-8.07-3.04-12.71-2.81c-7.71,0.38-15.39,1.15-23.22,0.31c-8.13-0.87-16.4,0.1-24.51-2.07c-2.47-0.66-2.2-2.59-3.29-3.84
		C750.71,73.41,752.96,71.26,755.69,69.65z"/>
	<path class="st51" d="M370.4,234.42c2.71,0.81,2.95,3.6,3.8,5.51c9.38,20.98,20.23,41.27,29.08,62.5c0.99,2.37,2.19,4.85,4.71,6.19
		c0.97,1.71-0.06,3.22-0.52,4.77c-1.78,5.9-4.31,11.52-6.58,17.24c-0.55,1.38-1.12,2.82-2.83,3.23c-3.15-0.94-4.04-3.79-5.04-6.36
		c-2.85-7.27-6.93-14.01-9.75-21.22c-5.43-13.93-13.58-26.56-18.62-40.62c-1-2.8-3.42-4.94-3.7-8.05
		C364.1,249.87,367.25,242.14,370.4,234.42z"/>
	<path class="st52" d="M143.74,349.25c-3.47-0.41-7.61-3.09-9.11,2.89c-0.46,1.83-1.89,0.86-2.84,0.5
		c-6.99-2.59-14.73-1.68-21.65-4.73c-1.55-0.68-3.59-0.25-5.4-0.38c-7.2-0.52-14.34-1.21-19.15-7.7c-0.76-1.02-1.68-0.83-2.63-0.31
		c1.41-5.86,3.44-11.5,5.95-16.98c1.6-1.36,1.77-3.23,1.85-5.14c-0.07-0.35,0.03-0.64,0.29-0.88c2.86-1.7,3.94,0.26,4.66,2.44
		c0.43,1.31,0.51,2.92,2.4,2.29c7.6-2.54,14.62,1.23,21.92,1.86c6.38,0.55,12.53,2.4,19.02,2.83c3.87,0.25,9.39,0.71,11.79,5.68
		C148.84,337.64,146.88,343.68,143.74,349.25z"/>
	<path class="st53" d="M604.87,325.54c2.65-7.67,5.31-15.33,7.96-23c2.77-2.67,6.28-2.64,9.8-2.8c15.06-0.7,29.75,3.13,44.73,3.53
		c3.83,0.1,6.59,2.8,9.61,4.77c0.49,0.91,0.64,1.92,0.3,2.86c-2.37,6.65-5.3,13.06-8.25,19.46c-0.49,1.07-1.46,1.76-2.74,1.84
		c-17.89-3.92-36.18-3.7-54.3-5.22C609.56,326.79,606.96,327.43,604.87,325.54z"/>
	<path class="st54" d="M71.36,374.43c4.04-1.83,8.39-3.3,9.58-8.39c0.21-0.92,0.85-1.37,1.79-1.38c1.16-0.02,1.88,0.52,2.03,1.7
		c0.41,3.16,3.26,3.03,5.26,4.31c6.97,4.45,15.73,0.87,22.61,5.51c1.29,0.87,3.59,0.54,5.36,0.32c6.74-0.84,11.13,1.75,12.97,8.39
		c-1.99,7.02-4.29,13.94-7.15,20.66c-0.1-2.04-0.21-3.96-3-1.94c-4.6,3.32-7.37,2.73-10.65-2.02c-1.8-2.61-4.16-2.61-6.44-0.84
		c-3.33,2.59-6.48,2.69-9.76,0c-1.19-0.98-2.65-1.23-4.2-1.24c-1.85-0.01-3.92,0.09-3.12-2.91c0.3-1.13-0.39-2.06-1.43-2.27
		c-4.16-0.85-8.77-2.97-12.47-1.24c-3.47,1.62-4.74-0.02-6.74-1.52C67.78,385.85,69.57,380.14,71.36,374.43z"/>
	<path class="st55" d="M762.68,657.46c-1.73,8.62-4.51,16.91-8.01,24.96c-10.52-9.72-23.67-15.93-34.28-25.38
		c-4.97-4.43-11.99-5.63-15.88-11.4c-1.38-2.04-3.35-3.68-4.23-6.09c2.16-6.92,5.43-13.25,10.13-18.8c1.13-0.41,2.73-0.77,3.34-0.02
		c4.03,4.91,11.15,4.7,15.24,9.32c3.03,3.43,7.66,5.01,9.98,9.39c1.03,1.95,3.88,2.33,6.22,2.66c1.31,0.18,2.64,0.23,3.9,0.7
		c2.81,1.06,1.12,6.47,6.58,5.81c2.86-0.34,4.95,4.4,7.17,7.05C763.31,656.22,763.17,656.9,762.68,657.46z"/>
	<path class="st56" d="M587.27,388.4c2.26-9.09,3.72-18.4,7.34-27.12c16.44,0.61,32.66,3.71,49.13,4.11
		c3.13,0.08,6.63,0.57,9.33,2.84c0.51,0.9,0.72,1.9,0.44,2.86c-2.18,7.59-4.46,15.14-7.58,22.41c-0.26,0.61-0.81,1.02-1.39,1.36
		c-3.3,0.77-6.06-1.56-9.14-1.68c-4.94-0.19-9.84-1.08-14.83-0.43c-9.96,1.31-19.56-2.5-29.47-2.33
		C589.65,390.45,588.19,389.74,587.27,388.4z"/>
	<path class="st57" d="M742.79,199.57c-4.34,4.54-8.07,9.54-11.31,14.92c-2.41-1.94-5.2-2.35-8.23-2.45
		c-20.12-0.66-40.09-3.03-60.07-5.29c-2.99-0.34-5.99-0.99-7.46-4.18c2.01-5.35,4.94-10.21,7.98-15c4.05-2.63,8.63-2.71,12.99-1.75
		c8.18,1.8,16.39,2.45,24.73,2.36c6-0.07,11.93,0.74,17.75,2.2c2.63,0.66,5.22,0.63,7.9,0.41c6.32-0.54,12.39,0.99,18.4,2.74
		C744.9,195.68,741.96,196.79,742.79,199.57z"/>
	<path class="st58" d="M123.92,236.58c3.19-1.83,5.63,1.45,8.87,1.17c7.09-0.61,14.26-0.15,21.4-0.21c2.63-0.02,4.78,0.44,4.59,3.69
		c-0.22,3.71,1.86,4.36,5,4.37c7.93,0.02,15.9-0.63,23.77,0.98c0.77,0.16,1.49,0.57,2.23,0.86c-3.41,7.27-6.67,14.62-10.84,21.51
		c-0.1-1.14-0.21-2.28-0.33-3.62c-3.94,3.72-8.25,2.63-12.07,0.8c-2.55-1.22-4.94-1.6-7.61-1.59c-3.39,0.01-6.79,0.66-9.23-3.11
		c-1.17-1.8-4.01-1.14-6.04-0.22c-1.85,0.83-3.65,1.58-5.73,1.34c-3.33-0.39-4.9-1.59-2.09-4.74c-2.4-0.8-4.43,0.3-6.37,1.05
		c-5.25,2.02-10.31-1.1-15.48-0.29C116.74,250.99,120.02,243.64,123.92,236.58z"/>
	<path class="st59" d="M732.85,551.49c2.64-2.56,4.9-0.86,6.66,1c1.59,1.67,3.22,3.03,5.47,2.92c3.23-0.15,5.96,0.01,6.32,4.13
		c0.04,0.44,0.53,1.22,0.76,1.2c5.13-0.35,6.49,3.69,8.52,7.06c0.71,1.17,1.92,1.77,3.44,1.08c0.97-0.44,2.22-0.43,2.42,0.81
		c0.8,4.82,3.7,4.23,6.99,2.92c3.03-1.21,2.8,0.86,2.84,2.78c0.04,1.79-1.38,4.04,1.4,5.09c-0.5,9.46-2.18,18.75-4.14,27.99
		c-0.93,0.86-1.99,0.59-2.71-0.08c-5.25-4.88-11.96-7.64-17.34-12.51c-4.98-4.5-10.85-8.14-16.4-12.07
		c-3.56-2.52-6.82-5.49-10.99-7.07c0.77-7.88,3.13-15.43,4.88-23.1C731.21,552.7,731.87,551.91,732.85,551.49z"/>
	<path class="st60" d="M360.95,257.6c6.38,7.82,8.76,17.67,13.33,26.41c6.3,12.06,11.63,24.62,17.43,36.95
		c2.03,4.31,3.08,9.09,6.18,12.88c0.7,0.83,0.79,1.82,0.47,2.77c-1.87,5.58-3.96,11.07-6.2,16.51c-0.38,0.92-1.1,1.62-2.11,1.92
		c-2.63,0.21-3.89-1.47-4.8-3.56c-8.28-18.84-17.59-37.21-25.83-56.07c-1.78-4.08-3.32-8.33-5.96-12.01
		c-0.67-0.94-1.31-1.94-0.85-3.21C354.53,272.35,357.88,265.03,360.95,257.6z"/>
	<path class="st61" d="M587.27,388.4c4.85,1.39,9.85,0.82,14.77,1.22c4.97,0.41,9.71,2.68,14.89,1.94
		c5.2-0.75,10.45-0.06,15.66-0.15c4.43-0.08,8.03,2.03,12,3.12c1.21,3.66-1.19,6.64-1.93,9.92c-0.83,3.69-2.07,7.28-3.29,10.86
		c-0.51,1.48-0.64,3.37-2.86,3.52c-12.86,1.03-25.51-1.7-38.29-2.17c-3.18-0.12-6.31,0.21-9.46,0.22c-2.58,0.01-5.38,0.74-7.56-1.49
		C582.75,406.29,584.59,397.25,587.27,388.4z"/>
	<path class="st62" d="M711.37,243.55c-9.13,0.71-18.32,2.2-27.13-1.87c-0.42-0.19-1.02-0.21-1.48-0.1
		c-10.79,2.67-21.31-1.94-32.07-1.14c-4.23,0.32-8.5-1.36-12.84-0.88c3.06-6.64,6.12-13.28,9.19-19.93
		c6.17-2.43,12.6-2.8,19.13-2.33c1.35,0.1,2.95,0.25,3.7,1.28c3.08,4.27,7.53,3.54,11.8,3.57c4.66,0.03,9.3-0.04,13.94-0.75
		c3.33-0.51,6.37-0.33,8.81,3.03c2.34,3.23,10.07,3.95,13.73,2.07c1.34-0.69,2.78-2.41,4.08,0.1
		C719.75,232.99,717.39,239.44,711.37,243.55z"/>
	<path class="st63" d="M731.62,725.3c-2.74,3.94-6.11,7.28-9.92,10.18c-1.98-2.77-4.52-4.83-7.69-6.06
		c-4.78-1.85-8.32-5.48-12.09-8.69c-5.96-5.08-12.04-10.49-19-13.5c-7.91-3.42-13.06-9.91-19.92-14.07
		c-9.25-5.6-16.94-13.14-25.89-19.09c-4.16-2.77-8.69-5.23-12.69-8.32c-2.46-1.9-4.45-4.43-7.15-6.1c-0.67-1.07-1.05-2.25-1.23-3.5
		c-0.02-0.8,0.16-1.51,0.82-2.04c2.02-0.74,3.62,0.26,4.99,1.44c9.93,8.52,21.58,12.76,34.45,14.05
		c9.6,7.24,20.14,13.11,29.25,21.15c5.65,4.99,11.75,9.78,18.78,13.01c2.76,1.26,4.86,3.52,7.15,5.39
		c5.66,4.64,11.73,8.66,17.75,12.77C730.39,722.71,732.03,723.33,731.62,725.3z"/>
	<path class="st64" d="M731.62,725.3c-8.88-6.67-17.69-13.59-26.88-19.68c-10.3-6.83-20.25-13.88-29.55-21.99
		c-3.07-2.67-6.91-4.41-10.28-6.83c-2.8-2.01-5.93-3.54-8.21-6.25c0.77-1.47,2.18-2.03,3.66-2.17c4.82-0.45,9.07-2.86,13.71-3.89
		c6.06,2.27,11.93,5.04,16.85,9.26c11.33,9.71,24.33,17.15,35.71,26.82c4.63,3.94,10.5,6.43,14,11.78
		C738.25,717.09,735.26,721.42,731.62,725.3z"/>
	<path class="st65" d="M1005.71,469.51c6.94,0.35,13.76-1.35,20.73-1.21c2.12,0.04,6.77,0.03,4.74-5.02
		c-0.4-0.98,0.11-1.77,1.09-1.65c2.31,0.28,4.49-2.11,6.66-0.55c1.33,0.95,0.22,1.97-0.8,2.69c-0.69,0.49-1.37,1.09-0.52,1.99
		c0.71,0.75,1.58,0.63,2.18-0.03c0.89-0.98,3.01-1.06,2.35-3.25c-0.69-2.29,1.14-1.81,2.35-1.97c-0.05,11.7,1.77,23.34,1.15,35.06
		c-0.09,1.64-0.1,3.29-0.15,4.93c-1.62-1.69-2.63-2.09-5.4-0.74c-3.63,1.76-8.35,1.35-12.62,1.72c-5,0.44-10.07-0.76-15.01,1.79
		c-2.05,1.05-5.24,0.79-7.69-0.74C1004.27,491.5,1005.34,480.52,1005.71,469.51z"/>
	<path class="st66" d="M762.68,657.46c-1.42-1.85-2.55-4.12-4.36-5.43c-1.57-1.13-2.65-4.42-6.03-1.93
		c-1.62,1.19-3.7-0.61-2.61-2.95c1.71-3.66-0.76-3.37-2.94-3.7c-4.59-0.7-9.79-0.5-10.78-6.87c-6.23-0.9-7.63-9.59-14.71-9.12
		c-2.1,0.14-3.51-1.02-4.38-2.74c-1.31-2.57-3.31-3.59-6.1-3.24c-0.51-0.49-0.88-1.14-0.6-1.78c2.93-6.82,5.2-13.95,9.1-20.34
		c6.96,1.48,12.81,5.36,18.24,9.55c10.36,7.99,21.42,15.05,31.35,23.6C767.46,641,765.66,649.38,762.68,657.46z"/>
	<path class="st67" d="M745.46,193.52c-4.47,0.12-8.95,0.39-13.19-1.57c-0.71-0.33-1.63-0.38-2.43-0.33
		c-14.5,0.87-28.68-2.79-43.13-2.97c-7.67-0.09-15.22-3.09-23.01-1.09c2.68-6.03,6.04-11.67,9.8-17.07c1.9,1.44,3.82,2.04,6.41,2.12
		c14.35,0.42,28.74,0.71,43,2.16c10.33,1.05,20.68,1.81,31.02,2.48c3.06,0.2-0.55,3.91,2.42,3.31
		C752.72,184.88,749.09,189.2,745.46,193.52z"/>
	<path class="st68" d="M768.86,632.52c-3.78-0.71-6.34-3.37-9.26-5.56c-7.98-6.01-16.34-11.53-24.09-17.8
		c-4.87-3.94-10.97-5.6-15.66-9.67c-0.88-0.76-0.86-1.75-0.54-2.7c1.88-5.6,3.38-11.31,5.27-16.9c0.38-1.12,0.96-2.09,2.24-2.39
		c2.21-1.5,4.35-0.46,5.9,0.82c11.04,9.18,22.35,17.98,34.6,25.52c2.21,1.36,3.25,4.29,6.21,4.64
		C772.51,616.6,771.11,624.64,768.86,632.52z"/>
	<path class="st69" d="M629.64,259.4c2.01,4.61,6.65,3.57,10.03,3.94c15.96,1.75,31.94,3.52,48.06,3.31
		c3.73-0.05,7.4,0.18,10.97-1.1c0.66,2.16-0.63,3.87-1.64,5.42c-3.29,5.06-4.78,11.13-8.92,15.69c-3.88-1.45-1.35,2.14-2.34,2.99
		c-0.47,0.24-0.96,0.32-1.48,0.25c-6.57-2.99-13.63-3.54-20.65-3.87c-6.44-0.3-12.92-0.3-19.37,0.13c-0.99,0.07-2.2,0.45-2.92-0.17
		c-4.69-3.99-10.58-3.18-16.01-4.18c-1.5-0.28-2.95-0.58-3.56-2.25C623.52,272.5,626.49,265.91,629.64,259.4z"/>
	<path class="st70" d="M700.6,639.44c2.61,2.75,5.2,5.52,7.84,8.25c0.81,0.84,1.59,1.97,2.6,2.29c10.21,3.32,16.15,12.92,25.4,17.31
		c4.97,2.36,7.72,7.76,13.79,8.51c2.71,0.33,2.9,4.4,4.45,6.63c-1.87,6.41-4.44,12.53-7.86,18.27c-2.61-5.35-7.98-7.45-12.36-10.8
		c-9.33-7.13-19.21-13.49-28.52-20.67c-6.05-4.66-12.3-9.3-19.31-12.61c-0.37-0.84-0.18-1.68,0.39-2.27
		c4.44-4.57,8.21-9.68,12.23-14.61C699.54,639.36,700.1,639.34,700.6,639.44z"/>
	<path class="st71" d="M563.64,87.48c21.83-14.23,45.23-23.81,71.79-22.71c16.45,0.68,31.48,6.04,44.32,16.73
		c0.78,1.53,0.77,3.66-1.15,3.15c-4.18-1.1-7.75,1.11-11.57,1.21c-9.08,0.24-18.18,0.66-27.25-0.3c-9.76-3.78-19.72-6.71-30.29-6.97
		c-15.68-0.4-30.32,3.73-44.44,10.17C563.75,89.23,563.48,88.59,563.64,87.48z"/>
	<path class="st72" d="M621.81,279.57c3.66,1.83,7.78,0.8,11.62,1.86c2.72,0.75,6.09-0.53,7.58,3.19c0.26,0.65,1.04,0.53,1.74,0.43
		c7.57-1.1,15.18-0.24,22.77-0.47c2.61-0.08,5.31-0.46,7.57,1.5c0.43,0.38,1.45,0.65,1.86,0.4c4.98-3.03,7.43,2.03,11.03,3.36
		c-1.47,6.98-3.84,13.54-8.88,18.84c-4.24-0.05-6.56-4.88-11.25-4.22c-4.42,0.61-8.98,0.27-13.28-0.96
		c-9.87-2.82-20.04-1.48-30.05-2.37c-3.16-0.28-6.45,0.9-9.69,1.42C615.26,294.67,618.07,286.94,621.81,279.57z"/>
	<path class="st73" d="M352.61,280.2c8.03,11.11,11.63,24.4,17.89,36.4c5.98,11.46,10.9,23.47,16.19,35.28
		c0.72,1.6,2.01,2.08,3.33,2.73c1.26,1.97,0.35,3.87-0.35,5.66c-1.94,4.98-2.59,10.54-6.46,14.67c-4.09-0.1-4.91-3.53-6.14-6.3
		c-7.88-17.77-16.3-35.3-24.54-52.9c-2.39-5.11-5.02-10.13-7.55-15.19C347.08,293.6,349.36,286.72,352.61,280.2z"/>
	<path class="st74" d="M784.8,487.89c-0.04-8.99-0.09-17.97-0.12-26.96c-0.01-2.65,0.46-5.47-3.76-2.72
		c-2.61,1.7-5.2,0.58-6.82-2.03c-1.82-2.93-3.31-5.83-7.59-5.89c-2.1-0.03-3.67-1.95-4.51-4.18c-1.91-5.07-5.13-6.88-10.51-5.98
		c-1.95,0.33-3.67,0.36-4.09-2.05c-0.39-2.21-2.15-2.19-3.72-2.56c-1.08-0.96-1.41-2.27-1.42-3.61c-0.05-8.95-0.64-17.92,0.33-26.84
		c3.7-3.11,3.72-3.57,0.35-9.43c-0.16-0.28-0.29-0.58-0.44-0.89c-1.29-5.11-2.68-10.22,0.35-15.22c0.86,0.25,2.95-0.49,1.69,1.61
		c-1.33,2.22-0.91,4.55-0.75,6.78c0.12,1.6-0.77,5.92,3.42,2.39c0.39-0.33,1.63,0.04,2.31,0.41c1.06,0.57,0.23,1.4-0.01,2.11
		c-2.32,6.93,0.69,13.42,1.76,20.06c0.1,0.65,1.57,1.08,2.39,1.63c5.81,3.88,12.07,6.84,18.73,8.93c0.78,0.25,2.01,0.27,1.97,1.18
		c-0.35,8.07,5.19,4.22,8.75,4.42c0.48,0.03,0.94,0.28,1.42,0.43c1.07,18.37,1.26,36.76,1.07,55.15
		C785.58,485.77,785.85,486.99,784.8,487.89z"/>
	<path class="st75" d="M604.87,325.54c18-0.49,35.78,2.7,53.73,3.15c2.85,0.07,5.65,1.94,8.47,2.97
		c-0.47,7.21-2.85,13.66-7.65,19.15c-6.26,0.06-12.59,0.45-18.72-0.97c-13.59-3.15-27.63-2.63-41.26-5.37
		C600.37,337.91,603.31,331.93,604.87,325.54z"/>
	<path class="st76" d="M721.68,227.22c-0.8-2.11-2.2-0.75-2.48-0.04c-1.39,3.63-4.48,2.62-6.76,2.18c-2.67-0.52-5.09-2.24-8.05-1.95
		c-0.45,0.04-1.38-0.68-1.41-1.1c-0.48-5.99-5.14-3.97-7.88-3.47c-7.14,1.31-14.25,0.33-21.36,0.68c-0.78,0.04-2.09-0.11-2.29-0.56
		c-3.63-8.18-10.76-3.8-16.16-3.92c-2.48-0.05-5.46,0.62-8.26,0.59c2.89-5.69,5.79-11.38,8.68-17.07
		c5.44,3.87,11.97,3.18,18.03,3.86c17.17,1.93,34.36,3.92,51.67,4.2c2.6,0.04,5.52,0.27,6.07,3.85c-2.61,3.96-5.23,7.93-7.84,11.89
		C723.26,227.3,722.89,228.23,721.68,227.22z"/>
	<path class="st77" d="M1038.47,374.53c-7.32-0.34-14.55,1.09-21.6,2.4c-3.27,0.61-6.86,2.21-10.27,3.45
		c-1.64,0.6-1.98-0.24-2.82-0.83c-0.75-11.93-1.5-23.86-2.25-35.79c0.46-2.75,2.93-4.5,3.12-7.37c0.77,0.32,1.33,0.46,1.32,0.56
		c-0.39,7.65,0.94,8.77,8.56,7.11c0.8-0.17,1.63-0.55,2.41-0.48c6.81,0.65,13.1,0.16,16.56-7.03
		C1035.17,349.22,1036.82,361.88,1038.47,374.53z"/>
	<path class="st78" d="M686.81,656.5c2.6-1.23,4.23,0.47,6.12,1.83c11.1,8.03,22.46,15.74,33.33,24.07
		c5.93,4.55,12.12,8.63,18.42,12.57c2.4,1.51,0.98,4,2.14,5.72c-1.45,4.21-3.52,8.09-6.18,11.66c-3.97-0.15-4.61-4.26-7.22-6.1
		c-13.11-9.24-26.13-18.6-39.09-28.04c-2.94-2.14-5.8-4.41-8.64-6.64c-3.45-2.72-7.71-3.6-11.11-6.15
		C677.5,660.86,681.75,658.12,686.81,656.5z"/>
	<path class="st79" d="M709.66,743.25c-3.6,2.4-7.48,4.07-11.83,4.5c-2.95-0.46-5.1-2.64-7.17-4.28
		c-10.54-8.38-21.8-15.76-32.37-24.1c-7.81-6.17-16.34-11.37-24.32-17.34c-3.03-2.26-5.38-5.48-9.14-6.76
		c-2.42-5.19-4.25-10.51-3.74-16.37c3.56-2.38,6.89-0.79,8.56,2.01c3.01,5.04,7.03,7.47,12.48,9.62
		c7.64,3.01,14.21,8.46,20.57,13.81c1.91,1.61,3.63,3.45,6.19,4.06c1.41,0.33,2.1,1.38,2.8,2.61c3.05,5.32,7.76,8.64,12.86,12.03
		c5.84,3.88,13.01,4.81,18.33,9.28C706.25,735.14,710.04,737.98,709.66,743.25z"/>
	<path class="st80" d="M874.69,103.6c9.53-1.14,19.02-2.23,28.67-2.13c12.82,0.13,24.99,2.49,36.49,8.17
		c0.88,0.43,1.87,0.64,2.8,0.95c8.52,2.11,14.36,8.32,20.76,13.64c1.23,1.02,2.55,2.16,2.52,4.05c-0.71,1.84-2.04,2.95-3.97,3.28
		c-6.79,1.17-13.58,2.28-20.41,0.22c-19.2-17.31-41.85-24.62-67.47-23.05c-10.05,0.62-19.73,3.37-29.45,5.84
		c8.48-5.07,18.02-7.24,27.38-9.87C872.97,104.43,874.03,104.54,874.69,103.6z"/>
	<path class="st81" d="M599.44,344.48c4.27-2.17,8.41,0.35,12.63,0.38c13.2,0.08,25.97,3.94,39.12,4.72
		c2.7,0.16,5.15,0.23,6.55-2.53c1.53,0.96,0.51,2.86,1.97,3.49c1.4,2.03,0.07,3.84-0.68,5.52c-1.89,4.24-2.06,9.29-5.89,12.62
		c-3.92-0.89-7.75-2.27-11.85-2.13c-9.61,0.32-19-1.54-28.46-2.75c-3.42-0.44-7.23-1.01-10.33,0.04c-2.83,0.96-5.05-2.75-7.48-0.14
		c-0.14-0.81-0.28-1.61-0.42-2.42C595.39,355.44,597.17,349.89,599.44,344.48z"/>
	<path class="st82" d="M907.57,49.64c-2.64,2.39-8.59,2.75-11.73,0.6c-3.35-2.29-6.41-2.71-9.83,0.17c-2.07,1.75-4.87,2.73-6.35-1
		c-0.53-1.34-1.32-1.76-2.6-1.79c-8.77-0.18-17.35-2.74-26.2-2.03c-2.3,0.18-4.63-0.19-6.89,0.73c-1.21,0.49-2.81,0.74-3.79-0.34
		c-5.77-6.38-12.45-3.3-18.97-1.96c-2.94,0.61-5.84,2-7.82-2c-0.8-1.6-2.32-3.33-4.64-3.38C843.59,25.32,876.71,27.33,907.57,49.64z
		"/>
	<path class="st83" d="M741.78,479.51c3.66,1.7,7.19,3.55,8.79,7.63c0.12,0.3,0.4,0.78,0.57,0.77c5.22-0.4,6.71,5.8,11.32,6.39
		c2.49,0.32,3.06,2.13,3.72,4.08c0.44,1.31,0.64,2.68,2.62,3.18c5.52,1.41,5.67,1.42,5.89-4.47c0.04-1.18,0.04-2.36,1.57-3.07
		c2.26,2.25,4.67,4.56,8.3,4.49c0.51,10.81-0.41,21.55-1.77,32.26c-0.33-4.75-3.97-4.31-6.97-4.07c-6.87,0.55-8.78-0.61-11.3-7.08
		c-1.48-3.8-4.54-6.48-7.47-9.2c-0.84-0.78-1.7-0.5-2.74-0.27c-6.65,1.5-12.44,0.13-14.49-6.66c-3.06-4.02-0.66-8.13-0.23-12.22
		c0.52-1.74,0.95-3.5,0.64-5.34C739.8,483.57,739.69,481.27,741.78,479.51z"/>
	<path class="st84" d="M344.99,300.55c1.28,0.1,2.11,0.75,2.65,1.93c5.89,12.74,11.41,25.67,17.84,38.13
		c5.01,9.71,8.73,19.96,13.65,29.68c0.91,1.8,1.85,3.55,3.9,4.32c0.12,6.73-1.74,12.81-5.88,18.16
		c-5.63-4.42-7.68-11.13-10.36-17.22c-8.74-19.88-18.97-39.07-27.36-59.11C340.85,310.99,342.72,305.7,344.99,300.55z"/>
	<path class="st85" d="M1008.72,221.54c4.39,11.36,6.88,23.26,9.77,35.04c-0.09,0.14-0.14,0.38-0.26,0.41
		c-9.11,2.68-18.26,4.02-27.49,0.56c-2.04-10.97-4.09-21.94-6.13-32.91c2.29-4.13,6.8-4.17,10.45-4.79
		c3.76-0.64,7.84,0.45,11.81,0.18C1007.75,219.99,1008.16,220.95,1008.72,221.54z"/>
	<path class="st86" d="M330,346.58c1.42-5.07,2.63-10.2,4.79-15.03c3.07-0.23,3.81,2.36,4.74,4.3c5.76,12.14,11.26,24.41,16.9,36.61
		c5.14,11.14,10.6,22.12,15.2,33.5c0.5,1.23,1.18,2.38,1.26,3.75c-0.78,4.62-0.85,9.49-4.61,13.05c-3.41-1.01-4.85-3.89-6.13-6.75
		c-4.68-10.45-9.77-20.71-14.59-31.09c-5.3-11.41-10.53-22.87-16.18-34.12C330.69,349.43,330.39,348.01,330,346.58z"/>
	<path class="st87" d="M573.76,461.52c0.08-5.41,0.89-10.73,2.09-16c1.54-1.49,3.46-2.13,5.48-1.81c9.49,1.48,19.01,1.11,28.53,0.53
		c0.66-0.04,1.5-0.24,1.96,0.11c4.73,3.56,10.12,3.77,15.69,3.32c0.61-0.05,1.18,0.55,1.64,1.05c0.99,5.59-2.35,17.54-5.57,19.98
		c-2.62-1.75-5.57-1.73-8.57-1.77c-5.11-0.07-10.23,0.43-15.32-0.38c-0.56-0.14-1.08-0.35-1.59-0.62c-2.05-1.46-4.42-1.13-6.66-1
		c-4.62,0.26-9.13-0.58-13.68-1.09C576.1,463.65,574.49,463.32,573.76,461.52z"/>
	<path class="st88" d="M371.81,409.65c-6.76-16.48-14.42-32.54-22.2-48.56c-3.77-7.75-7.2-15.67-10.69-23.55
		c-1.01-2.29-2-4.52-4.14-5.99c0.85-5.25,2.65-10.21,4.64-15.11c1.64,0.04,2.14,1.14,2.62,2.51c3.93,11.11,9.51,21.5,14.69,32.01
		c6.72,13.62,11.75,28.08,19.99,40.96c0.17,0.26,0.14,0.64,0.21,0.97C377.73,399.24,376.16,404.87,371.81,409.65z"/>
	<path class="st89" d="M581.21,415.39c11.89-0.55,23.73,0.17,35.57,1.14c4.12,0.33,8.18,1.5,12.35,0.98
		c1.68-0.21,3.48,1.78,5.18-0.95c0.72-1.16,2.32,0.81,2.62,2.38c0.61,6.05-0.01,11.76-4.57,16.37c-5.76,1.21-11.58,1.03-17.31,0.07
		c-9.97-1.67-20.21-0.96-30.08-3.48c-2.21-0.56-4.71-0.22-6.29-2.39C578.68,424.65,580.1,420.05,581.21,415.39z"/>
	<path class="st90" d="M621.72,678.46c0.53,5.85,2.27,11.42,4,16.99c2.74,3.08,2.8,7.18,4.18,10.78c0.95,3.33,1.9,6.65,2.86,9.97
		c0.42,1.47,1.71,3.49-1.07,4.3c-11.52-12.23-20.29-26.35-27.85-41.23c-3.77-7.42-7.94-14.69-10.27-22.77
		c1.37-1.52,3.26-1.65,5.02-1.45c6.03,0.68,12.11,0.62,18.12,1.41c1.17,0.71,0.95,1.92,1.06,3c2.57,2.73,2.35,6.38,3.18,9.68
		C621.17,672.26,622.9,675.24,621.72,678.46z"/>
	<path class="st91" d="M573.76,461.52c6.6,1.75,13.32,2.07,20.11,2.05c1.75-0.01,4.22-1.1,4.78,2.02c-1.31,0.77-2.39,0.95-2.52,0.94
		c0.3,0.01,1.56-0.12,2.52-0.94c7.02-0.07,13.97-0.03,20.92-0.1c2.37-0.02,4.41,0.09,4.24,3.24c1.27,6.58,0.04,12.59-4.03,17.97
		c-1.82-2.15-3.77-3-6.87-2.35c-5.01,1.06-10.07,0.55-15.2-0.56c-6.07-1.32-12.43-0.88-18.61-1.86c-2.61-0.42-5.31-0.28-7.32-2.43
		C571.68,473.43,572.37,467.43,573.76,461.52z"/>
	<path class="st92" d="M570.64,555.66c-1.72-7.95-0.8-16.03-1.08-24.05c3.81-0.86,7.7-0.05,11.19,0.87
		c8.46,2.21,17.1,1.54,25.62,2.47c2.81,0.31,4.83,0.85,5.49,3.83c-0.09,6.76,0.62,13.63-2.72,19.95c-3.61,1.14-7.47,0.74-10.82-0.14
		c-6.91-1.8-13.84-1.55-20.8-1.76C575.17,556.77,572.94,556,570.64,555.66z"/>
	<path class="st93" d="M941.56,131.78c1.13-1.76,2.52-0.56,3.91-0.46c7.02,0.49,14.07,0.94,20.16-3.68c2.89-0.55,3.97,1.9,5.47,3.46
		c2.46,2.55,4.13,5.78,6.71,8.26c4.14,7.83,7.49,16,10.72,24.23c-0.99,0.95-2.12,0.86-3.2,0.29c-3.53-1.84-7.11-1.27-10.56-0.01
		c-4.61,1.67-8.39,1.25-11.06-3.28C957.92,149.76,950.54,140.16,941.56,131.78z"/>
	<path class="st94" d="M990.73,257.56c9.29,0.78,18.53,0.26,27.75-0.97c2.21,9.95,5.03,19.78,6.12,29.97
		c-9.57-2.45-19.02-0.26-28.48,0.87c-0.23,0.03-0.36,0.84-0.53,1.28C993.37,278.41,992.14,267.97,990.73,257.56z"/>
	<path class="st95" d="M569.78,514.49c-0.31-5.36-0.3-10.71,0.29-16.06c1.94-3.63,5.49-3.36,8.73-3.3
		c3.97,0.08,7.91,0.86,11.85,1.35c6.58,0.82,13.14,1.76,19.81,1.57c2.42-0.07,5.07-0.39,6.86,1.98c1.26,6.39-0.13,12.34-2.98,18.05
		c-4.21,2.8-8.9,2.58-13.39,1.38c-8.37-2.24-16.86-3.2-25.46-3.6C573.51,515.77,571.53,515.59,569.78,514.49z"/>
	<path class="st96" d="M621.72,678.46c-0.66-3-1.32-6-1.98-9c2.81-2.08,5.08-0.39,7.18,1.21c19.17,14.51,38.74,28.46,58.16,42.62
		c8.97,6.54,17.99,12.98,26.59,20c1.24,1.01,2.73,1.07,4.16,1.47c1.47,0.41,3.53,0.47,2.99,2.99c-2.68,2.47-5.44,4.79-9.17,5.48
		c-0.57-1.37-2.63-2-2.37-3.63c0.5-3.09,0.12-4.29-2.86-1.93c-0.86,0.68-1.67,0.35-2.1-0.41c-1.12-2,1.73-1.5,1.9-3.1
		c-2.76-1.05-5.59-2.26-7.8-4.46c-1.03-1.03-2.19-1.53-3.59-0.83c-1.03,0.51-2.08,0.36-2.8-0.33c-5.74-5.5-13.9-7.89-18.62-14.78
		c-3.17-4.63-16.63-14.47-22.63-16.98c-1.69-0.71-0.96-3.01-3.39-3.57c-3.04-0.69-5.58-3.04-9.1-3.16c-2.99-0.1-4.64-3.12-5.48-5.29
		C629.09,680.3,625.77,679.09,621.72,678.46z"/>
	<path class="st97" d="M569.78,514.49c10.45-0.06,20.78,0.49,30.91,3.69c4.26,1.34,8.92,0.86,13.31-0.6
		c0.94,7.36,0.68,14.53-3.16,21.18c-0.69-1-0.69-2.83-2.53-2.52c-6.3,1.06-12.44-0.85-18.71-0.95c-6.75-0.11-13.5-1.66-20.04-3.67
		c0,0,0.06,0.02,0.06,0.02c-0.58-4.44-0.66-8.88,0.04-13.32C569.7,517.04,569.74,515.77,569.78,514.49z"/>
	<path class="st98" d="M616.88,500.84c-1.26-1.92-3.25-1.36-4.97-1.3c-10.24,0.34-20.27-1.35-30.33-2.86
		c-3.97-0.59-7.9-0.29-11.51,1.76c0.74-6.29,0.04-12.72,1.72-18.93c7.63,0.65,15.12,2.23,22.88,2.23c4.77,0,9.52,2.42,14.56,1.77
		c1.46-0.19,3.17,0.08,4.36-0.58c4.47-2.48,6.03-0.65,6.19,3.74C621.25,491.89,620.43,496.64,616.88,500.84z"/>
	<path class="st1" d="M738.6,862.49c-0.03,8.19-7.87,16-15.97,15.93c-8.16-0.08-15.83-7.86-15.8-16.03c0.03-8.7,7.51-16.09,16.22-16
		C731.46,846.46,738.64,853.9,738.6,862.49z"/>
	<path class="st99" d="M330,346.58c4.59,5.79,7.19,12.75,10.16,19.31c5.11,11.32,10.56,22.48,15.8,33.74
		c3.68,7.89,6.37,16.36,12,23.27c1.23,5.55-0.76,10.31-3.62,14.86c-3.58-0.61-4.85-3.59-5.46-6.39c-1.41-6.45-4.92-11.94-7.6-17.77
		c-7.22-15.68-14.88-31.15-21.87-46.94c-0.95-2.14-2.54-3.9-3.4-6.08C327.33,355.91,328.66,351.24,330,346.58z"/>
	<path class="st100" d="M963.73,160.58c4.04,3.62,8.11,3.38,13,1.21c3.81-1.69,8.04-0.01,11.82,1.79
		c4.31,9.77,8.67,19.52,11.14,29.97c-2.13,3.63-5.95,2.24-8.97,2.69c-4.61,0.69-9.44,1.74-13.98-0.69
		C972.41,183.9,968.07,172.24,963.73,160.58z"/>
	<path class="st101" d="M304.01,459.55c0.82-5.03,0.99-10.18,2.87-15c4.44,4.08,6.71,9.61,9.01,14.86
		c4.4,10.01,9.81,19.52,13.99,29.61c4.81,11.6,10.66,22.72,16.1,34.03c-0.57,5.63-0.55,11.38-3.4,16.54
		c-3.08-1.3-3.62-4.53-4.78-7.01c-8.73-18.81-17.97-37.39-26.36-56.35C308.99,470.65,306.72,465,304.01,459.55z"/>
	<path class="st102" d="M578.67,429.5c17.91,2.7,35.85,5.13,54.02,5.01c1.09,5.32-0.07,10.03-3.81,14.04
		c-2.16,0.1-4.3,0.28-6.45,0.62c-2.7,0.41-6.7,2.36-8.17-2.69c-0.47-1.61-2.74-1.2-4.04-0.9c-5.1,1.2-10.11,0.96-15.19-0.01
		c-1.38-0.26-2.94,0.2-4.39,0.49c-2.63,0.52-5.22,1.06-7.62-0.72c-2.42-1.8-4.76,0.9-7.16,0.16
		C576.45,440.12,577.05,434.72,578.67,429.5z"/>
	<path class="st103" d="M326,360.57c5.64,3.27,5.97,9.69,8.46,14.73c7.23,14.64,13.43,29.81,21.12,44.19
		c3.17,5.93,3.01,13.24,8.22,18.11c2,4.35-0.19,7.83-2.37,11.3c-2.59,0.88-3.66-0.86-4.51-2.74c-7.59-16.98-16.11-33.53-23.38-50.66
		c-2.72-6.41-5.43-12.85-9.17-18.77c-0.82-1.3-1.28-2.68-1.48-4.17C323.93,368.56,324.96,364.57,326,360.57z"/>
	<path class="st96" d="M718.84,737.77c-0.31-0.38-0.63-1.09-0.94-1.09c-5.34,0.03-8.03-4.26-11.83-6.88
		c-10.87-7.5-21.36-15.49-31.98-23.31c-8.9-6.55-18.17-12.6-27.19-18.98c-2.69-1.9-5.38-3.93-7.6-6.34
		c-3.88-4.23-9.63-5.76-13.53-9.94c-1.52-1.64-3.79-1.96-6.04-1.76c-0.66-3.33-1.32-6.66-1.97-9.99c1.93,0.49,3.63,0.77,5.02,2.86
		c2.17,3.25,5.32,5.68,9.81,4.8c0.41-0.08,1.27,0.17,1.28,0.3c0.37,7.27,7.44,7.95,11.62,10.9c6.04,4.25,10.55,10.42,17.81,13.31
		c2.67,1.06,5.14,4.18,7.57,6.5c2.99,2.86,5.48,5.79,10.36,6.45c3.94,0.53,7.11,4.46,10.64,6.82c9.32,6.24,16.83,15.04,27.47,19.49
		c1.82,0.76,2.54,2.55,2.35,4.59C721.09,736.67,720.11,737.4,718.84,737.77z"/>
	<path class="st104" d="M462.83,727.48c-1.68,3.19-4.05,5.79-6.85,8.04c-2.43,2.35-3.61,0.18-4.47-1.5
		c-8.01-15.64-18.44-29.85-26.71-45.35c-4.19-7.86-9.73-14.98-13.65-23.04c1.78-4.14,4.18-7.71,8.7-9.29
		c3.53,8.9,8.14,17.22,13.23,25.34c8.6,13.73,17.01,27.59,24.92,41.73C459.16,725.47,461.1,726.28,462.83,727.48z"/>
	<path class="st105" d="M344.79,522.57c-7.4-12.44-12.65-25.9-18.71-38.98c-2.91-6.28-6.62-12.37-9.2-18.69
		c-2.89-7.08-7.51-13.18-10.01-20.35c0.07-4.14,1.03-8.12,2.15-12.07c2.14-2.35,2.63,0.09,3.31,1.25
		c4.48,7.62,7.76,15.83,11.59,23.78c7.87,16.34,15.48,32.8,22.92,49.35c0.78,1.72,1.23,3.43,1.27,5.28
		C347.27,515.69,348.86,520.04,344.79,522.57z"/>
	<path class="st106" d="M322.89,372.55c6.59,8.27,9.71,18.33,14.17,27.69c6.53,13.7,12.71,27.57,19.31,41.23
		c1.19,2.46,0.67,6.27,4.54,7.08c0.9,4.68,0.22,9.04-2.62,12.96c-4.21-0.53-5.14-4.4-6.43-7.22c-9.09-19.94-18.77-39.6-27.45-59.72
		c-1.23-2.84-3.23-4.99-5.41-7.05C320.13,382.5,320.92,377.37,322.89,372.55z"/>
	<path class="st107" d="M570.64,555.66c0.56-1.02,1.4-2.5,2.52-1.54c2.66,2.31,5.7,1.41,8.5,1.28c9.25-0.42,18.09,2.35,27.18,3.08
		c2.47,6.07,1.88,12.04-0.59,17.94c-3.11,2.35-6.69,1.68-10.05,1.19c-7.84-1.15-15.85-0.94-23.6-2.86
		c-0.99-0.25-1.38,0.74-2.06,1.13C571.19,569.21,570.51,562.48,570.64,555.66z"/>
	<path class="st108" d="M449.69,742.31c-2,1.7-4,3.4-6.01,5.1c-3.5-0.63-4.22-3.95-5.66-6.31c-7.62-12.45-15.13-24.98-22.39-37.66
		c-4.03-7.04-9-13.54-12.44-20.96c-1.35-2.9-2.61-5.74-2.29-9.03c0.74-2.22,2.34-3.3,4.62-3.47c2.3,0.39,4.01,1.76,5.02,3.72
		c5.69,11.05,12.39,21.51,18.87,32.08c4.92,8.03,9.38,16.36,14.83,24.08C446.89,733.6,449.6,737.4,449.69,742.31z"/>
	<path class="st109" d="M584.63,631.65c-2.82-7.06-4.91-14.33-6.06-21.86c-0.45-2.13,1.05-2.69,2.57-2.76
		c8.64-0.38,17.23,0.15,25.76,1.55c0.82,0.14,1.48,0.72,2.05,1.33c2.83,8.64,3.36,17.67,4.4,26.61c-0.24,0.63-0.6,1.37-1.36,1.15
		c-5.33-1.54-11.33-0.82-15.93-4.81c-1.38-1.2-3.12-1.23-4.74-0.63C588.97,633.11,586.79,632.75,584.63,631.65z"/>
	<path class="st110" d="M435.83,752.67c-2.05,1.84-4.43,3.05-7.09,3.72c-11.43-20.68-24.22-40.56-36.22-60.9
		c-2.6-4.4-5.02-8.94-8.02-13.11c1.71-3.24,4.92-3.66,8.03-4.28c1.79,0.65,3.02,1.87,4.01,3.51c10.17,16.92,19.89,34.1,30.55,50.71
		c3.05,4.75,5.43,9.89,8.69,14.5C437.14,748.75,437.68,750.7,435.83,752.67z"/>
	<path class="st111" d="M487.53,683.43c-0.12,2.69-1.61,4.82-2.9,7.03c-4.47,0.01-6.32-3.66-8.07-6.58
		c-7.56-12.66-15.23-25.26-22.84-37.89c-3.93-6.52-7.37-13.34-12.24-19.26c-0.77-0.93-0.87-2.13-0.82-3.33
		c0.85-3.18,1.48-6.49,4.79-8.24c2.75,0.77,4.72,2.84,5.9,5.07c2.63,4.98,6.19,9.34,8.63,14.49c3.67,7.76,8.78,14.78,13.32,22.08
		C478.62,665.37,484.38,673.7,487.53,683.43z"/>
	<path class="st112" d="M314,408.49c0.93-3.99,1.09-8.16,2.9-11.94c3.03-0.22,3.75,2.28,4.86,4.22c4.46,7.79,7.73,16.16,11.51,24.27
		c5.54,11.89,11.15,23.74,16.85,35.55c2.09,4.33,3.44,8.98,5.52,13.33c-0.07,4.49-0.11,8.99-3.14,12.74c-2.76-0.56-3.3-3.13-4.2-5.1
		c-9.01-19.83-18.24-39.55-27.56-59.23C318.55,417.71,316.77,412.85,314,408.49z"/>
	<path class="st113" d="M384.6,682.4c1.7,0.07,2.57,1.1,3.39,2.51c9.51,16.33,19.1,32.61,29.05,48.69
		c3.29,5.31,6.53,10.63,10.09,15.76c1.44,2.08,1.28,4.63,1.62,7.02c-2.04,1.66-4.54,2.2-6.99,2.85
		c-6.75-11.21-13.4-22.48-20.15-33.69c-5.9-9.8-11.56-19.74-17.89-29.28c-2.63-3.96-4.67-8.32-7.15-12.42
		C378.93,681.66,381.58,681.01,384.6,682.4z"/>
	<path class="st114" d="M976.74,195.56c7.7-0.03,15.43,0.19,22.95-2.01c4.36,8.9,6.83,18.4,9.02,27.99
		c-8.2-0.24-16.56-1.7-24.12,3.11C981.98,214.95,979.36,205.26,976.74,195.56z"/>
	<path class="st115" d="M346.79,511.57c-0.86-5.27-3.79-9.75-5.9-14.49c-7.3-16.36-15.09-32.51-22.72-48.73
		c-2.4-5.09-4.95-10.11-7.3-15.22c-0.52-1.13-1.01-1.03-1.84-0.65c0.83-4.01,1.66-8.02,2.49-12.03c3.08-2.51,3.66,0.45,4.41,2.21
		c4.19,9.93,9.43,19.36,13.78,29.2c6.84,15.46,14.54,30.52,20.9,46.2c0.2,3.52-0.62,6.91-1.39,10.29
		C348.92,509.71,348.87,511.47,346.79,511.57z"/>
	<path class="st116" d="M376.62,684.41c1.71,0.05,2.54,1.12,3.38,2.5c11.4,18.97,23.11,37.77,34.15,56.95
		c2.81,4.89,6.99,9.32,7.6,15.38c-2.88,1.11-5.88,1.74-8.95,1.99c-4.15-11.31-11.03-21.13-17.31-31.25
		c-8.58-13.81-16.94-27.73-25-41.85c-0.76-1.34-2.04-2.88-0.08-4.38C372.58,683.04,374.71,682.73,376.62,684.41z"/>
	<path class="st117" d="M628.72,706.46c-1-3.67-2-7.34-3-11c1.13-0.61,2.21-0.61,3.22,0.25c17.44,14.89,36.87,27.09,55,41.04
		c4.66,3.59,10.11,6.27,13.89,11c-5.75,1.25-11.49,2.74-17.39,0.82c0.98-1.43,2.5-0.54,3.75-0.81c-2.4,0.03-4.2-1.3-5.63-2.87
		c-4.75-5.22-10.64-8.93-16.4-12.85c-9.73-6.62-18.51-14.57-28.68-20.59C631.41,710.22,630.04,708.38,628.72,706.46z"/>
	<path class="st118" d="M462.83,727.48c-3.11,1.24-4.79-0.94-5.81-3.04c-6.16-12.59-14.17-24.1-21.18-36.18
		c-3.97-6.84-8.02-13.76-12.61-20.3c-2.28-3.26-3.23-7.31-3.46-11.39c-0.27-3.01,1.3-4.62,4.07-5.3c1.84,1.31,2.76,3.28,3.64,5.25
		c0.54,1.21,0.77,2.62,1.56,3.66c7.64,10.05,12.76,21.65,19.83,32.09c4.41,6.5,8.65,13.3,12.16,20.41c1.67,3.4,5.61,5.44,5.62,9.74
		C465.64,724.31,464.71,726.25,462.83,727.48z"/>
	<path class="st119" d="M628.72,706.46c18.97,13.44,38.18,26.53,55.98,41.64c-1.04,1.03-2.79-0.01-4.26,0.46
		c-12.94-0.43-23.64-6.43-33.68-13.82c-5.58-4.11-10.7-8.79-15.06-14.23C632.66,715.42,629.05,711.29,628.72,706.46z"/>
	<path class="st120" d="M435.83,752.67c0.32-1.81,0.14-3.33-0.93-5.07c-12.78-20.81-25.43-41.7-38.08-62.59
		c-1.28-2.12-1.93-4.65-4.06-6.21c2.01-3.43,4.96-5.29,8.98-5.35c1.26,8.94,6.41,16.11,11.06,23.4
		c5.86,9.18,11.05,18.74,16.71,28.04c4.61,7.58,9.44,15.03,14.16,22.53C441.3,749.52,438.86,751.53,435.83,752.67z"/>
	<path class="st121" d="M354.78,473.51c-3.84-8.01-7.68-16.03-11.52-24.04c-5.21-10.88-10.78-21.61-15.47-32.71
		c-2.24-5.31-4.86-10.41-7.22-15.65c-0.82-1.83-1.76-3.6-3.67-4.57c0.1-3.15,1.21-6.06,2.09-9.02c2.58-0.2,4,1.3,4.96,3.42
		c5.58,12.24,11.1,24.51,16.75,36.72c3.4,7.35,7.15,14.54,10.45,21.94c1.86,4.18,4.02,8.13,6.55,11.91
		C359.07,466.08,358.45,470.17,354.78,473.51z"/>
	<path class="st122" d="M349.65,497.5c-4.22-8.89-8.4-17.81-12.68-26.67c-6.22-12.89-11.62-26.16-18.37-38.8
		c-1.62-3.04-2.69-6.38-3.96-9.6c-0.58-1.45-1.1-2.87-3.12-1.98c0.83-3.98,1.65-7.97,2.48-11.95c1.17-0.7,1.71-0.17,2.21,0.93
		c4.93,10.87,9.4,21.98,14.99,32.5c5.43,10.21,9.01,21.24,14.79,31.28c2.44,4.23,3.94,9,5.87,13.52
		C353.62,490.83,353.09,494.46,349.65,497.5z"/>
	<path class="st123" d="M608.6,610.48c-7.89-1.85-15.93-2.24-23.98-1.9c-1.98,0.08-4.67-2.15-6.05,1.21
		c-2.17-6.51-3.44-13.19-4-20.02c0.01-2.88,2.43-2.34,3.87-2.3c8.04,0.22,16.05,0.88,24.11,0.08c2.27-0.22,4.51,0.89,5.86,3.08
		c1.32,5.18,0.92,10.55,1.64,15.8C610.26,607.89,609.92,609.43,608.6,610.48z"/>
	<path class="st124" d="M516.6,399.53c1.69,6.23,0.74,12.71,1.82,18.99c-2.35,1.15-2.7-0.84-3.58-2.19
		c-11.2-17.25-20.99-35.35-31.95-52.75c-2.29-3.64-3.61-7.85-6.39-11.23c-1.83-4.29-1-8.82-1.18-13.26
		c2.07-2.33,3.57-0.43,4.83,0.88c2.3,2.38,4.15,5.15,5.8,8.04c8.36,14.64,16.54,29.38,26.25,43.2
		C514.02,393.79,514.54,397.07,516.6,399.53z"/>
	<path class="st125" d="M584.63,631.65c4.83,0.78,10.23-4.02,14.72,2.21c1.46,2.02,5.84,0.42,8.88,1.62
		c1.48,0.58,2.93,1.18,4.3,1.99c3.51,5.05,5.1,10.59,4.33,16.74c-0.05,0.75-0.1,1.51-0.15,2.26c-3.69,2.02-7.75,1.29-11.44,0.72
		c-3.93-0.61-7.79-0.61-11.69-0.68C589.83,648.5,586.66,640.28,584.63,631.65z"/>
	<path class="st126" d="M477.74,352.54c5.91,9.57,11.84,19.11,17.27,28.98c5.04,9.15,11.02,17.77,16.39,26.75
		c1.68,2.81,4.2,5.19,4.72,8.68c0.16,1.07,1.25,1.45,2.31,1.57c0.1,5,0.21,10,0.32,15c-4.51-2.01-5.12-6.93-7.46-10.46
		c-6.24-9.44-11.81-19.32-17.59-29.06c-3.97-6.67-7.86-13.39-11.77-20.1c-0.91-1.55-1.25-3.49-3.1-4.37
		C475.35,364.06,475.23,358.38,477.74,352.54z"/>
	<path class="st127" d="M369.76,684.61c11.01,18.52,21.63,37.27,33.56,55.25c3.72,5.6,6.57,11.77,9.89,17.65
		c0.81,1.43,0.25,2.53-0.41,3.71c-1.68,0.05-3.36,0.11-5.04,0.16c-3.53-3.14-5.91-7.08-8.26-11.12c-7.55-13-15.34-25.85-23.11-38.72
		c-5.14-8.51-11.09-16.53-15.67-25.38c-0.53-1.02-2.17-2.02-0.32-3.31C363.68,682.6,366.95,682.4,369.76,684.61z"/>
	<path class="st128" d="M449.69,742.31c-5.77-11.29-12.91-21.75-19.61-32.48c-6.82-10.92-13.02-22.22-19.28-33.48
		c-1.34-2.41-3.09-4.24-5.07-5.98c0.37-3.59,2.61-5,5.95-5.12c6.31,10.38,12.6,20.78,18.93,31.15c6.07,9.93,12.22,19.82,18.26,29.77
		c1.19,1.97,1.85,4.25,3.03,6.22c0.9,1.49,1.18,4.13,4.08,3.13C454.59,738.44,452.1,740.34,449.69,742.31z"/>
	<path class="st129" d="M441.71,623.38c0.61,4.63,4.65,7.2,6.72,11.03c5.7,10.58,12.3,20.66,18.27,31.1
		c3.69,6.46,9.09,11.92,11.29,19.24c4.05-0.23,3.04,5.42,6.65,5.71c-0.88,3.69-2.65,6.96-4.78,10.06c-3.47-0.51-3.67-3.96-4.99-6.1
		c-12.48-20.12-24.22-40.7-36.76-60.79c-0.44-0.71-0.79-1.46-1-2.27C437.5,628.04,437.94,624.75,441.71,623.38z"/>
	<path class="st130" d="M304.01,459.55c5,4.26,6,10.7,8.61,16.22c8.96,18.92,17.54,38.03,26.46,56.97c1.1,2.34,3.16,4.23,2.87,7.12
		c1.52,2.85,1.91,5.53-1.22,7.64c-0.46-0.16-1.25-0.21-1.34-0.5c-2.57-7.54-7.62-13.8-10.6-21.21
		c-4.79-11.9-10.73-23.34-16.17-34.98c-2.29-4.91-4.61-9.82-6.76-14.79c-0.84-1.95-2.24-3.24-3.84-4.45
		C302.68,467.55,303.34,463.55,304.01,459.55z"/>
	<path class="st131" d="M474.72,709.45c-0.14,2.48-2,4.06-3.17,6c-3.31,1.87-4.5-0.9-5.78-2.85c-4.26-6.54-8.24-13.25-12.1-20.03
		c-7.08-12.4-14.79-24.41-22.31-36.54c-2.08-3.36-3.26-6.81-3.68-10.63c0.5-2.33,1.27-4.45,3.88-5.22
		c8.94,9.51,14,21.54,20.93,32.36c6.7,10.47,11.83,21.94,19.96,31.5C473.8,705.64,474.34,707.49,474.72,709.45z"/>
	<path class="st132" d="M428.69,645.32c0.28,4.92,3.05,8.79,5.45,12.79c10.55,17.55,21.11,35.1,31.8,52.56
		c1.27,2.07,2.04,5.21,5.62,4.78c-1.39,2.49-2.8,4.97-4.89,6.97c-6.44-8.64-12.05-17.75-17.1-27.31
		c-3.34-6.32-8.65-11.65-11.7-18.18c-4.1-8.77-11.11-15.87-14.06-25.24C423.64,648.19,425.43,646.19,428.69,645.32z"/>
	<path class="st133" d="M359.76,683.59c2.52,1.13,3.01,3.79,4.31,5.81c5.71,8.84,11.8,17.49,16.84,26.7
		c3.7,6.75,7.34,13.78,11.67,19.86c5.22,7.33,7.2,16.7,14.49,22.62c0.59,0.48,0.46,1.85,0.67,2.8c-2.35,0.61-4.68,0.18-7.02-0.07
		c-5.13-9.17-9.79-18.64-15.51-27.42c-6.5-9.96-12.65-20.13-18.69-30.35c-4.76-8.06-9.62-16-15.75-23.11
		C354.49,679.44,357.5,680.44,359.76,683.59z"/>
	<path class="st134" d="M487.53,683.43c-1.63-0.85-2.11-2.52-2.79-4c-3.97-8.71-9.5-16.5-14.25-24.74
		c-4.5-7.82-9.92-15.06-13.72-23.41c-2.63-5.78-6.46-11.4-11.16-16.08c-0.88-3.02,0.03-5.35,2.71-6.99
		c5.42,1.61,7.14,6.75,9.71,10.79c6.82,10.77,13.05,21.9,19.53,32.88c3.07,5.21,5.7,10.92,10.09,15.27c2.73,2.7,1.27,6.41,2.88,9.29
		C490.59,679.22,488.18,680.94,487.53,683.43z"/>
	<path class="st135" d="M490.55,676.44c-0.49-0.44-1.31-0.81-1.41-1.33c-1.97-9.79-9.54-16.4-14.05-24.75
		c-4.61-8.52-9.25-17.05-14.73-25.11c-2.67-3.93-5.22-8.03-7.58-12.16c-1.15-2.02-3.56-2.64-4.16-4.89
		c-1.08-4.43,0.86-7.84,3.68-10.96c3.46,2.44,4.04,6.67,5.96,10.03c7.07,12.35,15.08,24.13,22.01,36.56
		c3.78,6.77,7.9,13.37,12.06,19.92c0.96,1.52,0.04,3.33,1.19,4.68C492.54,671.1,491.54,673.77,490.55,676.44z"/>
	<path class="st136" d="M462.73,563.49c1.26,0.04,2.24,0.56,2.83,1.69c10.26,19.4,22.85,37.43,33.35,56.68
		c1.41,2.59,2.83,5.18,5.61,6.61c-0.66,2.68-1.32,5.36-1.99,8.05c-0.93,3.32-2.38,2.11-3.38,0.2c-4.86-9.29-10.62-18.04-16.18-26.9
		c-7.31-11.66-13.02-24.32-21.92-34.99c-0.87-1.05-1.35-2.28-1.48-3.65C459.71,568.23,459.68,565.23,462.73,563.49z"/>
	<path class="st137" d="M474.72,709.45c-14.91-18.85-24.99-40.73-37.91-60.83c-1.68-2.61-3.84-5.09-5.03-8.07
		c-0.5-3.26,0.88-5.32,4-6.26c12.77,17.59,22.49,37.07,34.24,55.3c3.01,4.67,6.81,9.07,7.76,14.88
		C476.75,706.13,475.73,707.79,474.72,709.45z"/>
	<path class="st138" d="M607.63,590.48c-3.48-2.16-7.12-1.35-10.94-1.16c-6.83,0.33-13.7-0.28-20.56-0.52
		c-0.78-0.03-1.2,0.39-1.56,0.97c-1.47-4.51-1.88-9.18-2.05-13.89c0.13-1.13,0.25-2.27,0.28-2.51c11.75,1.24,23.28,3.21,35.04,3.11
		C609.94,581.19,610.21,585.86,607.63,590.48z"/>
	<path class="st139" d="M460.65,571.27c4.17,6.12,8.33,12.22,12.09,18.61c8.3,14.14,16.5,28.35,25.58,42.03
		c0.99,1.49,1.36,3.38,2.19,5c0.98,1.93,1.34-0.3,2.03-0.4c-0.13,3.53-1.46,6.76-2.47,10.08c-2.61,1.25-3.11-0.88-3.88-2.47
		c-5.46-11.19-12.45-21.5-18.74-32.21c-6.21-10.57-12.44-21.13-19.19-31.38c-0.46-0.7-0.57-1.55-0.63-2.39
		C458.08,575.61,457.5,572.62,460.65,571.27z"/>
	<path class="st140" d="M493.53,668.44c-5.96-10.05-11.89-20.11-17.88-30.14c-6.45-10.81-12.81-21.66-19.51-32.31
		c-1.74-2.77-2.5-5.7-3.47-8.66c-1.41-2.53-0.59-4.47,1.58-6.06c2.57,1.68,4.17,4.16,5.61,6.79c6.69,12.26,14.26,23.98,21.49,35.92
		c3.7,6.11,7.07,12.41,10.88,18.46c1.28,2.03,2.57,3.81,4.59,5.05C496.63,661.41,494.53,664.76,493.53,668.44z"/>
	<path class="st141" d="M505.75,322.51c1.71,5.49,2.7,11.12,3.04,16.86c0.35,0.6,0.63,1.3,0.1,1.84c-0.86,0.88-1.52,0.09-1.97-0.54
		c-1.55-2.17-2.42-4.82-3.92-6.91c-10.15-14.06-17.68-29.7-27.1-44.17c-3.08-4.73-5.26-10.02-9.1-14.27
		c-1.81-5.23-3.45-10.49-2.79-16.14c1.31-1.77,2.48-1.33,3.39,0.34c10.32,18.83,22.35,36.66,32.76,55.45
		C501.68,317.71,503.54,320.26,505.75,322.51z"/>
	<path class="st142" d="M516.6,399.53c-1.28-0.06-2.14-0.72-2.78-1.81c-7.54-12.78-14.8-25.74-22.8-38.23
		c-3.63-5.67-5.9-12.13-10.41-17.24c-1.31-1.48-2.3-3.3-4.49-3.7c-2.97-3.31-1.83-7.4-2.11-11.22c3.74-3.62,5.25,0.22,6.71,2.35
		c4.68,6.86,9.38,13.69,13.36,21.03c5.04,9.27,10.19,18.51,16.57,27c2.81,3.73,4.43,8.11,4.99,12.82
		C516.98,393.41,516.77,396.47,516.6,399.53z"/>
	<path class="st143" d="M512.6,363.53c1.92,4.82,0.51,10.09,1.98,14.97c-2.64,0.3-3.24-1.81-4.15-3.53
		c-6.66-12.62-14.87-24.3-22.04-36.61c-3.09-5.3-5.46-11-9.23-15.92c-2.27-2.97-4.98-5.66-6.38-9.24
		c-1.57-4.22-2.46-8.54-1.72-13.06c3.82-1.99,5.15,1.46,6.2,3.52c4.68,9.2,10.68,17.57,15.89,26.43c5.62,9.57,11,19.28,17.15,28.53
		C511.33,360.17,511.47,362.07,512.6,363.53z"/>
	<path class="st144" d="M458.67,578.32c4.83,7.96,9.69,15.89,14.47,23.87c4.6,7.68,9.12,15.42,13.69,23.12
		c4,6.75,8.81,13.04,11.5,20.53c0.14,0.4,1.14,0.5,1.74,0.74c-0.51,1.95-1.02,3.89-1.54,5.84c-3.63-0.33-5.38-3.23-6.89-5.79
		c-11.45-19.37-22.97-38.7-34.73-57.88c-0.7-1.15-1.24-2.34-1.34-3.7C455.86,582.47,455.32,579.49,458.67,578.32z"/>
	<path class="st145" d="M505.75,322.51c-4.2-0.31-5.17-4.25-6.68-6.84c-9.41-16.16-18.7-32.37-28.84-48.1
		c-1.41-2.18-4.3-4.05-3.69-7.52c0.21-1.17-1.17-1.38-2.23-1.35c-3.21-3.37-3.78-7.44-3.13-11.83c3.47-2.6,4.71,0.44,5.97,2.59
		c7.79,13.31,16.07,26.31,23.84,39.63c4.32,7.41,8.02,15.18,12.62,22.44C504.86,315.08,505.66,318.73,505.75,322.51z"/>
	<path class="st146" d="M452.4,218.43c0.53-0.94,1.05-1.88,1.58-2.82c2.57-0.14,3.28,2.02,4.2,3.65
		c8.96,15.87,19.11,31.02,28.36,46.71c3.44,5.83,6.64,11.79,10.21,17.55c2.32,4.38,2.7,9.3,3.85,14.01
		c-3.53,0.64-5.08-1.06-6.69-4.21c-5.59-10.93-12.57-21.09-18.58-31.79c-4.92-8.76-11.11-16.78-15.04-26.11
		c-1.02-2.43-3.04-4.34-4.7-6.42C453.88,225.67,452.19,222.34,452.4,218.43z"/>
	<path class="st147" d="M456.63,585.24c3.96,6.81,7.67,13.77,11.95,20.37c3.6,5.55,6.39,11.59,10.16,16.97
		c6.85,9.79,10.68,21.58,19.79,29.85c-0.35,1.76-0.61,3.55-1.71,5.05c-2.42,1.1-3.57-0.27-4.68-2.2
		c-4.43-7.67-9.12-15.19-13.42-22.94c-6.45-11.66-14.5-22.38-20.16-34.47c-1.11-2.36-4.35-3.36-3.89-6.56
		C453.34,588.65,453.87,586.59,456.63,585.24z"/>
	<path class="st148" d="M473.8,313.54c5.17,5.87,9.27,12.44,13.12,19.24c6.13,10.83,12.25,21.68,19.38,31.93
		c2.05,2.95,3.7,6.24,5.13,9.54c0.76,1.75,1.46,3.29,3.14,4.25c0.58,3.98,1.61,7.92,1.07,12.01c-3.18-8.72-9.31-15.72-13.78-23.65
		c-3.69-6.54-7.79-12.87-11.26-19.57c-3.61-6.97-8.59-13.23-12.96-19.8c-0.66-0.99-1.69-0.91-2.68-0.95
		C472.51,322.39,471.17,318.15,473.8,313.54z"/>
	<path class="st149" d="M455.8,212.57c0.75-2.3,2.07-4.28,3.53-6.19c3.1,0.79,4.38,3.72,5.64,5.93
		c5.73,10.03,12.15,19.62,18.1,29.51c1.5,2.49,1.51,5.79,4.18,7.62c2.64,7.22,4.77,14.58,6.37,22.1c-2.25,0.32-2.62-1.6-3.49-2.93
		c-7.75-11.81-14.99-23.95-22.2-36.08C463.96,225.83,459.87,219.21,455.8,212.57z"/>
	<path class="st150" d="M477.77,704.47c-8.5-13.98-16.79-28.09-25.57-41.89c-4.85-7.61-7.94-16.38-14.76-22.72
		c-1.6-1.49-1.84-3.46-1.74-5.51c-0.99-1.87-0.07-2.67,1.69-3c5.12,5.63,8.44,12.47,12.43,18.83c5.41,8.63,10.35,17.55,15.56,26.3
		c4.78,8.04,9.65,16.02,14.48,24.03C479.57,702.05,479.05,703.46,477.77,704.47z"/>
	<path class="st151" d="M639.76,85.57c4.63-1.98,9.52-0.38,14.23-1.01c6.18-0.83,12.75,2.2,18.65-2.12c0.86-0.63,3.2,0.37,4.66,1.03
		c2.41,1.08,2.45-0.3,2.44-1.97c4.52,2.44,7.82,6.19,10.92,10.15c-0.6,2.77-2.99,2.46-4.77,2.34c-10.13-0.66-20.25-1.13-30.4-0.87
		c-1.7,0.04-3.16-0.89-4.66-1.57C647.14,89.56,643.45,87.56,639.76,85.57z"/>
	<path class="st152" d="M455.8,212.57c4.01,2.9,6.97,6.94,8.83,11.22c3.31,7.63,8.74,13.89,12.4,21.23
		c4.67,9.36,11.48,17.41,16.59,26.51c1.29,3.93,2.82,7.8,3.13,11.99c-5.17-2.58-6.43-8.28-8.97-12.57
		c-5.23-8.85-10.6-17.63-15.81-26.5c-3.87-6.58-8.31-12.81-12.39-19.27c-1.98-3.12-2.33-7.21-5.61-9.58
		C454.59,214.6,455.19,213.58,455.8,212.57z"/>
	<path class="st153" d="M456.72,228.57c4.93,5.13,7.02,12,10.89,17.8c7.1,10.66,13.06,22.03,19.93,32.86c3,4.73,6.67,9.4,8.04,15.11
		c0.67,2.76,3.71,1.57,5.03,3.19c1,4.67,2,9.33,3,14c-8.19-7.63-10.9-18.65-17.07-27.55c-6.07-8.78-10.53-18.59-16.93-27.2
		c-1.75-2.35-2.87-5.19-4.16-7.87c-0.82-1.72-1.96-2.62-3.91-2.29C457.51,241.25,455.75,235.28,456.72,228.57z"/>
	<path class="st154" d="M467.88,275.55c4.59,3.13,5.93,8.53,8.66,12.88c10.65,17.02,20.83,34.33,31.18,51.54
		c0.14,0.24,0.34,0.44,0.51,0.66c0.19-0.42,0.38-0.84,0.57-1.26c1.31,3.93,1.99,7.95,1.97,12.09c0.29,0.79,0.06,1.3-0.83,1.15
		c-1.83-0.3-2.62-1.8-3.55-3.17c-5.53-8.1-9.41-17.23-15.59-24.95c-1.62-2.02-2.22-4.76-3.01-7.28c-1.94-5.68-5.57-10.44-8.39-15.6
		c-3.87-7.08-8.17-13.94-11.83-21.15C466.85,278.78,466.18,277.09,467.88,275.55z"/>
	<path class="st155" d="M488.74,316.54c1.51,3.91,3.5,7.44,5.96,10.94c4.7,6.66,8.4,14.01,12.58,21.04
		c0.79,1.33,0.93,3.62,3.49,2.94c1.16,3.94,1.9,7.94,1.83,12.07c-3.22-2.17-4.85-5.78-6.56-8.86
		c-6.73-12.08-13.65-24.07-21.29-35.54c-4.33-6.5-6.18-14.67-12.86-19.59c-2.99-2.24-2.68-5.22-1.88-8.31
		c2.49-2.18,3.65,0.1,4.42,1.68C478.45,301.25,484.63,308.27,488.74,316.54z"/>
	<path class="st156" d="M650.83,91.55c3.62,0.01,7.24,0.16,10.86,0.01c8.13-0.32,16.2,0.5,24.29,0.99c1.58,0.09,3.36,0.58,4.69-0.91
		c1.87,0.77,3.02,2.28,4.05,3.93c2.12,1.7,0.91,2.82-0.74,3.66c-1.32,0.67-2.84,1.04-4.32,0.98c-8.25-0.34-16.5-0.15-24.76-0.29
		c-1.52-0.03-2.92-0.49-4.19-1.34C657.41,96.25,654.12,93.9,650.83,91.55z"/>
	<path class="st11" d="M977.82,139.35c-3.08-0.62-4.23-3.44-5.94-5.49c-1.91-2.29-3.72-4.6-6.25-6.23
		c-7.3-6.17-14.38-12.64-22.98-17.05c3.86,1.56,7.87-1.89,12.01,0.7c1.51,0.94,4.48-2.16,7.14-0.74
		C967.94,119.7,973.15,129.38,977.82,139.35z"/>
	<path class="st157" d="M487.25,249.43c-4.02-0.74-4.01-4.89-5.65-7.37c-6.1-9.24-11.37-19.01-17.03-28.54
		c-1.51-2.54-4.09-4.32-5.25-7.14c0.79-1.27,1.59-2.55,2.38-3.82c3-1.35,3.73,1.13,4.7,2.91c4.14,7.55,9.05,14.63,13.31,22.1
		C483.16,234.53,485.04,242.04,487.25,249.43z"/>
	<path class="st158" d="M660.71,98.59c9.21,0.27,18.43-0.5,27.64,0.45c3.66,0.38,6.18-1.18,6.36-3.47c0.33,0.04,0.67,0.08,1,0.12
		c1.61,2.12,3.33,4.17,4.01,6.84c1.13,3.39-1.06,4.01-3.42,3.49c-7.11-1.56-14.18-1.13-21.29-0.29c-3.07,0.36-5.91-0.51-8.57-2.03
		C663.94,102.65,662.43,100.5,660.71,98.59z"/>
	<path class="st159" d="M709.64,115.78c-0.86,1.92-2.02,3.61-3.66,4.95c-8.42,0.28-16.9,1.83-25.17-1.18
		c-1.98-1.14-2.91-3.14-4.02-4.99c1.2-1.93,3.18-2.3,5.17-2.31c8.23-0.06,16.47-0.54,24.68,0.47
		C708.04,113.35,707.96,115.43,709.64,115.78z"/>
	<path class="st160" d="M666.43,103.69c7.17,1.36,14.32-0.57,21.48-0.12c2.77,0.17,5.59-0.34,8.21,1.18
		c2.36,1.36,3.29-0.02,3.59-2.22c1.59,0.96,2.09,2.7,2.94,4.19c1.07,3.01-1.17,3.4-3.11,3.62c-7.77,0.88-15.57,0.79-23.37,0.63
		c-1.99-0.04-3.41-1.09-4.81-2.29C669.41,107.33,667.73,105.7,666.43,103.69z"/>
	<path class="st161" d="M479.73,227.56c-5.71-3.57-6.55-10.66-10.92-15.17c-2.85-2.95-2.32-8.3-7.09-9.84
		c1.22-3.04,2.97-5.75,5.05-8.26C472.08,205,476.46,216.06,479.73,227.56z"/>
	<path class="st162" d="M671.37,108.68c9.93,1.96,19.9,0.66,29.85,0.31c1.19-0.04,1.36-1.25,1.44-2.27
		c1.81,1.69,3.06,3.74,3.99,6.01c-1.25,1.57-2.85,0.95-4.51,0.99c-8.45,0.21-16.96-1.15-25.34,0.85
		C674.69,112.87,672.56,111.21,671.37,108.68z"/>
	<path class="st44" d="M60.64,645.47c-0.94-0.23-2.59-0.25-2.72-0.71c-2.57-9.04-10.6-7.86-17.2-9.33c-0.88-0.2-1.65-0.52-1.62-1.51
		c0.04-0.98,0.83-1.41,1.72-1.39c2.11,0.05,4.37-0.64,6.26,0.8c1.28,0.98,2.79,1.53,4.18,1.08c4.73-1.53,7.66,1.16,10.57,4.09
		C62.18,640.95,61.17,643.17,60.64,645.47z"/>
	<path class="st163" d="M698.66,131.46c-0.3,0.08-0.6,0.16-0.9,0.24c-3.41-0.29-7.15,0.97-9.94-2.15c-1.18-1.62-2.36-3.25-3.54-4.87
		c5.5-4.05,11.55-2.74,17.55-1.76c0.83,0.14,1.29,0.96,1.04,1.93C701.45,127.05,700.06,129.26,698.66,131.46z"/>
	<path class="st164" d="M702.85,124.85c-5.2-2.28-10.54-1.57-15.8-0.43c-0.97,0.21-1.83,0.33-2.78,0.27
		c-1.4-1.54-2.72-3.14-3.46-5.13c6.47,0.01,12.94,0.05,19.41,0.02c2.02-0.01,3.98,0.08,5.76,1.16
		C705.36,122.42,704.25,123.74,702.85,124.85z"/>
	<path class="st165" d="M687.81,129.55c2.37,0.67,4.74,1.6,7.25,0.78c1.46-0.47,2.17,0.19,2.7,1.37c-1.12,2.65-3.25,4.57-4.97,6.78
		C691.13,135.51,689.47,132.53,687.81,129.55z"/>
	<path class="st37" d="M102.82,471.51c-2.43-0.5-5.19-0.35-6.78-3.57c2.88-0.7,5.46-0.44,8.03-0.25
		C103.73,469,104.05,470.51,102.82,471.51z"/>
	<path class="st19" d="M68.8,604.48c-1.87,0.77-3.73,1.54-5.98,2.46c0.89-4.19,3.98-4.61,6.78-5.43
		C69.96,602.67,69.5,603.61,68.8,604.48z"/>
	<path class="st10" d="M1044.52,573.51c-1.38,1.91-2.74,1.57-3.3-0.44c-0.39-1.42-0.76-3.15,0.41-4.57c3.03-0.17,1.49,3,2.92,4
		C1044.54,572.83,1044.53,573.17,1044.52,573.51z"/>
	<path class="st22" d="M93.6,504.53c-1.11,0.62-2.22,1.4-3.53,0.49c-0.62-0.43-0.63-0.95-0.15-1.58c1.1-1.46,2.34-2.08,4.01-0.89
		C93.82,503.21,93.71,503.87,93.6,504.53z"/>
	<path class="st95" d="M569.66,518.32c-0.01,4.44-0.03,8.88-0.04,13.32C568.54,527.19,568.5,522.75,569.66,518.32z"/>
	<path class="st13" d="M1044.55,572.49c-2.52-0.2-0.86-3.46-2.92-4c0.09-2.01,1.52-2.02,2.97-2
		C1044.59,568.49,1044.57,570.49,1044.55,572.49z"/>
	<path class="st166" d="M554.67,93.63c1.18-1.97,3.29-2.72,5.07-3.9c0.49,0.24,1.11,0.33,1.21,1.03c-1.75,1.76-4.04,2.58-6.23,3.58
		c-0.34-0.13-0.47-0.28-0.37-0.44C554.45,93.72,554.56,93.63,554.67,93.63z"/>
	<path class="st41" d="M90.75,317.4c1.18,2.36,1.18,4.29-1.85,5.14C88.89,320.6,89.67,318.95,90.75,317.4z"/>
	<path class="st167" d="M560.95,90.76c-0.4-0.34-0.81-0.69-1.21-1.03c1.3-0.75,2.6-1.5,3.9-2.25c0.47,0.43,0.93,0.85,1.4,1.28
		C563.67,89.43,562.31,90.1,560.95,90.76z"/>
	<path class="st31" d="M689.6,145.36c0.04,1.27,2.48,1.94,1.19,3.33c-1.15,1.23-1.81-0.81-2.83-1.05
		C688.19,146.65,688.54,145.75,689.6,145.36z"/>
	<path class="st54" d="M65.66,393.17c0.17,1.27,2.95,1.64,1.37,3.37c-1.01,1.11-1.32-0.8-2.11-1
		C64.83,394.65,64.69,393.74,65.66,393.17z"/>
	<path class="st168" d="M554.67,93.63c0.01,0.24,0.03,0.47,0.05,0.7c-1.34,0.75-2.35,2.12-4.05,2.21
		C551.61,95.04,552.68,93.71,554.67,93.63z"/>
	<path class="st12" d="M295.65,533.07c-0.08,2.13,0.77,4.36-0.62,6.37C295.09,537.3,294.24,535.07,295.65,533.07z"/>
	<path class="st44" d="M49.83,705.5c0.02-1.39-1.44-3.08,0.82-4.01C50.89,702.92,50.82,704.3,49.83,705.5z"/>
	<path class="st18" d="M931.6,70.83c-0.09,0.56-0.06,1.46-0.93,1.03c-0.93-0.47-1.2-1.34-0.23-2.18
		C930.84,70.06,931.22,70.44,931.6,70.83z"/>
	<path class="st74" d="M784.43,425.46c-1.31-1.65-0.58-3.55-0.63-5.35C785.1,421.77,784.42,423.65,784.43,425.46z"/>
	<path class="st4" d="M484.66,101.69c0.39-2.22-0.49-4.51,1.23-6.42C486.74,97.56,487.6,99.85,484.66,101.69z"/>
	<path class="st169" d="M976,930.43c23.16-0.01,40.5,16.83,40.61,39.47c0.11,22.74-17.43,40.23-40.47,40.35
		c-22.8,0.12-40.39-17.49-40.35-40.39C935.82,947.61,953.33,930.45,976,930.43z"/>
	<path class="st169" d="M459.51,930.41c22.43,0.02,38.23,16.5,38.2,39.85c-0.03,23.24-16.13,40.28-38.34,40.06
		c-24.66-0.25-41.02-18.54-40.69-40.9C419.01,946.98,436.11,930.39,459.51,930.41z"/>
	<path class="st169" d="M655.7,970.03c0.01,23.56-15.74,40.22-38.12,40.31c-23.31,0.1-40.85-17.21-40.84-40.31
		c0-22.69,17.23-39.59,40.38-39.62C640.18,930.39,655.69,946.31,655.7,970.03z"/>
	<path class="st169" d="M293.39,930.41c23.49,0.01,40.36,16.68,40.35,39.86c-0.01,22.77-17.46,40.05-40.5,40.1
		c-23.02,0.05-40.47-17.29-40.46-40.21C252.79,947.11,269.86,930.4,293.39,930.41z"/>
	<path class="st48" d="M485.75,441.02c-0.1,1.59,0.24,4.08-1.72,3.93c-1.51-0.11-2.89-2.25-4.22-3.6c-0.13-0.13-0.84-4.11,1.38-0.58
		c0.47,0.74,1.17,0.14,1.4-0.53c0.43-1.21-0.09-3.45,2.18-2.75C486.16,437.91,485.65,439.75,485.75,441.02z"/>
	<path class="st22" d="M70.82,503.5c0.87-3.72,2.99-4.88,6.51-3.18c0.78,0.38,1.41,0.96,1.24,1.89c-0.17,0.95-0.97,1.24-1.85,1.26
		C74.75,503.49,72.78,503.49,70.82,503.5L70.82,503.5z"/>
	<path class="st37" d="M66.86,466.51c-1.26-0.09-3.1,0.26-3.24-1.37c-0.15-1.78,1.7-1.61,2.94-1.59c1.21,0.02,2.97-0.4,2.95,1.56
		C69.5,466.69,67.95,466.4,66.86,466.51z"/>
	<path class="st83" d="M738.87,511.46c-0.25-1.78-0.23-3.51,0.77-5.1C739.5,508.08,740.28,509.94,738.87,511.46z"/>
	<path class="st39" d="M167.15,211.34c-2.3,2.9-4.47,2.31-7.24,1.75C162.18,210.55,164.72,212.11,167.15,211.34z"/>
	<path class="st36" d="M770.61,159.7c0.28-0.61,0.48-1.03,0.67-1.44c0.42,0.45,0.98,0.84,1.21,1.37c0.14,0.31-0.25,0.84-0.39,1.28
		C771.62,160.52,771.14,160.13,770.61,159.7z"/>
	<path class="st37" d="M92.83,430.39c-1.88,1.52-3.15,1.2-5.03,0.26C89.67,429.13,90.95,429.45,92.83,430.39z"/>
	<path class="st2" d="M245.33,128.57c-0.04,1.26-0.87,1.73-1.89,1.89c-1.15,0.17-2.5,0.24-2.87-1.12c-0.35-1.27,0.85-1.61,1.82-1.66
		C243.43,127.62,244.71,127.17,245.33,128.57z"/>
	<path class="st74" d="M742.87,452.47c0.06-3.74-0.93-7.56,0.74-11.2C743.32,445,744.6,448.84,742.87,452.47z"/>
	<path class="st62" d="M708.86,246.59c0.24,0.73,0.14,1.39-0.45,1.93c-0.45-1.05-2.7,0.32-2.32-1.45
		C706.43,245.47,707.82,246.21,708.86,246.59z"/>
	<path class="st72" d="M687.67,286.55c-0.25,1.26-0.62,2.45-1.72,3.26c-0.24-2.18-1.89-3.28-3.98-4.14
		C684.77,283.43,686.19,285.11,687.67,286.55z"/>
	<path class="st9" d="M743.69,403.52c0-2.67,0-5.33,0-8c3.36,3.5,3.51,4.14,2.55,11.14C744.19,406.58,745.14,404.05,743.69,403.52z"
		/>
	<path class="st35" d="M740.87,490.47c-0.11-1.84-0.57-3.73,0.7-5.39C741.5,486.89,742.3,488.82,740.87,490.47z"/>
	<path class="st87" d="M598.57,466c-2.21,2.12-4.52,1.9-7.03,0C593.93,466,596.32,466,598.57,466z"/>
	<path class="st170" d="M470.57,290.58c-1.02-3.26-1.59-6.6-1.7-10.01c5.68,7.83,8.73,17.19,14.73,24.86
		c2.52,3.22,3.88,7.2,5.14,11.11c-5.66-6.85-10.33-14.36-14.78-22.01C473.02,292.92,472.42,291.3,470.57,290.58z"/>
</g>
</svg>
