<?xml version="1.0" encoding="utf-8"?>
<!-- Generator: Adobe Illustrator 25.0.1, SVG Export Plug-In . SVG Version: 6.00 Build 0)  -->
<svg version="1.1" id="Calque_1" xmlns="http://www.w3.org/2000/svg" xmlns:xlink="http://www.w3.org/1999/xlink" x="0px" y="0px"
	 viewBox="0 0 1000 1000" style="enable-background:new 0 0 1000 1000;" xml:space="preserve">
<style type="text/css">
	.st0{fill:#37BB6B;}
	.st1{fill:#39BC6C;}
	.st2{fill:#3DBD6F;}
	.st3{fill:#3ABC6D;}
	.st4{fill:#3BBD6E;}
	.st5{fill:#38BC6C;}
	.st6{fill:#3BBD6D;}
	.st7{fill:#49C178;}
	.st8{fill:#FEFEFE;}
	.st9{fill:#FCFEFD;}
	.st10{fill:#F4FBF7;}
	.st11{fill:#F8FCFA;}
	.st12{fill:#FBFDFC;}
	.st13{fill:#F7FCF9;}
	.st14{fill:#F9FCFB;}
	.st15{fill:#3BC171;}
	.st16{fill:#3EC675;}
	.st17{fill:#3DC373;}
	.st18{fill:#3FC676;}
	.st19{fill:#3EC474;}
	.st20{fill:#3BC170;}
	.st21{fill:#3FC575;}
	.st22{fill:#3FC374;}
	.st23{fill:#4ACE81;}
	.st24{fill:#3BBF6F;}
	.st25{fill:#3EC574;}
	.st26{fill:#44D07F;}
	.st27{fill:#48CA7D;}
	.st28{fill:#4CD083;}
	.st29{fill:#4DD184;}
	.st30{fill:#44CE7E;}
	.st31{fill:#4BCD80;}
	.st32{fill:#3CC271;}
	.st33{fill:#3DC273;}
	.st34{fill:#38BD6D;}
	.st35{fill:#41C878;}
	.st36{fill:#46D281;}
	.st37{fill:#40C877;}
	.st38{fill:#41CB7A;}
	.st39{fill:#46CA7C;}
	.st40{fill:#45CC7C;}
	.st41{fill:#40C676;}
	.st42{fill:#40C777;}
	.st43{fill:#3FC776;}
	.st44{fill:#3FC576;}
	.st45{fill:#51CF85;}
	.st46{fill:#45C97B;}
	.st47{fill:#4CD184;}
	.st48{fill:#42CB7B;}
	.st49{fill:#45CE7E;}
	.st50{fill:#3AC070;}
	.st51{fill:#3FC474;}
	.st52{fill:#F7FEFA;}
	.st53{fill:#F2FEF7;}
	.st54{fill:#FAFEFC;}
	.st55{fill:#F4FEF8;}
	.st56{fill:#E8FCF0;}
	.st57{fill:#F1FDF6;}
	.st58{fill:#F9FEFB;}
	.st59{fill:#FBFEFC;}
	.st60{fill:#FDFEFD;}
</style>
<g>
	<path class="st0" d="M495.73,253.5c0,33.66,0,67.32,0.01,100.97c0,2.55-0.85,5.55,3.79,4.99c2.26-0.27,2.92-0.98,2.83-3
		c-0.05-1.16-0.01-2.33-0.01-3.5c0-64.82,0-129.63,0-194.45c0-0.67,0.01-1.33,0-2c-0.09-8.55-0.1-8.55,8.33-8.36
		c156.85,3.49,295.96,115.74,332.15,268.53c20.54,86.73,10.17,169.86-30.96,249.04c-0.54,1.03-1.11,2.05-1.68,3.06
		c-3.39,6.04-4.63,6.34-10.83,2.75c-55.58-32.13-111.15-64.27-166.77-96.31c-1.53-0.88-3.32-3.71-5.45-0.72
		c-1.69,2.38-2.79,4.12,1.09,6.34c55.54,31.86,110.94,63.95,166.39,95.98c7.9,4.56,8.13,5.27,3.04,13.24
		c-16.6,25.96-36.19,49.44-58.98,70.2c-50.5,46-109.26,75.95-176.63,87.17c-104.47,17.39-198.9-6.75-282.32-72.33
		c-29.58-23.25-54.23-51.13-74.86-82.59c-2.19-3.34-3.4-6.99-5.04-10.5c-1.45-3.1,1.37-3.26,2.84-4.11
		c21.86-12.7,43.75-25.33,65.64-37.98c33.41-19.3,66.83-38.58,100.19-57.96c1.7-0.98,5.1-1.06,2.93-5.17
		c-2.28-4.33-4.34-1.99-6.59-0.7c-54.74,31.59-109.46,63.21-164.18,94.83c-5.86,3.39-7.03,3.15-10.1-2.55
		c-22.39-41.52-36.35-85.67-40.61-132.69c-9.05-99.86,18.46-188.61,83.5-264.84c53.41-62.6,121.41-101.17,202.3-116.77
		c18.51-3.57,37.24-5.23,56.06-5.99c2.53-0.1,4.28-0.15,4.26,3.48c-0.15,33.99-0.09,67.97-0.09,101.96
		C495.9,253.5,495.82,253.5,495.73,253.5z"/>
	<path class="st0" d="M633.96,913.96c-5.03-0.58-7.45-4.46-10.62-6.77c-11.72-8.56-22.93-17.81-34.37-26.75
		c-2.26-1.77-1.86-3.08,0.21-4.67c11.55-8.88,23.05-17.82,34.55-26.77c2.35-1.83,4.61-3.77,6.88-5.7c0.76-0.64,1.45-1.64,2.52-1.25
		c1.5,0.56,0.77,2.01,0.78,3.05c0.06,7.3,0.03,14.6,0.03,22.42c12.63-4.27,24.44-9.19,35.83-14.96
		c115.94-58.8,189.02-151.26,214.04-279.08c36.36-185.81-68.04-370.6-245.14-437.3c-3.45-1.3-5.09-2.76-4.79-6.68
		c0.38-5.13,0.09-10.31,0.09-15.47c1.73-0.74,3.02,0.19,4.32,0.68c128.38,48.62,213.78,138.24,255.46,269.03
		c13.35,41.89,18.52,85.2,16.99,129.12c-3.29,94.78-35.05,178.94-95.96,251.72c-47.66,56.94-106.8,97.72-176.72,122.77
		c-3.25,1.17-4.34,2.62-4.18,6.03C634.17,900.14,633.96,906.91,633.96,913.96z"/>
	<path class="st0" d="M366.02,888.09c-15.3-5.2-29.75-11.06-43.67-18.11c-115.67-58.62-191.41-150.32-220.3-276.77
		c-30.1-131.73-0.43-251.36,85.49-355.97c46.67-56.82,105.69-96.92,174.82-122.02c2.81-1.02,3.86-2.28,3.75-5.28
		c-0.23-6.32-0.08-12.65-0.04-18.98c0.01-0.91-0.51-2.13,0.6-2.68c1.07-0.53,1.78,0.4,2.56,1.02c10.11,8.05,20.23,16.1,30.38,24.1
		c3.62,2.86,7.29,5.67,11.02,8.38c2.31,1.68,2.65,2.99,0.16,4.96c-13.45,10.64-27.43,20.6-40.43,31.8c-0.94,0.81-2.33,1.08-4.1,1.86
		c0-8.53,0-16.58,0-25.23c-11.62,3.94-22.3,8.44-32.65,13.63C216.88,207.39,142.14,299.86,118.58,428.5
		C92.09,573.13,136.59,696,245.19,795.07c34.01,31.03,73.49,53.82,116.59,70.12c3.46,1.31,4.5,3.01,4.32,6.5
		C365.82,876.96,366.02,882.27,366.02,888.09z"/>
	<path class="st1" d="M429.6,898.3c1.92-5.8,3.8-11.62,5.79-17.4c0.4-1.16,0.46-2.82,2.26-2.91c2.11-0.1,2.17,1.68,2.62,3.05
		c2,5.98,4,11.97,6.27,18.77c1.98-6.76,3.77-12.73,5.46-18.73c0.53-1.9,1.14-3.92,3.53-2.96c2.02,0.82,0.34,2.61,0.01,3.77
		c-2.01,7.03-4.23,14.01-6.36,21.01c-0.43,1.41-0.5,3.06-2.63,3.01c-2.11-0.05-2.11-1.77-2.56-3.13
		c-1.98-5.98-3.94-11.96-6.27-19.04c-2.34,7.09-4.32,13.1-6.33,19.11c-0.45,1.34-0.45,3.05-2.61,3.07c-2.19,0.02-2.19-1.73-2.6-3.05
		c-2.2-7.15-4.36-14.31-6.45-21.5c-0.31-1.07-1.81-2.58,0.26-3.31c2.03-0.71,2.94,0.62,3.46,2.48c1.65,5.89,3.41,11.76,5.12,17.63
		C428.91,898.22,429.25,898.26,429.6,898.3z"/>
	<path class="st2" d="M529.72,892.09c0,3.82,0,7.64-0.01,11.46c0,1.24-0.15,2.35-1.82,2.33c-1.69-0.03-1.73-1.2-1.73-2.4
		c-0.01-6.64-0.06-13.29,0.02-19.93c0.02-2.22-0.05-3.84-3.07-3.67c-3.03,0.17-5.24,1.07-5.76,4.27c-0.36,2.26,1.52,1.63,2.69,1.75
		c1.02,0.11,2.04,0.09,2.06,1.5c0.02,1.42-1.01,1.59-2.02,1.5c-2.76-0.26-2.81,1.48-2.78,3.47c0.06,3.49,0.06,6.98-0.01,10.46
		c-0.02,1.21,0.47,2.9-1.59,3c-2.19,0.11-1.66-1.64-1.68-2.83c-0.06-3.49,0.03-6.98-0.05-10.46c-0.03-1.5,0.71-3.46-1.93-3.78
		c-0.96-0.12-1.32-1.76-0.96-1.88c4.13-1.33,2.62-6.29,5.64-8.39c3.33-2.32,6.56-1.13,10.01-0.72c2.42,0.29,3.11,1.08,3.03,3.34
		C529.63,884.78,529.72,888.44,529.72,892.09z"/>
	<path class="st3" d="M555.04,93.17c-1.15,1.77-2.79,2.51-2.68,4.98c0.17,4.14-3.13,5.79-7.1,5.95c-1.16,0.05-3.11-0.93-3.2,1.11
		c-0.09,2.12,1.95,1.77,3.37,1.84c1.49,0.07,3.02-0.13,4.47,0.12c1.99,0.35,3.9,1.04,4.44,3.38c0.51,2.2-0.44,3.9-1.98,5.3
		c-3.01,2.72-9.86,3.04-13.12,0.63c-1.4-1.03-3.01-3.17-1.81-4.07c3.34-2.52,0.01-6.47,2.53-8.92c1.13-1.1-0.19-1.72-0.68-2.45
		c-1.66-2.5-1.77-5.02,0.14-7.36c1.97-2.42,4.8-3.29,7.62-2.35C549.53,92.15,552.08,92.58,555.04,93.17z"/>
	<path class="st4" d="M561.56,901.44c1.67-5.13,2.97-9.05,4.23-12.98c0.36-1.12,0.56-2.33,2.04-2.46c1.86-0.16,2.03,1.3,2.43,2.56
		c1.24,3.92,2.5,7.83,4.09,12.77c1.46-5,2.61-8.9,3.74-12.81c0.44-1.51,1.02-3.19,2.94-2.44c2.05,0.8,0.29,2.29,0.01,3.32
		c-1.28,4.63-2.74,9.22-4.2,13.8c-0.38,1.19-0.5,2.71-2.36,2.72c-1.79,0.01-2.07-1.34-2.48-2.6c-1.19-3.71-2.37-7.42-4.62-11.12
		c-1.18,3.69-2.33,7.4-3.56,11.08c-0.4,1.19-0.54,2.68-2.41,2.65c-1.85-0.02-2.01-1.45-2.4-2.68c-1.49-4.75-2.98-9.49-4.4-14.26
		c-0.28-0.96-1.52-2.26,0.23-2.92c1.56-0.59,2.47,0.43,2.89,1.89C558.91,892.1,560.09,896.24,561.56,901.44z"/>
	<path class="st5" d="M450.01,83.07c9.55,0.02,13.85,3.98,12.46,10.75c-0.96,4.67-4.13,7.32-9.88,7.13
		c-3.87-0.13-5.09,1.15-4.53,4.77c0.15,0.97,0.02,1.99,0.01,2.98c-0.01,1.21-0.03,2.4-1.77,2.31c-1.69-0.09-1.64-1.33-1.65-2.49
		c-0.02-6.47,0.33-12.97-0.13-19.41C444.16,84.02,445.67,81.93,450.01,83.07z"/>
	<path class="st5" d="M497.08,894.02c5.09-1.59,5.97-8.2,12.08-8.03c-8.68,7.08-6.83,13.39,0.95,19.18
		c-2.75,1.31-4.13,0.51-5.35-1.13c-1.29-1.72-2.7-3.37-4.11-5c-0.73-0.84-1.33-2.23-2.66-1.88c-1.56,0.41-0.59,1.97-0.92,2.97
		c-0.62,1.9,1.59,5.61-1.81,5.45c-2.92-0.14-1.4-3.78-1.47-5.81c-0.21-6.63-0.1-13.28-0.06-19.91c0.01-1.24-0.36-2.91,1.73-2.87
		c2.13,0.04,1.57,1.77,1.59,2.95C497.11,884.51,497.08,889.07,497.08,894.02z"/>
	<path class="st3" d="M501.97,101.21c0.01,5.74-3.61,9.74-8.93,9.86c-5.71,0.14-9.27-3.63-9.32-9.87
		c-0.05-6.27,3.42-10.14,9.07-10.13C498.31,91.08,501.96,95.11,501.97,101.21z"/>
	<path class="st3" d="M533.71,895.79c0.05-6.23,3.64-10.02,9.33-9.86c5.49,0.16,9.03,4.29,8.91,10.4c-0.11,5.72-3.83,9.61-9.2,9.6
		C537.09,905.92,533.65,902.07,533.71,895.79z"/>
	<path class="st3" d="M474.97,896.03c0.02,5.94-3.84,10.02-9.39,9.9c-5.48-0.11-8.8-3.8-8.86-9.84c-0.06-6.27,3.39-10.16,9.03-10.16
		C471.29,885.92,474.95,889.93,474.97,896.03z"/>
	<path class="st3" d="M556.7,101.07c-0.07-5.57,2.85-9.46,7.69-9.93c4.34-0.42,7.37,1.47,8.78,5.7c0.92,2.77,0.56,4.58-3.02,4.28
		c-1.98-0.17-4-0.15-5.98,0.01c-1.35,0.11-3.42-0.92-3.9,0.89c-0.53,1.99,0.63,3.88,2.41,5.09c2.33,1.58,4.72,1.12,7.11,0.04
		c1.01-0.46,2.25-1.33,2.88,0.31c0.61,1.58-1.02,1.92-1.9,2.42C564.04,113.68,556.8,109.11,556.7,101.07z"/>
	<path class="st6" d="M533.29,102.93c0,1.82,0.04,3.65-0.02,5.47c-0.03,0.91,0.34,2.12-0.99,2.46c-1.14,0.29-1.19-0.76-1.58-1.46
		c-1.08-1.94-1.88-0.14-2.68,0.32c-1.62,0.93-3.27,1.6-5.18,1.33c-2.39-0.33-3.99-1.68-4.51-4.01c-0.49-2.2,0.53-4.02,2.47-4.94
		c1.91-0.91,4.01-1.49,6.09-1.94c1.56-0.33,3.54,0.21,3.09-2.51c-0.38-2.26-1.54-3.61-3.97-3.56c-0.49,0.01-0.99,0.19-1.47,0.17
		c-1.69-0.08-3.76,3.66-4.75,0.39c-0.65-2.12,2.78-2.82,4.73-3.35c4.66-1.26,8.26,1.35,8.69,6.14c0.16,1.81,0.03,3.64,0.03,5.46
		C533.26,102.93,533.27,102.93,533.29,102.93z"/>
	<path class="st1" d="M512.33,111.1c-3.33-0.05-5.21-1.36-5.35-4.4c-0.14-2.98,0.03-5.97-0.1-8.95c-0.06-1.44,0.89-3.54-1.86-3.74
		c-0.75-0.06-1.34-1.08-0.9-1.33c2.88-1.65,3.23-4.55,4.04-7.27c0.06-0.21,1.12-0.41,1.26-0.24c0.38,0.46,0.75,1.14,0.69,1.69
		c-0.31,3.03,0.5,4.83,4.01,4.28c0.83-0.13,1.64,0.17,1.73,1.28c0.08,1.01-0.41,1.74-1.37,1.59c-5.41-0.84-4.25,2.99-4.3,5.94
		c-0.03,1.82-0.04,3.65,0.04,5.47c0.07,1.45,0.61,2.6,2.35,2.57c1.14-0.02,2.99-1.41,3.1,0.77
		C515.79,111.01,513.27,110.4,512.33,111.1z"/>
	<path class="st0" d="M475.84,96.19c0-3.66-0.05-7.31,0.03-10.97c0.03-1.18-0.59-2.92,1.49-3.05c2.18-0.14,1.69,1.62,1.69,2.82
		c0.04,7.64,0.05,15.29-0.01,22.93c-0.01,1.16,0.63,2.98-1.46,3.04c-2.51,0.06-1.66-2.03-1.7-3.31
		C475.77,103.84,475.84,100.01,475.84,96.19z"/>
	<path class="st3" d="M479.7,895.26c0-1.82-0.02-3.64,0.01-5.46c0.05-3.35,0.07-3.35,3.27-1.94c1.6,0.7,1.94-1.23,3.13-1.48
		c1.42-0.3,3.29-1.27,3.93,0.42c0.87,2.27-1.29,1.95-2.7,2.21c-3.2,0.58-4.17,2.92-4.24,5.8c-0.07,2.97-0.01,5.95-0.04,8.93
		c-0.01,0.99-0.03,2.02-1.42,2.13c-1.62,0.13-1.93-0.87-1.92-2.17c0-2.81,0-5.62,0-8.43C479.72,895.26,479.71,895.26,479.7,895.26z"
		/>
	<path class="st0" d="M470.15,101.13c0,2.66,0.01,5.31-0.01,7.97c-0.01,1.09-0.29,1.96-1.66,1.92c-1.39-0.04-1.53-1-1.53-2.03
		c-0.01-5.31-0.01-10.62,0-15.93c0-1.08,0.25-1.97,1.64-1.92c1.37,0.05,1.54,0.99,1.55,2.03
		C470.16,95.82,470.15,98.48,470.15,101.13z"/>
	<path class="st7" d="M468.68,82.1c1.45,0.28,2.35,1.15,2.24,2.68c-0.09,1.26-0.89,2.15-2.2,2.23c-1.6,0.09-2.51-0.99-2.54-2.39
		C466.15,83.19,467.08,82.22,468.68,82.1z"/>
	<path class="st8" d="M507.83,375.72c0.6-0.09,0.77-0.15,0.93-0.13c13.25,2.18,13.27,2.22,8.9,14.61c-0.59,1.68-1.06,3.4-1.69,5.45
		c5.13-0.2,9.22-2.52,13.55-3.9c7.12-2.28,14.15-4.85,21.28-7.1c3.15-0.99,3.98-2.1,1.95-5.16c-6.59-9.98-12.95-20.12-19.67-30.64
		c-2.93,3.65-3.51,7.97-4.88,11.85c-0.99,2.79-1.79,3.83-4.87,2.64c-3.23-1.25-6.69-2.28-10.12-2.57c-4.35-0.37-5.51-2.07-5.5-6.43
		c0.16-65.3,0.14-130.61,0.03-195.91c-0.01-3.91,0.54-5.45,5.06-5.25c53.44,2.43,104.19,15.14,151.16,40.93
		c90.06,49.45,148.16,124.15,173.87,223.66c9.31,36.02,12,72.82,9.01,109.92c-3.91,48.48-17.28,94.24-40.19,137.2
		c-1.76,3.29-3.16,3.11-6.01,1.46c-55.38-32.11-110.8-64.15-166.28-96.08c-2.84-1.63-3.19-3.09-1.96-5.84
		c6.5-14.54,8.18-29.67,5.53-45.36c-0.54-3.2-1.48-4.03-4.91-3.32c-9.55,2-9.64,1.78-8.96,11.17c0.7,9.77-0.74,19.22-3.83,28.5
		c-1.29,3.87-2.64,5.64-6.89,2.76c-5.5-3.72-11.33-6.99-17.24-10.01c-3.23-1.65-3.11-3.21-1.89-6.18
		c15.32-37.22,11.36-72.36-12.95-104.44c-16.7-22.04-39.37-34.89-66.93-38.47c-4.97-0.65-7.27-2.01-6.63-7.53
		C508.31,386.32,507.83,380.95,507.83,375.72z"/>
	<path class="st8" d="M392.72,540.76c-2.86-4.19-6.78-6.76-10.16-9.86c-5.76-5.29-11.61-10.49-17.29-15.87
		c-2.04-1.93-3.05-1.82-4.38,0.71c-5.33,10.16-10.81,20.24-16.28,30.32c-1.5,2.76-0.29,3.25,2.18,2.82
		c3.12-0.55,6.25-1.01,9.32-1.75c2.9-0.71,4.31,0.09,4.71,3.18c0.67,5.13,2.09,10.13,4.41,14.73c1.56,3.09,0.83,4.46-2.07,6.11
		c-22.54,12.86-44.97,25.89-67.43,38.88c-31.82,18.39-63.68,36.73-95.44,55.24c-3.29,1.91-4.71,1.92-6.66-1.78
		c-19.9-37.91-32.91-77.96-37.73-120.55c-11.19-98.93,14.3-187.48,77.56-264.22c52.09-63.2,119.14-102.58,199.58-118.9
		c17.65-3.58,35.5-5.26,53.43-6.51c4.12-0.29,3.74,1.89,3.74,4.48c-0.02,22.16-0.01,44.32-0.01,66.49
		c0,43.33-0.07,86.65,0.11,129.97c0.02,4.33-1.19,5.92-5.49,6.72c-17.6,3.26-32.29,11.82-44.25,25.17
		c-1.96,2.19-1.59,3.34,0.36,5.23c7.63,7.38,7.43,7.31,15.04,0.2c8.82-8.24,19.3-13.44,31.07-16.13c2.14-0.49,3.17-0.17,3.16,2.2
		c-0.04,6-0.1,12,0.03,18c0.06,2.89-1.73,3.1-3.84,3.39c-41.45,5.67-75.23,35.94-85.34,76.51c-5.62,22.55-3.75,44.55,5.43,65.87
		c1.21,2.82,1.16,4.19-1.76,5.75c-7.33,3.92-14.48,8.17-21.62,12.44c-2.44,1.46-3.43,1.44-4.41-1.67
		c-4.34-13.69-4.46-13.65,9.41-16.08C389.53,541.59,390.93,541.18,392.72,540.76z"/>
	<path class="st8" d="M583.21,571.15c-4.57,12.83-8.8,24.69-13.02,36.57c-0.69,1.93,0.22,2.82,2.07,3
		c11.74,1.17,23.49,2.35,35.23,3.51c3.13,0.31,2.48-1.13,1.34-2.87c-1.83-2.78-3.44-5.72-5.46-8.35c-1.95-2.55-1.36-3.82,1.26-5.39
		c5.29-3.17,10.05-7.14,13.96-11.93c2.16-2.65,3.84-2.47,6.61-0.86c49.05,28.44,98.17,56.77,147.27,85.13
		c6.62,3.83,13.16,7.81,19.88,11.45c2.79,1.51,3.2,2.68,1.4,5.47c-15.33,23.75-33.01,45.57-53.53,65
		c-42.2,39.97-91.24,67.98-147.32,83.49c-39.34,10.87-79.43,14.93-120.06,11.4c-85.85-7.45-159.3-41.92-220.18-102.92
		c-17.34-17.37-32.32-36.7-45.67-57.31c-2.09-3.22-1.6-4.45,1.57-6.28c54.48-31.34,108.9-62.79,163.29-94.29
		c2.98-1.73,4.62-1.91,7.29,1.05c11.22,12.4,25.02,20.64,41.53,24.2c3.07,0.66,4.01,0.06,4.71-2.95c2.39-10.12,2.52-10.1-7.08-13.06
		c-9.91-3.05-18.28-8.69-25.9-15.55c-2.52-2.27-3.22-4,0.77-6.03c7.11-3.61,13.94-7.77,20.73-11.97c2.42-1.5,3.53-1.01,5.18,1.07
		c22.89,28.82,52.91,42.48,89.51,39.94c29.5-2.05,53.64-15.51,72.24-38.54c2.09-2.59,3.32-3.22,6.25-1.33
		c5.58,3.6,11.42,6.82,17.26,10c3.02,1.64,4.06,2.63,0.6,5.3c-11.39,8.81-11.29,8.94-19.07-3
		C585.26,574.15,584.61,573.22,583.21,571.15z"/>
	<path class="st8" d="M403.02,500.15c0.18-53.48,44.45-97.38,97.96-97.13c53.47,0.25,97.34,44.61,97,98.08
		c-0.35,53.33-44.4,97.01-97.7,96.88C446.77,597.84,402.84,553.65,403.02,500.15z"/>
	<path class="st9" d="M386.5,571.56c-2-0.6-2.46-2.56-3.44-4.01c-1.16-1.72,0.45-2.21,1.58-2.87c7.89-4.56,15.83-9.04,23.63-13.76
		c3.08-1.86,3.15,0.91,4.2,2.24c1.08,1.37,1.81,2.54-0.47,3.81c-7.97,4.42-15.82,9.05-23.72,13.59
		C387.7,570.89,387.12,571.21,386.5,571.56z"/>
	<path class="st9" d="M614.85,566.31c-0.11,2.41-3.55,4.52-5.84,3.23c-6.81-3.84-13.53-7.84-20.35-11.65
		c-2.12-1.19-1.85-2.45-0.6-3.94c1.01-1.21,1.16-3.89,3.93-2.27c7.18,4.2,14.4,8.32,21.59,12.49
		C614.27,564.58,615,565.07,614.85,566.31z"/>
	<path class="st8" d="M502.34,386.36c0,2.66-0.15,5.33,0.04,7.98c0.2,2.74-0.67,3.77-3.58,3.78c-2.99,0.01-3.13-1.49-3.1-3.72
		c0.08-5.65,0.09-11.31-0.01-16.96c-0.04-2.19,0.45-3.49,2.99-3.3c2.12,0.16,3.92,0.27,3.7,3.24
		C502.17,380.36,502.35,383.36,502.34,386.36z"/>
	<path class="st10" d="M549.51,97.75c-0.42,2.41-1.97,3.35-4.24,3.31c-2.28-0.04-4.04-1.08-4.02-3.46c0.03-2.66,1.94-3.64,4.44-3.53
		C548.05,94.18,549.34,95.39,549.51,97.75z"/>
	<path class="st11" d="M545.78,110.04c1.85,0.38,5.3-0.9,5.22,2.4c-0.07,2.73-3.33,2.61-5.61,2.61c-2.14,0-5.03-0.06-4.97-2.71
		C540.49,109.43,543.52,110.2,545.78,110.04z"/>
	<path class="st12" d="M448.04,92.33c0.4-2.87-1.6-6.84,4.07-6.35c4.03,0.35,6.73,1.6,6.87,5.98c0.12,3.93-2.61,5.88-7.25,6.17
		C446.2,98.5,448.71,94.47,448.04,92.33z"/>
	<path class="st12" d="M498.34,101.3c-0.12,3.67-1.11,6.67-5.54,6.74c-3.66,0.06-5.85-2.71-5.71-7.2c0.12-3.69,1.37-6.59,5.67-6.74
		C496.47,93.98,498.43,96.58,498.34,101.3z"/>
	<path class="st12" d="M548.34,896.03c-0.11,3.63-0.97,6.71-5.41,6.87c-3.68,0.13-5.93-2.6-5.83-7.07c0.08-3.67,1.25-6.62,5.54-6.87
		C546.37,888.74,548.37,891.3,548.34,896.03z"/>
	<path class="st12" d="M471.36,895.98c-0.11,3.62-0.92,6.72-5.37,6.92c-3.68,0.16-5.91-2.56-5.89-7.03c0.02-4.47,2.3-7.14,6-6.91
		C470.55,889.23,471.26,892.4,471.36,895.98z"/>
	<path class="st13" d="M565.18,99.28c-1.6-0.9-4.45,1.09-4.61-1.31c-0.17-2.42,2.24-3.83,4.86-3.88c2.41-0.05,4.79,1.07,4.66,3.38
		C569.89,100.9,566.67,98.14,565.18,99.28z"/>
	<path class="st14" d="M527.11,102.13c1.74-0.1,3.04-0.13,2.95,1.9c-0.14,3.11-2.46,3.61-4.77,3.99c-1.85,0.31-3.78-0.47-3.6-2.39
		C521.98,102.35,525.17,102.73,527.11,102.13z"/>
	<path class="st15" d="M628.65,311.46c2.83-0.14,5.71-2.09,6.48,1.36c0.65,2.88,1.6,6.96-3.34,7.91c-4.67,0.89-8.98,0.42-12.08-3.73
		c-2.58-3.45-2.57-9.68,0.06-13.1c3.01-3.92,7.14-4.54,11.63-3.48c1.33,0.31,3.65,0.7,3.17,2.37c-0.69,2.4-2.47,0.24-3.59-0.08
		c-4.4-1.28-8.4,0.3-9.78,4.15c-1.71,4.75,0.06,9.75,4.14,11.49c2.61,1.11,5.28,1.24,7.27-1.04
		C633.88,315.84,632.42,313.59,628.65,311.46z"/>
	<path class="st16" d="M712.09,352.03c-5.45,2.64-7.2,1.97-7.95-1.56c-0.71-3.35,1.72-7.26-1.8-10.1c1.59-1.67,2.42-3.85,3.9-6.34
		c-0.22,5.45,3.08,5.38,6.43,4.95c3.34-0.43,4.49,0.9,4.17,4.16c-0.23,2.31,0.06,4.67-0.08,6.99c-0.08,1.33,0.85,3.56-1.28,3.68
		c-2.3,0.13-1.31-2.16-1.44-3.43c-0.17-1.65-0.06-3.33-0.04-4.99c0.03-2.33,0.48-4.43-3.34-4.48c-3.9-0.05-4.02,1.9-3.71,4.59
		C707.26,348.21,705.14,352.32,712.09,352.03z"/>
	<path class="st16" d="M668.22,301.3c-0.22,4.79,2.56,5.17,5.79,4.68c4.05-0.62,5.32,1.11,4.85,4.95c-0.26,2.13,0.07,4.32-0.09,6.46
		c-0.09,1.28,0.86,3.58-1.5,3.43c-2.18-0.14-1.09-2.36-1.22-3.65c-0.18-1.81-0.19-3.66-0.01-5.47c0.27-2.74-0.61-3.76-3.54-3.74
		c-2.83,0.02-4.06,0.87-3.54,3.67c0.53,2.89-2.22,7.41,3.93,7.56c-3.62,2.76-5.95,2.02-6.74-1.76c-0.7-3.33,1.82-7.25-1.84-10.02
		C665.84,305.68,666.9,303.66,668.22,301.3z"/>
	<path class="st17" d="M747.55,317.94c-1.86,3.31-4.54,3.72-7.51,2.46c-3.01-1.27-3.9-3.89-4-6.85c-0.1-3.03,0.88-5.62,3.86-6.89
		c3.34-1.42,6.24-0.8,8,2.6c1.46,2.82,1.78,5.24-2.73,4.8c-0.66-0.06-1.37-0.16-1.98,0.02c-1.44,0.44-4.21-1.33-4.06,1.7
		c0.13,2.53,2.38,3.42,4.79,3.13C745.15,318.77,746.34,318.28,747.55,317.94z"/>
	<path class="st18" d="M689.3,341.67c1.35-2.39,3.59-2.89,6.1-2.6c2.5,0.28,3.65,2.08,4.14,4.34c0.21,0.96,0.23,1.97,0.26,2.96
		c0.23,7.32,0.22,7.3-6.93,7.69c-2.05,0.11-3.64-0.57-4.38-2.51c-0.82-2.16,0.58-3.41,2.23-4.38c0.7-0.41,1.56-0.55,2.31-0.89
		c1.48-0.67,4.72,0.75,3.8-2.82c-0.9-3.5-3.26-2.4-5.46-1.32C690.73,342.44,690.11,342.52,689.3,341.67z"/>
	<path class="st19" d="M653.15,346.62c-0.03,4.68-2.58,7.45-6.83,7.43c-4.17-0.03-6.71-2.92-6.67-7.59
		c0.04-4.63,2.68-7.51,6.84-7.44C650.69,339.08,653.18,341.92,653.15,346.62z"/>
	<path class="st19" d="M733.11,347.03c-0.18,4.62-2.89,7.26-7.21,7.01c-4.07-0.23-6.43-3.27-6.22-7.99c0.2-4.61,2.97-7.31,7.21-7.03
		C730.99,339.29,733.29,342.26,733.11,347.03z"/>
	<path class="st19" d="M695.8,314.31c-0.37,4.34-3.61,7.17-7.68,6.72c-4.09-0.44-6.46-3.67-6.07-8.24c0.38-4.47,3.44-7.19,7.6-6.76
		C693.53,306.43,696.17,309.98,695.8,314.31z"/>
	<path class="st20" d="M640.29,314.05c0.77,6.99,5.67,4.31,9.81,4.12c-2.57,3.31-5.42,3.39-8.36,2.33c-3.09-1.11-3.96-3.79-4.06-6.8
		c-0.1-3.03,0.78-5.71,3.68-7.06c3.09-1.43,5.83-0.72,7.82,2.18c0.9,1.31,1.23,2.86,0.72,4.27c-0.6,1.67-2.28,0.82-3.48,0.91
		C644.45,314.15,642.46,314.05,640.29,314.05z"/>
	<path class="st21" d="M698.26,313.95c0-0.73,0-1.06,0-1.39c0-6.18,0-6.18,2.09-6.18c9.47-0.01,9.98,0.21,9.73,6.89
		c-0.09,2.5,1.91,6.57-1.37,7.15c-1.64,0.29-0.66-4.52-0.94-7c-0.26-2.29,0.15-5.2-3.12-5.2c-3.18,0-3.49,2.55-3.78,5.29
		c-0.26,2.46,2.02,6.79-1.41,6.98C697.05,320.62,698.99,315.95,698.26,313.95z"/>
	<path class="st22" d="M609.22,343.05c2.11-4.06,4.62-4.41,7.24-3.88c2.4,0.49,3.49,2.34,3.56,4.77c0.03,1,0.05,1.99,0.06,2.99
		c0.05,7.08,0.05,7.08-6.95,7.11c-2.01,0.01-3.66-0.61-4.12-2.78c-0.45-2.14,0.69-3.48,2.57-4.25c0.92-0.37,1.88-0.68,2.85-0.88
		c1.5-0.3,3.68,0.27,2.86-2.6c-0.74-2.58-2.29-3-4.54-1.85C612.05,342.04,611.28,342.26,609.22,343.05z"/>
	<path class="st21" d="M736.25,346.63c0-0.33-0.1-0.7,0.02-0.99c0.84-2.05-1.99-5.94,2.01-6.18c9.37-0.56,9.84,0.04,9.9,6.71
		c0.02,1.82,0.03,3.65-0.03,5.47c-0.03,0.92,0.19,2.26-1.28,2.15c-1.37-0.1-1.09-1.42-1.12-2.33c-0.06-1.99,0.01-3.98-0.04-5.97
		c-0.06-2.07-0.35-4.32-2.99-4.31c-2.48,0.01-3.84,1.6-3.75,4.25c0.07,2.15,0.04,4.31-0.01,6.47c-0.02,0.94,0.12,2.16-1.41,2.02
		c-1.01-0.09-1.25-0.94-1.27-1.81c-0.02-1.82-0.01-3.65-0.01-5.47C736.27,346.63,736.26,346.63,736.25,346.63z"/>
	<path class="st19" d="M662.17,308.03c-1.41,1.19-2.13,0.57-2.87,0.32c-1.59-0.53-3.24-0.47-3.76,1.28
		c-0.49,1.65,1.11,2.07,2.38,2.58c2.81,1.12,6.14,2.11,4.03,6.28c-1.57,3.11-4.89,3.33-9.06,0.79c0.65-2.3,1.98-0.77,3.03-0.5
		c1.59,0.41,3.17,0.37,3.82-1.33c0.81-2.1-1.1-2.41-2.43-2.95c-2.16-0.88-4.58-1.47-4.43-4.57c0.08-1.7,1.05-2.82,2.53-3.4
		C657.85,305.59,660.14,305.63,662.17,308.03z"/>
	<path class="st23" d="M606.03,343.92c0,2.64,0.02,5.28-0.01,7.92c-0.01,0.94,0.12,2.16-1.33,2.12c-1.32-0.04-1.44-1.14-1.44-2.15
		c-0.01-5.61-0.01-11.21,0.01-16.82c0.01-1.07,0.39-1.97,1.71-1.84c1.15,0.12,1.04,1.1,1.05,1.87
		C606.05,337.98,606.03,340.95,606.03,343.92z"/>
	<path class="st24" d="M639.14,333.67c-1.95,1.74-4.83,1.4-4.64,4.06c0.16,2.21,2.73,0.57,3.7,2.37c-6.26,1.38-3.16,6.36-3.88,10.01
		c-0.25,1.29,0.91,3.65-1.29,3.58c-2.03-0.07-0.8-2.4-1.13-3.69c-0.81-3.15,1.19-6.46-1.59-9.76
		C628.6,338.22,634.72,333.1,639.14,333.67z"/>
	<path class="st25" d="M730.43,318.91c-2.17,2.45-4.83,3.15-7.38,1.05c-3.28-2.7-2.75-6.57-1.68-10.05
		c0.83-2.71,3.08-4.23,6.15-3.84c1.13,0.14,2.23,0.47,3.34,0.72c0.73,1.08,0.08,1.79-0.67,2.48c-0.6,0.26-1.25,0.32-1.89,0.37
		c-2.96,0.23-3.9,2.13-3.54,4.72c0.51,3.71,3.1,2.97,5.55,2.34C731.84,317.34,731.96,318.08,730.43,318.91z"/>
	<path class="st26" d="M677.03,341.06c1.33-2.28,3.43-2.47,5.59-1.77c2.34,0.76,3.13,2.81,3.23,5.07c0.1,2.47,0.05,4.94,0.03,7.42
		c-0.01,0.98,0,2.12-1.37,2.17c-1.39,0.05-1.45-1.06-1.47-2.06c-0.03-2.31,0.02-4.62-0.04-6.92c-0.09-3.69-1.67-4.84-5.02-2.86
		C677.44,341.96,677.13,341.61,677.03,341.06z"/>
	<path class="st27" d="M677.03,341.06c0.32,0.35,0.64,0.7,0.96,1.05c-0.13,2.97-0.23,5.93-0.41,8.9c-0.07,1.2,0.44,3.01-1.64,2.88
		c-1.71-0.1-1.16-1.72-1.2-2.75c-0.09-2.14,0-4.3-0.05-6.44c-0.05-2.33-1.07-3.77-3.64-3.61c-0.99,0.45-1.11-0.11-1.04-0.9
		C672.74,337.38,674.8,339.91,677.03,341.06z"/>
	<path class="st28" d="M670.01,340.17c0.35,0.3,0.7,0.6,1.04,0.9c-3.47,2.84-1.49,6.76-2.03,10.17c-0.16,1.01,0.52,2.59-1.25,2.68
		c-1.69,0.09-1.55-1.37-1.56-2.5c-0.03-3.13,0.09-6.27-0.04-9.39C666,338.23,667.81,338.9,670.01,340.17z"/>
	<path class="st29" d="M661.16,341.12c-3.24,2.89-1.8,6.74-2.14,10.23c-0.1,1.02,0.46,2.61-1.34,2.59c-1.66-0.02-1.46-1.5-1.47-2.61
		c-0.04-3.3-0.03-6.59-0.01-9.89c0.01-0.95-0.18-2.11,1.2-2.31c1.26-0.18,1.56,0.97,2.12,1.74
		C660.13,340.5,660.68,340.58,661.16,341.12z"/>
	<path class="st0" d="M730.43,318.91c0.14-0.7,0.28-1.39,0.43-2.09c-1.63-2.51-1.86-5.17-0.86-7.96c0.29-0.69,0.57-1.39,0.86-2.08
		c0.51-2.17-1.6-5.87,1.37-6.16c1.78-0.17,0.74,3.96,0.86,6.12c0.22,3.98,0.08,7.97,0.04,11.96c-0.01,0.9,0.22,2.28-1.3,2.03
		C731.27,320.66,730.89,319.55,730.43,318.91z"/>
	<path class="st30" d="M678.91,301.83c-0.3,1.32-0.73,2.2-1.94,2.09c-1.13-0.1-1.71-0.95-1.64-1.99c0.08-1.01,0.68-1.85,1.85-1.8
		C678.38,300.19,678.58,301.22,678.91,301.83z"/>
	<path class="st30" d="M716.84,334.91c-0.06,1.06-0.51,1.91-1.64,2.01c-1.17,0.11-1.78-0.76-1.87-1.76
		c-0.1-1.05,0.49-1.89,1.61-2.02C716.14,333,716.58,333.89,716.84,334.91z"/>
	<path class="st31" d="M661.16,341.12c-0.55-0.08-1.1-0.16-1.64-0.24c1.22-2.09,2.92-2.08,5-1.59
		C663.93,341.68,662.33,340.89,661.16,341.12z"/>
	<path class="st32" d="M262.92,311.78c2.26,0.04,5.37-2.89,6,1.42c0.51,3.51,0.69,7.17-4.41,7.73c-4.78,0.52-9.04-0.25-11.7-4.71
		c-2.56-4.3-2.2-8.76,0.75-12.61c2.96-3.86,7.32-4.28,11.77-3.13c1.19,0.31,3.54,0.63,2.73,2.59c-0.8,1.96-2.24,0.02-3.3-0.33
		c-5.06-1.7-8.67-0.01-10.13,4.86c-1.55,5.18,0.74,10.14,5.34,11.18c2.26,0.51,4.91,0.81,6.06-1.83
		C267.18,314.37,265.58,312.81,262.92,311.78z"/>
	<path class="st33" d="M300.02,348.52c0-1-0.18-2.03,0.03-2.98c0.48-2.11-0.58-6.5,0.86-5.98c3.11,1.12,5.61-2.04,8.35-0.14
		c1.29,0.9,2.3,1.89,2.75,3.38c1.19,3.95,0.94,7.58-2.59,10.32c-0.62,0.48-1.55,0.93-2.27,0.84c-2.76-0.33-5.2-0.55-4.53,3.53
		c0.15,0.91-0.56,1.54-1.57,1.41c-1.15-0.16-1.01-1.13-1.02-1.91C300.01,354.17,300.02,351.34,300.02,348.52z"/>
	<path class="st34" d="M306.76,319.24c-5.02,2.7-6.36,1.86-6.88-2.73c-0.34-3.02,1.73-6.51-1.55-9.25c-0.24-0.2,2.55-3.12,2.69-6.01
		c0.61,5.77,4.35,4.97,7.63,4.75c2.44-0.16,3.71,0.43,3.51,3.23c-0.22,3.14-0.03,6.31-0.08,9.46c-0.01,0.91,0.2,2.21-1.31,2.1
		c-1.05-0.07-1.05-1.11-1.06-1.91c-0.04-2.16-0.14-4.32-0.01-6.47c0.17-2.84-0.13-4.58-3.88-4.51c-3.63,0.07-3.79,1.97-3.39,4.4
		C302.9,315.02,300.03,319.74,306.76,319.24z"/>
	<path class="st17" d="M273.17,351.54c-3.85,3.17-7.55,3.27-10.12,0.46c-2.72-2.99-2.58-8.78,0.28-11.35
		c3.12-2.8,7.86-2.02,9.68,1.65c1.47,2.96,1.57,5.21-2.82,4.76c-0.66-0.07-1.37-0.16-1.98,0.02c-1.43,0.44-4.23-1.34-4,1.76
		c0.18,2.52,2.42,3.27,4.85,3.12C270.33,351.88,271.35,350.45,273.17,351.54z"/>
	<path class="st17" d="M382.39,318.38c-4.14,3.34-7.81,3.42-10.36,0.6c-2.58-2.85-2.6-8.33-0.04-11c3.02-3.16,8.13-2.5,10.03,1.34
		c1.49,3.01,1.48,5.19-2.86,4.74c-0.66-0.07-1.37-0.16-1.98,0.02c-1.42,0.44-4.24-1.35-3.98,1.78c0.21,2.52,2.45,3.29,4.87,3.08
		C379.31,318.84,380.39,317.66,382.39,318.38z"/>
	<path class="st19" d="M315.71,313.62c-0.02-4.67,2.54-7.58,6.68-7.6c4.23-0.01,6.79,2.78,6.82,7.45c0.03,4.7-2.45,7.53-6.67,7.58
		C318.35,321.1,315.74,318.26,315.71,313.62z"/>
	<path class="st20" d="M274.28,314.05c1.05,6.72,5.43,4.69,9.45,3.85c-2.72,3.49-6.48,4.06-9.39,1.81
		c-2.79-2.15-3.58-7.89-1.36-10.91c2.16-2.94,5.03-3.72,8.29-1.9c2.27,1.26,3.31,3.46,2.75,5.9c-0.53,2.34-2.76,1.03-4.22,1.2
		C278.06,314.21,276.27,314.05,274.28,314.05z"/>
	<path class="st21" d="M332.34,313.32c-0.01-0.33-0.13-0.74,0.01-0.98c1.08-1.83-2.39-5.76,2.27-5.78c9.37-0.03,9.74,0.26,9.55,6.44
		c-0.08,2.6,1.24,7.48-1.02,7.36c-2.95-0.15-0.84-4.63-1.29-7.19c-0.4-2.29-0.05-5.14-3.37-4.96c-2.83,0.15-3.65,2.37-3.45,5.04
		c0.13,1.81,0.06,3.65,0,5.47c-0.03,0.92,0.24,2.17-1.23,2.2c-1.39,0.03-1.43-1.13-1.45-2.13
		C332.32,316.97,332.34,315.15,332.34,313.32z"/>
	<path class="st35" d="M295.7,307.88c-1.13,1.37-1.85,0.85-2.62,0.55c-1.51-0.58-3.2-0.73-3.8,1.06c-0.68,2.05,1.22,2.23,2.6,2.79
		c1.97,0.8,4.2,1.47,4.17,4.27c-0.02,2.09-1.13,3.63-2.98,4.16c-2.53,0.72-5.13,0.78-6.91-1.83c1.72-1.83,2.93,0.15,4.32,0.12
		c1.29-0.03,2.35-0.36,2.78-1.62c0.47-1.39-0.34-2.16-1.58-2.61c-0.31-0.11-0.6-0.32-0.91-0.39c-2.2-0.54-4.29-1.38-4.5-3.95
		c-0.14-1.74,0.88-3.21,2.59-3.89C291.32,305.57,293.61,305.69,295.7,307.88z"/>
	<path class="st19" d="M314.8,351.8c1.46-1.21,2.26-0.29,3.16-0.04c1.57,0.45,3.16,0.41,3.84-1.28c0.84-2.1-1.05-2.42-2.38-2.97
		c-2.14-0.88-4.59-1.44-4.47-4.54c0.07-1.7,1.02-2.82,2.5-3.42c2.45-1,4.71-0.83,6.88,1.46c-0.76,0.41-1.19,0.86-1.5,0.79
		c-1.87-0.41-4.3-1.87-5.13,0.81c-0.78,2.51,2.18,2.4,3.66,3.1c1.77,0.84,3.36,1.74,3.3,3.89c-0.05,2.01-1.32,3.51-3.17,4.08
		C319.08,354.41,316.63,354.54,314.8,351.8z"/>
	<path class="st36" d="M363.03,307c1.98-1.31,0.73-3.31,1.04-4.98c0.2-1.04,0.29-2.02,1.65-1.9c1.06,0.09,1.22,0.95,1.22,1.8
		c0.01,5.78,0.3,11.58-0.1,17.33c-0.26,3.72-2.52,0.58-3.87,0.57c-0.77-0.18-1.25-0.61-1.29-1.44c1.29-3.31,1.23-6.72,0.72-10.16
		C362.48,307.75,362.69,307.34,363.03,307z"/>
	<path class="st19" d="M392.96,306.78c-0.46,1.33-1.11,1.45-1.75,1.39c-1.55-0.15-3.31-0.27-3.64,1.6c-0.35,2.02,1.69,2.11,3,2.65
		c2.04,0.84,4.22,1.62,4.04,4.35c-0.13,2-1.44,3.44-3.31,3.96c-2.4,0.67-4.81,0.7-6.38-1.69c0.51-1.05,1.15-1.08,1.79-0.81
		c1.93,0.84,4.2,1.63,5.08-0.9c0.91-2.62-1.98-2.63-3.45-3.22c-2.76-1.11-4.47-2.86-2.93-5.65
		C387.13,305.32,389.97,305.58,392.96,306.78z"/>
	<path class="st15" d="M254.66,334.08c0.14,3.45,1.33,5.55,5.44,5.7c-6.81,1.15-4.52,5.93-4.61,9.54c-0.05,2.23,0.25,2.23,4.09,2.98
		c-1.15,2.09-2.94,2.04-4.66,1.45c-1.89-0.65-1.7-2.47-2.05-4.11c-0.63-2.99,2.02-6.64-1.74-9
		C253.03,338.94,252.98,336.25,254.66,334.08z"/>
	<path class="st37" d="M361.89,318.98c0.36,0.28,0.71,0.57,1.07,0.85c-2.7,1.99-5.42,1.89-7.32-0.83
		c-2.38-3.41-2.23-7.23,0.15-10.61c1.81-2.57,4.36-3.34,7.23-1.38c-0.05,0.47-0.09,0.95-0.13,1.42
		C356.82,310.57,356.93,315.45,361.89,318.98z"/>
	<path class="st38" d="M289.18,341.41c-2.15,3.18-0.77,6.77-1.16,10.16c-0.13,1.1,0.19,2.55-1.64,2.34
		c-1.37-0.15-1.22-1.34-1.24-2.29c-0.04-2.32-0.06-4.64-0.02-6.95c0.05-2.81-1.23-3.97-4.01-3.39c-0.44-0.4-0.47-0.82-0.1-1.28
		c1.56-1.54,3.36-1.45,4.68,0.01c1.35,1.49,2.24,0.34,3.34-0.03C289.5,340.4,289.55,340.88,289.18,341.41z"/>
	<path class="st39" d="M281.01,339.98c0.03,0.43,0.07,0.86,0.1,1.28c-2.47,3.09-0.88,6.72-1.33,10.08c-0.15,1.1,0.19,2.63-1.53,2.56
		c-1.79-0.07-1.19-1.68-1.23-2.69c-0.09-2.65,0.16-5.32-0.08-7.96C276.65,339.91,277.4,338.29,281.01,339.98z"/>
	<path class="st20" d="M289.18,341.41c-0.05-0.48-0.1-0.97-0.15-1.45c4.65-1.53,6.71-0.45,7.1,3.99c0.23,2.62,0.1,5.28,0.09,7.93
		c0,0.78,0.05,1.83-1,1.92c-1.48,0.13-1.33-1.14-1.35-2.07c-0.06-2.31,0.08-4.64-0.1-6.94
		C293.54,342.05,292.29,340.39,289.18,341.41z"/>
	<path class="st40" d="M312.29,301.99c-0.07,1.08-0.46,2.01-1.69,1.95c-1.18-0.06-1.64-0.96-1.57-2.08c0.05-0.91,0.51-1.58,1.45-1.7
		C311.79,300,312.13,300.92,312.29,301.99z"/>
	<path class="st15" d="M383.33,716.88c2.2-0.58,4.84-2.6,5.96,0.91c1.43,4.47-0.09,7.29-3.99,7.97c-4.7,0.82-9.13,0.13-11.82-4.3
		c-2.52-4.16-2.44-8.65,0.4-12.65c2.86-4.02,7.12-4.53,11.6-3.45c1.31,0.32,3.65,0.69,3.11,2.4c-0.73,2.33-2.56,0.25-3.61-0.16
		c-3.22-1.26-5.89-0.6-8.15,1.75c-2.77,2.87-2.44,6.47-1.44,9.83c0.87,2.92,3.3,4.58,6.39,4.7c2.05,0.08,4.42,0.29,5.14-2.6
		C387.69,718.16,385.19,718.02,383.33,716.88z"/>
	<path class="st41" d="M516.43,759.31c-1.03,1.95,0.67,5.35-1.57,5.29c-3.08-0.08-1.24-3.4-1.5-5.26c-0.31-2.27-0.07-4.63-0.07-6.94
		c0-7.41,0.85-8.23,7.77-7.45c3.53,0.4,5.57,4.11,4.9,8.93C525.26,758.87,522.3,760.59,516.43,759.31z"/>
	<path class="st34" d="M422.56,706.46c0.2,4,2.2,5.16,5.6,4.49c4.38-0.86,5.46,1.26,4.99,5.21c-0.29,2.46-0.03,4.98-0.08,7.47
		c-0.02,0.92,0.18,2.21-1.33,2.08c-1.04-0.09-1.03-1.13-1.04-1.93c-0.04-2.66-0.17-5.32,0-7.97c0.2-3.19-1.89-2.81-3.91-2.87
		c-2.05-0.06-3.92,0.18-3.36,2.82c0.66,3.07-2.8,8.12,4.3,8.34c-1.47,2.18-3.22,2.18-4.95,1.52c-1.6-0.61-1.63-2.2-1.9-3.73
		c-0.56-3.18,1.78-6.92-1.75-9.54C420.54,710.73,421.21,708.68,422.56,706.46z"/>
	<path class="st42" d="M452.98,718.05c0-0.17-0.06-0.36,0.01-0.49c0.93-1.98-2.04-5.91,1.9-6.07c9.61-0.38,10.12,0.19,9.96,7.02
		c-0.06,2.43,1.17,7.05-1.09,6.91c-3.63-0.23-0.99-4.52-1.59-6.97c-0.51-2.1,0.64-5.21-2.83-5.31c-3.33-0.09-3.42,2.56-3.73,5.24
		c-0.29,2.49,2.02,6.73-1.54,7.05c-2.09,0.19-0.59-4.47-1.09-6.89C452.95,718.39,452.98,718.21,452.98,718.05z"/>
	<path class="st17" d="M540.11,757.55c-2.34,2.86-5.2,3.07-8.18,1.67c-3.79-1.79-4.32-5.29-3.66-8.9c0.59-3.25,2.76-5.22,6.22-5.37
		c3.08-0.13,4.96,1.49,5.94,4.3c0.79,2.26,0.72,3.98-2.41,3.73c-0.82-0.06-1.77-0.26-2.46,0.04c-1.49,0.65-4.74-1.8-4.35,1.86
		c0.29,2.72,2.82,3.39,5.42,2.85C537.68,757.51,538.62,756.39,540.11,757.55z"/>
	<path class="st17" d="M565.33,757.57c-2.56,2.68-5.26,2.98-8.22,1.77c-3.02-1.24-3.93-3.86-4.04-6.83
		c-0.11-3.03,0.87-5.59,3.82-6.92c2.9-1.31,5.56-0.91,7.53,1.7c0.99,1.32,1.86,2.97,1.23,4.63c-0.7,1.84-2.57,0.78-3.92,1.05
		c-0.32,0.06-0.67-0.04-0.99,0.02c-1.54,0.26-3.41-0.78-4.58,0.76c-0.62,0.82,0.01,1.91,0.71,2.68c1.38,1.51,3.09,1.82,4.99,1.22
		C562.78,757.36,563.59,756.59,565.33,757.57z"/>
	<path class="st17" d="M404.37,723.57c-2.54,2.67-5.25,2.98-8.21,1.78c-3.03-1.23-3.94-3.86-4.05-6.83
		c-0.11-3.03,0.86-5.59,3.82-6.93c2.9-1.31,5.56-0.91,7.54,1.71c0.99,1.32,1.87,2.97,1.23,4.63c-0.71,1.83-2.58,0.77-3.92,1.04
		c-0.32,0.06-0.67-0.04-0.99,0.02c-1.54,0.27-3.42-0.8-4.57,0.78c-0.61,0.83,0.02,1.91,0.73,2.68c1.39,1.5,3.1,1.81,5,1.2
		C401.83,723.36,402.63,722.57,404.37,723.57z"/>
	<path class="st17" d="M591.12,723.58c-2.4,2.82-5.28,3.06-8.3,1.6c-3.55-1.71-4.12-5.03-3.64-8.47c0.46-3.28,2.47-5.4,5.9-5.73
		c3-0.28,5.04,1.07,6.19,3.91c1.2,2.95,0.56,4.45-2.87,4.1c-0.82-0.08-1.7-0.18-2.48,0.03c-1.34,0.36-3.86-1.26-3.8,1.49
		c0.05,2.57,2.18,3.4,4.62,3.41C588.16,723.93,589.34,722.16,591.12,723.58z"/>
	<path class="st17" d="M391.16,757.56c-2.39,2.83-5.27,3.06-8.29,1.61c-3.56-1.7-4.13-5.02-3.65-8.47c0.45-3.28,2.46-5.41,5.9-5.74
		c3-0.29,5.04,1.06,6.19,3.9c1.19,2.94,0.59,4.45-2.86,4.11c-0.82-0.08-1.7-0.18-2.48,0.03c-1.34,0.36-3.86-1.27-3.82,1.48
		c0.04,2.57,2.17,3.4,4.61,3.42C388.19,757.93,389.37,756.17,391.16,757.56z"/>
	<path class="st19" d="M487.18,752.62c-0.06,4.67-2.63,7.42-6.9,7.35c-4.16-0.07-6.66-2.98-6.59-7.67c0.07-4.63,2.73-7.47,6.91-7.36
		C484.79,745.05,487.23,747.9,487.18,752.62z"/>
	<path class="st19" d="M449.89,718.44c0.03,4.37-2.89,7.54-6.93,7.53c-4.24-0.01-6.92-2.91-6.89-7.46c0.03-4.55,2.73-7.55,6.83-7.58
		C446.93,710.92,449.86,714.07,449.89,718.44z"/>
	<path class="st20" d="M493.33,718.97c1.57,5.14,1.57,5.14,9.03,4.28c-2.38,3.06-6.14,3.63-9.05,1.38
		c-2.79-2.15-3.58-7.89-1.36-10.91c2.16-2.94,5.03-3.72,8.29-1.9c2.27,1.26,3.31,3.46,2.75,5.9c-0.53,2.34-2.76,1.03-4.22,1.2
		C497.02,719.13,495.23,718.97,493.33,718.97z"/>
	<path class="st20" d="M429.24,752.97c1.06,6.66,5.39,4.75,9.43,3.83c-2.66,3.51-6.4,4.09-9.34,1.84c-2.96-2.27-3.63-8.33-1.1-11.3
		c2.37-2.79,5.29-3.31,8.41-1.27c1.99,1.3,2.89,3.4,2.37,5.63c-0.55,2.36-2.76,1.04-4.21,1.22
		C433.05,753.13,431.25,752.97,429.24,752.97z"/>
	<path class="st20" d="M608.72,757.48c-3.88,3.13-7.62,3.23-10.22,0.45c-2.47-2.64-2.44-8.42,0.05-11.04
		c2.6-2.73,6.89-2.62,9.21,0.23c1.12,1.38,1.64,3.01,1.22,4.66c-0.54,2.11-2.48,0.87-3.78,1.18c-0.47,0.11-1.04-0.11-1.48,0.04
		c-1.43,0.5-4.2-1.39-4.14,1.46c0.05,2.67,2.35,3.77,5.08,3.4C605.89,757.67,606.96,756.32,608.72,757.48z"/>
	<path class="st20" d="M615.7,723.54c-2.7,3.26-5.89,3.08-9.08,1.26c-2.85-1.63-3.9-7.11-2.16-10.34c1.63-3.01,4.3-4.25,7.54-3.23
		c2.81,0.88,4.4,3.15,4.02,6.14c-0.37,2.9-2.87,1.2-4.39,1.58c-1.69,0.42-3.7-0.71-5.11,0.71c-0.33,0.33,0.21,1.97,0.77,2.66
		c1.58,1.91,3.64,2.07,5.84,1C613.88,722.94,614.67,722.7,615.7,723.54z"/>
	<path class="st21" d="M568.28,751.84c0-0.17-0.06-0.36,0.01-0.49c1.03-1.89-2.25-5.81,2.2-5.9c9.32-0.19,9.79,0.23,9.65,6.37
		c-0.06,2.64,0.96,7.66-0.91,7.47c-3.24-0.33-0.93-4.58-1.4-7.1c-0.43-2.27,0-5.18-3.28-5.06c-3.18,0.11-3.5,2.69-3.61,5.44
		c-0.1,2.43,1.12,7.06-1.03,6.86c-3.49-0.32-0.79-4.64-1.61-7.09C568.24,752.19,568.28,752.01,568.28,751.84z"/>
	<path class="st22" d="M538.22,714.79c2.18-3.84,4.69-4.27,7.33-3.66c2.66,0.61,3.53,2.76,3.52,5.33c0,0.66,0.02,1.33,0.02,1.99
		c0.08,7.03,0.08,7.03-6.53,7.51c-1.96,0.14-3.75-0.26-4.42-2.36c-0.74-2.32,0.42-3.82,2.53-4.69c0.77-0.31,1.58-0.5,2.36-0.78
		c1.42-0.51,4.23,0.6,3.25-2.74c-0.9-3.05-2.8-2.74-5.02-1.52C540.73,714.17,540.08,714.24,538.22,714.79z"/>
	<path class="st35" d="M627.51,712.82c-0.96,1.58-1.82,0.72-2.73,0.43c-1.55-0.49-3.23-0.45-3.66,1.4c-0.38,1.65,1.17,2.03,2.47,2.5
		c2.17,0.79,4.55,1.51,4.38,4.59c-0.1,1.87-1.12,3.22-2.76,3.81c-2.59,0.93-5.07,0.67-7.14-1.48c1.56-2.26,2.81-0.21,4.1-0.18
		c1.49,0.04,2.69-0.28,3.07-1.85c0.36-1.48-0.74-2.03-1.88-2.46c-0.46-0.18-0.93-0.36-1.4-0.51c-2.38-0.79-4.46-1.94-3.54-4.93
		c0.9-2.91,3.34-3.43,6.02-3.14C625.79,711.14,626.88,711.72,627.51,712.82z"/>
	<path class="st35" d="M406.61,723.71c2.98-1.54,6.58,2.44,7.54-1.58c0.79-3.3-3.21-2.45-4.87-3.73c-1.25-0.97-2.35-2-2.01-3.69
		c0.39-1.95,1.67-3.3,3.65-3.63c2.11-0.35,4.22-0.33,5.58,1.71c-0.78,1.63-1.66,0.82-2.57,0.51c-1.54-0.52-3.22-0.54-3.74,1.27
		c-0.47,1.64,1.03,2.09,2.35,2.57c2.17,0.78,4.57,1.45,4.49,4.52c-0.05,1.87-1.05,3.24-2.67,3.87
		C411.75,726.52,409.28,726.17,406.61,723.71z"/>
	<path class="st35" d="M620.42,747.23c-0.46,0.2-0.96,0.64-1.28,0.53c-1.72-0.57-3.83-1.78-4.78,0.5c-1.13,2.72,1.8,2.46,3.22,3.2
		c1.81,0.93,3.63,1.77,3.41,4.32c-0.16,1.86-1.15,3.23-2.79,3.78c-2.58,0.86-5.09,0.73-7.08-1.56c1.57-2.17,2.81-0.13,4.12-0.11
		c1.49,0.03,2.69-0.31,3.04-1.89c0.34-1.49-0.8-2.01-1.92-2.44c-0.46-0.18-0.93-0.35-1.4-0.51c-2.38-0.8-4.44-1.97-3.49-4.95
		c0.92-2.91,3.38-3.45,6.04-3.08C618.72,745.19,620.13,745.45,620.42,747.23z"/>
	<path class="st35" d="M450.45,747.23c-0.46,0.2-0.96,0.64-1.28,0.54c-1.72-0.57-3.83-1.78-4.78,0.49c-1.14,2.73,1.8,2.47,3.22,3.2
		c1.81,0.93,3.64,1.77,3.41,4.32c-0.16,1.86-1.15,3.23-2.79,3.78c-2.58,0.86-5.09,0.73-7.09-1.56c1.57-2.16,2.82-0.13,4.12-0.1
		c1.5,0.03,2.69-0.32,3.05-1.89c0.34-1.49-0.79-2.01-1.92-2.44c-0.46-0.18-0.93-0.35-1.4-0.51c-2.38-0.8-4.45-1.96-3.51-4.95
		c0.92-2.91,3.37-3.46,6.04-3.09C448.75,745.19,450.15,745.45,450.45,747.23z"/>
	<path class="st43" d="M396.74,739.96c1.55,4.53,1.55,4.53,5.96,6.04c-7.16,1.19-4.12,6.2-4.64,9.85c-0.08,0.53,0.35,1.24,0.73,1.72
		c0.69,0.87,2.91-0.87,2.7,1.46c-0.03,0.37-1.36,0.79-2.14,0.9c-1.63,0.24-2.97-0.4-3.64-1.95c-0.32-0.73-0.32-1.6-0.53-2.39
		c-0.79-2.98,1.52-6.35-1.53-9.29C393.09,745.75,396.61,742.76,396.74,739.96z"/>
	<path class="st19" d="M515.01,712.96c-0.69,0.89-1.29,0.92-1.96,0.63c-1.62-0.71-3.52-1.26-4.32,0.73
		c-0.98,2.43,1.52,2.44,2.89,3.04c2.03,0.89,4.21,1.67,3.97,4.41c-0.17,1.99-1.5,3.44-3.38,3.92c-2.41,0.62-4.83,0.65-6.38-1.85
		c0.89-1.13,1.67-0.8,2.43-0.47c1.87,0.83,3.85,1.06,4.55-1.22c0.73-2.4-1.79-2.42-3.15-2.99c-1.94-0.81-3.71-1.57-3.76-4.04
		c-0.04-1.93,1.06-3.2,2.74-3.76C511.04,710.57,513.39,710.48,515.01,712.96z"/>
	<path class="st36" d="M484.01,711.93c1.98-1.31,0.73-3.31,1.04-4.98c0.2-1.04,0.29-2.02,1.65-1.9c1.06,0.09,1.22,0.95,1.22,1.8
		c0.01,5.78,0.3,11.58-0.1,17.33c-0.26,3.72-2.52,0.58-3.87,0.57c-0.77-0.18-1.25-0.61-1.29-1.44c1.29-3.31,1.23-6.72,0.72-10.16
		C483.45,712.68,483.67,712.27,484.01,711.93z"/>
	<path class="st44" d="M472.25,747.81c-4.98-1.12-9.16-1.17-8.93,4.89c0.23,5.81,4.18,5.56,9.59,3.81c-3.77,4.2-6.82,4.36-9.93,1.93
		c-2.9-2.27-3.08-8.54-0.57-11.41C464.91,744.18,468.43,744.24,472.25,747.81z"/>
	<path class="st44" d="M535.74,723.3c-2.83,3.26-5.89,3.72-8.99,0.95c-2.78-2.48-2.75-8.68-0.14-11.41c2.46-2.57,5.5-2.51,9.32,0.45
		c-2.66,0.79-5.84-1.7-7.6,1.45c-0.81,1.45-1.3,3.04-0.98,4.78C528.3,724.62,531.68,724.4,535.74,723.3z"/>
	<path class="st43" d="M593.8,747.33c-3.84-0.6-7.27-1.04-7.87,4.08c-0.56,4.73,0.77,5.76,7.88,6.13c-2.73,2.96-6.17,3.23-8.72,0.69
		c-2.73-2.72-2.86-8.74,0.05-11.39C588,744.24,591.09,743.83,593.8,747.33z"/>
	<path class="st15" d="M546.37,738.89c1.41,3.5,0.01,7.88,5.99,6.33c-6.97,1.84-4.8,6.59-4.94,10.34c-0.1,2.64,1.87,2.61,4.52,1.63
		c-1.46,3.08-3.21,2.99-4.9,2.55c-1.4-0.37-1.89-1.56-2.15-3c-0.63-3.49,1.66-7.5-1.83-10.47
		C544.89,744.68,545.04,742.21,546.37,738.89z"/>
	<path class="st25" d="M420.49,757.83c-2.17,2.45-4.83,3.15-7.38,1.05c-3.28-2.7-2.75-6.57-1.68-10.05
		c0.83-2.71,3.08-4.23,6.15-3.84c1.13,0.14,2.23,0.47,3.34,0.72c0.73,1.08,0.08,1.79-0.67,2.48c-0.6,0.26-1.25,0.32-1.89,0.37
		c-2.96,0.23-3.9,2.13-3.54,4.72c0.51,3.71,3.1,2.97,5.55,2.34C421.9,756.26,422.02,757,420.49,757.83z"/>
	<path class="st37" d="M484.01,711.93c-0.05,0.47-0.09,0.95-0.14,1.42c-6.07,2.14-5.96,7.02-1,10.55c0.36,0.28,0.71,0.57,1.07,0.85
		c-2.7,1.99-5.42,1.89-7.32-0.83c-2.38-3.41-2.23-7.23,0.15-10.61C478.59,710.74,481.14,709.97,484.01,711.93z"/>
	<path class="st26" d="M501.07,746.98c1.33-2.28,3.43-2.47,5.59-1.77c2.34,0.76,3.13,2.81,3.23,5.07c0.1,2.47,0.05,4.94,0.03,7.42
		c-0.01,0.98,0,2.12-1.37,2.17c-1.39,0.05-1.45-1.06-1.47-2.06c-0.03-2.31,0.02-4.62-0.04-6.92c-0.09-3.69-1.67-4.84-5.02-2.86
		C501.48,747.89,501.16,747.54,501.07,746.98z"/>
	<path class="st27" d="M501.07,746.98c0.32,0.35,0.64,0.7,0.96,1.05c-0.13,2.97-0.23,5.93-0.41,8.9c-0.07,1.2,0.44,3.01-1.64,2.88
		c-1.71-0.1-1.16-1.72-1.2-2.75c-0.09-2.14,0-4.3-0.05-6.44c-0.05-2.33-1.07-3.77-3.64-3.61c-0.99,0.45-1.11-0.11-1.04-0.9
		C496.77,743.31,498.83,745.83,501.07,746.98z"/>
	<path class="st28" d="M494.04,746.1c0.35,0.3,0.7,0.6,1.04,0.9c-3.47,2.84-1.49,6.76-2.03,10.17c-0.16,1.01,0.52,2.59-1.25,2.68
		c-1.69,0.09-1.55-1.37-1.56-2.49c-0.03-3.13,0.09-6.27-0.05-9.39C490.04,744.16,491.85,744.83,494.04,746.1z"/>
	<path class="st0" d="M420.49,757.83c0.14-0.7,0.28-1.39,0.43-2.09c-1.63-2.51-1.86-5.17-0.86-7.96c0.29-0.69,0.57-1.39,0.86-2.08
		c0.51-2.17-1.6-5.87,1.37-6.16c1.78-0.17,0.74,3.96,0.86,6.12c0.22,3.98,0.08,7.97,0.04,11.96c-0.01,0.9,0.22,2.28-1.3,2.03
		C421.33,759.58,420.95,758.47,420.49,757.83z"/>
	<path class="st45" d="M576.13,719.04c-0.71,1.94,1.16,6.55-1.12,6.42c-3.62-0.2-1.09-4.48-1.64-6.92c-0.39-1.72-0.09-3.59-0.05-5.4
		c0.02-1,0.13-2.11,1.48-2.1c1.41,0.02,1.29,1.21,1.31,2.15C576.16,715,576.13,716.81,576.13,719.04z"/>
	<path class="st46" d="M566.36,714.14c-1.09,3.08-0.47,6.28-0.65,9.42c-0.06,0.99,0.01,2.14-1.32,2.29
		c-1.53,0.17-1.41-1.08-1.42-2.02c-0.03-3.66-0.14-7.34,0.03-10.99c0.14-3,1.14-2.08,2.09-0.27
		C565.37,713.2,566.13,713.46,566.36,714.14z"/>
	<path class="st46" d="M556.36,714.14c-1.09,3.08-0.47,6.28-0.65,9.42c-0.06,0.99,0.01,2.14-1.32,2.29
		c-1.53,0.17-1.41-1.08-1.42-2.02c-0.03-3.66-0.14-7.34,0.03-10.99c0.14-3,1.14-2.08,2.09-0.27
		C555.37,713.2,556.13,713.46,556.36,714.14z"/>
	<path class="st46" d="M598.35,714.14c-1.09,3.08-0.47,6.28-0.65,9.42c-0.06,0.99,0.01,2.14-1.32,2.29
		c-1.53,0.17-1.41-1.08-1.42-2.02c-0.03-3.66-0.14-7.34,0.03-10.99c0.14-3,1.14-2.08,2.09-0.27
		C597.36,713.2,598.12,713.46,598.35,714.14z"/>
	<path class="st30" d="M576.68,707.07c-0.3,1.01-0.74,1.91-1.93,1.78c-1.11-0.12-1.68-0.96-1.59-2.02c0.09-1.03,0.68-1.87,1.85-1.76
		C576.15,705.18,576.58,706.04,576.68,707.07z"/>
	<path class="st47" d="M538.19,739.12c-1.28,1.95-2.01,3.69-5.22,3.87C534.34,740.8,534.5,738.56,538.19,739.12z"/>
	<path class="st40" d="M431.6,708.9c-1.17-0.21-1.69-0.96-1.6-2.09c0.09-1.13,0.69-1.85,1.9-1.71c1,0.11,1.29,0.93,1.33,1.78
		C433.29,707.98,432.82,708.77,431.6,708.9z"/>
	<path class="st48" d="M598.35,714.14c-0.42-0.52-0.85-1.05-1.27-1.57c1.88-0.41,3.45-2.9,5.91-0.78
		C601.94,713.71,599.45,712.64,598.35,714.14z"/>
	<path class="st48" d="M566.36,714.14c-0.42-0.52-0.85-1.05-1.27-1.57c1.88-0.41,3.45-2.9,5.91-0.78
		C569.95,713.71,567.45,712.64,566.36,714.14z"/>
	<path class="st49" d="M587.02,709c-2.67-0.33-3.44-2.05-4.93-3.82C585.56,704.62,586.13,706.57,587.02,709z"/>
	<path class="st48" d="M556.36,714.14c-0.42-0.52-0.85-1.05-1.27-1.57c1.88-0.41,3.45-2.9,5.91-0.78
		C559.95,713.71,557.46,712.64,556.36,714.14z"/>
	<path class="st50" d="M538.6,541.85c-4.55,0.35-4.7-3.61-6.65-5.5c-1.23-1.19-1.61-3.87-3.88-3.16c-2.33,0.73-0.73,3.15-1.18,4.75
		c-0.39,1.39,0.98,3.99-1.62,3.83c-2.41-0.15-1.16-2.66-1.22-4.07c-0.17-3.98-0.18-7.97,0-11.94c0.07-1.59-1.18-4.27,1.32-4.56
		c3.5-0.41,7.39-1.22,10.35,1.86c1.71,1.77,2.23,4.68,0.75,5.91c-5.53,4.62-1,7.66,1.19,11.15
		C537.92,540.53,538.13,540.98,538.6,541.85z"/>
	<path class="st17" d="M557.95,531.8c0,2.65,0.01,5.31-0.01,7.96c-0.01,0.98,0.03,2.1-1.38,2.15c-1.42,0.05-1.47-1.02-1.5-2.04
		c-0.03-0.83-0.13-1.68,0-2.48c0.71-4.25-0.75-5.59-5.27-5.57c-4.6,0.03-6.33,1.32-5.58,5.82c0.13,0.81,0.03,1.66-0.01,2.48
		c-0.04,0.84-0.14,1.7-1.26,1.76c-1,0.05-1.55-0.53-1.55-1.48c-0.02-5.97-0.02-11.94,0.02-17.91c0.01-0.95,0.65-1.44,1.64-1.37
		c0.86,0.06,1.03,0.69,1.11,1.36c0.06,0.49-0.03,1.01,0.08,1.49c0.43,1.95-1.3,4.92,1.25,5.71c2.58,0.79,5.68,0.66,8.36,0.07
		c2.34-0.52,0.74-3.13,1.21-4.74c0.39-1.36-1.09-3.89,1.61-3.8c2.18,0.07,1.16,2.34,1.25,3.63
		C558.07,527.14,557.95,529.47,557.95,531.8z"/>
	<path class="st32" d="M464.63,464.73c2.51,0.22,5.75-2.99,6.29,1.57c0.43,3.63,0.44,7.12-4.57,7.63
		c-4.79,0.49-8.98-0.39-11.66-4.83c-2.39-3.95-1.92-9.88,1.21-13.01c3.39-3.39,7.56-3.91,11.97-2.39c1.05,0.36,3.11,0.56,2.14,2.47
		c-0.83,1.64-1.99,0.05-2.94-0.29c-5.23-1.83-8.77-0.37-10.35,4.35c-1.72,5.13,0.37,10.1,4.88,11.42c2.31,0.68,5.02,0.92,6.26-1.41
		C469.16,467.8,468.35,465.47,464.63,464.73z"/>
	<path class="st51" d="M509.3,497.44c0-1.49-0.22-3.02,0.05-4.46c0.39-2.02-1.58-5.35,1.69-5.8c3.75-0.52,8.16-1.37,10.94,2.65
		c2.77,4,0.26,9.74-4.78,9.98c-4.07,0.19-5.71,1.28-5.04,5.39c0.16,0.97,0.5,2.64-1.27,2.66c-2.07,0.03-1.54-1.76-1.58-2.96
		C509.25,502.41,509.3,499.93,509.3,497.44z"/>
	<path class="st34" d="M508.73,472.04c-4.8,2.95-6.3,2.09-6.9-2.41c-0.4-3.02,1.85-6.49-1.53-9.26c-0.37-0.3,2.24-3.33,2.83-5.98
		c0.69,5.5,4.45,4.82,7.85,4.58c2.37-0.16,3.26,0.68,3.14,3.09c-0.17,3.31-0.03,6.64-0.07,9.96c-0.01,0.78,0.05,1.8-1.16,1.77
		c-1.13-0.03-1.18-0.98-1.2-1.79c-0.05-2.32-0.18-4.66,0-6.97c0.21-2.82-0.42-4.13-3.73-4.15c-3.48-0.03-4.13,1.66-3.52,4.23
		C505.05,467.71,501.58,472.72,508.73,472.04z"/>
	<path class="st17" d="M470.15,505.56c-2.37,2.89-5.22,3.1-8.2,1.7c-3.79-1.78-4.32-5.29-3.67-8.89c0.59-3.25,2.75-5.23,6.21-5.37
		c3.08-0.13,4.96,1.48,5.94,4.29c0.79,2.26,0.74,3.97-2.4,3.74c-0.99-0.07-2.04-0.2-2.97,0.04c-1.37,0.34-3.86-1.3-3.92,1.38
		c-0.06,2.58,2.07,3.45,4.51,3.53C467.1,506.02,468.26,504.29,470.15,505.56z"/>
	<path class="st17" d="M556.57,504.89c-1.83,3.36-4.51,3.73-7.48,2.49c-3.01-1.25-3.92-3.88-4.02-6.84
		c-0.11-3.03,0.88-5.59,3.84-6.91c2.9-1.3,5.56-0.9,7.53,1.73c0.99,1.32,1.87,2.97,1.21,4.63c-0.72,1.81-2.58,0.76-3.93,1.03
		c-0.32,0.06-0.67-0.04-0.99,0.02c-1.54,0.27-3.41-0.8-4.56,0.78c-0.6,0.83,0.03,1.91,0.74,2.68c1.39,1.5,3.1,1.78,5,1.21
		C554.79,505.43,555.68,505.16,556.57,504.89z"/>
	<path class="st18" d="M487.25,495.6c1.95-2.67,4.49-3.16,7.13-2.31c2.77,0.89,3.31,3.45,3.45,6.04c0.04,0.66,0.07,1.33,0,1.98
		c-0.2,2.1,0.52,4.27-0.49,6.31c-2.71-1.43-5.26,0.82-7.93,0.33c-1.64-0.3-2.64-1.37-3.06-2.9c-0.4-1.47,0.46-2.61,1.57-3.38
		c0.93-0.64,2.09-0.94,3.13-1.43c1.47-0.69,4.72,0.74,3.8-2.82c-0.9-3.5-3.26-2.41-5.46-1.33
		C488.77,496.41,488.15,496.47,487.25,495.6z"/>
	<path class="st19" d="M517.68,466.37c0.06-4.63,2.72-7.48,6.89-7.38c4.19,0.1,6.64,2.95,6.59,7.67c-0.05,4.67-2.62,7.42-6.89,7.36
		C520.12,473.96,517.62,471.05,517.68,466.37z"/>
	<path class="st20" d="M485.85,471.5c-4.06,3.18-7.79,3.24-10.36,0.45c-2.29-2.5-2.4-8.03-0.21-10.68c2.54-3.06,7.12-3.08,9.54-0.06
		c1.11,1.38,1.63,3.03,1.17,4.66c-0.58,2.06-2.51,0.81-3.82,1.13c-0.47,0.11-1.04-0.11-1.48,0.04c-1.41,0.5-4.19-1.41-4.08,1.5
		c0.1,2.68,2.4,3.76,5.12,3.33C482.96,471.68,484.05,470.46,485.85,471.5z"/>
	<path class="st20" d="M443.25,535.01c1.05,6.75,5.46,4.65,9.47,3.85c-2.76,3.49-6.52,4.05-9.42,1.8c-2.78-2.16-3.57-7.9-1.34-10.91
		c2.17-2.93,5.04-3.7,8.3-1.88c2.27,1.27,3.3,3.47,2.73,5.91c-0.54,2.33-2.77,1.01-4.23,1.19
		C447.02,535.17,445.23,535.01,443.25,535.01z"/>
	<path class="st20" d="M500.83,539.4c-2.21,3.07-5.08,3.13-7.96,2.1c-3.55-1.26-4.23-4.37-4.15-7.72c0.08-3.12,1.46-5.56,4.47-6.51
		c3-0.95,5.62,0,7.21,2.87c1.76,3.16,0.78,4.79-2.85,4.87c-1.98,0.04-3.96,0.01-6,0.01C492.49,539.71,492.49,539.71,500.83,539.4z"
		/>
	<path class="st21" d="M534.29,466.38c0-0.33-0.12-0.73,0.02-0.98c1.06-1.88-2.34-5.81,2.2-5.88c9.36-0.15,9.78,0.22,9.63,6.39
		c-0.06,2.63,1.02,7.63-0.94,7.45c-3.18-0.29-0.91-4.59-1.38-7.12c-0.42-2.28-0.01-5.15-3.3-5.05c-2.81,0.09-3.72,2.27-3.53,4.97
		c0.13,1.81,0.06,3.65,0,5.47c-0.03,0.9,0.3,2.17-1.16,2.27c-1.37,0.09-1.51-1.01-1.53-2.03c-0.03-1.82-0.01-3.65-0.01-5.47
		C534.3,466.38,534.3,466.38,534.29,466.38z"/>
	<path class="st22" d="M524.58,495.84c2.03-2.84,4.52-3.34,7.17-2.63c2.63,0.71,3.38,2.94,3.34,5.48c-0.01,0.66,0.01,1.33,0.01,1.99
		c0.06,6.51,0.06,6.54-6.22,7.28c-2.11,0.25-4.12-0.1-4.79-2.51c-0.65-2.36,1.05-3.31,2.64-4.71c1.71-1.51,6.61,1.45,5.41-3.48
		C530.97,492.47,527.53,496.94,524.58,495.84z"/>
	<path class="st35" d="M497.67,460.94c-1.5,1.54-2.31,0.41-3.19,0.24c-1.44-0.27-2.88-0.16-3.29,1.38c-0.46,1.69,0.99,2.12,2.3,2.59
		c2.16,0.78,4.57,1.43,4.53,4.49c-0.03,1.87-1.01,3.27-2.63,3.89c-2.58,0.99-5.11,0.89-7.17-1.42c1.11-2.03,2.26-0.59,3.38-0.32
		c1.58,0.39,3.11,0.26,3.67-1.55c0.53-1.75-0.94-2.23-2.16-2.76c-0.15-0.07-0.3-0.14-0.46-0.18c-2.21-0.54-4.27-1.42-4.38-4.03
		c-0.08-1.76,0.98-3.2,2.69-3.82C493.37,458.57,495.67,458.66,497.67,460.94z"/>
	<path class="st35" d="M503.17,539.78c1.73-1.75,2.93,0.24,4.33,0.18c1.3-0.05,2.35-0.41,2.75-1.68c0.44-1.39-0.42-2.15-1.65-2.59
		c-0.31-0.11-0.6-0.31-0.91-0.39c-2.2-0.54-4.28-1.4-4.44-3.99c-0.11-1.75,0.93-3.19,2.64-3.86c2.46-0.96,4.71-0.68,6.69,1.18
		c-0.35,0.57-0.5,1.05-0.7,1.08c-1.91,0.24-4.63-2.26-5.58,0.8c-0.9,2.89,2.52,2.35,4.01,3.27c1.68,1.04,3,2.07,2.69,4.27
		c-0.25,1.84-1.34,3.21-3,3.63C507.48,542.33,504.87,542.48,503.17,539.78z"/>
	<path class="st43" d="M464.21,540.81c-3.56,1.92-5.93,1.62-6.94-2.02c-0.95-3.44,1.5-7.51-1.89-10.54
		c1.63-1.74,2.97-3.63,2.56-7.49c2.74,3.01,1.18,7.84,6.55,6.7c-6.48,1.78-4.15,6.51-4.5,10.22
		C459.7,540.71,462.67,539.22,464.21,540.81z"/>
	<path class="st23" d="M480.96,497.4c0-2.8-0.02-5.61,0.01-8.41c0.01-0.77-0.11-1.76,1.04-1.88c1.31-0.14,1.71,0.75,1.72,1.83
		c0.03,5.61,0.03,11.21,0.01,16.82c0,1.01-0.12,2.12-1.44,2.16c-1.45,0.05-1.33-1.17-1.34-2.11
		C480.93,503.01,480.95,500.21,480.96,497.4z"/>
	<path class="st25" d="M452.48,505.88c-2.17,2.45-4.83,3.15-7.38,1.05c-3.28-2.7-2.75-6.57-1.68-10.05
		c0.83-2.71,3.08-4.23,6.15-3.84c1.13,0.14,2.23,0.47,3.34,0.72c0.73,1.08,0.08,1.79-0.67,2.48c-0.6,0.26-1.25,0.32-1.89,0.37
		c-2.96,0.23-3.9,2.13-3.54,4.72c0.51,3.71,3.1,2.97,5.55,2.34C453.89,504.3,454.01,505.04,452.48,505.88z"/>
	<path class="st25" d="M482.47,539.87c-2.17,2.45-4.83,3.15-7.38,1.05c-3.28-2.7-2.75-6.57-1.68-10.05
		c0.83-2.71,3.08-4.23,6.15-3.84c1.13,0.14,2.23,0.47,3.34,0.72c0.73,1.08,0.08,1.79-0.67,2.48c-0.6,0.26-1.25,0.32-1.89,0.37
		c-2.96,0.23-3.9,2.13-3.54,4.72c0.51,3.71,3.1,2.97,5.55,2.34C483.89,538.3,484.01,539.04,482.47,539.87z"/>
	<path class="st0" d="M452.48,505.88c0.14-0.7,0.28-1.39,0.43-2.09c-1.63-2.51-1.86-5.17-0.86-7.96c0.29-0.69,0.57-1.39,0.86-2.08
		c0.51-2.17-1.6-5.87,1.37-6.16c1.78-0.17,0.74,3.96,0.86,6.12c0.22,3.98,0.08,7.97,0.04,11.96c-0.01,0.9,0.22,2.28-1.3,2.03
		C453.32,507.62,452.94,506.52,452.48,505.88z"/>
	<path class="st0" d="M482.04,529.83c0.29-0.69,0.57-1.39,0.86-2.08c0.51-2.17-1.6-5.87,1.37-6.16c1.78-0.17,0.74,3.96,0.86,6.12
		c0.22,3.98,0.08,7.97,0.04,11.96c-0.01,0.9,0.22,2.29-1.3,2.03c-0.55-0.09-0.93-1.19-1.39-1.83c0.14-0.7,0.28-1.39,0.43-2.09
		C481.27,535.28,481.04,532.62,482.04,529.83z"/>
	<path class="st0" d="M539.08,499.82c0.79-1.86-1.45-6.29,1.28-6.29c2.88,0,1.01,4.32,1.36,6.71c0.29,1.94,0.05,3.96,0.03,5.94
		c-0.01,0.9-0.32,1.67-1.34,1.7c-1.08,0.04-1.31-0.78-1.32-1.66C539.07,504.24,539.08,502.26,539.08,499.82z"/>
	<path class="st40" d="M540.6,490.91c-1.37,0.03-1.79-0.8-1.83-1.88c-0.03-0.86,0.27-1.67,1.22-1.86c1.21-0.25,1.86,0.45,2,1.56
		C542.13,489.82,541.68,490.64,540.6,490.91z"/>
	<path class="st40" d="M512.43,456.91c-1.21-0.26-1.58-1.14-1.43-2.21c0.15-1.11,0.84-1.8,2.04-1.52c0.92,0.22,1.24,1.03,1.18,1.9
		C514.15,456.15,513.74,456.99,512.43,456.91z"/>
	<path class="st52" d="M738.81,311.78c1.05-2.98,2.56-4.35,5.34-3.4c1.11,0.38,2.47,1.69,1.7,2.58
		C744.03,313.11,741.51,311.82,738.81,311.78z"/>
	<path class="st53" d="M696.89,349.91c-0.56,1.59-2.04,2.07-3.78,2.05c-1.08-0.01-2.18-0.58-1.97-1.68
		c0.39-2.06,2.38-1.93,3.92-2.19C696.09,347.92,697.09,348.17,696.89,349.91z"/>
	<path class="st9" d="M650.45,346.45c-0.24,2.6-0.58,5.47-4.12,5.46c-3.17-0.01-3.99-2.66-4.04-5.19c-0.04-2.72,0.7-5.55,4.15-5.57
		C649.65,341.12,650.18,343.77,650.45,346.45z"/>
	<path class="st9" d="M730.43,346.57c-0.23,2.5-0.59,5.36-4.13,5.34c-3.17-0.02-3.99-2.68-4.02-5.21c-0.04-2.72,0.72-5.56,4.16-5.55
		C729.6,341.15,730.22,343.75,730.43,346.57z"/>
	<path class="st54" d="M693.02,313.62c-0.13,2.72-0.81,5.25-3.99,5.29c-3.51,0.05-4.18-2.6-4.17-5.5c0.01-2.72,0.75-5.2,3.92-5.25
		C692.31,308.09,692.91,310.81,693.02,313.62z"/>
	<path class="st55" d="M647.96,311.15c-1.11,1.2-2.17,0.94-3.08,0.85c-1.38-0.14-3.13,0.82-4.07-0.66c-0.52-0.82,0.3-1.86,1.16-2.48
		c1.74-1.24,3.4-1.16,4.87,0.42C647.26,309.74,647.5,310.38,647.96,311.15z"/>
	<path class="st56" d="M617.54,349.5c-0.47,1.83-1.93,2.39-3.63,2.51c-1.21,0.08-2.58-0.31-2.3-1.71c0.38-1.89,2.32-2,3.88-2.23
		C616.45,347.92,617.5,348.01,617.54,349.5z"/>
	<path class="st57" d="M729.99,308.87c1.48,2.52,0.51,5.31,0.86,7.96c-1.8,1.5-3.78,3.55-6.03,1.31c-2.19-2.19-2.11-5.2-0.76-7.91
		C725.4,307.58,727.62,307.61,729.99,308.87z"/>
	<path class="st58" d="M302.69,345.93c-0.23-2.22,0.32-4.76,3.6-4.76c3.41,0,3.61,2.95,3.59,5.43c-0.02,2.6-0.79,5.24-3.97,5.3
		C302.13,351.96,302.8,348.87,302.69,345.93z"/>
	<path class="st52" d="M263.9,344.78c1.02-2.98,2.52-4.35,5.32-3.41c1.11,0.37,2.48,1.67,1.72,2.57
		C269.13,346.12,266.6,344.8,263.9,344.78z"/>
	<path class="st52" d="M376.44,312.07c-1.06-0.49-3.17,0.86-3.13-1.19c0.03-1.7,1.64-2.86,3.56-2.79c1.63,0.06,3.2,0.81,3.09,2.56
		C379.81,313,377.66,311.59,376.44,312.07z"/>
	<path class="st9" d="M326.51,313.58c-0.25,2.53-0.62,5.4-4.17,5.34c-3.16-0.06-3.96-2.72-3.98-5.25c-0.02-2.72,0.75-5.55,4.2-5.51
		C325.72,308.19,326.29,310.81,326.51,313.58z"/>
	<path class="st55" d="M281.64,311.78c-0.85,0.08-1.8,0.31-2.72,0.23c-1.38-0.12-3.19,0.77-4.02-0.71c-0.6-1.07,0.52-2.14,1.58-2.74
		c1.65-0.93,3.18-0.69,4.46,0.73C281.5,309.91,281.92,310.62,281.64,311.78z"/>
	<path class="st59" d="M361.89,318.98c-4.63,0.37-5.12-2.67-4.9-6.11c0.23-3.67,2.03-5.5,5.9-4.45
		C364.84,312.16,365.08,315.73,361.89,318.98z"/>
	<path class="st9" d="M516.05,752.34c-0.33-2.83,0.51-5.22,3.68-5.24c3.54-0.02,3.38,2.94,3.41,5.45c0.03,2.72-0.68,5.25-3.89,5.24
		C515.64,757.79,515.93,754.88,516.05,752.34z"/>
	<path class="st52" d="M530.9,750.76c0.91-3.01,2.41-4.36,5.21-3.49c1.12,0.35,2.51,1.62,1.8,2.53
		C536.14,752.1,533.57,750.66,530.9,750.76z"/>
	<path class="st52" d="M555.65,751.43c1.19-3.7,2.7-5.06,5.49-4.14c1.11,0.36,2.46,1.57,1.76,2.57
		C561.11,752.41,558.51,750.11,555.65,751.43z"/>
	<path class="st52" d="M394.87,716.71c1.05-2.98,2.56-4.35,5.34-3.4c1.11,0.38,2.47,1.69,1.7,2.58
		C400.09,718.03,397.57,716.74,394.87,716.71z"/>
	<path class="st52" d="M585.37,717c-1.03-0.51-3.16,0.89-3.09-1.22c0.06-1.71,1.66-2.84,3.59-2.75c1.63,0.08,3.2,0.84,3.06,2.59
		C588.73,717.91,586.6,716.52,585.37,717z"/>
	<path class="st52" d="M381.88,750.85c1.07-3.22,2.62-4.37,5.16-3.61c1.15,0.34,2.54,1.57,1.92,2.48
		C387.26,752.18,384.62,750.57,381.88,750.85z"/>
	<path class="st9" d="M476.2,752.63c0.39-2.61,0.76-5.51,4.23-5.56c3.21-0.05,3.95,2.58,3.98,5.16c0.04,2.73-0.5,5.57-4.02,5.61
		C477.2,757.88,476.7,755.17,476.2,752.63z"/>
	<path class="st54" d="M447.07,718.64c-0.15,2.68-0.86,5.2-4.05,5.2c-3.51,0-4.13-2.68-4.11-5.56c0.02-2.73,0.8-5.18,3.98-5.19
		C446.41,713.07,446.97,715.8,447.07,718.64z"/>
	<path class="st55" d="M496.99,717c-1.11-0.43-3.11,0.82-3.19-1.12c-0.08-1.82,1.52-2.85,3.4-2.88c1.93-0.04,3.55,1.15,3.4,2.85
		C500.42,717.95,498.2,716.51,496.99,717z"/>
	<path class="st55" d="M433.04,751c-1.11-0.42-3.1,0.81-3.21-1.1c-0.11-1.84,1.5-2.85,3.36-2.91c1.94-0.06,3.57,1.14,3.44,2.82
		C436.48,751.94,434.25,750.52,433.04,751z"/>
	<path class="st55" d="M602.54,751.02c-1-0.4-2.8,0.69-2.78-1.12c0.03-1.86,1.53-2.86,3.4-2.91c1.93-0.05,3.63,1.17,3.41,2.82
		C606.25,752.19,603.84,750.38,602.54,751.02z"/>
	<path class="st55" d="M609.97,717c-1.1-0.43-3.11,0.82-3.19-1.12c-0.08-1.82,1.52-2.85,3.4-2.88c1.93-0.04,3.55,1.15,3.4,2.85
		C613.4,717.95,611.18,716.51,609.97,717z"/>
	<path class="st56" d="M546.53,721.56c-0.67,1.82-2.13,2.35-3.84,2.38c-1.25,0.02-2.51-0.52-2.02-1.92c0.6-1.73,2.45-1.9,4.05-2.03
		C545.77,719.9,546.67,720.19,546.53,721.56z"/>
	<path class="st59" d="M482.87,723.9c-4.63,0.37-5.12-2.67-4.9-6.11c0.23-3.67,2.03-5.5,5.9-4.45
		C485.82,717.08,486.05,720.65,482.87,723.9z"/>
	<path class="st57" d="M420.05,747.79c1.48,2.52,0.51,5.31,0.86,7.96c-1.8,1.5-3.78,3.55-6.03,1.31c-2.19-2.19-2.12-5.2-0.76-7.91
		C415.45,746.5,417.68,746.53,420.05,747.79z"/>
	<path class="st60" d="M527.09,527.59c-0.53-3.42-0.02-4.94,2.9-4.61c2.44,0.27,4.22,1.02,4.16,3.85c-0.06,3-1.97,3.93-4.58,4.14
		C525.65,531.31,527.27,528.33,527.09,527.59z"/>
	<path class="st52" d="M512.24,494.01c-0.07-2.86-0.65-5.41,3.18-5.03c2.9,0.29,4.69,1.46,4.66,4.56c-0.03,3.15-2.01,4.18-4.81,4.46
		C511.28,498.41,512.35,495.54,512.24,494.01z"/>
	<path class="st52" d="M460.55,499.38c1.37-3.51,2.78-4.88,5.36-4.13c1.32,0.38,2.87,1.72,1.94,2.86
		C466.18,500.14,463.57,498.44,460.55,499.38z"/>
	<path class="st52" d="M547.85,498.75c1.02-2.98,2.52-4.35,5.32-3.41c1.11,0.37,2.48,1.67,1.72,2.57
		C553.08,500.09,550.54,498.77,547.85,498.75z"/>
	<path class="st53" d="M492.68,502.03c1.07,0.04,2.29-0.22,2.28,1.27c-0.02,1.91-1.57,2.32-3.03,2.61
		c-1.21,0.24-2.68-0.04-2.74-1.39C489.1,502.2,491.42,502.66,492.68,502.03z"/>
	<path class="st9" d="M520.19,466.46c0.45-2.52,0.89-5.24,4.05-5.33c3.55-0.11,4.17,2.74,4.17,5.46c0.01,2.54-0.64,5.22-3.85,5.3
		C521.07,471.98,520.64,469.09,520.19,466.46z"/>
	<path class="st55" d="M476.56,464.79c0.61-3.1,2.23-4.3,4.97-3.49c1.29,0.38,2.83,2.06,2.03,2.85
		C481.72,466,479.12,464.86,476.56,464.79z"/>
	<path class="st55" d="M443.63,532.79c0.39-2.74,1.71-3.81,3.79-3.75c2.17,0.06,3.08,1.51,3.5,3.75
		C448.39,532.79,446.13,532.79,443.63,532.79z"/>
	<path class="st55" d="M491.49,533.16c0.68-3.49,2.3-4.69,5.05-3.87c1.29,0.38,2.83,2,2.04,2.86
		C496.72,534.17,494.1,532.45,491.49,533.16z"/>
	<path class="st56" d="M530.53,501.98c1.17,0.08,2.35,0.17,1.93,1.65c-0.54,1.93-2.18,2.35-3.94,2.34c-1.1-0.01-2.2-0.58-1.9-1.71
		C527.12,502.31,529.07,502.35,530.53,501.98z"/>
	<path class="st57" d="M452.04,495.83c1.48,2.52,0.51,5.31,0.86,7.96c-1.8,1.5-3.78,3.55-6.03,1.31c-2.19-2.19-2.12-5.2-0.76-7.91
		C447.45,494.55,449.67,494.57,452.04,495.83z"/>
	<path class="st57" d="M482.04,529.83c1.48,2.52,0.51,5.31,0.86,7.96c-1.8,1.5-3.78,3.55-6.03,1.31c-2.19-2.19-2.12-5.2-0.76-7.91
		C477.44,528.54,479.67,528.57,482.04,529.83z"/>
</g>
</svg>
