<?xml version="1.0" encoding="utf-8"?>
<!-- Generator: Adobe Illustrator 25.0.1, SVG Export Plug-In . SVG Version: 6.00 Build 0)  -->
<svg version="1.1" id="Calque_1" xmlns="http://www.w3.org/2000/svg" xmlns:xlink="http://www.w3.org/1999/xlink" x="0px" y="0px"
	 viewBox="0 0 457.4 298.12" style="enable-background:new 0 0 457.4 298.12;" xml:space="preserve">
<style type="text/css">
	.st0{fill:#39AF89;}
	.st1{fill:#009597;}
	.st2{fill:#009697;}
	.st3{fill:#39AF8A;}
	.st4{fill:#33AB8D;}
	.st5{fill:#2EA88F;}
	.st6{fill:#0C9B95;}
	.st7{fill:#22A292;}
	.st8{fill:#189E94;}
	.st9{fill:#27A591;}
	.st10{fill:#32AB8D;}
	.st11{fill:#38AF8A;}
	.st12{fill:#069996;}
	.st13{fill:#1FA193;}
	.st14{fill:#24A491;}
	.st15{fill:#2EA88E;}
	.st16{fill:#059996;}
	.st17{fill:#29A690;}
	.st18{fill:#2DA88E;}
	.st19{fill:#1EA193;}
	.st20{fill:#1CA093;}
	.st21{fill:#26A491;}
	.st22{fill:#636262;}
	.st23{fill:#25A491;}
	.st24{fill:#139C95;}
	.st25{fill:#646363;}
	.st26{fill:#2EA98F;}
	.st27{fill:#0D9B95;}
	.st28{fill:#24A492;}
	.st29{fill:#24A392;}
	.st30{fill:#36AD8B;}
	.st31{fill:#20A293;}
	.st32{fill:#1A9E95;}
	.st33{fill:#1A9F94;}
	.st34{fill:#2DA88F;}
	.st35{fill:#2BA790;}
	.st36{fill:#139D95;}
	.st37{fill:#0E9B96;}
	.st38{fill:#1CA094;}
	.st39{fill:#28A591;}
	.st40{fill:#656464;}
	.st41{fill:#34AC8C;}
	.st42{fill:#2BA78F;}
	.st43{fill:#0D9B96;}
	.st44{fill:#159D94;}
	.st45{fill:#646464;}
	.st46{fill:#109C95;}
	.st47{fill:#199F94;}
	.st48{fill:#35AC8C;}
	.st49{fill:#1A9F95;}
	.st50{fill:#6C6B6B;}
	.st51{fill:#149D95;}
	.st52{fill:#34AC8E;}
	.st53{fill:#2FA98E;}
	.st54{fill:#FEFEFE;}
	.st55{fill:#1DA193;}
	.st56{fill:#FAFAFA;}
	.st57{fill:#F6F6F6;}
	.st58{fill:#F4F4F4;}
	.st59{fill:#F7F7F7;}
	.st60{fill:#FDFDFD;}
	.st61{fill:#FBFBFB;}
</style>
<g>
	<path class="st0" d="M397.42,224.25c-0.27-12.9,10.25-25.28,23.77-27.99c16.21-3.25,31.64,6.82,35.24,22.98
		c0.43,1.94,1.05,3.85,0.96,5.89c-0.12,2.78-2.2,5.22-4.97,5.24c-10.49,0.05-20.98-0.03-31.47-0.06c-3.66-0.92-7.44-1.32-11.08-2.35
		c-3.1-0.87-6.25-1.58-9.43-2.13C399.29,225.63,398.19,225.22,397.42,224.25z"/>
	<path class="st0" d="M199.95,236.79c-0.97-10.98-1.23-21.82,6.35-31.05c13.5-16.43,37.52-12.49,45.66,7.49
		c1.36,3.35,2.12,6.83,2.15,10.45c0.07,8.57,0.11,17.15,0.14,25.72c0,0.48-0.16,0.97-0.25,1.45c-0.51-2.94-2.88-3.58-5.22-4.37
		c-1.46-0.49-3.12-0.52-4.29-1.74c-0.03-6.41-0.05-12.82-0.11-19.24c-0.03-3.45-0.61-6.81-2.24-9.89
		c-3.31-6.29-8.25-10.37-15.63-10.15c-7.81,0.23-12.63,4.91-15.58,11.77c-1.2,2.79-1.43,5.77-1.5,8.8c-0.09,3.63,0.55,7.3-0.38,10.9
		c-0.92-3.66-4.1-3.96-6.99-4.72c-1-0.27-1.34,0.11-1.43,1.06C200.54,234.46,200.95,235.77,199.95,236.79z"/>
	<path class="st1" d="M56.14,237.8c-8.5,18.89-31.75,22.53-45.59,10.25c-5.95-5.28-9.15-11.94-10.37-19.65
		c-0.23-1.43-0.37-2.91,0.41-4.37c1.24-2.32,3.08-3.18,5.56-2.8c2.51,0.39,3.77,2.09,3.96,4.46c0.33,4.05,1.24,7.85,3.65,11.23
		c7.89,11.08,23.43,11.2,31.46,0.22c0.58-0.8,1.14-1.62,1.7-2.44C50.32,234.79,53.43,235.71,56.14,237.8z"/>
	<path class="st2" d="M203.37,120.78c4.61,8.68,11.56,14.2,21.41,15.68c7.12,1.07,13.67-0.58,19.66-4.54
		c0.62-0.41,1.24-0.8,1.87-1.21c3.24-0.27,6.22,0.96,9.28,1.66c0.56,0.13,0.95,0.63,0.83,1.32c-5.54,6.55-12.72,10.25-21.03,11.86
		c-1.55,0.3-2,0.77-2.02,2.34c-0.03,2.89-2.03,4.83-4.61,4.85c-2.58,0.03-4.67-1.91-4.71-4.76c-0.02-1.69-0.58-2.12-2.18-2.47
		c-14.21-3.07-23.82-11.46-28.67-25.21c-0.16-0.46-0.2-0.97-0.29-1.45c-0.21-0.95,0.57-1.02,1.03-0.86
		C197.05,119.08,200.52,118.9,203.37,120.78z"/>
	<path class="st0" d="M136.06,210.26c6.09-9.8,14.99-14.71,26.45-14.52c11.8,0.2,20.34,6.05,25.87,16.32
		c2.28,4.23,3.47,8.81,3.11,13.69c-0.59,0.44-1.25,0.49-1.89,0.21c-3.05-1.38-6.33-2.05-9.43-3.27c-0.86-0.34-1.72-0.71-1.82-1.82
		c1.54-0.91,1.69-2,0.92-3.66c-5.43-11.72-21.62-14.72-30.91-5.7c-1.05,1.02-1.77,2.43-3.31,2.91c-2.08-1.55-4.75-1.65-6.98-2.84
		C137.35,211.2,136.5,211.04,136.06,210.26z"/>
	<path class="st1" d="M322.1,243.79c-6.76,10.01-25.45,17.54-41.98,4.43c-0.72,4.91-1.8,6.56-4.53,6.91
		c-2.31,0.3-4.1-0.83-5.18-3.28c-0.44-6.53-0.07-13.07-0.19-19.6c0.12-0.89,0.84-1.04,1.46-0.88c2.92,0.78,5.97,1.02,8.81,2.12
		c0.62,0.24,1.12,0.67,1.46,1.26c4.25,6.78,10.04,10.85,18.38,10.5c3.75-0.16,7.07-1.52,10.19-3.48c1.57-0.84,3.24-0.91,4.81-0.19
		C317.5,242.58,320.17,242.04,322.1,243.79z"/>
	<path class="st3" d="M338.47,208.76c6.76-9.63,16.14-13.94,27.72-12.91c11.3,1.01,19.26,7.21,24.15,17.32
		c1.82,3.77,2.86,7.8,2.58,12.07c-1.94-2.1-4.66-2.29-7.19-2.95c-1.17-0.31-2.43-0.47-3.4-1.33c-1.24-2.33-2.05-4.84-3.65-7.04
		c-6.58-9-20.27-9.99-27.93-3.26c-0.68,0.59-1.31,1.31-2.33,1.3c-2.41-0.8-4.88-1.35-7.33-2
		C340.14,209.71,339.13,209.62,338.47,208.76z"/>
	<path class="st4" d="M205.27,33.71c7.98-6.71,17.22-9.16,27.49-8.21c0.74,0.07,1.47,0.2,2.21,0.3c3.28-1.07,8.39,0.54,9.5,2.99
		c7.9,3.66,13.75,9.44,17.66,17.2c0.37,0.73,0.92,1.4,0.82,2.3c-1.43,1.11-3.01,0.68-4.53,0.33c-2.01-0.47-3.98-1.15-6.08-1.14
		c-4.65-6.44-10.63-10.89-18.6-12.33c-5.19-0.94-10.25-0.46-15.18,1.42c-0.68,0.26-1.29,0.79-2.1,0.66c-2.75-0.92-5.68-1.07-8.41-2
		C207.06,34.89,205.94,34.68,205.27,33.71z"/>
	<path class="st5" d="M252.34,47.48c1.03-1.16,2.22-0.69,3.39-0.31c2.35,0.77,4.72,1.35,7.22,1.13c0.23,1.66,0.95,2.01,2.7,1.63
		c14.82-3.21,28.75,2.91,35.77,15.59c0.4,0.72,0.66,1.51,0.99,2.26c-1.09,0.49-2.09,0-3.11-0.27c-3.1-0.81-6.21-1.59-9.35-2.23
		c-7.27-7.1-15.71-8.81-25.25-5.53c-0.23,0.08-0.49,0.05-0.74,0.07c-2.61-0.63-5.19-1.38-7.87-1.77c-1.18-0.17-2.4-0.61-3.13-1.76
		c2.64-2.48,2.64-2.48,0.87-5.79C253.31,49.52,252.84,48.49,252.34,47.48z"/>
	<path class="st2" d="M104.04,253.85c-10.06,3.01-18.98,0.63-27.05-5.76c-0.81,0.47-0.38,1.21-0.38,1.78
		c-0.04,6.82,0.02,13.64-0.05,20.45c-0.03,2.84-1.95,4.77-4.61,4.9c-2.72,0.13-4.54-1.45-5.04-4.37
		c-0.37-6.62-0.07-13.25-0.16-19.88c-0.04-2.98,0-5.97-0.01-8.95c0.37-1.83,1.67-0.96,2.51-0.7c5.39,1.64,10.75,3.38,16.1,5.16
		c5.19,1.73,10.45,3.25,15.58,5.15C102.12,252.06,103.89,251.9,104.04,253.85z"/>
	<path class="st3" d="M244.47,28.8c-0.84-1.23-2.07-1.76-3.48-1.99c-2.01-0.32-4.01-0.67-6.02-1.01c3.21-7.22,7.43-13.7,13.5-18.88
		c2.92-2.49,6.09-4.59,9.55-6.26c2.44-1.18,4.36-0.73,5.94,1.55c1.4,2,1.15,4.38-0.76,6.04c-0.8,0.7-1.8,1.18-2.7,1.76
		C253.24,14.64,247.7,20.74,244.47,28.8z"/>
	<path class="st6" d="M166.9,95.31c7.15,7.43,15.69,9.33,25.45,6.43c4.57-0.57,8.85,0.28,12.82,2.63c-0.29,0.29-0.52,0.7-0.87,0.86
		c-3.07,1.42-4.04,3.84-3.4,7.04c-0.93,0.42-1.79-0.02-2.66-0.23c-9.81-2.36-19.61-4.71-29.48-6.8c-2.1-0.45-4.1-1.31-6.26-1.55
		c-3.48-2.98-6.12-6.55-7.7-10.86c0.4-0.51,1.02-0.71,1.54-0.53C159.8,93.55,163.7,93.22,166.9,95.31z"/>
	<path class="st7" d="M144.68,236.19c6.6,8.92,15.45,10.56,25.63,7.97c3.73,0.28,7.06,2.01,10.58,3.03
		c0.62,0.18,1.18,0.63,1.06,1.45c-3.29,2.95-7.15,4.68-11.46,5.5c-4.15-1.88-8.57-2.98-12.89-4.36c-5.52-1.76-10.98-3.7-16.52-5.39
		c-0.86-0.26-1.73-0.57-2.66-0.52c-2.84-3.15-4.65-6.82-5.52-10.96c-0.25-0.93,0.46-1.08,0.99-0.91
		C137.57,233.15,141.53,233.64,144.68,236.19z"/>
	<path class="st8" d="M256.53,112.26c0.63-3-0.48-4.96-3.11-6.65c-2.96-1.91-5.35-4.6-6.96-7.84c0.34-1.48,1.5-0.99,2.37-0.87
		c4.35,0.61,8.59,1.68,12.67,3.36c2.85,1.42,5.81,2.49,8.96,3.03c1.2,0.52,2.46,0.28,3.67,0.22c5.09-0.28,9.81,1.44,14.63,2.61
		c0.75,0.18,1.77,0.39,1.18,1.64c-4.55,3.01-9.55,4.5-15,4.5c-4.66-0.62-9.25-1.62-13.81-2.75c-2.75-0.68-2.76-0.66-3.74,2.03
		C257.25,111.96,257.05,112.3,256.53,112.26z"/>
	<path class="st9" d="M167.83,53.24c13.32-9.06,35.39-3.91,43.12,10.06c-0.83,0.73-1.71,0.32-2.57,0.11
		c-4.62-1.13-9.29-2.02-13.89-3.23c-3.98-1.84-8.19-2.45-12.52-2.39c-1.85-1.16-4.02-1.29-6.05-1.85
		C173.17,55.19,170.18,55.17,167.83,53.24z"/>
	<path class="st10" d="M117.85,205.79c2.7,2.86,4.72,6.1,5.7,9.95c-1.16,1.02-2.32,0.32-3.47-0.02c-3.06-0.93-6-2.25-9.14-2.96
		c-0.9-0.29-1.57-0.92-2.24-1.54c-4.46-4.16-9.82-5.32-15.71-4.74c-0.82,0.08-1.64,0.32-2.47,0.03c-2.91-1.82-6.23-2.56-9.44-3.58
		c-0.93-0.3-1.98-0.31-2.65-1.18c2.91-2.52,6.19-4.29,10.01-5c1.99-0.68,3.49,0.76,5.18,1.27
		C101.74,200.45,109.7,203.41,117.85,205.79z"/>
	<path class="st11" d="M216.58,18.38c-0.02,1.74-0.98,3.31-2.94,4.11c-2.13,0.86-4.25,0.57-5.64-1.3
		c-3.83-5.14-8.46-9.28-14.04-12.48c-2.35-1.35-2.93-4.27-1.47-6.29c1.42-1.96,3.48-3.3,6.35-1.73c6.46,3.54,11.97,8.03,16.37,13.91
		C216.36,16.13,216.56,16.68,216.58,18.38z"/>
	<path class="st10" d="M132.55,218.76c0.09-1.46,0.65-2.78,1.26-4.08c0.29-0.15,0.62-0.35,0.93-0.24c2.47,0.84,4.99,1.56,7.43,2.48
		c0.46,0.17,0.83,0.53,1.02,1.02c-0.06,1.86,1.11,2.09,2.61,2.08c4.72-0.04,9.44-0.02,14.16-0.01c1.07,0,2.16-0.06,3.2,0.29
		c4.29,2.44,9.11,3.45,13.71,5.07c2.89,1.03,5.89,1.75,8.73,2.93c0.85,0.35,2.02,0.55,1.88,1.93c-7.16,0.33-14.32,0.23-21.47,0.06
		c-8-2.19-15.84-4.9-23.74-7.39c-2.46-0.78-4.92-1.55-7.33-2.49C134.01,220.07,132.99,219.82,132.55,218.76z"/>
	<path class="st12" d="M245.44,123.23c-0.82,1.47-2.17,2-3.73,2c-8.64,0.02-17.27,0.04-25.91,0c-2.52-0.01-4.4-1.66-4.76-3.91
		c-0.38-2.32,0.78-4.1,3.29-5.09c5.79-0.93,11.38,0.38,16.9,1.8c4.17,1.07,8.4,1.89,12.55,3
		C244.9,121.33,246.24,121.47,245.44,123.23z"/>
	<path class="st13" d="M228.25,78.18c2.57,0,5.15-0.05,7.72,0.01c2.88,0.07,4.85,1.93,4.93,4.54c0.08,2.53-1.87,4.7-4.71,4.78
		c-5.22,0.14-10.46,0.14-15.68,0.02c-2.9-0.07-4.78-2.12-4.77-4.72c0.02-2.75,1.97-4.58,5.05-4.64
		C223.27,78.14,225.76,78.18,228.25,78.18z"/>
	<path class="st14" d="M24.97,202.84c-1.64-4.02,0.39-7.19,4.83-7.13c11.26,0.15,19.53,5.44,25.16,15.05
		c-1.58,0.91-3.12,0.19-4.54-0.32c-7.29-2.57-14.69-4.8-22.03-7.25C27.25,202.82,26.14,202.6,24.97,202.84z"/>
	<path class="st3" d="M270.04,225.22c-0.02-14.89-0.07-29.77-0.04-44.66c0.01-2.96,2.34-5.16,5.06-5.08c2.64,0.07,4.8,2.2,4.81,5.08
		c0.04,15.39,0,30.77-0.02,46.16c-1.48-0.51-0.99-1.82-1.12-2.85c-0.11-0.87-0.04-1.77,0-2.65c-0.07-2-0.07-3.99-0.02-5.99
		c-0.01-2.47-0.09-4.93,0.01-7.4c-0.06-2.24-0.07-4.47,0.01-6.71c0-0.16,0-0.33,0-0.5c0.02-5.32-0.34-5.66-5.58-6.28
		c-1.46-0.17-2,0.32-1.99,1.71c0.01,1.16,0.02,2.33,0.01,3.5c0.08,2.08,0.07,4.16,0.01,6.24c0.07,2.47,0.08,4.93,0,7.4
		c0.06,2.01,0.08,4.01-0.01,6.02c0.03,1.3,0.14,2.6-0.02,3.89C271.06,223.91,271.28,224.98,270.04,225.22z"/>
	<path class="st15" d="M78.43,201.74c3.91,0.32,7.35,2.3,11.12,3.13c0.64,0.14,0.89,0.69,0.94,1.32c-2.63,1.79-4.94,4.13-8.29,4.62
		c-3.96-2.01-8.21-3.19-12.45-4.42c-1.46-0.43-2.03,0.12-2.05,1.53c-0.03,2.58-0.02,5.16,0.02,7.75c0.08,2.7,0.07,5.4,0.03,8.1
		c0.02,2.94,0.1,5.89-0.02,8.83c0.04,1.39,0.08,2.77-0.01,4.16c-0.07,1.53,0.4,3.13-0.6,4.54c-0.03,8.78-0.05,17.56-0.08,26.34
		c0,1.07-0.08,2.15-0.12,3.22c-0.09-0.48-0.25-0.96-0.25-1.45c0.03-22.78,0.09-45.57,0.12-68.35c0-2.54,0.97-4.41,3.41-5.19
		c2.08-0.67,3.93-0.06,5.37,1.65c1.22,1.46,1,3.24,1.02,4.92C77.52,202.77,77.78,201.79,78.43,201.74z"/>
	<path class="st14" d="M443.45,251.32c-1.85,1.21-3.84,2.05-6.03,2.4c-3.12-1.67-6.67-1.75-10-2.66c-3.92-1.07-7.87-2.04-11.82-2.98
		c-3.39-0.8-6.85-1.26-10.18-2.34c-2.08-2.2-4.14-4.41-5.05-7.41c0.36-1.58,1.64-0.86,2.33-0.69c3.82,0.95,7.84,1.21,11.42,3.03
		c3.24,2.38,6.8,4.01,10.8,4.6c5.02,0.65,9.78,2.46,14.79,3.21C441.23,248.7,443.38,248.85,443.45,251.32z"/>
	<path class="st12" d="M162.51,103.69c0.81-0.69,1.78-0.55,2.61-0.27c6.03,2.04,12.36,2.9,18.49,4.55
		c5.73,1.54,11.66,2.31,17.29,4.3c0.53,2.92,1.36,5.76,2.46,8.51c-2.91-0.59-5.88-0.97-8.7-1.99c-0.55-0.2-1.21-0.8-1.75,0.08
		c-0.91-1.73-1.04-3.65-1.23-5.52c-0.15-1.53-0.57-1.85-2.13-1.61c-8.8,1.32-16.95-0.41-24.26-5.61
		C164.3,105.41,163.43,104.51,162.51,103.69z"/>
	<path class="st16" d="M67.11,241.3c0-1.51,0-3.02,0-4.53c2.51-0.48,4.59,0.95,6.84,1.59c4.06,1.15,7.92,2.93,12.08,3.76
		c2.66,1.01,5.35,1.93,8.1,2.69c4.58,1.97,9.5,2.94,14.13,4.76c0.88,0.34,2.06,0.24,2.2,1.59c-1.96,1.33-4.05,2.35-6.42,2.7
		c-2.51-2.05-5.72-2.49-8.63-3.45c-6.98-2.3-14-4.53-20.98-6.83C72.01,242.78,69.57,242,67.11,241.3z"/>
	<path class="st17" d="M252.97,56.3c2.91,1.64,6.39,1.12,9.36,2.51c0.59,0.28,1.25,0.42,1.63,1.01c-4.49,2.55-8.25,5.8-10.84,10.39
		c-1.22,2.16-3.87,2.6-5.92,1.44c-2.26-1.28-3.12-4.23-1.69-6.78C247.39,61.53,249.75,58.53,252.97,56.3z"/>
	<path class="st18" d="M132.55,218.76c6.17,2.57,12.61,4.31,18.94,6.4c4.51,1.49,9.04,2.92,13.54,4.4c0.36,0.12,0.64,0.49,0.96,0.74
		c-6.67,0.19-13.33,0.21-20,0c-3.77-1.37-7.6-2.57-11.44-3.73c-0.95-0.29-1.91-0.51-2.58-1.33
		C131.73,223.05,132.01,220.9,132.55,218.76z"/>
	<path class="st19" d="M152.53,76.28c0.65-6.06,2.94-11.4,6.98-15.97c3.12-0.68,5.97,0.34,8.79,1.45c0.61,0.24,0.96,0.9,0.74,1.66
		c-4.11,3.99-6.5,8.87-7.5,14.46c-1.53,0.03-2.94-0.52-4.36-0.97C155.65,76.43,154.12,76.2,152.53,76.28z"/>
	<path class="st18" d="M390.42,229.72c-1.81,1.24-3.85,0.6-5.78,0.68c-2.06,0.08-4.13-0.05-6.19-0.09
		c-3.4-1.34-7.03-1.79-10.55-2.69c-6.34-1.61-12.7-3.21-19.13-4.47c-4.07-0.8-8-2.2-12.1-2.84c-1.07-0.17-2.15-0.4-2.67-1.55
		c-0.15-0.59,0.03-1.08,0.44-1.51c0.36-0.51,0.36-1.44,1.23-1.37c3.11,0.24,6.36,0.08,8.66,2.82c0.46,1.5,1.73,1.27,2.86,1.31
		c3.87,0.16,7.75-0.32,11.61,0.29c3.42,1.83,7.29,2.16,10.95,3.07c5.53,1.37,11.05,2.85,16.67,3.84c1.14,0.2,2.26,0.54,3.32,1.01
		C390.35,228.5,390.95,228.88,390.42,229.72z"/>
	<path class="st20" d="M138.41,243.87c0.52-0.8,1.23-0.65,1.98-0.41c5.72,1.86,11.44,3.71,17.15,5.58c4.14,1.36,8.26,2.77,12.4,4.11
		c0.62,0.2,0.85,0.39,0.54,0.99C158.3,257.41,145.01,253.15,138.41,243.87z"/>
	<path class="st21" d="M293.86,90.27c2.13-4.8,2.49-9.79,1.56-14.91c-0.48-1.04,0.16-1.56,0.98-1.33c2.82,0.79,5.9,0.62,8.49,2.27
		c0.98,5.96,0.28,11.69-2.37,17.15C299.96,91.47,296.67,91.52,293.86,90.27z"/>
	<path class="st10" d="M390.42,229.72c-0.92-1.75-2.84-1.67-4.26-1.83c-3.39-0.38-6.54-1.61-9.86-2.23
		c-4.85-0.9-9.61-2.23-14.4-3.43c-1.08-0.27-2.36-0.26-2.96-1.51c0.79-0.78,1.82-0.76,2.81-0.76c5.9-0.04,11.8-0.03,17.7,0
		c0.99,0.01,2.01-0.03,2.83,0.72c2.43,0.49,4.71,1.59,7.24,1.69c1.83,0.07,2.99,1.07,3.4,2.88
		C393.15,227.33,392.3,228.82,390.42,229.72z"/>
	<path class="st22" d="M251.38,289.53c0-1.08,0.01-2.17,0-3.25c-0.01-1.05,0.04-2.13,1.44-2.15c1.34-0.02,1.57,0.97,1.57,2.07
		c-0.01,2,0.01,4-0.01,6c-0.01,1.37,0.23,2.62,1.9,2.67c1.78,0.05,2.16-1.2,2.13-2.71c-0.03-1.75-0.03-3.5,0-5.25
		c0.02-1.19-0.36-2.8,1.57-2.76c1.71,0.04,1.44,1.51,1.45,2.65c0.02,1.92,0,3.83,0.01,5.75c0.01,1.34,0.52,2.32,2,2.32
		c1.48,0,2-0.98,2-2.32c0.01-2.08,0.01-4.16,0-6.25c0-1.06,0.09-2.11,1.47-2.16c1.37-0.05,1.57,0.95,1.57,2.04
		c-0.01,2.33,0.08,4.67-0.04,6.99c-0.22,3.97-3.99,6.05-7.49,4.15c-0.73-0.4-1.2-0.5-2-0.08c-3.82,2.04-7.44-0.14-7.57-4.47
		C251.35,291.69,251.38,290.61,251.38,289.53z"/>
	<path class="st22" d="M368.33,292.21c0-0.91-0.02-1.83,0-2.74c0.1-4.4,3.51-6.6,7.52-4.73c0.92,0.43,1.44,0.23,2.23-0.13
		c3.7-1.67,7.22,0.54,7.35,4.58c0.07,2.33,0.03,4.66,0,6.99c-0.01,0.99-0.38,1.93-1.49,1.94c-1.11,0.01-1.49-0.93-1.51-1.92
		c-0.03-2.16-0.02-4.33-0.01-6.49c0.01-1.41-0.41-2.56-2.02-2.57c-1.63-0.01-2.02,1.16-2.01,2.56c0.01,2.08,0.01,4.16,0,6.24
		c-0.01,1.07-0.25,2.16-1.51,2.17c-1.27,0.01-1.49-1.1-1.5-2.16c-0.01-2.08,0-4.16,0-6.24c0-1.4-0.43-2.56-2.04-2.57
		c-1.64-0.01-2.02,1.15-2.01,2.56c0.02,2.08,0.01,4.16,0,6.24c-0.01,1.07-0.25,2.16-1.51,2.17c-1.3,0.02-1.49-1.09-1.5-2.15
		C368.32,294.7,368.33,293.46,368.33,292.21z"/>
	<path class="st13" d="M405.43,245.74c0.42-0.57,1-0.57,1.58-0.39c4.82,1.51,9.85,2.12,14.7,3.48c4.86,1.37,9.78,2.42,14.69,3.56
		c0.24,0.06,2.41-0.37,1.03,1.33C426.3,257.58,413.2,254.31,405.43,245.74z"/>
	<path class="st4" d="M320.98,205.74c2.31,2.27,4.03,4.92,5.07,8c-2.83,0.44-5.46-0.55-8.12-1.22c-1.66-0.42-3.28-1.01-4.99-1.25
		c-2.84-2.61-6.07-4.43-9.85-5.39c-2.06-0.52-3.7-1.77-4.17-4.07c0.27-1.53,1.43-1,2.31-0.95c3.34,0.2,6.46,1.44,9.69,2.16
		C314.29,203.77,317.77,204.32,320.98,205.74z"/>
	<path class="st17" d="M333.99,218.76c3.83,0.99,7.64,2.05,11.49,2.96c5.77,1.37,11.57,2.61,17.34,3.94
		c4.24,0.98,8.47,2.05,12.71,3.02c1.16,0.26,2.3,0.42,2.9,1.62c-4.67,0.19-9.34,0.21-14.01,0c-2.64-1.27-5.55-1.56-8.35-2.2
		c-6.96-1.6-13.84-3.54-20.85-4.96c-0.66-0.13-1.26-0.41-1.75-0.9C333.34,221.04,333.66,219.9,333.99,218.76z"/>
	<path class="st23" d="M333.48,222.25c3.88,0.46,7.61,1.55,11.39,2.47c5.93,1.44,11.9,2.72,17.85,4.08
		c0.82,0.19,1.64,0.44,1.71,1.51c-6.19,0.04-12.38,0.08-18.56,0.14c-0.89,0.01-2.16-0.42-1.93,1.3c-2.35-1.63-5.22-1.61-7.81-2.47
		c-0.99-0.33-2.13-0.41-2.68-1.53C333.12,225.92,333.22,224.08,333.48,222.25z"/>
	<path class="st24" d="M338.29,241.8c-0.97-1-1.57-2.21-2.03-3.5c0.73-0.81,1.67-0.64,2.53-0.43c4.05,1.01,8.28,1.4,12.05,3.41
		c4.94,3.55,10.53,4.4,16.43,3.92c2.27-0.3,4.38,0.62,6.55,0.98c2.44,0.4,4.76,1.35,7.25,1.62c0.75,0.08,1.69,0.25,1.82,1.34
		c-1.34,0.83-2.41,2.07-3.99,2.5c-4.6-0.27-8.94-1.8-13.4-2.75c-7.23-1.54-14.32-3.68-21.58-5.13
		C341.98,243.36,340.04,242.83,338.29,241.8z"/>
	<path class="st16" d="M373.42,253.71c-10.92,3.79-24.14,0.66-31.49-7.46c0.37-1.49,1.5-1.02,2.37-0.82
		c7.21,1.64,14.41,3.33,21.59,5.14c1.86,0.47,3.82,0.43,5.6,1.23C372.36,252.19,373.5,252.34,373.42,253.71z"/>
	<path class="st25" d="M141.84,293.73c0-2.48,0-4.97,0-7.45c0-1.03,0.03-2.14,1.44-2.16c1.35-0.02,1.58,1,1.59,2.07
		c0.01,2.91,0.03,5.83-0.01,8.74c-0.03,1.71-0.98,2.85-2.62,3.19c-1.65,0.34-2.72-0.69-3.32-2.06c-1.14-2.65-2.14-5.37-3.62-8.02
		c0,2.23,0.01,4.47,0,6.7c0,0.66,0.02,1.34-0.12,1.98c-0.16,0.76-0.57,1.43-1.49,1.43c-0.79-0.01-1.3-0.62-1.34-1.27
		c-0.25-3.65-0.46-7.31,0.1-10.94c0.2-1.26,1.36-1.82,2.65-1.88c1.51-0.07,2.56,0.63,3.13,2.01c1.06,2.58,2.09,5.19,3.13,7.78
		C141.51,293.81,141.67,293.77,141.84,293.73z"/>
	<path class="st25" d="M102.05,284.05c4.11,0.02,6.93,3.04,6.97,7.45c0.03,3.26-3.44,6.64-6.87,6.68c-3.77,0.05-7.14-3.37-7.12-7.22
		C95.06,287.09,98.15,284.04,102.05,284.05z"/>
	<path class="st25" d="M428.33,288.29c0,2.49,0.01,4.99-0.01,7.48c-0.01,1.13-0.17,2.38-1.61,2.33c-1.27-0.04-1.39-1.21-1.39-2.26
		c0-2.83,0.02-5.66-0.01-8.49c-0.02-1.6,0.53-2.8,2.18-3.18c1.79-0.41,3.12,0.28,3.83,1.98c1.06,2.56,2.06,5.14,3.55,7.59
		c0-2.54,0.01-5.08,0-7.63c0-1.12,0.25-2.07,1.61-1.99c1.19,0.07,1.41,0.95,1.4,1.96c-0.01,2.91-0.03,5.83,0.01,8.74
		c0.02,1.79-0.94,2.88-2.51,3.27c-1.75,0.43-2.87-0.72-3.49-2.18c-0.99-2.29-1.81-4.65-2.71-6.98c-0.11-0.28-0.28-0.54-0.42-0.81
		C428.62,288.19,428.47,288.24,428.33,288.29z"/>
	<path class="st26" d="M205.27,33.71c3.49,0.88,6.98,1.76,10.47,2.63c0.48,0.12,0.64,0.46,0.72,0.89c-3.16,1.67-5.82,3.98-8.32,6.5
		c-2.37,2.38-4.93,2.62-7.03,0.66c-2.08-1.95-2.09-4.66,0.16-7.06C202.49,36.02,203.52,34.45,205.27,33.71z"/>
	<path class="st24" d="M239.94,104.25c-0.83,1.61-2.28,2.11-3.93,2.12c-5.16,0.03-10.33,0.01-15.49,0c-1.91,0-3.44-0.82-4.25-2.55
		c-0.81-1.75-0.88-3.54,0.64-5.06c2.26-0.7,4.43,0.01,6.55,0.58c4.17,1.12,8.4,1.95,12.62,2.87
		C237.51,102.53,239.28,102.39,239.94,104.25z"/>
	<path class="st27" d="M373.42,253.71c-0.93-1.43-2.59-1.59-3.94-1.8c-5.55-0.84-10.89-2.59-16.38-3.68
		c-3.15-0.63-6.24-1.54-9.36-2.33c-0.67-0.17-1.31-0.31-1.81,0.34c-1.53-1.23-2.73-2.72-3.64-4.46c2.88-0.16,5.54,1.05,8.2,1.72
		c6.65,1.67,13.35,3.15,19.98,4.94c4.13,1.11,8.43,1.56,12.43,3.19C377.19,252.62,375.4,253.41,373.42,253.71z"/>
	<path class="st28" d="M194.49,60.18c1.86-0.27,3.66,0.11,5.46,0.54c3.66,0.88,7.33,1.72,11,2.58c1.06,1.1,1.62,2.48,2.05,3.9
		c0.66,2.19-0.28,4.24-2.39,5.38c-1.92,1.04-4.06,0.58-5.49-1.32c-0.79-1.05-1.39-2.24-2.08-3.37
		C200.95,64.48,197.77,62.28,194.49,60.18z"/>
	<path class="st29" d="M169.03,63.42c-0.46-0.96-1.16-1.49-2.27-1.68c-2.43-0.4-4.83-0.95-7.25-1.43c2.22-3,4.97-5.39,8.32-7.07
		c4.61,1.17,9.2,2.42,13.83,3.47c1.26,0.29,0.75,0.57,0.31,1.08C177.14,58.48,172.83,60.35,169.03,63.42z"/>
	<path class="st30" d="M187.47,230.24c-1.19-1.43-2.97-1.72-4.58-2.24c-5.74-1.88-11.52-3.61-17.26-5.48
		c-0.87-0.28-2.02-0.49-2.15-1.79c0.42-0.45,0.97-0.65,1.55-0.67c3.96-0.18,7.93-0.18,11.89,0c0.59,0.03,1.13,0.23,1.55,0.67
		c0.93,1.84,2.97,1.54,4.48,2.18c2.76,1.16,5.68,1.92,8.54,2.85C190.91,227.93,190.07,229.87,187.47,230.24z"/>
	<path class="st25" d="M419.86,293.18c0,1.08,0.07,2.17-0.02,3.24c-0.07,0.86-0.46,1.7-1.47,1.71c-1.01,0.01-1.31-0.79-1.51-1.67
		c-0.18-0.8,0.59-2.14-0.73-2.31c-1.87-0.24-3.85-0.45-5.67,0.15c-0.7,0.23-0.26,1.37-0.38,2.08c-0.14,0.87-0.41,1.71-1.44,1.74
		c-1.04,0.03-1.49-0.82-1.51-1.66c-0.06-2.49-0.34-5,0.15-7.46c0.62-3.14,3.29-5.09,6.54-4.94c3.13,0.14,5.62,2.43,5.99,5.63
		c0.13,1.15,0.02,2.32,0.02,3.49C419.84,293.18,419.85,293.18,419.86,293.18z"/>
	<path class="st25" d="M114.03,292.86c0-0.91-0.05-1.83,0.01-2.74c0.21-3.41,2.79-5.95,6.1-6.06c3.47-0.12,6.31,2.24,6.64,5.75
		c0.19,2.06,0.1,4.15,0.05,6.23c-0.02,1.05-0.36,2.13-1.64,2.07c-1.13-0.05-1.48-1.08-1.37-2.03c0.22-1.97-0.86-2.19-2.39-2.06
		c-0.83,0.07-1.67,0.07-2.49,0c-1.32-0.11-2.05,0.22-1.91,1.75c0.11,1.12-0.12,2.4-1.56,2.31c-1.36-0.09-1.46-1.36-1.44-2.49
		C114.03,294.69,114.02,293.78,114.03,292.86C114.02,292.86,114.02,292.86,114.03,292.86z"/>
	<path class="st30" d="M117.85,205.79c-4.08,0.18-7.7-1.65-11.4-2.89c-4.31-1.45-8.63-2.89-13-4.16c-1.76-0.51-3.11-1.95-5.02-1.99
		C98.15,193.26,111.01,197.21,117.85,205.79z"/>
	<path class="st17" d="M181.95,248.64c-2.51-2.09-5.88-1.92-8.68-3.29c-0.92-0.45-1.98-0.77-2.96-1.19c3.32-1.39,6.25-3.3,8.78-5.91
		c1.9-1.96,4.79-1.76,6.71,0.1c1.79,1.75,2.01,4.53,0.35,6.54C184.95,246.34,183.75,247.84,181.95,248.64z"/>
	<path class="st25" d="M286.58,293.06c0,1.16,0.05,2.33-0.02,3.48c-0.05,0.79-0.42,1.51-1.3,1.59c-1.06,0.1-1.32-0.77-1.62-1.57
		c-0.31-0.83,0.62-2.3-0.91-2.44c-1.8-0.17-3.66-0.13-5.43,0.16c-0.72,0.12-0.26,1.33-0.37,2.04c-0.15,0.99-0.5,1.88-1.64,1.8
		c-0.97-0.07-1.36-0.92-1.36-1.8c-0.02-2.32-0.14-4.67,0.1-6.97c0.33-3.19,3.19-5.39,6.49-5.29c3.17,0.09,5.72,2.39,6.02,5.52
		c0.11,1.15,0.02,2.32,0.02,3.48C286.56,293.06,286.57,293.06,286.58,293.06z"/>
	<path class="st20" d="M289.94,107.77c-0.07-0.91-0.74-0.87-1.42-1.02c-5.71-1.2-11.24-3.35-17.22-3.02
		c-0.27,0.02-0.56-0.29-0.84-0.44c6.43,0.49,12.27-1.07,17.42-5.04c0.9-0.52,1.84-0.66,2.84-0.34c1.8,0.57,3.6,1.07,5.48,1.33
		c0.84,0.11,1.85,0.33,1.78,1.59C295.8,103.73,293.17,106.09,289.94,107.77z"/>
	<path class="st25" d="M308.52,290.82c0-1.25,0.1-2.5-0.02-3.74c-0.22-2.23,0.58-3.26,2.93-3.07c1.73,0.14,3.49,0.03,5.23,0.03
		c1.06,0,2.15,0.16,2.1,1.51c-0.05,1.28-1.12,1.49-2.19,1.5c-1.25,0.01-2.49,0.03-3.74,0c-0.96-0.02-1.31,0.4-1.3,1.35
		c0.01,0.92,0.51,1.13,1.26,1.13c1.16,0.01,2.33,0.02,3.49,0.01c1,0,1.96,0.23,2,1.38c0.03,1.25-0.92,1.65-2.04,1.66
		c-1.16,0.01-2.33,0.01-3.49,0.01c-0.79,0-1.21,0.28-1.21,1.17c0,0.88,0.43,1.17,1.22,1.17c1.41,0,2.83-0.02,4.24,0.04
		c1.02,0.04,1.86,0.52,1.76,1.65c-0.08,1-0.75,1.6-1.87,1.59c-2.08-0.03-4.15-0.03-6.23,0c-1.49,0.02-2.11-0.77-2.14-2.14
		C308.49,294.31,308.52,292.57,308.52,290.82z"/>
	<path class="st25" d="M356.38,284.05c3.9,0.03,6.99,3.14,6.96,6.99c-0.03,3.84-3.47,7.24-7.22,7.14c-3.68-0.1-6.83-3.47-6.79-7.28
		C349.38,286.99,352.43,284.02,356.38,284.05z"/>
	<path class="st25" d="M66.96,284.05c3.95-0.03,7.02,2.95,7.06,6.85c0.04,3.89-3.27,7.32-7.04,7.28c-3.67-0.04-6.94-3.39-6.96-7.14
		C60,287.15,63.04,284.08,66.96,284.05z"/>
	<path class="st25" d="M295.57,295.39c-0.65,0.34-0.46,0.8-0.53,1.18c-0.17,0.88-0.54,1.64-1.58,1.56
		c-0.89-0.07-1.33-0.84-1.35-1.57c-0.07-2.73-0.4-5.49,0.16-8.19c0.5-2.41,2.09-3.92,4.6-4.26c2.46-0.34,4.45,0.51,5.72,2.66
		c1.26,2.14,1.08,4.29-0.38,6.3c-0.34,0.46-0.78,0.85-1.16,1.26c0.11,0.64,0.71,0.64,1.06,0.94c0.74,0.63,0.93,1.32,0.33,2.17
		c-0.6,0.84-1.28,0.87-2.15,0.39C298.7,296.96,297.08,296.17,295.57,295.39z"/>
	<path class="st25" d="M82.48,295.39c-0.65,0.45-0.33,1.02-0.51,1.45c-0.3,0.72-0.66,1.41-1.58,1.3c-0.76-0.09-1.25-0.7-1.27-1.35
		c-0.07-3.06-0.6-6.17,0.33-9.16c0.67-2.16,2.36-3.35,4.66-3.55c2.38-0.21,4.24,0.67,5.44,2.75c1.14,1.98,1.06,3.98-0.16,5.89
		c-0.39,0.62-0.94,1.14-1.47,1.77c0.45,0.32,0.89,0.56,1.24,0.89c0.74,0.69,0.66,1.47,0.08,2.22c-0.57,0.74-1.22,0.64-1.98,0.24
		C85.66,296.98,84.03,296.18,82.48,295.39z"/>
	<path class="st3" d="M320.98,205.74c-2.09,0.03-4.13-0.34-6.1-0.95c-4.73-1.47-9.61-2.29-14.41-3.44
		c-0.59-0.14-1.16-0.12-1.56,0.45c-0.82-3.81,1.57-6.41,5.27-5.75C310.96,197.25,316.61,200.38,320.98,205.74z"/>
	<path class="st25" d="M215.12,291.03c-0.01,3.8-3.21,7.13-6.89,7.16c-3.71,0.04-7.18-3.5-7.13-7.26c0.05-3.82,3.23-6.89,7.1-6.88
		C212.15,284.07,215.13,287.07,215.12,291.03z"/>
	<path class="st31" d="M24.97,202.84c0.17-1.2,0.96-1.19,1.83-0.9c5.85,1.91,11.67,3.88,17.54,5.73c3.52,1.11,6.87,2.78,10.62,3.1
		c1.25,1.64,1.95,3.52,2.44,5.49c-1.2,0.97-2.36,0.27-3.48-0.15c-2.93-1.08-5.93-1.95-8.91-2.87c-3.96-4.65-8.78-7.52-15.07-7.68
		C27.97,205.51,25.94,204.98,24.97,202.84z"/>
	<path class="st25" d="M37.3,290.87c0-1.58,0.02-3.16-0.01-4.74c-0.03-1.47,0.65-2.12,2.11-2.1c1.99,0.04,3.99,0,5.99,0.01
		c1.05,0.01,2.14,0.15,2.07,1.53c-0.07,1.31-1.13,1.47-2.19,1.47c-1.16,0.01-2.33,0.02-3.49,0c-0.85-0.02-1.43,0.15-1.44,1.2
		c-0.01,1.01,0.48,1.3,1.37,1.29c1.25-0.02,2.49-0.02,3.74,0.02c0.83,0.03,1.49,0.43,1.54,1.32c0.06,1-0.58,1.55-1.51,1.65
		c-0.9,0.1-1.84-0.05-2.74,0.08c-0.89,0.13-2.44-0.71-2.36,1.2c0.08,1.84,1.58,0.95,2.48,1.1c0.81,0.13,1.66,0.02,2.49,0.03
		c1.09,0.01,2.13,0.29,2.11,1.57c-0.02,1.34-0.99,1.74-2.25,1.7c-1.91-0.06-3.82-0.06-5.74,0c-1.5,0.05-2.13-0.72-2.16-2.1
		C37.28,294.36,37.31,292.61,37.3,290.87z"/>
	<path class="st25" d="M190.63,284.06c1.92-0.01,3.37,0.28,4.56,1.33c0.67,0.59,1.14,1.29,0.51,2.16c-0.58,0.8-1.35,0.93-2.16,0.32
		c-1.24-0.92-2.61-0.99-4.03-0.6c-0.57,0.16-1.13,0.49-1.05,1.2c0.07,0.58,0.58,0.77,1.1,0.84c1.23,0.17,2.48,0.28,3.71,0.46
		c1.61,0.24,2.83,1.03,3.2,2.7c0.39,1.77-0.05,3.27-1.59,4.39c-2.72,1.97-6.53,1.75-8.67-0.56c-0.71-0.77-1.31-1.69-0.49-2.64
		c0.86-0.99,1.71-0.53,2.51,0.32c1.25,1.33,2.83,1.19,4.4,0.68c0.46-0.15,0.93-0.46,0.86-1.07c-0.06-0.6-0.54-0.79-1.05-0.86
		c-0.99-0.14-1.98-0.23-2.97-0.37c-2.91-0.42-4.04-1.46-4.11-3.74c-0.06-2.32,1.55-4.05,4.17-4.44
		C190.01,284.08,190.52,284.07,190.63,284.06z"/>
	<path class="st32" d="M239.94,104.25c-2.71-1.79-5.99-1.55-8.96-2.39c-4.62-1.3-9.37-2.09-14.07-3.1c0.67-1.24,1.88-1.73,3.11-1.75
		c5.47-0.09,10.95-0.24,16.41,0.02C240.26,97.21,241.86,100.82,239.94,104.25z"/>
	<path class="st25" d="M19.89,291.06c0-1.75,0-3.49,0-5.24c0-0.94,0.35-1.67,1.39-1.71c1.17-0.04,1.58,0.71,1.61,1.77
		c0,0.08-0.01,0.17,0.01,0.25c0.23,1.09-0.66,2.72,0.53,3.18c1.31,0.51,2.94,0.19,4.43,0.2c0.7,0,1.04-0.39,1.01-1.11
		c-0.03-0.75,0-1.5,0-2.24c0-1.09,0.18-2.08,1.57-2.03c1.19,0.05,1.44,0.94,1.44,1.94c0,3.32,0.02,6.65-0.01,9.97
		c-0.01,1.05-0.31,2.14-1.61,2.08c-1.13-0.05-1.35-1.05-1.38-2.03c-0.01-0.5-0.07-1.01,0.01-1.49c0.27-1.74-0.59-2.21-2.14-2.02
		c-0.49,0.06-1.01,0.07-1.49,0c-1.8-0.27-2.69,0.34-2.36,2.28c0.07,0.4,0.03,0.83,0,1.24c-0.05,0.97-0.32,1.95-1.43,2.01
		c-1.32,0.07-1.56-1-1.58-2.06C19.87,294.38,19.89,292.72,19.89,291.06z"/>
	<path class="st33" d="M45,213.24c0.83-0.89,1.63-0.25,2.49,0c3.32,0.95,6.42,2.59,9.9,3.02c1.32,3.95,1.89,7.98,1.16,12.13
		c-0.66-2.32-2.44-3.16-4.6-3.73c-1.8-0.48-3.61-1.08-5.08-2.36C48.21,219,46.81,216.03,45,213.24z"/>
	<path class="st34" d="M110.75,212.34c3.27-0.15,5.93,1.86,8.97,2.56c1.28,0.29,2.46,1,3.83,0.84c1.23,2.71,1.61,5.56,1.48,8.5
		c-0.71,1.13-1.74,0.97-2.83,0.72c-1.45-0.32-2.74-1.06-4.11-1.58c-0.94-0.36-1.85-0.68-2.78-0.01c-0.17-0.04-0.39-0.1-0.42-0.22
		c-0.91-3.65-2.45-7.04-4.22-10.33C110.61,212.69,110.7,212.49,110.75,212.34z"/>
	<path class="st25" d="M165.69,284.06c2.96-0.03,4.98,1.05,6.4,3.27c0.53,0.83,0.5,1.59-0.32,2.18c-0.72,0.52-1.42,0.32-2-0.3
		c-0.34-0.36-0.62-0.79-0.99-1.12c-1.58-1.4-3.97-1.34-5.42,0.11c-1.58,1.57-1.58,4.01-0.01,5.58c1.45,1.45,3.85,1.53,5.43,0.15
		c0.25-0.22,0.45-0.49,0.66-0.75c0.69-0.88,1.48-1.45,2.5-0.53c1.03,0.93,0.35,1.81-0.25,2.63c-2.31,3.1-6.06,3.76-9.28,1.64
		c-3.21-2.11-4.26-6.23-2.33-9.41C161.4,285.31,163.35,284.02,165.69,284.06z"/>
	<path class="st35" d="M304.89,76.29c-2.58-0.3-5.15-0.69-7.65-1.47c-0.65-0.2-1.62-0.99-1.82,0.53c-1.2-3.69-2.9-7.12-5.47-10.07
		c0.99-1.1,2.03-0.19,2.97,0.03c3.18,0.74,6.32,1.64,9.48,2.47C303.82,70.45,304.66,73.28,304.89,76.29z"/>
	<path class="st25" d="M338.82,284.05c1.7-0.05,3.59,0.85,5.02,2.67c0.64,0.81,1.19,1.77,0.21,2.65c-1.02,0.91-1.82,0.27-2.48-0.62
		c-1.13-1.51-2.66-1.99-4.42-1.5c-1.46,0.41-2.43,1.46-2.71,2.98c-0.34,1.84,0.34,3.34,1.98,4.2c1.71,0.89,3.4,0.69,4.79-0.76
		c0.85-0.89,1.67-2.35,2.96-0.88c1.09,1.24-0.07,2.33-0.95,3.2c-2.47,2.45-5.37,2.86-8.19,1.22c-2.99-1.74-4.34-4.87-3.48-8.08
		C332.33,286.18,335.1,284.07,338.82,284.05z"/>
	<path class="st4" d="M397.42,224.25c7.04,1.65,14.08,3.31,21.13,4.93c0.9,0.21,1.8,0.3,2.39,1.13c-3.37,0.04-6.74,0.09-10.12,0.11
		c-3.02,0.02-3.02,0-2.27,2.79c-0.34,0.43-0.84,0.64-1.32,0.52c-3.11-0.76-6.38-0.95-9.29-2.48
		C397.16,228.96,397.23,226.61,397.42,224.25z"/>
	<path class="st36" d="M205.17,104.37c-4.23-1.07-8.44-2.27-12.82-2.63c3.45-1.57,6.49-3.72,9.12-6.45
		c2.83-0.88,8.31,0.54,9.48,2.46C209.48,100.36,207.58,102.58,205.17,104.37z"/>
	<path class="st36" d="M166.9,95.31c-2.82-0.6-5.65-1.16-8.46-1.8c-1.21-0.28-2.34-0.9-3.64-0.67c-1.42-2.85-2.26-5.84-2.32-9.04
		c0.75-0.43,1.62-0.58,2.38-0.3c2.36,0.85,4.98,0.86,7.15,2.29C163.11,89.23,164.7,92.43,166.9,95.31z"/>
	<path class="st31" d="M297.97,100.84c-3.24-1.37-6.63-2.13-10.1-2.58c2.41-2.35,4.52-4.93,5.98-7.99c3-0.55,5.47,1.36,8.24,1.84
		c0.21,0.04,0.28,0.87,0.41,1.33C301.53,96.23,300.01,98.69,297.97,100.84z"/>
	<path class="st22" d="M390.92,292.44c0-1.16-0.1-2.33,0.02-3.49c0.29-2.89,2.66-4.92,5.61-4.91c3.04,0.01,5.42,2.22,5.6,5.21
		c0.17,2.87-1.8,5.48-4.61,5.92c-1.73,0.27-3.94-0.51-4.16,2.4c-0.04,0.47-0.72,0.7-1.24,0.55c-0.7-0.2-1.15-0.77-1.19-1.45
		C390.87,295.27,390.92,293.86,390.92,292.44z"/>
	<path class="st37" d="M245.44,123.23c0.05-0.86-0.23-1.27-1.21-1.48c-5.65-1.2-11.35-2.27-16.9-3.86c-4.3-1.23-8.58-1.83-13-1.66
		c0.47-0.46,1.07-0.41,1.64-0.41c8.47-0.01,16.95-0.06,25.42,0.03C245.72,115.89,247.67,119.59,245.44,123.23z"/>
	<path class="st36" d="M256.53,112.26c0.1-0.13,0.26-0.25,0.28-0.4c0.73-4,0.73-4.02,4.86-2.93c4.41,1.17,8.96,1.79,13.28,3.34
		c-2.48,0.26-4.94,0.19-7.37-0.34c-1.1-0.24-1.61-0.04-1.78,1.23c-0.26,1.94-0.34,3.94-1.27,5.74c-2.97-0.78-5.87-1.95-9.04-1.63
		C255.83,115.6,256.18,113.93,256.53,112.26z"/>
	<path class="st12" d="M256.42,133.7c-0.62-1.29-2.02-1.17-3.01-1.27c-2.47-0.26-4.75-1.11-7.11-1.71c2.25-2.14,4.33-4.43,6.16-6.93
		c3.18-0.57,6.02,0.64,8.87,1.76c0.3,0.12,0.32,0.53,0.18,0.87C260.31,129.18,258.57,131.58,256.42,133.7z"/>
	<path class="st21" d="M115.41,223.4c-0.09-1.42,0.64-1.37,1.7-1.07c1.92,0.54,3.56,1.73,5.56,2.11c0.88,0.17,1.6,0.22,2.36-0.21
		c0.22,3.07,0.2,6.12-0.97,9.04c-0.89,0.7-1.88,0.64-2.84,0.27c-2.22-0.85-4.71-1.12-6.54-2.88
		C114,228.15,114.48,225.75,115.41,223.4z"/>
	<path class="st13" d="M374.95,242.75c1.52-1.13,3.13-2.14,4.49-3.51c2.85-2.88,5.77-3.09,7.98-0.69c2.05,2.24,1.58,5.11-1.28,7.76
		c-3.35,0.28-6.5-0.7-9.67-1.53C375.56,244.54,374.91,243.83,374.95,242.75z"/>
	<path class="st38" d="M261.5,100.27c-4.45-0.36-8.55-2.32-12.99-2.75c-0.73-0.07-1.43-0.47-2.04,0.25
		c-1.22-1.58-2.01-3.28-1.12-5.26c0.72-1.6,1.96-2.68,3.77-2.87c1.92-0.2,3.41,0.63,4.38,2.26C255.51,95.32,258.29,98,261.5,100.27z
		"/>
	<path class="st39" d="M131.97,225.25c4.01,0.9,7.9,2.22,11.75,3.65c0.82,0.3,1.73,0.6,2.28,1.41c-4.06,0.31-4.06,0.31-2.18,4.1
		c0.29,0.59,0.58,1.19,0.87,1.78c-3.59-1.23-7.19-2.47-10.78-3.71c-0.49-0.17-0.78,0.04-1.01,0.43
		C131.93,230.44,131.76,227.87,131.97,225.25z"/>
	<path class="st17" d="M443.45,251.32c-0.86-1.9-2.86-2.24-4.41-2.34c-3.1-0.19-5.91-1.44-8.95-1.84c-1.75-0.23-3.35-1.47-5.16-1.87
		c4.08,0.16,8.08-0.31,11.99-1.53c1.3-0.48,2.62-0.37,3.86,0.08c2.03,0.72,4.1,1.23,6.2,1.7c1,0.22,2.21,0.37,2.03,1.92
		C447.28,248.91,445.67,250.56,443.45,251.32z"/>
	<path class="st8" d="M162.01,85.78c-3.18-0.66-6.35-1.32-9.53-1.99c-0.6-2.51-0.4-5.01,0.04-7.51c0.5-0.35,0.75-1.2,1.6-0.86
		c2.43,0.95,5.17,0.95,7.4,2.47C161.43,80.53,161.67,83.16,162.01,85.78z"/>
	<path class="st40" d="M220.08,291.08c0-0.08,0-0.17,0-0.25c0-7,1.47-8.18,8.45-6.77c0.81,0.16,1.45,0.46,1.46,1.4
		c0.01,1.03-0.67,1.51-1.59,1.56c-1.33,0.07-2.66,0.04-4,0.04c-0.76,0-1.25,0.21-1.29,1.11c-0.04,0.97,0.35,1.38,1.3,1.37
		c1.08-0.01,2.17-0.01,3.25,0.01c1.01,0.02,1.87,0.31,1.84,1.53c-0.03,1.03-0.79,1.38-1.69,1.49c-0.08,0.01-0.17,0.02-0.25,0.01
		c-3.04-0.43-5.29-0.03-4.52,3.96c0.14,0.74-0.38,1.51-1.26,1.6c-1.07,0.11-1.55-0.74-1.61-1.56c-0.12-1.82-0.04-3.66-0.04-5.49
		C220.12,291.08,220.1,291.08,220.08,291.08z"/>
	<path class="st41" d="M244.49,244.75c2.9,0.23,5.46,1.64,8.22,2.37c2.2,0.58,0.84,2.49,1.29,3.73c-0.55,2.85-2.47,4.48-5.07,4.31
		c-2.61-0.17-4.47-2.16-4.52-4.96C244.37,248.38,244.46,246.56,244.49,244.75z"/>
	<path class="st34" d="M312.94,211.26c0.57-0.73,1.41-0.67,2.06-0.39c3.54,1.52,7.43,1.7,11.05,2.86c1.14,2.02,1.7,4.21,1.86,6.52
		c-0.88,0.81-1.83,0.38-2.78,0.19c-2.4-0.48-4.74-1.32-7.24-1.08C316.67,216.4,315.11,213.64,312.94,211.26z"/>
	<path class="st42" d="M397.95,231.25c2.67-0.02,5.15,0.96,7.71,1.52c0.96,0.21,1.89,0.6,2.9,0.44c1.4,2.83,3.31,5.28,5.57,7.46
		c-3.23-0.66-6.48-1.28-9.7-2.01c-1.35-0.31-2.66-0.69-4.06-0.33C398.99,236.17,398.27,233.78,397.95,231.25z"/>
	<path class="st43" d="M261.52,126.41c-0.88-1.33-2.32-0.96-3.58-1.23c-1.84-0.4-3.65-0.92-5.48-1.39c1.01-2.17,2.01-4.34,3.02-6.51
		c0.88-1.52,2.18-0.66,3.26-0.47c2.03,0.36,4.24,0.35,5.78,2.09C264.02,121.6,263.01,124.1,261.52,126.41z"/>
	<path class="st25" d="M454.93,287.11c0.08,2.62-0.76,4.83-3.23,5.97c-1.35,0.62-1.24,1.57-1.23,2.64c0.01,1.13-0.11,2.41-1.53,2.37
		c-1.38-0.04-1.6-1.32-1.47-2.44c0.16-1.46-0.47-2.17-1.72-2.88c-2.22-1.26-3.47-5.17-2.69-7.52c0.23-0.7,0.67-1.15,1.44-1.15
		c0.88,0,1.41,0.46,1.49,1.34c0.08,0.91,0.01,1.84,0.16,2.73c0.27,1.58,1.21,2.56,2.89,2.54c1.69-0.03,2.55-1.07,2.8-2.64
		c0.11-0.65,0.07-1.33,0.06-1.99c-0.01-1,0.2-1.9,1.4-1.96c1.35-0.07,1.64,0.86,1.61,1.99
		C454.93,286.45,454.93,286.78,454.93,287.11z"/>
	<path class="st44" d="M279.42,221.26c0.26,1.81-0.43,3.69,0.43,5.46c0.01,0.35,0.02,0.69,0.04,1.04c-0.83,0.73-1.7,0.31-2.55,0.08
		c-1.26-0.34-2.54-0.61-3.81-0.91c-1.87-0.44-2.64,0.2-2.38,2.09c0.03,0.98,0.01,1.94-0.68,2.74c-0.02,6.7-0.04,13.4-0.06,20.1
		c-0.5-0.54-0.45-1.22-0.45-1.87c0.02-8.25,0.05-16.51,0.08-24.76c0.85-1.94,0.2-3.98,0.42-5.97
		C273.73,218.64,276.56,219.98,279.42,221.26z"/>
	<path class="st13" d="M333.45,227.75c2.45,0.66,4.87,1.62,7.35,1.86c1.68,0.17,2.49,0.83,3.14,2.13c0.97,1.83,1.93,3.67,2.9,5.5
		c-0.24,0.23-0.54,0.43-0.87,0.37c-3.76-0.7-7.53-1.41-11.11-2.85C333.8,232.55,333.39,230.2,333.45,227.75z"/>
	<path class="st40" d="M240.32,284.05c1.5,0,2.99-0.01,4.49,0c1.02,0.01,1.87,0.32,1.85,1.51c-0.02,1.02-0.82,1.58-1.69,1.44
		c-3.1-0.51-3.3,1.23-3.11,3.58c0.15,1.82,0.06,3.65,0.02,5.48c-0.02,1.06-0.34,2.12-1.63,2.06c-1.11-0.06-1.38-1.05-1.39-2.03
		c-0.01-2.33-0.11-4.66,0.03-6.98c0.1-1.68-0.51-2.29-2.12-2.07c-0.41,0.06-0.84,0.04-1.24-0.03c-0.92-0.15-1.58-0.65-1.5-1.65
		c0.07-0.88,0.74-1.27,1.57-1.29c1.58-0.03,3.16-0.01,4.73-0.01C240.32,284.06,240.32,284.05,240.32,284.05z"/>
	<path class="st45" d="M8.87,284.05c1.5,0,2.99,0,4.49,0c0.92,0,1.73,0.29,1.81,1.31c0.09,1.14-0.74,1.81-1.72,1.64
		c-3.23-0.53-3.16,1.42-3.03,3.64c0.1,1.82,0.05,3.65,0.01,5.48c-0.02,0.97-0.37,1.94-1.47,1.99c-1.33,0.06-1.55-1.02-1.56-2.08
		c-0.02-2.24-0.1-4.49,0.02-6.73c0.09-1.67-0.34-2.54-2.17-2.27c-0.48,0.07-1.01,0.02-1.48-0.1c-0.81-0.2-1.31-0.73-1.21-1.62
		c0.09-0.77,0.62-1.19,1.35-1.21c1.66-0.04,3.32-0.01,4.98-0.01C8.87,284.08,8.87,284.06,8.87,284.05z"/>
	<path class="st41" d="M199.95,236.79c0-0.08,0-0.17,0.01-0.25c0.25-1.83-0.47-3.74,0.41-5.52c2.7,0.86,5.48,1.55,8.07,2.68
		c1.09,0.48,0.34,2.14,0.62,3.24c-0.58,2.42-2.31,3.37-4.59,3.34C202.16,240.24,200.51,239.17,199.95,236.79z"/>
	<path class="st33" d="M121.45,239.63c-1.07,2.06-2.03,4.2-3.94,5.68c-2.58-0.77-5.04-1.9-7.66-2.56c-0.79-0.2-1.53-0.6-1.97-1.36
		c0.69-2.6,2.64-4.13,4.72-5.56c2.64,0.54,5.16,1.45,7.65,2.45C120.83,238.52,121.5,238.78,121.45,239.63z"/>
	<path class="st23" d="M317.89,219.37c0.18-1.26,0.9-1.01,1.82-0.8c2.72,0.63,5.47,1.13,8.21,1.68c0.76,3.18,0.77,6.37,0.12,9.56
		c-0.1-0.06-0.19-0.13-0.29-0.19c-0.31-2.34-1.67-3.39-3.99-3.34c-0.49,0.01-1-0.12-1.43-0.34c-1.9-0.94-2.92-0.44-2.97,1.74
		c-0.17,0.35-0.4,0.61-0.84,0.55C318.62,225.26,318.53,222.3,317.89,219.37z"/>
	<path class="st46" d="M326.6,235.8c-0.62,2.23-1.6,4.28-3.09,6.06c-2.49-0.55-4.9-1.39-7.42-1.83c-0.87-0.15-1.77-0.46-2.27-1.33
		c1.06-1.65,2.13-3.3,3.19-4.95c0.45-0.42,1.01-0.67,1.59-0.54c2.18,0.49,4.4,0.74,6.55,1.34
		C325.8,234.73,326.34,235.12,326.6,235.8z"/>
	<path class="st19" d="M121.45,239.63c-2.8-1.73-6.1-2.17-9.08-3.43c0.03-2.17,0.88-4,2.38-5.54c3.16,0.66,5.96,2.65,9.32,2.61
		C123.7,235.6,122.99,237.79,121.45,239.63z"/>
	<path class="st43" d="M110.46,251.15c-2.75-0.98-5.49-1.97-8.24-2.94c-2.75-0.97-5.73-1.29-8.23-2.96
		c2.81-1.16,5.84-1.03,8.76-1.55c3.14,0.75,6.13,2.03,9.27,2.83c0.94,0.24,2.49,0.38,1.95,2.16
		C112.98,249.77,111.8,250.57,110.46,251.15z"/>
	<path class="st5" d="M449,247.44c-0.32-0.35-0.62-0.98-0.97-1.01c-3.84-0.37-7.3-2.27-11.12-2.68c2.31-1.13,4.42-2.57,6.41-4.18
		c2.45,0.59,4.9,1.19,7.36,1.74c0.76,0.17,1.9,0.2,1.77,1.53C451.83,244.76,450.75,246.35,449,247.44z"/>
	<path class="st47" d="M326.6,235.8c-3.08-1.22-6.35-1.57-9.59-2.05c0.5-1.84,1-3.67,1.51-5.51c0.15-0.16,0.3-0.32,0.45-0.48
		c3.24-0.54,6.09,0.69,8.93,1.95c0,0,0.15,0.1,0.15,0.1C327.11,231.7,327.9,234,326.6,235.8z"/>
	<path class="st48" d="M338.47,208.76c3.36,0.86,6.93,0.99,9.96,2.95c-0.23,2.05-1.32,3.45-3.19,4.27c-3.11-1-6.58-0.82-9.41-2.77
		C336.49,211.61,337.23,210.04,338.47,208.76z"/>
	<path class="st36" d="M113.96,248.69c-0.46-1.64-2.03-1.56-3.21-1.86c-2.72-0.7-5.37-1.55-7.94-2.66c1.27-1.73,2.96-2.72,5.1-2.94
		c2.51,1.49,5.52,1.61,8.1,2.93c0.6,0.31,1.22,0.47,1.49,1.16C116.56,246.68,115.39,247.82,113.96,248.69z"/>
	<path class="st41" d="M143.07,217.78c-3.09-1.03-6.18-2.06-9.27-3.09c0.5-1.6,1.19-3.11,2.25-4.43c2.44,0.37,4.41,2.18,7.01,2.18
		c0.83,0,1.45,1,1.9,1.81C145.1,215.83,144.62,217.1,143.07,217.78z"/>
	<path class="st8" d="M374.95,242.75c1.85,2.76,5.12,1.85,7.67,2.78c0.99,0.36,2.31,0.67,3.52,0.77c-0.88,1.16-1.95,2.12-3.24,2.82
		c-3.39-0.88-6.74-2-10.19-2.53c-1.89-0.3-3.57-1.17-5.43-1.41C369.86,244.48,372.51,243.95,374.95,242.75z"/>
	<path class="st49" d="M210.94,97.75c-2.86-1.98-6.31-1.67-9.48-2.46c0.6-0.88,1.17-1.79,1.81-2.65c1.72-2.3,4.08-2.86,6.27-1.53
		C211.81,92.49,212.36,95.09,210.94,97.75z"/>
	<path class="st50" d="M153.75,291.03c0,1.74,0.05,3.48-0.02,5.21c-0.04,0.95-0.4,1.91-1.54,1.91c-1.14-0.01-1.51-0.99-1.52-1.92
		c-0.06-3.47-0.05-6.95-0.01-10.42c0.01-0.89,0.39-1.65,1.43-1.71c1.17-0.06,1.63,0.71,1.66,1.72c0.05,1.74,0.01,3.47,0.01,5.21
		C153.76,291.03,153.75,291.03,153.75,291.03z"/>
	<path class="st51" d="M48.88,222.29c2.82,0.89,5.65,1.74,8.46,2.67c1.8,0.6,0.91,2.24,1.22,3.42c0.04,1.2,0.09,2.4-0.5,3.5
		c-1.05-1.91-2.96-2.51-4.84-3.13c-1.41-0.47-2.9-0.71-4.19-1.51C48.97,225.59,48.93,223.94,48.88,222.29z"/>
	<path class="st8" d="M334.87,234.77c3.66,0.03,7,1.57,10.54,2.21c0.48,0.09,0.96,0.18,1.44,0.27c1.33,1.34,2.67,2.68,4,4.02
		c-4.13-0.93-8.26-1.86-12.4-2.76c-0.71-0.15-1.45-0.15-2.18-0.22C335.62,237.19,334.83,236.14,334.87,234.77z"/>
	<path class="st12" d="M56.14,237.8c-3.07-1.03-6.14-2.06-9.22-3.09c0.39-1,0.79-1.99,1.18-2.99c0.34-0.81,1.04-1.19,1.81-1.04
		c2.74,0.53,5.45,1.21,7.66,3.09C57.43,235.24,56.93,236.57,56.14,237.8z"/>
	<path class="st43" d="M57.57,233.78c-2.06-0.74-4.21-1.21-6.18-2.27c-1.03-0.55-2.23-0.42-3.29,0.22c0.3-1.49,0.61-2.99,0.91-4.48
		c3.01-0.03,5.59,1.41,8.28,2.46c0.98,0.38,0.6,1.41,0.76,2.17C58.06,232.56,58.08,233.23,57.57,233.78z"/>
	<path class="st12" d="M313.82,238.7c2.64,0.67,5.27,1.39,7.93,2c0.79,0.18,1.43,0.38,1.76,1.17c-0.25,0.8-0.75,1.42-1.41,1.93
		c-3.95-0.16-7.53-2.47-11.59-2.03C311.61,240.74,312.71,239.72,313.82,238.7z"/>
	<path class="st12" d="M270.46,231.75c0-1,0-2,0-3c1.34-1.09,2.67-0.12,3.97,0.09c2.07,0.33,4.23,0.48,5.97,1.9
		c0.51,1.33,1.02,2.67,1.54,4C278.27,233.15,274.26,232.87,270.46,231.75z"/>
	<path class="st52" d="M452.47,242.84c-1.5-1.34-3.49-1.07-5.25-1.57c-1.39-0.39-2.9-0.42-3.89-1.7c2.23-2.62,4.24-3.28,6.57-2.17
		C452.01,238.4,452.93,240.36,452.47,242.84z"/>
	<path class="st53" d="M335.82,213.21c3.21,0.76,6.54,1.08,9.61,2.4c-0.08,1.28-0.02,2.62-1.42,3.35c-2.48-2.12-7.8-3.08-9.57-1.71
		C334.59,215.8,335.15,214.49,335.82,213.21z"/>
	<path class="st43" d="M280.4,230.75c-3.31-0.67-6.63-1.33-9.94-2c-0.32-2.23,0.08-3.26,2.81-2.61c2.2,0.52,4.34,1.36,6.61,1.6
		C280.05,228.75,280.23,229.75,280.4,230.75z"/>
	<path class="st54" d="M427.18,220.61c-5.82,0-11.64-0.05-17.45,0.03c-1.7,0.02-1.94-0.42-1.38-2c2.71-7.71,10.32-13.03,18.83-13.04
		c8.52-0.01,16.1,5.29,18.83,13.03c0.55,1.55,0.36,2.03-1.37,2.01C438.81,220.56,433,220.61,427.18,220.61z"/>
	<path class="st54" d="M143.07,217.78c0.63-1.18,1.27-2.36,1.9-3.53c5.66-7.2,12.95-10.2,21.94-7.99
		c6.35,1.56,10.68,5.68,13.38,11.65c1,2.21,0.46,2.96-1.82,2.81c-5,0-10,0-15,0c-7.07,0-14.15,0-21.54,0
		C142.41,219.5,142.74,218.64,143.07,217.78z"/>
	<path class="st54" d="M344.01,218.97c0.79-0.98,0.34-2.49,1.42-3.35c1-1.3,2-2.6,3-3.9c5.77-5.42,12.5-7.42,20.22-5.41
		c6.93,1.8,13.01,8.31,13.63,14.37c-7.78,0.02-15.56,0.03-23.34,0.05c-4.69-0.04-9.37-0.1-14.06-0.1
		C343.35,220.63,343.03,220.18,344.01,218.97z"/>
	<path class="st54" d="M107.92,241.22c-1.7,0.98-3.4,1.96-5.1,2.94c-2.89,0.8-5.83,1.18-8.83,1.09c-2.74-0.47-5.34-1.35-7.84-2.57
		c-3.31-1.16-5.24-3.83-7.15-6.53c-1.82-2.93-2.66-6.18-3.14-9.55c-0.14-2.58,0.36-5.08,1.05-7.54c0.83-2.47,2.06-4.72,3.73-6.72
		c0.52-0.62,0.91-1.43,1.9-1.44c2.4-1.99,4.98-3.67,7.94-4.72c7.9-1.73,14.73,0.06,20.26,6.15c2.56,3.26,4,6.99,4.66,11.06
		c-0.02,2.44-0.18,4.87-0.66,7.27c-0.79,1.85-1.59,3.69-2.38,5.54C110.88,237.88,109.4,239.55,107.92,241.22z"/>
	<path class="st9" d="M279.42,207.76c0,2.5,0,4.99,0,7.49c-3.13-0.04-6.1-0.78-8.96-2c0-2.5,0-5,0-7.5
		C273.78,204.91,276.66,206.08,279.42,207.76z"/>
	<path class="st15" d="M279.42,207.76c-3-0.59-5.87-1.8-8.96-2.01c0-2.17,0-4.33,0-6.5c0.62-0.55,1.36-0.63,2.1-0.41
		c2.28,0.69,4.74,0.7,6.86,1.91C279.42,203.1,279.42,205.43,279.42,207.76z"/>
	<path class="st19" d="M270.45,213.25c3.1,0.15,6.09,0.84,8.96,2c0,2,0,4,0,6.01c-3.09-0.19-5.92-1.57-8.96-2.01
		C270.45,217.25,270.45,215.25,270.45,213.25z"/>
	<path class="st41" d="M279.42,200.76c-3.12,0.27-5.9-1.46-8.96-1.5c0-0.66,0-1.32-0.01-1.98c-0.03-5.42,0.01-4.09,4.26-3.3
		c4.8,0.88,4.77,1.06,4.73,6.04C279.44,200.27,279.43,200.52,279.42,200.76z"/>
	<path class="st9" d="M82.55,210.91c-2.08,2.37-3.8,4.97-5.04,7.88c-3.72-0.42-7.11-1.84-10.42-3.51c-0.03-2.74-0.01-5.49-0.1-8.23
		c-0.06-1.69,0.77-2.1,2.16-1.65c3.93,1.26,7.83,2.59,11.75,3.89C81.71,209.56,82.48,209.88,82.55,210.91z"/>
	<path class="st44" d="M76.5,226.75c0.45,3.34,1.46,6.5,3.06,9.47c-0.49,0.58-1.19,0.74-1.81,0.53c-3.59-1.22-7.44-1.75-10.65-3.98
		c0-2.99-0.01-5.97-0.01-8.96C70.56,223.73,73.56,225.13,76.5,226.75z"/>
	<path class="st55" d="M76.5,226.75c-3.14-0.98-6.27-1.96-9.41-2.94c0-2.84,0-5.69,0-8.53c3.65,0.65,7.03,2.09,10.42,3.51
		C76.97,221.41,76.53,224.06,76.5,226.75z"/>
	<path class="st43" d="M67.1,232.77c3.04,0.95,6.11,1.83,9.11,2.9c1.12,0.4,2.19,0.65,3.35,0.56c1.9,2.45,4.08,4.62,6.58,6.46
		c-3.99-0.36-7.53-2.28-11.33-3.32c-2.61-0.72-5.14-1.72-7.71-2.6C67.11,235.43,67.11,234.1,67.1,232.77z"/>
	<path class="st56" d="M105.46,292.85c-1.07,1.96-2.72,2.4-4.64,1.87c-1.68-0.47-2.62-1.76-2.73-3.49
		c-0.12-1.88,0.83-3.29,2.53-3.89c1.98-0.7,3.7-0.14,5.13,2.17c-1.37,0-2.4-0.02-3.43,0.01c-0.93,0.03-1.71,0.42-1.74,1.42
		c-0.03,1.11,0.78,1.55,1.81,1.65C103.36,292.66,104.37,292.36,105.46,292.85z"/>
	<path class="st57" d="M413.28,291.18c-0.94-0.75-3.01,1.06-3.03-1.27c-0.02-1.74,1.34-2.76,3.16-2.83
		c1.72-0.06,3.67,1.49,3.36,2.92C416.31,292.12,414.41,290.46,413.28,291.18z"/>
	<path class="st58" d="M120.06,291.05c-0.8-0.57-2.86,1.15-2.91-1.12c-0.04-1.71,1.31-2.78,3.15-2.85c1.75-0.07,3.42,1.37,3.43,2.92
		C123.74,291.05,123.74,291.05,120.06,291.05z"/>
	<path class="st59" d="M280.4,291.26c-1.18-0.78-3.02,0.87-3.4-1.25c-0.27-1.49,1.63-3.02,3.38-2.92c1.82,0.1,3.22,1.12,3.09,2.91
		C283.31,292.21,281.23,290.27,280.4,291.26z"/>
	<path class="st60" d="M352.37,290.99c0.01-2.19,1.76-3.91,3.97-3.9c2.19,0.01,3.99,1.79,3.98,3.93c-0.01,2.14-1.83,3.9-4.02,3.89
		C354.07,294.9,352.35,293.19,352.37,290.99z"/>
	<path class="st60" d="M71.01,291.11c-0.05,2.19-1.83,3.85-4.07,3.8c-2.18-0.05-3.95-1.87-3.89-4.01c0.06-2.16,1.89-3.87,4.09-3.82
		C69.33,287.13,71.05,288.92,71.01,291.11z"/>
	<path class="st56" d="M296.74,292.24c-1.35,0.27-1.78-0.38-1.71-1.78c0.09-1.88,0.65-3.32,2.78-3.35c1.59-0.02,2.55,1.03,2.5,2.52
		C300.24,291.71,298.76,292.36,296.74,292.24z"/>
	<path class="st56" d="M83.75,292.25c-1.34,0.29-1.85-0.36-1.75-1.9c0.11-1.77,0.59-3.17,2.6-3.25c1.68-0.06,2.61,1,2.68,2.61
		C87.35,291.24,85.94,292.24,83.75,292.25z"/>
	<path class="st60" d="M212.1,290.97c0.02,2.22-1.68,3.94-3.91,3.95c-2.17,0.01-4.03-1.77-4.05-3.88c-0.02-2.11,1.81-3.93,3.98-3.96
		C210.33,287.06,212.08,288.77,212.1,290.97z"/>
	<path class="st61" d="M393.91,290.48c-0.06-2,0.6-3.33,2.58-3.37c1.66-0.03,2.63,0.95,2.54,2.65c-0.11,2.03-1.53,2.41-3.27,2.52
		C394.18,292.38,393.64,291.78,393.91,290.48z"/>
	<path class="st31" d="M327.89,229.72c-3.07-0.21-5.92-1.42-8.93-1.95c0-0.08,0-0.16-0.01-0.25c-0.02-3.31-0.02-3.3,3.03-2.33
		c0.77,0.25,1.58,0.45,2.38,0.55C328,226.18,328,226.16,327.89,229.72z"/>
</g>
</svg>
