<?xml version="1.0" encoding="utf-8"?>
<!-- Generator: Adobe Illustrator 25.0.1, SVG Export Plug-In . SVG Version: 6.00 Build 0)  -->
<svg version="1.1" id="Calque_1" xmlns="http://www.w3.org/2000/svg" xmlns:xlink="http://www.w3.org/1999/xlink" x="0px" y="0px"
	 viewBox="0 0 1162.68 397.72" style="enable-background:new 0 0 1162.68 397.72;" xml:space="preserve">
<style type="text/css">
	.st0{fill:#E95A1E;}
	.st1{fill:#FEFEFE;}
	.st2{fill:#FEEBD0;}
	.st3{fill:#F48966;}
	.st4{fill:#F28864;}
	.st5{fill:#F4B19D;}
	.st6{fill:#FDFDFD;}
	.st7{fill:#E85D21;}
	.st8{fill:#E95A1F;}
	.st9{fill:#E95A20;}
	.st10{fill:#E95B21;}
	.st11{fill:#E85A20;}
	.st12{fill:#E85B1F;}
	.st13{fill:#E95A22;}
	.st14{fill:#E85B21;}
	.st15{fill:#E95B20;}
	.st16{fill:#E85B22;}
	.st17{fill:#E85D22;}
	.st18{fill:#E65B20;}
	.st19{fill:#E95B22;}
	.st20{fill:#E85D24;}
	.st21{fill:#EA5A21;}
	.st22{fill:#E75D24;}
	.st23{fill:#E75E26;}
	.st24{fill:#E46D3E;}
	.st25{fill:#DF6533;}
	.st26{fill:#DF6330;}
	.st27{fill:#CF734D;}
	.st28{fill:#DE6534;}
	.st29{fill:#D8805E;}
	.st30{fill:#DE5F2C;}
	.st31{fill:#FCF2E0;}
	.st32{fill:#F8D7C1;}
	.st33{fill:#FEE2D5;}
	.st34{fill:#C2745B;}
	.st35{fill:#F0D5C8;}
	.st36{fill:#E95A21;}
	.st37{fill:#FDFDFC;}
	.st38{fill:#FDFBFA;}
	.st39{fill:#FCFCFB;}
	.st40{fill:#FDFCFB;}
	.st41{fill:#FDFCFC;}
	.st42{fill:#FCFDFB;}
	.st43{fill:#FCFCFA;}
</style>
<g>
	<path class="st0" d="M465.55,34.7c-12.64,7.57-25.05,15.48-37.04,24.06C405.25,75.42,383.44,93.8,363,113.83
		c-7.67,7.52-15.11,15.24-22.49,23.03c-1.27,1.34-1.49,2.06,0.07,3.53c15.64,14.75,28.39,31.6,36.71,51.58
		c8.44,20.28,11.93,41.31,9.45,63.22c-4.52,39.96-24.72,70.98-55.06,96.15c-10.14,8.41-21.22,15.44-32.88,21.56
		c-0.34,0.18-0.76,0.21-1.15,0.31c-1.21-0.4-1.83,0.36-2.42,1.21c-7.78,4.48-16.16,7.58-24.57,10.56
		c-14.48,5.13-29.42,8.48-44.61,10.66c-4.43,0.64-8.91,0.93-13.36,1.43c-0.71,0.08-1.64-0.42-2.09,0.6c-0.6,0-1.2,0-1.8,0
		c-0.97-0.63-2.05-0.17-3.06-0.31c-1.17,0.16-2.4-0.34-3.54,0.31c-5.6,0-11.2,0-16.8,0c-1.6-0.5-3.2-0.5-4.8,0c-1.4,0-2.8,0-4.2,0
		c-5.91-0.73-11.89-0.74-17.79-1.63c-26.72-4.05-52.08-12.19-75.71-25.4c-20.7-11.57-38.87-26.24-53.62-44.92
		C14.76,307.35,5.11,286.75,1,263.65c-0.24-1.38-0.48-2.75-0.4-4.16c-0.03-0.97,0.07-1.95-0.09-2.92c-0.13-0.37-0.22-0.77-0.51-1.06
		c0-8.6,0-17.19,0-25.79c0.5-1.77,0.8-3.58,1.11-5.39c2.41-16.6,7.86-32.17,16.04-46.79c0.24-0.43,0.59-0.8,0.9-1.19
		c0.72-1.23,2.3-1.94,2.24-3.65c4.73-8.56,10.9-16.07,17.45-23.24c13.95-15.26,30.3-27.43,48.5-37.16
		c18.75-10.03,38.59-16.96,59.41-21.3c20.49-4.26,41.18-5.64,61.99-4.46c33.61,1.91,65.44,10.47,95.13,26.58
		c1.95,1.06,2.49,1.73,0.73,3.58c-3.49,3.67-6.76,7.54-10.06,11.39c-1.1,1.29-1.87,1.73-3.66,0.68
		c-20.15-11.8-41.77-19.81-64.68-24.14c-20.01-3.78-40.18-4.93-60.55-2.86c-25.24,2.56-49.13,9.34-71.26,21.8
		c-24.1,13.57-43.36,31.97-55.25,57.29c-8.82,18.77-12.01,38.48-9.48,59.18c1.55,12.72,5.03,24.89,10.51,36.32
		c9.89,20.66,24.32,37.86,42.15,52.21c18.77,15.1,39.76,26.09,62.64,33.44c24.58,7.9,49.81,11.12,75.61,9.92
		c23.06-1.07,45.24-5.96,66.43-15.2c0.63-0.28,1.32-0.42,1.99-0.62c1.2,0.47,1.82-0.34,2.45-1.12c8.29-4.52,16.64-8.93,24.3-14.5
		c20.38-14.8,36.03-33.33,44.83-57.16c6.09-16.48,7.89-33.49,5.7-50.94c-1.41-11.27-4.48-22.06-9.04-32.42
		c-7.05-16.02-17.13-29.97-29.15-42.63c-2.09-2.2-3.13-1.92-4.94,0.24c-15.79,18.85-30.83,38.29-44.59,58.67
		c-14.92,22.1-29.33,44.53-40.5,68.86c-5.99,13.04-11.09,26.41-15.48,40.07c-0.7,0.16-0.25,1.92-1.61,1.15
		c-11.93-37.91-28.64-73.43-53.08-104.98c-14.54-18.78-31.89-34.69-51.19-48.48c-0.56-0.4-1.08-0.87-1.62-1.3
		c-0.24-2.53,1.36-1.42,2.48-1.25c5.89,1.59,11.33,4.32,16.97,6.54c13.21,5.18,25.48,12.04,36.88,20.52
		c20.33,15.11,36.4,33.99,49.81,55.77c2.52-3.83,4.95-7.51,7.36-11.21c18.14-27.77,37.71-54.47,59.19-79.77
		c25.3-29.8,52.85-57.22,84.11-80.8c13.86-10.46,28.29-20.03,43.62-28.2c14.86-7.92,30.19-14.77,46.54-19.08
		c1.05-0.28,2.15-0.38,3.23-0.56C465.22,33.24,466.07,33.18,465.55,34.7z"/>
	<path class="st1" d="M0,255.51c0.36,0.01,0.6,0.15,0.65,0.53c0.56,0.97-0.05,2.1,0.44,3.08c1.93,14.13,6.1,27.6,12.45,40.34
		c11.1,22.29,27.09,40.55,46.85,55.53c23.41,17.76,49.64,29.51,78.2,36.29c11.97,2.84,24.07,4.67,36.3,5.76
		c0.55,0.05,1.24-0.17,1.5,0.62c-57.94,0-115.88-0.01-173.82,0.06c-2.12,0-2.63-0.38-2.63-2.59C0.02,348.59,0,302.05,0,255.51z"/>
	<path class="st0" d="M1162.68,154.75c-2.56,2.91-4.45,6.29-6.55,9.51c-12.98,19.92-24.59,40.66-36.85,61.02
		c-0.72,1.19-0.93,2.35-0.93,3.67c0.02,10.29-0.28,20.58,0.11,30.85c0.26,6.98,0.5,13.95,0.61,20.94c0.04,2.29-0.69,2.89-2.91,2.82
		c-5.29-0.15-10.59-0.08-15.88,0c-1.71,0.03-2.42-0.28-2.36-2.29c0.48-17.36,0.95-34.72,0.8-52.1c-0.02-1.91-0.6-3.48-1.62-5.01
		c-0.71-1.05-1.63-2.02-1.72-3.39c-0.04-1.64-1.3-2.55-2.22-3.66c-6.29-10.71-12.65-21.39-18.86-32.16
		c-5.52-9.57-11.65-18.76-17.69-28c-0.53-0.81-1.24-1.54-1.31-2.82c7.73,0,15.41,0.03,23.08-0.02c1.49-0.01,1.79,1.11,2.25,2.02
		c9.65,19.22,21.18,37.37,31.62,56.14c0.19,0.33,0.43,0.63,0.87,1.27c4.22-7.24,8.35-14.21,12.38-21.25
		c6.87-12,14.6-23.51,20.52-36.04c0.77-1.62,1.89-2.23,3.77-2.16c4.29,0.16,8.59,0.05,12.89,0.05
		C1162.68,154.35,1162.68,154.55,1162.68,154.75z"/>
	<path class="st0" d="M517.75,0c0.12,0.67,0.58,0.95,1.19,1.17c8.7,3.15,13.84,10.53,13.88,19.89c0.04,9.48-5.15,17.35-13.56,20.54
		c-13.63,5.17-28.83-7.27-26.97-22.19c1.16-9.3,5.9-15.9,15.14-18.79c0.46-0.14,0.89-0.41,1.33-0.63C511.75,0,514.75,0,517.75,0z"/>
	<path class="st2" d="M1.11,224.33c0.03,1.88,0.03,3.75-1.11,5.39c0-1,0-2,0-3C0.37,225.93,0.74,225.13,1.11,224.33z"/>
	<path class="st3" d="M180.58,397.67c1.6-0.98,3.2-0.88,4.8,0C183.78,397.67,182.18,397.67,180.58,397.67z"/>
	<path class="st4" d="M202.18,397.67c1.09-1.09,2.42-0.46,3.65-0.52c0.16,0.13,0.2,0.25,0.13,0.37c-0.06,0.1-0.13,0.16-0.19,0.16
		C204.58,397.67,203.38,397.67,202.18,397.67z"/>
	<path class="st5" d="M205.78,397.67c0-0.18,0.02-0.35,0.05-0.52c0.99,0.11,2.14-0.61,2.95,0.52
		C207.78,397.67,206.78,397.67,205.78,397.67z"/>
	<path class="st0" d="M617.96,160.71c0.07-2.23-1.66-4.07-1.35-6.58c6.77,0,13.55,0.03,20.33-0.02c1.4-0.01,1.64,0.84,1.84,1.85
		c3.34,16.82,8.2,33.26,12.73,49.78c4,14.59,8.05,29.18,12.08,43.76c0.28,0.89,0.57,1.77,1,2.59c0.38,0.72,0.46-0.17,0.71-0.2
		c6.63-20.87,13.27-41.73,19.89-62.6c2.5-7.88,4.71-15.87,7.56-23.62c1.3-3.54-0.27-6.24-1.11-9.19c-0.55-1.93-0.33-2.43,1.7-2.39
		c5.2,0.11,10.4,0.08,15.59,0.01c1.54-0.02,2.23,0.44,2.7,2.01c6.76,22.94,13.59,45.85,20.43,68.76c2.59,8.69,5.21,17.37,7.89,26.03
		c0.22,0.72-0.15,2.17,1.15,2.05c0.98-0.09,0.97-1.4,1.2-2.21c2.18-7.67,4.29-15.35,6.45-23.03c3-10.65,6-21.29,9.03-31.93
		c2.86-10.06,5.91-20.07,8.51-30.2c0.78-3.04,1.22-6.24,1.81-9.36c0.25-1.33,0.72-2.16,2.3-2.13c3.88,0.08,7.77,0.03,11.92,0.03
		c-2.14,6.71-4.13,13.17-6.25,19.58c-3.5,10.6-6.29,21.41-9.39,32.13c-4.65,16.08-9.22,32.19-13.84,48.28
		c-1.76,6.13-3.46,12.28-5.31,18.38c-0.96,3.17,0.71,5.87,1.35,8.72c0.46,2.03-0.04,2.37-1.92,2.33c-5.1-0.1-10.2-0.14-15.29,0.01
		c-2.07,0.06-2.74-0.88-3.26-2.62c-6.27-21.01-12.59-42-18.89-62.99c-3.33-11.07-6.65-22.14-9.99-33.2c-0.1-0.33,0-0.81-0.81-0.96
		c-2.11,6.67-4.24,13.36-6.34,20.06c-5.05,16.17-10.07,32.34-15.12,48.51c-2.11,6.75-4.23,13.5-6.38,20.24
		c-0.97,3.02,0.5,5.71,1.16,8.47c0.52,2.14-0.07,2.54-2.07,2.5c-5-0.12-10-0.13-14.99,0c-1.88,0.05-2.61-0.66-3.08-2.39
		c-4.11-15.41-8.28-30.8-12.47-46.18c-1.52-5.57-3.16-11.11-4.74-16.67c-1.89-2.48-2.2-5.54-2.97-8.4
		c-4.12-15.32-8.14-30.67-13.18-45.72C618.15,163.05,618.1,161.88,617.96,160.71z"/>
	<path class="st0" d="M1046.35,221.82c6.27,3.61,10.11,9.1,12.07,15.93c5.11,17.77-3.96,34.5-19.31,41.74
		c-6.37,3.01-13.16,4-20.1,4.04c-14.99,0.07-29.99-0.04-44.98,0.06c-2.33,0.01-2.89-0.61-2.63-2.89c0.73-6.45,1.09-12.93,1.09-19.42
		c-0.01-28.78-0.03-57.57,0.02-86.35c0.01-6.4-0.18-12.78-1.02-19.12c-0.21-1.57,0.46-1.65,1.6-1.63
		c17.58,0.28,35.21-0.97,52.74,0.73c11.92,1.15,21.49,6.9,26.58,18.09c6.21,13.67,0.45,29.64-12.68,36.78
		c-3.06,1.66-6.28,2.94-9.63,3.89c-0.62,0.27-1.25,0.51-2.06,0.67c0.59,0.1,1.15-0.1,1.45,0.44c4.39,1.67,9.14,2.35,13.2,4.89
		C1043.82,220.51,1044.71,221.8,1046.35,221.82z"/>
	<path class="st0" d="M616.77,214.13c-0.16,7.28-0.12,14.58-1.21,21.81c-2.22,14.86-6.83,28.51-19.14,38.31
		c-1.68,1.34-3.56,2.43-5.73,3.89c6.22,1.94,12.27,2.14,18.3,2.52c2.13,0.13,4.96-0.99,6.13,0.6c0.66,0.89-1.23,3.69-2.01,5.6
		c-0.9,2.21-1.86,4.4-2.79,6.59c-0.83,1.95-1.99,2.6-4.23,1.88c-12.63-4.06-25.4-7.62-38.38-10.44c-1.99-0.43-3.94-0.55-5.94-0.51
		c-11.08,0.2-21.34-2.21-30.03-9.52c-4.08-3.43-7.21-7.63-9.83-12.24c-5.89-10.38-7.99-21.79-8.88-33.48
		c-1.08-14.24-0.35-28.36,4.16-42.03c4.79-14.54,13.24-26.05,28.07-31.67c8.97-3.4,18.27-3.66,27.75-2.37
		c10.31,1.41,19.25,5.44,26.86,12.51c5.2,3.79,8.01,9.32,10.61,14.93c3.95,8.52,5.64,17.62,6.46,26.91
		C617.13,209.64,618.03,211.92,616.77,214.13z"/>
	<path class="st0" d="M825.74,283.54c-11.8,0-23.59-0.03-35.39,0.04c-2.04,0.01-2.86-0.45-2.58-2.69
		c1.01-8.04,1.18-16.12,1.17-24.22c-0.03-28.79,0.01-57.57-0.06-86.36c-0.01-4.49-0.25-9-0.8-13.45c-0.31-2.54,0.62-2.77,2.7-2.76
		c11.8,0.07,23.59,0.04,35.39,0.04c10.7,0,21.4,0.08,32.09-0.05c2.33-0.03,2.97,0.7,2.81,2.88c-0.17,2.39-0.1,4.8-0.03,7.19
		c0.04,1.57-0.45,1.96-2.11,1.86c-16.26-0.99-32.54-1.12-48.83-1.1c-1.48,0-1.88,0.6-1.88,1.96c0.03,14.19,0.04,28.39-0.01,42.58
		c-0.01,1.84,0.86,2.14,2.38,2.14c12.49,0.04,24.98-0.04,37.43-1.15c1.99-0.18,2.89-0.03,2.74,2.28c-0.19,2.99-0.15,6,0,8.99
		c0.1,1.94-0.53,2.26-2.38,2.06c-12.43-1.38-24.92-1.51-37.42-1.44c-2.03,0.01-2.78,0.5-2.77,2.65c0.07,14.99,0.06,29.98-0.01,44.98
		c-0.01,1.84,0.55,2.37,2.38,2.37c15.99,0.01,31.98,0.02,47.96-0.67c5.3-0.23,5.29-0.32,5.29,5.03c-0.01,6.84-0.01,6.84-6.88,6.84
		C846.53,283.53,836.13,283.53,825.74,283.54z"/>
	<path class="st0" d="M917.19,283.52c-11.69,0-23.39-0.03-35.08,0.03c-1.75,0.01-2.79-0.09-2.61-2.35
		c2.55-31.63,0.68-63.31,1.16-94.97c0.15-9.98,0.61-19.99-0.96-29.92c-0.29-1.82,0.41-2.2,2.08-2.19
		c22.99,0.04,45.98,0.04,68.97,0.01c1.3,0,2.09,0.16,2.04,1.73c-0.08,2.9-0.06,5.8-0.01,8.69c0.03,1.37-0.53,1.6-1.81,1.52
		c-16.35-1.09-32.73-1.09-49.11-1.15c-1.66-0.01-1.98,0.64-1.97,2.11c0.04,14.19,0.04,28.38-0.01,42.57
		c-0.01,1.64,0.62,2.02,2.11,2.02c12.39,0.01,24.78,0,37.13-1.12c2.86-0.26,3.71,0.45,3.46,3.23c-0.23,2.48-0.19,5-0.03,7.49
		c0.14,2.09-0.42,2.82-2.64,2.56c-12.33-1.44-24.72-1.43-37.11-1.47c-2.07-0.01-2.95,0.34-2.93,2.75
		c0.12,14.89,0.1,29.78,0.01,44.67c-0.01,2.12,0.58,2.62,2.66,2.62c15.79,0.02,31.58-0.08,47.36-0.65c0.1,0,0.2,0,0.3-0.01
		c5.31-0.31,5.31-0.31,5.34,5.23c0.04,6.59,0.04,6.6-6.54,6.6C938.38,283.53,927.79,283.53,917.19,283.52z"/>
	<path class="st0" d="M61.19,272.18c0-6.6-0.01-13.19,0.01-19.79c0.01-3.65,1.14-4.78,4.85-4.79c12.49-0.02,24.99-0.09,37.48,0.07
		c2.75,0.04,3.33-0.84,3.25-3.39c-0.19-5.89-0.04-11.79-0.08-17.69c-0.02-2.35,0.64-3.59,3.39-3.53c7.39,0.17,14.79,0.12,22.19,0.03
		c2.41-0.03,3.44,0.81,3.41,3.3c-0.09,7.49-0.11,14.99,0.01,22.48c0.04,2.58-1.07,3.27-3.42,3.24c-6.2-0.09-12.4,0.15-18.59-0.11
		c-2.94-0.12-3.38,0.97-3.35,3.55c0.12,12.09,0.06,24.18,0.05,36.27c0,3.84-0.93,4.87-4.7,4.88c-13.19,0.04-26.39,0.05-39.58,0.02
		c-3.89-0.01-4.9-1.11-4.91-5.07C61.18,285.17,61.19,278.67,61.19,272.18z"/>
	<path class="st6" d="M735.49,326.29c-1.05,0.13-1.18,0.87-1.17,1.73c0.02,1.39,0,2.78,0,4.16c0,4.37,0,4.39-4.31,4.89
		c-1.09,0.13-1.62,0.1-0.89,1.55c0.94,1.88,0.48,4.1,0.27,6.14c-0.13,1.21-0.62,2.6-2.53,1.99c-0.61-0.2-1.47-0.3-1.89,0.41
		c-0.6,1.02,0.65,1.26,0.53,2.12c-4,0.17-8.18,0.26-12.02,0.34c-0.74,0.09-0.14,0.67-0.34,0.32c4.21-1,8.58,0.27,12.36-0.66
		c1.92-0.42,2.6,0.96,4.23,1.61c-6.16,1.65-11.84,2.93-17.55,0.32c-0.61,1.96,1.46,1.02,1.3,2.4c-1.81-0.09-3.23,1.34-5.08,1.45
		c-1.78,0.11-0.92-0.81-0.93-1.78c-0.01-0.97-1.1-0.51-1.37,0.17c-0.88,2.19-3.16,2.2-4.24,1.46c-2.4-1.65-5.74,0.96-7.62-2.01
		c-0.08-0.13-0.59-0.11-0.83-0.01c-4.78,1.89-11.27,3.05-16.19,2.05c-2.29-0.46-4.51-1.13-6.87-1.16c-0.55-0.01-0.74-0.59-0.82-1.1
		c0.64-0.72,1.53-0.66,2.43-0.75c-0.68-0.75-1.73-0.87-2.38-1.59c-2.01-1.12-2.34-2.95-1.69-4.87c0.6-1.79-0.35-3.31-0.42-4.96
		c-0.02-0.39-0.24-0.79-0.73-0.78c-0.45,0.01-0.69,0.36-0.86,0.73c-0.18,0.39-0.21,0.82,0.26,1c2.62,1,1.94,3.17,1.22,4.73
		c-0.61,1.32,0.73,2.45-0.24,3.68c-0.32,0.41,0.37,0,0.49-0.03c0.87-0.19,1.57,0,2.14,0.7c0.46,0.77,0.32,1.48-0.23,2.14
		c-1.38,0.26-3.37-0.86-3.73,1.67c-1.43-0.23-3.4,1.19-3.93-1.55c-1.93,2.74-4.82,3.12-6.7,1.03c0.92-0.97,2.72,0.07,2.93-1.72
		c0.26-0.29-0.5-0.39-0.13-0.23c0.12,0.05,0.05,0.11,0,0.26c-0.44,1.43-2.11,0.82-2.8,1.69c-2-0.32-3.36,1.75-5.4,1.28
		c-1.2-0.28-1.3-0.11-1.04-1.56c0.15-0.8-0.37-0.81-0.82-0.84c-0.79-0.06-1.59-0.03-2.39-0.03c-0.55-0.6-0.68-1.26-0.31-2
		c1.28-1.14,0.59-2.19-0.37-2.91c-1.4-1.05-2.03,0.35-2.76,1.15c0.01,0.01-0.05-0.01-0.03,0.05c0.15-0.12,0.3-0.23,0.48-0.35
		c1.31-0.25,2.66-0.67,3.3,1.06c-0.06,1-3.15,1.7-0.3,3c-0.58,1.92-2.73,1.49-3.01,0.85c-1.31-2.96-2.56-0.66-3.88-0.5
		c0.22,1.17,1.37,0.5,1.66,1.35c-0.18,0.16-0.38,0.48-0.59,0.5c-1.17,0.11-2.36,0.18-3.54,0.18c-1.27,0-2.01-0.9-2.44-1.89
		c-0.49-1.13,0.33-1.48,1.33-1.78c1.48-0.44,0.18-2.97,2.72-2.87c-1.47-0.99-3.27-0.17-3.56-2.01c2.18-0.87,2.68-2.56,2.64-4.76
		c-0.09-4.67-0.13-9.35,0.03-14.03c0.06-1.76,0.3-3.57,2.89-2.98c1.01,0.71,0.2,1.11-0.27,1.56c-0.92,1.14-0.55,2.49-0.56,3.76
		c-0.04,4.5-0.02,8.99-0.02,12.44c0.32-4.62-0.49-10.3,0.37-15.94c2.5-1.24,2.09,1,2.16,2.04c0.24,3.56,0.06,7.13,0.11,10.69
		c0.02,1.37-0.19,2.76,0.28,4.46c1.18-3.22,0.26-6.42,1.27-9.33c0.49-0.19,0.85-0.77,1.91-0.31c-0.9-0.49-1.23,0.01-1.64,0.08
		c-0.65-0.31-0.64-0.86-0.62-1.49c0.19-4.34,0.18-4.34-1.26-8.11c-0.26-1.54-1.59-1.54-2.69-1.88c-2.16-0.68-1.9-2.54-1.9-4.17
		c0-1.76-0.07-3.65,1.89-4.62c0.65-0.32,1.35-0.2,1.92,0.32c0.4,1.28,1.51,2.29,1.3,3.83c-0.09,0.69,0.57,1.01,1.24,0.92
		c0.95-0.13,0.68-0.61,0.39-1.25c-0.55-1.22,0.53-1.03,1.12-1.03c4.42-0.03,8.82-0.12,13.21,0.84c2.11,0.46,4.19-1.44,6.52-0.88
		c0.97,0.23,2.32-0.45,2.32,1.5c-0.29,0.29-0.28,0.31-0.27,0.3c0.13-0.12,0.26-0.25,0.38-0.39c0.25-0.26,0.25-0.26-0.01-0.01
		c-0.13,0.12-0.26,0.25-0.09,0.1c2.62-0.57,4.8-0.11,6.83,1.06c0.81,0.47,1.55,1.59,2.61,0.72c1.21-0.99-0.47-1.91-0.28-3.26
		c3.27,0.47,6.62-1,9.81,1.01c0.72,0.46,1.82,0.43,2.58-0.15c0.87-0.66,1.65-1.19,2.64-0.35c0.98,0.84,1.49-0.07,1.95-0.58
		c0.82-0.9,1.75-1.25,2.92-1.12c1.33,2.59,1.58,5.09-0.73,7.28c-0.73,0.7-0.59,1.16,0.12,1.64c1.46,0.99,1.46,2.5,1.48,4.01
		c0.04,3.59-0.05,7.17,0.05,10.76c0.06,2.3,0.78,4.33,2.81,5.64c1.17,0.76,2.44,1.13,4.71-0.06c-6.81-1.61-5.59-6.44-5.65-10.71
		c-0.02-1.29-0.01-2.59,0-3.88c0.01-4.86,0.01-4.86,4.42-6.53c-0.05-0.71-0.65-0.68-1.08-0.68c-2.64-0.02-3.52-1.56-3.31-3.9
		c0.2-2.25-0.47-3.87-2.72-4.63c0.01-0.2,0.03-0.4,0.02-0.6c-0.06-1.03,2.22-2.16,0.33-2.92c-1.88-0.76-1.4,1.22-1.68,2.26
		c-0.41,1.52-2.05,1.63-3.05,1.74c-0.83,0.09-0.32-1.49-0.48-2.32c-0.34-1.75,2.92-3.2-0.36-5.17c2.11-0.32,3.5-0.99,4.04,1.12
		c0.27,1.06,1.06,0.9,1.92,0.68c2.77-0.73,4.2,0.43,3.97,3.27c-0.17,2.09-0.8,4.28,2.61,4.32c1.24,0.01,1.22,1.24,0.58,2.03
		c-0.95,1.16-0.01,1.75,0.66,2.13c1.08,0.62,1.15-0.74,1.69-1.18c0.98-0.78-0.25-3.06,1.71-3.02c2.42,0.05,4.9-0.72,7.3,0.59
		c2.01,1.1,4.08,2.57,6.75,1.33c-0.53-1.45-2.28-0.25-2.91-1.27c0.08-0.76,0.71-0.83,1.11-0.7c4.66,1.51,9.31-0.26,13.97,0
		c0.67,0.04,1.01,0.33,1.38,0.9c1.32,2.06,2.21,1.41,2.88-1.25c0.79,2.82,2.57,4.12,4.27,5.53c1.88,1.56,1.84,4.13,2.23,6.17
		c0.48,2.52,0.73,5.34-0.3,7.95c-0.1,0.25-0.13,0.52-0.19,0.79c2.23,0.49,3.04,3.39,5.61,3.32c-0.32,2.94-3,4.64-6.27,3.97
		c-3.14-0.64-5.09-2.94-5.41-6.69c-0.29-3.49-0.07-6.99-0.11-10.49c0-0.4,0.03-0.8-0.01-1.2c-0.1-0.95,0.35-2.45-0.75-2.64
		c-1.36-0.24-0.96,1.42-1.36,2.23C735.97,325.68,735.81,326.03,735.49,326.29z"/>
	<path class="st7" d="M454,249.84c0,30.18-0.01,60.36,0.02,90.54c0,1.8,0.17,3.25-2.5,3.25c-2.64,0.01-2.57-1.39-2.57-3.23
		c0.02-60.56,0.02-121.12-0.02-181.67c0-2.02,0.23-3.1,2.71-3.04c2.17,0.05,2.41,0.93,2.4,2.71c-0.06,11.29-0.05,22.58-0.05,33.88
		c0,19.19,0,38.37,0,57.56C453.99,249.84,453.99,249.84,454,249.84z"/>
	<path class="st6" d="M616.77,214.13c-0.87-10.43-2.02-20.78-5.9-30.66c-2.62-6.65-6.48-12.46-11-17.89
		c1.53-0.1,2.82,2.64,4.66-0.25c-0.14,2.56,0.07,4.29,2.48,4.79c1.45,0.3-0.26,1.71,0.77,2.47c1.86,1.38,5.14,1.3,6.81-0.43
		c0.27-0.28,0.78-0.76,0.71-0.9c-1.34-2.63,0.85-5.34-0.21-7.95c-0.43-1.06-0.4-0.93,0.98-1.23c0.7-0.15,1.27-0.88,1.9-1.35
		c3.14,6.71,4.82,13.92,6.93,20.96c3.53,11.74,6.51,23.64,9.71,35.47c0.1,0.38,0.06,0.79,0.09,1.18c-1.55,0.16-2.54-0.26-2.38-2.09
		c0.07-0.75-0.2-1.41-1.14-1.42c-1.14-0.01-1.16,0.81-1.24,1.65c-0.15,1.67-0.12,3.21,2.09,3.77c-1.45,0.33-1.97,0.44-3.4-1.1
		c-2.71-2.93-2.55-6.71-4.47-9.7c-0.1-0.16-0.2-0.43-0.13-0.57c2.45-5.14-3.18-6.93-4.37-10.6c-0.07,2.95,0.06,5.92,1.83,8.28
		c1.03,1.36,1.56,2.56,1.03,4.06c-1.1,3.09-1.35,6.58-0.43,10.03c1.28-1.82,0.11-3.85,0.94-5.48c2.63,1.58,2.92,3.69,0.84,5.72
		c-1.34,1.32-1.34,2.96-1.25,4.69c0.15,2.85,0.31,5.71-0.12,8.7c-1.49-0.38-0.52-1.93-1.43-2.39c-1.15,0.03-0.35,1.54-1.58,1.71
		c-0.38-1.2-0.87-2.06,0.28-3.53c1.91-2.44-0.34-4.85-1.06-7.16c-0.31-1.01-0.34-1.48-0.02-2.53c0.89-2.89,0.48-5.93,0.23-9.12
		C617.38,212,618.59,214.07,616.77,214.13z"/>
	<path class="st8" d="M166.95,270.21c0,2.6-0.03,5.2,0.01,7.79c0.03,1.52-0.62,2.14-2.15,2.13c-5-0.05-9.99-0.03-14.99-0.01
		c-1.51,0.01-2.16-0.65-2.15-2.17c0.04-4.99,0.03-9.99,0.01-14.98c-0.01-1.52,0.74-2.17,2.21-2.16c5,0.01,9.99,0.03,14.99,0
		c1.57-0.01,2.11,0.77,2.1,2.22c-0.03,2.4-0.01,4.79-0.01,7.19C166.96,270.21,166.96,270.21,166.95,270.21z"/>
	<path class="st9" d="M991.06,323.9c5.36-3.46,8.35-3.39,12.97,0.55c1.53,1.31,1.75-0.25,2.26-0.67c4.78-3.93,11.22-2.86,14.03,2.39
		c0.44,0.82,0.76,1.64,0.76,2.55c0.04,5.39,0.03,10.79,0.09,16.18c0.02,1.32-0.52,1.74-1.78,1.72c-1.22-0.01-1.83-0.38-1.82-1.71
		c0.04-4.49,0.05-8.99,0-13.48c-0.05-4.42-1.9-6.52-5.62-6.5c-3.72,0.02-5.77,2.2-5.85,6.4c-0.07,4.29-0.01,8.59-0.02,12.89
		c0,1.19,0.24,2.38-1.7,2.42c-2.04,0.03-1.93-1.17-1.92-2.53c0.01-4.2,0.04-8.39-0.02-12.59c-0.07-4.54-2.02-6.68-5.88-6.6
		c-3.64,0.08-5.52,2.28-5.56,6.62c-0.04,4.29-0.05,8.59,0.01,12.89c0.02,1.44-0.29,2.21-1.96,2.2c-1.7-0.01-1.64-1-1.63-2.15
		c0.01-6.69-0.02-13.39,0.04-20.08c0.01-0.93-0.71-2.41,1.03-2.64C989.89,321.58,991.52,321.39,991.06,323.9z"/>
	<path class="st10" d="M808.53,323.98c0-3.91,0-7.37,0-10.83c0-1.21-0.19-2.4,1.73-2.39c1.82,0.01,1.84,1.06,1.84,2.34
		c-0.01,10.39,0.01,20.78-0.02,31.17c0,0.94,0.2,2.18-1.28,2.26c-0.91,0.05-2.11,0.48-2.28-1.12c-0.14-1.34-0.61-0.74-1.29-0.3
		c-5.91,3.79-13.12,1.6-13.98-7.42c-0.37-3.9-0.18-7.77,1.03-11.55c1.19-3.71,7.08-5.87,11.13-3.97
		C806.31,322.59,807.13,323.16,808.53,323.98z"/>
	<path class="st11" d="M860.93,323.9c1.94-1.28,3.66-2.4,5.89-2.43c4.26-0.06,7.14,1.72,8.35,5.8c1.33,4.48,1.44,9.13,0.05,13.58
		c-1.82,5.84-7.34,7.7-12.7,4.61c-0.48-0.28-0.82-0.92-1.79-0.68c0,3.42,0,6.89,0,10.37c0,1.21,0.2,2.36-1.73,2.37
		c-1.84,0.01-1.83-0.99-1.83-2.28c0.01-10.3-0.01-20.59,0.02-30.89c0-1-0.44-2.31,1.21-2.63
		C860.05,321.42,860.85,322.17,860.93,323.9z"/>
	<path class="st12" d="M1046.29,336.95c0,2.6,0.02,5.2-0.01,7.8c-0.01,0.63,0.3,1.57-0.66,1.74c-0.92,0.16-2.32,0.6-2.7-0.41
		c-0.53-1.4-1.03-1.04-1.85-0.49c-2.64,1.77-5.61,1.39-8.42,0.92c-3.3-0.55-5.49-3.91-5.3-7.36c0.19-3.56,2.69-6.27,6.49-6.69
		c2.37-0.26,4.79-0.19,7.19-0.14c1.31,0.03,1.7-0.44,1.72-1.72c0.03-2.15-0.33-4.22-2.43-5.06c-2.63-1.05-5.57-1.4-7.96,0.51
		c-1.4,1.12-2.26,1.41-3.3-0.1c-1.26-1.82,0.64-2.32,1.5-2.85c4.01-2.42,8.28-2.26,12.3-0.19c3.27,1.69,3.57,5.01,3.47,8.34
		C1046.24,333.15,1046.29,335.05,1046.29,336.95z"/>
	<path class="st13" d="M830.63,335.13c-2,0-4,0.05-6-0.01c-1.56-0.05-2.1,0.42-1.86,2.11c0.8,5.71,6.35,8.2,11.18,4.96
		c0.62-0.42,1.1-1.43,1.92-1.13c0.68,0.25,1.35,0.92,1.71,1.58c0.39,0.71-0.31,1.18-0.85,1.67c-3.28,2.91-7.16,3.06-11,1.97
		c-3.79-1.08-5.73-4.08-6.3-7.95c-0.6-4.11-0.69-8.18,1.26-12c1.84-3.59,4.94-5.04,8.88-4.81c3.78,0.22,6.37,2.36,7.79,5.64
		c2.88,6.66,1.91,8-5.24,7.98C831.63,335.13,831.13,335.13,830.63,335.13z"/>
	<path class="st13" d="M561.17,335.11c-1.9,0-3.8,0.1-5.69-0.03c-2.25-0.15-2.48,0.9-2,2.73c1.38,5.33,6.54,7.36,11.18,4.37
		c0.64-0.41,1.18-1.35,2.02-1.03c0.69,0.27,1.38,0.91,1.73,1.56c0.44,0.82-0.52,1.16-1.01,1.58c-6.07,5.24-15.03,2.56-17.12-5.13
		c-1.08-3.98-0.85-7.93,0.56-11.78c1.44-3.94,5.1-6.18,9.44-5.89c4.08,0.27,7.41,3.17,8.4,7.32c1.41,5.93,1.16,6.26-4.8,6.3
		C562.97,335.13,562.07,335.12,561.17,335.11C561.17,335.12,561.17,335.12,561.17,335.11z"/>
	<path class="st14" d="M598.11,335.12c-1.9,0-3.81,0.13-5.69-0.03c-2.12-0.18-2.28,0.88-2.04,2.54c0.8,5.34,6.58,7.69,11.21,4.46
		c1.17-0.82,2.08-1.35,3.17-0.02c1.33,1.62-0.33,2.11-1.12,2.74c-5.94,4.74-14.64,1.72-16.51-5.87c-0.89-3.6-0.87-7.33,0.44-10.93
		c1.69-4.63,5.21-6.94,9.88-6.49c4.32,0.42,7.69,3.79,8.42,8.43c0.06,0.39,0.08,0.8,0.11,1.19c0.26,3.97,0.26,3.97-3.67,3.97
		C600.91,335.12,599.51,335.12,598.11,335.12z"/>
	<path class="st15" d="M1113.5,335.12c-1.8,0-3.6,0.07-5.39-0.02c-1.62-0.08-2.3,0.25-2.06,2.15c0.74,5.72,6.3,8.28,11.11,4.88
		c1.31-0.92,2.39-1.46,3.42,0.03c1.22,1.77-0.71,2.31-1.56,2.9c-6.85,4.76-15.53,0.66-16.46-7.65c-0.42-3.72-0.41-7.38,1.28-10.81
		c1.64-3.33,4.35-5.08,8.11-5.09c3.85-0.01,6.69,1.67,8.46,5.1c0.14,0.26,0.2,0.56,0.31,0.84c2.51,6.55,1.76,7.67-5.12,7.68
		c-0.7,0-1.4,0-2.1,0C1113.5,335.12,1113.5,335.12,1113.5,335.12z"/>
	<path class="st10" d="M893.31,335.12c-1.89,0-3.8,0.13-5.68-0.03c-2.1-0.18-2.28,0.91-2.07,2.53c0.7,5.24,6.77,7.76,11.18,4.51
		c1.34-0.99,2.34-1.37,3.35,0.13c1.09,1.63-0.59,2.09-1.41,2.68c-6.37,4.62-14.89,1.36-16.49-6.44c-0.7-3.41-0.68-6.93,0.53-10.33
		c1.71-4.79,5.12-7.07,10.04-6.63c4.14,0.37,7.45,3.66,8.26,8.21c0.92,5.17,0.74,5.39-4.43,5.38
		C895.5,335.12,894.41,335.12,893.31,335.12z"/>
	<path class="st14" d="M960.43,334.2c-0.18,1.72-0.25,3.53-0.58,5.28c-0.79,4.19-4.34,7.12-8.63,7.27
		c-4.85,0.16-8.19-2.11-9.46-6.52c-1.16-4.01-1.27-8.03-0.01-12.06c1.44-4.58,5.2-7.1,10-6.65c4.26,0.4,7.64,3.73,8.22,8.14
		C960.16,331.15,960.27,332.64,960.43,334.2z"/>
	<path class="st16" d="M735.49,326.29c0.04-0.69,0.11-1.39,0.11-2.08c-0.01-1.35-0.09-2.56,1.93-2.55c1.98,0.02,1.64,1.3,1.65,2.44
		c0.02,3.79,0,7.58,0.02,11.37c0.01,1.49,0.08,2.97,0.58,4.42c0.83,2.39,2.63,3.58,4.98,3.57c2.3-0.01,4.65-0.46,5.3-3.33
		c0.94-1.19,0.88-2.6,0.88-4c0.01-4.19,0.02-8.39-0.01-12.58c-0.01-1.15,0.24-1.91,1.64-1.89c1.21,0.02,1.91,0.44,1.91,1.72
		c0.01,7.19,0.02,14.37,0.02,21.56c0,0.86-0.19,1.67-1.28,1.6c-0.79-0.05-2,0.53-2.13-0.89c-0.17-1.9-0.86-0.81-1.59-0.4
		c-7.15,4-13.61,0.33-13.85-7.89C735.53,333.67,735.54,329.98,735.49,326.29z"/>
	<path class="st16" d="M1054.25,334.19c0-3.49,0-6.99,0-10.48c0-0.92-0.04-1.89,1.25-1.97c0.87-0.05,1.96-0.32,2.2,0.92
		c0.36,1.81,1.05,0.73,1.78,0.33c6.94-3.86,13.3-0.22,13.38,7.67c0.05,4.49,0.02,8.98,0,13.48c-0.01,1.13,0.38,2.46-1.61,2.48
		c-2,0.02-1.95-1.25-1.96-2.59c-0.03-4.69-0.02-9.38-0.1-14.07c-0.04-2.32-1.23-4.12-3.44-4.73c-2.49-0.69-5.02-0.55-6.76,1.83
		c-1.17,1.61-1.13,3.57-1.16,5.43c-0.08,3.89-0.01,7.79-0.02,11.68c0,1.18,0.24,2.41-1.68,2.47c-2.07,0.06-1.89-1.22-1.89-2.55
		C1054.26,340.78,1054.25,337.49,1054.25,334.19z"/>
	<path class="st8" d="M524.35,328.69c0-5.19,0-10.38,0-15.57c0-1.2-0.22-2.34,1.71-2.38c2-0.04,1.97,1.05,1.97,2.45
		c-0.02,8.99,0.09,17.97-0.07,26.96c-0.04,2.46,0.75,3.02,3.03,2.93c4.19-0.16,8.39-0.04,12.58-0.05c1.15,0,2.23-0.09,2.18,1.61
		c-0.04,1.59-0.83,2-2.29,1.99c-5.69-0.05-11.39-0.09-17.08,0.02c-1.89,0.04-2.07-0.87-2.06-2.37
		C524.38,339.07,524.35,333.88,524.35,328.69z"/>
	<path class="st14" d="M1084.5,328.6c-1.78,3.52-1.63,7.23-0.31,10.7c1.67,4.39,6.27,5.54,10.08,2.68c1.35-1.01,2.08-0.91,3.06,0.25
		c1.23,1.45-0.2,1.96-0.93,2.56c-5.79,4.75-14.62,1.38-16.24-6.37c-0.78-3.71-0.71-7.53,0.92-11.17c2.66-5.95,10.73-7.76,15.67-3.45
		c0.83,0.72,1.56,1.28,0.42,2.38c-0.84,0.81-1.34,1.5-2.61,0.35c-2.2-2-4.8-2.18-7.46-0.75
		C1086.27,326.75,1085.57,327.85,1084.5,328.6z"/>
	<path class="st17" d="M928.91,335.58c0-2.5,0.02-4.99-0.01-7.49c-0.02-1.48,0.59-3.35-2.05-3.33c-0.67,0-0.7-0.85-0.7-1.46
		c0-0.65,0.17-1.27,0.94-1.25c2.02,0.05,1.87-1.32,1.83-2.65c-0.06-1.81,0.06-3.58,0.83-5.27c1.18-2.61,4.19-4.07,6.94-3.45
		c0.95,0.21,1.03,0.74,1.05,1.47c0.02,0.96-0.08,1.66-1.3,1.95c-3.51,0.83-4.84,3.26-3.91,6.7c0.48,1.79,1.91,1.03,2.97,1.15
		c1.08,0.12,2.31-0.2,2.22,1.57c-0.07,1.52-1.18,1.48-2.15,1.35c-2.55-0.35-3.2,0.72-3.12,3.17c0.18,5.39,0.06,10.79,0.05,16.18
		c0,1.16,0.31,2.45-1.67,2.42c-1.76-0.03-1.91-1.05-1.91-2.35C928.91,341.38,928.91,338.48,928.91,335.58z"/>
	<path class="st18" d="M640.14,325.04c-1.83-0.53-2.46,0.14-2.43,2.04c0.09,5.34-0.11,10.69,0.09,16.02
		c0.11,2.82-0.59,4.15-3.58,3.41c-0.03-6.37-0.06-12.74-0.09-19.1c0-1.3,0.25-2.71-1.83-2.55c-1.12,0.09-1.22-0.74-1.22-1.6
		c0-0.84,0.34-1.34,1.23-1.26c1.78,0.17,1.84-0.95,1.83-2.27c-0.01-1.78-0.18-3.57,0.49-5.31c1.04-2.72,4.24-4.42,7-3.73
		c0.95,0.24,0.92,0.81,1.01,1.51c0.19,1.5-0.72,1.89-1.91,2.06c-4.31-0.02-2.58,3.33-3,5.44c-0.44,2.24,1.02,2.34,2.69,2.29
		c2.76-0.08,2.91,1.12,1.34,3.03C641.24,325.57,640.7,325.6,640.14,325.04z"/>
	<path class="st19" d="M695.99,314.44c2.79-0.72,4.07,0.16,3.63,3.2c-0.38,2.67-0.25,5.08,3.62,4.36c0.9-0.17,1.52,0.29,1.51,1.36
		c-0.01,1.19-0.7,1.69-1.73,1.49c-3.55-0.7-3.55,1.45-3.46,3.98c0.12,3.49,0.01,6.99,0.04,10.48c0.02,2.23,0.67,4,3.39,3.85
		c1.3-0.07,1.73,0.49,1.76,1.76c0.03,1.4-0.66,1.62-1.83,1.69c-3.96,0.23-6.8-2.35-6.89-6.55c-0.09-4.29-0.03-8.59-0.01-12.88
		c0.01-1.26,0.11-2.45-1.75-2.35c-0.87,0.05-1.15-0.65-1.17-1.42c-0.01-0.51,0.04-1.23,0.56-1.24c3.43-0.03,2.13-2.58,2.32-4.29
		c0.09-0.78-0.06-1.59-0.1-2.38C695.93,315.14,695.96,314.79,695.99,314.44z"/>
	<path class="st20" d="M971.13,323.98c3.48-2.48,6.82-3.52,10.55-1.41c0.87,0.49,1.69,1.13,0.87,2.04
		c-0.66,0.73-1.09,2.13-2.82,1.37c-5.19-2.28-8.73,0.09-8.83,5.84c-0.08,4.19-0.02,8.38-0.02,12.57c0,1.08,0.22,2.21-1.54,2.24
		c-1.66,0.02-2.04-0.8-2.04-2.21c0.02-6.58-0.01-13.17,0.04-19.75c0.01-1.06-0.62-2.48,1.17-2.94
		C970.31,321.24,970.98,322.26,971.13,323.98z"/>
	<path class="st21" d="M911.95,324.11c3.51-2.65,6.8-3.58,10.43-1.62c0.84,0.45,2.17,0.91,1.09,2.13c-0.64,0.72-1.05,2.15-2.83,1.32
		c-5.02-2.35-8.65,0.05-8.72,5.61c-0.05,4.2-0.02,8.39-0.01,12.59c0,1.31,0.23,2.58-1.87,2.52c-1.88-0.05-1.74-1.14-1.74-2.37
		c0.01-6.79,0-13.59,0-20.38c0-1.1-0.18-2.2,1.57-2.23C911.39,321.63,912.15,322.09,911.95,324.11z"/>
	<path class="st22" d="M762.68,334.12c0-3.49,0-6.98,0.01-10.47c0-0.8-0.06-1.71,0.99-1.9c0.76-0.14,1.99-0.35,2.18,0.42
		c0.68,2.74,1.88,0.92,2.83,0.41c2.76-1.47,5.49-1.59,8.25-0.04c0.98,0.55,1.71,1.15,0.72,2.3c-0.68,0.79-1.06,1.83-2.6,1.12
		c-4.93-2.29-8.23-0.53-8.65,4.82c-0.35,4.36-0.11,8.76-0.16,13.15c-0.02,1.22,0.4,2.68-1.76,2.68c-2.1,0.01-1.81-1.36-1.81-2.63
		C762.67,340.7,762.68,337.41,762.68,334.12z"/>
	<path class="st23" d="M619.13,334.7c-1.59,0-3.18-0.05-4.76,0.02c-1.32,0.06-2-0.28-1.97-1.79c0.03-1.54,0.8-1.77,2.07-1.76
		c3.17,0.04,6.35,0.07,9.52-0.01c1.55-0.04,1.74,0.73,1.78,2.01c0.05,1.49-0.79,1.56-1.88,1.54
		C622.3,334.67,620.72,334.7,619.13,334.7z"/>
	<path class="st6" d="M723.48,353.99c-2.54,1.58-4.63,1.19-6.73,0.5C718.76,353.58,720.84,353.93,723.48,353.99z"/>
	<path class="st24" d="M116.47,170.3c-0.91,0.25-2.3-0.45-2.48,1.25c-1.09-0.16-1.76-0.97-2.54-1.62c-0.03-1.24,0.73-1.12,1.55-0.89
		C114.27,169.12,115.46,169.47,116.47,170.3z"/>
	<path class="st25" d="M20.29,172.69c0.73,0.17,1.55,0.37,0.63,1.26c-0.89,0.86-1.49,2.11-2.87,2.39
		C18.59,175,19.07,173.62,20.29,172.69z"/>
	<path class="st26" d="M1046.35,221.82c-0.17,0.7-0.36,1.55-1.25,0.64c-0.86-0.88-2.08-1.48-2.41-2.81
		C1044,220.21,1045.43,220.58,1046.35,221.82z"/>
	<path class="st27" d="M465.55,34.7c-0.03-0.89-0.68-1.06-1.37-1.19c1.41-0.84,2.95-1.07,4.88-1.02
		C467.95,33.65,466.83,34.29,465.55,34.7z"/>
	<path class="st28" d="M1093.16,217.12c1.36,0.3,1.96,1.54,2.85,2.4c0.92,0.88,0.09,1.09-0.63,1.26
		C1094.18,219.84,1093.75,218.43,1093.16,217.12z"/>
	<path class="st29" d="M112.99,169.04c-0.63,0.1-1.24,0.24-1.55,0.89c-0.9-0.5-1.8-1-3.25-1.8
		C110.4,167.64,111.73,168.16,112.99,169.04z"/>
	<path class="st30" d="M290.34,354.99c0.17,1.15-0.26,1.97-1.42,2.23c-0.85,0.19-0.89-0.54-1.03-1.11
		C288.46,355.19,289.4,355.09,290.34,354.99z"/>
	<path class="st30" d="M295.22,374.41c-0.19-1.14,0.19-1.98,1.36-2.27c0.87-0.22,0.92,0.5,1.06,1.07
		C297.11,374.16,296.15,374.26,295.22,374.41z"/>
	<path class="st31" d="M1084.5,328.6c0.4-1.37,1.16-2.41,2.6-2.83C1087.01,327.44,1086.1,328.34,1084.5,328.6z"/>
	<path class="st32" d="M665.3,251.9c-0.01,0.37,0.1,0.82-0.07,1.1c-0.3,0.5-0.73,0.13-0.83-0.18c-0.35-1.08-0.98-2.1-0.81-3.31
		C664.16,250.3,664.73,251.1,665.3,251.9z"/>
	<path class="st33" d="M1029.48,214.75c-0.68-0.04-1.36-0.08-2.2-0.13c0.87-0.96,1.83-1.04,2.82-0.99
		C1029.89,214.01,1029.69,214.38,1029.48,214.75z"/>
	<path class="st34" d="M219.88,326.32c0.54-0.38,1.08-0.76,1.61-1.15c-0.12,0.55-0.18,1.13-0.39,1.65c-0.14,0.36-0.15,1.14-0.8,0.8
		C220.01,327.48,220.01,326.78,219.88,326.32z"/>
	<path class="st35" d="M1.09,259.13c-0.83-0.93-0.56-2.01-0.44-3.08C1.32,257,1.17,258.07,1.09,259.13z"/>
	<path class="st1" d="M991.82,246.51c0-7.79,0-15.58,0-23.37c0-1.33-0.19-2.61,1.88-2.53c8.76,0.34,17.55-0.6,26.28,1.23
		c14.34,3.01,22.14,14.15,19.72,28.54c-1.25,7.42-3.76,14.07-10.51,18.28c-4.99,3.12-10.6,3.99-16.34,4.09
		c-6.19,0.11-12.39-0.04-18.58,0.09c-2.07,0.04-2.52-0.77-2.5-2.64c0.07-7.89,0.03-15.78,0.03-23.67
		C991.81,246.51,991.82,246.51,991.82,246.51z"/>
	<path class="st1" d="M991.82,187.06c0-6.59,0.08-13.18-0.05-19.77c-0.04-2.13,0.37-3.03,2.75-2.93c7.76,0.33,15.54-0.42,23.29,1.08
		c9.85,1.9,17.13,8.96,17.64,17.62c0.75,12.58-4.61,21.29-14.97,24.62c-8.85,2.85-17.96,2.04-27.02,2.18
		c-1.97,0.03-1.64-1.28-1.64-2.44C991.81,200.64,991.82,193.85,991.82,187.06z"/>
	<path class="st1" d="M595.49,213.45c-0.03,15.38-0.04,30.73-6.26,45.29c-8.13,19.07-30.13,19.01-40.15,11.41
		c-5.91-4.48-8.64-10.89-10.25-17.73c-4.13-17.58-5.92-35.42-4.79-53.47c0.47-7.49,2.04-14.78,5.6-21.55
		c3.66-6.96,9.07-11.84,16.76-13.67c10.26-2.44,21.14-1.04,28.54,8.07c4.16,5.13,6.43,11.2,7.79,17.6c0.85,3.99,1.6,8.03,2.06,12.08
		C595.24,205.46,595.27,209.46,595.49,213.45z"/>
	<path class="st11" d="M649.87,346.57c-2.1-1.36-4.08-2.76-4.38-5.58c-0.54-5.19,2.01-8.26,7.29-8.65c0.98-0.07,1.97-0.11,2.96-0.16
		c1.4-0.24,2.79-0.65,4.2-0.03c1.15-2.3,0.92-4.35-1.1-6.07c-1.16,0.05-2.25-0.13-3.08-1.04c-2.21-0.28-4.47-0.46-6.09,1.42
		c-0.99,1.14-1.52,0.67-2.31-0.1c-0.92-0.9-0.87-1.59,0.05-2.48c2.19-2.12,4.93-2.38,7.73-2.49c0.41-0.26,0.81-0.26,1.2,0.03
		c6.31,1.42,7.77,3.21,7.81,9.64c0.03,4.4,0.02,8.79-0.02,13.19c-0.01,0.81,0.44,2.03-0.83,2.23c-0.94,0.14-2.28,0.75-2.74-0.87
		c-0.25-0.88-0.74-0.44-1.09-0.2c-3.01,2-6.35,1.27-9.61,1.18L649.87,346.57z"/>
	<path class="st36" d="M719.92,321.39c7.32,0.98,8.89,6.62,9.12,12.01c0.07,1.56-0.85,1.76-2.11,1.75
		c-3.89-0.03-7.79,0.06-11.68-0.03c-1.78-0.04-2.24,0.62-1.98,2.32c0.82,5.41,6.39,7.84,11.1,4.84c0.81-0.52,1.47-2.09,2.92-0.59
		c0.98,1.02,1.22,1.54,0.03,2.58c-4.67,4.11-15.48,3.91-17.3-5.3c-0.74-3.73-0.69-7.35,0.38-10.92c1.06-3.5,3.63-5.6,7.11-6.61
		C718.31,320.86,719.11,320.85,719.92,321.39z"/>
	<path class="st16" d="M681.56,346.76c-5.02,0.02-8.41-2.59-9.91-7.39c-1.21-3.88-1.07-7.68,0.32-11.44
		c2.33-6.3,10.48-8.59,15.55-4.37c0.75,0.62,2.22,1.19,0.98,2.53c-0.84,0.9-1.58,1.54-3.07,0.3c-3.65-3.03-8.44-1.53-10.17,2.91
		c-1.38,3.53-1.19,7.07,0.27,10.5c1.61,3.75,6.45,4.88,9.78,2.27c1.19-0.93,2.06-1.27,3.1,0.03c1.19,1.5-0.18,2.16-1.01,2.88
		C685.87,346.3,684.19,346.75,681.56,346.76z"/>
	<path class="st1" d="M640.14,325.04c0.54-0.01,1.09-0.02,1.63-0.03c1.14,0.14,1.39,0.89,1.37,1.89c-0.02,0.81,0.04,1.62,1.1,1.77
		c0.78,0.11,1.39,0.49,1.21,1.33c-0.3,1.39-1.38,0.01-1.41,0.14c-0.29,1.29-1.11,2.58-0.32,3.96c-0.2,3-0.39,6.01-0.61,9.01
		c-0.07,0.9,0.38,2.23-1.16,2.26c-1.55,0.03-1.21-1.29-1.21-2.2c-0.03-4.76,0.01-9.52-0.03-14.27c-0.01-0.99,0.48-2.31-1.18-2.6
		C639.74,325.87,639.94,325.46,640.14,325.04z"/>
	<path class="st1" d="M733.09,331.36c0,0.93,0.04,2.12-0.01,3.31c-0.05,1.08-0.86,1.19-1.71,1.19c-0.82,0-1.82-0.04-1.76-1.1
		c0.19-3.25-1.18-6.69,1.09-9.73c0.27-0.37,0.22-1.03,0.92-0.84c0.41,0.11,0.4,0.59,0.58,0.91
		C733.27,327.01,733.18,329.05,733.09,331.36z"/>
	<path class="st1" d="M669.7,350.53c-1.88-1.19-2.83,1.62-4.79,0.56c0.84-1.22,3.49-2.11,1.03-3.99c1.45-0.84,1.22-2.24,1.17-3.56
		c-0.02-0.53,0.01-1.59-0.75-1.21c-2.17,1.08-1.61-0.58-1.57-1.48c0.07-1.33,0.98-2.28,2.22-2.43c1.53-0.18,1.3,1.17,1.31,2.12
		c0.02,2.07,1.33,4.06,0.07,6.26C667.68,348.04,669.16,349.1,669.7,350.53z"/>
	<path class="st1" d="M639.36,326.46c0,6.89,0,13.94,0,21.23C637.72,345.34,638.01,327.75,639.36,326.46z"/>
	<path class="st1" d="M714.17,335.95c2.17,0.01,4.19-0.83,4.99,2.05c0.49,1.77,2.62,1.29,4.15,1.85
		C719.8,342.07,717.31,341.02,714.17,335.95z"/>
	<path class="st1" d="M725.87,349.6c-5.08,1.14-10.13,0.22-15.17,0.13C715.78,349.65,720.79,347.9,725.87,349.6z"/>
	<path class="st1" d="M655.74,325.04c1.16-0.03,2.36-0.22,3.08,1.04c-0.32,2.16-1.44,3.18-3.69,2.61
		C655.11,327.43,655.04,326.17,655.74,325.04z"/>
	<path class="st1" d="M641.93,349.08c-0.05-1.25-0.07-2.32,1.7-2.52c1.07-0.12,1.97-0.01,2.17,0.92c0.19,0.86,1.94,2.11-0.27,2.8
		C644.92,348.11,643.13,349.49,641.93,349.08z"/>
	<path class="st1" d="M669.53,352.68c0-0.8,0-1.6,0-2.4c1.84-0.34,2.94,1.19,5.11,1.73C672.58,353.01,671.01,352.54,669.53,352.68z"
		/>
	<path class="st1" d="M655.07,353.66c1.44-0.9,2.84-1.67,2.92-4.04C659.32,353.58,659.09,353.85,655.07,353.66z"/>
	<path class="st1" d="M728.33,320.17c0.77-1.13,1.24-2.49,2.88-2.1c0.58,0.14,0.77,0.69,0.61,1.16
		C731.18,321.18,729.47,319.84,728.33,320.17z"/>
	<path class="st1" d="M653.47,326.55c-0.14,1.35,1.87,1.64,1.34,2.95c-0.22,0.54-1.17,0.57-1.56,0.15
		C652.38,328.72,652.12,327.64,653.47,326.55z"/>
	<path class="st1" d="M645.53,352.68c-1.06-0.03-2.53,0.25-2.54-1.27c0-1.68,1.59-0.92,2.54-1.13
		C645.53,351.08,645.53,351.88,645.53,352.68z"/>
	<path class="st1" d="M640.15,316.93c0.52,1.09,1.07,2.12,0,2.94c-0.12,0.09-0.82-0.4-1.1-0.74
		C637.91,317.72,639.92,317.76,640.15,316.93z"/>
	<path class="st1" d="M659.93,332.15c-1.4,0.01-2.8,0.02-4.2,0.03C656.64,330.01,657.34,330,659.93,332.15z"/>
	<path class="st1" d="M652.38,318.43c-1.04,0.39-1.73,1.7-3.06,1.16c-0.12-0.05-0.15-0.83,0.04-1.07
		C650.19,317.47,651.27,317.9,652.38,318.43z"/>
	<path class="st1" d="M667.13,318.79c-0.09,0.45,0.04,1.19-0.64,1.11c-0.68-0.08-1.28-0.68-1.36-1.36
		c-0.08-0.68,0.65-0.55,1.11-0.64C666.99,317.75,667.28,318.04,667.13,318.79z"/>
	<path class="st1" d="M661.1,318.17c1.16,0.16,1.16,0.59,1.16,0.96c-0.01,0.89-0.56,1.15-1.36,1.1c-0.45-0.03-0.82-0.3-0.65-0.71
		C660.51,318.93,660.95,318.4,661.1,318.17z"/>
	<path class="st1" d="M656.33,321.42c-0.4-0.01-0.8-0.02-1.2-0.03c0.11-0.81-0.33-1.86,0.87-2.19c0.32-0.09,0.95,0,1.06,0.21
		C657.53,320.28,656.17,320.58,656.33,321.42z"/>
	<path class="st1" d="M649.96,351.09c1.64-1.02,2.6-0.9,3.81-0.41C652.75,351.92,651.71,351.43,649.96,351.09z"/>
	<path class="st1" d="M679.96,353.12c-0.9,0.97-1.86,0.85-3.06,0.36C677.9,352.2,678.98,352.88,679.96,353.12z"/>
	<path class="st1" d="M649.86,346.58c-0.21,0.78,1.6,1.38,0.21,2.24c-0.19,0.12-0.67,0.08-0.81-0.08c-0.88-0.99-0.06-1.57,0.61-2.18
		C649.87,346.57,649.86,346.58,649.86,346.58z"/>
	<path class="st1" d="M726.13,321.01c0.68-1.02,1.51-0.59,2.2-0.72c-0.04,0.18-0.05,0.39-0.14,0.54
		C727.66,321.7,727,321.58,726.13,321.01z"/>
	<path class="st1" d="M719.92,321.39c-0.8,0.02-1.6,0.04-2.4,0.06C718.28,319.81,719.08,319.8,719.92,321.39z"/>
	<path class="st1" d="M639.62,349.98c0.8-1.2,1.63-0.77,2.32-0.9c-0.04,0.18-0.05,0.38-0.14,0.55
		C641.28,350.58,640.58,350.19,639.62,349.98z"/>
	<path class="st1" d="M723.63,337.05c-0.4,0-0.85-0.02-0.94-0.47c-0.12-0.57,0.39-0.58,0.76-0.63c0.39-0.05,0.84,0.02,0.94,0.46
		C724.51,336.98,723.99,336.95,723.63,337.05z"/>
	<path class="st1" d="M643.82,333.98c0.89-0.56,1.67-0.75,2.51-0.13C645.52,335.31,644.56,333.83,643.82,333.98z"/>
	<path class="st1" d="M645.74,317.89c0.28,0.19,0.63,0.3,0.67,0.49c0.13,0.5-0.29,0.65-0.67,0.59c-0.2-0.03-0.49-0.31-0.5-0.49
		C645.24,318.3,645.54,318.11,645.74,317.89z"/>
	<path class="st37" d="M796.73,334.11c0.02-1.89,0.11-3.73,0.76-5.58c0.94-2.7,2.75-3.68,5.46-3.59c2.69,0.09,4.24,1.5,4.89,3.98
		c0.92,3.53,1.02,7.05-0.03,10.61c-0.76,2.56-2.42,3.86-4.96,3.94c-2.5,0.08-4.37-0.98-5.32-3.49
		C796.8,338.06,796.7,336.11,796.73,334.11z"/>
	<path class="st37" d="M872.47,333.76c-0.17,2.34,0.05,4.22-0.66,6.06c-1,2.57-2.83,3.81-5.49,3.65c-2.66-0.16-4.36-1.57-4.94-4.32
		c-0.69-3.26-0.87-6.49-0.04-9.75c0.81-3.17,2.4-4.5,5.38-4.48c2.85,0.02,4.78,1.54,5.4,4.55
		C872.44,331.01,872.38,332.64,872.47,333.76z"/>
	<path class="st38" d="M1038.98,335.11c1,0.68,3.14-1.34,3.68,1.29c0.65,3.16-0.56,5.89-3.03,6.71c-1.92,0.64-3.89,0.6-5.88,0.14
		c-2.01-0.46-2.78-1.86-2.86-3.66c-0.08-1.82,0.69-3.25,2.56-3.93C1035.18,335.03,1036.97,335.14,1038.98,335.11z"/>
	<path class="st39" d="M828.71,332.29c-0.99,0-1.99,0-2.98,0c-3.38-0.01-3.62-0.33-2.58-3.51c0.96-2.92,3.63-4.43,6.79-3.86
		c2.88,0.52,5.02,3.26,5.04,6.18c0.01,1.27-0.72,1.18-1.51,1.19C831.88,332.29,830.29,332.29,828.71,332.29z"/>
	<path class="st40" d="M559.47,332.28c-0.8,0-1.6,0-2.4,0c-4.23,0.01-4.79-0.97-2.66-4.7c1.37-2.4,4.64-3.48,7.31-2.43
		c2.2,0.87,4.18,4.2,3.85,6.29c-0.14,0.9-0.74,0.81-1.3,0.82C562.67,332.3,561.07,332.28,559.47,332.28z"/>
	<path class="st39" d="M596.16,332.3c-0.89,0-1.79,0-2.68,0c-3.57,0-4.07-0.91-2.4-4.2c1.34-2.66,3.5-3.63,6.36-3.21
		c2.86,0.43,4.21,2.38,4.84,4.96c0.39,1.59,0.19,2.72-1.95,2.47c-1.37-0.16-2.78-0.03-4.17-0.03
		C596.16,332.29,596.16,332.29,596.16,332.3z"/>
	<path class="st41" d="M1112.07,332.28c-1.1,0-2.22-0.14-3.29,0.03c-2.93,0.48-3.06-1.04-2.47-3.21c0.78-2.83,3.39-4.62,6.32-4.29
		c3.12,0.34,5.46,2.97,5.58,6.08c0.04,1.07-0.35,1.41-1.34,1.39C1115.27,332.25,1113.67,332.27,1112.07,332.28z"/>
	<path class="st42" d="M891.34,332.28c-0.89,0-1.79,0-2.68,0c-3.57-0.01-4.03-0.84-2.37-4.19c1.32-2.67,3.49-3.65,6.36-3.21
		c2.85,0.43,4.22,2.33,4.82,4.95c0.37,1.61,0.18,2.73-1.96,2.48C894.14,332.15,892.73,332.28,891.34,332.28z"/>
	<path class="st41" d="M944.51,334.05c-0.19-2.03,0.13-3.98,0.96-5.82c1.12-2.47,3.11-3.48,5.77-3.28c2.73,0.21,4.42,1.76,5.02,4.32
		c0.76,3.23,0.78,6.52,0.02,9.77c-0.64,2.75-2.55,4.28-5.29,4.4c-2.55,0.11-4.62-0.92-5.61-3.54
		C944.66,337.99,944.34,336.07,944.51,334.05z"/>
	<path class="st43" d="M656.39,335.04c1.22,0.76,3.7-1.36,4.12,1.71c0.51,3.69-0.84,5.99-3.91,6.56c-1.16,0.22-2.38,0.31-3.55,0.2
		c-2.25-0.2-4.02-1.03-4.13-3.75c-0.1-2.68,1.22-4.08,3.76-4.43C653.86,335.17,655.06,335.14,656.39,335.04z"/>
	<path class="st39" d="M719.23,332.29c-0.99,0-1.99,0-2.98,0c-3.39,0-3.62-0.32-2.52-3.5c0.99-2.88,3.51-4.42,6.46-3.96
		c2.84,0.44,5.09,3.15,5.13,6.05c0.01,1.02-0.31,1.44-1.33,1.42C722.41,332.26,720.82,332.28,719.23,332.29z"/>
</g>
</svg>
