<?xml version="1.0" encoding="utf-8"?>
<!-- Generator: Adobe Illustrator 25.0.1, SVG Export Plug-In . SVG Version: 6.00 Build 0)  -->
<svg version="1.1" id="Calque_1" xmlns="http://www.w3.org/2000/svg" xmlns:xlink="http://www.w3.org/1999/xlink" x="0px" y="0px"
	 viewBox="0 0 359.81 71.59" style="enable-background:new 0 0 359.81 71.59;" xml:space="preserve">
<style type="text/css">
	.st0{fill:#0071B7;}
	.st1{fill:#0171B8;}
	.st2{fill:#606B78;}
	.st3{fill:#5F6A77;}
	.st4{fill:#636D7A;}
	.st5{fill:#616C79;}
	.st6{fill:#FDFDFE;}
	.st7{fill:#D1E5F1;}
	.st8{fill:#BAD8EB;}
	.st9{fill:#FEFEFE;}
</style>
<g>
	<path class="st0" d="M284.83,30.81c-1.51,0.58-0.92,1.95-1.1,3c-2.64,14.92-16.25,24.68-32.21,23.08
		c-13.6-1.36-24.8-14.45-24.58-28.72c0.23-14.51,12.15-27.14,26.53-28.1c14.95-1,28.21,9.68,30.31,24.39
		c0.13,0.94-0.17,2.05,1.04,2.54C285.92,28.26,285.92,29.53,284.83,30.81z"/>
	<path class="st1" d="M284.83,30.81c0-1.27-0.01-2.54-0.01-3.81c0.06-1.83-0.08-3.69,0.22-5.47c0.27-1.64-1.47-4.27,2.02-4.59
		c2.24-0.21,2.83,0.18,4.11,3.35c10.63-8.93,25.24-3.72,28.31,9.01c3.4-5.7,7.19-10.33,13.37-12.37
		c12.08-3.97,25.45,4.57,26.86,17.18c0.37,3.33-0.34,4.71-4.11,4.62c-10.46-0.25-20.93-0.09-31.45-0.09
		c1.2,7.52,5.17,12.01,11.65,13.45c6.43,1.44,12.54-0.72,15.98-6.29c1.66-2.68,3.51-3.12,6.53-2.3
		c-2.41,7.28-7.57,11.57-14.68,13.21c-9.5,2.19-17.05-1.72-23.87-12.26c0,2.99,0.22,5.06-0.07,7.05c-0.24,1.74,1.6,4.65-2.3,4.78
		c-3.91,0.14-2.5-2.76-2.55-4.55c-0.15-5.99,0.07-11.98-0.1-17.97c-0.17-6.33-3.25-10.92-8.07-12.6
		c-4.57-1.59-10.07-0.19-13.28,3.28c-2.31,2.5-2.91,5.52-2.93,8.74c-0.05,6.49-0.05,12.98-0.05,19.47c0,1.9,0.15,3.64-2.69,3.66
		c-2.77,0.02-2.77-1.57-2.78-3.56C284.97,45.45,284.89,38.13,284.83,30.81z"/>
	<path class="st2" d="M35.81,55.37c-4.21,1-6.85,0.43-9.24-3.13c-4.7-6.99-10.04-13.54-15.88-21.28c3.63,0,6.2,0.17,8.74-0.03
		c7.35-0.57,11.83-5.31,11.73-12.22c-0.1-6.96-4.62-11.4-12.08-11.87C5.8,6.01,5.8,6.01,5.8,19.18c0,10.99-0.03,21.97,0.02,32.96
		c0.01,2.2-0.03,3.83-3.07,3.76c-2.85-0.07-2.71-1.7-2.71-3.61C0.06,36.64,0.12,20.99,0,5.35c-0.02-2.85,0.87-3.81,3.7-3.68
		c5.65,0.25,11.32,0.08,16.97,0.35c8.24,0.39,14.99,6.55,16.11,14.41c1.2,8.39-3.41,15.91-11.81,18.35
		c-3.64,1.06-3.23,2.13-1.33,4.54C27.74,44.48,31.62,49.81,35.81,55.37z"/>
	<path class="st3" d="M85.86,49.31c0,6.04,0.04,11.35-0.03,16.66c-0.02,1.64,0.79,3.78-2.31,3.89c-3.45,0.12-2.6-2.27-2.61-4.06
		c-0.04-15.12-0.07-30.24,0.04-45.36c0.01-1.73-1.48-4.65,2.46-4.61c3.95,0.04,1.9,3,2.46,4.69c0.09,0.28,0.19,0.57,0.51,1.53
		c5.23-6.52,12.1-8.13,19.67-6.92c4.88,0.78,9.03,3.26,12.18,7.15c7.15,8.83,6.29,20.99-1.99,28.76
		C107.61,59.13,96.03,58.69,85.86,49.31z"/>
	<path class="st2" d="M76.34,43.01c-3.59,9.54-13.52,15.45-22.47,13.52C43.02,54.2,35.19,44.41,36.22,34.46
		c1.1-10.7,9.31-19.04,19.25-19.55c10.89-0.56,20.26,6.46,22.23,16.66c1.06,5.48,0.45,6.2-5.29,6.2c-8.98,0-17.97,0.13-26.95-0.06
		c-3.93-0.08-4.13,1.35-2.74,4.42c2.46,5.42,6.59,8.86,12.36,9.7c6.03,0.88,11.29-1.3,14.67-6.45
		C71.47,42.79,73.26,42.19,76.34,43.01z"/>
	<path class="st2" d="M145.91,14.81c11.56-0.02,20.92,9.3,20.93,20.85c0.01,11.46-9.48,21.09-20.81,21.14
		c-11.22,0.04-21.07-9.79-21.04-21C125.02,24.3,134.47,14.83,145.91,14.81z"/>
	<path class="st4" d="M196.04,38c0-4.66-0.17-9.33,0.06-13.98c0.14-2.91-0.86-3.72-3.67-3.56c-1.64,0.09-4.31,1.25-4.54-2.14
		c-0.25-3.56,2.48-2.57,4.12-2.41c3.4,0.34,4.39-1.02,4.08-4.21c-0.23-2.31,0.03-4.66-0.06-6.99c-0.08-2.04,0.57-3.04,2.81-3.05
		c2.2,0,2.98,0.92,2.84,3c-0.09,1.33,0.11,2.68-0.03,3.99c-0.53,4.87,0,8.63,6.5,7.2c1.71-0.38,2.78,0.27,2.75,2.38
		c-0.04,2.2-1.35,2.58-2.94,2.27c-5.91-1.16-6.64,1.81-6.4,6.83c0.41,8.3,0.1,16.64,0.12,24.96c0.01,1.93,0.11,3.59-2.73,3.6
		c-2.65,0.01-2.96-1.31-2.92-3.42C196.09,47.65,196.04,42.82,196.04,38z"/>
	<path class="st5" d="M174.43,20.46c2.14-2.84,4.49-4.93,7.75-5.36c1.25-0.17,3.23-1.08,3.51,1.36c0.18,1.59,0.54,3.52-1.8,3.98
		c-8.45,1.65-9.76,7.87-9.73,15c0.02,5.48,0.02,10.97,0,16.45c-0.01,1.93,0.51,4.1-2.79,3.99c-3.03-0.1-2.39-2.15-2.4-3.84
		c-0.03-10.64-0.06-21.27,0.03-31.91c0.01-1.69-1.12-4.1,2.35-4.35C174.97,15.52,173.85,18.23,174.43,20.46z"/>
	<path class="st6" d="M248.87,16.07c6.79-2.5,13.68-3.77,20.92-2.22c9.73,2.08,12.81,10.51,6.7,18.33
		c-6.27,8.04-27.64,16.15-39.57,9.54c-0.16-0.88,0-1.41,1.05-0.94c9.79,2.55,18.7-0.03,26.97-5.07c3.99-2.43,7.56-5.78,6.58-11.24
		c-0.76-4.24-4.98-6.81-11.06-7.64c-3.52-0.48-6.94,0.33-10.41,0.29C249,17.54,248.75,17.02,248.87,16.07z"/>
	<path class="st7" d="M248.87,16.07c0.4,0.34,0.8,0.69,1.19,1.03c-1.28,1.11-2.69,1.35-4.61,0.85
		C246.48,16.57,247.69,16.35,248.87,16.07z"/>
	<path class="st8" d="M237.99,40.78c-0.35,0.31-0.7,0.63-1.05,0.94c-0.84-0.39-2.54-0.72-1.96-1.62
		C235.93,38.59,237.04,40.11,237.99,40.78z"/>
	<path class="st9" d="M354.16,33.93c-8.55,0-16.65,0-24.76,0c-1.65,0-3.3,0-4.97,0c0.81-8.08,6.28-13.1,14.3-13.27
		C346.97,20.48,352.8,25.37,354.16,33.93z"/>
	<path class="st9" d="M85.76,35.9c-0.04-9.43,6.45-16.24,15.58-16.35c9.51-0.12,16.43,6.56,16.57,15.99
		c0.14,9.23-6.95,16.42-16.22,16.43C92.7,51.99,85.8,45.03,85.76,35.9z"/>
	<path class="st9" d="M72.38,32.94c-9.26,0-18.51-0.06-27.76,0.03c-2.74,0.03-2.97-0.88-2.13-3.27c2.32-6.55,8.45-10.36,15.93-10.16
		C64.24,19.7,72.07,25.28,72.38,32.94z"/>
	<path class="st9" d="M146.11,19.56c8.65,0.05,15.76,7.27,15.75,15.97c-0.01,9.09-7.12,16.45-15.9,16.44
		c-8.57-0.01-15.63-7.27-15.65-16.09C130.3,26.6,137.16,19.5,146.11,19.56z"/>
</g>
</svg>
