<?xml version="1.0" encoding="utf-8"?>
<!-- Generator: Adobe Illustrator 25.0.1, SVG Export Plug-In . SVG Version: 6.00 Build 0)  -->
<svg version="1.1" id="Calque_1" xmlns="http://www.w3.org/2000/svg" xmlns:xlink="http://www.w3.org/1999/xlink" x="0px" y="0px"
	 viewBox="0 0 750 750" style="enable-background:new 0 0 750 750;" xml:space="preserve">
<style type="text/css">
	.st0{fill:#00DB00;}
	.st1{fill:#323232;}
	.st2{fill:#333333;}
	.st3{fill:#343434;}
	.st4{fill:#373737;}
	.st5{fill:#FEFEFE;}
	.st6{fill:#FDFDFD;}
	.st7{fill:#FBFBFB;}
	.st8{fill:#F9F9F9;}
	.st9{fill:#FAFAFA;}
</style>
<g>
	<path class="st0" d="M480.9,237.02c-2,1.9-3.93,3.87-6,5.69c-28.11,24.77-77.6,18.34-98.48-12.77c-5.81-8.65-8.46-18.43-9.38-28.59
		c-2.11-23.43-1.84-46.9-0.03-70.34c1.97-25.57,22.64-47.27,48.26-51.34c19.2-3.05,37.54-1.64,53.9,10.01
		c4.28,3.05,8.04,6.82,12.86,10.97c0-5.48,0.17-10.19-0.06-14.88c-0.15-3.06,0.83-4.01,3.92-3.96c10.33,0.17,20.67,0.29,30.99-0.05
		c4.03-0.13,4.53,1.35,4.52,4.82c-0.12,33.99-0.06,67.98-0.08,101.97c-0.01,19.66,0.72,39.36-0.29,58.97
		c-2.04,39.8-24.32,65.35-64.74,73.46c-28.04,5.62-52.86-2.34-75.22-19.45c-2.38-1.82-2.09-2.69-0.28-4.48
		c7.24-7.13,14.49-14.26,21.5-21.62c2.21-2.33,3.58-1.07,5.38,0.11c14.58,9.53,30.24,12.65,47.01,7.19
		c18.79-6.12,27.36-18.35,27.35-38.11c0-2.31,0-4.63,0-6.94C481.65,237.46,481.27,237.24,480.9,237.02z"/>
	<path class="st0" d="M625.44,184.02c-18.83,0-37.66,0.1-56.48-0.08c-4.13-0.04-5.26,0.67-4.58,5.25
		c2.9,19.53,19.46,30.86,38.15,32.8c19.59,2.04,37.7-1.85,53.05-15.03c1.62-1.39,2.73-1.41,4.19,0.1
		c6.16,6.33,12.3,12.66,18.61,18.84c1.82,1.78,1.49,2.8-0.14,4.37c-14.58,14.01-31.88,22.94-51.69,26.35
		c-19.8,3.42-39.09,1.03-57.35-7.89c-23.61-11.52-36.95-30.9-41.92-56.13c-4.62-23.48-3.45-46.82,6.33-68.94
		c12.76-28.84,35.99-43.09,66.91-45.13c20.29-1.34,39.92,1.52,57.39,12.91c16.26,10.61,24.73,26.44,28.78,44.95
		c3.16,14.47,3.03,29.04,1.37,43.7c-0.38,3.35-1.58,3.99-4.62,3.97C664.1,183.96,644.77,184.02,625.44,184.02z"/>
	<path class="st0" d="M322.89,237.5c-5.53,4.67-9.7,8.93-14.94,11.85c-17.02,9.46-35.14,10.24-53.77,7.01
		c-13.38-2.32-24.92-7.95-33.57-18.85c-13.67-17.23-15.6-53.9,3.08-69.83c9.08-7.75,19.69-11.54,31.26-12.85
		c20.75-2.34,41.61-0.84,62.41-0.99c4.67-0.04,6.07-1.29,5.61-5.79c-0.39-3.79,0.07-7.67-0.15-11.49
		c-0.98-16.73-11.98-22.3-24.93-24.38c-20.77-3.33-40.42-0.14-58.06,12.03c-2.33,1.61-3.48,0.58-5.01-0.97
		c-5.96-6.05-11.86-12.18-18.08-17.96c-2.87-2.66-2.17-4.05,0.56-5.96c13.82-9.66,28.92-16.3,45.56-19.12
		c22.04-3.73,43.85-2.72,64.86,5.28c21.85,8.32,32.87,25.29,33.31,48.05c0.76,39.14,0.25,78.31,0.36,117.46
		c0.01,2.71-0.64,3.83-3.6,3.78c-10.49-0.16-20.99-0.12-31.49-0.02c-2.58,0.02-3.56-0.84-3.45-3.47
		C323.01,247.14,322.89,243,322.89,237.5z"/>
	<path class="st0" d="M46.94,225.24c7.92-7.76,15.81-15.4,23.56-23.19c1.64-1.65,2.54-1.21,3.98,0.08
		c17.05,15.38,37.16,22.15,59.98,20.97c9.42-0.49,18.44-2.66,26.35-8.05c5.47-3.73,9.18-8.56,8.37-15.83
		c-0.69-6.16-4.03-9.99-9.65-12.09c-8.39-3.14-17.28-3.33-26.02-4c-15.77-1.21-31.44-2.77-46.5-8.01
		c-34.33-11.95-37.9-42.85-28.41-62.57C66.17,96.81,80,88.01,96.03,83.31c36.39-10.68,70.65-4.47,102.73,15.13
		c5.53,3.38,5.41,3.61,0.72,8.32c-5.29,5.31-10.77,10.44-15.82,15.97c-2.46,2.69-4.15,2.43-7.09,0.76
		c-20.76-11.77-42.88-15.58-66.32-10.38c-5.4,1.2-10.42,3.46-14.53,7.3c-6.5,6.07-6.03,14.97,1.15,20.21
		c6.79,4.95,14.84,6.32,22.9,7.6c14.12,2.26,28.57,1.36,42.61,4.4c10.45,2.26,20.51,5.42,29.21,12.01
		c9.48,7.19,14.43,16.79,15.33,28.48c1.21,15.73-2.35,30.12-13.12,42.11c-8.96,9.98-20.47,15.92-33.31,18.89
		c-41.72,9.63-79.36,1.78-111.87-27.02C48.13,226.66,47.73,226.13,46.94,225.24z"/>
	<path class="st1" d="M131.01,634.43c3.98-14.44,9.26-27.3,13.58-40.48c1.61-4.91,4.32-5.32,8.4-5.13c2.22,0.11,2.75,1,2.86,3.03
		c0.9,16.6,1.82,33.2,2.96,49.79c0.18,2.59-0.82,2.79-2.71,2.67c-1.85-0.12-3.95,0.71-4.08-2.67c-0.48-11.96-1.27-23.91-1.89-35.86
		c-0.13-2.49-0.02-4.99-0.02-7.52c-1.64-0.17-1.65,0.99-1.89,1.79c-4,13.75-9.41,27-14.03,40.53c-0.71,2.07-1.43,3.43-4.03,3.5
		c-2.93,0.07-3.17-2.03-3.73-3.81c-4.43-14.08-9.77-27.87-14.2-42.14c-0.74,13.77-1.44,27.53-2.24,41.29
		c-0.1,1.68,0.63,3.83-1.62,4.8c-3.11,1.34-5.28-0.24-5.05-3.85c1.07-16.26,2.24-32.52,3.35-48.78c0.11-1.62,0.25-3.12,2.44-2.67
		c2.73,0.56,6.21-1.79,7.76,3.01c4.28,13.28,9.46,26.28,13.02,39.81C130.03,632.28,130.33,632.8,131.01,634.43z"/>
	<path class="st2" d="M159.26,512.88c9.48-9.21,16.27-8.94,23.89,0.63c0.88-0.97,1.67-1.97,2.6-2.83c4.17-3.89,8.89-5.81,14.59-3.8
		c5.74,2.03,8.43,6.55,8.73,12.2c0.44,8.14,0.14,16.32,0.36,24.47c0.08,2.78-1.39,2.77-3.4,2.85c-2.35,0.09-3.73-0.27-3.63-3.17
		c0.2-5.82,0.07-11.66,0.05-17.49c-0.01-1.66,0.01-3.34-0.17-4.99c-0.61-5.36-3.47-8.51-7.86-8.79c-4.5-0.29-8.37,2.77-9.62,7.76
		c-0.36,1.43-0.43,2.95-0.44,4.44c-0.05,6-0.08,12,0.01,17.99c0.04,2.53,0.14,4.34-3.47,4.34c-3.6,0-3.55-1.79-3.52-4.35
		c0.09-6.66,0.11-13.33,0.01-19.99c-0.1-6.45-3.01-10.11-7.87-10.2c-4.97-0.09-9.29,4.48-9.42,10.32c-0.15,6.99-0.22,14,0.05,20.99
		c0.12,3.03-1.27,3.1-3.53,3.15c-2.47,0.06-3.55-0.54-3.53-3.31c0.09-11.16,0-22.32-0.16-33.48c-0.03-2.14,0.89-2.61,2.66-2.5
		c1.54,0.1,3.57-0.6,3.46,2.19C159,510.29,159.15,511.28,159.26,512.88z"/>
	<path class="st2" d="M332.78,413.52c0-7.25,0.15-13.42-0.07-19.58c-0.1-2.91,1.24-3.13,3.57-3.19c2.51-0.06,3.51,0.55,3.49,3.3
		c-0.11,16.83-0.04,33.66-0.07,50.49c0,1.62,0.98,3.78-2.18,3.96c-2.72,0.16-4.05-0.76-4.12-3.5c-0.02-0.61-0.24-1.21-0.45-2.18
		c-6.09,6.4-12.94,8.72-20.86,4.71c-7.08-3.58-10.58-12.79-9.03-22.61c1.45-9.22,6.61-14.97,14.96-16.53
		C323.46,407.37,327.95,409.75,332.78,413.52z"/>
	<path class="st2" d="M227.56,542.05c0,6.31-0.07,11.78,0.03,17.24c0.04,2.32-0.25,3.69-3.19,3.61c-2.68-0.07-3.81-0.59-3.78-3.58
		c0.14-13.98,0.08-27.96,0.05-41.95c0-1.99-0.24-3.97-0.29-5.96c-0.05-1.82-1.16-4.09,2.27-4.33c2.98-0.21,4.45,0.62,4.01,3.8
		c-0.06,0.46,0.14,0.96,0.44,2.72c3.64-4.86,8.06-7.22,13.27-7.45c5.48-0.24,10.09,1.91,13.41,6.36c6.43,8.59,5.39,23.26-2.08,30.38
		C245.17,549.12,236.41,549,227.56,542.05z"/>
	<path class="st3" d="M169.47,616.17c0-7.99,0.09-15.99-0.05-23.98c-0.05-2.63,0.81-3.43,3.42-3.37c7.49,0.16,14.99,0.1,22.48,0.03
		c2.2-0.02,3.81,0.01,3.71,3.06c-0.09,2.74-1.53,2.83-3.54,2.81c-5.16-0.05-10.33,0.11-15.48-0.08c-2.82-0.1-3.89,0.81-3.71,3.69
		c0.29,4.62-1.36,10.49,0.91,13.53c2.19,2.94,8.39,0.65,12.81,0.94c1.66,0.11,3.34,0.11,4.99,0c2.1-0.14,2.98,0.57,2.91,2.82
		c-0.06,2.04-0.56,3.08-2.81,3.04c-4.83-0.09-9.67,0.14-14.48-0.08c-3.11-0.14-4.62,0.56-4.35,4.07c0.3,3.97,0.23,8,0.02,11.98
		c-0.16,2.98,0.66,4.15,3.87,4c5.65-0.26,11.32,0.01,16.98-0.12c2.3-0.06,3.18,0.52,3.24,3.01c0.06,2.76-1.3,2.83-3.37,2.81
		c-7.99-0.07-15.99-0.15-23.98,0.03c-2.91,0.07-3.67-0.94-3.62-3.73C169.57,632.49,169.47,624.33,169.47,616.17z"/>
	<path class="st1" d="M61.8,616.89c0-7.5,0.25-15-0.1-22.48c-0.17-3.75,1.1-4.75,4.62-5.04c5.84-0.48,11.61-0.77,17.38,0.5
		c6.76,1.49,10.7,5.62,11.94,12.45c1.14,6.29-1.55,13.26-6.73,16.62c-4.78,3.1-10.16,4.32-15.74,3.73
		c-3.98-0.42-4.76,1.07-4.52,4.64c0.3,4.64-0.08,9.33,0.13,13.99c0.14,3.07-1.57,3.02-3.75,3.04c-2.16,0.02-3.34-0.32-3.29-2.97
		C61.9,633.22,61.79,625.05,61.8,616.89z"/>
	<path class="st2" d="M87.88,391.68c2.96,0.44,5.95,0.72,8.86,1.36c1.75,0.38,4.22,0.38,3.3,3.62c-0.75,2.65-1.78,3.02-4.5,2.24
		c-10.3-2.94-19.78-0.14-24.79,6.87c-5.48,7.68-5.9,21.08-0.91,28.94c4.97,7.82,13.93,10.6,25.76,7.91c1.74-0.4,3.36-1.6,4.2,1.3
		c0.64,2.22,0.37,3.42-2.02,4c-11.57,2.84-22.86,2.94-31.55-6.47c-8.96-9.7-9.11-21.44-4.68-33.2
		C65.44,397.98,75.74,391.91,87.88,391.68z"/>
	<path class="st2" d="M66.43,518.88c-0.03,16.96,11.47,25.72,28.77,21.79c2.16-0.49,3.97-1.6,4.81,1.75
		c0.91,3.63-1.92,3.36-3.73,3.83c-14.92,3.88-28.71-0.92-34.06-12.55c-5.39-11.71-4.97-23.59,3.28-33.87
		c8.23-10.26,19.67-11.44,31.81-8.73c1.76,0.39,3.53,0.82,2.73,3.6c-0.8,2.79-1.97,2.82-4.56,2.12
		C78.7,492.25,66.47,501.65,66.43,518.88z"/>
	<path class="st2" d="M105.69,527.33c-0.15-12.07,7.95-21.07,19.13-21.25c10.76-0.18,18.67,8.21,19.01,20.17
		c0.33,11.74-8.01,20.98-19.2,21.28C114.02,547.81,105.84,539.09,105.69,527.33z"/>
	<path class="st2" d="M264.56,429.97c-3.49,0-7,0.22-10.47-0.06c-3.6-0.3-3.74,1.36-3.11,4.14c1.93,8.44,9.6,11.93,20.44,9.34
		c1.22-0.29,2.86-1.96,3.87,0.13c0.9,1.86,1.19,3.54-1.66,4.59c-8.92,3.3-20.04,1.2-25.36-5.1c-5.36-6.36-5.84-18.42-1.04-26.35
		c4.19-6.92,12.34-9.97,20.3-7.59c6.61,1.97,11.6,9.9,11.26,17.7c-0.1,2.22-0.84,3.34-3.27,3.25
		C271.88,429.87,268.22,429.97,264.56,429.97z"/>
	<path class="st2" d="M368.75,429.96c-3.49,0-7,0.19-10.48-0.05c-3.26-0.23-3.51,1.2-2.91,3.84c1.94,8.59,9.67,12.32,20.26,9.71
		c1.33-0.33,3.1-1.86,4.01-0.26c0.8,1.41,1.98,3.77-1.22,4.72c-9.46,2.81-20.39,2.49-26.4-5.86c-5.39-7.49-4.61-21,1.56-27.99
		c4.89-5.55,13.37-7.44,20.03-4.46c5.86,2.61,9.94,10.29,9.56,17.4c-0.13,2.52-1.25,3.04-3.43,2.98
		C376.07,429.89,372.41,429.96,368.75,429.96z"/>
	<path class="st2" d="M474.38,527.92c-3.49,0-7,0.19-10.47-0.06c-3.27-0.24-3.52,1.25-2.96,3.85c1.28,6,5.7,10,11.81,10.26
		c3.14,0.13,6.3,0.21,9.37-0.86c1.21-0.42,2.88-1.56,3.49,0.98c0.43,1.81,0.5,3.18-1.73,3.82c-9.01,2.59-19.86,2.6-26.06-5.55
		c-5.54-7.28-5.08-20.73,1.01-27.99c4.81-5.73,12.95-7.79,19.91-5.04c5.89,2.33,10.55,10.62,10.08,17.6
		c-0.16,2.4-1.25,3.1-3.49,3.03C481.7,527.84,478.04,527.92,474.38,527.92z"/>
	<path class="st2" d="M352.44,527.92c-3.49,0-7,0.2-10.47-0.06c-3.35-0.25-3.46,1.36-2.91,3.88c1.34,6.19,5.89,10.05,12.35,10.25
		c3.16,0.1,6.32,0.1,9.35-1.04c1.31-0.49,2.61-0.89,2.98,1.16c0.27,1.49,0.77,2.98-1.33,3.6c-7.91,2.32-15.94,3.31-22.92-1.96
		c-7.49-5.66-8.57-13.78-6.64-22.5c1.73-7.83,6.19-13.02,14.31-14.75c10.89-2.31,21.56,7.95,19.76,18.98
		c-0.38,2.31-1.71,2.47-3.51,2.45C359.76,527.89,356.1,527.92,352.44,527.92z"/>
	<path class="st2" d="M127.44,444.05c2.18,0.09,4.63-0.25,7.01-1.08c1.28-0.45,2.57-0.91,2.88,1.25c0.21,1.48,0.97,2.93-1.22,3.56
		c-7.9,2.24-15.9,3.33-22.93-1.97c-7.56-5.69-8.53-13.85-6.67-22.51c1.68-7.84,6.21-13.25,14.35-14.72
		c13.26-2.39,19.82,8.25,19.55,19.07c-0.06,2.45-1.8,2.33-3.52,2.32c-7.15-0.02-14.3,0.09-21.45-0.06
		c-2.76-0.06-3.38,0.78-2.82,3.46C114.13,440.56,118.81,444.13,127.44,444.05z"/>
	<path class="st1" d="M284.88,527.92c-3.49,0-7,0.18-10.48-0.05c-3.32-0.22-3.42,1.24-2.81,3.86c2.04,8.65,9.55,12.24,20.26,9.67
		c1.32-0.32,3.09-2.22,4.18,0.19c0.86,1.9,0.92,3.52-1.85,4.47c-9.07,3.13-19.74,1.19-25.02-4.9c-5.23-6.03-6.05-17.34-1.84-25.48
		c3.93-7.6,12.33-11.16,20.66-8.75c6.96,2.01,11.97,10.09,11.36,18.07c-0.16,2.05-0.82,2.99-2.99,2.93
		C292.53,527.84,288.7,527.92,284.88,527.92z"/>
	<path class="st2" d="M382.3,513.14c3.21-3.06,5.69-5.43,9.26-6.35c8.73-2.24,16.38,2.32,17.64,11.23
		c1.21,8.58,0.26,17.28,0.49,25.93c0.08,3.03-2.13,2.29-3.83,2.41c-1.8,0.12-3.19,0.07-3.12-2.5c0.16-6.49,0.08-12.98,0.05-19.47
		c-0.03-8.09-3.15-12.31-9.12-12.44c-6.3-0.13-10.54,4.84-10.56,12.44c-0.02,6.32-0.13,12.65,0.06,18.97
		c0.07,2.5-0.77,3.2-3.12,3.04c-2.04-0.14-3.91,0.25-3.89-2.93c0.06-11.31-0.08-22.62-0.22-33.94c-0.02-1.71,0.61-2.6,2.28-2.37
		c1.4,0.19,3.59-1.1,3.8,1.74C382.13,510.04,382.18,511.16,382.3,513.14z"/>
	<path class="st2" d="M154.98,415.4c4.32-5.21,8.98-7.61,14.61-7.16c7.02,0.57,12.05,5.91,12.38,13.33
		c0.36,7.97,0.07,15.96,0.26,23.94c0.06,2.62-1.13,3.02-3.29,2.97c-2.11-0.05-3.87,0.12-3.78-3c0.2-6.81,0.11-13.64,0.04-20.45
		c-0.07-7.11-3.59-11.19-9.39-11.01c-5.91,0.18-9.93,4.72-9.98,11.39c-0.05,6.32-0.12,12.64,0.04,18.96
		c0.07,2.75-0.28,4.26-3.67,4.2c-3.13-0.05-3.38-1.41-3.38-3.94c0-10.97-0.14-21.93-0.33-32.9c-0.03-1.68,0.39-2.65,2.12-2.48
		c1.46,0.14,3.55-1.01,4.06,1.55C154.88,411.9,154.83,413.07,154.98,415.4z"/>
	<path class="st2" d="M310.17,525.08c0-2.5-0.04-4.99,0.01-7.49c0.06-2.67,0.59-5.53-3.77-4.89c-1.88,0.28-1.99-1.28-2.02-2.69
		c-0.03-1.65,0.2-3.2,2.37-2.86c3.68,0.59,3.44-1.73,3.46-4.19c0.02-1.74-0.94-3.98,0.87-5.11c1.46-0.91,3.58-1.59,5.17-1.25
		c1.71,0.37,0.8,2.57,0.83,3.94c0.15,6.46,0.1,6.44,6.61,6.58c1.87,0.04,4.06-0.72,4.14,2.64c0.09,3.61-2.27,3.22-4.32,2.93
		c-5.07-0.72-7.08,0.95-6.5,6.32c0.51,4.77,0.05,9.64,0.12,14.46c0.1,6.19,1.3,7.63,7.29,8.13c1.72,0.15,2.42,0.64,2.5,2.24
		c0.07,1.4-0.1,2.46-1.72,3.12c-5.98,2.43-13-1.14-14.25-7.52c-0.47-2.43-0.63-4.93-0.77-7.41
		C310.07,529.74,310.17,527.41,310.17,525.08z"/>
	<path class="st3" d="M207.59,449.6c-6.2,0.13-9.99-2.78-11-8.47c-1.34-7.58-0.39-15.25-0.55-22.88c-0.05-2.28-0.18-3.91-3.1-3.46
		c-2.19,0.34-2.9-0.8-2.85-2.9c0.04-1.82,0.58-3.03,2.56-2.69c3.77,0.64,3.31-1.82,3.39-4.18c0.06-1.74-0.96-3.97,0.8-5.1
		c1.43-0.92,3.55-1.58,5.14-1.25c1.79,0.36,1.05,2.63,0.85,3.9c-0.86,5.37,0.97,7.63,6.55,6.68c1.8-0.31,3.96-0.75,4.05,2.61
		c0.09,3.67-2.26,3.21-4.26,2.9c-5.25-0.81-6.85,1.25-6.37,6.4c0.48,5.11-0.04,10.3,0.16,15.44c0.15,3.89,1.14,7.42,6.22,7.18
		c1.68-0.08,3.33-0.45,3.53,2.11c0.19,2.45-1.02,3.26-3.19,3.37C208.71,449.29,207.9,449.54,207.59,449.6z"/>
	<path class="st2" d="M440.8,511.71c-7.13,0.09-11.71,2.21-14.18,7.73c-2.81,6.28-2.45,12.42,1.92,17.83
		c3.73,4.63,8.95,5.29,14.51,4.22c1.4-0.27,2.81-1.68,4.14-0.67c0.78,0.59,1.05,2.03,1.25,3.14c0.29,1.62-1.21,1.74-2.23,2.14
		c-8.39,3.32-19.15,0.75-24.13-5.72c-5.35-6.95-5.36-19.06-0.02-26.22c5.16-6.91,16.12-10.03,24.3-6.96c1.61,0.6,2.58,1.3,1.87,3.28
		c-0.61,1.71-1.1,3.2-3.4,2.19C443.13,511.92,441.32,511.67,440.8,511.71z"/>
	<path class="st3" d="M226.4,415.36c3.03-3.49,5.94-6.31,10.33-7.14c1.52-0.29,3.32-0.39,3.1,1.89c-0.16,1.69,1.37,4.02-1.82,4.84
		c-8.55,2.2-10.39,4.68-10.45,13.55c-0.04,5.66-0.12,11.33,0.05,16.99c0.08,2.54-0.92,3.15-3.22,3c-2.08-0.13-3.78,0.13-3.79-3.01
		c-0.06-11.31,0.62-22.64-0.36-33.94c-0.19-2.18,1.2-2.46,2.87-2.35c1.36,0.1,3.23-0.65,3.28,1.81
		C226.43,412.45,226.4,413.91,226.4,415.36z"/>
	<path class="st4" d="M280.05,500.8c3.65-4.35,3.4-13.37,13.61-10.36C288.83,494.15,287.6,501.25,280.05,500.8z"/>
	<path class="st5" d="M481.26,172.27c0,5.32-0.11,10.65,0.02,15.97c0.44,17.36-12.58,28.66-25.71,32.13
		c-16.43,4.33-31.33,1.14-43.96-10.61c-4.29-3.99-6.86-9.17-7.52-14.88c-1.99-17.25-1.72-34.56-0.47-51.85
		c1.12-15.57,10.62-24.5,24.52-28.73c16.23-4.93,31.67-3.3,44.41,9.39c5.4,5.37,8.13,11.94,8.58,19.63
		C481.68,152.96,481.71,162.61,481.26,172.27z"/>
	<path class="st5" d="M611.11,153.79c-14.14,0-28.28-0.1-42.41,0.07c-3.55,0.04-4.37-0.84-4.06-4.49
		c2.05-23.96,20.87-39.84,47.16-39.45c25.4,0.37,43.07,15.47,45.44,38.56c0.41,3.99-0.17,5.54-4.72,5.43
		C638.73,153.58,624.92,153.79,611.11,153.79z"/>
	<path class="st5" d="M294.8,184.21c7.99,0,15.98,0.11,23.97-0.06c2.93-0.06,4.22,0.63,4.08,3.83c-0.23,5.15-0.4,10.27-1.52,15.34
		c-2.26,10.26-8.74,16.45-18.8,18.24c-14.51,2.59-29.15,2.66-43.61-0.61c-6.38-1.44-11.86-4.67-14.66-10.93
		c-4.72-10.55,0.64-20.85,12.27-23.8c5.33-1.35,10.8-1.94,16.3-2C280.16,184.15,287.48,184.21,294.8,184.21z"/>
	<path class="st6" d="M332.77,428.45c0.13,2.66,0.12,5.33-0.87,7.85c-1.72,4.38-4.87,7.15-9.6,7.57c-4.54,0.4-8.18-1.57-10.36-5.55
		c-3.55-6.48-3.31-13.12,0.33-19.46c2.39-4.17,6.36-5.75,11.06-5.05c4.51,0.68,7.38,3.37,8.81,7.74
		C332.9,423.85,332.71,426.14,332.77,428.45z"/>
	<path class="st5" d="M227.53,527.25c0-9.96,4.6-15.82,12.12-15.46c7.48,0.36,12.54,8.18,11.29,17.45
		c-1.18,8.79-6.21,13.53-13.5,12.74C230.79,541.25,227.52,536.4,227.53,527.25z"/>
	<path class="st6" d="M68.71,605.64c0-0.83-0.14-1.68,0.02-2.48c0.58-2.88-1.9-7.33,1.59-8.42c4.82-1.51,10.27-1.15,14.72,2.2
		c3.35,2.51,4.42,6.15,3.78,10.15c-1.21,7.51-11.79,12.97-18.75,9.83c-2.1-0.95-1.24-2.82-1.33-4.33
		C68.61,610.28,68.71,607.95,68.71,605.64z"/>
	<path class="st6" d="M136.89,527.36c-0.38,4.31-1.43,8.94-5.46,12.27c-5.82,4.8-13.78,2.51-17.18-4.89
		c-3.08-6.71-1.68-16.02,3.1-20.38c3.43-3.13,7.49-3.48,11.61-2.01C133.63,514.03,136.88,520.26,136.89,527.36z"/>
	<path class="st7" d="M261.45,424.9c-1.82,0-3.64,0-5.46,0c-5.75-0.01-6.33-1.04-3.35-6.12c2.41-4.1,5.97-6.11,10.77-5.34
		c4.4,0.71,6.79,3.37,7.93,7.73c0.82,3.12-0.09,3.89-2.95,3.75C266.08,424.81,263.76,424.9,261.45,424.9z"/>
	<path class="st7" d="M365.8,424.9c-1.82,0-3.65,0.08-5.46-0.03c-1.6-0.1-3.83,0.82-4.65-0.62c-1.02-1.8,0.49-3.79,1.44-5.45
		c2.36-4.12,5.98-6.11,10.77-5.37c4.44,0.68,6.81,3.47,7.95,7.77c0.82,3.1-0.31,3.87-3.11,3.73
		C370.43,424.81,368.11,424.9,365.8,424.9z"/>
	<path class="st8" d="M471.13,522.87c-1.99,0-3.98,0.02-5.97,0c-4.75-0.05-5.15-0.68-3.02-5.11c2.14-4.47,5.63-6.99,10.68-6.47
		c4.86,0.5,7.51,3.4,8.67,8.2c0.75,3.08-0.48,3.46-2.91,3.4C476.1,522.82,473.62,522.87,471.13,522.87z"/>
	<path class="st9" d="M349.2,522.86c-1.99,0-3.98,0.02-5.96,0c-4.74-0.05-5.11-0.67-2.97-5.12c2.15-4.48,5.65-6.96,10.69-6.46
		c4.86,0.49,7.56,3.4,8.63,8.22c0.55,2.48,0.1,3.43-2.44,3.37C354.5,522.81,351.85,522.86,349.2,522.86z"/>
	<path class="st9" d="M122.89,424.91c-2.15,0-4.33-0.18-6.46,0.04c-4.5,0.46-4.08-1.73-2.77-4.67c2.15-4.84,6.22-7.57,10.9-6.97
		c4.82,0.62,7.58,3.35,8.69,8.2c0.68,2.97-0.38,3.51-2.9,3.42C127.86,424.83,125.37,424.9,122.89,424.91z"/>
	<path class="st8" d="M281.86,522.86c-1.66,0-3.33,0.12-4.97-0.03c-1.73-0.17-4.13,1-5.05-0.81c-0.9-1.78,0.57-3.81,1.58-5.46
		c2.47-4.06,6.08-6.02,10.89-5.15c4.43,0.8,6.75,3.6,7.79,7.94c0.66,2.77-0.08,3.66-2.78,3.54
		C286.83,522.77,284.34,522.86,281.86,522.86z"/>
</g>
</svg>
