<?xml version="1.0" encoding="utf-8"?>
<!-- Generator: Adobe Illustrator 25.2.0, SVG Export Plug-In . SVG Version: 6.00 Build 0)  -->
<svg version="1.1" id="Calque_1" xmlns="http://www.w3.org/2000/svg" xmlns:xlink="http://www.w3.org/1999/xlink" x="0px" y="0px"
	 viewBox="0 0 736 576" style="enable-background:new 0 0 736 576;" xml:space="preserve">
<style type="text/css">
	.st0{display:none;}
	.st1{display:inline;}
	.st2{fill:url(#SVGID_1_);}
	.st3{fill:url(#SVGID_2_);}
	.st4{fill:url(#SVGID_3_);}
	.st5{fill:#52BFDC;}
	.st6{fill:#3D95AA;}
	.st7{fill:url(#face_3_);}
	.st8{display:inline;fill:none;stroke:#52BFDC;stroke-miterlimit:10;}
	.st9{fill:url(#face_5_);}
	.st10{display:inline;fill:none;stroke:#FF351A;stroke-miterlimit:10;}
	.st11{display:inline;opacity:0.5;}
	.st12{fill:#53DB5D;}
	.st13{fill:url(#face_10_);}
	.st14{fill:#E1F5F9;}
	.st15{fill:none;stroke:#2672D5;stroke-miterlimit:10;}
	.st16{fill:none;stroke:#2672D5;stroke-miterlimit:10;stroke-dasharray:4.0035,3.0026;}
	.st17{fill:none;stroke:#2672D5;stroke-miterlimit:10;stroke-dasharray:3.8652,2.8989;}
	.st18{fill:none;stroke:#2672D5;stroke-miterlimit:10;stroke-dasharray:3.7836,2.8377;}
	.st19{fill:url(#face_12_);}
	.st20{fill:none;stroke:#2672D5;stroke-miterlimit:10;stroke-dasharray:3.8602,2.8951;}
	.st21{fill:none;stroke:#2672D5;stroke-miterlimit:10;stroke-dasharray:4.0561,3.042;}
	.st22{fill:none;stroke:#2672D5;stroke-miterlimit:10;stroke-dasharray:4.0823,3.0617;}
	.st23{display:inline;opacity:0.3;}
	.st24{fill:#BEBEBE;}
	.st25{fill:#1C559F;}
	.st26{fill:#1D56A1;}
	.st27{fill:#2162B7;}
	.st28{fill:#194B8C;}
	.st29{fill:#A2A2A2;}
	.st30{fill:#D3D3D3;}
	.st31{fill:#1F5EB0;}
	.st32{fill:#184887;}
	.st33{fill:none;stroke:#2672D5;stroke-miterlimit:10;stroke-dasharray:4.0905,3.0679;}
	.st34{fill:none;stroke:#2672D5;stroke-miterlimit:10;stroke-dasharray:4.0064,3.0048;}
	.st35{fill:none;stroke:#2672D5;stroke-miterlimit:10;stroke-dasharray:3.6129,2.7097;}
	.st36{fill:none;stroke:#2672D5;stroke-miterlimit:10;stroke-dasharray:4.0922,3.0692;}
	.st37{fill:none;stroke:#2672D5;stroke-miterlimit:10;stroke-dasharray:3.9679,2.9759;}
	.st38{fill:none;stroke:#2672D5;stroke-miterlimit:10;stroke-dasharray:4,3;}
	.st39{fill:#3F88A8;}
	.st40{fill:url(#face_13_);}
	.st41{opacity:0.3;}
	.st42{fill:none;stroke:#2672D5;stroke-miterlimit:10;stroke-dasharray:3.9682,2.9762;}
	.st43{fill:none;stroke:#2672D5;stroke-miterlimit:10;stroke-dasharray:4.0321,3.0241;}
	.st44{fill:none;stroke:#2672D5;stroke-miterlimit:10;stroke-dasharray:4.3333,3.25;}
	.st45{fill:none;stroke:#2672D5;stroke-miterlimit:10;stroke-dasharray:3.9359,2.9519;}
	.st46{fill:none;stroke:#2672D5;stroke-miterlimit:10;stroke-dasharray:4.0696,3.0522;}
	.st47{fill:none;stroke:#2672D5;stroke-miterlimit:10;stroke-dasharray:3.8222,2.8667;}
	.st48{opacity:0.2;}
	.st49{fill:none;stroke:#2672D5;stroke-miterlimit:10;stroke-dasharray:4.0324,3.0243;}
	.st50{fill:none;stroke:#2672D5;stroke-miterlimit:10;stroke-dasharray:4.0141,3.0106;}
	.st51{fill:none;stroke:#2672D5;stroke-miterlimit:10;stroke-dasharray:3.6842,2.7632;}
	.st52{fill:#203569;}
	.st53{font-family:'Lato-Black';}
	.st54{font-size:23px;}
	.st55{fill:#2672D5;}
	.st56{font-family:'Lato-Regular';}
	.st57{font-size:16px;}
	.st58{fill:url(#face_14_);}
	.st59{fill:none;stroke:#2672D5;stroke-miterlimit:10;stroke-dasharray:3.8061,2.8546;}
	.st60{fill:url(#face_15_);}
</style>
<g id="sources" class="st0">
	<g id="ccube_x5F_3D_x5F_eclate.psd" class="st1">
		
			<image style="overflow:visible;enable-background:new    ;" width="1024" height="768" id="ccube_x5F_3D_x5F_eclate_2_" xlink:href="C1622A61.png"  transform="matrix(1 0 0 1 -150 -103)">
		</image>
	</g>
	<g class="st1">
		<g>
			
				<linearGradient id="SVGID_1_" gradientUnits="userSpaceOnUse" x1="-155.3768" y1="335.4683" x2="-155.3768" y2="412.7981" gradientTransform="matrix(0.5383 0.8428 -0.8428 0.5383 509.1084 193.164)">
				<stop  offset="0" style="stop-color:#2B447D"/>
				<stop  offset="1" style="stop-color:#11204D"/>
			</linearGradient>
			<polygon class="st2" points="142.8,299.8 142.3,234.4 84.4,223 84.7,287.9 			"/>
			
				<linearGradient id="SVGID_2_" gradientUnits="userSpaceOnUse" x1="-121.055" y1="369.7481" x2="-143.2607" y2="286.0397" gradientTransform="matrix(0.5383 0.8428 -0.8428 0.5383 509.1084 193.164)">
				<stop  offset="8.050000e-02" style="stop-color:#52BFDC"/>
				<stop  offset="1" style="stop-color:#03A99E"/>
			</linearGradient>
			<polygon class="st3" points="142.3,234.4 180.6,216.9 180.3,282.9 142.8,299.8 			"/>
			
				<linearGradient id="SVGID_3_" gradientUnits="userSpaceOnUse" x1="-212.9004" y1="364.5461" x2="-147.3942" y2="299.0399" gradientTransform="matrix(0.5383 0.8428 -0.8428 0.5383 509.1084 193.164)">
				<stop  offset="0.2212" style="stop-color:#52BFDC"/>
				<stop  offset="0.4045" style="stop-color:#57BFD5"/>
				<stop  offset="0.6633" style="stop-color:#64C0C3"/>
				<stop  offset="0.9657" style="stop-color:#7AC1A5"/>
				<stop  offset="1" style="stop-color:#7DC1A1"/>
			</linearGradient>
			<polygon class="st4" points="84.4,223 121.7,206.3 180.6,216.9 142.3,234.4 			"/>
		</g>
		<g>
			<path class="st5" d="M106.8,252.9c0,0,2.3-7.7,9.9-6c7.6,1.6,9.2,10.7,9.2,10.7s8,2.1,7.3,11.5c-0.6,8.5-7.9,7.8-8.2,7.8
				s-9.1-1.8-9.6-1.9s-0.9-0.8-0.9-1.5c0-0.7,0-6.6,0-7.6c0-0.7-0.6-1.9-1.4-2.1c-0.4-0.1-2.8-0.6-3.2-0.7c-0.4-0.1-1-0.5-1-1.6
				c0-1.1,0-4.2-0.1-5.9C108.9,253.9,107.3,253.1,106.8,252.9z"/>
			<path class="st5" d="M112.1,274.1c0.9,0.2,1.4-0.3,1.4-1.2c0-0.9,0-6.2,0-6.6c0-0.4-0.3-1.3-1-1.4s-5-1.1-5.6-1.2
				c-0.6-0.1-1,0.6-1,1s0.1,5.8,0.2,6.7c0,0.9,0.5,1.6,1.4,1.8C108.3,273.3,111.2,273.9,112.1,274.1z"/>
			<path class="st5" d="M101,271.8c0.5,0.1,0.8-0.2,0.8-0.7c0-0.5-0.1-3.6-0.2-3.9s-0.2-0.8-0.6-0.8c-0.4-0.1-2.9-0.6-3.2-0.7
				c-0.4-0.1-0.6,0.3-0.5,0.6c0,0.2,0.2,3.4,0.2,3.9s0.3,0.9,0.8,1C98.8,271.4,100.5,271.7,101,271.8z"/>
			<path class="st5" d="M106.6,262.3c0.8,0.2,1.2-0.2,1.2-1c0-0.7-0.1-5.3-0.1-5.6c0-0.4-0.3-1.1-0.9-1.2c-0.6-0.1-4.4-0.9-4.9-1.1
				c-0.6-0.1-0.8,0.5-0.8,0.8s0.2,4.9,0.2,5.7c0,0.7,0.5,1.3,1.3,1.5C103.3,261.6,105.8,262.1,106.6,262.3z"/>
			<path class="st5" d="M99.4,264.6c0.7,0.1,1-0.2,0.9-0.8c0-0.6-0.2-4.4-0.2-4.7s-0.3-0.9-0.8-1s-3.6-0.8-4-0.9
				c-0.5-0.1-0.7,0.4-0.7,0.7c0,0.3,0.2,4.1,0.3,4.7c0,0.6,0.4,1.1,1.1,1.3C96.7,264,98.8,264.5,99.4,264.6z"/>
			<path class="st5" d="M99.5,256.7c0.4,0.1,0.5-0.1,0.5-0.4c0-0.3-0.1-2.4-0.1-2.5s-0.2-0.5-0.4-0.5c-0.2-0.1-1.9-0.4-2.2-0.5
				c-0.2-0.1-0.4,0.2-0.4,0.4c0,0.2,0.1,2.2,0.1,2.5c0,0.3,0.2,0.6,0.6,0.7C98.1,256.3,99.2,256.6,99.5,256.7z"/>
			<path class="st5" d="M95.2,268.7c0,0,0.5,0.1,0.8,0.2s0.5-0.1,0.5-0.5c0-0.3-0.1-2.4-0.1-2.5c0-0.2-0.2-0.5-0.4-0.5
				c-0.2,0-1.9-0.4-2.1-0.5c-0.2,0-0.3,0.2-0.3,0.4c0,0.2,0.1,2.2,0.2,2.5c0,0.3,0.2,0.6,0.6,0.7C94.6,268.6,95.2,268.7,95.2,268.7z
				"/>
			<path class="st5" d="M104.3,267.2c0.4,0.1,0.6-0.1,0.6-0.5c0-0.4-0.1-2.7-0.1-2.9c0-0.2-0.2-0.6-0.4-0.6
				c-0.3-0.1-2.2-0.5-2.4-0.5c-0.3-0.1-0.4,0.2-0.4,0.4c0,0.2,0.1,2.5,0.1,2.9c0,0.4,0.2,0.7,0.6,0.8
				C102.6,266.8,103.9,267.1,104.3,267.2z"/>
			<path class="st5" d="M104,270.7c0,0,0.3,0.1,0.6,0.1s0.4-0.1,0.4-0.3c0-0.2-0.1-1.7-0.1-1.9s-0.1-0.4-0.3-0.4
				c-0.2,0-0.6-0.1-0.6-0.1l-0.3-0.1c0,0-0.5-0.1-0.6-0.1c-0.2,0-0.3,0.2-0.3,0.3s0.1,1.6,0.1,1.9c0,0.2,0.2,0.4,0.4,0.5
				s0.6,0.1,0.6,0.1L104,270.7z"/>
		</g>
	</g>
</g>
<g id="work" class="st0">
	<g id="ccube_x5F_eclate_1_" class="st1">
		<polygon id="back_1_" class="st6" points="461.5,-2717.5 457.5,-2603.5 356.5,-2622.5 356.5,-2730.5 		"/>
		<polygon id="bottom_1_" class="st6" points="394,-2525 282.5,-2550.5 349.5,-2585.5 448.5,-2567.5 		"/>
		<polygon id="right_1_" class="st6" points="256.5,-2584.5 253.5,-2701.5 318.5,-2730.5 318.5,-2614.5 		"/>
		<polygon id="top_1_" class="st5" points="392.5,-2709.5 278.5,-2726.5 342.5,-2751.5 450.5,-2738.5 		"/>
		<polygon id="left_1_" class="st5" points="415,-2548.5 417,-2674.5 472,-2705.5 469,-2590.5 		"/>
		
			<linearGradient id="face_3_" gradientUnits="userSpaceOnUse" x1="365.3079" y1="3256.1733" x2="275.6605" y2="3137.0977" gradientTransform="matrix(1 0 0 -1 0 578)">
			<stop  offset="0" style="stop-color:#2B447D"/>
			<stop  offset="1" style="stop-color:#11204D"/>
		</linearGradient>
		<polygon id="face_1_" class="st7" points="261.5,-2688.5 375.5,-2670.5 375.5,-2543.5 264.5,-2567.5 		"/>
	</g>
	<path class="st8" d="M680.5-2071.5"/>
	<g id="ccube_x5F_eclate_2_" class="st1">
		<polygon id="back_6_" class="st6" points="462.5,-2305.5 458.5,-2191.5 357.5,-2210.5 357.5,-2318.5 		"/>
		<polygon id="bottom_2_" class="st6" points="395,-2113 283.5,-2138.5 350.5,-2173.5 449.5,-2155.5 		"/>
		<polygon id="right_2_" class="st6" points="257.5,-2172.5 254.5,-2289.5 319.5,-2318.5 319.5,-2202.5 		"/>
		<polygon id="top_6_" class="st5" points="393.5,-2297.5 279.5,-2314.5 343.5,-2339.5 451.5,-2326.5 		"/>
		<polygon id="left_6_" class="st5" points="416,-2136.5 418,-2262.5 473,-2293.5 470,-2178.5 		"/>
		
			<linearGradient id="face_5_" gradientUnits="userSpaceOnUse" x1="366.3079" y1="2844.1733" x2="276.6605" y2="2725.0977" gradientTransform="matrix(1 0 0 -1 0 578)">
			<stop  offset="0" style="stop-color:#2B447D"/>
			<stop  offset="1" style="stop-color:#11204D"/>
		</linearGradient>
		<polygon id="face_6_" class="st9" points="262.5,-2276.5 376.5,-2258.5 376.5,-2131.5 265.5,-2155.5 		"/>
	</g>
	<line class="st10" x1="368" y1="-2414" x2="368" y2="-2014"/>
	<line class="st10" x1="124.5" y1="-2270.5" x2="680.5" y2="-2180.5"/>
	<line class="st10" x1="148.5" y1="-2096.5" x2="494.5" y2="-2314.5"/>
	<g id="top_2_" class="st11">
		<path class="st12" d="M345.6-2323.1l51.1,6.1l-5.8,2.9l-49.6-7.4L345.6-2323.1 M343.5-2339.5l-64,25l114,17l58-29L343.5-2339.5
			L343.5-2339.5z"/>
	</g>
	<g id="left_2_" class="st11">
		<path class="st12" d="M446.9-2250.1l-1.5,59.1l-3.5,2.7l0.9-59.5L446.9-2250.1 M473-2293.5l-55,31l-2,126l54-42L473-2293.5
			L473-2293.5z"/>
	</g>
	<g id="face_2_" class="st11">
		<path class="st12" d="M312.9-2218.9l14.6,2.3v24.4l-14-3L312.9-2218.9 M262.5-2276.5l3,121l111,24v-127L262.5-2276.5L262.5-2276.5
			z"/>
	</g>
	<g id="back_2_" class="st11">
		<path class="st12" d="M403.5-2266.4l11.5,1.4l-0.6,18.4l-10.9-2.1L403.5-2266.4 M357.5-2318.5v108l101,19l4-114L357.5-2318.5
			L357.5-2318.5z"/>
	</g>
	<g id="ccube_x5F_eclate_3_" class="st1">
		<polygon id="back_4_" class="st6" points="462.5,-1629.5 458.5,-1515.5 357.5,-1534.5 357.5,-1642.5 		"/>
		<polygon id="bottom_3_" class="st6" points="395,-1437 283.5,-1462.5 350.5,-1497.5 449.5,-1479.5 		"/>
		<polygon id="right_3_" class="st6" points="257.5,-1496.5 254.5,-1613.5 319.5,-1642.5 319.5,-1526.5 		"/>
		<polygon id="top_4_" class="st5" points="393.5,-1621.5 279.5,-1638.5 343.5,-1663.5 451.5,-1650.5 		"/>
		<polygon id="left_4_" class="st5" points="416,-1460.5 418,-1586.5 473,-1617.5 470,-1502.5 		"/>
		
			<linearGradient id="face_10_" gradientUnits="userSpaceOnUse" x1="366.3079" y1="2168.1733" x2="276.6604" y2="2049.0977" gradientTransform="matrix(1 0 0 -1 0 578)">
			<stop  offset="0" style="stop-color:#2B447D"/>
			<stop  offset="1" style="stop-color:#11204D"/>
		</linearGradient>
		<polygon id="face_4_" class="st13" points="262.5,-1600.5 376.5,-1582.5 376.5,-1455.5 265.5,-1479.5 		"/>
	</g>
	<line class="st10" x1="368" y1="-1468.1" x2="368" y2="-1338"/>
	<line class="st10" x1="368" y1="-1738" x2="368" y2="-1643.6"/>
	<line class="st10" x1="450.4" y1="-1541.8" x2="680.5" y2="-1504.5"/>
	<line class="st10" x1="124.5" y1="-1594.5" x2="270.4" y2="-1570.9"/>
	<line class="st10" x1="449.5" y1="-1610.2" x2="494.5" y2="-1638.5"/>
	<polyline class="st10" points="148.5,-1420.5 224.7,-1468.5 314.8,-1525.3 	"/>
	<g class="st1">
		<rect x="247.9" y="-1859.1" class="st14" width="242.6" height="123.4"/>
		<text transform="matrix(1 0 0 1 278.1094 -1811.1409)" class="st52 st56" style="font-size:28px;">Economies</text>
		<text transform="matrix(1 0 0 1 278.1094 -1787.9409)" class="st55 st56 st57">Réduisez le coût de votre </text>
		<text transform="matrix(1 0 0 1 278.1094 -1768.741)" class="st55 st56 st57">infrastructure informatique</text>
	</g>
	<g class="st1">
		<rect x="494.7" y="-1734.1" class="st14" width="242.6" height="150.9"/>
		<text transform="matrix(1 0 0 1 522.109 -1686.1406)" class="st52 st56" style="font-size:28px;">Maitrisez</text>
		<text transform="matrix(1 0 0 1 522.109 -1661.1406)" class="st52 st56" style="font-size:28px;">vos dépenses</text>
		<text transform="matrix(1 0 0 1 522.109 -1637.9407)" class="st55 st56 st57">Vous ne payez que ce</text>
		<text transform="matrix(1 0 0 1 522.109 -1618.7407)" class="st55 st56 st57">que vous consommez</text>
	</g>
	<g class="st1">
		<rect x="271.7" y="-1360.1" class="st14" width="242.6" height="165.9"/>
		<text transform="matrix(1 0 0 1 299.109 -1306.3174)" class="st52 st56" style="font-size:28px;">Profitez d’une</text>
		<text transform="matrix(1 0 0 1 299.109 -1281.3174)" class="st52 st56" style="font-size:28px;">infrastructure</text>
		<text transform="matrix(1 0 0 1 299.109 -1258.1174)" class="st55 st56 st57">Puissante, moderne</text>
		<text transform="matrix(1 0 0 1 299.109 -1238.9174)" class="st55 st56 st57">et évolutive.</text>
	</g>
	<g class="st1">
		<rect x="523.9" y="-1542.4" class="st14" width="242.6" height="154.2"/>
		<text transform="matrix(1 0 0 1 554.1094 -1491.4177)" class="st52 st56" style="font-size:28px;">Accédez à</text>
		<text transform="matrix(1 0 0 1 554.1094 -1466.4177)" class="st52 st56" style="font-size:28px;">vos données</text>
		<text transform="matrix(1 0 0 1 554.1094 -1443.2178)" class="st55 st56 st57">En tout lieu, tout temps</text>
		<text transform="matrix(1 0 0 1 554.1094 -1424.0178)" class="st55 st56 st57">et sur tous supports</text>
	</g>
	<g class="st1">
		<rect x="-38.1" y="-1709.6" class="st14" width="242.6" height="189.4"/>
		<text transform="matrix(1 0 0 1 -7.8906 -1659.1738)" class="st52 st56" style="font-size:28px;">Sécurisez &amp;</text>
		<text transform="matrix(1 0 0 1 -7.8906 -1634.1738)" class="st52 st56" style="font-size:28px;">Sauvegardez</text>
		<text transform="matrix(1 0 0 1 -7.8906 -1610.9739)" class="st55 st56 st57">Vos données dans un</text>
		<text transform="matrix(1 0 0 1 -7.8906 -1591.7739)" class="st55 st56 st57">environnement protégé</text>
		<text transform="matrix(1 0 0 1 -7.8906 -1572.5737)" class="st55 st56 st57">en Haute Disponibilité</text>
		<text transform="matrix(1 0 0 1 -7.8906 -1553.3738)" class="st55 st56 st57">dans le sud de la France</text>
	</g>
	<g class="st1">
		<rect x="-17.3" y="-1466.7" class="st14" width="242.6" height="189.5"/>
		<text transform="matrix(1 0 0 1 10.109 -1419.3464)" class="st52 st56" style="font-size:28px;">Restez</text>
		<text transform="matrix(1 0 0 1 10.109 -1394.3464)" class="st52 st56" style="font-size:28px;">concentré(e)</text>
		<text transform="matrix(1 0 0 1 10.109 -1371.1465)" class="st55 st56 st57">Sur votre cœur de métier</text>
		<text transform="matrix(1 0 0 1 10.109 -1351.9465)" class="st55 st56 st57">en confiant le maintien de</text>
		<text transform="matrix(1 0 0 1 10.109 -1332.7463)" class="st55 st56 st57">vote système d’informations</text>
		<text transform="matrix(1 0 0 1 10.109 -1313.5464)" class="st55 st56 st57">à des professionnels</text>
	</g>
	<circle class="st10" cx="363" cy="-1553" r="162"/>
	<g class="st1">
		<g>
			<line class="st15" x1="368" y1="-597.1" x2="368" y2="-595.1"/>
			<line class="st16" x1="368" y1="-592.1" x2="368" y2="-523.6"/>
			<line class="st15" x1="368" y1="-522.1" x2="368" y2="-520.1"/>
		</g>
	</g>
	<g class="st1">
		<g>
			<line class="st15" x1="203.5" y1="-710.7" x2="205.5" y2="-710.4"/>
			<line class="st17" x1="208.4" y1="-709.9" x2="267" y2="-700.4"/>
			<line class="st15" x1="268.5" y1="-700.2" x2="270.4" y2="-699.9"/>
		</g>
	</g>
	<g class="st1">
		<g>
			<line class="st15" x1="449.5" y1="-739.2" x2="451.2" y2="-740.2"/>
			<line class="st18" x1="453.6" y1="-741.7" x2="491.6" y2="-765.7"/>
			<line class="st15" x1="492.8" y1="-766.4" x2="494.5" y2="-767.5"/>
		</g>
	</g>
	<g id="ccube_x5F_eclate_4_" class="st1">
		<polygon id="back_8_" class="st6" points="462.5,-758.5 458.5,-644.5 357.5,-663.5 357.5,-771.5 		"/>
		<polygon id="bottom_4_" class="st6" points="395,-566 283.5,-591.5 350.5,-626.5 449.5,-608.5 		"/>
		<polygon id="right_4_" class="st6" points="257.5,-625.5 254.5,-742.5 319.5,-771.5 319.5,-655.5 		"/>
		<polygon id="top_8_" class="st5" points="393.5,-750.5 279.5,-767.5 343.5,-792.5 451.5,-779.5 		"/>
		<polygon id="left_8_" class="st5" points="416,-589.5 418,-715.5 473,-746.5 470,-631.5 		"/>
		
			<linearGradient id="face_12_" gradientUnits="userSpaceOnUse" x1="366.3079" y1="1297.1732" x2="276.6604" y2="1178.0978" gradientTransform="matrix(1 0 0 -1 0 578)">
			<stop  offset="0" style="stop-color:#2B447D"/>
			<stop  offset="1" style="stop-color:#11204D"/>
		</linearGradient>
		<polygon id="face_8_" class="st19" points="262.5,-729.5 376.5,-711.5 376.5,-584.5 265.5,-608.5 		"/>
	</g>
	<g class="st1">
		<g>
			<line class="st15" x1="450.4" y1="-670.8" x2="452.4" y2="-670.4"/>
			<line class="st20" x1="455.2" y1="-670" x2="520.5" y2="-659.4"/>
			<line class="st15" x1="521.9" y1="-659.2" x2="523.9" y2="-658.8"/>
		</g>
	</g>
	<g class="st1">
		<g>
			<line class="st15" x1="224.7" y1="-597.5" x2="226.4" y2="-598.6"/>
			<line class="st21" x1="229" y1="-600.2" x2="311.8" y2="-652.4"/>
			<line class="st15" x1="313.1" y1="-653.2" x2="314.8" y2="-654.3"/>
		</g>
	</g>
	<g class="st1">
		<text transform="matrix(1 0 0 1 287.1094 -899.1409)" class="st52 st56" style="font-size:28px;">Economies</text>
		<text transform="matrix(1 0 0 1 287.1094 -875.9409)" class="st55 st56 st57">Réduisez le coût de votre </text>
		<text transform="matrix(1 0 0 1 287.1094 -856.741)" class="st55 st56 st57">infrastructure informatique</text>
	</g>
	<g class="st1">
		<text transform="matrix(1 0 0 1 522.109 -810.1406)" class="st52 st56" style="font-size:28px;">Maitrisez</text>
		<text transform="matrix(1 0 0 1 522.109 -785.1406)" class="st52 st56" style="font-size:28px;">vos dépenses</text>
		<text transform="matrix(1 0 0 1 522.109 -761.9407)" class="st55 st56 st57">Vous ne payez que ce</text>
		<text transform="matrix(1 0 0 1 522.109 -742.7406)" class="st55 st56 st57">que vous consommez</text>
	</g>
	<g class="st1">
		<text transform="matrix(1 0 0 1 299.109 -476.3174)" class="st52 st56" style="font-size:28px;">Profitez d’une</text>
		<text transform="matrix(1 0 0 1 299.109 -451.3174)" class="st52 st56" style="font-size:28px;">infrastructure</text>
		<text transform="matrix(1 0 0 1 299.109 -428.1174)" class="st55 st56 st57">Puissante, moderne</text>
		<text transform="matrix(1 0 0 1 299.109 -408.9174)" class="st55 st56 st57">et évolutive.</text>
	</g>
	<g class="st1">
		<text transform="matrix(1 0 0 1 73.1094 -566.4177)" class="st52 st56" style="font-size:28px;">Accédez à</text>
		<text transform="matrix(1 0 0 1 73.1094 -541.4177)" class="st52 st56" style="font-size:28px;">vos données</text>
		<text transform="matrix(1 0 0 1 73.1094 -518.2178)" class="st55 st56 st57">En tout lieu, tout temps</text>
		<text transform="matrix(1 0 0 1 73.1094 -499.0177)" class="st55 st56 st57">et sur tous supports</text>
	</g>
	<g class="st1">
		<text transform="matrix(1 0 0 1 20.1094 -768.1738)" class="st52 st56" style="font-size:28px;">Sécurisez &amp;</text>
		<text transform="matrix(1 0 0 1 20.1094 -743.1738)" class="st52 st56" style="font-size:28px;">Sauvegardez</text>
		<text transform="matrix(1 0 0 1 20.1094 -719.9739)" class="st55 st56 st57">Vos données dans un</text>
		<text transform="matrix(1 0 0 1 20.1094 -700.7738)" class="st55 st56 st57">environnement protégé</text>
		<text transform="matrix(1 0 0 1 20.1094 -681.5739)" class="st55 st56 st57">en Haute Disponibilité</text>
		<text transform="matrix(1 0 0 1 20.1094 -662.3738)" class="st55 st56 st57">dans le sud de la France</text>
	</g>
	<g class="st1">
		<text transform="matrix(1 0 0 1 540.109 -653.3464)" class="st52 st56" style="font-size:28px;">Restez</text>
		<text transform="matrix(1 0 0 1 540.109 -628.3464)" class="st52 st56" style="font-size:28px;">concentré(e)</text>
		<text transform="matrix(1 0 0 1 540.109 -605.1464)" class="st55 st56 st57">Sur votre cœur de métier</text>
		<text transform="matrix(1 0 0 1 540.109 -585.9464)" class="st55 st56 st57">en confiant le maintien de</text>
		<text transform="matrix(1 0 0 1 540.109 -566.7463)" class="st55 st56 st57">vote système d’informations</text>
		<text transform="matrix(1 0 0 1 540.109 -547.5464)" class="st55 st56 st57">à des professionnels</text>
	</g>
	<g class="st1">
		<g>
			<line class="st15" x1="368" y1="-844" x2="368" y2="-842"/>
			<line class="st22" x1="368" y1="-838.9" x2="368" y2="-776.2"/>
			<line class="st15" x1="368" y1="-774.6" x2="368" y2="-772.6"/>
		</g>
	</g>
	<g class="st23">
		<g>
			<g>
				<path class="st24" d="M365.1-772.1c-2.6-0.5-3.4-1.7-1.8-2.8c1.6-1.1,5-1.6,7.6-1.1s3.4,1.7,1.8,2.8
					C371.1-772.1,367.7-771.6,365.1-772.1z"/>
			</g>
		</g>
	</g>
	<g class="st1">
		<g>
			<g>
				<path class="st25" d="M362.5-840.2c-4.5-0.8-5.8-2.9-3.1-4.7s8.6-2.7,13-1.9s5.8,2.9,3.1,4.7C372.8-840.2,367-839.4,362.5-840.2
					z"/>
			</g>
		</g>
	</g>
	<g class="st1">
		<g>
			<g>
				<path class="st26" d="M374.6-519.3c-2.5,1.9-7.7,3-11.6,2.3c-4-0.6-5.1-2.7-2.6-4.7c2.5-1.9,7.7-3,11.6-2.3
					C375.9-523.4,377.1-521.3,374.6-519.3z"/>
			</g>
		</g>
	</g>
	<g class="st1">
		<g>
			<g>
				<path class="st27" d="M203-717.8c2.1-0.9,4.1,1.3,4.5,5.1c0.4,4-1.1,8.1-3.3,9.3c-0.1,0-0.1,0.1-0.2,0.1c-2.1,1-4.1-1.3-4.5-5.1
					c-0.4-4,1.1-8.1,3.3-9.3C202.9-717.7,202.9-717.7,203-717.8z"/>
			</g>
		</g>
	</g>
	<g class="st1">
		<g>
			<g>
				
					<ellipse transform="matrix(0.8499 -0.527 0.527 0.8499 480.8999 147.0497)" class="st28" cx="498.5" cy="-770.5" rx="4.5" ry="5.5"/>
			</g>
		</g>
	</g>
	<g class="st23">
		<g>
			<g>
				
					<ellipse transform="matrix(0.8515 -0.5244 0.5244 0.8515 389.9302 67.7125)" class="st29" cx="314.5" cy="-654.5" rx="4.3" ry="5.5"/>
			</g>
		</g>
	</g>
	<g class="st23">
		<g>
			<g>
				<path class="st30" d="M450.5-675.8c1.6-0.7,2.9,1.1,2.9,4c0,2.9-1.3,5.9-2.9,6.6c-1.6,0.7-2.9-1.1-2.9-4
					C447.6-672.1,448.9-675.1,450.5-675.8z"/>
			</g>
		</g>
	</g>
	<g class="st1">
		<g>
			<g>
				<path class="st31" d="M524.5-670.5c3.3-1.5,6,2.2,6,8.3c0,6.1-2.7,12.3-6,13.8s-6-2.2-6-8.3C518.5-662.9,521.2-669,524.5-670.5z
					"/>
			</g>
		</g>
	</g>
	<g class="st1">
		<g>
			<g>
				<path class="st32" d="M227.2-608.1c5.7,2.9,9.1,10,7.6,15.9s-7.3,8.2-13,5.3s-9.1-10-7.6-15.9
					C215.7-608.6,221.5-611,227.2-608.1z"/>
			</g>
		</g>
	</g>
	<g id="BACK_x5F__x28_maîtrisez_x29__2_" class="st1">
		<g>
			<g>
				<line class="st15" x1="1309.5" y1="-739.2" x2="1311.2" y2="-740.2"/>
				<line class="st33" x1="1313.8" y1="-741.8" x2="1427.5" y2="-813.6"/>
				<polyline class="st15" points="1428.8,-814.4 1430.5,-815.5 1430.5,-813.5 				"/>
				<line class="st34" x1="1430.5" y1="-810.5" x2="1430.5" y2="-188"/>
				<polyline class="st15" points="1430.5,-186.5 1430.5,-184.5 1428.5,-184.5 				"/>
				<line class="st35" x1="1425.8" y1="-184.5" x2="1401.8" y2="-184.5"/>
				<line class="st15" x1="1400.5" y1="-184.5" x2="1398.5" y2="-184.5"/>
			</g>
		</g>
		<g>
			<text transform="matrix(1 0 0 1 1126.4994 -179.4902)" class="st52 st53 st54">Maîtrisez vos dépenses :</text>
			<text transform="matrix(1 0 0 1 1073.3694 -160.2902)" class="st55 st56 st57">vous ne payez que ce que vous consommez</text>
		</g>
	</g>
	<g id="BOTTOM_x5F__x28_profitez_x29__2_" class="st1">
		<g>
			<g>
				<line class="st15" x1="1228" y1="-597.1" x2="1228" y2="-595.1"/>
				<line class="st16" x1="1228" y1="-592.1" x2="1228" y2="-523.6"/>
				<line class="st15" x1="1228" y1="-522.1" x2="1228" y2="-520.1"/>
			</g>
		</g>
		<g>
			<text transform="matrix(1 0 0 1 1065.9994 -494.3174)" class="st52 st53 st54">Profitez d’une infrastructure</text>
			<text transform="matrix(1 0 0 1 1065.9994 -475.1174)" class="st55 st53 st57">puissante</text>
			<text transform="matrix(1 0 0 1 1135.0094 -475.1174)" class="st55 st56 st57">, </text>
			<text transform="matrix(1 0 0 1 1142.7394 -475.1174)" class="st55 st53 st57">moderne </text>
			<text transform="matrix(1 0 0 1 1211.0094 -475.1174)" class="st55 st56 st57">et </text>
			<text transform="matrix(1 0 0 1 1229.2894 -475.1174)" class="st55 st53 st57">évolutive</text>
			<text transform="matrix(1 0 0 1 1297.0693 -475.1174)" class="st55 st56 st57">.</text>
		</g>
	</g>
	<g id="RIGHT_x5F__x28_sécurisez_x29__2_" class="st1">
		<g>
			<g>
				<line class="st15" x1="1130.4" y1="-699.9" x2="1128.5" y2="-700.2"/>
				<line class="st36" x1="1125.4" y1="-700.7" x2="1035" y2="-715"/>
				<polyline class="st15" points="1033.5,-715.2 1031.5,-715.5 1031.5,-713.5 				"/>
				<line class="st37" x1="1031.5" y1="-710.5" x2="1031.5" y2="-344"/>
				<polyline class="st15" points="1031.5,-342.5 1031.5,-340.5 1033.5,-340.5 				"/>
				<line class="st38" x1="1036.5" y1="-340.5" x2="1056" y2="-340.5"/>
				<line class="st15" x1="1057.5" y1="-340.5" x2="1059.5" y2="-340.5"/>
			</g>
		</g>
		<g>
			<text transform="matrix(1 0 0 1 1065.9998 -355.856)" class="st52 st53 st54">Sécurisez &amp; sauvegardez</text>
			<text transform="matrix(1 0 0 1 1065.9998 -336.656)" class="st55 st53 st57">vos données</text>
			<text transform="matrix(1 0 0 1 1155.8497 -336.656)" class="st55 st56 st57"> dans un environnement </text>
			<text transform="matrix(1 0 0 1 1329.7898 -336.656)" class="st55 st53 st57">protégé</text>
			<text transform="matrix(1 0 0 1 1065.9998 -317.4559)" class="st55 st56 st57">en Haute Disponibilité dans le </text>
			<text transform="matrix(1 0 0 1 1280.4597 -317.4559)" class="st55 st53 st57">sud de la France</text>
		</g>
	</g>
	<g id="ccube_x5F_eclate_7_" class="st1">
		<polygon id="back_11_" class="st39" points="1322.5,-758.5 1318.5,-644.5 1217.5,-663.5 1217.5,-771.5 		"/>
		<polygon id="bottom_7_" class="st39" points="1255,-566 1143.5,-591.5 1210.5,-626.5 1309.5,-608.5 		"/>
		<polygon id="right_7_" class="st39" points="1117.5,-625.5 1114.5,-742.5 1179.5,-771.5 1179.5,-655.5 		"/>
		<polygon id="top_11_" class="st5" points="1253.5,-750.5 1139.5,-767.5 1203.5,-792.5 1311.5,-779.5 		"/>
		<polygon id="left_11_" class="st5" points="1276,-589.5 1278,-715.5 1333,-746.5 1330,-631.5 		"/>
		
			<linearGradient id="face_13_" gradientUnits="userSpaceOnUse" x1="1226.3079" y1="1297.1732" x2="1136.6604" y2="1178.0978" gradientTransform="matrix(1 0 0 -1 0 578)">
			<stop  offset="0" style="stop-color:#2B447D"/>
			<stop  offset="1" style="stop-color:#11204D"/>
		</linearGradient>
		<polygon id="face_11_" class="st40" points="1122.5,-729.5 1236.5,-711.5 1236.5,-584.5 1125.5,-608.5 		"/>
	</g>
	<g id="LEFT_x5F__x28_restez_x29__2_" class="st1">
		<g>
			<text transform="matrix(1 0 0 1 1174.2933 -267.4249)" class="st52 st53 st54">Restez concentré(e)</text>
			<text transform="matrix(1 0 0 1 1016.2434 -248.2249)" class="st55 st56 st57">sur votre </text>
			<text transform="matrix(1 0 0 1 1083.4434 -248.2249)" class="st55 st53 st57">cœur de métier </text>
			<text transform="matrix(1 0 0 1 1197.0834 -248.2249)" class="st55 st56 st57">en confiant le maintien de</text>
			<text transform="matrix(1 0 0 1 1033.5834 -229.0249)" class="st55 st56 st57">vote système d’informations à des professionnels</text>
		</g>
		<g class="st41">
			<g>
				<g>
					<path class="st30" d="M1310.5-685.4c4.4-2,8,3,8,11.2c0,8.2-3.6,16.5-8.1,18.6c-4.4,2-8-3-8-11.2
						C1302.5-675.1,1306.1-683.4,1310.5-685.4z"/>
				</g>
			</g>
		</g>
		<g class="st41">
			<g>
				<g>
					<path class="st30" d="M1310.5-680.6c3-1.4,5.4,2,5.4,7.6c0,5.6-2.5,11.2-5.5,12.6s-5.4-2-5.4-7.6
						C1305.1-673.6,1307.5-679.2,1310.5-680.6z"/>
				</g>
			</g>
		</g>
		<g class="st41">
			<g>
				<g>
					<path class="st30" d="M1310.5-675.8c1.6-0.7,2.8,1.1,2.8,4c0,2.9-1.3,5.9-2.9,6.6c-1.6,0.7-2.8-1.1-2.8-4
						C1307.7-672.1,1308.9-675.1,1310.5-675.8z"/>
				</g>
			</g>
		</g>
		<g>
			<g>
				<line class="st15" x1="1311.4" y1="-670.8" x2="1313.3" y2="-670.4"/>
				<line class="st42" x1="1316.3" y1="-670" x2="1445.1" y2="-649.1"/>
				<polyline class="st15" points="1446.5,-648.8 1448.5,-648.5 1448.5,-646.5 				"/>
				<line class="st43" x1="1448.5" y1="-643.5" x2="1448.5" y2="-271"/>
				<polyline class="st15" points="1448.5,-269.5 1448.5,-267.5 1446.5,-267.5 				"/>
				<line class="st44" x1="1443.2" y1="-267.5" x2="1422.1" y2="-267.5"/>
				<line class="st15" x1="1420.5" y1="-267.5" x2="1418.5" y2="-267.5"/>
			</g>
		</g>
	</g>
	<g id="FRONT_x5F__x28_accédez_x29__2_" class="st1">
		<g>
			<text transform="matrix(1 0 0 1 1065.9998 -425.0864)" class="st52 st53 st54">Accédez à vos données</text>
			<text transform="matrix(1 0 0 1 1065.9998 -405.8864)" class="st55 st56 st57">en tout </text>
			<text transform="matrix(1 0 0 1 1121.0298 -405.8864)" class="st55 st53 st57">lieu</text>
			<text transform="matrix(1 0 0 1 1147.2097 -405.8864)" class="st55 st56 st57">, tout </text>
			<text transform="matrix(1 0 0 1 1188.4897 -405.8864)" class="st55 st53 st57">temps </text>
			<text transform="matrix(1 0 0 1 1236.8998 -405.8864)" class="st55 st56 st57">et </text>
			<text transform="matrix(1 0 0 1 1255.1797 -405.8864)" class="st55 st53 st57">sur tous supports</text>
		</g>
		<g class="st41">
			<g>
				<g>
					<path class="st29" d="M1178-668.5c7.5,3.9,12,13.2,10.1,21c-2,7.7-9.6,10.8-17.2,7c-7.5-3.9-12-13.2-10.1-21
						C1162.8-669.2,1170.5-672.3,1178-668.5z"/>
				</g>
			</g>
		</g>
		<g class="st41">
			<g>
				<g>
					<path class="st29" d="M1176.8-663.4c4.8,2.5,7.7,8.4,6.4,13.3c-1.2,4.9-6.1,6.9-10.9,4.4c-4.8-2.5-7.7-8.4-6.4-13.3
						C1167.1-663.9,1172-665.8,1176.8-663.4z"/>
				</g>
			</g>
		</g>
		<g class="st41">
			<g>
				<g>
					
						<ellipse transform="matrix(0.8515 -0.5244 0.5244 0.8515 517.6631 518.7051)" class="st29" cx="1174.5" cy="-654.5" rx="4.3" ry="5.5"/>
				</g>
			</g>
		</g>
		<g>
			<g>
				<line class="st15" x1="1174.8" y1="-654.3" x2="1173.1" y2="-653.2"/>
				<line class="st45" x1="1170.6" y1="-651.6" x2="1014.4" y2="-553.3"/>
				<polyline class="st15" points="1013.2,-552.6 1011.5,-551.5 1011.5,-549.5 				"/>
				<line class="st46" x1="1011.5" y1="-546.5" x2="1011.5" y2="-434"/>
				<polyline class="st15" points="1011.5,-432.5 1011.5,-430.5 1013.5,-430.5 				"/>
				<line class="st47" x1="1016.4" y1="-430.5" x2="1055.1" y2="-430.5"/>
				<line class="st15" x1="1056.5" y1="-430.5" x2="1058.5" y2="-430.5"/>
			</g>
		</g>
	</g>
	<g id="TOP_x5F__x28_economie_x29__2_" class="st1">
		<g>
			<text transform="matrix(1 0 0 1 1255.031 -109.1409)" class="st52 st53 st54">Économies :</text>
			<text transform="matrix(1 0 0 1 1008.541 -85.9409)" class="st55 st53 st57">réduisez le coût </text>
			<text transform="matrix(1 0 0 1 1125.271 -85.9409)" class="st55 st56 st57">de votre infrastructure informatique</text>
		</g>
		<g class="st48">
			<g>
				<g>
					<path class="st24" d="M1219.1-768c-8-1.4-10.4-5.2-5.5-8.5c4.9-3.3,15.4-4.8,23.3-3.5c8,1.4,10.4,5.2,5.5,8.5
						C1237.5-768.2,1227.1-766.6,1219.1-768z"/>
				</g>
			</g>
		</g>
		<g class="st48">
			<g>
				<g>
					<path class="st24" d="M1221.7-769.8c-5.6-1-7.4-3.7-3.9-6c3.5-2.3,10.9-3.4,16.5-2.4c5.6,1,7.4,3.7,3.9,6
						S1227.3-768.8,1221.7-769.8z"/>
				</g>
			</g>
		</g>
		<g class="st41">
			<g>
				<g>
					<path class="st24" d="M1225.1-772.1c-2.6-0.5-3.4-1.7-1.8-2.8c1.6-1.1,5-1.6,7.6-1.1c2.6,0.5,3.4,1.7,1.8,2.8
						C1231.1-772.1,1227.7-771.6,1225.1-772.1z"/>
				</g>
			</g>
		</g>
		<g>
			<g>
				<line class="st15" x1="1228" y1="-774" x2="1228" y2="-776"/>
				<line class="st38" x1="1228" y1="-779" x2="1228" y2="-840.5"/>
				<polyline class="st15" points="1228,-842 1228,-844 1230,-844 				"/>
				<line class="st49" x1="1233" y1="-844" x2="1415" y2="-844"/>
				<polyline class="st15" points="1416.5,-844 1418.5,-844 1418.5,-842 				"/>
				<line class="st50" x1="1418.5" y1="-839" x2="1418.5" y2="-131"/>
				<polyline class="st15" points="1418.5,-129.5 1418.5,-127.5 1416.5,-127.5 				"/>
				<line class="st51" x1="1413.7" y1="-127.5" x2="1382.9" y2="-127.5"/>
				<line class="st15" x1="1381.5" y1="-127.5" x2="1379.5" y2="-127.5"/>
			</g>
		</g>
	</g>
</g>
<g id="schema_x5F_desktop">
	<g id="BACK_x5F__x28_maîtrisez_x29__1_">
		<g>
			<g>
				<line class="st15" x1="449.5" y1="212.9" x2="451.2" y2="211.8"/>
				<line class="st18" x1="453.6" y1="210.3" x2="491.6" y2="186.3"/>
				<line class="st15" x1="492.8" y1="185.6" x2="494.5" y2="184.5"/>
			</g>
		</g>
		<g>
			<text transform="matrix(1 0 0 1 539.4938 150.8595)" class="st52 st53 st54">Maîtrisez</text>
			<text transform="matrix(1 0 0 1 513.1338 173.8595)" class="st52 st53 st54">vos dépenses :</text>
			<text transform="matrix(1 0 0 1 513.0138 197.0595)" class="st55 st56 st57">vous ne payez que ce</text>
			<text transform="matrix(1 0 0 1 512.4438 216.2595)" class="st55 st56 st57">que vous consommez</text>
		</g>
	</g>
	<g id="RIGHT_x5F__x28_sécurisez_x29__1_">
		<g>
			<g>
				<line class="st15" x1="203.5" y1="241.3" x2="205.5" y2="241.6"/>
				<line class="st17" x1="208.4" y1="242.1" x2="267" y2="251.6"/>
				<line class="st15" x1="268.5" y1="251.8" x2="270.4" y2="252.1"/>
			</g>
		</g>
		<g>
			<text transform="matrix(1 0 0 1 53.1611 198.8263)" class="st52 st53 st54">Sécurisez &amp;</text>
			<text transform="matrix(1 0 0 1 48.4211 220.8263)" class="st52 st53 st54">sauvegardez</text>
			<text transform="matrix(1 0 0 1 38.7811 244.0263)" class="st55 st53 st57">vos données</text>
			<text transform="matrix(1 0 0 1 128.6311 244.0263)" class="st55 st56 st57"> dans un</text>
			<text transform="matrix(1 0 0 1 29.3111 263.2263)" class="st55 st56 st57">environnement </text>
			<text transform="matrix(1 0 0 1 140.3511 263.2263)" class="st55 st53 st57">protégé</text>
			<text transform="matrix(1 0 0 1 34.5211 282.4263)" class="st55 st56 st57">en Haute Disponibilité</text>
			<text transform="matrix(1 0 0 1 28.6411 301.6263)" class="st55 st56 st57">dans le </text>
			<text transform="matrix(1 0 0 1 81.8211 301.6263)" class="st55 st53 st57">sud de la France</text>
		</g>
	</g>
	<g id="BOTTOM_x5F__x28_profitez_x29__1_">
		<g>
			<g>
				<line class="st15" x1="368" y1="354.9" x2="368" y2="356.9"/>
				<line class="st16" x1="368" y1="359.9" x2="368" y2="428.4"/>
				<line class="st15" x1="368" y1="429.9" x2="368" y2="431.9"/>
			</g>
		</g>
		<g>
			<text transform="matrix(1 0 0 1 295.3678 457.6826)" class="st52 st53 st54">Profitez d’une</text>
			<text transform="matrix(1 0 0 1 296.3078 480.6826)" class="st52 st53 st54">infrastructure</text>
			<text transform="matrix(1 0 0 1 297.4478 503.8826)" class="st55 st53 st57">puissante</text>
			<text transform="matrix(1 0 0 1 366.4678 503.8826)" class="st55 st56 st57">, </text>
			<text transform="matrix(1 0 0 1 374.1878 503.8826)" class="st55 st53 st57">moderne</text>
			<text transform="matrix(1 0 0 1 323.1978 523.0826)" class="st55 st56 st57">et </text>
			<text transform="matrix(1 0 0 1 341.4778 523.0826)" class="st55 st53 st57">évolutive</text>
			<text transform="matrix(1 0 0 1 409.2478 523.0826)" class="st55 st56 st57">.</text>
		</g>
	</g>
	<g id="ccube_x5F_eclate_6_">
		<polygon id="back_7_" class="st39" points="462.5,193.5 458.5,307.5 357.5,288.5 357.5,180.5 		"/>
		<polygon id="bottom_6_" class="st39" points="395,386 283.5,360.5 350.5,325.5 449.5,343.5 		"/>
		<polygon id="right_6_" class="st39" points="257.5,326.5 254.5,209.5 319.5,180.5 319.5,296.5 		"/>
		<polygon id="top_7_" class="st5" points="393.5,201.5 279.5,184.5 343.5,159.5 451.5,172.5 		"/>
		<polygon id="left_7_" class="st5" points="416,362.5 418,236.5 473,205.5 470,320.5 		"/>
		
			<linearGradient id="face_14_" gradientUnits="userSpaceOnUse" x1="366.3079" y1="345.1732" x2="276.6604" y2="226.0977" gradientTransform="matrix(1 0 0 -1 0 578)">
			<stop  offset="0" style="stop-color:#2B447D"/>
			<stop  offset="1" style="stop-color:#11204D"/>
		</linearGradient>
		<polygon id="face_7_" class="st58" points="262.5,222.5 376.5,240.5 376.5,367.5 265.5,343.5 		"/>
	</g>
	<g id="LEFT_x5F__x28_restez_x29__1_">
		<g>
			<text transform="matrix(1 0 0 1 547.2535 298.6536)" class="st52 st53 st54">Restez</text>
			<text transform="matrix(1 0 0 1 517.2635 321.6536)" class="st52 st53 st54">concentré(e)</text>
			<text transform="matrix(1 0 0 1 493.5435 344.8536)" class="st55 st56 st57">sur votre </text>
			<text transform="matrix(1 0 0 1 560.7335 344.8536)" class="st55 st53 st57">cœur de métier</text>
			<text transform="matrix(1 0 0 1 491.1534 364.0536)" class="st55 st56 st57">en confiant le maintien de</text>
			<text transform="matrix(1 0 0 1 482.5334 383.2536)" class="st55 st56 st57">vote système d’informations</text>
			<text transform="matrix(1 0 0 1 511.0234 402.4536)" class="st55 st56 st57">à des professionnels</text>
		</g>
		<g class="st41">
			<g>
				<g>
					
						<ellipse transform="matrix(0.1681 -0.9858 0.9858 0.1681 97.3012 678.2977)" class="st30" cx="450.5" cy="281.5" rx="15.5" ry="7.7"/>
				</g>
			</g>
		</g>
		<g class="st41">
			<g>
				<g>
					<path class="st30" d="M450.5,271.4c3-1.4,5.4,2,5.4,7.6c0,5.6-2.5,11.2-5.5,12.6s-5.5-2-5.4-7.6
						C445.1,278.4,447.5,272.8,450.5,271.4z"/>
				</g>
			</g>
		</g>
		<g class="st41">
			<g>
				<g>
					
						<ellipse transform="matrix(0.1681 -0.9858 0.9858 0.1681 97.3011 678.2984)" class="st30" cx="450.5" cy="281.5" rx="5.5" ry="2.7"/>
				</g>
			</g>
		</g>
		<g>
			<g>
				<line class="st15" x1="451.4" y1="281.2" x2="453.4" y2="281.6"/>
				<line class="st59" x1="456.2" y1="282" x2="520.5" y2="292.6"/>
				<line class="st15" x1="521.9" y1="292.8" x2="523.9" y2="293.1"/>
			</g>
		</g>
	</g>
	<g id="FRONT_x5F__x28_accédez_x29__1_">
		<g>
			<text transform="matrix(1 0 0 1 110.7734 382.5823)" class="st52 st53 st54">Accédez à</text>
			<text transform="matrix(1 0 0 1 98.5334 405.5823)" class="st52 st53 st54">vos données</text>
			<text transform="matrix(1 0 0 1 79.5034 428.7823)" class="st55 st56 st57">en tout </text>
			<text transform="matrix(1 0 0 1 134.5334 428.7823)" class="st55 st53 st57">lieu</text>
			<text transform="matrix(1 0 0 1 160.7134 428.7823)" class="st55 st56 st57">, tout </text>
			<text transform="matrix(1 0 0 1 202.0034 428.7823)" class="st55 st53 st57">temps</text>
			<text transform="matrix(1 0 0 1 91.5934 447.9823)" class="st55 st56 st57">et </text>
			<text transform="matrix(1 0 0 1 109.8734 447.9823)" class="st55 st53 st57">sur tous supports</text>
		</g>
		<g class="st41">
			<g>
				<g>
					<path class="st29" d="M318,283.5c7.5,3.9,12,13.2,10.1,21s-9.6,10.8-17.2,7s-12-13.2-10.1-21
						C302.8,282.8,310.5,279.7,318,283.5z"/>
				</g>
			</g>
		</g>
		<g class="st41">
			<g>
				<g>
					<path class="st29" d="M316.8,288.6c4.8,2.5,7.6,8.4,6.4,13.3s-6.1,6.9-10.9,4.5c-4.8-2.5-7.7-8.4-6.4-13.3
						C307.1,288.1,312,286.1,316.8,288.6z"/>
				</g>
			</g>
		</g>
		<g class="st41">
			<g>
				<g>
					
						<ellipse transform="matrix(0.8515 -0.5244 0.5244 0.8515 -109.2965 209.1107)" class="st29" cx="314.5" cy="297.5" rx="4.3" ry="5.5"/>
				</g>
			</g>
		</g>
		<g>
			<g>
				<line class="st15" x1="224.7" y1="354.5" x2="226.4" y2="353.4"/>
				<line class="st21" x1="229" y1="351.8" x2="311.8" y2="299.6"/>
				<line class="st15" x1="313.1" y1="298.8" x2="314.8" y2="297.7"/>
			</g>
		</g>
	</g>
	<g id="TOP_x5F__x28_economie_x29__1_">
		<g>
			<text transform="matrix(1 0 0 1 306.125 52.8591)" class="st52 st53 st54">Économies :</text>
			<text transform="matrix(1 0 0 1 278.275 76.0591)" class="st55 st53 st57">réduisez le coût </text>
			<text transform="matrix(1 0 0 1 395.005 76.0591)" class="st55 st56 st57">de votre </text>
			<text transform="matrix(1 0 0 1 272.715 95.2591)" class="st55 st56 st57">infrastructure informatique</text>
		</g>
		<g class="st48">
			<g>
				<g>
					
						<ellipse transform="matrix(0.9977 -6.819808e-02 6.819808e-02 0.9977 -11.2816 25.5125)" class="st24" cx="368" cy="178" rx="17" ry="6.4"/>
				</g>
			</g>
		</g>
		<g class="st48">
			<g>
				<g>
					<path class="st24" d="M361.7,182.2c-5.6-1-7.4-3.7-3.9-6c3.5-2.3,10.9-3.4,16.5-2.4c5.6,1,7.4,3.7,3.9,6
						C374.7,182.1,367.3,183.2,361.7,182.2z"/>
				</g>
			</g>
		</g>
		<g class="st41">
			<g>
				<g>
					
						<ellipse transform="matrix(0.9977 -6.819808e-02 6.819808e-02 0.9977 -11.2817 25.5124)" class="st24" cx="368" cy="178" rx="5.5" ry="2.1"/>
				</g>
			</g>
		</g>
		<g>
			<g>
				<line class="st15" x1="368" y1="108" x2="368" y2="110"/>
				<line class="st38" x1="368" y1="113" x2="368" y2="174.5"/>
				<line class="st15" x1="368" y1="176" x2="368" y2="178"/>
			</g>
		</g>
	</g>
</g>
<g id="schema_x5F_mobile">
	<g id="BACK_x5F__x28_maîtrisez_x29_">
		<g>
			<text transform="matrix(1 0 0 1 1101.7504 772.5097)" class="st52 st53 st54">Maîtrisez vos dépenses :</text>
			<text transform="matrix(1 0 0 1 1075.1903 791.7097)" class="st55 st56 st57">vous ne payez que ce que vous consommez</text>
		</g>
	</g>
	<g id="BOTTOM_x5F__x28_profitez_x29_">
		<g>
			<g>
				<line class="st15" x1="1228" y1="354.9" x2="1228" y2="356.9"/>
				<line class="st16" x1="1228" y1="359.9" x2="1228" y2="428.4"/>
				<line class="st15" x1="1228" y1="429.9" x2="1228" y2="431.9"/>
			</g>
		</g>
		<g>
			<text transform="matrix(1 0 0 1 1080.7977 457.6826)" class="st52 st53 st54">Profitez d’une infrastructure</text>
			<text transform="matrix(1 0 0 1 1110.5778 476.8826)" class="st55 st53 st57">puissante</text>
			<text transform="matrix(1 0 0 1 1179.5878 476.8826)" class="st55 st56 st57">, </text>
			<text transform="matrix(1 0 0 1 1187.3177 476.8826)" class="st55 st53 st57">moderne </text>
			<text transform="matrix(1 0 0 1 1255.5878 476.8826)" class="st55 st56 st57">et </text>
			<text transform="matrix(1 0 0 1 1273.8677 476.8826)" class="st55 st53 st57">évolutive</text>
			<text transform="matrix(1 0 0 1 1341.6477 476.8826)" class="st55 st56 st57">.</text>
		</g>
	</g>
	<g id="RIGHT_x5F__x28_sécurisez_x29_">
		<g>
			<text transform="matrix(1 0 0 1 1100.7087 596.144)" class="st52 st53 st54">Sécurisez &amp; sauvegardez</text>
			<text transform="matrix(1 0 0 1 1067.8287 615.344)" class="st55 st53 st57">vos données</text>
			<text transform="matrix(1 0 0 1 1157.6687 615.344)" class="st55 st56 st57"> dans un environnement </text>
			<text transform="matrix(1 0 0 1 1331.6188 615.344)" class="st55 st53 st57">protégé</text>
			<text transform="matrix(1 0 0 1 1062.8888 634.5439)" class="st55 st56 st57">en Haute Disponibilité dans le </text>
			<text transform="matrix(1 0 0 1 1277.3488 634.5439)" class="st55 st53 st57">sud de la France</text>
		</g>
	</g>
	<g id="ccube_x5F_eclate_5_">
		<polygon id="back_9_" class="st39" points="1322.5,193.5 1318.5,307.5 1217.5,288.5 1217.5,180.5 		"/>
		<polygon id="bottom_5_" class="st39" points="1255,386 1143.5,360.5 1210.5,325.5 1309.5,343.5 		"/>
		<polygon id="right_5_" class="st39" points="1117.5,326.5 1114.5,209.5 1179.5,180.5 1179.5,296.5 		"/>
		<polygon id="top_9_" class="st5" points="1253.5,201.5 1139.5,184.5 1203.5,159.5 1311.5,172.5 		"/>
		<polygon id="left_9_" class="st5" points="1276,362.5 1278,236.5 1333,205.5 1330,320.5 		"/>
		
			<linearGradient id="face_15_" gradientUnits="userSpaceOnUse" x1="1226.3079" y1="345.1732" x2="1136.6604" y2="226.0977" gradientTransform="matrix(1 0 0 -1 0 578)">
			<stop  offset="0" style="stop-color:#2B447D"/>
			<stop  offset="1" style="stop-color:#11204D"/>
		</linearGradient>
		<polygon id="face_9_" class="st60" points="1122.5,222.5 1236.5,240.5 1236.5,367.5 1125.5,343.5 		"/>
	</g>
	<g id="LEFT_x5F__x28_restez_x29_">
		<g>
			<text transform="matrix(1 0 0 1 1125.6469 684.5751)" class="st52 st53 st54">Restez concentré(e)</text>
			<text transform="matrix(1 0 0 1 1046.6268 703.7751)" class="st55 st56 st57">sur votre </text>
			<text transform="matrix(1 0 0 1 1113.8169 703.7751)" class="st55 st53 st57">cœur de métier </text>
			<text transform="matrix(1 0 0 1 1227.4568 703.7751)" class="st55 st56 st57">en confiant le maintien de</text>
			<text transform="matrix(1 0 0 1 1055.2969 722.9751)" class="st55 st56 st57">vote système d’informations à des professionnels</text>
		</g>
		<g class="st41">
			<g>
				<g>
					<path class="st30" d="M1310.5,266.6c4.4-2,8,3,8,11.2c0,8.2-3.6,16.5-8.1,18.6c-4.4,2-8-3-8-11.2
						C1302.5,276.9,1306.1,268.6,1310.5,266.6z"/>
				</g>
			</g>
		</g>
		<g class="st41">
			<g>
				<g>
					<path class="st30" d="M1310.5,271.4c3-1.4,5.4,2,5.4,7.6c0,5.6-2.5,11.2-5.5,12.6s-5.4-2-5.4-7.6
						C1305.1,278.4,1307.5,272.8,1310.5,271.4z"/>
				</g>
			</g>
		</g>
		<g class="st41">
			<g>
				<g>
					
						<ellipse transform="matrix(0.1681 -0.9858 0.9858 0.1681 812.7868 1526.0643)" class="st30" cx="1310.6" cy="281.5" rx="5.5" ry="2.7"/>
				</g>
			</g>
		</g>
	</g>
	<g id="FRONT_x5F__x28_accédez_x29_">
		<g>
			<text transform="matrix(1 0 0 1 1108.4304 526.9136)" class="st52 st53 st54">Accédez à vos données</text>
			<text transform="matrix(1 0 0 1 1071.0304 546.1136)" class="st55 st56 st57">en tout </text>
			<text transform="matrix(1 0 0 1 1126.0604 546.1136)" class="st55 st53 st57">lieu</text>
			<text transform="matrix(1 0 0 1 1152.2405 546.1136)" class="st55 st56 st57">, tout </text>
			<text transform="matrix(1 0 0 1 1193.5304 546.1136)" class="st55 st53 st57">temps </text>
			<text transform="matrix(1 0 0 1 1241.9304 546.1136)" class="st55 st56 st57">et </text>
			<text transform="matrix(1 0 0 1 1260.2104 546.1136)" class="st55 st53 st57">sur tous supports</text>
		</g>
		<g class="st41">
			<g>
				<g>
					<path class="st29" d="M1178,283.5c7.5,3.9,12,13.2,10.1,21c-2,7.7-9.6,10.8-17.2,7c-7.5-3.9-12-13.2-10.1-21
						C1162.8,282.8,1170.5,279.7,1178,283.5z"/>
				</g>
			</g>
		</g>
		<g class="st41">
			<g>
				<g>
					<path class="st29" d="M1176.8,288.6c4.8,2.5,7.7,8.4,6.4,13.3c-1.2,4.9-6.1,6.9-10.9,4.4c-4.8-2.5-7.7-8.4-6.4-13.3
						C1167.1,288.1,1172,286.1,1176.8,288.6z"/>
				</g>
			</g>
		</g>
		<g class="st41">
			<g>
				<g>
					
						<ellipse transform="matrix(0.8515 -0.5244 0.5244 0.8515 18.4314 660.097)" class="st29" cx="1174.5" cy="297.5" rx="4.3" ry="5.5"/>
				</g>
			</g>
		</g>
	</g>
	<g id="TOP_x5F__x28_economie_x29_">
		<g>
			<text transform="matrix(1 0 0 1 1166.0154 842.8591)" class="st52 st53 st54">Économies :</text>
			<text transform="matrix(1 0 0 1 1042.7654 866.0591)" class="st55 st53 st57">réduisez le coût </text>
			<text transform="matrix(1 0 0 1 1159.5054 866.0591)" class="st55 st56 st57">de votre infrastructure informatique</text>
		</g>
		<g class="st48">
			<g>
				<g>
					
						<ellipse transform="matrix(0.9977 -6.819808e-02 6.819808e-02 0.9977 -9.2768 84.1642)" class="st24" cx="1228" cy="178" rx="17" ry="6.4"/>
				</g>
			</g>
		</g>
		<g class="st48">
			<g>
				<g>
					<path class="st24" d="M1221.7,182.2c-5.6-1-7.4-3.7-3.9-6c3.5-2.3,10.9-3.4,16.5-2.4c5.6,1,7.4,3.7,3.9,6
						S1227.3,183.2,1221.7,182.2z"/>
				</g>
			</g>
		</g>
		<g class="st41">
			<g>
				<g>
					
						<ellipse transform="matrix(0.9977 -6.819808e-02 6.819808e-02 0.9977 -9.2765 84.1642)" class="st24" cx="1228" cy="177.9" rx="5.5" ry="2.1"/>
				</g>
			</g>
		</g>
	</g>
</g>
</svg>
