<?xml version="1.0" encoding="utf-8"?>
<!-- Generator: Adobe Illustrator 25.2.0, SVG Export Plug-In . SVG Version: 6.00 Build 0)  -->
<svg version="1.1" xmlns="http://www.w3.org/2000/svg" xmlns:xlink="http://www.w3.org/1999/xlink" x="0px" y="0px"
	 viewBox="0 0 918.2 658.9" style="enable-background:new 0 0 918.2 658.9;" xml:space="preserve">
<style type="text/css">
	.st0{display:none;}
	.st1{display:inline;}
	.st2{fill:#CDF1F9;}
	.st3{opacity:0.2;}
	.st4{fill:none;stroke:#38A1B2;stroke-width:20;stroke-miterlimit:10;}
	.st5{opacity:0.2;fill:#38A1B2;}
	.st6{fill:#4AC1E0;}
	.st7{fill:#FFFFFF;}
	.st8{fill:#2672D5;}
	.st9{display:inline;fill:#38A1B2;}
	.st10{display:inline;opacity:0.2;}
	.st11{fill:#EE6FBB;}
	.st12{fill:#EB6FBD;}
	.st13{fill:#FFA400;}
	.st14{opacity:0.4;fill:#6B2D55;}
	.st15{opacity:0.25;fill:#6B2D55;}
	.st16{opacity:0.2;fill:#FFFFFF;}
	.st17{fill:#FFFFFF;stroke:#FFA300;stroke-width:7;stroke-miterlimit:10;}
	.st18{fill:#88DEF2;}
	.st19{font-family:'BarlowCondensed-Bold';}
	.st20{font-size:26.2092px;}
	.st21{fill:#38A1B2;}
	.st22{font-size:32px;}
	.st23{font-family:'BarlowCondensed-SemiBold';}
	.st24{font-size:15px;}
	.st25{fill:#FFA300;}
	.st26{font-size:26.4175px;}
	.st27{font-size:21.5343px;}
	.st28{font-size:20px;}
</style>
<g id="work" class="st0">
	<g id="DATA_x5F_CENTER_1_" class="st1">
		<path class="st2" d="M1496.2-1091.5h-368.4c-21.9,0-39.6-17.7-39.6-39.6v-530.5c0-21.9,17.7-39.6,39.6-39.6h368.4
			c21.9,0,39.6,17.8,39.6,39.6v530.5C1535.9-1109.2,1518.1-1091.5,1496.2-1091.5z"/>
		<text transform="matrix(1 0 0 1 1248.6842 -1708.5001)" class="st18 st19 st20">Data center</text>
	</g>
	<g id="VOTRE_x5F_SERVEUR_1_" class="st1">
		<g class="st3">
			<path class="st4" d="M1422.7-1168.9h-221.3c-5.5,0-10-4.5-10-10v-442.6c0-5.5,4.5-10,10-10h221.3c5.5,0,10,4.5,10,10v442.6
				C1432.7-1173.4,1428.2-1168.9,1422.7-1168.9z"/>
		</g>
		<rect x="1293.1" y="-1158.8" class="st5" width="37.9" height="50.3"/>
		<text transform="matrix(1 0 0 1 1223.067 -1647.0304)" class="st6 st19 st22">Votre serveur</text>
		<g>
			<path class="st6" d="M1422.7-1168.9h-221.3c-5.5,0-10-4.5-10-10v-442.6c0-5.5,4.5-10,10-10h221.3c5.5,0,10,4.5,10,10v442.6
				C1432.7-1173.4,1428.2-1168.9,1422.7-1168.9z"/>
		</g>
		<g id="bloc_x5F_messagerie_1_">
			<path class="st7" d="M1299.6-1517.5h-87.4c-2.8,0-5-2.2-5-5v-87.4c0-2.8,2.2-5,5-5h87.4c2.8,0,5,2.2,5,5v87.4
				C1304.6-1519.8,1302.4-1517.5,1299.6-1517.5z"/>
			<path id="Tracé_2740_4_" class="st8" d="M1267.1-1552.4c0.1-0.1,0.3-0.1,0.4,0.1c0,0,0.1,0.1,0.1,0.2v9.3c0,1.2-1,2.2-2.2,2.2
				h-19c-1.2,0-2.2-1-2.2-2.2v-9.3c0-0.2,0.1-0.3,0.3-0.3c0.1,0,0.1,0,0.2,0.1c1,0.8,2.4,1.8,7,5.2c1,0.7,2.6,2.2,4.2,2.2
				c1.6,0,3.3-1.5,4.2-2.2C1264.8-1550.6,1266.1-1551.6,1267.1-1552.4z M1255.9-1546.5c1.1,0,2.6-1.3,3.3-1.9c6-4.4,6.5-4.8,7.9-5.9
				c0.3-0.2,0.4-0.5,0.4-0.9v-0.9c0-1.2-1-2.2-2.2-2.2h-19c-1.2,0-2.2,1-2.2,2.2v0.9c0,0.3,0.2,0.7,0.4,0.9c1.4,1.1,1.9,1.5,7.9,5.9
				C1253.3-1547.8,1254.9-1546.5,1255.9-1546.5L1255.9-1546.5z"/>
			<text transform="matrix(1 0 0 1 1219.1581 -1586.8668)"><tspan x="0" y="0" class="st8 st23 st24">Messagerie</tspan><tspan x="-5.9" y="12" class="st8 st23 st24">collaborative</tspan></text>
		</g>
		<g id="bloc_x5F_etc_1_">
			<path class="st7" d="M1411.4-1183.8H1324c-2.8,0-5-2.2-5-5v-87.4c0-2.8,2.2-5,5-5h87.4c2.8,0,5,2.2,5,5v87.4
				C1416.4-1186,1414.1-1183.8,1411.4-1183.8z"/>
			<path class="st8" d="M1371.8-1231.9c0,2.3-1.8,4.1-4.1,4.1c-2.3,0-4.1-1.8-4.1-4.1c0-2.3,1.8-4.1,4.1-4.1
				C1370-1236,1371.8-1234.1,1371.8-1231.9z M1377.7-1236c-2.3,0-4.1,1.8-4.1,4.1c0,2.3,1.8,4.1,4.1,4.1c2.3,0,4.1-1.8,4.1-4.1
				C1381.8-1234.1,1379.9-1236,1377.7-1236z M1357.7-1236c-2.3,0-4.1,1.8-4.1,4.1c0,2.3,1.8,4.1,4.1,4.1c2.3,0,4.1-1.8,4.1-4.1
				C1361.8-1234.1,1360-1236,1357.7-1236z"/>
		</g>
		<g id="bloc_x5F_echanges">
			<path class="st7" d="M1299.6-1295h-87.4c-2.8,0-5-2.2-5-5v-87.4c0-2.8,2.2-5,5-5h87.4c2.8,0,5,2.2,5,5v87.4
				C1304.6-1297.3,1302.4-1295,1299.6-1295z"/>
			<text transform="matrix(1 0 0 1 1217.8983 -1364.3705)"><tspan x="0" y="0" class="st8 st23 st24">Echange de</tspan><tspan x="-7.7" y="12" class="st8 st23 st24">fichiers lourds</tspan></text>
			<path class="st8" d="M1257.7-1337.4v-7.4h-3.5v1.8h-1.8v-1.8h-5.7c-0.7,0-1.3,0.6-1.3,1.3v25.4c0,0.7,0.6,1.3,1.3,1.3h18.4
				c0.7,0,1.3-0.6,1.3-1.3v-17.9h-7.4C1258.3-1336.1,1257.7-1336.7,1257.7-1337.4z M1250.7-1343.1h1.8v1.8h-1.8V-1343.1z
				 M1252.4-1322.1c-1.8,0-3.2-1.7-2.8-3.4l1.1-5.3v-1.8h1.8v-1.8h-1.8v-1.8h1.8v-1.8h-1.8v-1.8h1.8v-1.8h1.8v1.8h-1.8v1.8h1.8v1.8
				h-1.8v1.8h1.8v1.8h-1.8v1.8h1.2c0.3,0,0.6,0.2,0.6,0.5l0.9,4.8C1255.6-1323.8,1254.2-1322.1,1252.4-1322.1L1252.4-1322.1z
				 M1254.2-1325c0,0.8-0.8,1.5-1.8,1.5s-1.8-0.7-1.8-1.5c0-0.8,0.8-1.5,1.8-1.5C1253.4-1326.5,1254.2-1325.8,1254.2-1325z
				 M1266.4-1338.2v0.3h-7v-7h0.3c0.4,0,0.7,0.1,0.9,0.4l5.4,5.4C1266.3-1338.9,1266.4-1338.5,1266.4-1338.2z"/>
		</g>
		<g id="bloc_x5F_CRM_1_">
			<path class="st7" d="M1299.6-1406.3h-87.4c-2.8,0-5-2.2-5-5v-87.4c0-2.8,2.2-5,5-5h87.4c2.8,0,5,2.2,5,5v87.4
				C1304.6-1408.5,1302.4-1406.3,1299.6-1406.3z"/>
			<text transform="matrix(1 0 0 1 1241.0507 -1475.6187)" class="st8 st23 st24">CRM</text>
			<path class="st8" d="M1243.7-1448.3c1.9,0,3.5-1.6,3.5-3.5c0-1.9-1.6-3.5-3.5-3.5c-1.9,0-3.5,1.6-3.5,3.5
				C1240.2-1449.9,1241.8-1448.3,1243.7-1448.3z M1268.1-1448.3c1.9,0,3.5-1.6,3.5-3.5c0-1.9-1.6-3.5-3.5-3.5
				c-1.9,0-3.5,1.6-3.5,3.5C1264.6-1449.9,1266.2-1448.3,1268.1-1448.3z M1269.9-1446.6h-3.5c-1,0-1.8,0.4-2.5,1
				c2.2,1.2,3.8,3.4,4.1,6h3.6c1,0,1.7-0.8,1.7-1.7v-1.7C1273.3-1445,1271.8-1446.6,1269.9-1446.6z M1255.9-1446.6
				c3.4,0,6.1-2.7,6.1-6.1c0-3.4-2.7-6.1-6.1-6.1s-6.1,2.7-6.1,6.1C1249.8-1449.3,1252.5-1446.6,1255.9-1446.6z M1260.1-1444.9h-0.5
				c-1.1,0.5-2.4,0.9-3.7,0.9s-2.6-0.3-3.7-0.9h-0.5c-3.5,0-6.3,2.8-6.3,6.3v1.6c0,1.4,1.2,2.6,2.6,2.6h15.7c1.4,0,2.6-1.2,2.6-2.6
				v-1.6C1266.4-1442.1,1263.6-1444.9,1260.1-1444.9z M1247.9-1445.6c-0.6-0.6-1.5-1-2.5-1h-3.5c-1.9,0-3.5,1.6-3.5,3.5v1.7
				c0,1,0.8,1.7,1.7,1.7h3.6C1244.2-1442.2,1245.7-1444.4,1247.9-1445.6L1247.9-1445.6z"/>
		</g>
		<g id="bloc_x5F_office_1_">
			<path class="st7" d="M1411.4-1406.3H1324c-2.8,0-5-2.2-5-5v-87.4c0-2.8,2.2-5,5-5h87.4c2.8,0,5,2.2,5,5v87.4
				C1416.4-1408.5,1414.1-1406.3,1411.4-1406.3z"/>
			<text transform="matrix(1 0 0 1 1332.0372 -1475.6187)" class="st8 st23 st24">Pack Office</text>
			<path class="st8" d="M1391.6-1447.4v-5.9h-8.7c-0.6,0-1,0.5-1,1v20.2c0,0.6,0.5,1,1,1h14.6c0.6,0,1-0.5,1-1v-14.3h-5.9
				C1392.1-1446.4,1391.6-1446.9,1391.6-1447.4z M1394.2-1442.8l-2.6,4.1l2.6,4.1c0.2,0.3,0,0.8-0.4,0.8h-1.5
				c-0.2,0-0.4-0.1-0.5-0.3c-0.9-1.6-1.6-3-1.6-3c-0.3,0.6-0.4,0.9-1.6,3c-0.1,0.2-0.3,0.3-0.5,0.3h-1.5c-0.4,0-0.7-0.5-0.4-0.8
				l2.6-4.1l-2.6-4.1c-0.2-0.3,0-0.8,0.4-0.8h1.5c0.2,0,0.4,0.1,0.5,0.3c1.1,2.1,0.9,1.5,1.6,3c0,0,0.3-0.5,1.6-3
				c0.1-0.2,0.3-0.3,0.5-0.3h1.5C1394.2-1443.6,1394.4-1443.1,1394.2-1442.8L1394.2-1442.8z M1398.6-1448v0.3h-5.6v-5.6h0.3
				c0.3,0,0.5,0.1,0.7,0.3l4.3,4.3C1398.5-1448.6,1398.6-1448.3,1398.6-1448z"/>
			<path class="st8" d="M1345.3-1441.5c0.4,0,0.7,0.1,0.9,0.4c0.4,0.5,0.4,1.4,0,1.9c-0.2,0.2-0.5,0.4-0.9,0.4h-1.2v-2.6H1345.3z
				 M1353.3-1448.8l-4.3-4.3c-0.2-0.2-0.5-0.3-0.7-0.3h-0.3v5.6h5.6v-0.3C1353.6-1448.3,1353.5-1448.6,1353.3-1448.8z
				 M1346.6-1447.4v-5.9h-8.7c-0.6,0-1,0.5-1,1v20.2c0,0.6,0.5,1,1,1h14.6c0.6,0,1-0.5,1-1v-14.3h-5.9
				C1347.1-1446.4,1346.6-1446.9,1346.6-1447.4z M1348.9-1440.2c0,3.9-3.9,3.4-4.8,3.4v2.5c0,0.3-0.2,0.5-0.5,0.5h-1.3
				c-0.3,0-0.5-0.2-0.5-0.5v-8.7c0-0.3,0.2-0.5,0.5-0.5h3.5C1347.7-1443.6,1348.9-1442.2,1348.9-1440.2z"/>
			<path class="st8" d="M1369.6-1449.2v-7.9H1358c-0.8,0-1.4,0.6-1.4,1.4v26.9c0,0.8,0.6,1.4,1.4,1.4h19.5c0.8,0,1.4-0.6,1.4-1.4
				v-19h-7.9C1370.2-1447.8,1369.6-1448.4,1369.6-1449.2z M1372.9-1442.2h1.4c0.4,0,0.8,0.4,0.7,0.9l-2.2,9.7
				c-0.1,0.3-0.4,0.5-0.7,0.5h-2.2c-0.3,0-0.6-0.2-0.7-0.5c-1.5-6-1.2-4.7-1.5-6.4h0c-0.1,0.8-0.1,1-1.5,6.4
				c-0.1,0.3-0.4,0.5-0.7,0.5h-2.2c-0.3,0-0.6-0.2-0.7-0.5l-2.2-9.7c-0.1-0.4,0.2-0.8,0.7-0.8h1.4c0.3,0,0.6,0.2,0.7,0.6
				c0.9,4.5,1.2,6.4,1.2,7.1c0.1-0.6,0.4-1.9,1.7-7.1c0.1-0.3,0.4-0.5,0.7-0.5h1.7c0.3,0,0.6,0.2,0.7,0.5c1.4,5.8,1.7,7.2,1.7,7.5
				c0-0.6-0.2-1,1.3-7.5C1372.3-1442,1372.6-1442.2,1372.9-1442.2z M1378.8-1450v0.4h-7.4v-7.4h0.4c0.4,0,0.7,0.1,1,0.4l5.7,5.7
				C1378.7-1450.7,1378.8-1450.4,1378.8-1450z"/>
		</g>
		<g id="bloc_x5F_sauvegarde_1_">
			<path class="st7" d="M1411.4-1295H1324c-2.8,0-5-2.2-5-5v-87.4c0-2.8,2.2-5,5-5h87.4c2.8,0,5,2.2,5,5v87.4
				C1416.4-1297.3,1414.1-1295,1411.4-1295z"/>
			<text transform="matrix(1 0 0 1 1329.2999 -1364.3705)"><tspan x="0" y="0" class="st8 st23 st24">Sauvegarde</tspan><tspan x="-1" y="12" class="st8 st23 st24">externalisée</tspan></text>
			<path class="st8" d="M1378.6-1337.8l-4.3-4.3c-0.5-0.5-1.1-0.7-1.7-0.7h-13.8c-1.4,0-2.5,1.1-2.5,2.5v18.1c0,1.4,1.1,2.5,2.5,2.5
				h18.1c1.4,0,2.5-1.1,2.5-2.5v-13.8C1379.4-1336.7,1379.1-1337.3,1378.6-1337.8L1378.6-1337.8z M1367.9-1323.1
				c-1.8,0-3.3-1.5-3.3-3.3c0-1.8,1.5-3.3,3.3-3.3c1.8,0,3.3,1.5,3.3,3.3C1371.2-1324.5,1369.7-1323.1,1367.9-1323.1z
				 M1372.8-1338.7v5.2c0,0.3-0.3,0.6-0.6,0.6h-11.9c-0.3,0-0.6-0.3-0.6-0.6v-5.3c0-0.3,0.3-0.6,0.6-0.6h11.7c0.2,0,0.3,0.1,0.4,0.2
				l0.2,0.2C1372.7-1339,1372.8-1338.9,1372.8-1338.7z"/>
		</g>
		<g id="bloc_x5F_donnees_1_">
			<path class="st7" d="M1299.6-1183.8h-87.4c-2.8,0-5-2.2-5-5v-87.4c0-2.8,2.2-5,5-5h87.4c2.8,0,5,2.2,5,5v87.4
				C1304.6-1186,1302.4-1183.8,1299.6-1183.8z"/>
			<text transform="matrix(1 0 0 1 1226.9432 -1253.1222)" class="st8 st23 st24">Données</text>
			<path class="st8" d="M1267.7-1232.8v2.4c0,2.2-5.4,3.9-12,3.9c-6.6,0-12-1.8-12-3.9v-2.4c0-2.2,5.4-3.9,12-3.9
				C1262.4-1236.7,1267.7-1235,1267.7-1232.8z M1267.7-1227.3v5.5c0,2.2-5.4,3.9-12,3.9c-6.6,0-12-1.8-12-3.9v-5.5
				c2.6,1.8,7.3,2.6,12,2.6C1260.5-1224.7,1265.2-1225.6,1267.7-1227.3z M1267.7-1218.8v5.5c0,2.2-5.4,3.9-12,3.9
				c-6.6,0-12-1.8-12-3.9v-5.5c2.6,1.8,7.3,2.6,12,2.6C1260.5-1216.2,1265.2-1217,1267.7-1218.8z"/>
		</g>
		<g id="bloc_x5F_logiciels_1_">
			<path class="st7" d="M1411.4-1517.5H1324c-2.8,0-5-2.2-5-5v-87.4c0-2.8,2.2-5,5-5h87.4c2.8,0,5,2.2,5,5v87.4
				C1416.4-1519.8,1414.1-1517.5,1411.4-1517.5z"/>
			<text transform="matrix(1 0 0 1 1339.2902 -1586.8668)"><tspan x="0" y="0" class="st8 st23 st24">Logiciels</tspan><tspan x="4.1" y="12" class="st8 st23 st24">métiers</tspan></text>
			<path class="st8" d="M1381.8-1544.9h-25.3v-17.8c0-0.5-0.4-0.9-0.9-0.9h-1.9c-0.5,0-0.9,0.4-0.9,0.9v19.7c0,1,0.8,1.9,1.9,1.9
				h27.2c0.5,0,0.9-0.4,0.9-0.9v-1.9C1382.7-1544.5,1382.3-1544.9,1381.8-1544.9z M1379.9-1561.8h-6.9c-1.3,0-1.9,1.5-1,2.4l1.9,1.9
				l-4.3,4.3l-4.3-4.3c-0.7-0.7-1.9-0.7-2.7,0l-4,4c-0.4,0.4-0.4,1,0,1.3l1.3,1.3c0.4,0.4,1,0.4,1.3,0l2.7-2.7l4.3,4.3
				c0.7,0.7,1.9,0.7,2.7,0l5.6-5.6l1.9,1.9c0.9,0.9,2.4,0.3,2.4-1v-6.9C1380.9-1561.4,1380.4-1561.8,1379.9-1561.8z"/>
		</g>
		<g>
			<g>
				<g>
					<path class="st6" d="M1149.7-1652.6c0,0,4.7-14,19.6-14s19,14.9,19,14.9s16.2,0.6,16.2,17.1c0,14.9-15.7,16.4-16.4,16.4
						c-0.7,0-19.7,0.1-20.7,0.1c-1,0-2-1-2-2.2c0-1.2,0-11.3,0-13.1c0-1.2-1.3-3.1-2.9-3.1c-0.9,0-5.7,0-6.6,0
						c-0.9,0-2.1-0.4-2.1-2.4c0-1.9,0-7.1,0-10C1153.8-1651.8,1150.7-1652.6,1149.7-1652.6z"/>
					<path class="st6" d="M1155.6-1618.2c0,0,2.6,0,4.5,0s2.9-1,2.9-2.5c0-1.5,0-10.6,0-11.3c0-0.7-0.7-2.1-2.1-2.1s-4.8,0-4.8,0h-2
						c0,0-3.5,0-4.8,0c-1.3,0-2.1,1.3-2.1,2.1c0,0.7,0,9.9,0,11.3s1,2.5,2.9,2.5c1.9,0,4.5,0,4.5,0H1155.6z"/>
					<path class="st6" d="M1133.9-1618.2c0,0,1.5,0,2.6,0c1.1,0,1.7-0.6,1.7-1.5s0-6.2,0-6.6c0-0.4-0.4-1.2-1.2-1.2
						c-0.8,0-2.8,0-2.8,0h-1.2c0,0-2,0-2.8,0c-0.8,0-1.2,0.8-1.2,1.2c0,0.4,0,5.7,0,6.6s0.6,1.5,1.7,1.5s2.6,0,2.6,0H1133.9z"/>
					<path class="st6" d="M1145-1636.5c0,0,2.2,0,3.8,0c1.6,0,2.5-0.9,2.5-2.1c0-1.2,0-9,0-9.6c0-0.6-0.6-1.7-1.7-1.7
						c-1.1,0-4.1,0-4.1,0h-1.7c0,0-3,0-4.1,0c-1.1,0-1.7,1.1-1.7,1.7c0,0.6,0,8.4,0,9.6c0,1.2,0.9,2.1,2.5,2.1c1.6,0,3.8,0,3.8,0
						H1145z"/>
					<path class="st6" d="M1130.6-1629.9c0,0,1.8,0,3.2,0c1.3,0,2.1-0.7,2.1-1.8c0-1,0-7.5,0-8c0-0.5-0.5-1.4-1.5-1.4
						c-0.9,0-3.4,0-3.4,0h-1.4c0,0-2.5,0-3.4,0c-0.9,0-1.4,0.9-1.4,1.4c0,0.5,0,6.9,0,8c0,1,0.7,1.8,2.1,1.8c1.3,0,3.2,0,3.2,0
						H1130.6z"/>
					<path class="st6" d="M1133.1-1643.5c0,0,1,0,1.7,0c0.7,0,1.1-0.4,1.1-0.9c0-0.6,0-4,0-4.3c0-0.3-0.3-0.8-0.8-0.8
						c-0.5,0-1.8,0-1.8,0h-0.8c0,0-1.3,0-1.8,0c-0.5,0-0.8,0.5-0.8,0.8c0,0.3,0,3.7,0,4.3c0,0.6,0.4,0.9,1.1,0.9c0.7,0,1.7,0,1.7,0
						H1133.1z"/>
					<path class="st6" d="M1124.4-1621.4c0,0,1,0,1.7,0c0.7,0,1.1-0.4,1.1-0.9c0-0.6,0-4,0-4.3c0-0.3-0.3-0.8-0.8-0.8
						c-0.5,0-1.8,0-1.8,0h-0.8c0,0-1.3,0-1.8,0c-0.5,0-0.8,0.5-0.8,0.8c0,0.3,0,3.7,0,4.3c0,0.6,0.4,0.9,1.1,0.9c0.7,0,1.7,0,1.7,0
						L1124.4-1621.4L1124.4-1621.4z"/>
					<path class="st6" d="M1141.8-1627.3c0,0,1.1,0,2,0c0.8,0,1.3-0.4,1.3-1.1c0-0.6,0-4.6,0-4.9c0-0.3-0.3-0.9-0.9-0.9
						c-0.6,0-2.1,0-2.1,0h-0.9c0,0-1.5,0-2.1,0c-0.6,0-0.9,0.6-0.9,0.9c0,0.3,0,4.3,0,4.9c0,0.6,0.4,1.1,1.3,1.1c0.8,0,2,0,2,0
						H1141.8z"/>
					<path class="st6" d="M1143-1621.2c0,0,0.7,0,1.3,0c0.5,0,0.8-0.3,0.8-0.7s0-2.9,0-3.1c0-0.2-0.2-0.6-0.6-0.6s-1.3,0-1.3,0h-0.6
						c0,0-1,0-1.3,0c-0.4,0-0.6,0.4-0.6,0.6c0,0.2,0,2.7,0,3.1s0.3,0.7,0.8,0.7c0.5,0,1.3,0,1.3,0H1143z"/>
				</g>
			</g>
		</g>
	</g>
	<circle id="ombre_x5F_acces_x5F_securise_1_" class="st9" cx="1312.1" cy="-1092.3" r="51.5"/>
	<g class="st10">
		<circle class="st11" cx="1312.1" cy="-940" r="80.5"/>
	</g>
	<g id="PRODUCTION" class="st1">
		<g>
			<rect x="1182.5" y="-946.3" class="st12" width="90.5" height="13"/>
		</g>
		<text transform="matrix(1 0 0 1 1086.8978 -663.9206)"><tspan x="0" y="0" class="st25 st19 st26">sites de</tspan><tspan x="-20.4" y="25" class="st25 st19 st26">production</tspan></text>
		<g id="ordinateurs">
			<path id="ordinateur_5_" class="st13" d="M1150.9-1053.2h-45.2c-2.5,0-4.5,2-4.5,4.5v30.1c0,2.5,2,4.5,4.5,4.5h18.1l-1.5,4.5
				h-6.8c-1.3,0-2.3,1-2.3,2.3s1,2.3,2.3,2.3h25.6c1.3,0,2.3-1,2.3-2.3s-1-2.3-2.3-2.3h-6.8l-1.5-4.5h18.1c2.5,0,4.5-2,4.5-4.5
				v-30.1C1155.4-1051.2,1153.4-1053.2,1150.9-1053.2z M1149.4-1020.1h-42.2v-27.1h42.2V-1020.1z"/>
			<path id="ordinateur_4_" class="st13" d="M1150.9-991.4h-45.2c-2.5,0-4.5,2-4.5,4.5v30.1c0,2.5,2,4.5,4.5,4.5h18.1l-1.5,4.5h-6.8
				c-1.3,0-2.3,1-2.3,2.3c0,1.3,1,2.3,2.3,2.3h25.6c1.3,0,2.3-1,2.3-2.3c0-1.3-1-2.3-2.3-2.3h-6.8l-1.5-4.5h18.1
				c2.5,0,4.5-2,4.5-4.5v-30.1C1155.4-989.4,1153.4-991.4,1150.9-991.4z M1149.4-958.2h-42.2v-27.1h42.2V-958.2z"/>
			<path id="ordinateur_3_" class="st13" d="M1150.9-928.8h-45.2c-2.5,0-4.5,2-4.5,4.5v30.1c0,2.5,2,4.5,4.5,4.5h18.1l-1.5,4.5h-6.8
				c-1.3,0-2.3,1-2.3,2.3c0,1.3,1,2.3,2.3,2.3h25.6c1.3,0,2.3-1,2.3-2.3c0-1.3-1-2.3-2.3-2.3h-6.8l-1.5-4.5h18.1
				c2.5,0,4.5-2,4.5-4.5v-30.1C1155.4-926.8,1153.4-928.8,1150.9-928.8z M1149.4-895.7h-42.2v-27.1h42.2V-895.7z"/>
			<path id="ordinateur_2_" class="st13" d="M1150.9-869.4h-45.2c-2.5,0-4.5,2-4.5,4.5v30.1c0,2.5,2,4.5,4.5,4.5h18.1l-1.5,4.5h-6.8
				c-1.3,0-2.3,1-2.3,2.3c0,1.3,1,2.3,2.3,2.3h25.6c1.3,0,2.3-1,2.3-2.3c0-1.3-1-2.3-2.3-2.3h-6.8l-1.5-4.5h18.1
				c2.5,0,4.5-2,4.5-4.5v-30.1C1155.4-867.4,1153.4-869.4,1150.9-869.4z M1149.4-836.2h-42.2v-27.1h42.2V-836.2z"/>
			<path id="ordinateur_1_" class="st13" d="M1150.9-804.8h-45.2c-2.5,0-4.5,2-4.5,4.5v30.1c0,2.5,2,4.5,4.5,4.5h18.1l-1.5,4.5h-6.8
				c-1.3,0-2.3,1-2.3,2.3c0,1.3,1,2.3,2.3,2.3h25.6c1.3,0,2.3-1,2.3-2.3c0-1.3-1-2.3-2.3-2.3h-6.8l-1.5-4.5h18.1
				c2.5,0,4.5-2,4.5-4.5v-30.1C1155.4-802.8,1153.4-804.8,1150.9-804.8z M1149.4-771.7h-42.2v-27.1h42.2V-771.7z"/>
			<path id="ordinateur" class="st13" d="M1150.9-743.7h-45.2c-2.5,0-4.5,2-4.5,4.5v30.1c0,2.5,2,4.5,4.5,4.5h18.1l-1.5,4.5h-6.8
				c-1.3,0-2.3,1-2.3,2.3c0,1.3,1,2.3,2.3,2.3h25.6c1.3,0,2.3-1,2.3-2.3c0-1.3-1-2.3-2.3-2.3h-6.8l-1.5-4.5h18.1
				c2.5,0,4.5-2,4.5-4.5v-30.1C1155.4-741.6,1153.4-743.7,1150.9-743.7z M1149.4-710.5h-42.2v-27.1h42.2V-710.5z"/>
		</g>
		<path class="st14" d="M1245.8-933.3c-0.3-2.5-0.5-5.1-0.5-7.7c0-1.8,0.1-3.5,0.2-5.3h27.4v13H1245.8z"/>
		<g>
			<polygon class="st12" points="1189,-717.8 1189,-1039.5 1155.4,-1039.5 1155.4,-1026.5 1176,-1026.5 1176,-730.8 1155.4,-730.8 
				1155.4,-717.8 			"/>
		</g>
		<g>
			<rect x="1155.4" y="-792.5" class="st12" width="27.1" height="13"/>
		</g>
		<g>
			<rect x="1155.4" y="-854.3" class="st12" width="27.1" height="13"/>
		</g>
		<g>
			<rect x="1155.4" y="-916" class="st12" width="27.1" height="13"/>
		</g>
		<g>
			<rect x="1155.4" y="-977.7" class="st12" width="27.1" height="13"/>
		</g>
		
			<rect x="1151.9" y="-1035.9" transform="matrix(-4.463559e-11 1 -1 -4.463559e-11 125.4275 -2191.3496)" class="st15" width="13" height="5.9"/>
		
			<rect x="1151.9" y="-974.2" transform="matrix(-4.533459e-11 1 -1 -4.533459e-11 187.1624 -2129.6147)" class="st15" width="13" height="5.9"/>
		
			<rect x="1151.9" y="-912.4" transform="matrix(-4.547492e-11 1 -1 -4.547492e-11 248.8968 -2067.8804)" class="st15" width="13" height="5.9"/>
		
			<rect x="1151.9" y="-850.7" transform="matrix(-4.463559e-11 1 -1 -4.463559e-11 310.6311 -2006.146)" class="st15" width="13" height="5.9"/>
		
			<rect x="1151.9" y="-789" transform="matrix(-4.449526e-11 1 -1 -4.449526e-11 372.3657 -1944.4115)" class="st15" width="13" height="5.9"/>
		
			<rect x="1151.9" y="-727.2" transform="matrix(-4.463559e-11 1 -1 -4.463559e-11 434.1002 -1882.6769)" class="st15" width="13" height="5.9"/>
	</g>
	<g id="ITINERANTS" class="st1">
		<g>
			<rect x="1304.9" y="-897.7" class="st12" width="13" height="224.2"/>
		</g>
		<g>
			<polygon class="st12" points="1303.1,-936.5 1314.6,-942.6 1380.3,-818.1 1380.3,-691.8 1367.3,-691.8 1367.3,-814.8 			"/>
		</g>
		<g>
			<polygon class="st12" points="1237.4,-631.8 1237.4,-818.1 1303.1,-942.6 1314.6,-936.5 1250.4,-814.8 1250.4,-631.8 			"/>
		</g>
		<text transform="matrix(1 0 0 1 1290.1875 -609.3994)"><tspan x="0" y="0" class="st25 st19 st26">personnel</tspan><tspan x="8.4" y="25" class="st25 st19 st26">itinérant</tspan></text>
		<path class="st14" d="M1304.9-897.7v23.9c2.1,0.2,4.3,0.3,6.5,0.3c2.2,0,4.4-0.1,6.5-0.3v-23.9H1304.9z"/>
		<path class="st14" d="M1303.1-936.5l31.2,59.1c4.1-1.5,8.1-3.4,11.8-5.6l-31.4-59.6L1303.1-936.5z"/>
		<path class="st14" d="M1303.1-942.6l-30.1,57.1c3.5,2.5,7.3,4.6,11.3,6.4l30.3-57.4L1303.1-942.6z"/>
		<g id="devices_x5F_teletravail">
			<path id="mobile" class="st13" d="M1319.9-673.5h-17.2c-2,0-3.7,1.7-3.7,3.7v32c0,2,1.7,3.7,3.7,3.7h17.2c2,0,3.7-1.7,3.7-3.7
				v-32C1323.6-671.8,1322-673.5,1319.9-673.5z M1311.3-636.6c-1.4,0-2.5-1.1-2.5-2.5s1.1-2.5,2.5-2.5c1.4,0,2.5,1.1,2.5,2.5
				S1312.7-636.6,1311.3-636.6z M1319.9-644.9c0,0.5-0.4,0.9-0.9,0.9h-15.4c-0.5,0-0.9-0.4-0.9-0.9v-24c0-0.5,0.4-0.9,0.9-0.9h15.4
				c0.5,0,0.9,0.4,0.9,0.9V-644.9z"/>
			<path id="portable_7_" class="st13" d="M1269.7-598.5h-20.6c-0.1,1.7-1.2,2.7-2.8,2.7h-5.2c-1.6,0-2.8-1.5-2.8-2.7h-20.3
				c-0.7,0-1.4,0.6-1.4,1.4v1.4c0,3,2.4,5.4,5.4,5.4h43.4c3,0,5.4-2.4,5.4-5.4v-1.4C1271.1-597.9,1270.5-598.5,1269.7-598.5z
				 M1265.7-629.7c0-2.2-1.8-4.1-4.1-4.1h-35.3c-2.2,0-4.1,1.8-4.1,4.1v28.5h43.4V-629.7z M1260.2-606.7h-32.6v-21.7h32.6V-606.7z"
				/>
			<path id="tablette_1_" class="st13" d="M1394.4-660.8v-27.7c0-2.1-1.7-3.8-3.8-3.8h-32.8c-2.1,0-3.8,1.7-3.8,3.8v27.7
				c0,2.1,1.7,3.8,3.8,3.8h32.8C1392.7-657,1394.4-658.7,1394.4-660.8z M1356.6-674.7c0-1.4,1.1-2.5,2.5-2.5c1.4,0,2.5,1.1,2.5,2.5
				c0,1.4-1.1,2.5-2.5,2.5C1357.8-672.1,1356.6-673.3,1356.6-674.7z M1365.1-660.8c-0.5,0-0.9-0.4-0.9-0.9v-25.8
				c0-0.5,0.4-0.9,0.9-0.9h24.6c0.5,0,0.9,0.4,0.9,0.9v25.8c0,0.5-0.4,0.9-0.9,0.9H1365.1z"/>
		</g>
		<rect x="1237.4" y="-639.7" class="st15" width="13" height="5.9"/>
		<rect x="1304.9" y="-679.3" class="st15" width="13" height="5.9"/>
		<rect x="1367.3" y="-698.2" class="st15" width="13" height="5.9"/>
	</g>
	<g id="TELETRAVAIL" class="st1">
		<text transform="matrix(1 0 0 1 1425.5804 -798.791)"><tspan x="0" y="0" class="st25 st19 st26">personnel</tspan><tspan x="-16.1" y="25" class="st25 st19 st26">en télétravail</tspan></text>
		<g>
			<polygon class="st12" points="1459.3,-863.3 1459.3,-850.3 1400.8,-850.3 1311.5,-926.7 1320,-936.6 1405.6,-863.3 			"/>
		</g>
		<g>
			<polygon class="st12" points="1459.3,-1027.6 1459.3,-1014.6 1405.6,-1014.6 1320,-941.3 1311.5,-951.2 1400.8,-1027.6 			"/>
		</g>
		<g>
			<rect x="1343.3" y="-946.3" class="st12" width="116.1" height="13"/>
		</g>
		<path class="st14" d="M1354.3-890.1c3.2-2.9,6.2-6.1,8.9-9.5l-43.2-36.9l-8.4,9.9L1354.3-890.1z"/>
		<path class="st14" d="M1320-941.3l44.6-38.1c-2.5-3.5-5.4-6.8-8.5-9.8l-44.5,38.1L1320-941.3z"/>
		<path class="st14" d="M1376.6-933.3c0.3-2.4,0.4-4.8,0.4-7.3c0-1.9-0.1-3.8-0.3-5.7h-33.4v13H1376.6z"/>
		
			<rect x="1449.8" y="-859.8" transform="matrix(6.123234e-17 -1 1 6.123234e-17 2313.1279 599.4616)" class="st15" width="13" height="5.9"/>
		
			<rect x="1449.8" y="-942.7" transform="matrix(6.123234e-17 -1 1 6.123234e-17 2396.0596 516.53)" class="st15" width="13" height="5.9"/>
		
			<rect x="1449.8" y="-1024" transform="matrix(6.123234e-17 -1 1 6.123234e-17 2477.3076 435.282)" class="st15" width="13" height="5.9"/>
		<g id="portables_x5F_teletravail_1_">
			<path id="portable_6_" class="st13" d="M1506.7-1003.8h-20.6c-0.1,1.7-1.2,2.7-2.8,2.7h-5.2c-1.6,0-2.8-1.5-2.8-2.7h-20.3
				c-0.7,0-1.4,0.6-1.4,1.4v1.4c0,3,2.4,5.4,5.4,5.4h43.4c3,0,5.4-2.4,5.4-5.4v-1.4C1508-1003.2,1507.4-1003.8,1506.7-1003.8z
				 M1502.6-1035.1c0-2.2-1.8-4.1-4.1-4.1h-35.3c-2.2,0-4.1,1.8-4.1,4.1v28.5h43.4V-1035.1z M1497.2-1012h-32.6v-21.7h32.6V-1012z"
				/>
			<path id="portable_5_" class="st13" d="M1506.7-922.1h-20.6c-0.1,1.7-1.2,2.7-2.8,2.7h-5.2c-1.6,0-2.8-1.5-2.8-2.7h-20.3
				c-0.7,0-1.4,0.6-1.4,1.4v1.4c0,3,2.4,5.4,5.4,5.4h43.4c3,0,5.4-2.4,5.4-5.4v-1.4C1508-921.5,1507.4-922.1,1506.7-922.1z
				 M1502.6-953.3c0-2.2-1.8-4.1-4.1-4.1h-35.3c-2.2,0-4.1,1.8-4.1,4.1v28.5h43.4V-953.3z M1497.2-930.2h-32.6v-21.7h32.6V-930.2z"
				/>
			<path id="portable_4_" class="st13" d="M1506.7-840.1h-20.6c-0.1,1.7-1.2,2.7-2.8,2.7h-5.2c-1.6,0-2.8-1.5-2.8-2.7h-20.3
				c-0.7,0-1.4,0.6-1.4,1.4v1.4c0,3,2.4,5.4,5.4,5.4h43.4c3,0,5.4-2.4,5.4-5.4v-1.4C1508-839.5,1507.4-840.1,1506.7-840.1z
				 M1502.6-871.3c0-2.2-1.8-4.1-4.1-4.1h-35.3c-2.2,0-4.1,1.8-4.1,4.1v28.5h43.4V-871.3z M1497.2-848.2h-32.6V-870h32.6V-848.2z"/>
		</g>
	</g>
	<g id="INTERNET_1_" class="st1">
		<rect x="1299.2" y="-1060.7" class="st11" width="25.7" height="98.4"/>
		<path class="st14" d="M1311.9-1006.7c-4.4,0-8.7,0.5-12.9,1.6v17.7h25.7v-17.7C1320.6-1006.1,1316.3-1006.7,1311.9-1006.7z"/>
		<path class="st14" d="M1299.2-1060.7v11.7c4.1,1.2,8.4,1.9,12.9,1.9c4.5,0,8.8-0.7,12.9-1.9v-11.7H1299.2z"/>
		<g>
			<circle class="st11" cx="1312.1" cy="-940" r="59.5"/>
		</g>
		<path class="st16" d="M1328.9-958.3c-2.8-17-9.3-28.9-16.9-28.9s-14.1,11.9-16.9,28.9H1328.9z M1293.8-940c0,4.2,0.2,8.3,0.6,12.2
			h35.3c0.4-3.9,0.6-8,0.6-12.2c0-4.2-0.2-8.3-0.6-12.2h-35.3C1294-948.3,1293.8-944.2,1293.8-940z M1355.6-958.3
			c-5.4-12.9-16.5-22.9-30.1-27c4.6,6.4,7.8,16.1,9.5,27H1355.6z M1298.6-985.2c-13.6,4-24.6,14-30.1,27h20.6
			C1290.7-969.1,1293.9-978.8,1298.6-985.2L1298.6-985.2z M1357.7-952.2h-21.8c0.4,4,0.6,8.1,0.6,12.2s-0.2,8.2-0.6,12.2h21.8
			c1-3.9,1.6-8,1.6-12.2C1359.3-944.2,1358.7-948.3,1357.7-952.2L1357.7-952.2z M1287.7-940c0-4.1,0.2-8.2,0.6-12.2h-21.8
			c-1,3.9-1.6,8-1.6,12.2c0,4.2,0.6,8.3,1.6,12.2h21.8C1287.9-931.8,1287.7-935.9,1287.7-940z M1295.2-921.7
			c2.8,17,9.3,28.9,16.9,28.9s14.1-11.9,16.9-28.9H1295.2z M1325.6-894.7c13.6-4,24.6-14,30.1-27h-20.6
			C1333.4-910.8,1330.2-901.2,1325.6-894.7z M1268.5-921.7c5.4,12.9,16.5,22.9,30.1,27c-4.6-6.4-7.8-16.1-9.5-27H1268.5z"/>
		<text transform="matrix(1 0 0 1 1268.2263 -932.6166)" class="st7 st19 st27">Internet</text>
	</g>
	<g id="ACCES_x5F_SECURISE_2_" class="st1">
		<rect x="1299.2" y="-1178.9" class="st6" width="25.7" height="57"/>
		<g id="acces_x5F_securise">
			<g>
				<g>
					<circle class="st6" cx="1312.1" cy="-1092.3" r="38.9"/>
				</g>
			</g>
			<text transform="matrix(1 0 0 1 1288.0063 -1098.3741)"><tspan x="0" y="0" class="st7 st19 st28">Accès</tspan><tspan x="-9.5" y="21" class="st7 st19 st28">sécurisé</tspan></text>
		</g>
		<g id="cadenas_2_">
			<circle class="st6" cx="1355.2" cy="-1058.1" r="22.5"/>
			<path id="picto_x5F_cadenas" class="st7" d="M1362.6-1061.7C1362.6-1061.7,1362.6-1061.7,1362.6-1061.7l0-4.6
				c0-1.4-0.9-3.2-2-4.1c-5.9-4.5-12.4-0.3-12.4,5.3v3.4c0,0,0,0,0,0h-3.4v13.6h21.2v-13.6H1362.6z M1358.8-1061.7h-6.8v-4.5
				c0-0.3,0.1-0.7,0.4-0.9c2.9-2.9,6.5-0.9,6.5,2V-1061.7z"/>
		</g>
	</g>
	<g id="DATA_x5F_CENTER_3_" class="st1">
		<path class="st2" d="M358.8-1124.6H70.5c-21.9,0-39.6-17.8-39.6-39.6v-504.5c0-21.9,17.7-39.6,39.6-39.6h288.4
			c21.9,0,39.6,17.7,39.6,39.6v504.5C398.5-1142.4,380.7-1124.6,358.8-1124.6z"/>
		<text transform="matrix(1 0 0 1 62.9013 -1716.3641)" class="st18 st19 st20">Data center</text>
	</g>
	<g id="ombre_x5F_interenet_2_" class="st10">
		<circle class="st11" cx="562.7" cy="-1410" r="80.5"/>
	</g>
	<circle id="ombre_x5F_acces_x5F_securise_3_" class="st9" cx="398.1" cy="-1410" r="51.5"/>
	<g id="VOTRE_x5F_SERVEUR_3_" class="st1">
		
			<rect x="334.8" y="-1438.3" transform="matrix(6.123234e-17 -1 1 6.123234e-17 1763.7686 -1056.2886)" class="st5" width="37.9" height="56.5"/>
		<g class="st3">
			<path class="st4" d="M305.5-1180H84.2c-5.5,0-10-4.5-10-10v-442.6c0-5.5,4.5-10,10-10h221.3c5.5,0,10,4.5,10,10v442.6
				C315.5-1184.5,311-1180,305.5-1180z"/>
		</g>
		<g>
			<path class="st6" d="M305.5-1180H84.2c-5.5,0-10-4.5-10-10v-442.6c0-5.5,4.5-10,10-10h221.3c5.5,0,10,4.5,10,10v442.6
				C315.5-1184.5,311-1180,305.5-1180z"/>
		</g>
		<text transform="matrix(1 0 0 1 78.0909 -1659.11)" class="st6 st19 st22">Votre serveur</text>
		<g id="bloc_x5F_messagerie_3_">
			<path class="st7" d="M182.4-1528.6H95c-2.8,0-5-2.2-5-5v-87.4c0-2.8,2.2-5,5-5h87.4c2.8,0,5,2.2,5,5v87.4
				C187.4-1530.9,185.1-1528.6,182.4-1528.6z"/>
			<path id="Tracé_2740_2_" class="st8" d="M149.9-1563.5c0.1-0.1,0.3-0.1,0.4,0.1c0,0,0.1,0.1,0.1,0.2v9.3c0,1.2-1,2.2-2.2,2.2
				h-19c-1.2,0-2.2-1-2.2-2.2v-9.3c0-0.2,0.1-0.3,0.3-0.3c0.1,0,0.1,0,0.2,0.1c1,0.8,2.4,1.8,7,5.2c1,0.7,2.6,2.2,4.2,2.2
				c1.6,0,3.3-1.5,4.2-2.2C147.6-1561.7,148.9-1562.7,149.9-1563.5z M138.7-1557.6c1.1,0,2.6-1.3,3.3-1.9c6-4.4,6.5-4.8,7.9-5.9
				c0.3-0.2,0.4-0.5,0.4-0.9v-0.9c0-1.2-1-2.2-2.2-2.2h-19c-1.2,0-2.2,1-2.2,2.2v0.9c0,0.3,0.2,0.7,0.4,0.9c1.4,1.1,1.9,1.5,7.9,5.9
				C136.1-1558.9,137.6-1557.6,138.7-1557.6L138.7-1557.6z"/>
			<text transform="matrix(1 0 0 1 101.9483 -1597.9464)"><tspan x="0" y="0" class="st8 st23 st24">Messagerie</tspan><tspan x="-5.9" y="12" class="st8 st23 st24">collaborative</tspan></text>
		</g>
		<g id="bloc_x5F_etc_3_">
			<path class="st7" d="M294.2-1194.9h-87.4c-2.8,0-5-2.2-5-5v-87.4c0-2.8,2.2-5,5-5h87.4c2.8,0,5,2.2,5,5v87.4
				C299.2-1197.1,296.9-1194.9,294.2-1194.9z"/>
			<path class="st8" d="M254.6-1242.9c0,2.3-1.8,4.1-4.1,4.1c-2.3,0-4.1-1.8-4.1-4.1c0-2.3,1.8-4.1,4.1-4.1
				C252.8-1247,254.6-1245.2,254.6-1242.9z M260.5-1247c-2.3,0-4.1,1.8-4.1,4.1c0,2.3,1.8,4.1,4.1,4.1c2.3,0,4.1-1.8,4.1-4.1
				C264.6-1245.2,262.7-1247,260.5-1247z M240.5-1247c-2.3,0-4.1,1.8-4.1,4.1c0,2.3,1.8,4.1,4.1,4.1c2.3,0,4.1-1.8,4.1-4.1
				C244.6-1245.2,242.8-1247,240.5-1247z"/>
		</g>
		<g id="bloc_x5F_echange_2_">
			<path class="st7" d="M182.4-1306.1H95c-2.8,0-5-2.2-5-5v-87.4c0-2.8,2.2-5,5-5h87.4c2.8,0,5,2.2,5,5v87.4
				C187.4-1308.4,185.1-1306.1,182.4-1306.1z"/>
			<text transform="matrix(1 0 0 1 100.6886 -1375.4501)"><tspan x="0" y="0" class="st8 st23 st24">Echange de</tspan><tspan x="-7.7" y="12" class="st8 st23 st24">fichiers lourds</tspan></text>
			<path class="st8" d="M140.5-1348.5v-7.4H137v1.8h-1.8v-1.8h-5.7c-0.7,0-1.3,0.6-1.3,1.3v25.4c0,0.7,0.6,1.3,1.3,1.3h18.4
				c0.7,0,1.3-0.6,1.3-1.3v-17.9h-7.4C141-1347.2,140.5-1347.8,140.5-1348.5z M133.4-1354.2h1.8v1.8h-1.8V-1354.2z M135.2-1333.2
				c-1.8,0-3.2-1.7-2.8-3.4l1.1-5.3v-1.8h1.8v-1.8h-1.8v-1.8h1.8v-1.8h-1.8v-1.8h1.8v-1.8h1.8v1.8h-1.8v1.8h1.8v1.8h-1.8v1.8h1.8
				v1.8h-1.8v1.8h1.2c0.3,0,0.6,0.2,0.6,0.5l0.9,4.8C138.4-1334.8,137-1333.2,135.2-1333.2L135.2-1333.2z M137-1336.1
				c0,0.8-0.8,1.5-1.8,1.5s-1.8-0.7-1.8-1.5c0-0.8,0.8-1.5,1.8-1.5S137-1336.9,137-1336.1z M149.2-1349.3v0.3h-7v-7h0.3
				c0.4,0,0.7,0.1,0.9,0.4l5.4,5.4C149.1-1350,149.2-1349.6,149.2-1349.3z"/>
		</g>
		<g id="bloc_x5F_CRM_3_">
			<path class="st7" d="M182.4-1417.4H95c-2.8,0-5-2.2-5-5v-87.4c0-2.8,2.2-5,5-5h87.4c2.8,0,5,2.2,5,5v87.4
				C187.4-1419.6,185.1-1417.4,182.4-1417.4z"/>
			<text transform="matrix(1 0 0 1 123.8409 -1486.6982)" class="st8 st23 st24">CRM</text>
			<path class="st8" d="M126.5-1459.4c1.9,0,3.5-1.6,3.5-3.5c0-1.9-1.6-3.5-3.5-3.5c-1.9,0-3.5,1.6-3.5,3.5
				C123-1461,124.6-1459.4,126.5-1459.4z M150.9-1459.4c1.9,0,3.5-1.6,3.5-3.5c0-1.9-1.6-3.5-3.5-3.5c-1.9,0-3.5,1.6-3.5,3.5
				C147.4-1461,149-1459.4,150.9-1459.4z M152.6-1457.7h-3.5c-1,0-1.8,0.4-2.5,1c2.2,1.2,3.8,3.4,4.1,6h3.6c1,0,1.7-0.8,1.7-1.7
				v-1.7C156.1-1456.1,154.6-1457.7,152.6-1457.7z M138.7-1457.7c3.4,0,6.1-2.7,6.1-6.1s-2.7-6.1-6.1-6.1s-6.1,2.7-6.1,6.1
				S135.3-1457.7,138.7-1457.7z M142.9-1455.9h-0.5c-1.1,0.5-2.4,0.9-3.7,0.9c-1.3,0-2.6-0.3-3.7-0.9h-0.5c-3.5,0-6.3,2.8-6.3,6.3
				v1.6c0,1.4,1.2,2.6,2.6,2.6h15.7c1.4,0,2.6-1.2,2.6-2.6v-1.6C149.2-1453.1,146.4-1455.9,142.9-1455.9z M130.7-1456.7
				c-0.6-0.6-1.5-1-2.5-1h-3.5c-1.9,0-3.5,1.6-3.5,3.5v1.7c0,1,0.8,1.7,1.7,1.7h3.6C126.9-1453.3,128.5-1455.5,130.7-1456.7
				L130.7-1456.7z"/>
		</g>
		<g id="bloc_x5F_office_3_">
			<path class="st7" d="M294.2-1417.4h-87.4c-2.8,0-5-2.2-5-5v-87.4c0-2.8,2.2-5,5-5h87.4c2.8,0,5,2.2,5,5v87.4
				C299.2-1419.6,296.9-1417.4,294.2-1417.4z"/>
			<text transform="matrix(1 0 0 1 214.8275 -1486.6982)" class="st8 st23 st24">Pack Office</text>
			<path id="EXCEL_x5F_picto_2_" class="st8" d="M274.4-1458.5v-5.9h-8.7c-0.6,0-1,0.5-1,1v20.2c0,0.6,0.5,1,1,1h14.6
				c0.6,0,1-0.5,1-1v-14.3h-5.9C274.9-1457.5,274.4-1457.9,274.4-1458.5z M277-1453.9l-2.6,4.1l2.6,4.1c0.2,0.3,0,0.8-0.4,0.8H275
				c-0.2,0-0.4-0.1-0.5-0.3c-0.9-1.6-1.6-3-1.6-3c-0.3,0.6-0.4,0.9-1.6,3c-0.1,0.2-0.3,0.3-0.5,0.3h-1.5c-0.4,0-0.7-0.5-0.4-0.8
				l2.6-4.1l-2.6-4.1c-0.2-0.3,0-0.8,0.4-0.8h1.5c0.2,0,0.4,0.1,0.5,0.3c1.1,2.1,0.9,1.5,1.6,3c0,0,0.3-0.5,1.6-3
				c0.1-0.2,0.3-0.3,0.5-0.3h1.5C277-1454.7,277.2-1454.2,277-1453.9L277-1453.9z M281.4-1459.1v0.3h-5.6v-5.6h0.3
				c0.3,0,0.5,0.1,0.7,0.3l4.3,4.3C281.2-1459.7,281.4-1459.4,281.4-1459.1z"/>
			<path id="POWERPOINT_x5F_picto_2_" class="st8" d="M228.1-1452.6c0.4,0,0.7,0.1,0.9,0.4c0.4,0.5,0.4,1.4,0,1.9
				c-0.2,0.2-0.5,0.4-0.9,0.4h-1.2v-2.6H228.1z M236-1459.9l-4.3-4.3c-0.2-0.2-0.5-0.3-0.7-0.3h-0.3v5.6h5.6v-0.3
				C236.4-1459.4,236.2-1459.7,236-1459.9z M229.4-1458.5v-5.9h-8.7c-0.6,0-1,0.5-1,1v20.2c0,0.6,0.5,1,1,1h14.6c0.6,0,1-0.5,1-1
				v-14.3h-5.9C229.9-1457.5,229.4-1457.9,229.4-1458.5z M231.7-1451.3c0,3.9-3.9,3.4-4.8,3.4v2.5c0,0.3-0.2,0.5-0.5,0.5H225
				c-0.3,0-0.5-0.2-0.5-0.5v-8.7c0-0.3,0.2-0.5,0.5-0.5h3.5C230.5-1454.7,231.7-1453.2,231.7-1451.3z"/>
			<path id="WORD_x5F_picto_2_" class="st8" d="M252.4-1460.2v-7.9h-11.6c-0.8,0-1.4,0.6-1.4,1.4v26.9c0,0.8,0.6,1.4,1.4,1.4h19.5
				c0.8,0,1.4-0.6,1.4-1.4v-19h-7.9C253-1458.9,252.4-1459.5,252.4-1460.2z M255.7-1453.3h1.4c0.4,0,0.8,0.4,0.7,0.9l-2.2,9.7
				c-0.1,0.3-0.4,0.5-0.7,0.5h-2.2c-0.3,0-0.6-0.2-0.7-0.5c-1.5-6-1.2-4.7-1.5-6.4h0c-0.1,0.8-0.1,1-1.5,6.4
				c-0.1,0.3-0.4,0.5-0.7,0.5h-2.2c-0.3,0-0.6-0.2-0.7-0.5l-2.2-9.7c-0.1-0.4,0.2-0.8,0.7-0.8h1.4c0.3,0,0.6,0.2,0.7,0.6
				c0.9,4.5,1.2,6.4,1.2,7.1c0.1-0.6,0.4-1.9,1.7-7.1c0.1-0.3,0.4-0.5,0.7-0.5h1.7c0.3,0,0.6,0.2,0.7,0.5c1.4,5.8,1.7,7.2,1.7,7.5
				c0-0.6-0.2-1,1.3-7.5C255.1-1453.1,255.3-1453.3,255.7-1453.3z M261.6-1461.1v0.4h-7.4v-7.4h0.4c0.4,0,0.7,0.1,1,0.4l5.7,5.7
				C261.5-1461.8,261.6-1461.4,261.6-1461.1z"/>
		</g>
		<g id="bloc_x5F_sauvegarde_3_">
			<path class="st7" d="M294.2-1306.1h-87.4c-2.8,0-5-2.2-5-5v-87.4c0-2.8,2.2-5,5-5h87.4c2.8,0,5,2.2,5,5v87.4
				C299.2-1308.4,296.9-1306.1,294.2-1306.1z"/>
			<text transform="matrix(1 0 0 1 212.0902 -1375.4501)"><tspan x="0" y="0" class="st8 st23 st24">Sauvegarde</tspan><tspan x="-1" y="12" class="st8 st23 st24">externalisée</tspan></text>
			<path class="st8" d="M261.4-1348.8l-4.3-4.3c-0.5-0.5-1.1-0.7-1.7-0.7h-13.8c-1.4,0-2.5,1.1-2.5,2.5v18.1c0,1.4,1.1,2.5,2.5,2.5
				h18.1c1.4,0,2.5-1.1,2.5-2.5v-13.8C262.2-1347.7,261.9-1348.4,261.4-1348.8L261.4-1348.8z M250.7-1334.2c-1.8,0-3.3-1.5-3.3-3.3
				c0-1.8,1.5-3.3,3.3-3.3s3.3,1.5,3.3,3.3C253.9-1335.6,252.5-1334.2,250.7-1334.2z M255.6-1349.8v5.2c0,0.3-0.3,0.6-0.6,0.6h-11.9
				c-0.3,0-0.6-0.3-0.6-0.6v-5.3c0-0.3,0.3-0.6,0.6-0.6h11.7c0.2,0,0.3,0.1,0.4,0.2l0.2,0.2C255.5-1350.1,255.6-1349.9,255.6-1349.8
				z"/>
		</g>
		<g id="bloc_x5F_donnees_3_">
			<path class="st7" d="M182.4-1194.9H95c-2.8,0-5-2.2-5-5v-87.4c0-2.8,2.2-5,5-5h87.4c2.8,0,5,2.2,5,5v87.4
				C187.4-1197.1,185.1-1194.9,182.4-1194.9z"/>
			<text transform="matrix(1 0 0 1 109.7335 -1264.2017)" class="st8 st23 st24">Données</text>
			<path class="st8" d="M150.5-1243.9v2.4c0,2.2-5.4,3.9-12,3.9c-6.6,0-12-1.8-12-3.9v-2.4c0-2.2,5.4-3.9,12-3.9
				C145.2-1247.8,150.5-1246.1,150.5-1243.9z M150.5-1238.4v5.5c0,2.2-5.4,3.9-12,3.9c-6.6,0-12-1.8-12-3.9v-5.5
				c2.6,1.8,7.3,2.6,12,2.6C143.2-1235.8,148-1236.6,150.5-1238.4z M150.5-1229.8v5.5c0,2.2-5.4,3.9-12,3.9c-6.6,0-12-1.8-12-3.9
				v-5.5c2.6,1.8,7.3,2.6,12,2.6C143.2-1227.2,148-1228.1,150.5-1229.8z"/>
		</g>
		<g id="bloc_x5F_logiciels_3_">
			<path class="st7" d="M294.2-1528.6h-87.4c-2.8,0-5-2.2-5-5v-87.4c0-2.8,2.2-5,5-5h87.4c2.8,0,5,2.2,5,5v87.4
				C299.2-1530.9,296.9-1528.6,294.2-1528.6z"/>
			<text transform="matrix(1 0 0 1 222.0804 -1597.9464)"><tspan x="0" y="0" class="st8 st23 st24">Logiciels</tspan><tspan x="4.1" y="12" class="st8 st23 st24">métiers</tspan></text>
			<path class="st8" d="M264.6-1556h-25.3v-17.8c0-0.5-0.4-0.9-0.9-0.9h-1.9c-0.5,0-0.9,0.4-0.9,0.9v19.7c0,1,0.8,1.9,1.9,1.9h27.2
				c0.5,0,0.9-0.4,0.9-0.9v-1.9C265.5-1555.6,265.1-1556,264.6-1556z M262.7-1572.9h-6.9c-1.3,0-1.9,1.5-1,2.4l1.9,1.9l-4.3,4.3
				l-4.3-4.3c-0.7-0.7-1.9-0.7-2.7,0l-4,4c-0.4,0.4-0.4,1,0,1.3l1.3,1.3c0.4,0.4,1,0.4,1.3,0l2.7-2.7l4.3,4.3c0.7,0.7,1.9,0.7,2.7,0
				l5.6-5.6l1.9,1.9c0.9,0.9,2.4,0.3,2.4-1v-6.9C263.6-1572.5,263.2-1572.9,262.7-1572.9z"/>
		</g>
		<g id="CLOUD_x5F_picto_2_">
			<path class="st6" d="M299.5-1671.3c0,0,5.6-16.6,23.3-16.6s22.6,17.7,22.6,17.7s19.2,0.7,19.2,20.3c0,17.7-18.6,19.4-19.4,19.4
				c-0.8,0-23.4,0.2-24.6,0.2c-1.2,0-2.4-1.2-2.4-2.6c0-1.4,0-13.5,0-15.6c0-1.4-1.6-3.7-3.5-3.7c-1,0-6.8,0-7.9,0
				c-1,0-2.4-0.5-2.4-2.8c0-2.3,0-8.5,0-11.9C304.4-1670.3,300.8-1671.3,299.5-1671.3z"/>
			<path class="st6" d="M306.6-1630.5c0,0,3.1,0,5.4,0s3.5-1.2,3.5-3c0-1.7,0-12.6,0-13.5c0-0.9-0.9-2.4-2.5-2.4c-1.6,0-5.7,0-5.7,0
				h-2.4c0,0-4.2,0-5.7,0c-1.6,0-2.4,1.6-2.4,2.4c0,0.9,0,11.7,0,13.5c0,1.7,1.2,3,3.5,3c2.3,0,5.4,0,5.4,0H306.6z"/>
			<path class="st6" d="M280.8-1630.5c0,0,1.8,0,3.1,0c1.3,0,2-0.7,2-1.7c0-1,0-7.3,0-7.8c0-0.5-0.5-1.4-1.4-1.4c-0.9,0-3.3,0-3.3,0
				h-1.4c0,0-2.4,0-3.3,0c-0.9,0-1.4,0.9-1.4,1.4c0,0.5,0,6.8,0,7.8c0,1,0.7,1.7,2,1.7c1.3,0,3.1,0,3.1,0H280.8z"/>
			<path class="st6" d="M294-1652.2c0,0,2.6,0,4.6,0c1.9,0,3-1,3-2.5s0-10.7,0-11.4c0-0.7-0.7-2.1-2.1-2.1c-1.3,0-4.9,0-4.9,0h-2
				c0,0-3.5,0-4.9,0c-1.3,0-2.1,1.3-2.1,2.1c0,0.7,0,9.9,0,11.4s1,2.5,3,2.5c1.9,0,4.6,0,4.6,0H294z"/>
			<path class="st6" d="M276.9-1644.4c0,0,2.2,0,3.8,0c1.6,0,2.5-0.9,2.5-2.1c0-1.2,0-8.9,0-9.5c0-0.6-0.6-1.7-1.7-1.7
				c-1.1,0-4,0-4,0h-1.7c0,0-2.9,0-4,0s-1.7,1.1-1.7,1.7c0,0.6,0,8.2,0,9.5c0,1.2,0.9,2.1,2.5,2.1c1.6,0,3.8,0,3.8,0H276.9z"/>
			<path class="st6" d="M279.8-1660.6c0,0,1.2,0,2,0c0.9,0,1.3-0.5,1.3-1.1c0-0.7,0-4.7,0-5.1c0-0.3-0.3-0.9-0.9-0.9s-2.2,0-2.2,0
				h-0.9c0,0-1.6,0-2.2,0c-0.6,0-0.9,0.6-0.9,0.9c0,0.3,0,4.4,0,5.1c0,0.7,0.5,1.1,1.3,1.1c0.9,0,2,0,2,0H279.8z"/>
			<path class="st6" d="M269.5-1634.3c0,0,1.2,0,2,0c0.9,0,1.3-0.5,1.3-1.1c0-0.7,0-4.7,0-5.1c0-0.3-0.3-0.9-0.9-0.9
				c-0.6,0-2.2,0-2.2,0h-0.9c0,0-1.6,0-2.2,0c-0.6,0-0.9,0.6-0.9,0.9c0,0.3,0,4.4,0,5.1c0,0.7,0.5,1.1,1.3,1.1c0.9,0,2,0,2,0
				L269.5-1634.3L269.5-1634.3z"/>
			<path class="st6" d="M290.2-1641.3c0,0,1.3,0,2.3,0c1,0,1.5-0.5,1.5-1.3c0-0.8,0-5.4,0-5.8c0-0.4-0.4-1.1-1.1-1.1
				c-0.7,0-2.5,0-2.5,0h-1c0,0-1.8,0-2.5,0c-0.7,0-1.1,0.7-1.1,1.1c0,0.4,0,5.1,0,5.8c0,0.8,0.5,1.3,1.5,1.3c1,0,2.3,0,2.3,0H290.2z
				"/>
			<path class="st6" d="M291.6-1634c0,0,0.9,0,1.5,0c0.6,0,1-0.3,1-0.8s0-3.5,0-3.7c0-0.2-0.2-0.7-0.7-0.7c-0.4,0-1.6,0-1.6,0h-0.7
				c0,0-1.1,0-1.6,0c-0.4,0-0.7,0.4-0.7,0.7s0,3.2,0,3.7s0.3,0.8,1,0.8c0.6,0,1.5,0,1.5,0H291.6z"/>
		</g>
	</g>
	<g id="SITES_x5F_PRODUCTION_2_" class="st1">
		<g>
			<rect x="557.4" y="-1554.3" class="st12" width="13" height="104.5"/>
		</g>
		<path class="st14" d="M570.4-1476.9c-2.5-0.3-5.1-0.5-7.7-0.5c-1.8,0-3.5,0.1-5.3,0.2v27.4h13V-1476.9z"/>
		<text transform="matrix(1 0 0 1 622.0486 -1644.7059)" class="st25 st19 st26">sites de production</text>
		<g id="PC_x5F_fixes_2_">
			<path class="st13" d="M678.5-1629.6h-45.2c-2.5,0-4.5,2-4.5,4.5v30.1c0,2.5,2,4.5,4.5,4.5h18.1l-1.5,4.5h-6.8
				c-1.3,0-2.3,1-2.3,2.3s1,2.3,2.3,2.3h25.6c1.3,0,2.3-1,2.3-2.3s-1-2.3-2.3-2.3h-6.8l-1.5-4.5h18.1c2.5,0,4.5-2,4.5-4.5v-30.1
				C683-1627.5,681-1629.6,678.5-1629.6z M677-1596.4h-42.2v-27.1H677V-1596.4z"/>
			<path class="st13" d="M493.3-1629.6h-45.2c-2.5,0-4.5,2-4.5,4.5v30.1c0,2.5,2,4.5,4.5,4.5h18.1l-1.5,4.5h-6.8
				c-1.3,0-2.3,1-2.3,2.3s1,2.3,2.3,2.3h25.6c1.3,0,2.3-1,2.3-2.3s-1-2.3-2.3-2.3h-6.8l-1.5-4.5h18.1c2.5,0,4.5-2,4.5-4.5v-30.1
				C497.8-1627.5,495.8-1629.6,493.3-1629.6z M491.8-1596.4h-42.2v-27.1h42.2V-1596.4z"/>
			<path class="st13" d="M740.2-1629.6H695c-2.5,0-4.5,2-4.5,4.5v30.1c0,2.5,2,4.5,4.5,4.5h18.1l-1.5,4.5h-6.8c-1.3,0-2.3,1-2.3,2.3
				s1,2.3,2.3,2.3h25.6c1.3,0,2.3-1,2.3-2.3s-1-2.3-2.3-2.3h-6.8l-1.5-4.5h18.1c2.5,0,4.5-2,4.5-4.5v-30.1
				C744.8-1627.5,742.7-1629.6,740.2-1629.6z M738.7-1596.4h-42.2v-27.1h42.2V-1596.4z"/>
			<path class="st13" d="M555-1629.6h-45.2c-2.5,0-4.5,2-4.5,4.5v30.1c0,2.5,2,4.5,4.5,4.5h18.1l-1.5,4.5h-6.8c-1.3,0-2.3,1-2.3,2.3
				s1,2.3,2.3,2.3h25.6c1.3,0,2.3-1,2.3-2.3s-1-2.3-2.3-2.3h-6.8l-1.5-4.5H555c2.5,0,4.5-2,4.5-4.5v-30.1
				C559.6-1627.5,557.5-1629.6,555-1629.6z M553.5-1596.4h-42.2v-27.1h42.2V-1596.4z"/>
			<path class="st13" d="M802-1629.6h-45.2c-2.5,0-4.5,2-4.5,4.5v30.1c0,2.5,2,4.5,4.5,4.5h18.1l-1.5,4.5h-6.8c-1.3,0-2.3,1-2.3,2.3
				s1,2.3,2.3,2.3h25.6c1.3,0,2.3-1,2.3-2.3s-1-2.3-2.3-2.3h-6.8l-1.5-4.5H802c2.5,0,4.5-2,4.5-4.5v-30.1
				C806.5-1627.5,804.5-1629.6,802-1629.6z M800.5-1596.4h-42.2v-27.1h42.2V-1596.4z"/>
			<path class="st13" d="M616.8-1629.6h-45.2c-2.5,0-4.5,2-4.5,4.5v30.1c0,2.5,2,4.5,4.5,4.5h18.1l-1.5,4.5h-6.8
				c-1.3,0-2.3,1-2.3,2.3s1,2.3,2.3,2.3H607c1.3,0,2.3-1,2.3-2.3s-1-2.3-2.3-2.3h-6.8l-1.5-4.5h18.1c2.5,0,4.5-2,4.5-4.5v-30.1
				C621.3-1627.5,619.3-1629.6,616.8-1629.6z M615.3-1596.4h-42.2v-27.1h42.2V-1596.4z"/>
		</g>
		<g id="connexions_2_">
			<g>
				<polygon class="st12" points="785.9,-1547.8 464.2,-1547.8 464.2,-1581.3 477.2,-1581.3 477.2,-1560.8 772.9,-1560.8 
					772.9,-1581.3 785.9,-1581.3 				"/>
			</g>
			<g>
				<rect x="711.1" y="-1581.3" class="st12" width="13" height="27.1"/>
			</g>
			<g>
				<rect x="649.4" y="-1581.3" class="st12" width="13" height="27.1"/>
			</g>
			<g>
				<rect x="587.7" y="-1581.3" class="st12" width="13" height="27.1"/>
			</g>
			<g>
				<rect x="525.9" y="-1581.3" class="st12" width="13" height="27.1"/>
			</g>
			<rect x="464.2" y="-1581.3" class="st15" width="13" height="5.9"/>
			<rect x="525.9" y="-1581.3" class="st15" width="13" height="5.9"/>
			<rect x="587.7" y="-1581.3" class="st15" width="13" height="5.9"/>
			<rect x="649.4" y="-1581.3" class="st15" width="13" height="5.9"/>
			<rect x="711.1" y="-1581.3" class="st15" width="13" height="5.9"/>
			<rect x="772.9" y="-1581.3" class="st15" width="13" height="5.9"/>
		</g>
	</g>
	<g id="PERSONNEL_x5F_TELETRAVAIL_2_" class="st1">
		<text transform="matrix(1 0 0 1 447.1542 -1189.4513)" class="st25 st19 st26">personnel en télétravail</text>
		<g id="portables_x5F_teletravail_3_">
			<path id="portable_12_" class="st13" d="M587.7-1225h-20.6c-0.1,1.7-1.2,2.7-2.8,2.7h-5.2c-1.6,0-2.8-1.5-2.8-2.7h-20.3
				c-0.7,0-1.4,0.6-1.4,1.4v1.4c0,3,2.4,5.4,5.4,5.4h43.4c3,0,5.4-2.4,5.4-5.4v-1.4C589-1224.4,588.4-1225,587.7-1225z
				 M583.6-1256.2c0-2.2-1.8-4.1-4.1-4.1h-35.3c-2.2,0-4.1,1.8-4.1,4.1v28.5h43.4V-1256.2z M578.2-1233.1h-32.6v-21.7h32.6V-1233.1z
				"/>
			<path id="portable_3_" class="st13" d="M670.6-1225h-20.6c-0.1,1.7-1.2,2.7-2.8,2.7h-5.2c-1.6,0-2.8-1.5-2.8-2.7h-20.3
				c-0.7,0-1.4,0.6-1.4,1.4v1.4c0,3,2.4,5.4,5.4,5.4h43.4c3,0,5.4-2.4,5.4-5.4v-1.4C672-1224.4,671.4-1225,670.6-1225z
				 M666.5-1256.2c0-2.2-1.8-4.1-4.1-4.1h-35.3c-2.2,0-4.1,1.8-4.1,4.1v28.5h43.4V-1256.2z M661.1-1233.1h-32.6v-21.7h32.6V-1233.1z
				"/>
			<path id="portable_2_" class="st13" d="M504.8-1225h-20.6c-0.1,1.7-1.2,2.7-2.8,2.7h-5.2c-1.6,0-2.8-1.5-2.8-2.7h-20.3
				c-0.7,0-1.4,0.6-1.4,1.4v1.4c0,3,2.4,5.4,5.4,5.4h43.4c3,0,5.4-2.4,5.4-5.4v-1.4C506.1-1224.4,505.5-1225,504.8-1225z
				 M500.7-1256.2c0-2.2-1.8-4.1-4.1-4.1h-35.3c-2.2,0-4.1,1.8-4.1,4.1v28.5h43.4V-1256.2z M495.3-1233.1h-32.6v-21.7h32.6V-1233.1z
				"/>
		</g>
		<g>
			<polygon class="st12" points="485.5,-1260.3 472.5,-1260.3 472.5,-1318.8 548.8,-1408.1 558.7,-1399.7 485.5,-1314 			"/>
		</g>
		<g>
			<polygon class="st12" points="649.7,-1260.3 636.7,-1260.3 636.7,-1314 563.5,-1399.7 573.4,-1408.1 649.7,-1318.8 			"/>
		</g>
		<g>
			<rect x="555.4" y="-1376.3" class="st12" width="13" height="116.1"/>
		</g>
		<path class="st14" d="M512.3-1365.4c2.9,3.2,6.1,6.2,9.5,8.9l36.9-43.2l-9.9-8.4L512.3-1365.4z"/>
		<path class="st14" d="M563.5-1399.7l38.1,44.6c3.5-2.5,6.8-5.4,9.8-8.5l-38.1-44.5L563.5-1399.7z"/>
		<path class="st14" d="M555.4-1343.1c2.4,0.3,4.8,0.4,7.3,0.4c1.9,0,3.8-0.1,5.7-0.3v-33.4h-13V-1343.1z"/>
		<rect x="472.5" y="-1266.3" class="st15" width="13" height="5.9"/>
		<rect x="555.4" y="-1266.3" class="st15" width="13" height="5.9"/>
		<rect x="636.7" y="-1266.3" class="st15" width="13" height="5.9"/>
	</g>
	<g id="PERSONNEL_x5F_ITINERANT_2_" class="st1">
		<g>
			<rect x="605.8" y="-1416.5" class="st12" width="134.2" height="13"/>
		</g>
		<g>
			<polygon class="st12" points="566.9,-1401.7 560.9,-1413.2 685.4,-1478.9 811.7,-1478.9 811.7,-1465.9 688.6,-1465.9 			"/>
		</g>
		<g>
			<polygon class="st12" points="811.7,-1336 685.4,-1336 560.9,-1401.7 566.9,-1413.2 688.6,-1349 811.7,-1349 			"/>
		</g>
		<text transform="matrix(1 0 0 1 776.0099 -1414.9103)"><tspan x="0" y="0" class="st25 st19 st26">personnel</tspan><tspan x="8.4" y="25" class="st25 st19 st26">itinérant</tspan></text>
		<path class="st17" d="M734.9-1398.5"/>
		<path class="st14" d="M605.8-1403.5h23.9c0.2-2.1,0.3-4.3,0.3-6.5c0-2.2-0.1-4.4-0.3-6.5h-23.9V-1403.5z"/>
		<path class="st14" d="M566.9-1401.7l59.1-31.2c-1.5-4.1-3.4-8.1-5.6-11.8l-59.6,31.4L566.9-1401.7z"/>
		<path class="st14" d="M560.9-1401.7l57.1,30.1c2.5-3.5,4.6-7.3,6.4-11.3l-57.4-30.3L560.9-1401.7z"/>
		<g id="devices_x5F_itinerant_2_">
			<path id="mobile_1_" class="st13" d="M760.9-1429.6h-17.2c-2,0-3.7,1.7-3.7,3.7v32c0,2,1.7,3.7,3.7,3.7h17.2c2,0,3.7-1.7,3.7-3.7
				v-32C764.6-1427.9,762.9-1429.6,760.9-1429.6z M752.3-1392.7c-1.4,0-2.5-1.1-2.5-2.5c0-1.4,1.1-2.5,2.5-2.5s2.5,1.1,2.5,2.5
				C754.8-1393.8,753.7-1392.7,752.3-1392.7z M760.9-1401c0,0.5-0.4,0.9-0.9,0.9h-15.4c-0.5,0-0.9-0.4-0.9-0.9v-24
				c0-0.5,0.4-0.9,0.9-0.9H760c0.5,0,0.9,0.4,0.9,0.9V-1401z"/>
			<path id="portable_1_" class="st13" d="M857.1-1330.5h-20.6c-0.1,1.7-1.2,2.7-2.8,2.7h-5.2c-1.6,0-2.8-1.5-2.8-2.7h-20.3
				c-0.7,0-1.4,0.6-1.4,1.4v1.4c0,3,2.4,5.4,5.4,5.4H853c3,0,5.4-2.4,5.4-5.4v-1.4C858.5-1329.9,857.9-1330.5,857.1-1330.5z
				 M853-1361.8c0-2.2-1.8-4.1-4.1-4.1h-35.3c-2.2,0-4.1,1.8-4.1,4.1v28.5H853V-1361.8z M847.6-1338.7h-32.6v-21.7h32.6V-1338.7z"/>
			<path id="tablette_3_" class="st13" d="M851.5-1459v-27.7c0-2.1-1.7-3.8-3.8-3.8H815c-2.1,0-3.8,1.7-3.8,3.8v27.7
				c0,2.1,1.7,3.8,3.8,3.8h32.8C849.8-1455.2,851.5-1456.9,851.5-1459z M813.7-1472.9c0-1.4,1.1-2.5,2.5-2.5c1.4,0,2.5,1.1,2.5,2.5
				c0,1.4-1.1,2.5-2.5,2.5C814.8-1470.4,813.7-1471.5,813.7-1472.9z M822.2-1459c-0.5,0-0.9-0.4-0.9-0.9v-25.8
				c0-0.5,0.4-0.9,0.9-0.9h24.6c0.5,0,0.9,0.4,0.9,0.9v25.8c0,0.5-0.4,0.9-0.9,0.9H822.2z"/>
		</g>
		
			<rect x="800.2" y="-1345.5" transform="matrix(6.123234e-17 -1 1 6.123234e-17 2149.2124 -535.8374)" class="st15" width="13" height="5.9"/>
		
			<rect x="730.6" y="-1413" transform="matrix(6.123234e-17 -1 1 6.123234e-17 2147.1025 -672.9542)" class="st15" width="13" height="5.9"/>
		
			<rect x="801.7" y="-1475.3" transform="matrix(6.123234e-17 -1 1 6.123234e-17 2280.6343 -664.1539)" class="st15" width="13" height="5.9"/>
	</g>
	<g id="INTERNET_3_" class="st1">
		
			<rect x="466.1" y="-1459.2" transform="matrix(6.123234e-17 -1 1 6.123234e-17 1889.0132 -931.0439)" class="st11" width="25.7" height="98.4"/>
		<path class="st14" d="M429.8-1397.2h11.7c1.2-4.1,1.9-8.4,1.9-12.9c0-4.5-0.7-8.8-1.9-12.9h-11.7V-1397.2z"/>
		<path class="st14" d="M494.9-1410c0,4.4,0.5,8.7,1.6,12.9h17.7v-25.7h-17.7C495.4-1418.8,494.9-1414.5,494.9-1410z"/>
		<g>
			<circle class="st11" cx="562.7" cy="-1410" r="59.5"/>
		</g>
		<path class="st16" d="M579.5-1428.3c-2.8-17-9.3-28.9-16.9-28.9s-14.1,11.9-16.9,28.9H579.5z M544.4-1410c0,4.2,0.2,8.3,0.6,12.2
			h35.3c0.4-3.9,0.6-8,0.6-12.2s-0.2-8.3-0.6-12.2H545C544.6-1418.3,544.4-1414.3,544.4-1410z M606.2-1428.3
			c-5.4-12.9-16.5-22.9-30.1-27c4.6,6.4,7.8,16.1,9.5,27H606.2z M549.2-1455.3c-13.6,4-24.6,14-30.1,27h20.6
			C541.3-1439.1,544.5-1448.8,549.2-1455.3L549.2-1455.3z M608.3-1422.2h-21.8c0.4,4,0.6,8.1,0.6,12.2c0,4.1-0.2,8.2-0.6,12.2h21.8
			c1-3.9,1.6-8,1.6-12.2S609.3-1418.3,608.3-1422.2L608.3-1422.2z M538.3-1410c0-4.1,0.2-8.2,0.6-12.2h-21.8c-1,3.9-1.6,8-1.6,12.2
			s0.6,8.3,1.6,12.2h21.8C538.5-1401.8,538.3-1405.9,538.3-1410z M545.8-1391.7c2.8,17,9.3,28.9,16.9,28.9s14.1-11.9,16.9-28.9
			H545.8z M576.2-1364.8c13.6-4,24.6-14,30.1-27h-20.6C584-1380.9,580.8-1371.2,576.2-1364.8z M519.1-1391.7
			c5.4,12.9,16.5,22.9,30.1,27c-4.6-6.4-7.8-16.1-9.5-27H519.1z"/>
		<text transform="matrix(1 0 0 1 518.4634 -1402.6788)" class="st7 st19 st27">Internet</text>
	</g>
	<g id="ACCES_x5F_SECURISE_1_" class="st1">
		
			<rect x="327.1" y="-1438.5" transform="matrix(6.123234e-17 -1 1 6.123234e-17 1750.017 -1070.04)" class="st6" width="25.7" height="57"/>
		<g id="cadenas_1_">
			<circle class="st6" cx="429.8" cy="-1455.1" r="22.5"/>
			<path id="cadenas_5_" class="st7" d="M437.2-1458.7C437.2-1458.7,437.2-1458.7,437.2-1458.7l0-4.6c0-1.4-0.9-3.2-2-4.1
				c-5.9-4.5-12.4-0.3-12.4,5.3v3.4c0,0,0,0,0,0h-3.4v13.6h21.2v-13.6H437.2z M433.4-1458.7h-6.8v-4.5c0-0.3,0.1-0.7,0.4-0.9
				c2.9-2.9,6.5-0.9,6.5,2V-1458.7z"/>
		</g>
		<g id="ACCES_x5F_SECURISE_5_">
			<g>
				<circle class="st6" cx="398.1" cy="-1410" r="38.9"/>
			</g>
			<text transform="matrix(1 0 0 1 374.4258 -1415.9137)"><tspan x="0" y="0" class="st7 st19 st28">Accès</tspan><tspan x="-9.5" y="21" class="st7 st19 st28">sécurisé</tspan></text>
		</g>
	</g>
</g>
<g id="SCHEMA_x5F_mobile" class="st0">
	<g id="DATA_x5F_CENTER_4_" class="st1">
		<path class="st2" d="M1496.2,667.4h-368.4c-21.9,0-39.6-17.7-39.6-39.6V97.3c0-21.9,17.7-39.6,39.6-39.6h368.4
			c21.9,0,39.6,17.7,39.6,39.6v530.5C1535.9,649.6,1518.1,667.4,1496.2,667.4z"/>
		<text transform="matrix(1 0 0 1 1248.6842 50.357)" class="st18 st19 st20">Data center</text>
	</g>
	<g id="VOTRE_x5F_SERVEUR_4_" class="st1">
		<g class="st3">
			<path class="st4" d="M1422.7,589.9h-221.3c-5.5,0-10-4.5-10-10V137.4c0-5.5,4.5-10,10-10h221.3c5.5,0,10,4.5,10,10v442.6
				C1432.7,585.5,1428.2,589.9,1422.7,589.9z"/>
		</g>
		<rect x="1293.1" y="600" class="st5" width="37.9" height="50.3"/>
		<text transform="matrix(1 0 0 1 1223.067 111.8267)" class="st6 st19 st22">Votre serveur</text>
		<g>
			<path class="st6" d="M1422.7,589.9h-221.3c-5.5,0-10-4.5-10-10V137.4c0-5.5,4.5-10,10-10h221.3c5.5,0,10,4.5,10,10v442.6
				C1432.7,585.5,1428.2,589.9,1422.7,589.9z"/>
		</g>
		<g id="bloc_x5F_messagerie_4_">
			<path class="st7" d="M1299.6,241.3h-87.4c-2.8,0-5-2.2-5-5V149c0-2.8,2.2-5,5-5h87.4c2.8,0,5,2.2,5,5v87.4
				C1304.6,239.1,1302.4,241.3,1299.6,241.3z"/>
			<path id="Tracé_2740_3_" class="st8" d="M1267.1,206.5c0.1-0.1,0.3-0.1,0.4,0.1c0,0,0.1,0.1,0.1,0.2v9.3c0,1.2-1,2.2-2.2,2.2
				h-19c-1.2,0-2.2-1-2.2-2.2v-9.3c0-0.2,0.1-0.3,0.3-0.3c0.1,0,0.1,0,0.2,0.1c1,0.8,2.4,1.8,7,5.2c1,0.7,2.6,2.2,4.2,2.2
				c1.6,0,3.3-1.5,4.2-2.2C1264.8,208.3,1266.1,207.3,1267.1,206.5z M1255.9,212.4c1.1,0,2.6-1.3,3.3-1.9c6-4.4,6.5-4.8,7.9-5.9
				c0.3-0.2,0.4-0.5,0.4-0.9v-0.9c0-1.2-1-2.2-2.2-2.2h-19c-1.2,0-2.2,1-2.2,2.2v0.9c0,0.3,0.2,0.7,0.4,0.9c1.4,1.1,1.9,1.5,7.9,5.9
				C1253.3,211,1254.9,212.4,1255.9,212.4L1255.9,212.4z"/>
			<text transform="matrix(1 0 0 1 1219.1581 171.9903)"><tspan x="0" y="0" class="st8 st23 st24">Messagerie</tspan><tspan x="-5.9" y="12" class="st8 st23 st24">collaborative</tspan></text>
		</g>
		<g id="bloc_x5F_etc_4_">
			<path class="st7" d="M1411.4,575.1H1324c-2.8,0-5-2.2-5-5v-87.4c0-2.8,2.2-5,5-5h87.4c2.8,0,5,2.2,5,5v87.4
				C1416.4,572.8,1414.1,575.1,1411.4,575.1z"/>
			<path class="st8" d="M1371.8,527c0,2.3-1.8,4.1-4.1,4.1c-2.3,0-4.1-1.8-4.1-4.1c0-2.3,1.8-4.1,4.1-4.1
				C1370,522.9,1371.8,524.7,1371.8,527z M1377.7,522.9c-2.3,0-4.1,1.8-4.1,4.1c0,2.3,1.8,4.1,4.1,4.1c2.3,0,4.1-1.8,4.1-4.1
				C1381.8,524.7,1379.9,522.9,1377.7,522.9z M1357.7,522.9c-2.3,0-4.1,1.8-4.1,4.1c0,2.3,1.8,4.1,4.1,4.1c2.3,0,4.1-1.8,4.1-4.1
				C1361.8,524.7,1360,522.9,1357.7,522.9z"/>
		</g>
		<g id="bloc_x5F_echanges_1_">
			<path class="st7" d="M1299.6,463.8h-87.4c-2.8,0-5-2.2-5-5v-87.4c0-2.8,2.2-5,5-5h87.4c2.8,0,5,2.2,5,5v87.4
				C1304.6,461.6,1302.4,463.8,1299.6,463.8z"/>
			<text transform="matrix(1 0 0 1 1217.8983 394.4866)"><tspan x="0" y="0" class="st8 st23 st24">Echange de</tspan><tspan x="-7.7" y="12" class="st8 st23 st24">fichiers lourds</tspan></text>
			<path class="st8" d="M1257.7,421.4V414h-3.5v1.8h-1.8V414h-5.7c-0.7,0-1.3,0.6-1.3,1.3v25.4c0,0.7,0.6,1.3,1.3,1.3h18.4
				c0.7,0,1.3-0.6,1.3-1.3v-17.9h-7.4C1258.3,422.7,1257.7,422.1,1257.7,421.4z M1250.7,415.7h1.8v1.8h-1.8V415.7z M1252.4,436.7
				c-1.8,0-3.2-1.7-2.8-3.4l1.1-5.3v-1.8h1.8v-1.8h-1.8v-1.8h1.8V421h-1.8v-1.8h1.8v-1.8h1.8v1.8h-1.8v1.8h1.8v1.8h-1.8v1.8h1.8v1.8
				h-1.8v1.8h1.2c0.3,0,0.6,0.2,0.6,0.5l0.9,4.8C1255.6,435.1,1254.2,436.7,1252.4,436.7L1252.4,436.7z M1254.2,433.8
				c0,0.8-0.8,1.5-1.8,1.5s-1.8-0.7-1.8-1.5c0-0.8,0.8-1.5,1.8-1.5C1253.4,432.4,1254.2,433,1254.2,433.8z M1266.4,420.7v0.3h-7v-7
				h0.3c0.4,0,0.7,0.1,0.9,0.4l5.4,5.4C1266.3,420,1266.4,420.3,1266.4,420.7z"/>
		</g>
		<g id="bloc_x5F_CRM_4_">
			<path class="st7" d="M1299.6,352.6h-87.4c-2.8,0-5-2.2-5-5v-87.4c0-2.8,2.2-5,5-5h87.4c2.8,0,5,2.2,5,5v87.4
				C1304.6,350.3,1302.4,352.6,1299.6,352.6z"/>
			<text transform="matrix(1 0 0 1 1241.0507 283.2384)" class="st8 st23 st24">CRM</text>
			<path class="st8" d="M1243.7,310.5c1.9,0,3.5-1.6,3.5-3.5s-1.6-3.5-3.5-3.5c-1.9,0-3.5,1.6-3.5,3.5S1241.8,310.5,1243.7,310.5z
				 M1268.1,310.5c1.9,0,3.5-1.6,3.5-3.5s-1.6-3.5-3.5-3.5c-1.9,0-3.5,1.6-3.5,3.5S1266.2,310.5,1268.1,310.5z M1269.9,312.3h-3.5
				c-1,0-1.8,0.4-2.5,1c2.2,1.2,3.8,3.4,4.1,6h3.6c1,0,1.7-0.8,1.7-1.7v-1.7C1273.3,313.8,1271.8,312.3,1269.9,312.3z M1255.9,312.3
				c3.4,0,6.1-2.7,6.1-6.1c0-3.4-2.7-6.1-6.1-6.1s-6.1,2.7-6.1,6.1C1249.8,309.5,1252.5,312.3,1255.9,312.3z M1260.1,314h-0.5
				c-1.1,0.5-2.4,0.9-3.7,0.9s-2.6-0.3-3.7-0.9h-0.5c-3.5,0-6.3,2.8-6.3,6.3v1.6c0,1.4,1.2,2.6,2.6,2.6h15.7c1.4,0,2.6-1.2,2.6-2.6
				v-1.6C1266.4,316.8,1263.6,314,1260.1,314z M1247.9,313.3c-0.6-0.6-1.5-1-2.5-1h-3.5c-1.9,0-3.5,1.6-3.5,3.5v1.7
				c0,1,0.8,1.7,1.7,1.7h3.6C1244.2,316.6,1245.7,314.5,1247.9,313.3L1247.9,313.3z"/>
		</g>
		<g id="bloc_x5F_office_4_">
			<path class="st7" d="M1411.4,352.6H1324c-2.8,0-5-2.2-5-5v-87.4c0-2.8,2.2-5,5-5h87.4c2.8,0,5,2.2,5,5v87.4
				C1416.4,350.3,1414.1,352.6,1411.4,352.6z"/>
			<text transform="matrix(1 0 0 1 1332.0372 283.2384)" class="st8 st23 st24">Pack Office</text>
			<path class="st8" d="M1391.6,311.4v-5.9h-8.7c-0.6,0-1,0.5-1,1v20.2c0,0.6,0.5,1,1,1h14.6c0.6,0,1-0.5,1-1v-14.3h-5.9
				C1392.1,312.5,1391.6,312,1391.6,311.4z M1394.2,316.1l-2.6,4.1l2.6,4.1c0.2,0.3,0,0.8-0.4,0.8h-1.5c-0.2,0-0.4-0.1-0.5-0.3
				c-0.9-1.6-1.6-3-1.6-3c-0.3,0.6-0.4,0.9-1.6,3c-0.1,0.2-0.3,0.3-0.5,0.3h-1.5c-0.4,0-0.7-0.5-0.4-0.8l2.6-4.1l-2.6-4.1
				c-0.2-0.3,0-0.8,0.4-0.8h1.5c0.2,0,0.4,0.1,0.5,0.3c1.1,2.1,0.9,1.5,1.6,3c0,0,0.3-0.5,1.6-3c0.1-0.2,0.3-0.3,0.5-0.3h1.5
				C1394.2,315.3,1394.4,315.7,1394.2,316.1L1394.2,316.1z M1398.6,310.8v0.3h-5.6v-5.6h0.3c0.3,0,0.5,0.1,0.7,0.3l4.3,4.3
				C1398.5,310.3,1398.6,310.5,1398.6,310.8z"/>
			<path class="st8" d="M1345.3,317.3c0.4,0,0.7,0.1,0.9,0.4c0.4,0.5,0.4,1.4,0,1.9c-0.2,0.2-0.5,0.4-0.9,0.4h-1.2v-2.6H1345.3z
				 M1353.3,310.1l-4.3-4.3c-0.2-0.2-0.5-0.3-0.7-0.3h-0.3v5.6h5.6v-0.3C1353.6,310.5,1353.5,310.3,1353.3,310.1z M1346.6,311.4
				v-5.9h-8.7c-0.6,0-1,0.5-1,1v20.2c0,0.6,0.5,1,1,1h14.6c0.6,0,1-0.5,1-1v-14.3h-5.9C1347.1,312.5,1346.6,312,1346.6,311.4z
				 M1348.9,318.6c0,3.9-3.9,3.4-4.8,3.4v2.5c0,0.3-0.2,0.5-0.5,0.5h-1.3c-0.3,0-0.5-0.2-0.5-0.5v-8.7c0-0.3,0.2-0.5,0.5-0.5h3.5
				C1347.7,315.3,1348.9,316.7,1348.9,318.6z"/>
			<path class="st8" d="M1369.6,309.7v-7.9H1358c-0.8,0-1.4,0.6-1.4,1.4v26.9c0,0.8,0.6,1.4,1.4,1.4h19.5c0.8,0,1.4-0.6,1.4-1.4v-19
				h-7.9C1370.2,311.1,1369.6,310.5,1369.6,309.7z M1372.9,316.7h1.4c0.4,0,0.8,0.4,0.7,0.9l-2.2,9.7c-0.1,0.3-0.4,0.5-0.7,0.5h-2.2
				c-0.3,0-0.6-0.2-0.7-0.5c-1.5-6-1.2-4.7-1.5-6.4h0c-0.1,0.8-0.1,1-1.5,6.4c-0.1,0.3-0.4,0.5-0.7,0.5h-2.2c-0.3,0-0.6-0.2-0.7-0.5
				l-2.2-9.7c-0.1-0.4,0.2-0.8,0.7-0.8h1.4c0.3,0,0.6,0.2,0.7,0.6c0.9,4.5,1.2,6.4,1.2,7.1c0.1-0.6,0.4-1.9,1.7-7.1
				c0.1-0.3,0.4-0.5,0.7-0.5h1.7c0.3,0,0.6,0.2,0.7,0.5c1.4,5.8,1.7,7.2,1.7,7.5c0-0.6-0.2-1,1.3-7.5
				C1372.3,316.9,1372.6,316.7,1372.9,316.7z M1378.8,308.9v0.4h-7.4v-7.4h0.4c0.4,0,0.7,0.1,1,0.4l5.7,5.7
				C1378.7,308.2,1378.8,308.5,1378.8,308.9z"/>
		</g>
		<g id="bloc_x5F_sauvegarde_4_">
			<path class="st7" d="M1411.4,463.8H1324c-2.8,0-5-2.2-5-5v-87.4c0-2.8,2.2-5,5-5h87.4c2.8,0,5,2.2,5,5v87.4
				C1416.4,461.6,1414.1,463.8,1411.4,463.8z"/>
			<text transform="matrix(1 0 0 1 1329.2999 394.4866)"><tspan x="0" y="0" class="st8 st23 st24">Sauvegarde</tspan><tspan x="-1" y="12" class="st8 st23 st24">externalisée</tspan></text>
			<path class="st8" d="M1378.6,421.1l-4.3-4.3c-0.5-0.5-1.1-0.7-1.7-0.7h-13.8c-1.4,0-2.5,1.1-2.5,2.5v18.1c0,1.4,1.1,2.5,2.5,2.5
				h18.1c1.4,0,2.5-1.1,2.5-2.5v-13.8C1379.4,422.2,1379.1,421.6,1378.6,421.1L1378.6,421.1z M1367.9,435.8c-1.8,0-3.3-1.5-3.3-3.3
				s1.5-3.3,3.3-3.3c1.8,0,3.3,1.5,3.3,3.3S1369.7,435.8,1367.9,435.8z M1372.8,420.2v5.2c0,0.3-0.3,0.6-0.6,0.6h-11.9
				c-0.3,0-0.6-0.3-0.6-0.6V420c0-0.3,0.3-0.6,0.6-0.6h11.7c0.2,0,0.3,0.1,0.4,0.2l0.2,0.2C1372.7,419.8,1372.8,420,1372.8,420.2z"
				/>
		</g>
		<g id="bloc_x5F_donnees_4_">
			<path class="st7" d="M1299.6,575.1h-87.4c-2.8,0-5-2.2-5-5v-87.4c0-2.8,2.2-5,5-5h87.4c2.8,0,5,2.2,5,5v87.4
				C1304.6,572.8,1302.4,575.1,1299.6,575.1z"/>
			<text transform="matrix(1 0 0 1 1226.9432 505.7349)" class="st8 st23 st24">Données</text>
			<path class="st8" d="M1267.7,526v2.4c0,2.2-5.4,3.9-12,3.9c-6.6,0-12-1.8-12-3.9V526c0-2.2,5.4-3.9,12-3.9
				C1262.4,522.1,1267.7,523.9,1267.7,526z M1267.7,531.5v5.5c0,2.2-5.4,3.9-12,3.9c-6.6,0-12-1.8-12-3.9v-5.5
				c2.6,1.8,7.3,2.6,12,2.6C1260.5,534.1,1265.2,533.3,1267.7,531.5z M1267.7,540.1v5.5c0,2.2-5.4,3.9-12,3.9c-6.6,0-12-1.8-12-3.9
				v-5.5c2.6,1.8,7.3,2.6,12,2.6C1260.5,542.7,1265.2,541.9,1267.7,540.1z"/>
		</g>
		<g id="bloc_x5F_logiciels_4_">
			<path class="st7" d="M1411.4,241.3H1324c-2.8,0-5-2.2-5-5V149c0-2.8,2.2-5,5-5h87.4c2.8,0,5,2.2,5,5v87.4
				C1416.4,239.1,1414.1,241.3,1411.4,241.3z"/>
			<text transform="matrix(1 0 0 1 1339.2902 171.9903)"><tspan x="0" y="0" class="st8 st23 st24">Logiciels</tspan><tspan x="4.1" y="12" class="st8 st23 st24">métiers</tspan></text>
			<path class="st8" d="M1381.8,213.9h-25.3v-17.8c0-0.5-0.4-0.9-0.9-0.9h-1.9c-0.5,0-0.9,0.4-0.9,0.9v19.7c0,1,0.8,1.9,1.9,1.9
				h27.2c0.5,0,0.9-0.4,0.9-0.9v-1.9C1382.7,214.3,1382.3,213.9,1381.8,213.9z M1379.9,197h-6.9c-1.3,0-1.9,1.5-1,2.4l1.9,1.9
				l-4.3,4.3l-4.3-4.3c-0.7-0.7-1.9-0.7-2.7,0l-4,4c-0.4,0.4-0.4,1,0,1.3l1.3,1.3c0.4,0.4,1,0.4,1.3,0l2.7-2.7l4.3,4.3
				c0.7,0.7,1.9,0.7,2.7,0l5.6-5.6l1.9,1.9c0.9,0.9,2.4,0.3,2.4-1V198C1380.9,197.4,1380.4,197,1379.9,197z"/>
		</g>
		<g>
			<g>
				<g>
					<path class="st6" d="M1149.7,106.3c0,0,4.7-14,19.6-14s19,14.9,19,14.9s16.2,0.6,16.2,17.1c0,14.9-15.7,16.4-16.4,16.4
						c-0.7,0-19.7,0.1-20.7,0.1c-1,0-2-1-2-2.2s0-11.3,0-13.1c0-1.2-1.3-3.1-2.9-3.1c-0.9,0-5.7,0-6.6,0c-0.9,0-2.1-0.4-2.1-2.4
						c0-1.9,0-7.1,0-10C1153.8,107.1,1150.7,106.3,1149.7,106.3z"/>
					<path class="st6" d="M1155.6,140.6c0,0,2.6,0,4.5,0s2.9-1,2.9-2.5c0-1.5,0-10.6,0-11.3c0-0.7-0.7-2.1-2.1-2.1s-4.8,0-4.8,0h-2
						c0,0-3.5,0-4.8,0c-1.3,0-2.1,1.3-2.1,2.1c0,0.7,0,9.9,0,11.3c0,1.5,1,2.5,2.9,2.5c1.9,0,4.5,0,4.5,0H1155.6z"/>
					<path class="st6" d="M1133.9,140.6c0,0,1.5,0,2.6,0c1.1,0,1.7-0.6,1.7-1.5s0-6.2,0-6.6c0-0.4-0.4-1.2-1.2-1.2
						c-0.8,0-2.8,0-2.8,0h-1.2c0,0-2,0-2.8,0c-0.8,0-1.2,0.8-1.2,1.2c0,0.4,0,5.7,0,6.6s0.6,1.5,1.7,1.5s2.6,0,2.6,0H1133.9z"/>
					<path class="st6" d="M1145,122.4c0,0,2.2,0,3.8,0c1.6,0,2.5-0.9,2.5-2.1s0-9,0-9.6c0-0.6-0.6-1.7-1.7-1.7c-1.1,0-4.1,0-4.1,0
						h-1.7c0,0-3,0-4.1,0c-1.1,0-1.7,1.1-1.7,1.7c0,0.6,0,8.4,0,9.6s0.9,2.1,2.5,2.1c1.6,0,3.8,0,3.8,0H1145z"/>
					<path class="st6" d="M1130.6,128.9c0,0,1.8,0,3.2,0c1.3,0,2.1-0.7,2.1-1.8c0-1,0-7.5,0-8c0-0.5-0.5-1.4-1.5-1.4
						c-0.9,0-3.4,0-3.4,0h-1.4c0,0-2.5,0-3.4,0c-0.9,0-1.4,0.9-1.4,1.4c0,0.5,0,6.9,0,8c0,1,0.7,1.8,2.1,1.8c1.3,0,3.2,0,3.2,0
						H1130.6z"/>
					<path class="st6" d="M1133.1,115.3c0,0,1,0,1.7,0c0.7,0,1.1-0.4,1.1-0.9c0-0.6,0-4,0-4.3c0-0.3-0.3-0.8-0.8-0.8
						c-0.5,0-1.8,0-1.8,0h-0.8c0,0-1.3,0-1.8,0c-0.5,0-0.8,0.5-0.8,0.8c0,0.3,0,3.7,0,4.3c0,0.6,0.4,0.9,1.1,0.9c0.7,0,1.7,0,1.7,0
						H1133.1z"/>
					<path class="st6" d="M1124.4,137.4c0,0,1,0,1.7,0c0.7,0,1.1-0.4,1.1-0.9c0-0.6,0-4,0-4.3c0-0.3-0.3-0.8-0.8-0.8
						c-0.5,0-1.8,0-1.8,0h-0.8c0,0-1.3,0-1.8,0c-0.5,0-0.8,0.5-0.8,0.8c0,0.3,0,3.7,0,4.3c0,0.6,0.4,0.9,1.1,0.9c0.7,0,1.7,0,1.7,0
						L1124.4,137.4L1124.4,137.4z"/>
					<path class="st6" d="M1141.8,131.5c0,0,1.1,0,2,0c0.8,0,1.3-0.4,1.3-1.1c0-0.6,0-4.6,0-4.9c0-0.3-0.3-0.9-0.9-0.9
						c-0.6,0-2.1,0-2.1,0h-0.9c0,0-1.5,0-2.1,0c-0.6,0-0.9,0.6-0.9,0.9c0,0.3,0,4.3,0,4.9c0,0.6,0.4,1.1,1.3,1.1c0.8,0,2,0,2,0
						H1141.8z"/>
					<path class="st6" d="M1143,137.7c0,0,0.7,0,1.3,0c0.5,0,0.8-0.3,0.8-0.7s0-2.9,0-3.1c0-0.2-0.2-0.6-0.6-0.6s-1.3,0-1.3,0h-0.6
						c0,0-1,0-1.3,0c-0.4,0-0.6,0.4-0.6,0.6c0,0.2,0,2.7,0,3.1s0.3,0.7,0.8,0.7c0.5,0,1.3,0,1.3,0H1143z"/>
				</g>
			</g>
		</g>
	</g>
	<circle id="ombre_x5F_acces_x5F_securise_4_" class="st9" cx="1312.1" cy="666.5" r="51.5"/>
	<g class="st10">
		<circle class="st11" cx="1312.1" cy="818.9" r="80.5"/>
	</g>
	<g id="PRODUCTION_1_" class="st1">
		<g>
			<rect x="1182.5" y="812.6" class="st12" width="90.5" height="13"/>
		</g>
		<text transform="matrix(1 0 0 1 1086.8978 1094.9365)"><tspan x="0" y="0" class="st25 st19 st26">sites de</tspan><tspan x="-20.4" y="25" class="st25 st19 st26">production</tspan></text>
		<g id="ordinateurs_1_">
			<path id="ordinateur_11_" class="st13" d="M1150.9,705.6h-45.2c-2.5,0-4.5,2-4.5,4.5v30.1c0,2.5,2,4.5,4.5,4.5h18.1l-1.5,4.5
				h-6.8c-1.3,0-2.3,1-2.3,2.3c0,1.3,1,2.3,2.3,2.3h25.6c1.3,0,2.3-1,2.3-2.3c0-1.3-1-2.3-2.3-2.3h-6.8l-1.5-4.5h18.1
				c2.5,0,4.5-2,4.5-4.5v-30.1C1155.4,707.6,1153.4,705.6,1150.9,705.6z M1149.4,738.8h-42.2v-27.1h42.2V738.8z"/>
			<path id="ordinateur_10_" class="st13" d="M1150.9,767.5h-45.2c-2.5,0-4.5,2-4.5,4.5v30.1c0,2.5,2,4.5,4.5,4.5h18.1l-1.5,4.5
				h-6.8c-1.3,0-2.3,1-2.3,2.3s1,2.3,2.3,2.3h25.6c1.3,0,2.3-1,2.3-2.3s-1-2.3-2.3-2.3h-6.8l-1.5-4.5h18.1c2.5,0,4.5-2,4.5-4.5V772
				C1155.4,769.5,1153.4,767.5,1150.9,767.5z M1149.4,800.6h-42.2v-27.1h42.2V800.6z"/>
			<path id="ordinateur_9_" class="st13" d="M1150.9,830h-45.2c-2.5,0-4.5,2-4.5,4.5v30.1c0,2.5,2,4.5,4.5,4.5h18.1l-1.5,4.5h-6.8
				c-1.3,0-2.3,1-2.3,2.3s1,2.3,2.3,2.3h25.6c1.3,0,2.3-1,2.3-2.3s-1-2.3-2.3-2.3h-6.8l-1.5-4.5h18.1c2.5,0,4.5-2,4.5-4.5v-30.1
				C1155.4,832.1,1153.4,830,1150.9,830z M1149.4,863.2h-42.2v-27.1h42.2V863.2z"/>
			<path id="ordinateur_8_" class="st13" d="M1150.9,889.5h-45.2c-2.5,0-4.5,2-4.5,4.5v30.1c0,2.5,2,4.5,4.5,4.5h18.1l-1.5,4.5h-6.8
				c-1.3,0-2.3,1-2.3,2.3s1,2.3,2.3,2.3h25.6c1.3,0,2.3-1,2.3-2.3s-1-2.3-2.3-2.3h-6.8l-1.5-4.5h18.1c2.5,0,4.5-2,4.5-4.5V894
				C1155.4,891.5,1153.4,889.5,1150.9,889.5z M1149.4,922.6h-42.2v-27.1h42.2V922.6z"/>
			<path id="ordinateur_7_" class="st13" d="M1150.9,954h-45.2c-2.5,0-4.5,2-4.5,4.5v30.1c0,2.5,2,4.5,4.5,4.5h18.1l-1.5,4.5h-6.8
				c-1.3,0-2.3,1-2.3,2.3s1,2.3,2.3,2.3h25.6c1.3,0,2.3-1,2.3-2.3s-1-2.3-2.3-2.3h-6.8l-1.5-4.5h18.1c2.5,0,4.5-2,4.5-4.5v-30.1
				C1155.4,956.1,1153.4,954,1150.9,954z M1149.4,987.2h-42.2v-27.1h42.2V987.2z"/>
			<path id="ordinateur_6_" class="st13" d="M1150.9,1015.2h-45.2c-2.5,0-4.5,2-4.5,4.5v30.1c0,2.5,2,4.5,4.5,4.5h18.1l-1.5,4.5
				h-6.8c-1.3,0-2.3,1-2.3,2.3c0,1.3,1,2.3,2.3,2.3h25.6c1.3,0,2.3-1,2.3-2.3c0-1.3-1-2.3-2.3-2.3h-6.8l-1.5-4.5h18.1
				c2.5,0,4.5-2,4.5-4.5v-30.1C1155.4,1017.2,1153.4,1015.2,1150.9,1015.2z M1149.4,1048.4h-42.2v-27.1h42.2V1048.4z"/>
		</g>
		<path class="st14" d="M1245.8,825.6c-0.3-2.5-0.5-5.1-0.5-7.7c0-1.8,0.1-3.5,0.2-5.3h27.4v13H1245.8z"/>
		<g>
			<polygon class="st12" points="1189,1041.1 1189,719.4 1155.4,719.4 1155.4,732.4 1176,732.4 1176,1028.1 1155.4,1028.1 
				1155.4,1041.1 			"/>
		</g>
		<g>
			<rect x="1155.4" y="966.3" class="st12" width="27.1" height="13"/>
		</g>
		<g>
			<rect x="1155.4" y="904.6" class="st12" width="27.1" height="13"/>
		</g>
		<g>
			<rect x="1155.4" y="842.9" class="st12" width="27.1" height="13"/>
		</g>
		<g>
			<rect x="1155.4" y="781.1" class="st12" width="27.1" height="13"/>
		</g>
		
			<rect x="1151.9" y="722.9" transform="matrix(-4.463559e-11 1 -1 -4.463559e-11 1884.2847 -432.4925)" class="st15" width="13" height="5.9"/>
		
			<rect x="1151.9" y="784.7" transform="matrix(-4.533459e-11 1 -1 -4.533459e-11 1946.0195 -370.7576)" class="st15" width="13" height="5.9"/>
		
			<rect x="1151.9" y="846.4" transform="matrix(-4.547492e-11 1 -1 -4.547492e-11 2007.7539 -309.0232)" class="st15" width="13" height="5.9"/>
		
			<rect x="1151.9" y="908.2" transform="matrix(-4.463559e-11 1 -1 -4.463559e-11 2069.4883 -247.2889)" class="st15" width="13" height="5.9"/>
		
			<rect x="1151.9" y="969.9" transform="matrix(-4.449526e-11 1 -1 -4.449526e-11 2131.2229 -185.5543)" class="st15" width="13" height="5.9"/>
		
			<rect x="1151.9" y="1031.6" transform="matrix(-4.463559e-11 1 -1 -4.463559e-11 2192.9573 -123.8198)" class="st15" width="13" height="5.9"/>
	</g>
	<g id="ITINERANTS_1_" class="st1">
		<g>
			<rect x="1304.9" y="861.2" class="st12" width="13" height="224.2"/>
		</g>
		<g>
			<polygon class="st12" points="1303.1,822.3 1314.6,816.2 1380.3,940.8 1380.3,1067.1 1367.3,1067.1 1367.3,944 			"/>
		</g>
		<g>
			<polygon class="st12" points="1237.4,1127.1 1237.4,940.8 1303.1,816.2 1314.6,822.3 1250.4,944 1250.4,1127.1 			"/>
		</g>
		<text transform="matrix(1 0 0 1 1290.1875 1149.4578)"><tspan x="0" y="0" class="st25 st19 st26">personnel</tspan><tspan x="8.4" y="25" class="st25 st19 st26">itinérant</tspan></text>
		<path class="st14" d="M1304.9,861.2v23.9c2.1,0.2,4.3,0.3,6.5,0.3c2.2,0,4.4-0.1,6.5-0.3v-23.9H1304.9z"/>
		<path class="st14" d="M1303.1,822.3l31.2,59.1c4.1-1.5,8.1-3.4,11.8-5.6l-31.4-59.6L1303.1,822.3z"/>
		<path class="st14" d="M1303.1,816.2l-30.1,57.1c3.5,2.5,7.3,4.6,11.3,6.4l30.3-57.4L1303.1,816.2z"/>
		<g id="devices_x5F_teletravail_1_">
			<path id="mobile_3_" class="st13" d="M1319.9,1085.4h-17.2c-2,0-3.7,1.7-3.7,3.7v32c0,2,1.7,3.7,3.7,3.7h17.2
				c2,0,3.7-1.7,3.7-3.7v-32C1323.6,1087.1,1322,1085.4,1319.9,1085.4z M1311.3,1122.3c-1.4,0-2.5-1.1-2.5-2.5
				c0-1.4,1.1-2.5,2.5-2.5c1.4,0,2.5,1.1,2.5,2.5C1313.8,1121.2,1312.7,1122.3,1311.3,1122.3z M1319.9,1114c0,0.5-0.4,0.9-0.9,0.9
				h-15.4c-0.5,0-0.9-0.4-0.9-0.9v-24c0-0.5,0.4-0.9,0.9-0.9h15.4c0.5,0,0.9,0.4,0.9,0.9V1114z"/>
			<path id="portable_16_" class="st13" d="M1269.7,1160.3h-20.6c-0.1,1.7-1.2,2.7-2.8,2.7h-5.2c-1.6,0-2.8-1.5-2.8-2.7h-20.3
				c-0.7,0-1.4,0.6-1.4,1.4v1.4c0,3,2.4,5.4,5.4,5.4h43.4c3,0,5.4-2.4,5.4-5.4v-1.4C1271.1,1160.9,1270.5,1160.3,1269.7,1160.3z
				 M1265.7,1129.1c0-2.2-1.8-4.1-4.1-4.1h-35.3c-2.2,0-4.1,1.8-4.1,4.1v28.5h43.4V1129.1z M1260.2,1152.2h-32.6v-21.7h32.6V1152.2z
				"/>
			<path id="tablette_4_" class="st13" d="M1394.4,1098.1v-27.7c0-2.1-1.7-3.8-3.8-3.8h-32.8c-2.1,0-3.8,1.7-3.8,3.8v27.7
				c0,2.1,1.7,3.8,3.8,3.8h32.8C1392.7,1101.8,1394.4,1100.1,1394.4,1098.1z M1356.6,1084.2c0-1.4,1.1-2.5,2.5-2.5
				c1.4,0,2.5,1.1,2.5,2.5c0,1.4-1.1,2.5-2.5,2.5C1357.8,1086.7,1356.6,1085.6,1356.6,1084.2z M1365.1,1098.1
				c-0.5,0-0.9-0.4-0.9-0.9v-25.8c0-0.5,0.4-0.9,0.9-0.9h24.6c0.5,0,0.9,0.4,0.9,0.9v25.8c0,0.5-0.4,0.9-0.9,0.9H1365.1z"/>
		</g>
		<rect x="1237.4" y="1119.1" class="st15" width="13" height="5.9"/>
		<rect x="1304.9" y="1079.5" class="st15" width="13" height="5.9"/>
		<rect x="1367.3" y="1060.7" class="st15" width="13" height="5.9"/>
	</g>
	<g id="TELETRAVAIL_1_" class="st1">
		<text transform="matrix(1 0 0 1 1425.5804 960.0662)"><tspan x="0" y="0" class="st25 st19 st26">personnel</tspan><tspan x="-16.1" y="25" class="st25 st19 st26">en télétravail</tspan></text>
		<g>
			<polygon class="st12" points="1459.3,895.5 1459.3,908.5 1400.8,908.5 1311.5,832.2 1320,822.3 1405.6,895.5 			"/>
		</g>
		<g>
			<polygon class="st12" points="1459.3,731.3 1459.3,744.3 1405.6,744.3 1320,817.5 1311.5,807.6 1400.8,731.3 			"/>
		</g>
		<g>
			<rect x="1343.3" y="812.6" class="st12" width="116.1" height="13"/>
		</g>
		<path class="st14" d="M1354.3,868.7c3.2-2.9,6.2-6.1,8.9-9.5l-43.2-36.9l-8.4,9.9L1354.3,868.7z"/>
		<path class="st14" d="M1320,817.5l44.6-38.1c-2.5-3.5-5.4-6.8-8.5-9.8l-44.5,38.1L1320,817.5z"/>
		<path class="st14" d="M1376.6,825.6c0.3-2.4,0.4-4.8,0.4-7.3c0-1.9-0.1-3.8-0.3-5.7h-33.4v13H1376.6z"/>
		
			<rect x="1449.8" y="899.1" transform="matrix(6.123234e-17 -1 1 6.123234e-17 554.2708 2358.3188)" class="st15" width="13" height="5.9"/>
		
			<rect x="1449.8" y="816.1" transform="matrix(6.123234e-17 -1 1 6.123234e-17 637.2023 2275.3872)" class="st15" width="13" height="5.9"/>
		
			<rect x="1449.8" y="734.9" transform="matrix(6.123234e-17 -1 1 6.123234e-17 718.4504 2194.1392)" class="st15" width="13" height="5.9"/>
		<g id="portables_x5F_teletravail_4_">
			<path id="portable_15_" class="st13" d="M1506.7,755h-20.6c-0.1,1.7-1.2,2.7-2.8,2.7h-5.2c-1.6,0-2.8-1.5-2.8-2.7h-20.3
				c-0.7,0-1.4,0.6-1.4,1.4v1.4c0,3,2.4,5.4,5.4,5.4h43.4c3,0,5.4-2.4,5.4-5.4v-1.4C1508,755.6,1507.4,755,1506.7,755z
				 M1502.6,723.8c0-2.2-1.8-4.1-4.1-4.1h-35.3c-2.2,0-4.1,1.8-4.1,4.1v28.5h43.4V723.8z M1497.2,746.9h-32.6v-21.7h32.6V746.9z"/>
			<path id="portable_14_" class="st13" d="M1506.7,836.8h-20.6c-0.1,1.7-1.2,2.7-2.8,2.7h-5.2c-1.6,0-2.8-1.5-2.8-2.7h-20.3
				c-0.7,0-1.4,0.6-1.4,1.4v1.4c0,3,2.4,5.4,5.4,5.4h43.4c3,0,5.4-2.4,5.4-5.4v-1.4C1508,837.4,1507.4,836.8,1506.7,836.8z
				 M1502.6,805.6c0-2.2-1.8-4.1-4.1-4.1h-35.3c-2.2,0-4.1,1.8-4.1,4.1v28.5h43.4V805.6z M1497.2,828.6h-32.6v-21.7h32.6V828.6z"/>
			<path id="portable_13_" class="st13" d="M1506.7,918.7h-20.6c-0.1,1.7-1.2,2.7-2.8,2.7h-5.2c-1.6,0-2.8-1.5-2.8-2.7h-20.3
				c-0.7,0-1.4,0.6-1.4,1.4v1.4c0,3,2.4,5.4,5.4,5.4h43.4c3,0,5.4-2.4,5.4-5.4v-1.4C1508,919.4,1507.4,918.7,1506.7,918.7z
				 M1502.6,887.5c0-2.2-1.8-4.1-4.1-4.1h-35.3c-2.2,0-4.1,1.8-4.1,4.1V916h43.4V887.5z M1497.2,910.6h-32.6v-21.7h32.6V910.6z"/>
		</g>
	</g>
	<g id="INTERNET_4_" class="st1">
		<rect x="1299.2" y="698.2" class="st11" width="25.7" height="98.4"/>
		<path class="st14" d="M1311.9,752.2c-4.4,0-8.7,0.5-12.9,1.6v17.7h25.7v-17.7C1320.6,752.7,1316.3,752.2,1311.9,752.2z"/>
		<path class="st14" d="M1299.2,698.2v11.7c4.1,1.2,8.4,1.9,12.9,1.9c4.5,0,8.8-0.7,12.9-1.9v-11.7H1299.2z"/>
		<g>
			<circle class="st11" cx="1312.1" cy="818.9" r="59.5"/>
		</g>
		<path class="st16" d="M1328.9,800.6c-2.8-17-9.3-28.9-16.9-28.9s-14.1,11.9-16.9,28.9H1328.9z M1293.8,818.9
			c0,4.2,0.2,8.3,0.6,12.2h35.3c0.4-3.9,0.6-8,0.6-12.2c0-4.2-0.2-8.3-0.6-12.2h-35.3C1294,810.6,1293.8,814.7,1293.8,818.9z
			 M1355.6,800.6c-5.4-12.9-16.5-22.9-30.1-27c4.6,6.4,7.8,16.1,9.5,27H1355.6z M1298.6,773.6c-13.6,4-24.6,14-30.1,27h20.6
			C1290.7,789.8,1293.9,780.1,1298.6,773.6L1298.6,773.6z M1357.7,806.7h-21.8c0.4,4,0.6,8.1,0.6,12.2s-0.2,8.2-0.6,12.2h21.8
			c1-3.9,1.6-8,1.6-12.2C1359.3,814.7,1358.7,810.6,1357.7,806.7L1357.7,806.7z M1287.7,818.9c0-4.1,0.2-8.2,0.6-12.2h-21.8
			c-1,3.9-1.6,8-1.6,12.2s0.6,8.3,1.6,12.2h21.8C1287.9,827.1,1287.7,823,1287.7,818.9z M1295.2,837.2c2.8,17,9.3,28.9,16.9,28.9
			s14.1-11.9,16.9-28.9H1295.2z M1325.6,864.1c13.6-4,24.6-14,30.1-27h-20.6C1333.4,848,1330.2,857.7,1325.6,864.1z M1268.5,837.2
			c5.4,12.9,16.5,22.9,30.1,27c-4.6-6.4-7.8-16.1-9.5-27H1268.5z"/>
		<text transform="matrix(1 0 0 1 1268.2263 826.2405)" class="st7 st19 st27">Internet</text>
	</g>
	<g id="ACCES_x5F_SECURISE_6_" class="st1">
		<rect x="1299.2" y="579.9" class="st6" width="25.7" height="57"/>
		<g id="acces_x5F_securise_1_">
			<g>
				<g>
					<circle class="st6" cx="1312.1" cy="666.5" r="38.9"/>
				</g>
			</g>
			<text transform="matrix(1 0 0 1 1288.0063 660.483)"><tspan x="0" y="0" class="st7 st19 st28">Accès</tspan><tspan x="-9.5" y="21" class="st7 st19 st28">sécurisé</tspan></text>
		</g>
		<g id="cadenas_6_">
			<circle class="st6" cx="1355.2" cy="700.7" r="22.5"/>
			<path id="picto_x5F_cadenas_1_" class="st7" d="M1362.6,697.2C1362.6,697.2,1362.6,697.1,1362.6,697.2l0-4.6c0-1.4-0.9-3.2-2-4.1
				c-5.9-4.5-12.4-0.3-12.4,5.3v3.4c0,0,0,0,0,0h-3.4v13.6h21.2v-13.6H1362.6z M1358.8,697.2h-6.8v-4.5c0-0.3,0.1-0.7,0.4-0.9
				c2.9-2.9,6.5-0.9,6.5,2V697.2z"/>
		</g>
	</g>
</g>
<g id="SCHEMA_x5F_desktop">
	<g id="DATA_x5F_CENTER_2_">
		<path class="st2" d="M358.8,634.2H70.5c-21.9,0-39.6-17.7-39.6-39.6V90.1c0-21.9,17.7-39.6,39.6-39.6h288.4
			c21.9,0,39.6,17.7,39.6,39.6v504.5C398.5,616.5,380.7,634.2,358.8,634.2z"/>
		<text transform="matrix(1 0 0 1 62.9013 42.493)" class="st18 st19 st20">Data center</text>
	</g>
	<g id="ombre_x5F_interenet_1_" class="st3">
		<circle class="st11" cx="562.7" cy="348.8" r="80.5"/>
	</g>
	<circle id="ombre_x5F_acces_x5F_securise_2_" class="st21" cx="398.1" cy="348.8" r="51.5"/>
	<g id="VOTRE_x5F_SERVEUR_2_">
		
			<rect x="334.8" y="320.6" transform="matrix(6.123234e-17 -1 1 6.123234e-17 4.9114 702.5686)" class="st5" width="37.9" height="56.5"/>
		<g class="st3">
			<path class="st4" d="M305.5,578.9H84.2c-5.5,0-10-4.5-10-10V126.3c0-5.5,4.5-10,10-10h221.3c5.5,0,10,4.5,10,10v442.6
				C315.5,574.4,311,578.9,305.5,578.9z"/>
		</g>
		<g>
			<path class="st6" d="M305.5,578.9H84.2c-5.5,0-10-4.5-10-10V126.3c0-5.5,4.5-10,10-10h221.3c5.5,0,10,4.5,10,10v442.6
				C315.5,574.4,311,578.9,305.5,578.9z"/>
		</g>
		<text transform="matrix(1 0 0 1 78.0909 99.7471)" class="st6 st19 st22">Votre serveur</text>
		<g id="bloc_x5F_messagerie_2_">
			<path class="st7" d="M182.4,230.2H95c-2.8,0-5-2.2-5-5v-87.4c0-2.8,2.2-5,5-5h87.4c2.8,0,5,2.2,5,5v87.4
				C187.4,228,185.1,230.2,182.4,230.2z"/>
			<path id="Tracé_2740_1_" class="st8" d="M149.9,195.4c0.1-0.1,0.3-0.1,0.4,0.1c0,0,0.1,0.1,0.1,0.2v9.3c0,1.2-1,2.2-2.2,2.2h-19
				c-1.2,0-2.2-1-2.2-2.2v-9.3c0-0.2,0.1-0.3,0.3-0.3c0.1,0,0.1,0,0.2,0.1c1,0.8,2.4,1.8,7,5.2c1,0.7,2.6,2.2,4.2,2.2
				c1.6,0,3.3-1.5,4.2-2.2C147.6,197.2,148.9,196.2,149.9,195.4z M138.7,201.3c1.1,0,2.6-1.3,3.3-1.9c6-4.4,6.5-4.8,7.9-5.9
				c0.3-0.2,0.4-0.5,0.4-0.9v-0.9c0-1.2-1-2.2-2.2-2.2h-19c-1.2,0-2.2,1-2.2,2.2v0.9c0,0.3,0.2,0.7,0.4,0.9c1.4,1.1,1.9,1.5,7.9,5.9
				C136.1,200,137.6,201.3,138.7,201.3L138.7,201.3z"/>
			<text transform="matrix(1 0 0 1 101.9483 160.9107)"><tspan x="0" y="0" class="st8 st23 st24">Messagerie</tspan><tspan x="-5.9" y="12" class="st8 st23 st24">collaborative</tspan></text>
		</g>
		<g id="bloc_x5F_etc_2_">
			<path class="st7" d="M294.2,564h-87.4c-2.8,0-5-2.2-5-5v-87.4c0-2.8,2.2-5,5-5h87.4c2.8,0,5,2.2,5,5V559
				C299.2,561.7,296.9,564,294.2,564z"/>
			<path class="st8" d="M254.6,515.9c0,2.3-1.8,4.1-4.1,4.1c-2.3,0-4.1-1.8-4.1-4.1c0-2.3,1.8-4.1,4.1-4.1
				C252.8,511.8,254.6,513.7,254.6,515.9z M260.5,511.8c-2.3,0-4.1,1.8-4.1,4.1c0,2.3,1.8,4.1,4.1,4.1c2.3,0,4.1-1.8,4.1-4.1
				C264.6,513.7,262.7,511.8,260.5,511.8z M240.5,511.8c-2.3,0-4.1,1.8-4.1,4.1c0,2.3,1.8,4.1,4.1,4.1c2.3,0,4.1-1.8,4.1-4.1
				C244.6,513.7,242.8,511.8,240.5,511.8z"/>
		</g>
		<g id="bloc_x5F_echange_1_">
			<path class="st7" d="M182.4,452.7H95c-2.8,0-5-2.2-5-5v-87.4c0-2.8,2.2-5,5-5h87.4c2.8,0,5,2.2,5,5v87.4
				C187.4,450.5,185.1,452.7,182.4,452.7z"/>
			<text transform="matrix(1 0 0 1 100.6886 383.407)"><tspan x="0" y="0" class="st8 st23 st24">Echange de</tspan><tspan x="-7.7" y="12" class="st8 st23 st24">fichiers lourds</tspan></text>
			<path class="st8" d="M140.5,410.3v-7.4H137v1.8h-1.8v-1.8h-5.7c-0.7,0-1.3,0.6-1.3,1.3v25.4c0,0.7,0.6,1.3,1.3,1.3h18.4
				c0.7,0,1.3-0.6,1.3-1.3v-17.9h-7.4C141,411.7,140.5,411.1,140.5,410.3z M133.4,404.7h1.8v1.8h-1.8V404.7z M135.2,425.7
				c-1.8,0-3.2-1.7-2.8-3.4l1.1-5.3v-1.8h1.8v-1.8h-1.8v-1.8h1.8v-1.8h-1.8v-1.8h1.8v-1.8h1.8v1.8h-1.8v1.8h1.8v1.8h-1.8v1.8h1.8
				v1.8h-1.8v1.8h1.2c0.3,0,0.6,0.2,0.6,0.5l0.9,4.8C138.4,424,137,425.7,135.2,425.7L135.2,425.7z M137,422.8
				c0,0.8-0.8,1.5-1.8,1.5s-1.8-0.7-1.8-1.5c0-0.8,0.8-1.5,1.8-1.5S137,421.9,137,422.8z M149.2,409.6v0.3h-7v-7h0.3
				c0.4,0,0.7,0.1,0.9,0.4l5.4,5.4C149.1,408.9,149.2,409.2,149.2,409.6z"/>
		</g>
		<g id="bloc_x5F_CRM_2_">
			<path class="st7" d="M182.4,341.5H95c-2.8,0-5-2.2-5-5v-87.4c0-2.8,2.2-5,5-5h87.4c2.8,0,5,2.2,5,5v87.4
				C187.4,339.2,185.1,341.5,182.4,341.5z"/>
			<text transform="matrix(1 0 0 1 123.8409 272.1588)" class="st8 st23 st24">CRM</text>
			<path class="st8" d="M126.5,299.4c1.9,0,3.5-1.6,3.5-3.5s-1.6-3.5-3.5-3.5c-1.9,0-3.5,1.6-3.5,3.5S124.6,299.4,126.5,299.4z
				 M150.9,299.4c1.9,0,3.5-1.6,3.5-3.5s-1.6-3.5-3.5-3.5c-1.9,0-3.5,1.6-3.5,3.5S149,299.4,150.9,299.4z M152.6,301.2h-3.5
				c-1,0-1.8,0.4-2.5,1c2.2,1.2,3.8,3.4,4.1,6h3.6c1,0,1.7-0.8,1.7-1.7v-1.7C156.1,302.7,154.6,301.2,152.6,301.2z M138.7,301.2
				c3.4,0,6.1-2.7,6.1-6.1c0-3.4-2.7-6.1-6.1-6.1s-6.1,2.7-6.1,6.1C132.6,298.4,135.3,301.2,138.7,301.2z M142.9,302.9h-0.5
				c-1.1,0.5-2.4,0.9-3.7,0.9c-1.3,0-2.6-0.3-3.7-0.9h-0.5c-3.5,0-6.3,2.8-6.3,6.3v1.6c0,1.4,1.2,2.6,2.6,2.6h15.7
				c1.4,0,2.6-1.2,2.6-2.6v-1.6C149.2,305.7,146.4,302.9,142.9,302.9z M130.7,302.2c-0.6-0.6-1.5-1-2.5-1h-3.5
				c-1.9,0-3.5,1.6-3.5,3.5v1.7c0,1,0.8,1.7,1.7,1.7h3.6C126.9,305.6,128.5,303.4,130.7,302.2L130.7,302.2z"/>
		</g>
		<g id="bloc_x5F_office_2_">
			<path class="st7" d="M294.2,341.5h-87.4c-2.8,0-5-2.2-5-5v-87.4c0-2.8,2.2-5,5-5h87.4c2.8,0,5,2.2,5,5v87.4
				C299.2,339.2,296.9,341.5,294.2,341.5z"/>
			<text transform="matrix(1 0 0 1 214.8275 272.1588)" class="st8 st23 st24">Pack Office</text>
			<path id="EXCEL_x5F_picto_1_" class="st8" d="M274.4,300.3v-5.9h-8.7c-0.6,0-1,0.5-1,1v20.2c0,0.6,0.5,1,1,1h14.6
				c0.6,0,1-0.5,1-1v-14.3h-5.9C274.9,301.4,274.4,300.9,274.4,300.3z M277,305l-2.6,4.1l2.6,4.1c0.2,0.3,0,0.8-0.4,0.8H275
				c-0.2,0-0.4-0.1-0.5-0.3c-0.9-1.6-1.6-3-1.6-3c-0.3,0.6-0.4,0.9-1.6,3c-0.1,0.2-0.3,0.3-0.5,0.3h-1.5c-0.4,0-0.7-0.5-0.4-0.8
				l2.6-4.1L269,305c-0.2-0.3,0-0.8,0.4-0.8h1.5c0.2,0,0.4,0.1,0.5,0.3c1.1,2.1,0.9,1.5,1.6,3c0,0,0.3-0.5,1.6-3
				c0.1-0.2,0.3-0.3,0.5-0.3h1.5C277,304.2,277.2,304.6,277,305L277,305z M281.4,299.7v0.3h-5.6v-5.6h0.3c0.3,0,0.5,0.1,0.7,0.3
				l4.3,4.3C281.2,299.2,281.4,299.5,281.4,299.7z"/>
			<path id="POWERPOINT_x5F_picto_1_" class="st8" d="M228.1,306.2c0.4,0,0.7,0.1,0.9,0.4c0.4,0.5,0.4,1.4,0,1.9
				c-0.2,0.2-0.5,0.4-0.9,0.4h-1.2v-2.6H228.1z M236,299l-4.3-4.3c-0.2-0.2-0.5-0.3-0.7-0.3h-0.3v5.6h5.6v-0.3
				C236.4,299.5,236.2,299.2,236,299z M229.4,300.3v-5.9h-8.7c-0.6,0-1,0.5-1,1v20.2c0,0.6,0.5,1,1,1h14.6c0.6,0,1-0.5,1-1v-14.3
				h-5.9C229.9,301.4,229.4,300.9,229.4,300.3z M231.7,307.5c0,3.9-3.9,3.4-4.8,3.4v2.5c0,0.3-0.2,0.5-0.5,0.5H225
				c-0.3,0-0.5-0.2-0.5-0.5v-8.7c0-0.3,0.2-0.5,0.5-0.5h3.5C230.5,304.2,231.7,305.6,231.7,307.5z"/>
			<path id="WORD_x5F_picto_1_" class="st8" d="M252.4,298.6v-7.9h-11.6c-0.8,0-1.4,0.6-1.4,1.4V319c0,0.8,0.6,1.4,1.4,1.4h19.5
				c0.8,0,1.4-0.6,1.4-1.4v-19h-7.9C253,300,252.4,299.4,252.4,298.6z M255.7,305.6h1.4c0.4,0,0.8,0.4,0.7,0.9l-2.2,9.7
				c-0.1,0.3-0.4,0.5-0.7,0.5h-2.2c-0.3,0-0.6-0.2-0.7-0.5c-1.5-6-1.2-4.7-1.5-6.4h0c-0.1,0.8-0.1,1-1.5,6.4
				c-0.1,0.3-0.4,0.5-0.7,0.5h-2.2c-0.3,0-0.6-0.2-0.7-0.5l-2.2-9.7c-0.1-0.4,0.2-0.8,0.7-0.8h1.4c0.3,0,0.6,0.2,0.7,0.6
				c0.9,4.5,1.2,6.4,1.2,7.1c0.1-0.6,0.4-1.9,1.7-7.1c0.1-0.3,0.4-0.5,0.7-0.5h1.7c0.3,0,0.6,0.2,0.7,0.5c1.4,5.8,1.7,7.2,1.7,7.5
				c0-0.6-0.2-1,1.3-7.5C255.1,305.8,255.3,305.6,255.7,305.6z M261.6,297.8v0.4h-7.4v-7.4h0.4c0.4,0,0.7,0.1,1,0.4l5.7,5.7
				C261.5,297.1,261.6,297.4,261.6,297.8z"/>
		</g>
		<g id="bloc_x5F_sauvegarde_2_">
			<path class="st7" d="M294.2,452.7h-87.4c-2.8,0-5-2.2-5-5v-87.4c0-2.8,2.2-5,5-5h87.4c2.8,0,5,2.2,5,5v87.4
				C299.2,450.5,296.9,452.7,294.2,452.7z"/>
			<text transform="matrix(1 0 0 1 212.0902 383.407)"><tspan x="0" y="0" class="st8 st23 st24">Sauvegarde</tspan><tspan x="-1" y="12" class="st8 st23 st24">externalisée</tspan></text>
			<path class="st8" d="M261.4,410l-4.3-4.3c-0.5-0.5-1.1-0.7-1.7-0.7h-13.8c-1.4,0-2.5,1.1-2.5,2.5v18.1c0,1.4,1.1,2.5,2.5,2.5
				h18.1c1.4,0,2.5-1.1,2.5-2.5v-13.8C262.2,411.1,261.9,410.5,261.4,410L261.4,410z M250.7,424.7c-1.8,0-3.3-1.5-3.3-3.3
				s1.5-3.3,3.3-3.3s3.3,1.5,3.3,3.3S252.5,424.7,250.7,424.7z M255.6,409.1v5.2c0,0.3-0.3,0.6-0.6,0.6h-11.9
				c-0.3,0-0.6-0.3-0.6-0.6v-5.3c0-0.3,0.3-0.6,0.6-0.6h11.7c0.2,0,0.3,0.1,0.4,0.2l0.2,0.2C255.5,408.8,255.6,408.9,255.6,409.1z"
				/>
		</g>
		<g id="bloc_x5F_donnees_2_">
			<path class="st7" d="M182.4,564H95c-2.8,0-5-2.2-5-5v-87.4c0-2.8,2.2-5,5-5h87.4c2.8,0,5,2.2,5,5V559
				C187.4,561.7,185.1,564,182.4,564z"/>
			<text transform="matrix(1 0 0 1 109.7335 494.6554)" class="st8 st23 st24">Données</text>
			<path class="st8" d="M150.5,514.9v2.4c0,2.2-5.4,3.9-12,3.9c-6.6,0-12-1.8-12-3.9v-2.4c0-2.2,5.4-3.9,12-3.9
				C145.2,511,150.5,512.8,150.5,514.9z M150.5,520.4v5.5c0,2.2-5.4,3.9-12,3.9c-6.6,0-12-1.8-12-3.9v-5.5c2.6,1.8,7.3,2.6,12,2.6
				C143.2,523,148,522.2,150.5,520.4z M150.5,529v5.5c0,2.2-5.4,3.9-12,3.9c-6.6,0-12-1.8-12-3.9V529c2.6,1.8,7.3,2.6,12,2.6
				C143.2,531.6,148,530.8,150.5,529z"/>
		</g>
		<g id="bloc_x5F_logiciels_2_">
			<path class="st7" d="M294.2,230.2h-87.4c-2.8,0-5-2.2-5-5v-87.4c0-2.8,2.2-5,5-5h87.4c2.8,0,5,2.2,5,5v87.4
				C299.2,228,296.9,230.2,294.2,230.2z"/>
			<text transform="matrix(1 0 0 1 222.0804 160.9107)"><tspan x="0" y="0" class="st8 st23 st24">Logiciels</tspan><tspan x="4.1" y="12" class="st8 st23 st24">métiers</tspan></text>
			<path class="st8" d="M264.6,202.8h-25.3V185c0-0.5-0.4-0.9-0.9-0.9h-1.9c-0.5,0-0.9,0.4-0.9,0.9v19.7c0,1,0.8,1.9,1.9,1.9h27.2
				c0.5,0,0.9-0.4,0.9-0.9v-1.9C265.5,203.3,265.1,202.8,264.6,202.8z M262.7,185.9h-6.9c-1.3,0-1.9,1.5-1,2.4l1.9,1.9l-4.3,4.3
				l-4.3-4.3c-0.7-0.7-1.9-0.7-2.7,0l-4,4c-0.4,0.4-0.4,1,0,1.3l1.3,1.3c0.4,0.4,1,0.4,1.3,0l2.7-2.7l4.3,4.3c0.7,0.7,1.9,0.7,2.7,0
				l5.6-5.6l1.9,1.9c0.9,0.9,2.4,0.3,2.4-1v-6.9C263.6,186.4,263.2,185.9,262.7,185.9z"/>
		</g>
		<g id="CLOUD_x5F_picto_1_">
			<path class="st6" d="M299.5,87.6c0,0,5.6-16.6,23.3-16.6s22.6,17.7,22.6,17.7s19.2,0.7,19.2,20.3c0,17.7-18.6,19.4-19.4,19.4
				c-0.8,0-23.4,0.2-24.6,0.2c-1.2,0-2.4-1.2-2.4-2.6c0-1.4,0-13.5,0-15.6c0-1.4-1.6-3.7-3.5-3.7c-1,0-6.8,0-7.9,0
				c-1,0-2.4-0.5-2.4-2.8c0-2.3,0-8.5,0-11.9C304.4,88.5,300.8,87.6,299.5,87.6z"/>
			<path class="st6" d="M306.6,128.4c0,0,3.1,0,5.4,0s3.5-1.2,3.5-3c0-1.7,0-12.6,0-13.5c0-0.9-0.9-2.4-2.5-2.4c-1.6,0-5.7,0-5.7,0
				h-2.4c0,0-4.2,0-5.7,0c-1.6,0-2.4,1.6-2.4,2.4c0,0.9,0,11.7,0,13.5c0,1.7,1.2,3,3.5,3c2.3,0,5.4,0,5.4,0H306.6z"/>
			<path class="st6" d="M280.8,128.4c0,0,1.8,0,3.1,0c1.3,0,2-0.7,2-1.7c0-1,0-7.3,0-7.8c0-0.5-0.5-1.4-1.4-1.4c-0.9,0-3.3,0-3.3,0
				h-1.4c0,0-2.4,0-3.3,0c-0.9,0-1.4,0.9-1.4,1.4c0,0.5,0,6.8,0,7.8c0,1,0.7,1.7,2,1.7c1.3,0,3.1,0,3.1,0H280.8z"/>
			<path class="st6" d="M294,106.7c0,0,2.6,0,4.6,0c1.9,0,3-1,3-2.5s0-10.7,0-11.4c0-0.7-0.7-2.1-2.1-2.1c-1.3,0-4.9,0-4.9,0h-2
				c0,0-3.5,0-4.9,0c-1.3,0-2.1,1.3-2.1,2.1c0,0.7,0,9.9,0,11.4s1,2.5,3,2.5c1.9,0,4.6,0,4.6,0H294z"/>
			<path class="st6" d="M276.9,114.5c0,0,2.2,0,3.8,0c1.6,0,2.5-0.9,2.5-2.1c0-1.2,0-8.9,0-9.5c0-0.6-0.6-1.7-1.7-1.7
				c-1.1,0-4,0-4,0h-1.7c0,0-2.9,0-4,0s-1.7,1.1-1.7,1.7c0,0.6,0,8.2,0,9.5c0,1.2,0.9,2.1,2.5,2.1c1.6,0,3.8,0,3.8,0H276.9z"/>
			<path class="st6" d="M279.8,98.3c0,0,1.2,0,2,0c0.9,0,1.3-0.5,1.3-1.1c0-0.7,0-4.7,0-5.1c0-0.3-0.3-0.9-0.9-0.9s-2.2,0-2.2,0
				h-0.9c0,0-1.6,0-2.2,0c-0.6,0-0.9,0.6-0.9,0.9c0,0.3,0,4.4,0,5.1c0,0.7,0.5,1.1,1.3,1.1c0.9,0,2,0,2,0H279.8z"/>
			<path class="st6" d="M269.5,124.6c0,0,1.2,0,2,0c0.9,0,1.3-0.5,1.3-1.1c0-0.7,0-4.7,0-5.1c0-0.3-0.3-0.9-0.9-0.9
				c-0.6,0-2.2,0-2.2,0h-0.9c0,0-1.6,0-2.2,0c-0.6,0-0.9,0.6-0.9,0.9c0,0.3,0,4.4,0,5.1c0,0.7,0.5,1.1,1.3,1.1c0.9,0,2,0,2,0
				L269.5,124.6L269.5,124.6z"/>
			<path class="st6" d="M290.2,117.6c0,0,1.3,0,2.3,0c1,0,1.5-0.5,1.5-1.3c0-0.8,0-5.4,0-5.8c0-0.4-0.4-1.1-1.1-1.1
				c-0.7,0-2.5,0-2.5,0h-1c0,0-1.8,0-2.5,0c-0.7,0-1.1,0.7-1.1,1.1c0,0.4,0,5.1,0,5.8c0,0.8,0.5,1.3,1.5,1.3c1,0,2.3,0,2.3,0H290.2z
				"/>
			<path class="st6" d="M291.6,124.9c0,0,0.9,0,1.5,0c0.6,0,1-0.3,1-0.8s0-3.5,0-3.7s-0.2-0.7-0.7-0.7c-0.4,0-1.6,0-1.6,0h-0.7
				c0,0-1.1,0-1.6,0c-0.4,0-0.7,0.4-0.7,0.7c0,0.2,0,3.2,0,3.7c0,0.5,0.3,0.8,1,0.8c0.6,0,1.5,0,1.5,0H291.6z"/>
		</g>
	</g>
	<g id="SITES_x5F_PRODUCTION_1_">
		<g>
			<rect x="557.4" y="204.6" class="st12" width="13" height="104.5"/>
		</g>
		<path class="st14" d="M570.4,281.9c-2.5-0.3-5.1-0.5-7.7-0.5c-1.8,0-3.5,0.1-5.3,0.2v27.4h13V281.9z"/>
		<text transform="matrix(1 0 0 1 622.0486 114.1512)" class="st25 st19 st26">sites de production</text>
		<g id="PC_x5F_fixes_1_">
			<path class="st13" d="M678.5,129.3h-45.2c-2.5,0-4.5,2-4.5,4.5V164c0,2.5,2,4.5,4.5,4.5h18.1l-1.5,4.5h-6.8c-1.3,0-2.3,1-2.3,2.3
				c0,1.3,1,2.3,2.3,2.3h25.6c1.3,0,2.3-1,2.3-2.3c0-1.3-1-2.3-2.3-2.3h-6.8l-1.5-4.5h18.1c2.5,0,4.5-2,4.5-4.5v-30.1
				C683,131.3,681,129.3,678.5,129.3z M677,162.5h-42.2v-27.1H677V162.5z"/>
			<path class="st13" d="M493.3,129.3h-45.2c-2.5,0-4.5,2-4.5,4.5V164c0,2.5,2,4.5,4.5,4.5h18.1l-1.5,4.5h-6.8c-1.3,0-2.3,1-2.3,2.3
				c0,1.3,1,2.3,2.3,2.3h25.6c1.3,0,2.3-1,2.3-2.3c0-1.3-1-2.3-2.3-2.3h-6.8l-1.5-4.5h18.1c2.5,0,4.5-2,4.5-4.5v-30.1
				C497.8,131.3,495.8,129.3,493.3,129.3z M491.8,162.5h-42.2v-27.1h42.2V162.5z"/>
			<path class="st13" d="M740.2,129.3H695c-2.5,0-4.5,2-4.5,4.5V164c0,2.5,2,4.5,4.5,4.5h18.1l-1.5,4.5h-6.8c-1.3,0-2.3,1-2.3,2.3
				c0,1.3,1,2.3,2.3,2.3h25.6c1.3,0,2.3-1,2.3-2.3c0-1.3-1-2.3-2.3-2.3h-6.8l-1.5-4.5h18.1c2.5,0,4.5-2,4.5-4.5v-30.1
				C744.8,131.3,742.7,129.3,740.2,129.3z M738.7,162.5h-42.2v-27.1h42.2V162.5z"/>
			<path class="st13" d="M555,129.3h-45.2c-2.5,0-4.5,2-4.5,4.5V164c0,2.5,2,4.5,4.5,4.5h18.1l-1.5,4.5h-6.8c-1.3,0-2.3,1-2.3,2.3
				c0,1.3,1,2.3,2.3,2.3h25.6c1.3,0,2.3-1,2.3-2.3c0-1.3-1-2.3-2.3-2.3h-6.8l-1.5-4.5H555c2.5,0,4.5-2,4.5-4.5v-30.1
				C559.6,131.3,557.5,129.3,555,129.3z M553.5,162.5h-42.2v-27.1h42.2V162.5z"/>
			<path class="st13" d="M802,129.3h-45.2c-2.5,0-4.5,2-4.5,4.5V164c0,2.5,2,4.5,4.5,4.5h18.1l-1.5,4.5h-6.8c-1.3,0-2.3,1-2.3,2.3
				c0,1.3,1,2.3,2.3,2.3h25.6c1.3,0,2.3-1,2.3-2.3c0-1.3-1-2.3-2.3-2.3h-6.8l-1.5-4.5H802c2.5,0,4.5-2,4.5-4.5v-30.1
				C806.5,131.3,804.5,129.3,802,129.3z M800.5,162.5h-42.2v-27.1h42.2V162.5z"/>
			<path class="st13" d="M616.8,129.3h-45.2c-2.5,0-4.5,2-4.5,4.5V164c0,2.5,2,4.5,4.5,4.5h18.1l-1.5,4.5h-6.8c-1.3,0-2.3,1-2.3,2.3
				c0,1.3,1,2.3,2.3,2.3H607c1.3,0,2.3-1,2.3-2.3c0-1.3-1-2.3-2.3-2.3h-6.8l-1.5-4.5h18.1c2.5,0,4.5-2,4.5-4.5v-30.1
				C621.3,131.3,619.3,129.3,616.8,129.3z M615.3,162.5h-42.2v-27.1h42.2V162.5z"/>
		</g>
		<g id="connexions_1_">
			<g>
				<polygon class="st12" points="785.9,211.1 464.2,211.1 464.2,177.5 477.2,177.5 477.2,198.1 772.9,198.1 772.9,177.5 
					785.9,177.5 				"/>
			</g>
			<g>
				<rect x="711.1" y="177.5" class="st12" width="13" height="27.1"/>
			</g>
			<g>
				<rect x="649.4" y="177.5" class="st12" width="13" height="27.1"/>
			</g>
			<g>
				<rect x="587.7" y="177.5" class="st12" width="13" height="27.1"/>
			</g>
			<g>
				<rect x="525.9" y="177.5" class="st12" width="13" height="27.1"/>
			</g>
			<rect x="464.2" y="177.5" class="st15" width="13" height="5.9"/>
			<rect x="525.9" y="177.5" class="st15" width="13" height="5.9"/>
			<rect x="587.7" y="177.5" class="st15" width="13" height="5.9"/>
			<rect x="649.4" y="177.5" class="st15" width="13" height="5.9"/>
			<rect x="711.1" y="177.5" class="st15" width="13" height="5.9"/>
			<rect x="772.9" y="177.5" class="st15" width="13" height="5.9"/>
		</g>
	</g>
	<g id="PERSONNEL_x5F_TELETRAVAIL_1_">
		<text transform="matrix(1 0 0 1 447.1542 569.4058)" class="st25 st19 st26">personnel en télétravail</text>
		<g id="portables_x5F_teletravail_2_">
			<path id="portable_11_" class="st13" d="M587.7,533.9h-20.6c-0.1,1.7-1.2,2.7-2.8,2.7h-5.2c-1.6,0-2.8-1.5-2.8-2.7h-20.3
				c-0.7,0-1.4,0.6-1.4,1.4v1.4c0,3,2.4,5.4,5.4,5.4h43.4c3,0,5.4-2.4,5.4-5.4v-1.4C589,534.5,588.4,533.9,587.7,533.9z
				 M583.6,502.6c0-2.2-1.8-4.1-4.1-4.1h-35.3c-2.2,0-4.1,1.8-4.1,4.1v28.5h43.4V502.6z M578.2,525.7h-32.6V504h32.6V525.7z"/>
			<path id="portable_10_" class="st13" d="M670.6,533.9h-20.6c-0.1,1.7-1.2,2.7-2.8,2.7h-5.2c-1.6,0-2.8-1.5-2.8-2.7h-20.3
				c-0.7,0-1.4,0.6-1.4,1.4v1.4c0,3,2.4,5.4,5.4,5.4h43.4c3,0,5.4-2.4,5.4-5.4v-1.4C672,534.5,671.4,533.9,670.6,533.9z
				 M666.5,502.6c0-2.2-1.8-4.1-4.1-4.1h-35.3c-2.2,0-4.1,1.8-4.1,4.1v28.5h43.4V502.6z M661.1,525.7h-32.6V504h32.6V525.7z"/>
			<path id="portable_9_" class="st13" d="M504.8,533.9h-20.6c-0.1,1.7-1.2,2.7-2.8,2.7h-5.2c-1.6,0-2.8-1.5-2.8-2.7h-20.3
				c-0.7,0-1.4,0.6-1.4,1.4v1.4c0,3,2.4,5.4,5.4,5.4h43.4c3,0,5.4-2.4,5.4-5.4v-1.4C506.1,534.5,505.5,533.9,504.8,533.9z
				 M500.7,502.6c0-2.2-1.8-4.1-4.1-4.1h-35.3c-2.2,0-4.1,1.8-4.1,4.1v28.5h43.4V502.6z M495.3,525.7h-32.6V504h32.6V525.7z"/>
		</g>
		<g>
			<polygon class="st12" points="485.5,498.6 472.5,498.6 472.5,440 548.8,350.8 558.7,359.2 485.5,444.8 			"/>
		</g>
		<g>
			<polygon class="st12" points="649.7,498.6 636.7,498.6 636.7,444.8 563.5,359.2 573.4,350.8 649.7,440 			"/>
		</g>
		<g>
			<rect x="555.4" y="382.5" class="st12" width="13" height="116.1"/>
		</g>
		<path class="st14" d="M512.3,393.5c2.9,3.2,6.1,6.2,9.5,8.9l36.9-43.2l-9.9-8.4L512.3,393.5z"/>
		<path class="st14" d="M563.5,359.2l38.1,44.6c3.5-2.5,6.8-5.4,9.8-8.5l-38.1-44.5L563.5,359.2z"/>
		<path class="st14" d="M555.4,415.8c2.4,0.3,4.8,0.4,7.3,0.4c1.9,0,3.8-0.1,5.7-0.3v-33.4h-13V415.8z"/>
		<rect x="472.5" y="492.6" class="st15" width="13" height="5.9"/>
		<rect x="555.4" y="492.6" class="st15" width="13" height="5.9"/>
		<rect x="636.7" y="492.6" class="st15" width="13" height="5.9"/>
	</g>
	<g id="PERSONNEL_x5F_ITINERANT_1_">
		<g>
			<rect x="605.8" y="342.3" class="st12" width="134.2" height="13"/>
		</g>
		<g>
			<polygon class="st12" points="566.9,357.1 560.9,345.6 685.4,280 811.7,280 811.7,293 688.6,293 			"/>
		</g>
		<g>
			<polygon class="st12" points="811.7,422.8 685.4,422.8 560.9,357.1 566.9,345.6 688.6,409.8 811.7,409.8 			"/>
		</g>
		<text transform="matrix(1 0 0 1 776.0099 343.9468)"><tspan x="0" y="0" class="st25 st19 st26">personnel</tspan><tspan x="8.4" y="25" class="st25 st19 st26">itinérant</tspan></text>
		<path class="st17" d="M734.9,360.3"/>
		<path class="st14" d="M605.8,355.3h23.9c0.2-2.1,0.3-4.3,0.3-6.5c0-2.2-0.1-4.4-0.3-6.5h-23.9V355.3z"/>
		<path class="st14" d="M566.9,357.1L626,326c-1.5-4.1-3.4-8.1-5.6-11.8l-59.6,31.4L566.9,357.1z"/>
		<path class="st14" d="M560.9,357.1l57.1,30.1c2.5-3.5,4.6-7.3,6.4-11.3l-57.4-30.3L560.9,357.1z"/>
		<g id="devices_x5F_itinerant_1_">
			<path id="mobile_2_" class="st13" d="M760.9,329.3h-17.2c-2,0-3.7,1.7-3.7,3.7v32c0,2,1.7,3.7,3.7,3.7h17.2c2,0,3.7-1.7,3.7-3.7
				v-32C764.6,330.9,762.9,329.3,760.9,329.3z M752.3,366.1c-1.4,0-2.5-1.1-2.5-2.5c0-1.4,1.1-2.5,2.5-2.5s2.5,1.1,2.5,2.5
				C754.8,365,753.7,366.1,752.3,366.1z M760.9,357.8c0,0.5-0.4,0.9-0.9,0.9h-15.4c-0.5,0-0.9-0.4-0.9-0.9v-24
				c0-0.5,0.4-0.9,0.9-0.9H760c0.5,0,0.9,0.4,0.9,0.9V357.8z"/>
			<path id="portable_8_" class="st13" d="M857.1,428.3h-20.6c-0.1,1.7-1.2,2.7-2.8,2.7h-5.2c-1.6,0-2.8-1.5-2.8-2.7h-20.3
				c-0.7,0-1.4,0.6-1.4,1.4v1.4c0,3,2.4,5.4,5.4,5.4H853c3,0,5.4-2.4,5.4-5.4v-1.4C858.5,428.9,857.9,428.3,857.1,428.3z M853,397.1
				c0-2.2-1.8-4.1-4.1-4.1h-35.3c-2.2,0-4.1,1.8-4.1,4.1v28.5H853V397.1z M847.6,420.2h-32.6v-21.7h32.6V420.2z"/>
			<path id="tablette_2_" class="st13" d="M851.5,299.8v-27.7c0-2.1-1.7-3.8-3.8-3.8H815c-2.1,0-3.8,1.7-3.8,3.8v27.7
				c0,2.1,1.7,3.8,3.8,3.8h32.8C849.8,303.6,851.5,301.9,851.5,299.8z M813.7,286c0-1.4,1.1-2.5,2.5-2.5c1.4,0,2.5,1.1,2.5,2.5
				c0,1.4-1.1,2.5-2.5,2.5C814.8,288.5,813.7,287.4,813.7,286z M822.2,299.8c-0.5,0-0.9-0.4-0.9-0.9v-25.8c0-0.5,0.4-0.9,0.9-0.9
				h24.6c0.5,0,0.9,0.4,0.9,0.9v25.8c0,0.5-0.4,0.9-0.9,0.9H822.2z"/>
		</g>
		
			<rect x="800.2" y="413.4" transform="matrix(6.123234e-17 -1 1 6.123234e-17 390.3553 1223.0198)" class="st15" width="13" height="5.9"/>
		
			<rect x="730.6" y="345.9" transform="matrix(6.123234e-17 -1 1 6.123234e-17 388.2455 1085.903)" class="st15" width="13" height="5.9"/>
		
			<rect x="801.7" y="283.5" transform="matrix(6.123234e-17 -1 1 6.123234e-17 521.7771 1094.7032)" class="st15" width="13" height="5.9"/>
	</g>
	<g id="INTERNET_2_">
		
			<rect x="466.1" y="299.6" transform="matrix(6.123234e-17 -1 1 6.123234e-17 130.156 827.8132)" class="st11" width="25.7" height="98.4"/>
		<path class="st14" d="M429.8,361.7h11.7c1.2-4.1,1.9-8.4,1.9-12.9c0-4.5-0.7-8.8-1.9-12.9h-11.7V361.7z"/>
		<path class="st14" d="M494.9,348.8c0,4.4,0.5,8.7,1.6,12.9h17.7V336h-17.7C495.4,340.1,494.9,344.4,494.9,348.8z"/>
		<g>
			<circle class="st11" cx="562.7" cy="348.8" r="59.5"/>
		</g>
		<path class="st16" d="M579.5,330.5c-2.8-17-9.3-28.9-16.9-28.9s-14.1,11.9-16.9,28.9H579.5z M544.4,348.8c0,4.2,0.2,8.3,0.6,12.2
			h35.3c0.4-3.9,0.6-8,0.6-12.2c0-4.2-0.2-8.3-0.6-12.2H545C544.6,340.5,544.4,344.6,544.4,348.8z M606.2,330.5
			c-5.4-12.9-16.5-22.9-30.1-27c4.6,6.4,7.8,16.1,9.5,27H606.2z M549.2,303.6c-13.6,4-24.6,14-30.1,27h20.6
			C541.3,319.7,544.5,310,549.2,303.6L549.2,303.6z M608.3,336.6h-21.8c0.4,4,0.6,8.1,0.6,12.2s-0.2,8.2-0.6,12.2h21.8
			c1-3.9,1.6-8,1.6-12.2C609.9,344.6,609.3,340.5,608.3,336.6L608.3,336.6z M538.3,348.8c0-4.1,0.2-8.2,0.6-12.2h-21.8
			c-1,3.9-1.6,8-1.6,12.2c0,4.2,0.6,8.3,1.6,12.2h21.8C538.5,357,538.3,352.9,538.3,348.8z M545.8,367.1c2.8,17,9.3,28.9,16.9,28.9
			s14.1-11.9,16.9-28.9H545.8z M576.2,394.1c13.6-4,24.6-14,30.1-27h-20.6C584,377.9,580.8,387.6,576.2,394.1z M519.1,367.1
			c5.4,12.9,16.5,22.9,30.1,27c-4.6-6.4-7.8-16.1-9.5-27H519.1z"/>
		<text transform="matrix(1 0 0 1 518.4634 356.1782)" class="st7 st19 st27">Internet</text>
	</g>
	<g id="ACCES_x5F_SECURISE_3_">
		
			<rect x="327.1" y="320.3" transform="matrix(6.123234e-17 -1 1 6.123234e-17 -8.8401 688.8171)" class="st6" width="25.7" height="57"/>
		<g id="cadenas_3_">
			<circle class="st6" cx="429.8" cy="303.7" r="22.5"/>
			<path id="cadenas_4_" class="st7" d="M437.2,300.2C437.2,300.2,437.2,300.2,437.2,300.2l0-4.6c0-1.4-0.9-3.2-2-4.1
				c-5.9-4.5-12.4-0.3-12.4,5.3v3.4c0,0,0,0,0,0h-3.4v13.6h21.2v-13.6H437.2z M433.4,300.2h-6.8v-4.5c0-0.3,0.1-0.7,0.4-0.9
				c2.9-2.9,6.5-0.9,6.5,2V300.2z"/>
		</g>
		<g id="ACCES_x5F_SECURISE_4_">
			<g>
				<circle class="st6" cx="398.1" cy="348.8" r="38.9"/>
			</g>
			<text transform="matrix(1 0 0 1 374.4258 342.9434)"><tspan x="0" y="0" class="st7 st19 st28">Accès</tspan><tspan x="-9.5" y="21" class="st7 st19 st28">sécurisé</tspan></text>
		</g>
	</g>
</g>
</svg>
