<?xml version="1.0" encoding="utf-8"?>
<!-- Generator: Adobe Illustrator 24.2.1, SVG Export Plug-In . SVG Version: 6.00 Build 0)  -->
<svg version="1.1" id="Calque_1" xmlns="http://www.w3.org/2000/svg" xmlns:xlink="http://www.w3.org/1999/xlink" x="0px" y="0px"
	 viewBox="0 0 49.6 28.88" style="enable-background:new 0 0 49.6 28.88;" xml:space="preserve">
<style type="text/css">
	.st0{fill:#2672D5;}
</style>
<g id="Groupe_684">
	<path id="Tracé_2722" class="st0" d="M16.94,8.34c0,0,2.81-8.34,11.67-8.34s11.32,8.86,11.32,8.86s9.66,0.35,9.66,10.18
		c0,8.86-9.35,9.74-9.74,9.74s-11.72,0.09-12.33,0.09c-0.68-0.06-1.2-0.64-1.19-1.32v-7.81c-0.08-0.95-0.81-1.71-1.75-1.84h-3.96
		c-0.53,0-1.23-0.26-1.23-1.4v-5.97C19.4,8.82,17.56,8.34,16.94,8.34z"/>
	<path id="Tracé_2723" class="st0" d="M20.47,28.81c0,0,1.56-0.02,2.7-0.02s1.76-0.61,1.76-1.49v-6.76
		c-0.04-0.66-0.57-1.19-1.23-1.23h-6.96c-0.66,0.04-1.19,0.57-1.23,1.23v6.76c0,0.88,0.61,1.49,1.76,1.49s2.7,0.02,2.7,0.02
		L20.47,28.81z"/>
	<path id="Tracé_2724" class="st0" d="M7.55,28.81c0,0,0.91-0.01,1.57-0.01s1.02-0.36,1.02-0.87v-3.92
		c-0.02-0.38-0.33-0.69-0.71-0.71H5.38C5,23.32,4.69,23.63,4.67,24.01v3.92c0,0.51,0.36,0.87,1.02,0.87s1.57,0.01,1.57,0.01H7.55z"
		/>
	<path id="Tracé_2725" class="st0" d="M14.18,17.94c0,0,1.32-0.02,2.29-0.02s1.49-0.52,1.49-1.26v-5.72
		c-0.03-0.56-0.48-1.01-1.04-1.04h-5.9c-0.56,0.03-1.01,0.48-1.04,1.04v5.73c0,0.74,0.52,1.26,1.49,1.26s2.29,0.02,2.29,0.02
		L14.18,17.94z"/>
	<path id="Tracé_2726" class="st0" d="M5.59,21.84c0,0,1.1-0.02,1.9-0.02s1.23-0.43,1.23-1.05v-4.75c-0.03-0.46-0.4-0.84-0.86-0.86
		h-4.9c-0.46,0.03-0.84,0.4-0.86,0.86v4.75c0,0.62,0.43,1.05,1.24,1.05s1.9,0.02,1.9,0.02L5.59,21.84z"/>
	<path id="Tracé_2727" class="st0" d="M7.05,13.73c0,0,0.59-0.01,1.02-0.01s0.66-0.23,0.66-0.56v-2.54
		c-0.02-0.25-0.21-0.45-0.46-0.46H5.64c-0.25,0.02-0.45,0.21-0.46,0.46v2.54c0,0.33,0.23,0.56,0.66,0.56s1.02,0.01,1.02,0.01
		L7.05,13.73z"/>
	<path id="Tracé_2728" class="st0" d="M1.87,26.9c0,0,0.59-0.01,1.02-0.01s0.66-0.23,0.66-0.56v-2.54
		c-0.02-0.25-0.21-0.45-0.46-0.46H0.46C0.21,23.34,0.02,23.54,0,23.79v2.54c0,0.33,0.23,0.56,0.66,0.56s1.02,0.01,1.02,0.01H1.87
		L1.87,26.9z"/>
	<path id="Tracé_2729" class="st0" d="M12.28,23.39c0,0,0.67-0.01,1.17-0.01s0.76-0.26,0.76-0.64v-2.92
		c-0.02-0.29-0.24-0.51-0.53-0.53h-3.01c-0.29,0.02-0.51,0.24-0.53,0.53v2.92c0,0.38,0.26,0.64,0.76,0.64s1.17,0.01,1.17,0.01H12.28
		z"/>
	<path id="Tracé_2730" class="st0" d="M12.98,27.05c0,0,0.43-0.01,0.75-0.01s0.49-0.17,0.49-0.41v-1.87
		c-0.01-0.18-0.16-0.33-0.34-0.34h-1.93c-0.18,0.01-0.33,0.16-0.34,0.34v1.87c0,0.24,0.17,0.41,0.49,0.41s0.75,0.01,0.75,0.01
		L12.98,27.05z"/>
</g>
</svg>
