<?xml version="1.0" encoding="utf-8"?>
<!-- Generator: Adobe Illustrator 24.2.1, SVG Export Plug-In . SVG Version: 6.00 Build 0)  -->
<svg version="1.1" id="Calque_1" xmlns="http://www.w3.org/2000/svg" xmlns:xlink="http://www.w3.org/1999/xlink" x="0px" y="0px"
	 viewBox="0 0 38.13 35.75" style="enable-background:new 0 0 38.13 35.75;" xml:space="preserve">
<style type="text/css">
	.st0{fill:#2672D5;}
</style>
<g id="Groupe_683" transform="translate(0 -1)">
	<g id="Groupe_682" transform="translate(0 1)">
		<path id="Tracé_2719" class="st0" d="M9.53,4.77H2.38C1.07,4.77,0,5.83,0,7.15v26.22c0,1.32,1.07,2.38,2.38,2.38c0,0,0,0,0,0
			h7.15c1.31,0,2.38-1.06,2.38-2.38c0,0,0,0,0,0V7.15C11.92,5.83,10.85,4.77,9.53,4.77C9.53,4.77,9.53,4.77,9.53,4.77z M3.58,28.6
			c-0.66,0-1.19-0.53-1.19-1.19c0-0.66,0.53-1.19,1.19-1.19s1.19,0.53,1.19,1.19c0,0,0,0,0,0C4.77,28.07,4.23,28.6,3.58,28.6
			C3.58,28.6,3.58,28.6,3.58,28.6z M9.53,14.3H2.38v-2.38h7.15V14.3z M9.53,9.53H2.38V7.15h7.15V9.53z"/>
		<path id="Tracé_2720" class="st0" d="M25.03,30.99V28.6h-7.15v2.38c-1.31,0-2.38,1.06-2.38,2.38c0,0,0,0,0,0h11.92
			C27.41,32.05,26.35,30.99,25.03,30.99C25.03,30.99,25.03,30.99,25.03,30.99z"/>
		<path id="Tracé_2721" class="st0" d="M35.75,0H7.15C5.83,0,4.77,1.07,4.77,2.38h30.98v19.07H14.3v4.77h21.45
			c1.32,0,2.38-1.07,2.38-2.38c0,0,0,0,0,0V2.38C38.13,1.07,37.07,0,35.75,0z M21.45,25.02c-0.66,0-1.19-0.53-1.19-1.19
			c0-0.66,0.53-1.19,1.19-1.19c0.66,0,1.19,0.53,1.19,1.19c0,0,0,0,0,0C22.64,24.49,22.11,25.02,21.45,25.02z"/>
	</g>
</g>
</svg>
