<?xml version="1.0" encoding="utf-8"?>
<!-- Generator: Adobe Illustrator 25.1.0, SVG Export Plug-In . SVG Version: 6.00 Build 0)  -->
<svg version="1.1" id="Calque_1" xmlns="http://www.w3.org/2000/svg" xmlns:xlink="http://www.w3.org/1999/xlink" x="0px" y="0px"
	 viewBox="0 0 41.1 37.9" style="enable-background:new 0 0 41.1 37.9;" xml:space="preserve">
<style type="text/css">
	.st0{fill:#2672D5;}
</style>
<path id="Tracé_2731" class="st0" d="M3.8,26.1c0,0,5.8,6.1,7.1,7.4s0.6,3.1-0.5,4s-4.6,0.1-6.8-3.5s-3.6-9-3.6-14.9
	S2.7,3.7,11.5,1.3s17.2-1.2,21.2,1.2c5.1,3.1,8.3,8.6,8.4,14.5c0.4,7.4-0.7,12.9-5,12.4c-3.1-0.4-2.9-3.5-2.9-4.7
	c0.1-1.2-0.7-2.2-1.9-2.4c0,0-0.1,0-0.1,0c-1.1,0-2.1,0.7-2.5,1.7c0,0,0.4-1.8-0.3-2.6s-2.5-1.4-3.4-0.5c-0.5,0.5-0.9,1.1-1.2,1.7
	v-2.1c0-1.2-0.9-2.1-2-2.2c-1.1-0.1-2.1,0.6-2.4,1.7c-0.3,1,0-8.2,0-10c0.1-1.3-0.9-2.5-2.3-2.6c-0.1,0-0.1,0-0.2,0
	c-1.2,0.2-2.2,1.1-2.3,2.4v15.5c0,2-0.9,2.7-1.5,2.7c-1.4,0-2.6-1.8-3.5-2.5S6.2,22.9,3.8,26.1z"/>
</svg>
