<?xml version="1.0" encoding="utf-8"?>
<!-- Generator: Adobe Illustrator 25.1.0, SVG Export Plug-In . SVG Version: 6.00 Build 0)  -->
<svg version="1.1" id="Calque_1" focusable="false" xmlns="http://www.w3.org/2000/svg" xmlns:xlink="http://www.w3.org/1999/xlink"
	 x="0px" y="0px" viewBox="0 0 384 512" style="enable-background:new 0 0 384 512;" xml:space="preserve">
<style type="text/css">
	.st0{fill:#2672D5;}
</style>
<path class="st0" d="M224,136V0H24C10.7,0,0,10.7,0,24v464c0,13.3,10.7,24,24,24h336c13.3,0,24-10.7,24-24V160H248
	C234.8,160,224,149.2,224,136z M64,72c0-4.4,3.6-8,8-8h80c4.4,0,8,3.6,8,8v16c0,4.4-3.6,8-8,8H72c-4.4,0-8-3.6-8-8V72z M64,136
	c0-4.4,3.6-8,8-8h80c4.4,0,8,3.6,8,8v16c0,4.4-3.6,8-8,8H72c-4.4,0-8-3.6-8-8V136z M256.8,384H304c8.8,0,16,7.2,16,16s-7.2,16-16,16
	h-47.2c-16.4,0-31.3-9.1-38.6-23.9c-2.9-5.9-8.1-6.5-10.2-6.5s-7.2,0.6-10,6.2l-7.7,15.3c-2.7,5.4-8.3,8.8-14.3,8.8
	c-0.4,0-0.8,0-1.1,0c-6.4-0.5-12-4.8-14-10.9L144,354.6l-10.6,31.9c-5.9,17.7-22.4,29.5-41,29.5H80c-8.8,0-16-7.2-16-16
	s7.2-16,16-16h12.4c4.8,0,9.1-3.1,10.6-7.7l18.2-54.6c3.3-9.8,12.4-16.4,22.8-16.4s19.5,6.6,22.8,16.4l13.9,41.6
	c19.8-16.2,54.1-9.7,66,14.2C248.7,381.6,252.6,384,256.8,384L256.8,384z M377,105L279.1,7c-4.5-4.5-10.6-7-17-7H256v128h128v-6.1
	C384,115.6,381.5,109.5,377,105z"/>
</svg>
