<?xml version="1.0" encoding="utf-8"?>
<!-- Generator: Adobe Illustrator 24.2.1, SVG Export Plug-In . SVG Version: 6.00 Build 0)  -->
<svg version="1.1" id="Calque_1" xmlns="http://www.w3.org/2000/svg" xmlns:xlink="http://www.w3.org/1999/xlink" x="0px" y="0px"
	 viewBox="0 0 54.57 25.87" style="enable-background:new 0 0 54.57 25.87;" xml:space="preserve">
<style type="text/css">
	.st0{fill:#2672D5;}
</style>
<g id="Groupe_687" transform="translate(-0.001)">
	<g id="Groupe_686" transform="translate(0.001)">
		<path id="Tracé_2732" class="st0" d="M1.94,4.52c0,0-2.47,4.87,0.27,8.37s7.69,7.34,17.91,7.82s17.15-3.43,20.17-6.65
			c2.44-2.72,2.78-6.73,0.82-9.81c1.6,2.49,2.39,5.42,2.26,8.38l8.78,3.23c-0.94,0.88-1.66,1.96-2.13,3.16
			c-0.33,1.07-0.37,2.2-0.14,3.29l-9.33-3.16c0,0-6.72,7-20.24,6.73S1.67,18.52,0.64,15.84C-0.54,12.05-0.07,7.94,1.94,4.52z"/>
		<path id="Tracé_2733" class="st0" d="M54.26,16.6c-0.57-0.28-1.58,1.58-2.06,2.74S51.52,22.29,52,22.7s1.23-0.55,1.99-2.47
			S54.68,16.81,54.26,16.6z"/>
		<path id="Tracé_2734" class="st0" d="M40.16,8.85c0,0-2.95-8.85-18.11-8.85S3.04,8.1,3.04,9.19s0.07,3.02,0.07,3.02
			c0.99-2.04,2.56-3.74,4.53-4.87c2.51-1.46,5.23-2.52,8.07-3.13c-1.88,1.73-2.9,4.2-2.79,6.75c0,3.63,3.42,8.42,8.42,8.42
			s9.14-3.83,9.14-8.38c0.09-2.56-0.94-5.02-2.81-6.76c0,0,6.87,1.73,9.54,3.99s2.74,3.98,2.74,3.98
			C40.39,11.15,40.46,9.96,40.16,8.85z M18.27,8.51c-0.2,1.09-0.25,2.2-0.14,3.29c0,0-2.81-0.48-3.23-1.1s0.07-3.57,0.96-4.39
			s3.77-0.28,3.77-0.28C19.01,6.75,18.54,7.59,18.27,8.51z"/>
	</g>
</g>
</svg>
