<?xml version="1.0" encoding="utf-8"?>
<!-- Generator: Adobe Illustrator 24.2.1, SVG Export Plug-In . SVG Version: 6.00 Build 0)  -->
<svg version="1.1" id="Calque_1" xmlns="http://www.w3.org/2000/svg" xmlns:xlink="http://www.w3.org/1999/xlink" x="0px" y="0px"
	 viewBox="0 0 200.97 47.26" style="enable-background:new 0 0 200.97 47.26;" xml:space="preserve">
<style type="text/css">
	.st0{fill:#2A437C;}
	.st1{fill:#5F7333;}
	.st2{fill:#020C28;}
	.st3{fill:#8BC540;}
</style>
<g id="LOGO_groupe_CAPLASER" transform="translate(0 -3.432)">
	<g id="Groupe_1" transform="translate(53.828 9.287)">
		<path id="Tracé_1" class="st0" d="M21.91,22.92c0.15,0,0.29,0.03,0.43,0.08c0.15,0.06,0.29,0.16,0.41,0.28l2.38,2.51
			c-1.02,1.35-2.37,2.41-3.92,3.09c-1.77,0.73-3.67,1.09-5.58,1.04c-1.81,0.03-3.61-0.31-5.29-1.01c-1.51-0.63-2.86-1.58-3.97-2.77
			c-1.11-1.22-1.96-2.65-2.5-4.2c-0.59-1.69-0.89-3.48-0.87-5.27c-0.02-1.82,0.32-3.63,0.99-5.33c0.63-1.57,1.58-3,2.78-4.19
			C8,5.95,9.46,5.01,11.06,4.4c1.76-0.67,3.62-1,5.5-0.98c0.92,0,1.84,0.08,2.75,0.26c0.82,0.16,1.63,0.4,2.41,0.71
			c0.72,0.29,1.41,0.65,2.06,1.09c0.61,0.4,1.17,0.87,1.67,1.39L23.42,9.6c-0.13,0.17-0.29,0.32-0.46,0.45
			c-0.22,0.15-0.48,0.22-0.75,0.2c-0.21,0-0.41-0.05-0.6-0.14c-0.19-0.1-0.39-0.21-0.6-0.35s-0.45-0.28-0.7-0.44
			c-0.29-0.18-0.59-0.33-0.91-0.44c-0.4-0.15-0.81-0.27-1.23-0.35c-0.54-0.1-1.09-0.15-1.65-0.14c-1.03-0.01-2.04,0.18-2.99,0.58
			c-0.89,0.38-1.68,0.94-2.32,1.65c-0.67,0.76-1.18,1.65-1.51,2.61c-0.38,1.11-0.56,2.27-0.54,3.43c-0.02,1.2,0.16,2.4,0.54,3.54
			c0.32,0.96,0.81,1.84,1.47,2.61c0.6,0.69,1.34,1.24,2.18,1.61c0.84,0.37,1.75,0.56,2.67,0.55c0.5,0,1-0.02,1.49-0.08
			c0.43-0.05,0.85-0.14,1.25-0.27c0.38-0.13,0.75-0.3,1.1-0.51c0.37-0.23,0.73-0.48,1.06-0.77c0.14-0.12,0.3-0.22,0.46-0.3
			C21.55,22.95,21.73,22.92,21.91,22.92z"/>
		<path id="Tracé_2" class="st0" d="M40.59,29.62c-0.41,0.02-0.81-0.05-1.18-0.21c-0.32-0.21-0.56-0.52-0.67-0.89l-0.39-1.01
			c-0.46,0.39-0.91,0.74-1.33,1.03c-0.42,0.29-0.86,0.54-1.32,0.75c-0.47,0.21-0.96,0.36-1.46,0.46c-0.57,0.11-1.14,0.16-1.72,0.15
			c-0.78,0.01-1.55-0.1-2.3-0.33c-0.64-0.2-1.24-0.53-1.75-0.97c-0.49-0.44-0.87-0.99-1.11-1.6c-0.27-0.7-0.4-1.45-0.39-2.2
			c0.01-0.7,0.18-1.39,0.5-2.02c0.4-0.77,1-1.42,1.72-1.89c1.02-0.65,2.14-1.13,3.31-1.42c1.72-0.42,3.48-0.61,5.25-0.57v-0.79
			c0.08-0.84-0.16-1.68-0.67-2.36c-0.5-0.51-1.19-0.77-1.9-0.73c-0.54-0.02-1.08,0.06-1.6,0.21c-0.38,0.13-0.76,0.29-1.11,0.48
			c-0.33,0.18-0.64,0.34-0.95,0.48c-0.35,0.15-0.72,0.22-1.1,0.21c-0.34,0.01-0.68-0.09-0.97-0.28c-0.26-0.18-0.48-0.41-0.63-0.68
			l-1-1.73c1.08-0.97,2.34-1.71,3.71-2.2c1.4-0.49,2.88-0.73,4.37-0.72c1.03-0.01,2.05,0.17,3.01,0.54
			c0.86,0.34,1.64,0.85,2.28,1.51c0.63,0.66,1.12,1.44,1.43,2.3c0.34,0.93,0.51,1.92,0.5,2.92v11.53H40.59z M34.27,26.27
			c0.64,0.01,1.28-0.11,1.87-0.37c0.61-0.31,1.15-0.72,1.62-1.21v-2.53c-0.91-0.02-1.82,0.06-2.72,0.22
			c-0.58,0.1-1.15,0.28-1.69,0.54c-0.35,0.16-0.65,0.41-0.86,0.74c-0.16,0.27-0.24,0.58-0.24,0.89c-0.05,0.5,0.14,1,0.51,1.34
			C33.21,26.17,33.74,26.3,34.27,26.27z"/>
		<path id="Tracé_3" class="st0" d="M47.04,35.47V11.18h3.42c0.3-0.01,0.61,0.07,0.86,0.23c0.24,0.17,0.41,0.41,0.49,0.69
			l0.41,1.35c0.35-0.39,0.74-0.74,1.15-1.07c0.41-0.32,0.85-0.6,1.31-0.83c0.48-0.24,0.99-0.42,1.51-0.54
			c0.58-0.14,1.17-0.2,1.77-0.2c0.93-0.01,1.85,0.21,2.67,0.64c0.84,0.44,1.56,1.08,2.11,1.85c0.64,0.9,1.11,1.9,1.4,2.96
			c0.35,1.3,0.53,2.63,0.51,3.98c0.01,1.3-0.18,2.6-0.58,3.84c-0.35,1.11-0.9,2.14-1.62,3.06c-0.67,0.85-1.52,1.54-2.49,2.03
			c-1,0.49-2.1,0.74-3.21,0.73c-0.83,0.02-1.65-0.12-2.42-0.41c-0.65-0.27-1.25-0.64-1.78-1.1v7.08L47.04,35.47z M56.04,15.04
			c-0.37,0-0.73,0.04-1.09,0.12c-0.31,0.07-0.62,0.18-0.91,0.33c-0.28,0.15-0.54,0.33-0.78,0.54c-0.25,0.24-0.49,0.49-0.71,0.76
			v7.82c0.37,0.43,0.83,0.76,1.35,0.97c0.49,0.18,1.01,0.28,1.53,0.27c0.49,0.01,0.97-0.1,1.41-0.3c0.45-0.22,0.83-0.56,1.11-0.97
			c0.35-0.53,0.6-1.12,0.74-1.73c0.19-0.85,0.28-1.73,0.27-2.6c0.01-0.82-0.06-1.64-0.21-2.45c-0.11-0.57-0.31-1.11-0.6-1.61
			c-0.22-0.37-0.53-0.68-0.92-0.88C56.85,15.12,56.45,15.03,56.04,15.04L56.04,15.04z"/>
		<path id="Tracé_4" class="st0" d="M73.29,3v26.62h-5.51V3H73.29z"/>
		<path id="Tracé_5" class="st0" d="M90.47,29.62c-0.41,0.02-0.81-0.05-1.18-0.21c-0.32-0.21-0.56-0.52-0.67-0.89l-0.39-1.01
			c-0.46,0.39-0.9,0.74-1.33,1.03c-0.42,0.29-0.86,0.54-1.32,0.75c-0.47,0.21-0.96,0.36-1.46,0.46c-0.57,0.11-1.14,0.16-1.72,0.15
			c-0.78,0.01-1.56-0.1-2.3-0.33c-0.64-0.2-1.24-0.53-1.75-0.97c-0.49-0.44-0.87-0.99-1.11-1.6c-0.27-0.7-0.4-1.45-0.39-2.2
			c0.01-0.7,0.18-1.39,0.5-2.02c0.4-0.77,1-1.41,1.72-1.88c1.02-0.65,2.13-1.13,3.31-1.42c1.72-0.42,3.48-0.61,5.25-0.57v-0.79
			c0.08-0.84-0.16-1.68-0.67-2.36c-0.5-0.51-1.19-0.77-1.89-0.73c-0.54-0.02-1.08,0.06-1.6,0.21c-0.38,0.13-0.76,0.29-1.11,0.48
			c-0.33,0.18-0.64,0.34-0.95,0.48c-0.35,0.15-0.72,0.22-1.1,0.21c-0.34,0.01-0.68-0.09-0.97-0.28c-0.26-0.18-0.48-0.41-0.63-0.68
			l-1-1.73c1.08-0.97,2.34-1.71,3.71-2.2c1.4-0.49,2.88-0.73,4.37-0.72c1.03-0.01,2.05,0.17,3.01,0.54
			c0.86,0.34,1.63,0.85,2.28,1.51c0.63,0.66,1.12,1.44,1.43,2.3c0.34,0.93,0.51,1.92,0.5,2.92v11.53H90.47z M84.14,26.27
			c0.64,0.01,1.28-0.11,1.87-0.37c0.61-0.31,1.16-0.72,1.62-1.21v-2.53c-0.91-0.02-1.82,0.06-2.72,0.22
			c-0.58,0.1-1.15,0.28-1.69,0.54c-0.35,0.16-0.65,0.41-0.86,0.74c-0.16,0.27-0.24,0.58-0.24,0.89c-0.05,0.5,0.14,1,0.51,1.34
			C83.08,26.17,83.61,26.3,84.14,26.27z"/>
		<path id="Tracé_6" class="st0" d="M108.18,15.22c-0.11,0.19-0.27,0.36-0.45,0.48c-0.19,0.1-0.4,0.15-0.61,0.14
			c-0.27,0-0.54-0.06-0.78-0.17c-0.26-0.11-0.54-0.24-0.84-0.36c-0.33-0.14-0.67-0.26-1.02-0.36c-0.42-0.12-0.86-0.18-1.3-0.17
			c-0.57-0.04-1.13,0.1-1.61,0.4c-0.36,0.25-0.57,0.67-0.56,1.11c-0.01,0.32,0.12,0.64,0.36,0.85c0.29,0.25,0.61,0.46,0.97,0.6
			c0.45,0.19,0.9,0.35,1.37,0.49c0.51,0.15,1.03,0.33,1.56,0.52c0.54,0.19,1.06,0.41,1.57,0.67c0.5,0.25,0.96,0.57,1.37,0.94
			c0.41,0.38,0.74,0.85,0.97,1.36c0.26,0.61,0.38,1.26,0.36,1.92c0.01,0.87-0.16,1.73-0.5,2.53c-0.33,0.77-0.84,1.45-1.48,1.99
			c-0.72,0.59-1.55,1.03-2.44,1.3c-1.08,0.33-2.21,0.48-3.33,0.47c-0.63,0-1.26-0.06-1.89-0.18c-0.62-0.12-1.23-0.28-1.82-0.48
			c-0.56-0.19-1.11-0.43-1.63-0.72c-0.46-0.25-0.89-0.55-1.28-0.9l1.28-2.03c0.14-0.22,0.33-0.42,0.55-0.56
			c0.25-0.14,0.54-0.21,0.83-0.2c0.3-0.01,0.6,0.07,0.86,0.21c0.25,0.14,0.53,0.3,0.83,0.46c0.33,0.18,0.68,0.34,1.04,0.47
			c0.48,0.15,0.99,0.23,1.5,0.21c0.37,0.01,0.73-0.04,1.09-0.13c0.26-0.07,0.5-0.2,0.71-0.37c0.33-0.27,0.52-0.67,0.51-1.1
			c0.01-0.34-0.12-0.67-0.37-0.91c-0.29-0.26-0.62-0.47-0.98-0.61c-0.45-0.19-0.91-0.35-1.38-0.48c-0.51-0.15-1.04-0.32-1.57-0.51
			c-0.54-0.19-1.06-0.42-1.57-0.68c-0.51-0.26-0.98-0.61-1.38-1.02c-0.42-0.43-0.75-0.94-0.98-1.5c-0.53-1.42-0.5-2.99,0.08-4.39
			c0.31-0.71,0.77-1.35,1.36-1.86c0.67-0.57,1.44-1,2.28-1.27c1.03-0.33,2.11-0.49,3.2-0.47c0.65,0,1.29,0.06,1.93,0.18
			c0.6,0.11,1.18,0.28,1.75,0.5c0.52,0.2,1.02,0.45,1.49,0.76c0.43,0.28,0.83,0.59,1.19,0.95L108.18,15.22z"/>
		<path id="Tracé_7" class="st0" d="M120.45,10.89c1.14-0.01,2.28,0.18,3.36,0.57c0.98,0.36,1.87,0.92,2.62,1.65
			c0.75,0.76,1.33,1.66,1.71,2.66c0.42,1.14,0.63,2.35,0.61,3.57c0.01,0.34-0.01,0.68-0.05,1.01c-0.02,0.22-0.09,0.43-0.19,0.62
			c-0.09,0.15-0.22,0.26-0.38,0.32c-0.2,0.07-0.41,0.1-0.62,0.09h-10.64c0.05,1.25,0.55,2.44,1.4,3.35
			c0.81,0.71,1.86,1.09,2.94,1.04c0.56,0.01,1.12-0.07,1.65-0.23c0.42-0.14,0.84-0.31,1.24-0.52c0.36-0.19,0.69-0.36,1-0.51
			c0.29-0.15,0.62-0.23,0.95-0.23c0.39-0.02,0.77,0.16,1,0.48l1.6,1.98c-0.53,0.62-1.15,1.15-1.84,1.59
			c-0.64,0.4-1.32,0.72-2.03,0.96c-0.68,0.23-1.37,0.39-2.08,0.48c-0.66,0.09-1.32,0.13-1.99,0.13c-1.24,0.01-2.47-0.21-3.64-0.63
			c-1.11-0.41-2.12-1.05-2.97-1.88c-0.88-0.88-1.57-1.93-2.01-3.09c-0.52-1.38-0.77-2.84-0.74-4.31c-0.01-1.2,0.21-2.38,0.63-3.5
			c0.82-2.2,2.51-3.96,4.68-4.87C117.86,11.12,119.15,10.87,120.45,10.89z M120.56,14.7c-0.91-0.05-1.81,0.27-2.48,0.9
			c-0.65,0.72-1.06,1.63-1.17,2.59h6.88c0-0.43-0.06-0.86-0.17-1.28c-0.11-0.4-0.3-0.78-0.55-1.11c-0.27-0.34-0.61-0.61-1.01-0.79
			C121.6,14.79,121.08,14.69,120.56,14.7L120.56,14.7z"/>
		<path id="Tracé_8" class="st0" d="M131.91,29.62V11.18h3.27c0.23,0,0.46,0.02,0.68,0.07c0.17,0.04,0.33,0.11,0.46,0.22
			c0.13,0.1,0.23,0.24,0.29,0.4c0.07,0.2,0.13,0.4,0.17,0.61l0.3,1.73c0.6-0.96,1.37-1.8,2.28-2.47c0.8-0.59,1.76-0.91,2.75-0.91
			c0.73-0.03,1.44,0.18,2.03,0.61l-0.71,4.06c-0.02,0.21-0.12,0.39-0.28,0.52c-0.17,0.11-0.37,0.16-0.57,0.15
			c-0.24,0-0.48-0.03-0.71-0.08c-0.34-0.06-0.69-0.09-1.03-0.08c-1.49,0.03-2.83,0.94-3.41,2.31v11.31L131.91,29.62z"/>
	</g>
	<path id="Tracé_15" class="st1" d="M24.09,30.02c-9.7,2.05-19.15,5.41-18.18,7.61c0.78,1.42,3.82,4.6,4.9,5.79
		C4.46,37.7,44,31.96,42.56,35.2c0.85-1.98,1.39-4.09,1.58-6.24C44.15,27.9,33.89,27.96,24.09,30.02"/>
	<path id="Tracé_16" class="st2" d="M5.29,17.6c-0.91,2.03-1.6,4.16-2.05,6.34c17.49-11.51,39.23-5.2,37.74-7.97
		c-0.09-0.14-0.17-0.29-0.26-0.42c-0.03-0.05-0.06-0.09-0.1-0.13c-0.18-0.27-0.38-0.52-0.58-0.77c-0.33-0.43-0.66-0.83-0.9-1.12
		c-0.13-0.15-0.26-0.29-0.4-0.44C21.68,9.19,5.84,17.27,5.29,17.6"/>
	<path id="Tracé_17" class="st1" d="M3,27.27c0.02,2.07,0.35,4.14,0.98,6.11c-0.19-1.77,5.83-5.41,18.58-7.39s21.6,0.86,21.6-0.45
		c-0.16-2.26-0.69-4.48-1.57-6.57C38.68,15.41,3.25,23.95,3,27.27"/>
	<path id="Tracé_18" class="st0" d="M20.66,6.66c-0.48,0.07-0.97,0.14-1.44,0.25c-0.28,0.06-0.55,0.14-0.82,0.21
		c-0.42,0.11-0.84,0.22-1.25,0.36c-0.28,0.1-0.56,0.2-0.84,0.31c-0.39,0.15-0.77,0.3-1.15,0.47c-0.28,0.13-0.55,0.26-0.82,0.39
		c-0.36,0.18-0.72,0.38-1.07,0.58C13,9.38,12.74,9.54,12.49,9.7c-0.34,0.22-0.67,0.45-0.99,0.68c-0.24,0.18-0.49,0.35-0.72,0.54
		c-0.32,0.26-0.62,0.53-0.93,0.8c-0.22,0.2-0.44,0.38-0.65,0.59c-0.31,0.3-0.6,0.62-0.89,0.94c-0.14,0.16-0.29,0.31-0.43,0.48
		c0.58-0.29,15.8-7.77,33.11,2.22c-0.06-0.09-0.11-0.18-0.16-0.27c-0.08-0.12-0.16-0.23-0.24-0.35c-0.32-0.47-0.66-0.92-1.01-1.36
		l-0.04-0.05c-0.37-0.45-0.77-0.88-1.18-1.29c-0.1-0.1-0.19-0.2-0.29-0.29c-0.41-0.41-0.84-0.8-1.28-1.17l-0.16-0.12
		c-0.41-0.34-0.84-0.65-1.28-0.96c-0.11-0.07-0.21-0.15-0.32-0.22c-0.48-0.32-0.97-0.62-1.48-0.9c-0.09-0.05-0.19-0.1-0.28-0.15
		c-0.46-0.24-0.93-0.47-1.4-0.68c-0.1-0.05-0.2-0.09-0.31-0.14c-0.54-0.22-1.09-0.42-1.65-0.6c-0.12-0.04-0.25-0.07-0.37-0.11
		C29,7.14,28.47,7.01,27.93,6.89c-0.07-0.02-0.15-0.04-0.22-0.05c-0.59-0.12-1.19-0.21-1.79-0.27c-0.14-0.02-0.28-0.03-0.42-0.04
		c-0.62-0.06-1.25-0.09-1.88-0.09c-0.75,0-1.49,0.04-2.23,0.12C21.14,6.58,20.9,6.63,20.66,6.66"/>
	<path id="Tracé_19" class="st0" d="M5.29,17.61c-1.02,1.99-1.71,4.12-2.04,6.33c18.42-6.26,40.76-0.54,40.91,1.58
		c-0.15-2.07-0.61-4.11-1.38-6.04c-0.18-0.46-0.31-0.74-0.31-0.74C27.62,9.44,5.77,17.44,5.29,17.61"/>
	<path id="Tracé_20" class="st3" d="M23.28,31.48C13.03,31.38,3,29.26,3,27.29c0,0.52,0.03,1.09,0.08,1.62
		c0.03,0.32,0.08,0.63,0.12,0.94c0.04,0.3,0.08,0.59,0.13,0.88c0.06,0.31,0.12,0.62,0.19,0.92c0.07,0.29,0.14,0.57,0.22,0.86
		c0.07,0.28,0.16,0.59,0.25,0.88c0.78,1.81,10.25,3.84,19.61,4.04s18.64-1.46,18.95-2.19c0.12-0.27,0.21-0.55,0.32-0.83
		c0.11-0.29,0.22-0.58,0.32-0.87c0.1-0.29,0.18-0.6,0.27-0.91c0.08-0.28,0.15-0.56,0.22-0.85c0.08-0.32,0.15-0.64,0.21-0.96
		c0.05-0.29,0.09-0.58,0.13-0.87c0.05-0.33,0.13-0.99,0.13-0.99C43.99,29.67,33.53,31.58,23.28,31.48"/>
	<path id="Tracé_21" class="st3" d="M5.86,37.54c3.56,6.43,10.41,10.35,17.76,10.14c6.42,0,12.47-3,16.36-8.1
		C22.92,48.23,7.44,40.41,5.86,37.54"/>
</g>
</svg>
